<?xml version="1.0" encoding="UTF-8" standalone="no"?>
<!DOCTYPE svg PUBLIC "-//W3C//DTD SVG 1.1//EN"
 "http://www.w3.org/Graphics/SVG/1.1/DTD/svg11.dtd">
<!-- Generated by graphviz version 12.2.1 (0)
 -->
<!-- Title: src/app/Application.cpp Pages: 1 -->
<!--zoomable 325 -->

<svg id="main" version="1.1" xmlns="http://www.w3.org/2000/svg" xmlns:xlink="http://www.w3.org/1999/xlink" xml:space="preserve" onload="init(evt)">

<style type="text/css"><![CDATA[
.node, .edge {opacity: 0.7;}
.node.selected, .edge.selected {opacity: 1;}
.edge:hover path { stroke: red; }
.edge:hover polygon { stroke: red; fill: red; }
]]></style>

<defs>
  <circle id="rim" cx="0" cy="0" r="7"/>
  <circle id="rim2" cx="0" cy="0" r="3.5"/>
  <g id="zoomPlus">
    <use xlink:href="#rim" fill="#404040"><set attributeName="fill" to="#808080" begin="zoomplus.mouseover" end="zoomplus.mouseout"/></use>
    <path d="M-4,0h8M0,-4v8" fill="none" stroke="white" stroke-width="1.5" pointer-events="none"/>
  </g>
  <g id="zoomMin">
    <use xlink:href="#rim" fill="#404040"><set attributeName="fill" to="#808080" begin="zoomminus.mouseover" end="zoomminus.mouseout"/></use>
    <path d="M-4,0h8" fill="none" stroke="white" stroke-width="1.5" pointer-events="none"/>
  </g>
  <g id="arrowUp" transform="translate(30 24)">
    <use xlink:href="#rim"/>
    <path pointer-events="none" fill="none" stroke="white" stroke-width="1.5" d="M0,-3.0v7 M-2.5,-0.5L0,-3.0L2.5,-0.5"/>
  </g>
  <g id="arrowRight" transform="rotate(90) translate(36 -43)">
    <use xlink:href="#rim"/>
    <path pointer-events="none" fill="none" stroke="white" stroke-width="1.5" d="M0,-3.0v7 M-2.5,-0.5L0,-3.0L2.5,-0.5"/>
  </g>
  <g id="arrowDown" transform="rotate(180) translate(-30 -48)">
    <use xlink:href="#rim"/>
    <path pointer-events="none" fill="none" stroke="white" stroke-width="1.5" d="M0,-3.0v7 M-2.5,-0.5L0,-3.0L2.5,-0.5"/>
  </g>
  <g id="arrowLeft" transform="rotate(270) translate(-36 17)">
    <use xlink:href="#rim"/>
    <path pointer-events="none" fill="none" stroke="white" stroke-width="1.5" d="M0,-3.0v7 M-2.5,-0.5L0,-3.0L2.5,-0.5"/>
  </g>
  <g id="resetDef">
    <use xlink:href="#rim2" fill="#404040"><set attributeName="fill" to="#808080" begin="reset.mouseover" end="reset.mouseout"/></use>
  </g>
</defs>
<script type="application/ecmascript">
var viewWidth = 1907;
var viewHeight = 325;
var sectionId = 'dynsection-0';
</script>
<script type="application/ecmascript" xlink:href="svg.min.js"/>
<svg id="graph" class="graph">
<g id="viewport">
<title>src/app/Application.cpp</title>
<!-- Node1 -->
<g id="Node000001" class="node">
<title>Node1</title>
<g id="a_Node000001"><a xlink:title=" ">
<polygon fill="#999999" stroke="#666666" points="1437.75,-317.25 1308.5,-317.25 1308.5,-296.5 1437.75,-296.5 1437.75,-317.25"/>
<text text-anchor="middle" x="1373.12" y="-303.75" font-family="Helvetica,sans-Serif" font-size="10.00">src/app/Application.cpp</text>
</a>
</g>
</g>
<!-- Node2 -->
<g id="Node000002" class="node">
<title>Node2</title>
<g id="a_Node000002"><a xlink:href="NixonCppLib_8hpp.html" target="_top" xlink:title=" ">
<polygon fill="white" stroke="#666666" points="1385.88,-260.5 1224.38,-260.5 1224.38,-239.75 1385.88,-239.75 1385.88,-260.5"/>
<text text-anchor="middle" x="1305.12" y="-247" font-family="Helvetica,sans-Serif" font-size="10.00">NixonCppLib/NixonCppLib.hpp</text>
</a>
</g>
</g>
<!-- Node1&#45;&gt;Node2 -->
<g id="edge1_Node000001_Node000002" class="edge">
<title>Node1&#45;&gt;Node2</title>
<g id="a_edge1_Node000001_Node000002"><a xlink:title=" ">
<path fill="none" stroke="#63b8ff" d="M1360.97,-296.09C1351.3,-288.3 1337.54,-277.22 1326.1,-268.01"/>
<polygon fill="#63b8ff" stroke="#63b8ff" points="1328.34,-265.32 1318.36,-261.78 1323.95,-270.78 1328.34,-265.32"/>
</a>
</g>
</g>
<!-- Node3 -->
<g id="Node000003" class="node">
<title>Node3</title>
<g id="a_Node000003"><a xlink:href="UtilsFactory_8hpp.html" target="_top" xlink:title=" ">
<polygon fill="white" stroke="#666666" points="1255.5,-203.75 1136.75,-203.75 1136.75,-183 1255.5,-183 1255.5,-203.75"/>
<text text-anchor="middle" x="1196.12" y="-190.25" font-family="Helvetica,sans-Serif" font-size="10.00">Utils/UtilsFactory.hpp</text>
</a>
</g>
</g>
<!-- Node1&#45;&gt;Node3 -->
<g id="edge63_Node000001_Node000003" class="edge">
<title>Node1&#45;&gt;Node3</title>
<g id="a_edge63_Node000001_Node000003"><a xlink:title=" ">
<path fill="none" stroke="#63b8ff" d="M1308.02,-301.7C1276.18,-296.39 1239.54,-284.92 1215.12,-260.5 1203.24,-248.61 1198.68,-229.8 1196.98,-215.28"/>
<polygon fill="#63b8ff" stroke="#63b8ff" points="1200.48,-215.12 1196.23,-205.41 1193.5,-215.65 1200.48,-215.12"/>
</a>
</g>
</g>
<!-- Node28 -->
<g id="Node000028" class="node">
<title>Node28</title>
<g id="a_Node000028"><a xlink:title=" ">
<polygon fill="#e0e0e0" stroke="#999999" points="1478.38,-260.5 1403.88,-260.5 1403.88,-239.75 1478.38,-239.75 1478.38,-260.5"/>
<text text-anchor="middle" x="1441.12" y="-247" font-family="Helvetica,sans-Serif" font-size="10.00">cxxopts.hpp</text>
</a>
</g>
</g>
<!-- Node1&#45;&gt;Node28 -->
<g id="edge64_Node000001_Node000028" class="edge">
<title>Node1&#45;&gt;Node28</title>
<g id="a_edge64_Node000001_Node000028"><a xlink:title=" ">
<path fill="none" stroke="#63b8ff" d="M1385.28,-296.09C1394.95,-288.3 1408.71,-277.22 1420.15,-268.01"/>
<polygon fill="#63b8ff" stroke="#63b8ff" points="1422.3,-270.78 1427.89,-261.78 1417.91,-265.32 1422.3,-270.78"/>
</a>
</g>
</g>
<!-- Node29 -->
<g id="Node000029" class="node">
<title>Node29</title>
<g id="a_Node000029"><a xlink:title=" ">
<polygon fill="#e0e0e0" stroke="#999999" points="1555.88,-260.5 1496.38,-260.5 1496.38,-239.75 1555.88,-239.75 1555.88,-260.5"/>
<text text-anchor="middle" x="1526.12" y="-247" font-family="Helvetica,sans-Serif" font-size="10.00">iostream</text>
</a>
</g>
</g>
<!-- Node1&#45;&gt;Node29 -->
<g id="edge65_Node000001_Node000029" class="edge">
<title>Node1&#45;&gt;Node29</title>
<g id="a_edge65_Node000001_Node000029"><a xlink:title=" ">
<path fill="none" stroke="#63b8ff" d="M1400.48,-296.09C1424.88,-287.36 1460.85,-274.48 1488.06,-264.75"/>
<polygon fill="#63b8ff" stroke="#63b8ff" points="1489.09,-268.1 1497.33,-261.43 1486.73,-261.5 1489.09,-268.1"/>
</a>
</g>
</g>
<!-- Node2&#45;&gt;Node3 -->
<g id="edge2_Node000002_Node000003" class="edge">
<title>Node2&#45;&gt;Node3</title>
<g id="a_edge2_Node000002_Node000003"><a xlink:title=" ">
<path fill="none" stroke="#63b8ff" d="M1285.64,-239.34C1268.98,-230.97 1244.74,-218.79 1225.69,-209.22"/>
<polygon fill="#63b8ff" stroke="#63b8ff" points="1227.3,-206.12 1216.8,-204.76 1224.16,-212.37 1227.3,-206.12"/>
</a>
</g>
</g>
<!-- Node22 -->
<g id="Node000022" class="node">
<title>Node22</title>
<g id="a_Node000022"><a xlink:title=" ">
<polygon fill="#e0e0e0" stroke="#999999" points="1814.75,-20.75 1757.5,-20.75 1757.5,0 1814.75,0 1814.75,-20.75"/>
<text text-anchor="middle" x="1786.12" y="-7.25" font-family="Helvetica,sans-Serif" font-size="10.00">memory</text>
</a>
</g>
</g>
<!-- Node2&#45;&gt;Node22 -->
<g id="edge62_Node000002_Node000022" class="edge">
<title>Node2&#45;&gt;Node22</title>
<g id="a_edge62_Node000002_Node000022"><a xlink:title=" ">
<path fill="none" stroke="#63b8ff" d="M1386.25,-240.66C1538.62,-223.95 1855.19,-185.03 1887.12,-147 1913.68,-115.38 1892.02,-88.07 1865.12,-56.75 1853.85,-43.62 1837.77,-33.42 1823.07,-26.05"/>
<polygon fill="#63b8ff" stroke="#63b8ff" points="1824.6,-22.9 1814.06,-21.82 1821.62,-29.24 1824.6,-22.9"/>
</a>
</g>
</g>
<!-- Node4 -->
<g id="Node000004" class="node">
<title>Node4</title>
<g id="a_Node000004"><a xlink:href="IAssetManager_8hpp.html" target="_top" xlink:title=" ">
<polygon fill="white" stroke="#666666" points="547,-140.62 377.25,-140.62 377.25,-119.88 547,-119.88 547,-140.62"/>
<text text-anchor="middle" x="462.12" y="-127.12" font-family="Helvetica,sans-Serif" font-size="10.00">Utils/Assets/IAssetManager.hpp</text>
</a>
</g>
</g>
<!-- Node3&#45;&gt;Node4 -->
<g id="edge3_Node000003_Node000004" class="edge">
<title>Node3&#45;&gt;Node4</title>
<g id="a_edge3_Node000003_Node000004"><a xlink:title=" ">
<path fill="none" stroke="#63b8ff" d="M1136.43,-189.83C1023.72,-184.65 771.94,-171.26 561.12,-147 550.97,-145.83 540.26,-144.37 529.78,-142.81"/>
<polygon fill="#63b8ff" stroke="#63b8ff" points="530.46,-139.37 520.05,-141.32 529.4,-146.29 530.46,-139.37"/>
</a>
</g>
</g>
<!-- Node5 -->
<g id="Node000005" class="node">
<title>Node5</title>
<g id="a_Node000005"><a xlink:title=" ">
<polygon fill="#e0e0e0" stroke="#999999" points="704.62,-77.5 637.62,-77.5 637.62,-56.75 704.62,-56.75 704.62,-77.5"/>
<text text-anchor="middle" x="671.12" y="-64" font-family="Helvetica,sans-Serif" font-size="10.00">filesystem</text>
</a>
</g>
</g>
<!-- Node3&#45;&gt;Node5 -->
<g id="edge60_Node000003_Node000005" class="edge">
<title>Node3&#45;&gt;Node5</title>
<g id="a_edge60_Node000003_Node000005"><a xlink:title=" ">
<path fill="none" stroke="#63b8ff" d="M1136.47,-192.37C991.61,-191.74 630.5,-186.22 594.12,-147 584,-136.08 586.74,-126.43 594.12,-113.5 601.98,-99.76 615.8,-89.76 629.58,-82.71"/>
<polygon fill="#63b8ff" stroke="#63b8ff" points="631.04,-85.89 638.64,-78.52 628.1,-79.54 631.04,-85.89"/>
</a>
</g>
</g>
<!-- Node6 -->
<g id="Node000006" class="node">
<title>Node6</title>
<g id="a_Node000006"><a xlink:href="IDirectoryManager_8hpp.html" target="_top" xlink:title=" ">
<polygon fill="white" stroke="#666666" points="749,-147 603.25,-147 603.25,-113.5 749,-113.5 749,-147"/>
<text text-anchor="start" x="611.25" y="-133.5" font-family="Helvetica,sans-Serif" font-size="10.00">Utils/Filesystem/IDirectory</text>
<text text-anchor="middle" x="676.12" y="-120.75" font-family="Helvetica,sans-Serif" font-size="10.00">Manager.hpp</text>
</a>
</g>
</g>
<!-- Node3&#45;&gt;Node6 -->
<g id="edge5_Node000003_Node000006" class="edge">
<title>Node3&#45;&gt;Node6</title>
<g id="a_edge5_Node000003_Node000006"><a xlink:title=" ">
<path fill="none" stroke="#63b8ff" d="M1136.41,-187.84C1054.14,-181.22 901.09,-167.61 760.76,-147.31"/>
<polygon fill="#63b8ff" stroke="#63b8ff" points="761.29,-143.85 750.89,-145.87 760.27,-150.78 761.29,-143.85"/>
</a>
</g>
</g>
<!-- Node14 -->
<g id="Node000014" class="node">
<title>Node14</title>
<g id="a_Node000014"><a xlink:href="IFileReader_8hpp.html" target="_top" xlink:title=" ">
<polygon fill="white" stroke="#666666" points="359.5,-140.62 186.75,-140.62 186.75,-119.88 359.5,-119.88 359.5,-140.62"/>
<text text-anchor="middle" x="273.12" y="-127.12" font-family="Helvetica,sans-Serif" font-size="10.00">Utils/Filesystem/IFileReader.hpp</text>
</a>
</g>
</g>
<!-- Node3&#45;&gt;Node14 -->
<g id="edge14_Node000003_Node000014" class="edge">
<title>Node3&#45;&gt;Node14</title>
<g id="a_edge14_Node000003_Node000014"><a xlink:title=" ">
<path fill="none" stroke="#63b8ff" d="M1136.45,-191.35C1000,-188.5 654.87,-178.53 368.12,-147 358.22,-145.91 347.79,-144.48 337.6,-142.92"/>
<polygon fill="#63b8ff" stroke="#63b8ff" points="338.16,-139.46 327.74,-141.35 337.06,-146.37 338.16,-139.46"/>
</a>
</g>
</g>
<!-- Node15 -->
<g id="Node000015" class="node">
<title>Node15</title>
<g id="a_Node000015"><a xlink:href="IFileWriter_8hpp.html" target="_top" xlink:title=" ">
<polygon fill="white" stroke="#666666" points="168.25,-140.62 0,-140.62 0,-119.88 168.25,-119.88 168.25,-140.62"/>
<text text-anchor="middle" x="84.12" y="-127.12" font-family="Helvetica,sans-Serif" font-size="10.00">Utils/Filesystem/IFileWriter.hpp</text>
</a>
</g>
</g>
<!-- Node3&#45;&gt;Node15 -->
<g id="edge20_Node000003_Node000015" class="edge">
<title>Node3&#45;&gt;Node15</title>
<g id="a_edge20_Node000003_Node000015"><a xlink:title=" ">
<path fill="none" stroke="#63b8ff" d="M1136.27,-192.24C978.87,-191.34 540.55,-185.3 178.12,-147 167.97,-145.93 157.26,-144.46 146.84,-142.84"/>
<polygon fill="#63b8ff" stroke="#63b8ff" points="147.61,-139.42 137.18,-141.29 146.5,-146.33 147.61,-139.42"/>
</a>
</g>
</g>
<!-- Node16 -->
<g id="Node000016" class="node">
<title>Node16</title>
<g id="a_Node000016"><a xlink:href="IPathResolver_8hpp.html" target="_top" xlink:title=" ">
<polygon fill="white" stroke="#666666" points="951.5,-140.62 766.75,-140.62 766.75,-119.88 951.5,-119.88 951.5,-140.62"/>
<text text-anchor="middle" x="859.12" y="-127.12" font-family="Helvetica,sans-Serif" font-size="10.00">Utils/Filesystem/IPathResolver.hpp</text>
</a>
</g>
</g>
<!-- Node3&#45;&gt;Node16 -->
<g id="edge26_Node000003_Node000016" class="edge">
<title>Node3&#45;&gt;Node16</title>
<g id="a_edge26_Node000003_Node000016"><a xlink:title=" ">
<path fill="none" stroke="#63b8ff" d="M1141.98,-182.55C1082.74,-171.81 987.8,-154.59 924.47,-143.1"/>
<polygon fill="#63b8ff" stroke="#63b8ff" points="925.37,-139.71 914.9,-141.37 924.12,-146.6 925.37,-139.71"/>
</a>
</g>
</g>
<!-- Node17 -->
<g id="Node000017" class="node">
<title>Node17</title>
<g id="a_Node000017"><a xlink:href="ICustomStringsLoader_8hpp.html" target="_top" xlink:title=" ">
<polygon fill="white" stroke="#666666" points="1430.62,-147 1291.62,-147 1291.62,-113.5 1430.62,-113.5 1430.62,-147"/>
<text text-anchor="start" x="1299.62" y="-133.5" font-family="Helvetica,sans-Serif" font-size="10.00">Utils/Json/ICustomStrings</text>
<text text-anchor="middle" x="1361.12" y="-120.75" font-family="Helvetica,sans-Serif" font-size="10.00">Loader.hpp</text>
</a>
</g>
</g>
<!-- Node3&#45;&gt;Node17 -->
<g id="edge31_Node000003_Node000017" class="edge">
<title>Node3&#45;&gt;Node17</title>
<g id="a_edge31_Node000003_Node000017"><a xlink:title=" ">
<path fill="none" stroke="#63b8ff" d="M1222.64,-182.55C1245.25,-174.18 1278.5,-161.86 1306.75,-151.39"/>
<polygon fill="#63b8ff" stroke="#63b8ff" points="1307.72,-154.77 1315.88,-148.01 1305.29,-148.2 1307.72,-154.77"/>
</a>
</g>
</g>
<!-- Node19 -->
<g id="Node000019" class="node">
<title>Node19</title>
<g id="a_Node000019"><a xlink:href="IJsonSerializer_8hpp.html" target="_top" xlink:title=" ">
<polygon fill="white" stroke="#666666" points="1273.12,-140.62 1119.12,-140.62 1119.12,-119.88 1273.12,-119.88 1273.12,-140.62"/>
<text text-anchor="middle" x="1196.12" y="-127.12" font-family="Helvetica,sans-Serif" font-size="10.00">Utils/Json/IJsonSerializer.hpp</text>
</a>
</g>
</g>
<!-- Node3&#45;&gt;Node19 -->
<g id="edge36_Node000003_Node000019" class="edge">
<title>Node3&#45;&gt;Node19</title>
<g id="a_edge36_Node000003_Node000019"><a xlink:title=" ">
<path fill="none" stroke="#63b8ff" d="M1196.12,-182.55C1196.12,-174.4 1196.12,-162.51 1196.12,-152.23"/>
<polygon fill="#63b8ff" stroke="#63b8ff" points="1199.63,-152.36 1196.13,-142.36 1192.63,-152.36 1199.63,-152.36"/>
</a>
</g>
</g>
<!-- Node20 -->
<g id="Node000020" class="node">
<title>Node20</title>
<g id="a_Node000020"><a xlink:href="ILogger_8hpp.html" target="_top" xlink:title=" ">
<polygon fill="white" stroke="#666666" points="1707,-77.5 1573.25,-77.5 1573.25,-56.75 1707,-56.75 1707,-77.5"/>
<text text-anchor="middle" x="1640.12" y="-64" font-family="Helvetica,sans-Serif" font-size="10.00">Utils/Logger/ILogger.hpp</text>
</a>
</g>
</g>
<!-- Node3&#45;&gt;Node20 -->
<g id="edge41_Node000003_Node000020" class="edge">
<title>Node3&#45;&gt;Node20</title>
<g id="a_edge41_Node000003_Node000020"><a xlink:title=" ">
<path fill="none" stroke="#63b8ff" d="M1255.93,-188.04C1310.05,-182.72 1391.29,-171.22 1458.12,-147 1486.11,-136.86 1489.16,-126.11 1516.12,-113.5 1542.69,-101.08 1573.66,-89.75 1598.01,-81.51"/>
<polygon fill="#63b8ff" stroke="#63b8ff" points="1598.87,-84.91 1607.25,-78.43 1596.66,-78.27 1598.87,-84.91"/>
</a>
</g>
</g>
<!-- Node3&#45;&gt;Node22 -->
<g id="edge61_Node000003_Node000022" class="edge">
<title>Node3&#45;&gt;Node22</title>
<g id="a_edge61_Node000003_Node000022"><a xlink:title=" ">
<path fill="none" stroke="#63b8ff" d="M1255.73,-192.88C1412.44,-193.59 1826.78,-191.23 1868.12,-147 1902.99,-109.7 1844.23,-55.22 1809.26,-28.06"/>
<polygon fill="#63b8ff" stroke="#63b8ff" points="1811.42,-25.31 1801.33,-22.07 1807.2,-30.89 1811.42,-25.31"/>
</a>
</g>
</g>
<!-- Node24 -->
<g id="Node000024" class="node">
<title>Node24</title>
<g id="a_Node000024"><a xlink:href="LoggerFactory_8hpp.html" target="_top" xlink:title=" ">
<polygon fill="white" stroke="#666666" points="1690.75,-140.62 1525.5,-140.62 1525.5,-119.88 1690.75,-119.88 1690.75,-140.62"/>
<text text-anchor="middle" x="1608.12" y="-127.12" font-family="Helvetica,sans-Serif" font-size="10.00">Utils/Logger/LoggerFactory.hpp</text>
</a>
</g>
</g>
<!-- Node3&#45;&gt;Node24 -->
<g id="edge47_Node000003_Node000024" class="edge">
<title>Node3&#45;&gt;Node24</title>
<g id="a_edge47_Node000003_Node000024"><a xlink:title=" ">
<path fill="none" stroke="#63b8ff" d="M1255.97,-184.08C1319.37,-175.21 1422.38,-160.6 1511.12,-147 1519.6,-145.7 1528.49,-144.31 1537.3,-142.9"/>
<polygon fill="#63b8ff" stroke="#63b8ff" points="1537.57,-146.4 1546.89,-141.36 1536.46,-139.49 1537.57,-146.4"/>
</a>
</g>
</g>
<!-- Node25 -->
<g id="Node000025" class="node">
<title>Node25</title>
<g id="a_Node000025"><a xlink:href="NullLogger_8hpp.html" target="_top" xlink:title=" ">
<polygon fill="white" stroke="#666666" points="1859.25,-140.62 1709,-140.62 1709,-119.88 1859.25,-119.88 1859.25,-140.62"/>
<text text-anchor="middle" x="1784.12" y="-127.12" font-family="Helvetica,sans-Serif" font-size="10.00">Utils/Logger/NullLogger.hpp</text>
</a>
</g>
</g>
<!-- Node3&#45;&gt;Node25 -->
<g id="edge51_Node000003_Node000025" class="edge">
<title>Node3&#45;&gt;Node25</title>
<g id="a_edge51_Node000003_Node000025"><a xlink:title=" ">
<path fill="none" stroke="#63b8ff" d="M1255.69,-188.86C1350.21,-182.87 1540.22,-169.14 1700.12,-147 1708.11,-145.89 1716.48,-144.55 1724.73,-143.12"/>
<polygon fill="#63b8ff" stroke="#63b8ff" points="1725.12,-146.6 1734.35,-141.39 1723.89,-139.71 1725.12,-146.6"/>
</a>
</g>
</g>
<!-- Node26 -->
<g id="Node000026" class="node">
<title>Node26</title>
<g id="a_Node000026"><a xlink:href="IPlatformInfo_8hpp.html" target="_top" xlink:title=" ">
<polygon fill="white" stroke="#666666" points="1100.88,-147 969.38,-147 969.38,-113.5 1100.88,-113.5 1100.88,-147"/>
<text text-anchor="start" x="977.38" y="-133.5" font-family="Helvetica,sans-Serif" font-size="10.00">Utils/Platform/IPlatform</text>
<text text-anchor="middle" x="1035.12" y="-120.75" font-family="Helvetica,sans-Serif" font-size="10.00">Info.hpp</text>
</a>
</g>
</g>
<!-- Node3&#45;&gt;Node26 -->
<g id="edge53_Node000003_Node000026" class="edge">
<title>Node3&#45;&gt;Node26</title>
<g id="a_edge53_Node000003_Node000026"><a xlink:title=" ">
<path fill="none" stroke="#63b8ff" d="M1170.26,-182.55C1148.29,-174.21 1116.03,-161.97 1088.55,-151.53"/>
<polygon fill="#63b8ff" stroke="#63b8ff" points="1089.89,-148.3 1079.3,-148.02 1087.41,-154.84 1089.89,-148.3"/>
</a>
</g>
</g>
<!-- Node27 -->
<g id="Node000027" class="node">
<title>Node27</title>
<g id="a_Node000027"><a xlink:href="IStringFormatter_8hpp.html" target="_top" xlink:title=" ">
<polygon fill="white" stroke="#666666" points="1517.5,-77.5 1344.75,-77.5 1344.75,-56.75 1517.5,-56.75 1517.5,-77.5"/>
<text text-anchor="middle" x="1431.12" y="-64" font-family="Helvetica,sans-Serif" font-size="10.00">Utils/String/IStringFormatter.hpp</text>
</a>
</g>
</g>
<!-- Node3&#45;&gt;Node27 -->
<g id="edge58_Node000003_Node000027" class="edge">
<title>Node3&#45;&gt;Node27</title>
<g id="a_edge58_Node000003_Node000027"><a xlink:title=" ">
<path fill="none" stroke="#63b8ff" d="M1255.75,-189.77C1320.3,-185.55 1417.13,-174.67 1440.12,-147 1453.64,-130.74 1447.73,-105.65 1440.82,-88.14"/>
<polygon fill="#63b8ff" stroke="#63b8ff" points="1444.16,-87.04 1436.93,-79.29 1437.75,-89.86 1444.16,-87.04"/>
</a>
</g>
</g>
<!-- Node4&#45;&gt;Node5 -->
<g id="edge4_Node000004_Node000005" class="edge">
<title>Node4&#45;&gt;Node5</title>
<g id="a_edge4_Node000004_Node000005"><a xlink:title=" ">
<path fill="none" stroke="#63b8ff" d="M495.7,-119.43C531.28,-109.03 587.61,-92.55 626.81,-81.09"/>
<polygon fill="#63b8ff" stroke="#63b8ff" points="627.56,-84.51 636.18,-78.35 625.6,-77.79 627.56,-84.51"/>
</a>
</g>
</g>
<!-- Node6&#45;&gt;Node5 -->
<g id="edge12_Node000006_Node000005" class="edge">
<title>Node6&#45;&gt;Node5</title>
<g id="a_edge12_Node000006_Node000005"><a xlink:title=" ">
<path fill="none" stroke="#63b8ff" d="M674.81,-113.19C674.21,-105.85 673.49,-97.07 672.85,-89.21"/>
<polygon fill="#63b8ff" stroke="#63b8ff" points="676.36,-89.16 672.05,-79.48 669.38,-89.73 676.36,-89.16"/>
</a>
</g>
</g>
<!-- Node7 -->
<g id="Node000007" class="node">
<title>Node7</title>
<g id="a_Node000007"><a xlink:href="UtilsError_8hpp.html" target="_top" xlink:title=" ">
<polygon fill="white" stroke="#666666" points="986.88,-77.5 879.38,-77.5 879.38,-56.75 986.88,-56.75 986.88,-77.5"/>
<text text-anchor="middle" x="933.12" y="-64" font-family="Helvetica,sans-Serif" font-size="10.00">Utils/UtilsError.hpp</text>
</a>
</g>
</g>
<!-- Node6&#45;&gt;Node7 -->
<g id="edge6_Node000006_Node000007" class="edge">
<title>Node6&#45;&gt;Node7</title>
<g id="a_edge6_Node000006_Node000007"><a xlink:title=" ">
<path fill="none" stroke="#63b8ff" d="M744.32,-113.03C787.09,-102.86 841.39,-89.94 880.76,-80.58"/>
<polygon fill="#63b8ff" stroke="#63b8ff" points="881.57,-83.98 890.49,-78.27 879.95,-77.17 881.57,-83.98"/>
</a>
</g>
</g>
<!-- Node13 -->
<g id="Node000013" class="node">
<title>Node13</title>
<g id="a_Node000013"><a xlink:title=" ">
<polygon fill="#e0e0e0" stroke="#999999" points="608.5,-77.5 561.75,-77.5 561.75,-56.75 608.5,-56.75 608.5,-77.5"/>
<text text-anchor="middle" x="585.12" y="-64" font-family="Helvetica,sans-Serif" font-size="10.00">vector</text>
</a>
</g>
</g>
<!-- Node6&#45;&gt;Node13 -->
<g id="edge13_Node000006_Node000013" class="edge">
<title>Node6&#45;&gt;Node13</title>
<g id="a_edge13_Node000006_Node000013"><a xlink:title=" ">
<path fill="none" stroke="#63b8ff" d="M652.22,-113.19C638.96,-104.28 622.51,-93.24 609.22,-84.31"/>
<polygon fill="#63b8ff" stroke="#63b8ff" points="611.29,-81.48 601.03,-78.81 607.38,-87.29 611.29,-81.48"/>
</a>
</g>
</g>
<!-- Node8 -->
<g id="Node000008" class="node">
<title>Node8</title>
<g id="a_Node000008"><a xlink:title=" ">
<polygon fill="#e0e0e0" stroke="#999999" points="848.62,-20.75 799.62,-20.75 799.62,0 848.62,0 848.62,-20.75"/>
<text text-anchor="middle" x="824.12" y="-7.25" font-family="Helvetica,sans-Serif" font-size="10.00">cstdint</text>
</a>
</g>
</g>
<!-- Node7&#45;&gt;Node8 -->
<g id="edge7_Node000007_Node000008" class="edge">
<title>Node7&#45;&gt;Node8</title>
<g id="a_edge7_Node000007_Node000008"><a xlink:title=" ">
<path fill="none" stroke="#63b8ff" d="M913.64,-56.34C896.98,-47.97 872.74,-35.79 853.69,-26.22"/>
<polygon fill="#63b8ff" stroke="#63b8ff" points="855.3,-23.12 844.8,-21.76 852.16,-29.37 855.3,-23.12"/>
</a>
</g>
</g>
<!-- Node9 -->
<g id="Node000009" class="node">
<title>Node9</title>
<g id="a_Node000009"><a xlink:title=" ">
<polygon fill="#e0e0e0" stroke="#999999" points="1073,-20.75 1017.25,-20.75 1017.25,0 1073,0 1073,-20.75"/>
<text text-anchor="middle" x="1045.12" y="-7.25" font-family="Helvetica,sans-Serif" font-size="10.00">optional</text>
</a>
</g>
</g>
<!-- Node7&#45;&gt;Node9 -->
<g id="edge8_Node000007_Node000009" class="edge">
<title>Node7&#45;&gt;Node9</title>
<g id="a_edge8_Node000007_Node000009"><a xlink:title=" ">
<path fill="none" stroke="#63b8ff" d="M953.15,-56.34C970.35,-47.93 995.4,-35.68 1015.02,-26.09"/>
<polygon fill="#63b8ff" stroke="#63b8ff" points="1016.47,-29.28 1023.92,-21.74 1013.39,-22.99 1016.47,-29.28"/>
</a>
</g>
</g>
<!-- Node10 -->
<g id="Node000010" class="node">
<title>Node10</title>
<g id="a_Node000010"><a xlink:title=" ">
<polygon fill="#e0e0e0" stroke="#999999" points="931.12,-20.75 867.12,-20.75 867.12,0 931.12,0 931.12,-20.75"/>
<text text-anchor="middle" x="899.12" y="-7.25" font-family="Helvetica,sans-Serif" font-size="10.00">stdexcept</text>
</a>
</g>
</g>
<!-- Node7&#45;&gt;Node10 -->
<g id="edge9_Node000007_Node000010" class="edge">
<title>Node7&#45;&gt;Node10</title>
<g id="a_edge9_Node000007_Node000010"><a xlink:title=" ">
<path fill="none" stroke="#63b8ff" d="M927.05,-56.34C922.65,-49.25 916.55,-39.44 911.18,-30.79"/>
<polygon fill="#63b8ff" stroke="#63b8ff" points="914.2,-29.01 905.95,-22.36 908.25,-32.71 914.2,-29.01"/>
</a>
</g>
</g>
<!-- Node11 -->
<g id="Node000011" class="node">
<title>Node11</title>
<g id="a_Node000011"><a xlink:title=" ">
<polygon fill="#e0e0e0" stroke="#999999" points="1135,-20.75 1091.25,-20.75 1091.25,0 1135,0 1135,-20.75"/>
<text text-anchor="middle" x="1113.12" y="-7.25" font-family="Helvetica,sans-Serif" font-size="10.00">string</text>
</a>
</g>
</g>
<!-- Node7&#45;&gt;Node11 -->
<g id="edge10_Node000007_Node000011" class="edge">
<title>Node7&#45;&gt;Node11</title>
<g id="a_edge10_Node000007_Node000011"><a xlink:title=" ">
<path fill="none" stroke="#63b8ff" d="M965.31,-56.34C997.69,-46.49 1047.39,-31.37 1080.08,-21.43"/>
<polygon fill="#63b8ff" stroke="#63b8ff" points="1080.88,-24.84 1089.43,-18.58 1078.84,-18.14 1080.88,-24.84"/>
</a>
</g>
</g>
<!-- Node12 -->
<g id="Node000012" class="node">
<title>Node12</title>
<g id="a_Node000012"><a xlink:title=" ">
<polygon fill="#e0e0e0" stroke="#999999" points="999.38,-20.75 948.88,-20.75 948.88,0 999.38,0 999.38,-20.75"/>
<text text-anchor="middle" x="974.12" y="-7.25" font-family="Helvetica,sans-Serif" font-size="10.00">variant</text>
</a>
</g>
</g>
<!-- Node7&#45;&gt;Node12 -->
<g id="edge11_Node000007_Node000012" class="edge">
<title>Node7&#45;&gt;Node12</title>
<g id="a_edge11_Node000007_Node000012"><a xlink:title=" ">
<path fill="none" stroke="#63b8ff" d="M940.45,-56.34C945.88,-49.1 953.43,-39.01 960.01,-30.22"/>
<polygon fill="#63b8ff" stroke="#63b8ff" points="962.76,-32.39 965.95,-22.29 957.16,-28.2 962.76,-32.39"/>
</a>
</g>
</g>
<!-- Node14&#45;&gt;Node5 -->
<g id="edge17_Node000014_Node000005" class="edge">
<title>Node14&#45;&gt;Node5</title>
<g id="a_edge17_Node000014_Node000005"><a xlink:title=" ">
<path fill="none" stroke="#63b8ff" d="M331.37,-119.4C343.51,-117.4 356.23,-115.35 368.12,-113.5 478.62,-96.35 506.7,-95.07 617.12,-77.5 619.96,-77.05 622.88,-76.57 625.82,-76.09"/>
<polygon fill="#63b8ff" stroke="#63b8ff" points="626.39,-79.54 635.67,-74.42 625.22,-72.64 626.39,-79.54"/>
</a>
</g>
</g>
<!-- Node14&#45;&gt;Node7 -->
<g id="edge15_Node000014_Node000007" class="edge">
<title>Node14&#45;&gt;Node7</title>
<g id="a_edge15_Node000014_Node000007"><a xlink:title=" ">
<path fill="none" stroke="#63b8ff" d="M327.77,-119.38C340.95,-117.23 355.02,-115.11 368.12,-113.5 548.41,-91.36 762.44,-77.56 867.83,-71.58"/>
<polygon fill="#63b8ff" stroke="#63b8ff" points="867.92,-75.08 877.71,-71.02 867.53,-68.09 867.92,-75.08"/>
</a>
</g>
</g>
<!-- Node14&#45;&gt;Node8 -->
<g id="edge16_Node000014_Node000008" class="edge">
<title>Node14&#45;&gt;Node8</title>
<g id="a_edge16_Node000014_Node000008"><a xlink:title=" ">
<path fill="none" stroke="#63b8ff" d="M298.7,-119.4C340.03,-103.84 424.31,-73.64 498.12,-56.75 602.04,-32.96 727.64,-19.75 788.12,-14.33"/>
<polygon fill="#63b8ff" stroke="#63b8ff" points="788.16,-17.84 797.82,-13.48 787.55,-10.87 788.16,-17.84"/>
</a>
</g>
</g>
<!-- Node14&#45;&gt;Node11 -->
<g id="edge18_Node000014_Node000011" class="edge">
<title>Node14&#45;&gt;Node11</title>
<g id="a_edge18_Node000014_Node000011"><a xlink:title=" ">
<path fill="none" stroke="#63b8ff" d="M311.67,-119.38C352.15,-109.01 417.63,-92.19 474.12,-77.5 509.26,-68.36 517.3,-62.62 553.12,-56.75 782.05,-19.24 848.25,-61.76 1079.77,-20.76"/>
<polygon fill="#63b8ff" stroke="#63b8ff" points="1080.21,-24.24 1089.43,-19.01 1078.97,-17.35 1080.21,-24.24"/>
</a>
</g>
</g>
<!-- Node14&#45;&gt;Node13 -->
<g id="edge19_Node000014_Node000013" class="edge">
<title>Node14&#45;&gt;Node13</title>
<g id="a_edge19_Node000014_Node000013"><a xlink:title=" ">
<path fill="none" stroke="#63b8ff" d="M323.25,-119.43C386.8,-106.98 494.74,-85.83 550.1,-74.99"/>
<polygon fill="#63b8ff" stroke="#63b8ff" points="550.77,-78.42 559.91,-73.07 549.42,-71.55 550.77,-78.42"/>
</a>
</g>
</g>
<!-- Node15&#45;&gt;Node5 -->
<g id="edge23_Node000015_Node000005" class="edge">
<title>Node15&#45;&gt;Node5</title>
<g id="a_edge23_Node000015_Node000005"><a xlink:title=" ">
<path fill="none" stroke="#63b8ff" d="M138.19,-119.39C151.24,-117.23 165.15,-115.12 178.12,-113.5 372.39,-89.3 422.93,-102.27 617.12,-77.5 619.97,-77.14 622.9,-76.73 625.85,-76.29"/>
<polygon fill="#63b8ff" stroke="#63b8ff" points="626.38,-79.75 635.71,-74.73 625.29,-72.84 626.38,-79.75"/>
</a>
</g>
</g>
<!-- Node15&#45;&gt;Node7 -->
<g id="edge21_Node000015_Node000007" class="edge">
<title>Node15&#45;&gt;Node7</title>
<g id="a_edge21_Node000015_Node000007"><a xlink:title=" ">
<path fill="none" stroke="#63b8ff" d="M136.69,-119.43C150.15,-117.2 164.64,-115.03 178.12,-113.5 310.9,-98.43 709.79,-78.64 867.71,-71.16"/>
<polygon fill="#63b8ff" stroke="#63b8ff" points="867.77,-74.66 877.6,-70.7 867.44,-67.67 867.77,-74.66"/>
</a>
</g>
</g>
<!-- Node15&#45;&gt;Node8 -->
<g id="edge22_Node000015_Node000008" class="edge">
<title>Node15&#45;&gt;Node8</title>
<g id="a_edge22_Node000015_Node000008"><a xlink:title=" ">
<path fill="none" stroke="#63b8ff" d="M106.14,-119.4C143.26,-103.29 220.99,-71.6 290.12,-56.75 474.31,-17.19 701.19,-11.82 788.01,-11.31"/>
<polygon fill="#63b8ff" stroke="#63b8ff" points="787.81,-14.81 797.8,-11.27 787.79,-7.81 787.81,-14.81"/>
</a>
</g>
</g>
<!-- Node15&#45;&gt;Node11 -->
<g id="edge24_Node000015_Node000011" class="edge">
<title>Node15&#45;&gt;Node11</title>
<g id="a_edge24_Node000015_Node000011"><a xlink:title=" ">
<path fill="none" stroke="#63b8ff" d="M126.69,-119.42C197.52,-103.48 344.25,-72.21 470.12,-56.75 736.87,-23.99 811.83,-67.3 1079.68,-20.76"/>
<polygon fill="#63b8ff" stroke="#63b8ff" points="1080.2,-24.22 1089.44,-19.03 1078.98,-17.33 1080.2,-24.22"/>
</a>
</g>
</g>
<!-- Node15&#45;&gt;Node13 -->
<g id="edge25_Node000015_Node000013" class="edge">
<title>Node15&#45;&gt;Node13</title>
<g id="a_edge25_Node000015_Node000013"><a xlink:title=" ">
<path fill="none" stroke="#63b8ff" d="M139.72,-119.42C152.33,-117.33 165.67,-115.24 178.12,-113.5 315.58,-94.34 480.06,-78.02 550.42,-71.34"/>
<polygon fill="#63b8ff" stroke="#63b8ff" points="550.53,-74.85 560.16,-70.43 549.88,-67.88 550.53,-74.85"/>
</a>
</g>
</g>
<!-- Node16&#45;&gt;Node5 -->
<g id="edge28_Node000016_Node000005" class="edge">
<title>Node16&#45;&gt;Node5</title>
<g id="a_edge28_Node000016_Node000005"><a xlink:title=" ">
<path fill="none" stroke="#63b8ff" d="M828.92,-119.43C797.26,-109.14 747.33,-92.9 712.13,-81.46"/>
<polygon fill="#63b8ff" stroke="#63b8ff" points="713.29,-78.15 702.69,-78.39 711.12,-84.81 713.29,-78.15"/>
</a>
</g>
</g>
<!-- Node16&#45;&gt;Node7 -->
<g id="edge27_Node000016_Node000007" class="edge">
<title>Node16&#45;&gt;Node7</title>
<g id="a_edge27_Node000016_Node000007"><a xlink:title=" ">
<path fill="none" stroke="#63b8ff" d="M871.01,-119.43C882.3,-110.11 899.49,-95.91 912.93,-84.81"/>
<polygon fill="#63b8ff" stroke="#63b8ff" points="914.86,-87.75 920.34,-78.68 910.4,-82.35 914.86,-87.75"/>
</a>
</g>
</g>
<!-- Node16&#45;&gt;Node11 -->
<g id="edge29_Node000016_Node000011" class="edge">
<title>Node16&#45;&gt;Node11</title>
<g id="a_edge29_Node000016_Node000011"><a xlink:title=" ">
<path fill="none" stroke="#63b8ff" d="M889.06,-119.43C917.19,-109.85 960.2,-94.31 996.12,-77.5 1028.74,-62.23 1064.56,-41.33 1087.87,-27.15"/>
<polygon fill="#63b8ff" stroke="#63b8ff" points="1089.66,-30.16 1096.35,-21.94 1085.99,-24.19 1089.66,-30.16"/>
</a>
</g>
</g>
<!-- Node16&#45;&gt;Node13 -->
<g id="edge30_Node000016_Node000013" class="edge">
<title>Node16&#45;&gt;Node13</title>
<g id="a_edge30_Node000016_Node000013"><a xlink:title=" ">
<path fill="none" stroke="#63b8ff" d="M815.1,-119.43C760.76,-107.31 669.47,-86.94 619.83,-75.87"/>
<polygon fill="#63b8ff" stroke="#63b8ff" points="620.73,-72.48 610.21,-73.72 619.21,-79.31 620.73,-72.48"/>
</a>
</g>
</g>
<!-- Node17&#45;&gt;Node7 -->
<g id="edge32_Node000017_Node000007" class="edge">
<title>Node17&#45;&gt;Node7</title>
<g id="a_edge32_Node000017_Node000007"><a xlink:title=" ">
<path fill="none" stroke="#63b8ff" d="M1291.38,-115.08C1288.26,-114.53 1285.16,-114 1282.12,-113.5 1183.61,-97.29 1068.67,-83.29 998.41,-75.28"/>
<polygon fill="#63b8ff" stroke="#63b8ff" points="998.93,-71.82 988.6,-74.17 998.15,-78.77 998.93,-71.82"/>
</a>
</g>
</g>
<!-- Node17&#45;&gt;Node9 -->
<g id="edge34_Node000017_Node000009" class="edge">
<title>Node17&#45;&gt;Node9</title>
<g id="a_edge34_Node000017_Node000009"><a xlink:title=" ">
<path fill="none" stroke="#63b8ff" d="M1339.79,-113.2C1312.8,-93.02 1268.78,-60.52 1260.12,-56.75 1189.32,-25.88 1163.09,-37.54 1084.31,-21.08"/>
<polygon fill="#63b8ff" stroke="#63b8ff" points="1085.37,-17.72 1074.85,-19.01 1083.87,-24.56 1085.37,-17.72"/>
</a>
</g>
</g>
<!-- Node17&#45;&gt;Node11 -->
<g id="edge35_Node000017_Node000011" class="edge">
<title>Node17&#45;&gt;Node11</title>
<g id="a_edge35_Node000017_Node000011"><a xlink:title=" ">
<path fill="none" stroke="#63b8ff" d="M1350.32,-113.15C1338.3,-96.51 1317.36,-71.02 1293.12,-56.75 1246.89,-29.53 1184.67,-18.52 1146.8,-14.15"/>
<polygon fill="#63b8ff" stroke="#63b8ff" points="1147.23,-10.68 1136.92,-13.11 1146.5,-17.64 1147.23,-10.68"/>
</a>
</g>
</g>
<!-- Node18 -->
<g id="Node000018" class="node">
<title>Node18</title>
<g id="a_Node000018"><a xlink:title=" ">
<polygon fill="#e0e0e0" stroke="#999999" points="1250.62,-77.5 1141.62,-77.5 1141.62,-56.75 1250.62,-56.75 1250.62,-77.5"/>
<text text-anchor="middle" x="1196.12" y="-64" font-family="Helvetica,sans-Serif" font-size="10.00">nlohmann/json.hpp</text>
</a>
</g>
</g>
<!-- Node17&#45;&gt;Node18 -->
<g id="edge33_Node000017_Node000018" class="edge">
<title>Node17&#45;&gt;Node18</title>
<g id="a_edge33_Node000017_Node000018"><a xlink:title=" ">
<path fill="none" stroke="#63b8ff" d="M1317.34,-113.03C1291.06,-103.29 1258,-91.05 1233.05,-81.8"/>
<polygon fill="#63b8ff" stroke="#63b8ff" points="1234.56,-78.63 1223.97,-78.44 1232.13,-85.2 1234.56,-78.63"/>
</a>
</g>
</g>
<!-- Node19&#45;&gt;Node5 -->
<g id="edge38_Node000019_Node000005" class="edge">
<title>Node19&#45;&gt;Node5</title>
<g id="a_edge38_Node000019_Node000005"><a xlink:title=" ">
<path fill="none" stroke="#63b8ff" d="M1146.21,-119.43C1134.41,-117.29 1121.85,-115.18 1110.12,-113.5 966.8,-93 795.88,-78.04 716.19,-71.61"/>
<polygon fill="#63b8ff" stroke="#63b8ff" points="716.87,-68.16 706.62,-70.85 716.31,-75.13 716.87,-68.16"/>
</a>
</g>
</g>
<!-- Node19&#45;&gt;Node7 -->
<g id="edge37_Node000019_Node000007" class="edge">
<title>Node19&#45;&gt;Node7</title>
<g id="a_edge37_Node000019_Node000007"><a xlink:title=" ">
<path fill="none" stroke="#63b8ff" d="M1153.87,-119.43C1108.34,-108.85 1035.78,-91.98 986.37,-80.5"/>
<polygon fill="#63b8ff" stroke="#63b8ff" points="987.28,-77.12 976.75,-78.26 985.7,-83.94 987.28,-77.12"/>
</a>
</g>
</g>
<!-- Node19&#45;&gt;Node11 -->
<g id="edge40_Node000019_Node000011" class="edge">
<title>Node19&#45;&gt;Node11</title>
<g id="a_edge40_Node000019_Node000011"><a xlink:title=" ">
<path fill="none" stroke="#63b8ff" d="M1178.96,-119.53C1164.44,-110.45 1144.12,-95.6 1132.12,-77.5 1123.13,-63.93 1118.33,-46.07 1115.8,-32.33"/>
<polygon fill="#63b8ff" stroke="#63b8ff" points="1119.29,-31.96 1114.3,-22.61 1112.37,-33.03 1119.29,-31.96"/>
</a>
</g>
</g>
<!-- Node19&#45;&gt;Node18 -->
<g id="edge39_Node000019_Node000018" class="edge">
<title>Node19&#45;&gt;Node18</title>
<g id="a_edge39_Node000019_Node000018"><a xlink:title=" ">
<path fill="none" stroke="#63b8ff" d="M1196.12,-119.43C1196.12,-111.27 1196.12,-99.38 1196.12,-89.1"/>
<polygon fill="#63b8ff" stroke="#63b8ff" points="1199.63,-89.23 1196.13,-79.23 1192.63,-89.23 1199.63,-89.23"/>
</a>
</g>
</g>
<!-- Node20&#45;&gt;Node8 -->
<g id="edge43_Node000020_Node000008" class="edge">
<title>Node20&#45;&gt;Node8</title>
<g id="a_edge43_Node000020_Node000008"><a xlink:title=" ">
<path fill="none" stroke="#63b8ff" d="M1572.94,-60.28C1557.56,-59.03 1541.28,-57.78 1526.12,-56.75 1233.11,-36.81 1153.51,-67.77 859.86,-20.64"/>
<polygon fill="#63b8ff" stroke="#63b8ff" points="860.8,-17.25 850.36,-19.1 859.67,-24.16 860.8,-17.25"/>
</a>
</g>
</g>
<!-- Node20&#45;&gt;Node11 -->
<g id="edge46_Node000020_Node000011" class="edge">
<title>Node20&#45;&gt;Node11</title>
<g id="a_edge46_Node000020_Node000011"><a xlink:title=" ">
<path fill="none" stroke="#63b8ff" d="M1572.95,-58.28C1568.27,-57.75 1563.63,-57.24 1559.12,-56.75 1405.21,-40.01 1221.19,-21.89 1146.79,-14.64"/>
<polygon fill="#63b8ff" stroke="#63b8ff" points="1147.21,-11.16 1136.92,-13.68 1146.53,-18.13 1147.21,-11.16"/>
</a>
</g>
</g>
<!-- Node21 -->
<g id="Node000021" class="node">
<title>Node21</title>
<g id="a_Node000021"><a xlink:title=" ">
<polygon fill="#e0e0e0" stroke="#999999" points="1655.25,-20.75 1589,-20.75 1589,0 1655.25,0 1655.25,-20.75"/>
<text text-anchor="middle" x="1622.12" y="-7.25" font-family="Helvetica,sans-Serif" font-size="10.00">fmt/core.h</text>
</a>
</g>
</g>
<!-- Node20&#45;&gt;Node21 -->
<g id="edge42_Node000020_Node000021" class="edge">
<title>Node20&#45;&gt;Node21</title>
<g id="a_edge42_Node000020_Node000021"><a xlink:title=" ">
<path fill="none" stroke="#63b8ff" d="M1636.91,-56.34C1634.68,-49.56 1631.63,-40.3 1628.89,-31.94"/>
<polygon fill="#63b8ff" stroke="#63b8ff" points="1632.24,-30.92 1625.79,-22.52 1625.59,-33.11 1632.24,-30.92"/>
</a>
</g>
</g>
<!-- Node20&#45;&gt;Node22 -->
<g id="edge44_Node000020_Node000022" class="edge">
<title>Node20&#45;&gt;Node22</title>
<g id="a_edge44_Node000020_Node000022"><a xlink:title=" ">
<path fill="none" stroke="#63b8ff" d="M1666.23,-56.34C1689.48,-47.62 1723.74,-34.77 1749.69,-25.04"/>
<polygon fill="#63b8ff" stroke="#63b8ff" points="1750.7,-28.4 1758.83,-21.61 1748.24,-21.84 1750.7,-28.4"/>
</a>
</g>
</g>
<!-- Node23 -->
<g id="Node000023" class="node">
<title>Node23</title>
<g id="a_Node000023"><a xlink:title=" ">
<polygon fill="#e0e0e0" stroke="#999999" points="1729,-20.75 1673.25,-20.75 1673.25,0 1729,0 1729,-20.75"/>
<text text-anchor="middle" x="1701.12" y="-7.25" font-family="Helvetica,sans-Serif" font-size="10.00">sstream</text>
</a>
</g>
</g>
<!-- Node20&#45;&gt;Node23 -->
<g id="edge45_Node000020_Node000023" class="edge">
<title>Node20&#45;&gt;Node23</title>
<g id="a_edge45_Node000020_Node000023"><a xlink:title=" ">
<path fill="none" stroke="#63b8ff" d="M1651.03,-56.34C1659.62,-48.63 1671.8,-37.7 1682,-28.54"/>
<polygon fill="#63b8ff" stroke="#63b8ff" points="1684.08,-31.37 1689.19,-22.09 1679.41,-26.16 1684.08,-31.37"/>
</a>
</g>
</g>
<!-- Node24&#45;&gt;Node11 -->
<g id="edge50_Node000024_Node000011" class="edge">
<title>Node24&#45;&gt;Node11</title>
<g id="a_edge50_Node000024_Node000011"><a xlink:title=" ">
<path fill="none" stroke="#63b8ff" d="M1600.55,-119.42C1587.4,-103.19 1558.62,-71.13 1526.12,-56.75 1458.24,-26.7 1232.49,-15.64 1146.65,-12.46"/>
<polygon fill="#63b8ff" stroke="#63b8ff" points="1146.9,-8.96 1136.78,-12.11 1146.65,-15.96 1146.9,-8.96"/>
</a>
</g>
</g>
<!-- Node24&#45;&gt;Node20 -->
<g id="edge48_Node000024_Node000020" class="edge">
<title>Node24&#45;&gt;Node20</title>
<g id="a_edge48_Node000024_Node000020"><a xlink:title=" ">
<path fill="none" stroke="#63b8ff" d="M1613.27,-119.43C1617.72,-110.91 1624.31,-98.33 1629.85,-87.76"/>
<polygon fill="#63b8ff" stroke="#63b8ff" points="1632.86,-89.54 1634.4,-79.06 1626.66,-86.3 1632.86,-89.54"/>
</a>
</g>
</g>
<!-- Node24&#45;&gt;Node22 -->
<g id="edge49_Node000024_Node000022" class="edge">
<title>Node24&#45;&gt;Node22</title>
<g id="a_edge49_Node000024_Node000022"><a xlink:title=" ">
<path fill="none" stroke="#63b8ff" d="M1634.22,-119.43C1656.89,-110.28 1690.08,-95.39 1716.12,-77.5 1736.47,-63.52 1756.63,-43.67 1770.06,-29.37"/>
<polygon fill="#63b8ff" stroke="#63b8ff" points="1772.63,-31.74 1776.81,-22.01 1767.47,-27.01 1772.63,-31.74"/>
</a>
</g>
</g>
<!-- Node25&#45;&gt;Node20 -->
<g id="edge52_Node000025_Node000020" class="edge">
<title>Node25&#45;&gt;Node20</title>
<g id="a_edge52_Node000025_Node000020"><a xlink:title=" ">
<path fill="none" stroke="#63b8ff" d="M1760.99,-119.43C1737.37,-109.4 1700.47,-93.74 1673.65,-82.36"/>
<polygon fill="#63b8ff" stroke="#63b8ff" points="1675.17,-79.2 1664.6,-78.51 1672.43,-85.64 1675.17,-79.2"/>
</a>
</g>
</g>
<!-- Node26&#45;&gt;Node5 -->
<g id="edge56_Node000026_Node000005" class="edge">
<title>Node26&#45;&gt;Node5</title>
<g id="a_edge56_Node000026_Node000005"><a xlink:title=" ">
<path fill="none" stroke="#63b8ff" d="M968.91,-115.15C965.94,-114.58 963,-114.03 960.12,-113.5 874.13,-97.73 773.11,-82.65 716.16,-74.47"/>
<polygon fill="#63b8ff" stroke="#63b8ff" points="716.93,-71.04 706.53,-73.09 715.94,-77.97 716.93,-71.04"/>
</a>
</g>
</g>
<!-- Node26&#45;&gt;Node7 -->
<g id="edge54_Node000026_Node000007" class="edge">
<title>Node26&#45;&gt;Node7</title>
<g id="a_edge54_Node000026_Node000007"><a xlink:title=" ">
<path fill="none" stroke="#63b8ff" d="M1008.06,-113.03C992.91,-103.95 974.11,-92.68 959.13,-83.71"/>
<polygon fill="#63b8ff" stroke="#63b8ff" points="961.14,-80.83 950.76,-78.69 957.54,-86.84 961.14,-80.83"/>
</a>
</g>
</g>
<!-- Node26&#45;&gt;Node8 -->
<g id="edge55_Node000026_Node000008" class="edge">
<title>Node26&#45;&gt;Node8</title>
<g id="a_edge55_Node000026_Node000008"><a xlink:title=" ">
<path fill="none" stroke="#63b8ff" d="M969.03,-113.19C930.45,-102.93 886.28,-89.36 870.12,-77.5 853.78,-65.49 841.19,-45.87 833.35,-31.11"/>
<polygon fill="#63b8ff" stroke="#63b8ff" points="836.56,-29.72 828.97,-22.33 830.3,-32.84 836.56,-29.72"/>
</a>
</g>
</g>
<!-- Node26&#45;&gt;Node11 -->
<g id="edge57_Node000026_Node000011" class="edge">
<title>Node26&#45;&gt;Node11</title>
<g id="a_edge57_Node000026_Node000011"><a xlink:title=" ">
<path fill="none" stroke="#63b8ff" d="M1045.64,-113.35C1059.85,-91.88 1085.15,-53.65 1100.41,-30.6"/>
<polygon fill="#63b8ff" stroke="#63b8ff" points="1103.2,-32.72 1105.8,-22.45 1097.36,-28.85 1103.2,-32.72"/>
</a>
</g>
</g>
<!-- Node27&#45;&gt;Node11 -->
<g id="edge59_Node000027_Node000011" class="edge">
<title>Node27&#45;&gt;Node11</title>
<g id="a_edge59_Node000027_Node000011"><a xlink:title=" ">
<path fill="none" stroke="#63b8ff" d="M1373.91,-56.27C1307.57,-44.85 1200.47,-26.41 1146.49,-17.12"/>
<polygon fill="#63b8ff" stroke="#63b8ff" points="1147.14,-13.68 1136.69,-15.43 1145.95,-20.58 1147.14,-13.68"/>
</a>
</g>
</g>
</g>
</svg>

<g id="navigator" transform="translate(0 0)" fill="#404254">
  <rect fill="#f2f5e9" fill-opacity="0.5" stroke="#606060" stroke-width=".5" x="0" y="0" width="60" height="60"/>
  <use id="zoomplus" xlink:href="#zoomPlus" x="17" y="9" onmousedown="handleZoom(evt,'in')"/>
  <use id="zoomminus" xlink:href="#zoomMin" x="42" y="9" onmousedown="handleZoom(evt,'out')"/>
  <use id="reset" xlink:href="#resetDef" x="30" y="36" onmousedown="handleReset()"/>
   <use id="arrowup" xlink:href="#arrowUp" x="0" y="0" onmousedown="handlePan(0,-1)"/>
  <use id="arrowright" xlink:href="#arrowRight" x="0" y="0" onmousedown="handlePan(1,0)"/>
  <use id="arrowdown" xlink:href="#arrowDown" x="0" y="0" onmousedown="handlePan(0,1)"/>
  <use id="arrowleft" xlink:href="#arrowLeft" x="0" y="0" onmousedown="handlePan(-1,0)"/>
</g>
<svg viewBox="0 0 15 15" width="100%" height="30px" preserveAspectRatio="xMaxYMin meet">
 <g id="arrow_out" transform="scale(0.3 0.3)">
  <a xlink:href="Application_8cpp__incl_org.svg" target="_base">
   <rect id="button" ry="5" rx="5" y="6" x="6" height="38" width="38"
        fill="#f2f5e9" fill-opacity="0.5" stroke="#606060" stroke-width="1.0"/>
   <path id="arrow"
     d="M 11.500037,31.436501 C 11.940474,20.09759 22.043105,11.32322 32.158766,21.979434 L 37.068811,17.246167 C 37.068811,17.246167 37.088388,32 37.088388,32 L 22.160133,31.978069 C 22.160133,31.978069 26.997745,27.140456 26.997745,27.140456 C 18.528582,18.264221 13.291696,25.230495 11.500037,31.436501 z"
     style="fill:#404040;"/>
  </a>
 </g>
</svg>

<style type='text/css'>
<![CDATA[
[data-mouse-over-selected='false'] { opacity: 0.7; }
[data-mouse-over-selected='true']  { opacity: 1.0; }
]]>
</style>
<script type="application/ecmascript"><![CDATA[
document.addEventListener('DOMContentLoaded', (event) => {
  highlightEdges();
  highlightAdjacentNodes();
});
]]></script>
</svg>
