<?xml version="1.0" encoding="UTF-8" standalone="no"?>
<!DOCTYPE svg PUBLIC "-//W3C//DTD SVG 1.1//EN"
 "http://www.w3.org/Graphics/SVG/1.1/DTD/svg11.dtd">
<!-- Generated by graphviz version 12.2.1 (0)
 -->
<!-- Title: main Pages: 1 -->
<svg width="1081pt" height="458pt"
 viewBox="0.00 0.00 1080.50 457.71" xmlns="http://www.w3.org/2000/svg" xmlns:xlink="http://www.w3.org/1999/xlink">
<g id="graph0" class="graph" transform="scale(1 1) rotate(0) translate(4 453.71)">
<title>main</title>
<!-- Node1 -->
<g id="Node000001" class="node">
<title>Node1</title>
<g id="a_Node000001"><a xlink:title=" ">
<polygon fill="#999999" stroke="#666666" points="40.75,-257.12 0,-257.12 0,-236.38 40.75,-236.38 40.75,-257.12"/>
<text text-anchor="middle" x="20.38" y="-243.62" font-family="Helvetica,sans-Serif" font-size="10.00">main</text>
</a>
</g>
</g>
<!-- Node2 -->
<g id="Node000002" class="node">
<title>Node2</title>
<g id="a_Node000002"><a xlink:href="classnixoncpp_1_1utils_1_1UtilsFactory.html#a4f4379374cac4b57e87332373ecdb3c2" target="_top" xlink:title="Create full application context with all components.">
<polygon fill="white" stroke="#666666" points="227,-263.5 76.75,-263.5 76.75,-230 227,-230 227,-263.5"/>
<text text-anchor="start" x="84.75" y="-250" font-family="Helvetica,sans-Serif" font-size="10.00">nixoncpp::utils::UtilsFactory</text>
<text text-anchor="middle" x="151.88" y="-237.25" font-family="Helvetica,sans-Serif" font-size="10.00">::createFullContext</text>
</a>
</g>
</g>
<!-- Node1&#45;&gt;Node2 -->
<g id="edge1_Node000001_Node000002" class="edge">
<title>Node1&#45;&gt;Node2</title>
<g id="a_edge1_Node000001_Node000002"><a xlink:title=" ">
<path fill="none" stroke="#63b8ff" d="M41.04,-246.75C47.91,-246.75 56.12,-246.75 64.91,-246.75"/>
<polygon fill="#63b8ff" stroke="#63b8ff" points="64.8,-250.25 74.8,-246.75 64.8,-243.25 64.8,-250.25"/>
</a>
</g>
</g>
<!-- Node3 -->
<g id="Node000003" class="node">
<title>Node3</title>
<g id="a_Node000003"><a xlink:href="classnixoncpp_1_1utils_1_1UtilsFactory.html#a6e7781b6db8c887f84c08609c72cee9b" target="_top" xlink:title=" ">
<polygon fill="white" stroke="#666666" points="630.62,-422.5 480.38,-422.5 480.38,-389 630.62,-389 630.62,-422.5"/>
<text text-anchor="start" x="488.38" y="-409" font-family="Helvetica,sans-Serif" font-size="10.00">nixoncpp::utils::UtilsFactory</text>
<text text-anchor="middle" x="555.5" y="-396.25" font-family="Helvetica,sans-Serif" font-size="10.00">::createAssetManager</text>
</a>
</g>
</g>
<!-- Node2&#45;&gt;Node3 -->
<g id="edge2_Node000002_Node000003" class="edge">
<title>Node2&#45;&gt;Node3</title>
<g id="a_edge2_Node000002_Node000003"><a xlink:title=" ">
<path fill="none" stroke="#63b8ff" d="M157.31,-263.87C168.07,-301.37 199.46,-390.24 263,-425.75 336.73,-466.95 437.86,-446.1 499.56,-426.48"/>
<polygon fill="#63b8ff" stroke="#63b8ff" points="500.39,-429.89 508.8,-423.45 498.2,-423.24 500.39,-429.89"/>
</a>
</g>
</g>
<!-- Node6 -->
<g id="Node000006" class="node">
<title>Node6</title>
<g id="a_Node000006"><a xlink:href="classnixoncpp_1_1utils_1_1UtilsFactory.html#a5d58ef900c1db80a1d196a271d26b6e4" target="_top" xlink:title=" ">
<polygon fill="white" stroke="#666666" points="420,-416.5 263,-416.5 263,-383 420,-383 420,-416.5"/>
<text text-anchor="start" x="271" y="-403" font-family="Helvetica,sans-Serif" font-size="10.00">nixoncpp::utils::UtilsFactory</text>
<text text-anchor="middle" x="341.5" y="-390.25" font-family="Helvetica,sans-Serif" font-size="10.00">::createCustomStringsLoader</text>
</a>
</g>
</g>
<!-- Node2&#45;&gt;Node6 -->
<g id="edge5_Node000002_Node000006" class="edge">
<title>Node2&#45;&gt;Node6</title>
<g id="a_edge5_Node000002_Node000006"><a xlink:title=" ">
<path fill="none" stroke="#63b8ff" d="M164.48,-264C182.71,-289.93 220.39,-339.06 263,-368.75 267.64,-371.98 272.66,-374.95 277.84,-377.65"/>
<polygon fill="#63b8ff" stroke="#63b8ff" points="276.06,-380.68 286.59,-381.88 279.11,-374.38 276.06,-380.68"/>
</a>
</g>
</g>
<!-- Node7 -->
<g id="Node000007" class="node">
<title>Node7</title>
<g id="a_Node000007"><a xlink:href="classnixoncpp_1_1utils_1_1UtilsFactory.html#ac89ae32784dcc62839c88a8e99c50f7c" target="_top" xlink:title=" ">
<polygon fill="white" stroke="#666666" points="630.62,-329.5 480.38,-329.5 480.38,-296 630.62,-296 630.62,-329.5"/>
<text text-anchor="start" x="488.38" y="-316" font-family="Helvetica,sans-Serif" font-size="10.00">nixoncpp::utils::UtilsFactory</text>
<text text-anchor="middle" x="555.5" y="-303.25" font-family="Helvetica,sans-Serif" font-size="10.00">::createJsonSerializer</text>
</a>
</g>
</g>
<!-- Node2&#45;&gt;Node7 -->
<g id="edge13_Node000002_Node000007" class="edge">
<title>Node2&#45;&gt;Node7</title>
<g id="a_edge13_Node000002_Node000007"><a xlink:title=" ">
<path fill="none" stroke="#63b8ff" d="M196.45,-263.91C216.44,-271.12 240.62,-278.94 263,-283.75 331.29,-298.42 410.21,-305.7 468.69,-309.29"/>
<polygon fill="#63b8ff" stroke="#63b8ff" points="468.41,-312.78 478.6,-309.87 468.82,-305.79 468.41,-312.78"/>
</a>
</g>
</g>
<!-- Node8 -->
<g id="Node000008" class="node">
<title>Node8</title>
<g id="a_Node000008"><a xlink:href="classnixoncpp_1_1utils_1_1UtilsFactory.html#a898645cce10d377a7586d12c3fdb6e93" target="_top" xlink:title=" ">
<polygon fill="white" stroke="#666666" points="852.5,-362.5 702.25,-362.5 702.25,-329 852.5,-329 852.5,-362.5"/>
<text text-anchor="start" x="710.25" y="-349" font-family="Helvetica,sans-Serif" font-size="10.00">nixoncpp::utils::UtilsFactory</text>
<text text-anchor="middle" x="777.38" y="-336.25" font-family="Helvetica,sans-Serif" font-size="10.00">::createFileReader</text>
</a>
</g>
</g>
<!-- Node2&#45;&gt;Node8 -->
<g id="edge11_Node000002_Node000008" class="edge">
<title>Node2&#45;&gt;Node8</title>
<g id="a_edge11_Node000002_Node000008"><a xlink:title=" ">
<path fill="none" stroke="#63b8ff" d="M177.03,-263.73C198.57,-278.02 231.49,-297.83 263,-308.75 406.85,-358.58 586.6,-358.48 690.76,-352.83"/>
<polygon fill="#63b8ff" stroke="#63b8ff" points="690.85,-356.33 700.64,-352.26 690.45,-349.34 690.85,-356.33"/>
</a>
</g>
</g>
<!-- Node9 -->
<g id="Node000009" class="node">
<title>Node9</title>
<g id="a_Node000009"><a xlink:href="classnixoncpp_1_1utils_1_1UtilsFactory.html#a1315826b061bc911c58a3bca701ef5f0" target="_top" xlink:title=" ">
<polygon fill="white" stroke="#666666" points="852.5,-293.5 702.25,-293.5 702.25,-260 852.5,-260 852.5,-293.5"/>
<text text-anchor="start" x="710.25" y="-280" font-family="Helvetica,sans-Serif" font-size="10.00">nixoncpp::utils::UtilsFactory</text>
<text text-anchor="middle" x="777.38" y="-267.25" font-family="Helvetica,sans-Serif" font-size="10.00">::createFileWriter</text>
</a>
</g>
</g>
<!-- Node2&#45;&gt;Node9 -->
<g id="edge12_Node000002_Node000009" class="edge">
<title>Node2&#45;&gt;Node9</title>
<g id="a_edge12_Node000002_Node000009"><a xlink:title=" ">
<path fill="none" stroke="#63b8ff" d="M227.46,-250.34C343.91,-255.94 568.24,-266.74 690.99,-272.64"/>
<polygon fill="#63b8ff" stroke="#63b8ff" points="690.52,-276.12 700.67,-273.11 690.85,-269.13 690.52,-276.12"/>
</a>
</g>
</g>
<!-- Node10 -->
<g id="Node000010" class="node">
<title>Node10</title>
<g id="a_Node000010"><a xlink:href="classnixoncpp_1_1utils_1_1UtilsFactory.html#ad6f07ec37707abf581796c46ee56211d" target="_top" xlink:title=" ">
<polygon fill="white" stroke="#666666" points="416.62,-241.5 266.38,-241.5 266.38,-208 416.62,-208 416.62,-241.5"/>
<text text-anchor="start" x="274.38" y="-228" font-family="Helvetica,sans-Serif" font-size="10.00">nixoncpp::utils::UtilsFactory</text>
<text text-anchor="middle" x="341.5" y="-215.25" font-family="Helvetica,sans-Serif" font-size="10.00">::createDirectoryManager</text>
</a>
</g>
</g>
<!-- Node2&#45;&gt;Node10 -->
<g id="edge10_Node000002_Node000010" class="edge">
<title>Node2&#45;&gt;Node10</title>
<g id="a_edge10_Node000002_Node000010"><a xlink:title=" ">
<path fill="none" stroke="#63b8ff" d="M227.3,-238.02C236.39,-236.96 245.74,-235.86 254.98,-234.78"/>
<polygon fill="#63b8ff" stroke="#63b8ff" points="255.14,-238.28 264.66,-233.64 254.32,-231.33 255.14,-238.28"/>
</a>
</g>
</g>
<!-- Node11 -->
<g id="Node000011" class="node">
<title>Node11</title>
<g id="a_Node000011"><a xlink:href="classnixoncpp_1_1utils_1_1UtilsFactory.html#a25d60ab1ffddf4e84f9bfcf18d6cda5e" target="_top" xlink:title=" ">
<polygon fill="white" stroke="#666666" points="416.62,-189.5 266.38,-189.5 266.38,-156 416.62,-156 416.62,-189.5"/>
<text text-anchor="start" x="274.38" y="-176" font-family="Helvetica,sans-Serif" font-size="10.00">nixoncpp::utils::UtilsFactory</text>
<text text-anchor="middle" x="341.5" y="-163.25" font-family="Helvetica,sans-Serif" font-size="10.00">::createLogger</text>
</a>
</g>
</g>
<!-- Node2&#45;&gt;Node11 -->
<g id="edge14_Node000002_Node000011" class="edge">
<title>Node2&#45;&gt;Node11</title>
<g id="a_edge14_Node000002_Node000011"><a xlink:title=" ">
<path fill="none" stroke="#63b8ff" d="M190,-229.6C211.2,-220.06 238.38,-208.23 263,-198.75 267.4,-197.06 271.95,-195.37 276.56,-193.71"/>
<polygon fill="#63b8ff" stroke="#63b8ff" points="277.64,-197.04 285.91,-190.41 275.31,-190.44 277.64,-197.04"/>
</a>
</g>
</g>
<!-- Node15 -->
<g id="Node000015" class="node">
<title>Node15</title>
<g id="a_Node000015"><a xlink:href="classnixoncpp_1_1utils_1_1UtilsFactory.html#af57873fd9fa5b5a4b39925fc05966698" target="_top" xlink:title=" ">
<polygon fill="white" stroke="#666666" points="416.62,-137.5 266.38,-137.5 266.38,-104 416.62,-104 416.62,-137.5"/>
<text text-anchor="start" x="274.38" y="-124" font-family="Helvetica,sans-Serif" font-size="10.00">nixoncpp::utils::UtilsFactory</text>
<text text-anchor="middle" x="341.5" y="-111.25" font-family="Helvetica,sans-Serif" font-size="10.00">::createPathResolver</text>
</a>
</g>
</g>
<!-- Node2&#45;&gt;Node15 -->
<g id="edge18_Node000002_Node000015" class="edge">
<title>Node2&#45;&gt;Node15</title>
<g id="a_edge18_Node000002_Node000015"><a xlink:title=" ">
<path fill="none" stroke="#63b8ff" d="M167.6,-229.54C187.29,-207.51 224.24,-169.48 263,-146.75 265.46,-145.3 268.02,-143.93 270.64,-142.61"/>
<polygon fill="#63b8ff" stroke="#63b8ff" points="271.97,-145.85 279.6,-138.5 269.05,-139.49 271.97,-145.85"/>
</a>
</g>
</g>
<!-- Node16 -->
<g id="Node000016" class="node">
<title>Node16</title>
<g id="a_Node000016"><a xlink:href="classnixoncpp_1_1utils_1_1UtilsFactory.html#af9d36cfe688b1460dec5453b5d5c0f3e" target="_top" xlink:title=" ">
<polygon fill="white" stroke="#666666" points="416.62,-85.5 266.38,-85.5 266.38,-52 416.62,-52 416.62,-85.5"/>
<text text-anchor="start" x="274.38" y="-72" font-family="Helvetica,sans-Serif" font-size="10.00">nixoncpp::utils::UtilsFactory</text>
<text text-anchor="middle" x="341.5" y="-59.25" font-family="Helvetica,sans-Serif" font-size="10.00">::createPlatformInfo</text>
</a>
</g>
</g>
<!-- Node2&#45;&gt;Node16 -->
<g id="edge19_Node000002_Node000016" class="edge">
<title>Node2&#45;&gt;Node16</title>
<g id="a_edge19_Node000002_Node000016"><a xlink:title=" ">
<path fill="none" stroke="#63b8ff" d="M160.63,-229.95C175.85,-198.78 212.58,-131.8 263,-94.75 264.57,-93.59 266.2,-92.49 267.87,-91.43"/>
<polygon fill="#63b8ff" stroke="#63b8ff" points="269.5,-94.53 276.53,-86.6 266.09,-88.41 269.5,-94.53"/>
</a>
</g>
</g>
<!-- Node18 -->
<g id="Node000018" class="node">
<title>Node18</title>
<g id="a_Node000018"><a xlink:href="classnixoncpp_1_1utils_1_1UtilsFactory.html#a99c58e956babbfc262186c1c0d3fd29e" target="_top" xlink:title=" ">
<polygon fill="white" stroke="#666666" points="416.62,-33.5 266.38,-33.5 266.38,0 416.62,0 416.62,-33.5"/>
<text text-anchor="start" x="274.38" y="-20" font-family="Helvetica,sans-Serif" font-size="10.00">nixoncpp::utils::UtilsFactory</text>
<text text-anchor="middle" x="341.5" y="-7.25" font-family="Helvetica,sans-Serif" font-size="10.00">::createStringFormatter</text>
</a>
</g>
</g>
<!-- Node2&#45;&gt;Node18 -->
<g id="edge21_Node000002_Node000018" class="edge">
<title>Node2&#45;&gt;Node18</title>
<g id="a_edge21_Node000002_Node000018"><a xlink:title=" ">
<path fill="none" stroke="#63b8ff" d="M157.37,-229.76C168.52,-190.9 201.11,-94.85 263,-42.75 264.13,-41.8 265.3,-40.88 266.49,-40"/>
<polygon fill="#63b8ff" stroke="#63b8ff" points="268.35,-42.97 274.93,-34.66 264.61,-37.05 268.35,-42.97"/>
</a>
</g>
</g>
<!-- Node4 -->
<g id="Node000004" class="node">
<title>Node4</title>
<g id="a_Node000004"><a xlink:href="classnixoncpp_1_1assets_1_1AssetManagerFactory.html#a534dac197c8ab46bca337cbc7162371b" target="_top" xlink:title="Create a Default object.">
<polygon fill="white" stroke="#666666" points="863.75,-422.5 691,-422.5 691,-389 863.75,-389 863.75,-422.5"/>
<text text-anchor="start" x="699" y="-409" font-family="Helvetica,sans-Serif" font-size="10.00">nixoncpp::assets::AssetManager</text>
<text text-anchor="middle" x="777.38" y="-396.25" font-family="Helvetica,sans-Serif" font-size="10.00">Factory::createDefault</text>
</a>
</g>
</g>
<!-- Node3&#45;&gt;Node4 -->
<g id="edge3_Node000003_Node000004" class="edge">
<title>Node3&#45;&gt;Node4</title>
<g id="a_edge3_Node000003_Node000004"><a xlink:title=" ">
<path fill="none" stroke="#63b8ff" d="M630.94,-405.75C646.53,-405.75 663.18,-405.75 679.45,-405.75"/>
<polygon fill="#63b8ff" stroke="#63b8ff" points="679.12,-409.25 689.12,-405.75 679.12,-402.25 679.12,-409.25"/>
</a>
</g>
</g>
<!-- Node5 -->
<g id="Node000005" class="node">
<title>Node5</title>
<g id="a_Node000005"><a xlink:href="classnixoncpp_1_1assets_1_1AssetManager.html#a9778c797417b17b62b8f1135ca613cd3" target="_top" xlink:title="Create a new Asset Manager instance.">
<polygon fill="white" stroke="#666666" points="1072.5,-422.5 899.75,-422.5 899.75,-389 1072.5,-389 1072.5,-422.5"/>
<text text-anchor="start" x="907.75" y="-409" font-family="Helvetica,sans-Serif" font-size="10.00">nixoncpp::assets::AssetManager</text>
<text text-anchor="middle" x="986.12" y="-396.25" font-family="Helvetica,sans-Serif" font-size="10.00">::create</text>
</a>
</g>
</g>
<!-- Node4&#45;&gt;Node5 -->
<g id="edge4_Node000004_Node000005" class="edge">
<title>Node4&#45;&gt;Node5</title>
<g id="a_edge4_Node000004_Node000005"><a xlink:title=" ">
<path fill="none" stroke="#63b8ff" d="M863.96,-405.75C871.89,-405.75 879.96,-405.75 887.98,-405.75"/>
<polygon fill="#63b8ff" stroke="#63b8ff" points="887.76,-409.25 897.76,-405.75 887.76,-402.25 887.76,-409.25"/>
</a>
</g>
</g>
<!-- Node6&#45;&gt;Node3 -->
<g id="edge6_Node000006_Node000003" class="edge">
<title>Node6&#45;&gt;Node3</title>
<g id="a_edge6_Node000006_Node000003"><a xlink:title=" ">
<path fill="none" stroke="#63b8ff" d="M420.24,-401.95C435.93,-402.39 452.51,-402.86 468.46,-403.32"/>
<polygon fill="#63b8ff" stroke="#63b8ff" points="468.34,-406.81 478.44,-403.6 468.54,-399.82 468.34,-406.81"/>
</a>
</g>
</g>
<!-- Node6&#45;&gt;Node7 -->
<g id="edge7_Node000006_Node000007" class="edge">
<title>Node6&#45;&gt;Node7</title>
<g id="a_edge7_Node000006_Node000007"><a xlink:title=" ">
<path fill="none" stroke="#63b8ff" d="M384.38,-382.56C418.21,-368.68 465.99,-349.07 502.31,-334.17"/>
<polygon fill="#63b8ff" stroke="#63b8ff" points="503.38,-337.51 511.3,-330.48 500.72,-331.04 503.38,-337.51"/>
</a>
</g>
</g>
<!-- Node7&#45;&gt;Node8 -->
<g id="edge8_Node000007_Node000008" class="edge">
<title>Node7&#45;&gt;Node8</title>
<g id="a_edge8_Node000007_Node000008"><a xlink:title=" ">
<path fill="none" stroke="#63b8ff" d="M630.94,-323.92C650.19,-326.81 671.07,-329.95 690.84,-332.91"/>
<polygon fill="#63b8ff" stroke="#63b8ff" points="690.11,-336.34 700.52,-334.36 691.15,-329.42 690.11,-336.34"/>
</a>
</g>
</g>
<!-- Node7&#45;&gt;Node9 -->
<g id="edge9_Node000007_Node000009" class="edge">
<title>Node7&#45;&gt;Node9</title>
<g id="a_edge9_Node000007_Node000009"><a xlink:title=" ">
<path fill="none" stroke="#63b8ff" d="M630.94,-300.56C650.19,-297.41 671.07,-293.99 690.84,-290.75"/>
<polygon fill="#63b8ff" stroke="#63b8ff" points="691.22,-294.24 700.52,-289.17 690.08,-287.33 691.22,-294.24"/>
</a>
</g>
</g>
<!-- Node12 -->
<g id="Node000012" class="node">
<title>Node12</title>
<g id="a_Node000012"><a xlink:href="classnixoncpp_1_1logging_1_1LoggerFactory.html#a9a38b177b191b1ab4182363e93dd222b" target="_top" xlink:title="Create a logger instance based on the specified type and configuration.">
<polygon fill="white" stroke="#666666" points="615.62,-189.5 495.38,-189.5 495.38,-156 615.62,-156 615.62,-189.5"/>
<text text-anchor="start" x="503.38" y="-176" font-family="Helvetica,sans-Serif" font-size="10.00">nixoncpp::logging::</text>
<text text-anchor="middle" x="555.5" y="-163.25" font-family="Helvetica,sans-Serif" font-size="10.00">LoggerFactory::create</text>
</a>
</g>
</g>
<!-- Node11&#45;&gt;Node12 -->
<g id="edge15_Node000011_Node000012" class="edge">
<title>Node11&#45;&gt;Node12</title>
<g id="a_edge15_Node000011_Node000012"><a xlink:title=" ">
<path fill="none" stroke="#63b8ff" d="M416.95,-172.75C438.59,-172.75 462.16,-172.75 483.58,-172.75"/>
<polygon fill="#63b8ff" stroke="#63b8ff" points="483.38,-176.25 493.38,-172.75 483.38,-169.25 483.38,-176.25"/>
</a>
</g>
</g>
<!-- Node13 -->
<g id="Node000013" class="node">
<title>Node13</title>
<g id="a_Node000013"><a xlink:href="classnixoncpp_1_1logging_1_1LoggerFactory.html#a26cfce0d7f5386a37884a93178910b85" target="_top" xlink:title="Create a Console object logger.">
<polygon fill="white" stroke="#666666" points="857,-163.5 697.75,-163.5 697.75,-130 857,-130 857,-163.5"/>
<text text-anchor="start" x="705.75" y="-150" font-family="Helvetica,sans-Serif" font-size="10.00">nixoncpp::logging::</text>
<text text-anchor="middle" x="777.38" y="-137.25" font-family="Helvetica,sans-Serif" font-size="10.00">LoggerFactory::createConsole</text>
</a>
</g>
</g>
<!-- Node12&#45;&gt;Node13 -->
<g id="edge16_Node000012_Node000013" class="edge">
<title>Node12&#45;&gt;Node13</title>
<g id="a_edge16_Node000012_Node000013"><a xlink:title=" ">
<path fill="none" stroke="#63b8ff" d="M616,-165.71C637.63,-163.16 662.59,-160.21 686.27,-157.4"/>
<polygon fill="#63b8ff" stroke="#63b8ff" points="686.39,-160.92 695.91,-156.27 685.56,-153.96 686.39,-160.92"/>
</a>
</g>
</g>
<!-- Node14 -->
<g id="Node000014" class="node">
<title>Node14</title>
<g id="a_Node000014"><a xlink:href="classnixoncpp_1_1logging_1_1LoggerFactory.html#a155dca9a6066e9729f9237e7d02c2d4e" target="_top" xlink:title="Create a Null object logger.">
<polygon fill="white" stroke="#666666" points="847.25,-215.5 707.5,-215.5 707.5,-182 847.25,-182 847.25,-215.5"/>
<text text-anchor="start" x="715.5" y="-202" font-family="Helvetica,sans-Serif" font-size="10.00">nixoncpp::logging::</text>
<text text-anchor="middle" x="777.38" y="-189.25" font-family="Helvetica,sans-Serif" font-size="10.00">LoggerFactory::createNull</text>
</a>
</g>
</g>
<!-- Node12&#45;&gt;Node14 -->
<g id="edge17_Node000012_Node000014" class="edge">
<title>Node12&#45;&gt;Node14</title>
<g id="a_edge17_Node000012_Node000014"><a xlink:title=" ">
<path fill="none" stroke="#63b8ff" d="M616,-179.79C640.6,-182.69 669.49,-186.11 695.92,-189.24"/>
<polygon fill="#63b8ff" stroke="#63b8ff" points="695.24,-192.68 705.58,-190.38 696.06,-185.73 695.24,-192.68"/>
</a>
</g>
</g>
<!-- Node17 -->
<g id="Node000017" class="node">
<title>Node17</title>
<g id="a_Node000017"><a xlink:href="classnixoncpp_1_1utils_1_1PlatformInfoFactory.html#a0195da5938b4019fd41096c4e57a3c6a" target="_top" xlink:title=" ">
<polygon fill="white" stroke="#666666" points="655,-85.5 456,-85.5 456,-52 655,-52 655,-85.5"/>
<text text-anchor="start" x="464" y="-72" font-family="Helvetica,sans-Serif" font-size="10.00">nixoncpp::utils::Platform</text>
<text text-anchor="middle" x="555.5" y="-59.25" font-family="Helvetica,sans-Serif" font-size="10.00">InfoFactory::createForCurrentPlatform</text>
</a>
</g>
</g>
<!-- Node16&#45;&gt;Node17 -->
<g id="edge20_Node000016_Node000017" class="edge">
<title>Node16&#45;&gt;Node17</title>
<g id="a_edge20_Node000016_Node000017"><a xlink:title=" ">
<path fill="none" stroke="#63b8ff" d="M416.95,-68.75C425.85,-68.75 435.08,-68.75 444.36,-68.75"/>
<polygon fill="#63b8ff" stroke="#63b8ff" points="444.16,-72.25 454.16,-68.75 444.16,-65.25 444.16,-72.25"/>
</a>
</g>
</g>
</g>
</svg>
