<?xml version="1.0" encoding="UTF-8" standalone="no"?>
<!DOCTYPE svg PUBLIC "-//W3C//DTD SVG 1.1//EN"
 "http://www.w3.org/Graphics/SVG/1.1/DTD/svg11.dtd">
<!-- Generated by graphviz version 12.2.1 (0)
 -->
<!-- Title: TEST_F Pages: 1 -->
<svg width="477pt" height="42pt"
 viewBox="0.00 0.00 476.75 41.50" xmlns="http://www.w3.org/2000/svg" xmlns:xlink="http://www.w3.org/1999/xlink">
<g id="graph0" class="graph" transform="scale(1 1) rotate(0) translate(4 37.5)">
<title>TEST_F</title>
<!-- Node1 -->
<g id="Node000001" class="node">
<title>Node1</title>
<g id="a_Node000001"><a xlink:title=" ">
<polygon fill="#999999" stroke="#666666" points="51.25,-27.12 0,-27.12 0,-6.38 51.25,-6.38 51.25,-27.12"/>
<text text-anchor="middle" x="25.62" y="-13.62" font-family="Helvetica,sans-Serif" font-size="10.00">TEST_F</text>
</a>
</g>
</g>
<!-- Node2 -->
<g id="Node000002" class="node">
<title>Node2</title>
<g id="a_Node000002"><a xlink:href="classnixoncpp_1_1assets_1_1AssetManager.html#a1ee9bb6ce66bf784da142f87560997d6" target="_top" xlink:title="Check if an asset exists given its relative path.">
<polygon fill="white" stroke="#666666" points="260,-33.5 87.25,-33.5 87.25,0 260,0 260,-33.5"/>
<text text-anchor="start" x="95.25" y="-20" font-family="Helvetica,sans-Serif" font-size="10.00">nixoncpp::assets::AssetManager</text>
<text text-anchor="middle" x="173.62" y="-7.25" font-family="Helvetica,sans-Serif" font-size="10.00">::assetExists</text>
</a>
</g>
</g>
<!-- Node1&#45;&gt;Node2 -->
<g id="edge1_Node000001_Node000002" class="edge">
<title>Node1&#45;&gt;Node2</title>
<g id="a_edge1_Node000001_Node000002"><a xlink:title=" ">
<path fill="none" stroke="#63b8ff" d="M51.72,-16.75C58.83,-16.75 67.03,-16.75 75.73,-16.75"/>
<polygon fill="#63b8ff" stroke="#63b8ff" points="75.47,-20.25 85.47,-16.75 75.47,-13.25 75.47,-20.25"/>
</a>
</g>
</g>
<!-- Node3 -->
<g id="Node000003" class="node">
<title>Node3</title>
<g id="a_Node000003"><a xlink:href="classnixoncpp_1_1assets_1_1AssetManager.html#aa6fa39655aeb5ace81b66c0c3ea7a7c0" target="_top" xlink:title="Resolve the full path of an asset given its relative path.">
<polygon fill="white" stroke="#666666" points="468.75,-33.5 296,-33.5 296,0 468.75,0 468.75,-33.5"/>
<text text-anchor="start" x="304" y="-20" font-family="Helvetica,sans-Serif" font-size="10.00">nixoncpp::assets::AssetManager</text>
<text text-anchor="middle" x="382.38" y="-7.25" font-family="Helvetica,sans-Serif" font-size="10.00">::resolveAsset</text>
</a>
</g>
</g>
<!-- Node2&#45;&gt;Node3 -->
<g id="edge2_Node000002_Node000003" class="edge">
<title>Node2&#45;&gt;Node3</title>
<g id="a_edge2_Node000002_Node000003"><a xlink:title=" ">
<path fill="none" stroke="#63b8ff" d="M260.21,-16.75C268.14,-16.75 276.21,-16.75 284.23,-16.75"/>
<polygon fill="#63b8ff" stroke="#63b8ff" points="284.01,-20.25 294.01,-16.75 284.01,-13.25 284.01,-20.25"/>
</a>
</g>
</g>
</g>
</svg>
