<?xml version="1.0" encoding="UTF-8" standalone="no"?>
<!DOCTYPE svg PUBLIC "-//W3C//DTD SVG 1.1//EN"
 "http://www.w3.org/Graphics/SVG/1.1/DTD/svg11.dtd">
<!-- Generated by graphviz version 12.2.1 (0)
 -->
<!-- Title: TEST Pages: 1 -->
<svg width="243pt" height="80pt"
 viewBox="0.00 0.00 243.25 80.12" xmlns="http://www.w3.org/2000/svg" xmlns:xlink="http://www.w3.org/1999/xlink">
<g id="graph0" class="graph" transform="scale(1 1) rotate(0) translate(4 76.12)">
<title>TEST</title>
<!-- Node1 -->
<g id="Node000001" class="node">
<title>Node1</title>
<g id="a_Node000001"><a xlink:title=" ">
<polygon fill="#999999" stroke="#666666" points="40,-42.75 0,-42.75 0,-22 40,-22 40,-42.75"/>
<text text-anchor="middle" x="20" y="-29.25" font-family="Helvetica,sans-Serif" font-size="10.00">TEST</text>
</a>
</g>
</g>
<!-- Node2 -->
<g id="Node000002" class="node">
<title>Node2</title>
<g id="a_Node000002"><a xlink:href="classMockAssetManager.html#a67f93b4a0f11a87eb463062d689df854" target="_top" xlink:title=" ">
<polygon fill="white" stroke="#666666" points="235.25,-72.12 76,-72.12 76,-38.62 235.25,-38.62 235.25,-72.12"/>
<text text-anchor="start" x="84" y="-58.62" font-family="Helvetica,sans-Serif" font-size="10.00">MockAssetManager::setMock</text>
<text text-anchor="middle" x="155.62" y="-45.88" font-family="Helvetica,sans-Serif" font-size="10.00">Valid</text>
</a>
</g>
</g>
<!-- Node1&#45;&gt;Node2 -->
<g id="edge1_Node000001_Node000002" class="edge">
<title>Node1&#45;&gt;Node2</title>
<g id="a_edge1_Node000001_Node000002"><a xlink:title=" ">
<path fill="none" stroke="#63b8ff" d="M40.43,-35.72C47.33,-36.91 55.61,-38.33 64.52,-39.87"/>
<polygon fill="#63b8ff" stroke="#63b8ff" points="63.72,-43.28 74.17,-41.53 64.91,-36.38 63.72,-43.28"/>
</a>
</g>
</g>
<!-- Node3 -->
<g id="Node000003" class="node">
<title>Node3</title>
<g id="a_Node000003"><a xlink:href="classMockAssetManager.html#a8f82bea196f675915de9ff257300d6a8" target="_top" xlink:title="Validate the asset manager configuration.">
<polygon fill="white" stroke="#666666" points="234.5,-20.75 76.75,-20.75 76.75,0 234.5,0 234.5,-20.75"/>
<text text-anchor="middle" x="155.62" y="-7.25" font-family="Helvetica,sans-Serif" font-size="10.00">MockAssetManager::validate</text>
</a>
</g>
</g>
<!-- Node1&#45;&gt;Node3 -->
<g id="edge2_Node000001_Node000003" class="edge">
<title>Node1&#45;&gt;Node3</title>
<g id="a_edge2_Node000001_Node000003"><a xlink:title=" ">
<path fill="none" stroke="#63b8ff" d="M40.43,-29.18C50.6,-27.5 63.78,-25.33 77.56,-23.06"/>
<polygon fill="#63b8ff" stroke="#63b8ff" points="77.9,-26.55 87.2,-21.48 76.76,-19.65 77.9,-26.55"/>
</a>
</g>
</g>
</g>
</svg>
