<?xml version="1.0" encoding="UTF-8" standalone="no"?>
<!DOCTYPE svg PUBLIC "-//W3C//DTD SVG 1.1//EN"
 "http://www.w3.org/Graphics/SVG/1.1/DTD/svg11.dtd">
<!-- Generated by graphviz version 12.2.1 (0)
 -->
<!-- Title: TEST Pages: 1 -->
<svg width="271pt" height="107pt"
 viewBox="0.00 0.00 271.00 106.75" xmlns="http://www.w3.org/2000/svg" xmlns:xlink="http://www.w3.org/1999/xlink">

<svg id="main" version="1.1" xmlns="http://www.w3.org/2000/svg" xmlns:xlink="http://www.w3.org/1999/xlink" xml:space="preserve">

<style type="text/css"><![CDATA[
.node, .edge {opacity: 0.7;}
.node.selected, .edge.selected {opacity: 1;}
.edge:hover path { stroke: red; }
.edge:hover polygon { stroke: red; fill: red; }
]]></style>
<script type="application/ecmascript" xlink:href="svg.min.js"/>
<svg id="graph" class="graph">
<g id="graph0" class="graph" transform="scale(1 1) rotate(0) translate(4 102.75)">
<title>TEST</title>
<!-- Node1 -->
<g id="Node000001" class="node">
<title>Node1</title>
<g id="a_Node000001"><a xlink:title=" ">
<polygon fill="#999999" stroke="#666666" points="40,-59.75 0,-59.75 0,-39 40,-39 40,-59.75"/>
<text text-anchor="middle" x="20" y="-46.25" font-family="Helvetica,sans-Serif" font-size="10.00">TEST</text>
</a>
</g>
</g>
<!-- Node2 -->
<g id="Node000002" class="node">
<title>Node2</title>
<g id="a_Node000002"><a xlink:href="classMockAssetManager.html#af7bd4703685f7e58e055bed20dab6931" target="_top" xlink:title="Check if an asset exists given its relative path.">
<polygon fill="white" stroke="#666666" points="256.25,-98.75 82.75,-98.75 82.75,-78 256.25,-78 256.25,-98.75"/>
<text text-anchor="middle" x="169.5" y="-85.25" font-family="Helvetica,sans-Serif" font-size="10.00">MockAssetManager::assetExists</text>
</a>
</g>
</g>
<!-- Node1&#45;&gt;Node2 -->
<g id="edge1_Node000001_Node000002" class="edge">
<title>Node1&#45;&gt;Node2</title>
<g id="a_edge1_Node000001_Node000002"><a xlink:title=" ">
<path fill="none" stroke="#63b8ff" d="M40.42,-56.72C50.87,-60.51 64.03,-65.03 76,-68.38 84.46,-70.74 93.41,-72.99 102.29,-75.07"/>
<polygon fill="#63b8ff" stroke="#63b8ff" points="101.45,-78.47 111.98,-77.27 103,-71.64 101.45,-78.47"/>
</a>
</g>
</g>
<!-- Node3 -->
<g id="Node000003" class="node">
<title>Node3</title>
<g id="a_Node000003"><a xlink:href="classMockAssetManager.html#a57ab69fcbe5dc9353276ecc1ce7b37e8" target="_top" xlink:title="Get the Assets Path object.">
<polygon fill="white" stroke="#666666" points="263,-59.75 76,-59.75 76,-39 263,-39 263,-59.75"/>
<text text-anchor="middle" x="169.5" y="-46.25" font-family="Helvetica,sans-Serif" font-size="10.00">MockAssetManager::getAssetsPath</text>
</a>
</g>
</g>
<!-- Node1&#45;&gt;Node3 -->
<g id="edge2_Node000001_Node000003" class="edge">
<title>Node1&#45;&gt;Node3</title>
<g id="a_edge2_Node000001_Node000003"><a xlink:title=" ">
<path fill="none" stroke="#63b8ff" d="M40.28,-49.38C47.11,-49.38 55.35,-49.38 64.31,-49.38"/>
<polygon fill="#63b8ff" stroke="#63b8ff" points="64.05,-52.88 74.05,-49.38 64.05,-45.88 64.05,-52.88"/>
</a>
</g>
</g>
<!-- Node4 -->
<g id="Node000004" class="node">
<title>Node4</title>
<g id="a_Node000004"><a xlink:href="classMockAssetManager.html#a8f82bea196f675915de9ff257300d6a8" target="_top" xlink:title="Validate the asset manager configuration.">
<polygon fill="white" stroke="#666666" points="248.38,-20.75 90.62,-20.75 90.62,0 248.38,0 248.38,-20.75"/>
<text text-anchor="middle" x="169.5" y="-7.25" font-family="Helvetica,sans-Serif" font-size="10.00">MockAssetManager::validate</text>
</a>
</g>
</g>
<!-- Node1&#45;&gt;Node4 -->
<g id="edge3_Node000001_Node000004" class="edge">
<title>Node1&#45;&gt;Node4</title>
<g id="a_edge3_Node000001_Node000004"><a xlink:title=" ">
<path fill="none" stroke="#63b8ff" d="M40.42,-42.03C50.87,-38.24 64.03,-33.72 76,-30.38 84.46,-28.01 93.41,-25.76 102.29,-23.68"/>
<polygon fill="#63b8ff" stroke="#63b8ff" points="103,-27.11 111.98,-21.48 101.45,-20.28 103,-27.11"/>
</a>
</g>
</g>
</g>
</svg>
</svg>

<style type='text/css'>
<![CDATA[
[data-mouse-over-selected='false'] { opacity: 0.7; }
[data-mouse-over-selected='true']  { opacity: 1.0; }
]]>
</style>
<script type="application/ecmascript"><![CDATA[
document.addEventListener('DOMContentLoaded', (event) => {
  highlightEdges();
  highlightAdjacentNodes();
});
]]></script>
</svg>
