<?xml version="1.0" encoding="UTF-8" standalone="no"?>
<!DOCTYPE svg PUBLIC "-//W3C//DTD SVG 1.1//EN"
 "http://www.w3.org/Graphics/SVG/1.1/DTD/svg11.dtd">
<!-- Generated by graphviz version 12.2.1 (0)
 -->
<!-- Title: src/lib/Utils/Assets/AssetManagerFactory.hpp Pages: 1 -->
<svg width="423pt" height="212pt"
 viewBox="0.00 0.00 422.75 211.75" xmlns="http://www.w3.org/2000/svg" xmlns:xlink="http://www.w3.org/1999/xlink">
<g id="graph0" class="graph" transform="scale(1 1) rotate(0) translate(4 207.75)">
<title>src/lib/Utils/Assets/AssetManagerFactory.hpp</title>
<!-- Node1 -->
<g id="Node000001" class="node">
<title>Node1</title>
<g id="a_Node000001"><a xlink:title=" ">
<polygon fill="#999999" stroke="#666666" points="376.62,-203.75 233.12,-203.75 233.12,-170.25 376.62,-170.25 376.62,-203.75"/>
<text text-anchor="start" x="241.12" y="-190.25" font-family="Helvetica,sans-Serif" font-size="10.00">src/lib/Utils/Assets</text>
<text text-anchor="middle" x="304.88" y="-177.5" font-family="Helvetica,sans-Serif" font-size="10.00">/AssetManagerFactory.hpp</text>
</a>
</g>
</g>
<!-- Node2 -->
<g id="Node000002" class="node">
<title>Node2</title>
<g id="a_Node000002"><a xlink:href="AssetManager_8hpp.html" target="_top" xlink:title=" ">
<polygon fill="white" stroke="#666666" points="277.25,-134.25 110.5,-134.25 110.5,-113.5 277.25,-113.5 277.25,-134.25"/>
<text text-anchor="middle" x="193.88" y="-120.75" font-family="Helvetica,sans-Serif" font-size="10.00">Utils/Assets/AssetManager.hpp</text>
</a>
</g>
</g>
<!-- Node1&#45;&gt;Node2 -->
<g id="edge1_Node000001_Node000002" class="edge">
<title>Node1&#45;&gt;Node2</title>
<g id="a_edge1_Node000001_Node000002"><a xlink:title=" ">
<path fill="none" stroke="#63b8ff" d="M275.42,-169.78C258.77,-160.61 238.08,-149.22 221.7,-140.2"/>
<polygon fill="#63b8ff" stroke="#63b8ff" points="223.43,-137.15 212.98,-135.4 220.05,-143.28 223.43,-137.15"/>
</a>
</g>
</g>
<!-- Node3 -->
<g id="Node000003" class="node">
<title>Node3</title>
<g id="a_Node000003"><a xlink:href="IAssetManager_8hpp.html" target="_top" xlink:title=" ">
<polygon fill="white" stroke="#666666" points="169.75,-77.5 0,-77.5 0,-56.75 169.75,-56.75 169.75,-77.5"/>
<text text-anchor="middle" x="84.88" y="-64" font-family="Helvetica,sans-Serif" font-size="10.00">Utils/Assets/IAssetManager.hpp</text>
</a>
</g>
</g>
<!-- Node1&#45;&gt;Node3 -->
<g id="edge6_Node000001_Node000003" class="edge">
<title>Node1&#45;&gt;Node3</title>
<g id="a_edge6_Node000001_Node000003"><a xlink:title=" ">
<path fill="none" stroke="#63b8ff" d="M232.69,-175.53C182.11,-166.76 120.38,-152.72 101.88,-134.25 90.06,-122.46 86.1,-103.65 84.93,-89.09"/>
<polygon fill="#63b8ff" stroke="#63b8ff" points="88.43,-89.06 84.55,-79.2 81.44,-89.33 88.43,-89.06"/>
</a>
</g>
</g>
<!-- Node4 -->
<g id="Node000004" class="node">
<title>Node4</title>
<g id="a_Node000004"><a xlink:title=" ">
<polygon fill="#e0e0e0" stroke="#999999" points="245.38,-20.75 178.38,-20.75 178.38,0 245.38,0 245.38,-20.75"/>
<text text-anchor="middle" x="211.88" y="-7.25" font-family="Helvetica,sans-Serif" font-size="10.00">filesystem</text>
</a>
</g>
</g>
<!-- Node1&#45;&gt;Node4 -->
<g id="edge7_Node000001_Node000004" class="edge">
<title>Node1&#45;&gt;Node4</title>
<g id="a_edge7_Node000001_Node000004"><a xlink:title=" ">
<path fill="none" stroke="#63b8ff" d="M313.45,-170.14C326.22,-144.11 346.37,-91.73 322.88,-56.75 308.15,-34.82 280.74,-23.48 256.85,-17.62"/>
<polygon fill="#63b8ff" stroke="#63b8ff" points="257.82,-14.25 247.31,-15.55 256.34,-21.09 257.82,-14.25"/>
</a>
</g>
</g>
<!-- Node5 -->
<g id="Node000005" class="node">
<title>Node5</title>
<g id="a_Node000005"><a xlink:title=" ">
<polygon fill="#e0e0e0" stroke="#999999" points="313.5,-77.5 256.25,-77.5 256.25,-56.75 313.5,-56.75 313.5,-77.5"/>
<text text-anchor="middle" x="284.88" y="-64" font-family="Helvetica,sans-Serif" font-size="10.00">memory</text>
</a>
</g>
</g>
<!-- Node1&#45;&gt;Node5 -->
<g id="edge8_Node000001_Node000005" class="edge">
<title>Node1&#45;&gt;Node5</title>
<g id="a_edge8_Node000001_Node000005"><a xlink:title=" ">
<path fill="none" stroke="#63b8ff" d="M302.18,-170.1C298.63,-149.21 292.4,-112.46 288.46,-89.25"/>
<polygon fill="#63b8ff" stroke="#63b8ff" points="291.92,-88.7 286.79,-79.43 285.01,-89.87 291.92,-88.7"/>
</a>
</g>
</g>
<!-- Node7 -->
<g id="Node000007" class="node">
<title>Node7</title>
<g id="a_Node000007"><a xlink:title=" ">
<polygon fill="#e0e0e0" stroke="#999999" points="414.75,-134.25 371,-134.25 371,-113.5 414.75,-113.5 414.75,-134.25"/>
<text text-anchor="middle" x="392.88" y="-120.75" font-family="Helvetica,sans-Serif" font-size="10.00">string</text>
</a>
</g>
</g>
<!-- Node1&#45;&gt;Node7 -->
<g id="edge9_Node000001_Node000007" class="edge">
<title>Node1&#45;&gt;Node7</title>
<g id="a_edge9_Node000001_Node000007"><a xlink:title=" ">
<path fill="none" stroke="#63b8ff" d="M328,-169.94C340.82,-161.03 356.72,-149.99 369.57,-141.06"/>
<polygon fill="#63b8ff" stroke="#63b8ff" points="371.25,-144.16 377.46,-135.58 367.25,-138.41 371.25,-144.16"/>
</a>
</g>
</g>
<!-- Node2&#45;&gt;Node3 -->
<g id="edge2_Node000002_Node000003" class="edge">
<title>Node2&#45;&gt;Node3</title>
<g id="a_edge2_Node000002_Node000003"><a xlink:title=" ">
<path fill="none" stroke="#63b8ff" d="M174.39,-113.09C157.73,-104.72 133.49,-92.54 114.44,-82.97"/>
<polygon fill="#63b8ff" stroke="#63b8ff" points="116.05,-79.87 105.55,-78.51 112.91,-86.12 116.05,-79.87"/>
</a>
</g>
</g>
<!-- Node2&#45;&gt;Node5 -->
<g id="edge4_Node000002_Node000005" class="edge">
<title>Node2&#45;&gt;Node5</title>
<g id="a_edge4_Node000002_Node000005"><a xlink:title=" ">
<path fill="none" stroke="#63b8ff" d="M210.14,-113.09C223.73,-104.91 243.35,-93.11 259.08,-83.65"/>
<polygon fill="#63b8ff" stroke="#63b8ff" points="260.69,-86.76 267.45,-78.61 257.08,-80.77 260.69,-86.76"/>
</a>
</g>
</g>
<!-- Node6 -->
<g id="Node000006" class="node">
<title>Node6</title>
<g id="a_Node000006"><a xlink:title=" ">
<polygon fill="#e0e0e0" stroke="#999999" points="235.62,-77.5 188.12,-77.5 188.12,-56.75 235.62,-56.75 235.62,-77.5"/>
<text text-anchor="middle" x="211.88" y="-64" font-family="Helvetica,sans-Serif" font-size="10.00">mutex</text>
</a>
</g>
</g>
<!-- Node2&#45;&gt;Node6 -->
<g id="edge5_Node000002_Node000006" class="edge">
<title>Node2&#45;&gt;Node6</title>
<g id="a_edge5_Node000002_Node000006"><a xlink:title=" ">
<path fill="none" stroke="#63b8ff" d="M197.09,-113.09C199.32,-106.31 202.37,-97.05 205.11,-88.69"/>
<polygon fill="#63b8ff" stroke="#63b8ff" points="208.41,-89.86 208.21,-79.27 201.76,-87.67 208.41,-89.86"/>
</a>
</g>
</g>
<!-- Node3&#45;&gt;Node4 -->
<g id="edge3_Node000003_Node000004" class="edge">
<title>Node3&#45;&gt;Node4</title>
<g id="a_edge3_Node000003_Node000004"><a xlink:title=" ">
<path fill="none" stroke="#63b8ff" d="M107.58,-56.34C127.45,-47.77 156.55,-35.23 178.97,-25.56"/>
<polygon fill="#63b8ff" stroke="#63b8ff" points="180.18,-28.85 187.98,-21.68 177.41,-22.42 180.18,-28.85"/>
</a>
</g>
</g>
</g>
</svg>
