<?xml version="1.0" encoding="UTF-8" standalone="no"?>
<!DOCTYPE svg PUBLIC "-//W3C//DTD SVG 1.1//EN"
 "http://www.w3.org/Graphics/SVG/1.1/DTD/svg11.dtd">
<!-- Generated by graphviz version 12.2.1 (0)
 -->
<!-- Title: src/lib/Utils/Assets/AssetManager.hpp Pages: 1 -->
<svg width="382pt" height="168pt"
 viewBox="0.00 0.00 382.38 167.75" xmlns="http://www.w3.org/2000/svg" xmlns:xlink="http://www.w3.org/1999/xlink">

<svg id="main" version="1.1" xmlns="http://www.w3.org/2000/svg" xmlns:xlink="http://www.w3.org/1999/xlink" xml:space="preserve">

<style type="text/css"><![CDATA[
.node, .edge {opacity: 0.7;}
.node.selected, .edge.selected {opacity: 1;}
.edge:hover path { stroke: red; }
.edge:hover polygon { stroke: red; fill: red; }
]]></style>
<script type="application/ecmascript" xlink:href="svg.min.js"/>
<svg id="graph" class="graph">
<g id="graph0" class="graph" transform="scale(1 1) rotate(0) translate(4 163.75)">
<title>src/lib/Utils/Assets/AssetManager.hpp</title>
<!-- Node1 -->
<g id="Node000001" class="node">
<title>Node1</title>
<g id="a_Node000001"><a xlink:title=" ">
<polygon fill="#999999" stroke="#666666" points="252.62,-159.75 143.62,-159.75 143.62,-126.25 252.62,-126.25 252.62,-159.75"/>
<text text-anchor="start" x="151.62" y="-146.25" font-family="Helvetica,sans-Serif" font-size="10.00">src/lib/Utils/Assets</text>
<text text-anchor="middle" x="198.12" y="-133.5" font-family="Helvetica,sans-Serif" font-size="10.00">/AssetManager.hpp</text>
</a>
</g>
</g>
<!-- Node2 -->
<g id="Node000002" class="node">
<title>Node2</title>
<g id="a_Node000002"><a xlink:href="AssetManager_8cpp.html" target="_top" xlink:title=" ">
<polygon fill="white" stroke="#666666" points="108.25,-90.25 0,-90.25 0,-56.75 108.25,-56.75 108.25,-90.25"/>
<text text-anchor="start" x="8" y="-76.75" font-family="Helvetica,sans-Serif" font-size="10.00">src/lib/Utils/Assets</text>
<text text-anchor="middle" x="54.12" y="-64" font-family="Helvetica,sans-Serif" font-size="10.00">/AssetManager.cpp</text>
</a>
</g>
</g>
<!-- Node1&#45;&gt;Node2 -->
<g id="edge1_Node000001_Node000002" class="edge">
<title>Node1&#45;&gt;Node2</title>
<g id="a_edge1_Node000001_Node000002"><a xlink:title=" ">
<path fill="none" stroke="#63b8ff" d="M153.35,-121.01C132.38,-111.18 107.79,-99.66 88.34,-90.54"/>
<polygon fill="#63b8ff" stroke="#63b8ff" points="151.72,-124.11 162.26,-125.19 154.69,-117.78 151.72,-124.11"/>
</a>
</g>
</g>
<!-- Node3 -->
<g id="Node000003" class="node">
<title>Node3</title>
<g id="a_Node000003"><a xlink:href="AssetManagerFactory_8hpp.html" target="_top" xlink:title=" ">
<polygon fill="white" stroke="#666666" points="269.88,-90.25 126.38,-90.25 126.38,-56.75 269.88,-56.75 269.88,-90.25"/>
<text text-anchor="start" x="134.38" y="-76.75" font-family="Helvetica,sans-Serif" font-size="10.00">src/lib/Utils/Assets</text>
<text text-anchor="middle" x="198.12" y="-64" font-family="Helvetica,sans-Serif" font-size="10.00">/AssetManagerFactory.hpp</text>
</a>
</g>
</g>
<!-- Node1&#45;&gt;Node3 -->
<g id="edge2_Node000001_Node000003" class="edge">
<title>Node1&#45;&gt;Node3</title>
<g id="a_edge2_Node000001_Node000003"><a xlink:title=" ">
<path fill="none" stroke="#63b8ff" d="M198.12,-114.56C198.12,-106.34 198.12,-97.59 198.12,-90.38"/>
<polygon fill="#63b8ff" stroke="#63b8ff" points="194.63,-114.49 198.13,-124.49 201.63,-114.49 194.63,-114.49"/>
</a>
</g>
</g>
<!-- Node5 -->
<g id="Node000005" class="node">
<title>Node5</title>
<g id="a_Node000005"><a xlink:href="AssetManagerTest_8cpp.html" target="_top" xlink:title=" ">
<polygon fill="white" stroke="#666666" points="374.38,-20.75 221.88,-20.75 221.88,0 374.38,0 374.38,-20.75"/>
<text text-anchor="middle" x="298.12" y="-7.25" font-family="Helvetica,sans-Serif" font-size="10.00">tests/AssetManagerTest.cpp</text>
</a>
</g>
</g>
<!-- Node1&#45;&gt;Node5 -->
<g id="edge5_Node000001_Node000005" class="edge">
<title>Node1&#45;&gt;Node5</title>
<g id="a_edge5_Node000001_Node000005"><a xlink:title=" ">
<path fill="none" stroke="#63b8ff" d="M245.11,-120.38C257.79,-112.52 270.4,-102.49 279.12,-90.25 294.33,-68.92 297.47,-36.95 298.05,-21.06"/>
<polygon fill="#63b8ff" stroke="#63b8ff" points="243.67,-117.17 236.77,-125.21 247.18,-123.23 243.67,-117.17"/>
</a>
</g>
</g>
<!-- Node4 -->
<g id="Node000004" class="node">
<title>Node4</title>
<g id="a_Node000004"><a xlink:href="UtilsFactory_8cpp.html" target="_top" xlink:title=" ">
<polygon fill="white" stroke="#666666" points="204.25,-20.75 54,-20.75 54,0 204.25,0 204.25,-20.75"/>
<text text-anchor="middle" x="129.12" y="-7.25" font-family="Helvetica,sans-Serif" font-size="10.00">src/lib/Utils/UtilsFactory.cpp</text>
</a>
</g>
</g>
<!-- Node3&#45;&gt;Node4 -->
<g id="edge3_Node000003_Node000004" class="edge">
<title>Node3&#45;&gt;Node4</title>
<g id="a_edge3_Node000003_Node000004"><a xlink:title=" ">
<path fill="none" stroke="#63b8ff" d="M171.59,-49C160.7,-39.35 148.7,-28.71 140.23,-21.22"/>
<polygon fill="#63b8ff" stroke="#63b8ff" points="169.06,-51.43 178.86,-55.44 173.7,-46.19 169.06,-51.43"/>
</a>
</g>
</g>
<!-- Node3&#45;&gt;Node5 -->
<g id="edge4_Node000003_Node000005" class="edge">
<title>Node3&#45;&gt;Node5</title>
<g id="a_edge4_Node000003_Node000005"><a xlink:title=" ">
<path fill="none" stroke="#63b8ff" d="M234.04,-50.55C250.5,-40.49 269.18,-29.07 282.11,-21.17"/>
<polygon fill="#63b8ff" stroke="#63b8ff" points="232.66,-47.29 225.95,-55.49 236.31,-53.26 232.66,-47.29"/>
</a>
</g>
</g>
</g>
</svg>
</svg>

<style type='text/css'>
<![CDATA[
[data-mouse-over-selected='false'] { opacity: 0.7; }
[data-mouse-over-selected='true']  { opacity: 1.0; }
]]>
</style>
<script type="application/ecmascript"><![CDATA[
document.addEventListener('DOMContentLoaded', (event) => {
  highlightEdges();
  highlightAdjacentNodes();
});
]]></script>
</svg>
