<?xml version="1.0" encoding="UTF-8" standalone="no"?>
<!DOCTYPE svg PUBLIC "-//W3C//DTD SVG 1.1//EN"
 "http://www.w3.org/Graphics/SVG/1.1/DTD/svg11.dtd">
<!-- Generated by graphviz version 12.2.1 (0)
 -->
<!-- Title: tests/AssetManagerTest.cpp Pages: 1 -->
<!--zoomable 281 -->

<svg id="main" version="1.1" xmlns="http://www.w3.org/2000/svg" xmlns:xlink="http://www.w3.org/1999/xlink" xml:space="preserve" onload="init(evt)">

<style type="text/css"><![CDATA[
.node, .edge {opacity: 0.7;}
.node.selected, .edge.selected {opacity: 1;}
.edge:hover path { stroke: red; }
.edge:hover polygon { stroke: red; fill: red; }
]]></style>

<defs>
  <circle id="rim" cx="0" cy="0" r="7"/>
  <circle id="rim2" cx="0" cy="0" r="3.5"/>
  <g id="zoomPlus">
    <use xlink:href="#rim" fill="#404040"><set attributeName="fill" to="#808080" begin="zoomplus.mouseover" end="zoomplus.mouseout"/></use>
    <path d="M-4,0h8M0,-4v8" fill="none" stroke="white" stroke-width="1.5" pointer-events="none"/>
  </g>
  <g id="zoomMin">
    <use xlink:href="#rim" fill="#404040"><set attributeName="fill" to="#808080" begin="zoomminus.mouseover" end="zoomminus.mouseout"/></use>
    <path d="M-4,0h8" fill="none" stroke="white" stroke-width="1.5" pointer-events="none"/>
  </g>
  <g id="arrowUp" transform="translate(30 24)">
    <use xlink:href="#rim"/>
    <path pointer-events="none" fill="none" stroke="white" stroke-width="1.5" d="M0,-3.0v7 M-2.5,-0.5L0,-3.0L2.5,-0.5"/>
  </g>
  <g id="arrowRight" transform="rotate(90) translate(36 -43)">
    <use xlink:href="#rim"/>
    <path pointer-events="none" fill="none" stroke="white" stroke-width="1.5" d="M0,-3.0v7 M-2.5,-0.5L0,-3.0L2.5,-0.5"/>
  </g>
  <g id="arrowDown" transform="rotate(180) translate(-30 -48)">
    <use xlink:href="#rim"/>
    <path pointer-events="none" fill="none" stroke="white" stroke-width="1.5" d="M0,-3.0v7 M-2.5,-0.5L0,-3.0L2.5,-0.5"/>
  </g>
  <g id="arrowLeft" transform="rotate(270) translate(-36 17)">
    <use xlink:href="#rim"/>
    <path pointer-events="none" fill="none" stroke="white" stroke-width="1.5" d="M0,-3.0v7 M-2.5,-0.5L0,-3.0L2.5,-0.5"/>
  </g>
  <g id="resetDef">
    <use xlink:href="#rim2" fill="#404040"><set attributeName="fill" to="#808080" begin="reset.mouseover" end="reset.mouseout"/></use>
  </g>
</defs>
<script type="application/ecmascript">
var viewWidth = 553;
var viewHeight = 281;
var sectionId = 'dynsection-0';
</script>
<script type="application/ecmascript" xlink:href="svg.min.js"/>
<svg id="graph" class="graph">
<g id="viewport">
<title>tests/AssetManagerTest.cpp</title>
<!-- Node1 -->
<g id="Node000001" class="node">
<title>Node1</title>
<g id="a_Node000001"><a xlink:title=" ">
<polygon fill="#999999" stroke="#666666" points="331.71,-273.25 179.21,-273.25 179.21,-252.5 331.71,-252.5 331.71,-273.25"/>
<text text-anchor="middle" x="255.46" y="-259.75" font-family="Helvetica,sans-Serif" font-size="10.00">tests/AssetManagerTest.cpp</text>
</a>
</g>
</g>
<!-- Node2 -->
<g id="Node000002" class="node">
<title>Node2</title>
<g id="a_Node000002"><a xlink:href="AssetManager_8hpp.html" target="_top" xlink:title=" ">
<polygon fill="white" stroke="#666666" points="319.96,-147 204.96,-147 204.96,-113.5 319.96,-113.5 319.96,-147"/>
<text text-anchor="start" x="212.96" y="-133.5" font-family="Helvetica,sans-Serif" font-size="10.00">../src/lib/Utils/Assets</text>
<text text-anchor="middle" x="262.46" y="-120.75" font-family="Helvetica,sans-Serif" font-size="10.00">/AssetManager.hpp</text>
</a>
</g>
</g>
<!-- Node1&#45;&gt;Node2 -->
<g id="edge1_Node000001_Node000002" class="edge">
<title>Node1&#45;&gt;Node2</title>
<g id="a_edge1_Node000001_Node000002"><a xlink:title=" ">
<path fill="none" stroke="#63b8ff" d="M246.09,-252.01C238.6,-243.4 228.68,-230.17 224.46,-216.5 220.06,-202.27 219.82,-197.15 224.46,-183 227.6,-173.41 233.28,-164.13 239.3,-156.13"/>
<polygon fill="#63b8ff" stroke="#63b8ff" points="241.85,-158.55 245.44,-148.58 236.42,-154.13 241.85,-158.55"/>
</a>
</g>
</g>
<!-- Node4 -->
<g id="Node000004" class="node">
<title>Node4</title>
<g id="a_Node000004"><a xlink:title=" ">
<polygon fill="#e0e0e0" stroke="#999999" points="127.96,-20.75 60.96,-20.75 60.96,0 127.96,0 127.96,-20.75"/>
<text text-anchor="middle" x="94.46" y="-7.25" font-family="Helvetica,sans-Serif" font-size="10.00">filesystem</text>
</a>
</g>
</g>
<!-- Node1&#45;&gt;Node4 -->
<g id="edge15_Node000001_Node000004" class="edge">
<title>Node1&#45;&gt;Node4</title>
<g id="a_edge15_Node000001_Node000004"><a xlink:title=" ">
<path fill="none" stroke="#63b8ff" d="M190.85,-252.04C131.5,-239.18 46.95,-210.3 7.46,-147 -19.61,-103.61 36.35,-53.03 70.55,-27.65"/>
<polygon fill="#63b8ff" stroke="#63b8ff" points="72.24,-30.76 78.31,-22.07 68.15,-25.07 72.24,-30.76"/>
</a>
</g>
</g>
<!-- Node7 -->
<g id="Node000007" class="node">
<title>Node7</title>
<g id="a_Node000007"><a xlink:href="AssetManagerFactory_8hpp.html" target="_top" xlink:title=" ">
<polygon fill="white" stroke="#666666" points="377.21,-216.5 233.71,-216.5 233.71,-183 377.21,-183 377.21,-216.5"/>
<text text-anchor="start" x="241.71" y="-203" font-family="Helvetica,sans-Serif" font-size="10.00">../src/lib/Utils/Assets</text>
<text text-anchor="middle" x="305.46" y="-190.25" font-family="Helvetica,sans-Serif" font-size="10.00">/AssetManagerFactory.hpp</text>
</a>
</g>
</g>
<!-- Node1&#45;&gt;Node7 -->
<g id="edge6_Node000001_Node000007" class="edge">
<title>Node1&#45;&gt;Node7</title>
<g id="a_edge6_Node000001_Node000007"><a xlink:title=" ">
<path fill="none" stroke="#63b8ff" d="M263.49,-252.05C269.29,-244.97 277.39,-235.06 284.93,-225.84"/>
<polygon fill="#63b8ff" stroke="#63b8ff" points="287.6,-228.11 291.22,-218.16 282.18,-223.68 287.6,-228.11"/>
</a>
</g>
</g>
<!-- Node9 -->
<g id="Node000009" class="node">
<title>Node9</title>
<g id="a_Node000009"><a xlink:href="MockAssetManager_8hpp.html" target="_top" xlink:title=" ">
<polygon fill="white" stroke="#666666" points="148.58,-140.62 16.33,-140.62 16.33,-119.88 148.58,-119.88 148.58,-140.62"/>
<text text-anchor="middle" x="82.46" y="-127.12" font-family="Helvetica,sans-Serif" font-size="10.00">MockAssetManager.hpp</text>
</a>
</g>
</g>
<!-- Node1&#45;&gt;Node9 -->
<g id="edge12_Node000001_Node000009" class="edge">
<title>Node1&#45;&gt;Node9</title>
<g id="a_edge12_Node000001_Node000009"><a xlink:title=" ">
<path fill="none" stroke="#63b8ff" d="M242.45,-252.06C212.88,-229.73 140.33,-174.95 103.97,-147.49"/>
<polygon fill="#63b8ff" stroke="#63b8ff" points="106.44,-144.97 96.35,-141.74 102.22,-150.56 106.44,-144.97"/>
</a>
</g>
</g>
<!-- Node10 -->
<g id="Node000010" class="node">
<title>Node10</title>
<g id="a_Node000010"><a xlink:title=" ">
<polygon fill="#e0e0e0" stroke="#999999" points="449.58,-210.12 395.33,-210.12 395.33,-189.38 449.58,-189.38 449.58,-210.12"/>
<text text-anchor="middle" x="422.46" y="-196.62" font-family="Helvetica,sans-Serif" font-size="10.00">fstream</text>
</a>
</g>
</g>
<!-- Node1&#45;&gt;Node10 -->
<g id="edge16_Node000001_Node000010" class="edge">
<title>Node1&#45;&gt;Node10</title>
<g id="a_edge16_Node000001_Node000010"><a xlink:title=" ">
<path fill="none" stroke="#63b8ff" d="M286.15,-252.01C312.86,-243.24 352.5,-229.79 386.46,-216.5 387.78,-215.98 389.13,-215.45 390.48,-214.89"/>
<polygon fill="#63b8ff" stroke="#63b8ff" points="391.62,-218.21 399.48,-211.11 388.9,-211.76 391.62,-218.21"/>
</a>
</g>
</g>
<!-- Node11 -->
<g id="Node000011" class="node">
<title>Node11</title>
<g id="a_Node000011"><a xlink:title=" ">
<polygon fill="#e0e0e0" stroke="#999999" points="545.21,-210.12 467.71,-210.12 467.71,-189.38 545.21,-189.38 545.21,-210.12"/>
<text text-anchor="middle" x="506.46" y="-196.62" font-family="Helvetica,sans-Serif" font-size="10.00">gtest/gtest.h</text>
</a>
</g>
</g>
<!-- Node1&#45;&gt;Node11 -->
<g id="edge17_Node000001_Node000011" class="edge">
<title>Node1&#45;&gt;Node11</title>
<g id="a_edge17_Node000001_Node000011"><a xlink:title=" ">
<path fill="none" stroke="#63b8ff" d="M305.85,-252.03C347.13,-243.63 406.93,-230.68 458.46,-216.5 461.23,-215.74 464.08,-214.91 466.95,-214.05"/>
<polygon fill="#63b8ff" stroke="#63b8ff" points="467.97,-217.4 476.47,-211.07 465.88,-210.72 467.97,-217.4"/>
</a>
</g>
</g>
<!-- Node3 -->
<g id="Node000003" class="node">
<title>Node3</title>
<g id="a_Node000003"><a xlink:href="IAssetManager_8hpp.html" target="_top" xlink:title=" ">
<polygon fill="white" stroke="#666666" points="236.33,-77.5 66.58,-77.5 66.58,-56.75 236.33,-56.75 236.33,-77.5"/>
<text text-anchor="middle" x="151.46" y="-64" font-family="Helvetica,sans-Serif" font-size="10.00">Utils/Assets/IAssetManager.hpp</text>
</a>
</g>
</g>
<!-- Node2&#45;&gt;Node3 -->
<g id="edge2_Node000002_Node000003" class="edge">
<title>Node2&#45;&gt;Node3</title>
<g id="a_edge2_Node000002_Node000003"><a xlink:title=" ">
<path fill="none" stroke="#63b8ff" d="M233,-113.03C216.35,-103.86 195.66,-92.47 179.29,-83.45"/>
<polygon fill="#63b8ff" stroke="#63b8ff" points="181.01,-80.4 170.56,-78.65 177.63,-86.53 181.01,-80.4"/>
</a>
</g>
</g>
<!-- Node5 -->
<g id="Node000005" class="node">
<title>Node5</title>
<g id="a_Node000005"><a xlink:title=" ">
<polygon fill="#e0e0e0" stroke="#999999" points="377.08,-77.5 319.83,-77.5 319.83,-56.75 377.08,-56.75 377.08,-77.5"/>
<text text-anchor="middle" x="348.46" y="-64" font-family="Helvetica,sans-Serif" font-size="10.00">memory</text>
</a>
</g>
</g>
<!-- Node2&#45;&gt;Node5 -->
<g id="edge4_Node000002_Node000005" class="edge">
<title>Node2&#45;&gt;Node5</title>
<g id="a_edge4_Node000002_Node000005"><a xlink:title=" ">
<path fill="none" stroke="#63b8ff" d="M285.05,-113.19C297.46,-104.37 312.82,-93.45 325.32,-84.57"/>
<polygon fill="#63b8ff" stroke="#63b8ff" points="327.25,-87.49 333.38,-78.84 323.2,-81.78 327.25,-87.49"/>
</a>
</g>
</g>
<!-- Node6 -->
<g id="Node000006" class="node">
<title>Node6</title>
<g id="a_Node000006"><a xlink:title=" ">
<polygon fill="#e0e0e0" stroke="#999999" points="302.21,-77.5 254.71,-77.5 254.71,-56.75 302.21,-56.75 302.21,-77.5"/>
<text text-anchor="middle" x="278.46" y="-64" font-family="Helvetica,sans-Serif" font-size="10.00">mutex</text>
</a>
</g>
</g>
<!-- Node2&#45;&gt;Node6 -->
<g id="edge5_Node000002_Node000006" class="edge">
<title>Node2&#45;&gt;Node6</title>
<g id="a_edge5_Node000002_Node000006"><a xlink:title=" ">
<path fill="none" stroke="#63b8ff" d="M266.66,-113.19C268.6,-105.77 270.94,-96.86 273.01,-88.93"/>
<polygon fill="#63b8ff" stroke="#63b8ff" points="276.35,-89.99 275.5,-79.43 269.58,-88.22 276.35,-89.99"/>
</a>
</g>
</g>
<!-- Node3&#45;&gt;Node4 -->
<g id="edge3_Node000003_Node000004" class="edge">
<title>Node3&#45;&gt;Node4</title>
<g id="a_edge3_Node000003_Node000004"><a xlink:title=" ">
<path fill="none" stroke="#63b8ff" d="M141.27,-56.34C133.32,-48.71 122.09,-37.92 112.62,-28.82"/>
<polygon fill="#63b8ff" stroke="#63b8ff" points="115.29,-26.53 105.65,-22.13 110.44,-31.58 115.29,-26.53"/>
</a>
</g>
</g>
<!-- Node7&#45;&gt;Node2 -->
<g id="edge7_Node000007_Node000002" class="edge">
<title>Node7&#45;&gt;Node2</title>
<g id="a_edge7_Node000007_Node000002"><a xlink:title=" ">
<path fill="none" stroke="#63b8ff" d="M295.27,-182.75C290.29,-174.94 284.18,-165.34 278.58,-156.56"/>
<polygon fill="#63b8ff" stroke="#63b8ff" points="281.71,-154.96 273.39,-148.41 275.81,-158.72 281.71,-154.96"/>
</a>
</g>
</g>
<!-- Node7&#45;&gt;Node3 -->
<g id="edge8_Node000007_Node000003" class="edge">
<title>Node7&#45;&gt;Node3</title>
<g id="a_edge8_Node000007_Node000003"><a xlink:title=" ">
<path fill="none" stroke="#63b8ff" d="M255.47,-182.52C235.44,-174.21 213.2,-162.53 196.46,-147 178.9,-130.71 166.33,-105.97 159.01,-88.55"/>
<polygon fill="#63b8ff" stroke="#63b8ff" points="162.27,-87.28 155.35,-79.26 155.76,-89.85 162.27,-87.28"/>
</a>
</g>
</g>
<!-- Node7&#45;&gt;Node4 -->
<g id="edge9_Node000007_Node000004" class="edge">
<title>Node7&#45;&gt;Node4</title>
<g id="a_edge9_Node000007_Node000004"><a xlink:title=" ">
<path fill="none" stroke="#63b8ff" d="M377.62,-184.48C397.78,-176.82 417.43,-165.05 429.46,-147 454.09,-110.02 424.61,-79.53 386.46,-56.75 345.62,-32.37 210.74,-19.5 139.49,-14.26"/>
<polygon fill="#63b8ff" stroke="#63b8ff" points="139.94,-10.78 129.71,-13.56 139.44,-17.77 139.94,-10.78"/>
</a>
</g>
</g>
<!-- Node7&#45;&gt;Node5 -->
<g id="edge10_Node000007_Node000005" class="edge">
<title>Node7&#45;&gt;Node5</title>
<g id="a_edge10_Node000007_Node000005"><a xlink:title=" ">
<path fill="none" stroke="#63b8ff" d="M313.87,-182.78C318.91,-172.72 325.16,-159.34 329.46,-147 336.22,-127.6 341.44,-104.71 344.69,-88.6"/>
<polygon fill="#63b8ff" stroke="#63b8ff" points="348.03,-89.74 346.49,-79.26 341.16,-88.41 348.03,-89.74"/>
</a>
</g>
</g>
<!-- Node8 -->
<g id="Node000008" class="node">
<title>Node8</title>
<g id="a_Node000008"><a xlink:title=" ">
<polygon fill="#e0e0e0" stroke="#999999" points="420.33,-140.62 376.58,-140.62 376.58,-119.88 420.33,-119.88 420.33,-140.62"/>
<text text-anchor="middle" x="398.46" y="-127.12" font-family="Helvetica,sans-Serif" font-size="10.00">string</text>
</a>
</g>
</g>
<!-- Node7&#45;&gt;Node8 -->
<g id="edge11_Node000007_Node000008" class="edge">
<title>Node7&#45;&gt;Node8</title>
<g id="a_edge11_Node000007_Node000008"><a xlink:title=" ">
<path fill="none" stroke="#63b8ff" d="M327.5,-182.75C342.13,-172.14 361.27,-158.24 375.99,-147.56"/>
<polygon fill="#63b8ff" stroke="#63b8ff" points="377.66,-150.67 383.7,-141.96 373.55,-145 377.66,-150.67"/>
</a>
</g>
</g>
<!-- Node9&#45;&gt;Node3 -->
<g id="edge13_Node000009_Node000003" class="edge">
<title>Node9&#45;&gt;Node3</title>
<g id="a_edge13_Node000009_Node000003"><a xlink:title=" ">
<path fill="none" stroke="#63b8ff" d="M93.54,-119.43C103.97,-110.2 119.79,-96.18 132.26,-85.13"/>
<polygon fill="#63b8ff" stroke="#63b8ff" points="134.33,-87.97 139.49,-78.72 129.69,-82.73 134.33,-87.97"/>
</a>
</g>
</g>
<!-- Node9&#45;&gt;Node4 -->
<g id="edge14_Node000009_Node000004" class="edge">
<title>Node9&#45;&gt;Node4</title>
<g id="a_edge14_Node000009_Node000004"><a xlink:title=" ">
<path fill="none" stroke="#63b8ff" d="M74.7,-119.38C64.7,-105.41 49.51,-79.08 57.46,-56.75 61.08,-46.56 68.09,-37.01 75.03,-29.32"/>
<polygon fill="#63b8ff" stroke="#63b8ff" points="77.4,-31.9 81.89,-22.3 72.4,-27 77.4,-31.9"/>
</a>
</g>
</g>
</g>
</svg>

<g id="navigator" transform="translate(0 0)" fill="#404254">
  <rect fill="#f2f5e9" fill-opacity="0.5" stroke="#606060" stroke-width=".5" x="0" y="0" width="60" height="60"/>
  <use id="zoomplus" xlink:href="#zoomPlus" x="17" y="9" onmousedown="handleZoom(evt,'in')"/>
  <use id="zoomminus" xlink:href="#zoomMin" x="42" y="9" onmousedown="handleZoom(evt,'out')"/>
  <use id="reset" xlink:href="#resetDef" x="30" y="36" onmousedown="handleReset()"/>
   <use id="arrowup" xlink:href="#arrowUp" x="0" y="0" onmousedown="handlePan(0,-1)"/>
  <use id="arrowright" xlink:href="#arrowRight" x="0" y="0" onmousedown="handlePan(1,0)"/>
  <use id="arrowdown" xlink:href="#arrowDown" x="0" y="0" onmousedown="handlePan(0,1)"/>
  <use id="arrowleft" xlink:href="#arrowLeft" x="0" y="0" onmousedown="handlePan(-1,0)"/>
</g>
<svg viewBox="0 0 15 15" width="100%" height="30px" preserveAspectRatio="xMaxYMin meet">
 <g id="arrow_out" transform="scale(0.3 0.3)">
  <a xlink:href="AssetManagerTest_8cpp__incl_org.svg" target="_base">
   <rect id="button" ry="5" rx="5" y="6" x="6" height="38" width="38"
        fill="#f2f5e9" fill-opacity="0.5" stroke="#606060" stroke-width="1.0"/>
   <path id="arrow"
     d="M 11.500037,31.436501 C 11.940474,20.09759 22.043105,11.32322 32.158766,21.979434 L 37.068811,17.246167 C 37.068811,17.246167 37.088388,32 37.088388,32 L 22.160133,31.978069 C 22.160133,31.978069 26.997745,27.140456 26.997745,27.140456 C 18.528582,18.264221 13.291696,25.230495 11.500037,31.436501 z"
     style="fill:#404040;"/>
  </a>
 </g>
</svg>

<style type='text/css'>
<![CDATA[
[data-mouse-over-selected='false'] { opacity: 0.7; }
[data-mouse-over-selected='true']  { opacity: 1.0; }
]]>
</style>
<script type="application/ecmascript"><![CDATA[
document.addEventListener('DOMContentLoaded', (event) => {
  highlightEdges();
  highlightAdjacentNodes();
});
]]></script>
</svg>
