<?xml version="1.0" encoding="UTF-8" standalone="no"?>
<!DOCTYPE svg PUBLIC "-//W3C//DTD SVG 1.1//EN"
 "http://www.w3.org/Graphics/SVG/1.1/DTD/svg11.dtd">
<!-- Generated by graphviz version 12.2.1 (0)
 -->
<!-- Title: src/lib/Utils/Assets/AssetManager.cpp Pages: 1 -->
<svg width="342pt" height="212pt"
 viewBox="0.00 0.00 342.25 211.75" xmlns="http://www.w3.org/2000/svg" xmlns:xlink="http://www.w3.org/1999/xlink">
<g id="graph0" class="graph" transform="scale(1 1) rotate(0) translate(4 207.75)">
<title>src/lib/Utils/Assets/AssetManager.cpp</title>
<!-- Node1 -->
<g id="Node000001" class="node">
<title>Node1</title>
<g id="a_Node000001"><a xlink:title=" ">
<polygon fill="#999999" stroke="#666666" points="318,-203.75 209.75,-203.75 209.75,-170.25 318,-170.25 318,-203.75"/>
<text text-anchor="start" x="217.75" y="-190.25" font-family="Helvetica,sans-Serif" font-size="10.00">src/lib/Utils/Assets</text>
<text text-anchor="middle" x="263.88" y="-177.5" font-family="Helvetica,sans-Serif" font-size="10.00">/AssetManager.cpp</text>
</a>
</g>
</g>
<!-- Node2 -->
<g id="Node000002" class="node">
<title>Node2</title>
<g id="a_Node000002"><a xlink:href="AssetManager_8hpp.html" target="_top" xlink:title=" ">
<polygon fill="white" stroke="#666666" points="269.88,-134.25 163.88,-134.25 163.88,-113.5 269.88,-113.5 269.88,-134.25"/>
<text text-anchor="middle" x="216.88" y="-120.75" font-family="Helvetica,sans-Serif" font-size="10.00">AssetManager.hpp</text>
</a>
</g>
</g>
<!-- Node1&#45;&gt;Node2 -->
<g id="edge1_Node000001_Node000002" class="edge">
<title>Node1&#45;&gt;Node2</title>
<g id="a_edge1_Node000001_Node000002"><a xlink:title=" ">
<path fill="none" stroke="#63b8ff" d="M251.53,-169.94C245.35,-161.91 237.83,-152.13 231.38,-143.74"/>
<polygon fill="#63b8ff" stroke="#63b8ff" points="234.24,-141.71 225.37,-135.92 228.69,-145.98 234.24,-141.71"/>
</a>
</g>
</g>
<!-- Node7 -->
<g id="Node000007" class="node">
<title>Node7</title>
<g id="a_Node000007"><a xlink:title=" ">
<polygon fill="#e0e0e0" stroke="#999999" points="334.25,-134.25 287.5,-134.25 287.5,-113.5 334.25,-113.5 334.25,-134.25"/>
<text text-anchor="middle" x="310.88" y="-120.75" font-family="Helvetica,sans-Serif" font-size="10.00">vector</text>
</a>
</g>
</g>
<!-- Node1&#45;&gt;Node7 -->
<g id="edge6_Node000001_Node000007" class="edge">
<title>Node1&#45;&gt;Node7</title>
<g id="a_edge6_Node000001_Node000007"><a xlink:title=" ">
<path fill="none" stroke="#63b8ff" d="M276.22,-169.94C282.4,-161.91 289.92,-152.13 296.37,-143.74"/>
<polygon fill="#63b8ff" stroke="#63b8ff" points="299.06,-145.98 302.38,-135.92 293.51,-141.71 299.06,-145.98"/>
</a>
</g>
</g>
<!-- Node3 -->
<g id="Node000003" class="node">
<title>Node3</title>
<g id="a_Node000003"><a xlink:href="IAssetManager_8hpp.html" target="_top" xlink:title=" ">
<polygon fill="white" stroke="#666666" points="169.75,-77.5 0,-77.5 0,-56.75 169.75,-56.75 169.75,-77.5"/>
<text text-anchor="middle" x="84.88" y="-64" font-family="Helvetica,sans-Serif" font-size="10.00">Utils/Assets/IAssetManager.hpp</text>
</a>
</g>
</g>
<!-- Node2&#45;&gt;Node3 -->
<g id="edge2_Node000002_Node000003" class="edge">
<title>Node2&#45;&gt;Node3</title>
<g id="a_edge2_Node000002_Node000003"><a xlink:title=" ">
<path fill="none" stroke="#63b8ff" d="M193.28,-113.09C172.53,-104.48 142.1,-91.86 118.76,-82.18"/>
<polygon fill="#63b8ff" stroke="#63b8ff" points="120.25,-79.01 109.67,-78.41 117.56,-85.47 120.25,-79.01"/>
</a>
</g>
</g>
<!-- Node5 -->
<g id="Node000005" class="node">
<title>Node5</title>
<g id="a_Node000005"><a xlink:title=" ">
<polygon fill="#e0e0e0" stroke="#999999" points="245.5,-77.5 188.25,-77.5 188.25,-56.75 245.5,-56.75 245.5,-77.5"/>
<text text-anchor="middle" x="216.88" y="-64" font-family="Helvetica,sans-Serif" font-size="10.00">memory</text>
</a>
</g>
</g>
<!-- Node2&#45;&gt;Node5 -->
<g id="edge4_Node000002_Node000005" class="edge">
<title>Node2&#45;&gt;Node5</title>
<g id="a_edge4_Node000002_Node000005"><a xlink:title=" ">
<path fill="none" stroke="#63b8ff" d="M216.88,-113.09C216.88,-106.47 216.88,-97.47 216.88,-89.27"/>
<polygon fill="#63b8ff" stroke="#63b8ff" points="220.38,-89.34 216.88,-79.34 213.38,-89.34 220.38,-89.34"/>
</a>
</g>
</g>
<!-- Node6 -->
<g id="Node000006" class="node">
<title>Node6</title>
<g id="a_Node000006"><a xlink:title=" ">
<polygon fill="#e0e0e0" stroke="#999999" points="310.62,-77.5 263.12,-77.5 263.12,-56.75 310.62,-56.75 310.62,-77.5"/>
<text text-anchor="middle" x="286.88" y="-64" font-family="Helvetica,sans-Serif" font-size="10.00">mutex</text>
</a>
</g>
</g>
<!-- Node2&#45;&gt;Node6 -->
<g id="edge5_Node000002_Node000006" class="edge">
<title>Node2&#45;&gt;Node6</title>
<g id="a_edge5_Node000002_Node000006"><a xlink:title=" ">
<path fill="none" stroke="#63b8ff" d="M229.39,-113.09C239.44,-105.22 253.79,-94 265.63,-84.74"/>
<polygon fill="#63b8ff" stroke="#63b8ff" points="267.56,-87.68 273.28,-78.76 263.24,-82.16 267.56,-87.68"/>
</a>
</g>
</g>
<!-- Node4 -->
<g id="Node000004" class="node">
<title>Node4</title>
<g id="a_Node000004"><a xlink:title=" ">
<polygon fill="#e0e0e0" stroke="#999999" points="118.38,-20.75 51.38,-20.75 51.38,0 118.38,0 118.38,-20.75"/>
<text text-anchor="middle" x="84.88" y="-7.25" font-family="Helvetica,sans-Serif" font-size="10.00">filesystem</text>
</a>
</g>
</g>
<!-- Node3&#45;&gt;Node4 -->
<g id="edge3_Node000003_Node000004" class="edge">
<title>Node3&#45;&gt;Node4</title>
<g id="a_edge3_Node000003_Node000004"><a xlink:title=" ">
<path fill="none" stroke="#63b8ff" d="M84.88,-56.34C84.88,-49.72 84.88,-40.72 84.88,-32.52"/>
<polygon fill="#63b8ff" stroke="#63b8ff" points="88.38,-32.59 84.88,-22.59 81.38,-32.59 88.38,-32.59"/>
</a>
</g>
</g>
</g>
</svg>
