<?xml version="1.0" encoding="UTF-8" standalone="no"?>
<!DOCTYPE svg PUBLIC "-//W3C//DTD SVG 1.1//EN"
 "http://www.w3.org/Graphics/SVG/1.1/DTD/svg11.dtd">
<!-- Generated by graphviz version 12.2.1 (0)
 -->
<!-- Title: nixoncpp::utils::UtilsFactory::createFullContext Pages: 1 -->
<svg width="1004pt" height="458pt"
 viewBox="0.00 0.00 1003.75 457.71" xmlns="http://www.w3.org/2000/svg" xmlns:xlink="http://www.w3.org/1999/xlink">
<g id="graph0" class="graph" transform="scale(1 1) rotate(0) translate(4 453.71)">
<title>nixoncpp::utils::UtilsFactory::createFullContext</title>
<!-- Node1 -->
<g id="Node000001" class="node">
<title>Node1</title>
<g id="a_Node000001"><a xlink:title="Create full application context with all components.">
<polygon fill="#999999" stroke="#666666" points="150.25,-263.5 0,-263.5 0,-230 150.25,-230 150.25,-263.5"/>
<text text-anchor="start" x="8" y="-250" font-family="Helvetica,sans-Serif" font-size="10.00">nixoncpp::utils::UtilsFactory</text>
<text text-anchor="middle" x="75.12" y="-237.25" font-family="Helvetica,sans-Serif" font-size="10.00">::createFullContext</text>
</a>
</g>
</g>
<!-- Node2 -->
<g id="Node000002" class="node">
<title>Node2</title>
<g id="a_Node000002"><a xlink:href="classnixoncpp_1_1utils_1_1UtilsFactory.html#a6e7781b6db8c887f84c08609c72cee9b" target="_top" xlink:title=" ">
<polygon fill="white" stroke="#666666" points="553.88,-422.5 403.62,-422.5 403.62,-389 553.88,-389 553.88,-422.5"/>
<text text-anchor="start" x="411.62" y="-409" font-family="Helvetica,sans-Serif" font-size="10.00">nixoncpp::utils::UtilsFactory</text>
<text text-anchor="middle" x="478.75" y="-396.25" font-family="Helvetica,sans-Serif" font-size="10.00">::createAssetManager</text>
</a>
</g>
</g>
<!-- Node1&#45;&gt;Node2 -->
<g id="edge1_Node000001_Node000002" class="edge">
<title>Node1&#45;&gt;Node2</title>
<g id="a_edge1_Node000001_Node000002"><a xlink:title=" ">
<path fill="none" stroke="#63b8ff" d="M80.56,-263.87C91.32,-301.37 122.71,-390.24 186.25,-425.75 259.98,-466.95 361.11,-446.1 422.81,-426.48"/>
<polygon fill="#63b8ff" stroke="#63b8ff" points="423.64,-429.89 432.05,-423.45 421.45,-423.24 423.64,-429.89"/>
</a>
</g>
</g>
<!-- Node5 -->
<g id="Node000005" class="node">
<title>Node5</title>
<g id="a_Node000005"><a xlink:href="classnixoncpp_1_1utils_1_1UtilsFactory.html#a5d58ef900c1db80a1d196a271d26b6e4" target="_top" xlink:title=" ">
<polygon fill="white" stroke="#666666" points="343.25,-416.5 186.25,-416.5 186.25,-383 343.25,-383 343.25,-416.5"/>
<text text-anchor="start" x="194.25" y="-403" font-family="Helvetica,sans-Serif" font-size="10.00">nixoncpp::utils::UtilsFactory</text>
<text text-anchor="middle" x="264.75" y="-390.25" font-family="Helvetica,sans-Serif" font-size="10.00">::createCustomStringsLoader</text>
</a>
</g>
</g>
<!-- Node1&#45;&gt;Node5 -->
<g id="edge4_Node000001_Node000005" class="edge">
<title>Node1&#45;&gt;Node5</title>
<g id="a_edge4_Node000001_Node000005"><a xlink:title=" ">
<path fill="none" stroke="#63b8ff" d="M87.73,-264C105.96,-289.93 143.64,-339.06 186.25,-368.75 190.89,-371.98 195.91,-374.95 201.09,-377.65"/>
<polygon fill="#63b8ff" stroke="#63b8ff" points="199.31,-380.68 209.84,-381.88 202.36,-374.38 199.31,-380.68"/>
</a>
</g>
</g>
<!-- Node6 -->
<g id="Node000006" class="node">
<title>Node6</title>
<g id="a_Node000006"><a xlink:href="classnixoncpp_1_1utils_1_1UtilsFactory.html#ac89ae32784dcc62839c88a8e99c50f7c" target="_top" xlink:title=" ">
<polygon fill="white" stroke="#666666" points="553.88,-329.5 403.62,-329.5 403.62,-296 553.88,-296 553.88,-329.5"/>
<text text-anchor="start" x="411.62" y="-316" font-family="Helvetica,sans-Serif" font-size="10.00">nixoncpp::utils::UtilsFactory</text>
<text text-anchor="middle" x="478.75" y="-303.25" font-family="Helvetica,sans-Serif" font-size="10.00">::createJsonSerializer</text>
</a>
</g>
</g>
<!-- Node1&#45;&gt;Node6 -->
<g id="edge12_Node000001_Node000006" class="edge">
<title>Node1&#45;&gt;Node6</title>
<g id="a_edge12_Node000001_Node000006"><a xlink:title=" ">
<path fill="none" stroke="#63b8ff" d="M119.7,-263.91C139.69,-271.12 163.87,-278.94 186.25,-283.75 254.54,-298.42 333.46,-305.7 391.94,-309.29"/>
<polygon fill="#63b8ff" stroke="#63b8ff" points="391.66,-312.78 401.85,-309.87 392.07,-305.79 391.66,-312.78"/>
</a>
</g>
</g>
<!-- Node7 -->
<g id="Node000007" class="node">
<title>Node7</title>
<g id="a_Node000007"><a xlink:href="classnixoncpp_1_1utils_1_1UtilsFactory.html#a898645cce10d377a7586d12c3fdb6e93" target="_top" xlink:title=" ">
<polygon fill="white" stroke="#666666" points="775.75,-362.5 625.5,-362.5 625.5,-329 775.75,-329 775.75,-362.5"/>
<text text-anchor="start" x="633.5" y="-349" font-family="Helvetica,sans-Serif" font-size="10.00">nixoncpp::utils::UtilsFactory</text>
<text text-anchor="middle" x="700.62" y="-336.25" font-family="Helvetica,sans-Serif" font-size="10.00">::createFileReader</text>
</a>
</g>
</g>
<!-- Node1&#45;&gt;Node7 -->
<g id="edge10_Node000001_Node000007" class="edge">
<title>Node1&#45;&gt;Node7</title>
<g id="a_edge10_Node000001_Node000007"><a xlink:title=" ">
<path fill="none" stroke="#63b8ff" d="M100.28,-263.73C121.82,-278.02 154.74,-297.83 186.25,-308.75 330.1,-358.58 509.85,-358.48 614.01,-352.83"/>
<polygon fill="#63b8ff" stroke="#63b8ff" points="614.1,-356.33 623.89,-352.26 613.7,-349.34 614.1,-356.33"/>
</a>
</g>
</g>
<!-- Node8 -->
<g id="Node000008" class="node">
<title>Node8</title>
<g id="a_Node000008"><a xlink:href="classnixoncpp_1_1utils_1_1UtilsFactory.html#a1315826b061bc911c58a3bca701ef5f0" target="_top" xlink:title=" ">
<polygon fill="white" stroke="#666666" points="775.75,-293.5 625.5,-293.5 625.5,-260 775.75,-260 775.75,-293.5"/>
<text text-anchor="start" x="633.5" y="-280" font-family="Helvetica,sans-Serif" font-size="10.00">nixoncpp::utils::UtilsFactory</text>
<text text-anchor="middle" x="700.62" y="-267.25" font-family="Helvetica,sans-Serif" font-size="10.00">::createFileWriter</text>
</a>
</g>
</g>
<!-- Node1&#45;&gt;Node8 -->
<g id="edge11_Node000001_Node000008" class="edge">
<title>Node1&#45;&gt;Node8</title>
<g id="a_edge11_Node000001_Node000008"><a xlink:title=" ">
<path fill="none" stroke="#63b8ff" d="M150.71,-250.34C267.16,-255.94 491.49,-266.74 614.24,-272.64"/>
<polygon fill="#63b8ff" stroke="#63b8ff" points="613.77,-276.12 623.92,-273.11 614.1,-269.13 613.77,-276.12"/>
</a>
</g>
</g>
<!-- Node9 -->
<g id="Node000009" class="node">
<title>Node9</title>
<g id="a_Node000009"><a xlink:href="classnixoncpp_1_1utils_1_1UtilsFactory.html#ad6f07ec37707abf581796c46ee56211d" target="_top" xlink:title=" ">
<polygon fill="white" stroke="#666666" points="339.88,-241.5 189.62,-241.5 189.62,-208 339.88,-208 339.88,-241.5"/>
<text text-anchor="start" x="197.62" y="-228" font-family="Helvetica,sans-Serif" font-size="10.00">nixoncpp::utils::UtilsFactory</text>
<text text-anchor="middle" x="264.75" y="-215.25" font-family="Helvetica,sans-Serif" font-size="10.00">::createDirectoryManager</text>
</a>
</g>
</g>
<!-- Node1&#45;&gt;Node9 -->
<g id="edge9_Node000001_Node000009" class="edge">
<title>Node1&#45;&gt;Node9</title>
<g id="a_edge9_Node000001_Node000009"><a xlink:title=" ">
<path fill="none" stroke="#63b8ff" d="M150.55,-238.02C159.64,-236.96 168.99,-235.86 178.23,-234.78"/>
<polygon fill="#63b8ff" stroke="#63b8ff" points="178.39,-238.28 187.91,-233.64 177.57,-231.33 178.39,-238.28"/>
</a>
</g>
</g>
<!-- Node10 -->
<g id="Node000010" class="node">
<title>Node10</title>
<g id="a_Node000010"><a xlink:href="classnixoncpp_1_1utils_1_1UtilsFactory.html#a25d60ab1ffddf4e84f9bfcf18d6cda5e" target="_top" xlink:title=" ">
<polygon fill="white" stroke="#666666" points="339.88,-189.5 189.62,-189.5 189.62,-156 339.88,-156 339.88,-189.5"/>
<text text-anchor="start" x="197.62" y="-176" font-family="Helvetica,sans-Serif" font-size="10.00">nixoncpp::utils::UtilsFactory</text>
<text text-anchor="middle" x="264.75" y="-163.25" font-family="Helvetica,sans-Serif" font-size="10.00">::createLogger</text>
</a>
</g>
</g>
<!-- Node1&#45;&gt;Node10 -->
<g id="edge13_Node000001_Node000010" class="edge">
<title>Node1&#45;&gt;Node10</title>
<g id="a_edge13_Node000001_Node000010"><a xlink:title=" ">
<path fill="none" stroke="#63b8ff" d="M113.25,-229.6C134.45,-220.06 161.63,-208.23 186.25,-198.75 190.65,-197.06 195.2,-195.37 199.81,-193.71"/>
<polygon fill="#63b8ff" stroke="#63b8ff" points="200.89,-197.04 209.16,-190.41 198.56,-190.44 200.89,-197.04"/>
</a>
</g>
</g>
<!-- Node14 -->
<g id="Node000014" class="node">
<title>Node14</title>
<g id="a_Node000014"><a xlink:href="classnixoncpp_1_1utils_1_1UtilsFactory.html#af57873fd9fa5b5a4b39925fc05966698" target="_top" xlink:title=" ">
<polygon fill="white" stroke="#666666" points="339.88,-137.5 189.62,-137.5 189.62,-104 339.88,-104 339.88,-137.5"/>
<text text-anchor="start" x="197.62" y="-124" font-family="Helvetica,sans-Serif" font-size="10.00">nixoncpp::utils::UtilsFactory</text>
<text text-anchor="middle" x="264.75" y="-111.25" font-family="Helvetica,sans-Serif" font-size="10.00">::createPathResolver</text>
</a>
</g>
</g>
<!-- Node1&#45;&gt;Node14 -->
<g id="edge17_Node000001_Node000014" class="edge">
<title>Node1&#45;&gt;Node14</title>
<g id="a_edge17_Node000001_Node000014"><a xlink:title=" ">
<path fill="none" stroke="#63b8ff" d="M90.85,-229.54C110.54,-207.51 147.49,-169.48 186.25,-146.75 188.71,-145.3 191.27,-143.93 193.89,-142.61"/>
<polygon fill="#63b8ff" stroke="#63b8ff" points="195.22,-145.85 202.85,-138.5 192.3,-139.49 195.22,-145.85"/>
</a>
</g>
</g>
<!-- Node15 -->
<g id="Node000015" class="node">
<title>Node15</title>
<g id="a_Node000015"><a xlink:href="classnixoncpp_1_1utils_1_1UtilsFactory.html#af9d36cfe688b1460dec5453b5d5c0f3e" target="_top" xlink:title=" ">
<polygon fill="white" stroke="#666666" points="339.88,-85.5 189.62,-85.5 189.62,-52 339.88,-52 339.88,-85.5"/>
<text text-anchor="start" x="197.62" y="-72" font-family="Helvetica,sans-Serif" font-size="10.00">nixoncpp::utils::UtilsFactory</text>
<text text-anchor="middle" x="264.75" y="-59.25" font-family="Helvetica,sans-Serif" font-size="10.00">::createPlatformInfo</text>
</a>
</g>
</g>
<!-- Node1&#45;&gt;Node15 -->
<g id="edge18_Node000001_Node000015" class="edge">
<title>Node1&#45;&gt;Node15</title>
<g id="a_edge18_Node000001_Node000015"><a xlink:title=" ">
<path fill="none" stroke="#63b8ff" d="M83.88,-229.95C99.1,-198.78 135.83,-131.8 186.25,-94.75 187.82,-93.59 189.45,-92.49 191.12,-91.43"/>
<polygon fill="#63b8ff" stroke="#63b8ff" points="192.75,-94.53 199.78,-86.6 189.34,-88.41 192.75,-94.53"/>
</a>
</g>
</g>
<!-- Node17 -->
<g id="Node000017" class="node">
<title>Node17</title>
<g id="a_Node000017"><a xlink:href="classnixoncpp_1_1utils_1_1UtilsFactory.html#a99c58e956babbfc262186c1c0d3fd29e" target="_top" xlink:title=" ">
<polygon fill="white" stroke="#666666" points="339.88,-33.5 189.62,-33.5 189.62,0 339.88,0 339.88,-33.5"/>
<text text-anchor="start" x="197.62" y="-20" font-family="Helvetica,sans-Serif" font-size="10.00">nixoncpp::utils::UtilsFactory</text>
<text text-anchor="middle" x="264.75" y="-7.25" font-family="Helvetica,sans-Serif" font-size="10.00">::createStringFormatter</text>
</a>
</g>
</g>
<!-- Node1&#45;&gt;Node17 -->
<g id="edge20_Node000001_Node000017" class="edge">
<title>Node1&#45;&gt;Node17</title>
<g id="a_edge20_Node000001_Node000017"><a xlink:title=" ">
<path fill="none" stroke="#63b8ff" d="M80.62,-229.76C91.77,-190.9 124.36,-94.85 186.25,-42.75 187.38,-41.8 188.55,-40.88 189.74,-40"/>
<polygon fill="#63b8ff" stroke="#63b8ff" points="191.6,-42.97 198.18,-34.66 187.86,-37.05 191.6,-42.97"/>
</a>
</g>
</g>
<!-- Node3 -->
<g id="Node000003" class="node">
<title>Node3</title>
<g id="a_Node000003"><a xlink:href="classnixoncpp_1_1assets_1_1AssetManagerFactory.html#a534dac197c8ab46bca337cbc7162371b" target="_top" xlink:title="Create a Default object.">
<polygon fill="white" stroke="#666666" points="787,-422.5 614.25,-422.5 614.25,-389 787,-389 787,-422.5"/>
<text text-anchor="start" x="622.25" y="-409" font-family="Helvetica,sans-Serif" font-size="10.00">nixoncpp::assets::AssetManager</text>
<text text-anchor="middle" x="700.62" y="-396.25" font-family="Helvetica,sans-Serif" font-size="10.00">Factory::createDefault</text>
</a>
</g>
</g>
<!-- Node2&#45;&gt;Node3 -->
<g id="edge2_Node000002_Node000003" class="edge">
<title>Node2&#45;&gt;Node3</title>
<g id="a_edge2_Node000002_Node000003"><a xlink:title=" ">
<path fill="none" stroke="#63b8ff" d="M554.19,-405.75C569.78,-405.75 586.43,-405.75 602.7,-405.75"/>
<polygon fill="#63b8ff" stroke="#63b8ff" points="602.37,-409.25 612.37,-405.75 602.37,-402.25 602.37,-409.25"/>
</a>
</g>
</g>
<!-- Node4 -->
<g id="Node000004" class="node">
<title>Node4</title>
<g id="a_Node000004"><a xlink:href="classnixoncpp_1_1assets_1_1AssetManager.html#a9778c797417b17b62b8f1135ca613cd3" target="_top" xlink:title="Create a new Asset Manager instance.">
<polygon fill="white" stroke="#666666" points="995.75,-422.5 823,-422.5 823,-389 995.75,-389 995.75,-422.5"/>
<text text-anchor="start" x="831" y="-409" font-family="Helvetica,sans-Serif" font-size="10.00">nixoncpp::assets::AssetManager</text>
<text text-anchor="middle" x="909.38" y="-396.25" font-family="Helvetica,sans-Serif" font-size="10.00">::create</text>
</a>
</g>
</g>
<!-- Node3&#45;&gt;Node4 -->
<g id="edge3_Node000003_Node000004" class="edge">
<title>Node3&#45;&gt;Node4</title>
<g id="a_edge3_Node000003_Node000004"><a xlink:title=" ">
<path fill="none" stroke="#63b8ff" d="M787.21,-405.75C795.14,-405.75 803.21,-405.75 811.23,-405.75"/>
<polygon fill="#63b8ff" stroke="#63b8ff" points="811.01,-409.25 821.01,-405.75 811.01,-402.25 811.01,-409.25"/>
</a>
</g>
</g>
<!-- Node5&#45;&gt;Node2 -->
<g id="edge5_Node000005_Node000002" class="edge">
<title>Node5&#45;&gt;Node2</title>
<g id="a_edge5_Node000005_Node000002"><a xlink:title=" ">
<path fill="none" stroke="#63b8ff" d="M343.49,-401.95C359.18,-402.39 375.76,-402.86 391.71,-403.32"/>
<polygon fill="#63b8ff" stroke="#63b8ff" points="391.59,-406.81 401.69,-403.6 391.79,-399.82 391.59,-406.81"/>
</a>
</g>
</g>
<!-- Node5&#45;&gt;Node6 -->
<g id="edge6_Node000005_Node000006" class="edge">
<title>Node5&#45;&gt;Node6</title>
<g id="a_edge6_Node000005_Node000006"><a xlink:title=" ">
<path fill="none" stroke="#63b8ff" d="M307.63,-382.56C341.46,-368.68 389.24,-349.07 425.56,-334.17"/>
<polygon fill="#63b8ff" stroke="#63b8ff" points="426.63,-337.51 434.55,-330.48 423.97,-331.04 426.63,-337.51"/>
</a>
</g>
</g>
<!-- Node6&#45;&gt;Node7 -->
<g id="edge7_Node000006_Node000007" class="edge">
<title>Node6&#45;&gt;Node7</title>
<g id="a_edge7_Node000006_Node000007"><a xlink:title=" ">
<path fill="none" stroke="#63b8ff" d="M554.19,-323.92C573.44,-326.81 594.32,-329.95 614.09,-332.91"/>
<polygon fill="#63b8ff" stroke="#63b8ff" points="613.36,-336.34 623.77,-334.36 614.4,-329.42 613.36,-336.34"/>
</a>
</g>
</g>
<!-- Node6&#45;&gt;Node8 -->
<g id="edge8_Node000006_Node000008" class="edge">
<title>Node6&#45;&gt;Node8</title>
<g id="a_edge8_Node000006_Node000008"><a xlink:title=" ">
<path fill="none" stroke="#63b8ff" d="M554.19,-300.56C573.44,-297.41 594.32,-293.99 614.09,-290.75"/>
<polygon fill="#63b8ff" stroke="#63b8ff" points="614.47,-294.24 623.77,-289.17 613.33,-287.33 614.47,-294.24"/>
</a>
</g>
</g>
<!-- Node11 -->
<g id="Node000011" class="node">
<title>Node11</title>
<g id="a_Node000011"><a xlink:href="classnixoncpp_1_1logging_1_1LoggerFactory.html#a9a38b177b191b1ab4182363e93dd222b" target="_top" xlink:title="Create a logger instance based on the specified type and configuration.">
<polygon fill="white" stroke="#666666" points="538.88,-189.5 418.62,-189.5 418.62,-156 538.88,-156 538.88,-189.5"/>
<text text-anchor="start" x="426.62" y="-176" font-family="Helvetica,sans-Serif" font-size="10.00">nixoncpp::logging::</text>
<text text-anchor="middle" x="478.75" y="-163.25" font-family="Helvetica,sans-Serif" font-size="10.00">LoggerFactory::create</text>
</a>
</g>
</g>
<!-- Node10&#45;&gt;Node11 -->
<g id="edge14_Node000010_Node000011" class="edge">
<title>Node10&#45;&gt;Node11</title>
<g id="a_edge14_Node000010_Node000011"><a xlink:title=" ">
<path fill="none" stroke="#63b8ff" d="M340.2,-172.75C361.84,-172.75 385.41,-172.75 406.83,-172.75"/>
<polygon fill="#63b8ff" stroke="#63b8ff" points="406.63,-176.25 416.63,-172.75 406.63,-169.25 406.63,-176.25"/>
</a>
</g>
</g>
<!-- Node12 -->
<g id="Node000012" class="node">
<title>Node12</title>
<g id="a_Node000012"><a xlink:href="classnixoncpp_1_1logging_1_1LoggerFactory.html#a26cfce0d7f5386a37884a93178910b85" target="_top" xlink:title="Create a Console object logger.">
<polygon fill="white" stroke="#666666" points="780.25,-163.5 621,-163.5 621,-130 780.25,-130 780.25,-163.5"/>
<text text-anchor="start" x="629" y="-150" font-family="Helvetica,sans-Serif" font-size="10.00">nixoncpp::logging::</text>
<text text-anchor="middle" x="700.62" y="-137.25" font-family="Helvetica,sans-Serif" font-size="10.00">LoggerFactory::createConsole</text>
</a>
</g>
</g>
<!-- Node11&#45;&gt;Node12 -->
<g id="edge15_Node000011_Node000012" class="edge">
<title>Node11&#45;&gt;Node12</title>
<g id="a_edge15_Node000011_Node000012"><a xlink:title=" ">
<path fill="none" stroke="#63b8ff" d="M539.25,-165.71C560.88,-163.16 585.84,-160.21 609.52,-157.4"/>
<polygon fill="#63b8ff" stroke="#63b8ff" points="609.64,-160.92 619.16,-156.27 608.81,-153.96 609.64,-160.92"/>
</a>
</g>
</g>
<!-- Node13 -->
<g id="Node000013" class="node">
<title>Node13</title>
<g id="a_Node000013"><a xlink:href="classnixoncpp_1_1logging_1_1LoggerFactory.html#a155dca9a6066e9729f9237e7d02c2d4e" target="_top" xlink:title="Create a Null object logger.">
<polygon fill="white" stroke="#666666" points="770.5,-215.5 630.75,-215.5 630.75,-182 770.5,-182 770.5,-215.5"/>
<text text-anchor="start" x="638.75" y="-202" font-family="Helvetica,sans-Serif" font-size="10.00">nixoncpp::logging::</text>
<text text-anchor="middle" x="700.62" y="-189.25" font-family="Helvetica,sans-Serif" font-size="10.00">LoggerFactory::createNull</text>
</a>
</g>
</g>
<!-- Node11&#45;&gt;Node13 -->
<g id="edge16_Node000011_Node000013" class="edge">
<title>Node11&#45;&gt;Node13</title>
<g id="a_edge16_Node000011_Node000013"><a xlink:title=" ">
<path fill="none" stroke="#63b8ff" d="M539.25,-179.79C563.85,-182.69 592.74,-186.11 619.17,-189.24"/>
<polygon fill="#63b8ff" stroke="#63b8ff" points="618.49,-192.68 628.83,-190.38 619.31,-185.73 618.49,-192.68"/>
</a>
</g>
</g>
<!-- Node16 -->
<g id="Node000016" class="node">
<title>Node16</title>
<g id="a_Node000016"><a xlink:href="classnixoncpp_1_1utils_1_1PlatformInfoFactory.html#a0195da5938b4019fd41096c4e57a3c6a" target="_top" xlink:title=" ">
<polygon fill="white" stroke="#666666" points="578.25,-85.5 379.25,-85.5 379.25,-52 578.25,-52 578.25,-85.5"/>
<text text-anchor="start" x="387.25" y="-72" font-family="Helvetica,sans-Serif" font-size="10.00">nixoncpp::utils::Platform</text>
<text text-anchor="middle" x="478.75" y="-59.25" font-family="Helvetica,sans-Serif" font-size="10.00">InfoFactory::createForCurrentPlatform</text>
</a>
</g>
</g>
<!-- Node15&#45;&gt;Node16 -->
<g id="edge19_Node000015_Node000016" class="edge">
<title>Node15&#45;&gt;Node16</title>
<g id="a_edge19_Node000015_Node000016"><a xlink:title=" ">
<path fill="none" stroke="#63b8ff" d="M340.2,-68.75C349.1,-68.75 358.33,-68.75 367.61,-68.75"/>
<polygon fill="#63b8ff" stroke="#63b8ff" points="367.41,-72.25 377.41,-68.75 367.41,-65.25 367.41,-72.25"/>
</a>
</g>
</g>
</g>
</svg>
