<?xml version="1.0" encoding="UTF-8" standalone="no"?>
<!DOCTYPE svg PUBLIC "-//W3C//DTD SVG 1.1//EN"
 "http://www.w3.org/Graphics/SVG/1.1/DTD/svg11.dtd">
<!-- Generated by graphviz version 12.2.1 (0)
 -->
<!-- Title: nixoncpp::logging::LogStream Pages: 1 -->
<svg width="164pt" height="202pt"
 viewBox="0.00 0.00 164.00 201.75" xmlns="http://www.w3.org/2000/svg" xmlns:xlink="http://www.w3.org/1999/xlink">
<g id="graph0" class="graph" transform="scale(1 1) rotate(0) translate(4 197.75)">
<title>nixoncpp::logging::LogStream</title>
<!-- Node1 -->
<g id="Node000001" class="node">
<title>Node1</title>
<g id="a_Node000001"><a xlink:title="Helper class for streaming log messages.">
<polygon fill="#999999" stroke="none" points="156,-193.75 0,-193.75 0,0 156,0 156,-193.75"/>
<text text-anchor="start" x="32.25" y="-180.25" font-family="Helvetica,sans-Serif" font-size="10.00">nixoncpp::logging::</text>
<text text-anchor="start" x="51.75" y="-167.5" font-family="Helvetica,sans-Serif" font-size="10.00">LogStream</text>
<text text-anchor="start" x="76.5" y="-150.75" font-family="Helvetica,sans-Serif" font-size="10.00"> </text>
<text text-anchor="start" x="4" y="-134" font-family="Helvetica,sans-Serif" font-size="10.00">+</text>
<text text-anchor="start" x="16.25" y="-134" font-family="Helvetica,sans-Serif" font-size="10.00">LogStream(std::shared</text>
<text text-anchor="start" x="16.25" y="-121.25" font-family="Helvetica,sans-Serif" font-size="10.00">_ptr&lt; ILogger &gt; logger,</text>
<text text-anchor="start" x="16.25" y="-108.5" font-family="Helvetica,sans-Serif" font-size="10.00"> Level level, std::string</text>
<text text-anchor="start" x="16.25" y="-95.75" font-family="Helvetica,sans-Serif" font-size="10.00"> caller)</text>
<text text-anchor="start" x="4" y="-79" font-family="Helvetica,sans-Serif" font-size="10.00">+</text>
<text text-anchor="start" x="16.25" y="-79" font-family="Helvetica,sans-Serif" font-size="10.00">~LogStream()</text>
<text text-anchor="start" x="4" y="-62.25" font-family="Helvetica,sans-Serif" font-size="10.00">+</text>
<text text-anchor="start" x="16.25" y="-62.25" font-family="Helvetica,sans-Serif" font-size="10.00">LogStream &amp; operator</text>
<text text-anchor="start" x="16.25" y="-49.5" font-family="Helvetica,sans-Serif" font-size="10.00">&lt;&lt;(const T &amp;value)</text>
<text text-anchor="start" x="4" y="-32.75" font-family="Helvetica,sans-Serif" font-size="10.00">+</text>
<text text-anchor="start" x="16.25" y="-32.75" font-family="Helvetica,sans-Serif" font-size="10.00">LogStream &amp; operator</text>
<text text-anchor="start" x="16.25" y="-20" font-family="Helvetica,sans-Serif" font-size="10.00">&lt;&lt;(std::ostream &amp;(*manip)</text>
<text text-anchor="start" x="16.25" y="-7.25" font-family="Helvetica,sans-Serif" font-size="10.00">(std::ostream &amp;))</text>
<polygon fill="#666666" stroke="#666666" points="0,-162.25 0,-162.25 156,-162.25 156,-162.25 0,-162.25"/>
<polygon fill="#666666" stroke="#666666" points="0,-145.5 0,-145.5 156,-145.5 156,-145.5 0,-145.5"/>
<polygon fill="none" stroke="#666666" points="0,0 0,-193.75 156,-193.75 156,0 0,0"/>
</a>
</g>
</g>
</g>
</svg>
