<?xml version="1.0" encoding="UTF-8" standalone="no"?>
<!DOCTYPE svg PUBLIC "-//W3C//DTD SVG 1.1//EN"
 "http://www.w3.org/Graphics/SVG/1.1/DTD/svg11.dtd">
<!-- Generated by graphviz version 12.2.1 (0)
 -->
<!-- Title: nixoncpp::utils::FileReader::read Pages: 1 -->
<svg width="240pt" height="458pt"
 viewBox="0.00 0.00 239.50 457.75" xmlns="http://www.w3.org/2000/svg" xmlns:xlink="http://www.w3.org/1999/xlink">
<g id="graph0" class="graph" transform="scale(1 1) rotate(0) translate(4 453.75)">
<title>nixoncpp::utils::FileReader::read</title>
<!-- Node1 -->
<g id="Node000001" class="node">
<title>Node1</title>
<g id="a_Node000001"><a xlink:title="Read the entire content of a file as a string.">
<polygon fill="#999999" stroke="#666666" points="231.5,-241.12 87.25,-241.12 87.25,-207.62 231.5,-207.62 231.5,-241.12"/>
<text text-anchor="start" x="95.25" y="-227.62" font-family="Helvetica,sans-Serif" font-size="10.00">nixoncpp::utils::FileReader</text>
<text text-anchor="middle" x="159.38" y="-214.88" font-family="Helvetica,sans-Serif" font-size="10.00">::read</text>
</a>
</g>
</g>
<!-- Node2 -->
<g id="Node000002" class="node">
<title>Node2</title>
<g id="a_Node000002"><a xlink:href="FileReaderTest_8cpp.html#a8dca95bb6e515a28ed4746bea25769dd" target="_top" xlink:title=" ">
<polygon fill="white" stroke="#666666" points="51.25,-449.75 0,-449.75 0,-429 51.25,-429 51.25,-449.75"/>
<text text-anchor="middle" x="25.62" y="-436.25" font-family="Helvetica,sans-Serif" font-size="10.00">TEST_F</text>
</a>
</g>
</g>
<!-- Node1&#45;&gt;Node2 -->
<g id="edge1_Node000001_Node000002" class="edge">
<title>Node1&#45;&gt;Node2</title>
<g id="a_edge1_Node000001_Node000002"><a xlink:title=" ">
<path fill="none" stroke="#63b8ff" d="M147.35,-251.82C130.54,-291.54 95.72,-366.09 51.25,-419.38 48.5,-422.67 45.14,-425.82 41.79,-428.6"/>
<polygon fill="#63b8ff" stroke="#63b8ff" points="150.51,-253.34 151.12,-242.76 144.05,-250.65 150.51,-253.34"/>
</a>
</g>
</g>
<!-- Node3 -->
<g id="Node000003" class="node">
<title>Node3</title>
<g id="a_Node000003"><a xlink:href="FileReaderTest_8cpp.html#a3a8d1ccdb41d7b8fb2e4878bdc1da44d" target="_top" xlink:title=" ">
<polygon fill="white" stroke="#666666" points="51.25,-410.75 0,-410.75 0,-390 51.25,-390 51.25,-410.75"/>
<text text-anchor="middle" x="25.62" y="-397.25" font-family="Helvetica,sans-Serif" font-size="10.00">TEST_F</text>
</a>
</g>
</g>
<!-- Node1&#45;&gt;Node3 -->
<g id="edge2_Node000001_Node000003" class="edge">
<title>Node1&#45;&gt;Node3</title>
<g id="a_edge2_Node000001_Node000003"><a xlink:title=" ">
<path fill="none" stroke="#63b8ff" d="M143.23,-251.15C124.16,-283.65 89.25,-339.2 51.25,-380.38 48.26,-383.61 44.74,-386.78 41.3,-389.61"/>
<polygon fill="#63b8ff" stroke="#63b8ff" points="146.11,-253.18 148.1,-242.77 140.05,-249.66 146.11,-253.18"/>
</a>
</g>
</g>
<!-- Node4 -->
<g id="Node000004" class="node">
<title>Node4</title>
<g id="a_Node000004"><a xlink:href="FileReaderTest_8cpp.html#a6ec219668ac2d72be1abd31c931b757c" target="_top" xlink:title=" ">
<polygon fill="white" stroke="#666666" points="51.25,-371.75 0,-371.75 0,-351 51.25,-351 51.25,-371.75"/>
<text text-anchor="middle" x="25.62" y="-358.25" font-family="Helvetica,sans-Serif" font-size="10.00">TEST_F</text>
</a>
</g>
</g>
<!-- Node1&#45;&gt;Node4 -->
<g id="edge3_Node000001_Node000004" class="edge">
<title>Node1&#45;&gt;Node4</title>
<g id="a_edge3_Node000001_Node000004"><a xlink:title=" ">
<path fill="none" stroke="#63b8ff" d="M136.8,-250.05C115.86,-274.46 82.71,-311.73 51.25,-341.38 47.96,-344.47 44.26,-347.64 40.73,-350.51"/>
<polygon fill="#63b8ff" stroke="#63b8ff" points="139.4,-252.4 143.22,-242.52 134.07,-247.86 139.4,-252.4"/>
</a>
</g>
</g>
<!-- Node5 -->
<g id="Node000005" class="node">
<title>Node5</title>
<g id="a_Node000005"><a xlink:href="FileReaderTest_8cpp.html#ac59487bf69bed67b08d3fc878f3c351e" target="_top" xlink:title=" ">
<polygon fill="white" stroke="#666666" points="51.25,-332.75 0,-332.75 0,-312 51.25,-312 51.25,-332.75"/>
<text text-anchor="middle" x="25.62" y="-319.25" font-family="Helvetica,sans-Serif" font-size="10.00">TEST_F</text>
</a>
</g>
</g>
<!-- Node1&#45;&gt;Node5 -->
<g id="edge4_Node000001_Node000005" class="edge">
<title>Node1&#45;&gt;Node5</title>
<g id="a_edge4_Node000001_Node000005"><a xlink:title=" ">
<path fill="none" stroke="#63b8ff" d="M126.31,-248.22C99.18,-268.4 61.55,-296.39 41.16,-311.56"/>
<polygon fill="#63b8ff" stroke="#63b8ff" points="128.28,-251.13 134.21,-242.35 124.1,-245.51 128.28,-251.13"/>
</a>
</g>
</g>
<!-- Node6 -->
<g id="Node000006" class="node">
<title>Node6</title>
<g id="a_Node000006"><a xlink:href="FileReaderTest_8cpp.html#aa79ddde8af828aa891c0dcd1c9620dc1" target="_top" xlink:title=" ">
<polygon fill="white" stroke="#666666" points="51.25,-293.75 0,-293.75 0,-273 51.25,-273 51.25,-293.75"/>
<text text-anchor="middle" x="25.62" y="-280.25" font-family="Helvetica,sans-Serif" font-size="10.00">TEST_F</text>
</a>
</g>
</g>
<!-- Node1&#45;&gt;Node6 -->
<g id="edge5_Node000001_Node000006" class="edge">
<title>Node1&#45;&gt;Node6</title>
<g id="a_edge5_Node000001_Node000006"><a xlink:title=" ">
<path fill="none" stroke="#63b8ff" d="M109.67,-246.18C89.61,-255.17 67.27,-265.17 50.82,-272.54"/>
<polygon fill="#63b8ff" stroke="#63b8ff" points="110.84,-249.5 118.53,-242.22 107.97,-243.11 110.84,-249.5"/>
</a>
</g>
</g>
<!-- Node7 -->
<g id="Node000007" class="node">
<title>Node7</title>
<g id="a_Node000007"><a xlink:href="FileReaderTest_8cpp.html#ac54abd444b0514af6f9a47eed294e0cb" target="_top" xlink:title=" ">
<polygon fill="white" stroke="#666666" points="51.25,-254.75 0,-254.75 0,-234 51.25,-234 51.25,-254.75"/>
<text text-anchor="middle" x="25.62" y="-241.25" font-family="Helvetica,sans-Serif" font-size="10.00">TEST_F</text>
</a>
</g>
</g>
<!-- Node1&#45;&gt;Node7 -->
<g id="edge6_Node000001_Node000007" class="edge">
<title>Node1&#45;&gt;Node7</title>
<g id="a_edge6_Node000001_Node000007"><a xlink:title=" ">
<path fill="none" stroke="#63b8ff" d="M75.88,-236.9C67.16,-238.22 58.86,-239.48 51.64,-240.58"/>
<polygon fill="#63b8ff" stroke="#63b8ff" points="76.24,-240.38 85.61,-235.42 75.19,-233.46 76.24,-240.38"/>
</a>
</g>
</g>
<!-- Node8 -->
<g id="Node000008" class="node">
<title>Node8</title>
<g id="a_Node000008"><a xlink:href="FileReaderTest_8cpp.html#a52adc5c09466e11a5917019b29f1627b" target="_top" xlink:title=" ">
<polygon fill="white" stroke="#666666" points="51.25,-215.75 0,-215.75 0,-195 51.25,-195 51.25,-215.75"/>
<text text-anchor="middle" x="25.62" y="-202.25" font-family="Helvetica,sans-Serif" font-size="10.00">TEST_F</text>
</a>
</g>
</g>
<!-- Node1&#45;&gt;Node8 -->
<g id="edge7_Node000001_Node000008" class="edge">
<title>Node1&#45;&gt;Node8</title>
<g id="a_edge7_Node000001_Node000008"><a xlink:title=" ">
<path fill="none" stroke="#63b8ff" d="M75.88,-212.48C67.16,-211.22 58.86,-210.02 51.64,-208.98"/>
<polygon fill="#63b8ff" stroke="#63b8ff" points="75.21,-215.92 85.6,-213.88 76.21,-208.99 75.21,-215.92"/>
</a>
</g>
</g>
<!-- Node9 -->
<g id="Node000009" class="node">
<title>Node9</title>
<g id="a_Node000009"><a xlink:href="FileReaderTest_8cpp.html#a14c90d1ce716ee7ee5e179167f1d66c2" target="_top" xlink:title=" ">
<polygon fill="white" stroke="#666666" points="51.25,-176.75 0,-176.75 0,-156 51.25,-156 51.25,-176.75"/>
<text text-anchor="middle" x="25.62" y="-163.25" font-family="Helvetica,sans-Serif" font-size="10.00">TEST_F</text>
</a>
</g>
</g>
<!-- Node1&#45;&gt;Node9 -->
<g id="edge8_Node000001_Node000009" class="edge">
<title>Node1&#45;&gt;Node9</title>
<g id="a_edge8_Node000001_Node000009"><a xlink:title=" ">
<path fill="none" stroke="#63b8ff" d="M108.79,-202.55C89.01,-193.84 67.15,-184.21 50.95,-177.08"/>
<polygon fill="#63b8ff" stroke="#63b8ff" points="107.25,-205.69 117.82,-206.52 110.07,-199.29 107.25,-205.69"/>
</a>
</g>
</g>
<!-- Node10 -->
<g id="Node000010" class="node">
<title>Node10</title>
<g id="a_Node000010"><a xlink:href="FileReaderTest_8cpp.html#a27dbdc8d23757dfe3ecade5b5c94de4a" target="_top" xlink:title=" ">
<polygon fill="white" stroke="#666666" points="51.25,-137.75 0,-137.75 0,-117 51.25,-117 51.25,-137.75"/>
<text text-anchor="middle" x="25.62" y="-124.25" font-family="Helvetica,sans-Serif" font-size="10.00">TEST_F</text>
</a>
</g>
</g>
<!-- Node1&#45;&gt;Node10 -->
<g id="edge9_Node000001_Node000010" class="edge">
<title>Node1&#45;&gt;Node10</title>
<g id="a_edge9_Node000001_Node000010"><a xlink:title=" ">
<path fill="none" stroke="#63b8ff" d="M126,-200.54C98.86,-180.56 61.39,-152.97 41.09,-138.03"/>
<polygon fill="#63b8ff" stroke="#63b8ff" points="123.78,-203.25 133.91,-206.36 127.93,-197.61 123.78,-203.25"/>
</a>
</g>
</g>
<!-- Node11 -->
<g id="Node000011" class="node">
<title>Node11</title>
<g id="a_Node000011"><a xlink:href="FileReaderTest_8cpp.html#acd46f0f0d3c277efe60653eaa467e1ff" target="_top" xlink:title=" ">
<polygon fill="white" stroke="#666666" points="51.25,-98.75 0,-98.75 0,-78 51.25,-78 51.25,-98.75"/>
<text text-anchor="middle" x="25.62" y="-85.25" font-family="Helvetica,sans-Serif" font-size="10.00">TEST_F</text>
</a>
</g>
</g>
<!-- Node1&#45;&gt;Node11 -->
<g id="edge10_Node000001_Node000011" class="edge">
<title>Node1&#45;&gt;Node11</title>
<g id="a_edge10_Node000001_Node000011"><a xlink:title=" ">
<path fill="none" stroke="#63b8ff" d="M136.41,-198.53C115.42,-174.34 82.45,-137.65 51.25,-108.38 47.88,-105.21 44.07,-101.97 40.47,-99.04"/>
<polygon fill="#63b8ff" stroke="#63b8ff" points="133.67,-200.71 142.85,-206 138.97,-196.14 133.67,-200.71"/>
</a>
</g>
</g>
<!-- Node12 -->
<g id="Node000012" class="node">
<title>Node12</title>
<g id="a_Node000012"><a xlink:href="FileReaderTest_8cpp.html#a3a075140b216f72757e5c0e6f218f46b" target="_top" xlink:title=" ">
<polygon fill="white" stroke="#666666" points="51.25,-59.75 0,-59.75 0,-39 51.25,-39 51.25,-59.75"/>
<text text-anchor="middle" x="25.62" y="-46.25" font-family="Helvetica,sans-Serif" font-size="10.00">TEST_F</text>
</a>
</g>
</g>
<!-- Node1&#45;&gt;Node12 -->
<g id="edge11_Node000001_Node000012" class="edge">
<title>Node1&#45;&gt;Node12</title>
<g id="a_edge11_Node000001_Node000012"><a xlink:title=" ">
<path fill="none" stroke="#63b8ff" d="M143.2,-197.78C124.09,-165.5 89.14,-110.32 51.25,-69.38 48.26,-66.14 44.73,-62.98 41.3,-60.15"/>
<polygon fill="#63b8ff" stroke="#63b8ff" points="140,-199.23 148.07,-206.1 146.04,-195.7 140,-199.23"/>
</a>
</g>
</g>
<!-- Node13 -->
<g id="Node000013" class="node">
<title>Node13</title>
<g id="a_Node000013"><a xlink:href="FileReaderTest_8cpp.html#a7c84d9f0899246617c7ee841a0fd42f5" target="_top" xlink:title=" ">
<polygon fill="white" stroke="#666666" points="51.25,-20.75 0,-20.75 0,0 51.25,0 51.25,-20.75"/>
<text text-anchor="middle" x="25.62" y="-7.25" font-family="Helvetica,sans-Serif" font-size="10.00">TEST_F</text>
</a>
</g>
</g>
<!-- Node1&#45;&gt;Node13 -->
<g id="edge12_Node000001_Node000013" class="edge">
<title>Node1&#45;&gt;Node13</title>
<g id="a_edge12_Node000001_Node000013"><a xlink:title=" ">
<path fill="none" stroke="#63b8ff" d="M147.19,-196.77C130.29,-157.19 95.49,-83.27 51.25,-30.38 48.49,-27.08 45.13,-23.94 41.79,-21.16"/>
<polygon fill="#63b8ff" stroke="#63b8ff" points="143.88,-197.94 150.98,-205.81 150.34,-195.23 143.88,-197.94"/>
</a>
</g>
</g>
</g>
</svg>
