<?xml version="1.0" encoding="UTF-8" standalone="no"?>
<!DOCTYPE svg PUBLIC "-//W3C//DTD SVG 1.1//EN"
 "http://www.w3.org/Graphics/SVG/1.1/DTD/svg11.dtd">
<!-- Generated by graphviz version 12.2.1 (0)
 -->
<!-- Title: ConsoleLogger::ConsoleLogger Pages: 1 -->
<svg width="376pt" height="146pt"
 viewBox="0.00 0.00 376.00 145.75" xmlns="http://www.w3.org/2000/svg" xmlns:xlink="http://www.w3.org/1999/xlink">
<g id="graph0" class="graph" transform="scale(1 1) rotate(0) translate(4 141.75)">
<title>ConsoleLogger::ConsoleLogger</title>
<!-- Node1 -->
<g id="Node000001" class="node">
<title>Node1</title>
<g id="a_Node000001"><a xlink:title=" ">
<polygon fill="#999999" stroke="#666666" points="368,-78.75 202,-78.75 202,-58 368,-58 368,-78.75"/>
<text text-anchor="middle" x="285" y="-65.25" font-family="Helvetica,sans-Serif" font-size="10.00">ConsoleLogger::ConsoleLogger</text>
</a>
</g>
</g>
<!-- Node2 -->
<g id="Node000002" class="node">
<title>Node2</title>
<g id="a_Node000002"><a xlink:href="classConsoleLogger.html#a861ef16d038d599c9ce3a22d2d0644ac" target="_top" xlink:title=" ">
<polygon fill="white" stroke="#666666" points="166,-137.75 0,-137.75 0,-117 166,-117 166,-137.75"/>
<text text-anchor="middle" x="83" y="-124.25" font-family="Helvetica,sans-Serif" font-size="10.00">ConsoleLogger::ConsoleLogger</text>
</a>
</g>
</g>
<!-- Node1&#45;&gt;Node2 -->
<g id="edge1_Node000001_Node000002" class="edge">
<title>Node1&#45;&gt;Node2</title>
<g id="a_edge1_Node000001_Node000002"><a xlink:title=" ">
<path fill="none" stroke="#63b8ff" d="M242.77,-82.9C220.23,-90.61 191.73,-100 166,-107.38 154.73,-110.61 142.5,-113.77 131,-116.59"/>
<polygon fill="#63b8ff" stroke="#63b8ff" points="243.9,-86.21 252.22,-79.64 241.62,-79.59 243.9,-86.21"/>
</a>
</g>
</g>
<!-- Node3 -->
<g id="Node000003" class="node">
<title>Node3</title>
<g id="a_Node000003"><a xlink:href="classConsoleLogger.html#aef5adf04fa11cfb6f1c8df808c4f9734" target="_top" xlink:title=" ">
<polygon fill="white" stroke="#666666" points="166,-98.75 0,-98.75 0,-78 166,-78 166,-98.75"/>
<text text-anchor="middle" x="83" y="-85.25" font-family="Helvetica,sans-Serif" font-size="10.00">ConsoleLogger::ConsoleLogger</text>
</a>
</g>
</g>
<!-- Node1&#45;&gt;Node3 -->
<g id="edge2_Node000001_Node000003" class="edge">
<title>Node1&#45;&gt;Node3</title>
<g id="a_edge2_Node000001_Node000003"><a xlink:title=" ">
<path fill="none" stroke="#63b8ff" d="M190.42,-77.73C182.34,-78.54 174.2,-79.36 166.22,-80.15"/>
<polygon fill="#63b8ff" stroke="#63b8ff" points="190.68,-81.22 200.28,-76.75 189.98,-74.26 190.68,-81.22"/>
</a>
</g>
</g>
<!-- Node4 -->
<g id="Node000004" class="node">
<title>Node4</title>
<g id="a_Node000004"><a xlink:href="classConsoleLogger.html#a1139c6c8d32dafaf463e68c1e3ab1554" target="_top" xlink:title=" ">
<polygon fill="white" stroke="#666666" points="154.75,-59.75 11.25,-59.75 11.25,-39 154.75,-39 154.75,-59.75"/>
<text text-anchor="middle" x="83" y="-46.25" font-family="Helvetica,sans-Serif" font-size="10.00">ConsoleLogger::operator=</text>
</a>
</g>
</g>
<!-- Node1&#45;&gt;Node4 -->
<g id="edge3_Node000001_Node000004" class="edge">
<title>Node1&#45;&gt;Node4</title>
<g id="a_edge3_Node000001_Node000004"><a xlink:title=" ">
<path fill="none" stroke="#63b8ff" d="M190.43,-59.49C178.53,-58.36 166.5,-57.21 155.03,-56.12"/>
<polygon fill="#63b8ff" stroke="#63b8ff" points="189.99,-62.96 200.28,-60.42 190.66,-55.99 189.99,-62.96"/>
</a>
</g>
</g>
<!-- Node5 -->
<g id="Node000005" class="node">
<title>Node5</title>
<g id="a_Node000005"><a xlink:href="classConsoleLogger.html#a8c773a671915651392234e88eebcd159" target="_top" xlink:title=" ">
<polygon fill="white" stroke="#666666" points="154.75,-20.75 11.25,-20.75 11.25,0 154.75,0 154.75,-20.75"/>
<text text-anchor="middle" x="83" y="-7.25" font-family="Helvetica,sans-Serif" font-size="10.00">ConsoleLogger::operator=</text>
</a>
</g>
</g>
<!-- Node1&#45;&gt;Node5 -->
<g id="edge4_Node000001_Node000005" class="edge">
<title>Node1&#45;&gt;Node5</title>
<g id="a_edge4_Node000001_Node000005"><a xlink:title=" ">
<path fill="none" stroke="#63b8ff" d="M241.81,-53.97C219.4,-46.53 191.34,-37.53 166,-30.38 154.72,-27.19 142.48,-24.04 130.99,-21.22"/>
<polygon fill="#63b8ff" stroke="#63b8ff" points="240.61,-57.26 251.2,-57.11 242.83,-50.62 240.61,-57.26"/>
</a>
</g>
</g>
</g>
</svg>
