<?xml version="1.0" encoding="UTF-8" standalone="no"?>
<!DOCTYPE svg PUBLIC "-//W3C//DTD SVG 1.1//EN"
 "http://www.w3.org/Graphics/SVG/1.1/DTD/svg11.dtd">
<!-- Generated by graphviz version 12.2.1 (0)
 -->
<!-- Title: ConsoleLogger::critical Pages: 1 -->
<svg width="851pt" height="118pt"
 viewBox="0.00 0.00 850.75 118.12" xmlns="http://www.w3.org/2000/svg" xmlns:xlink="http://www.w3.org/1999/xlink">
<g id="graph0" class="graph" transform="scale(1 1) rotate(0) translate(4 114.12)">
<title>ConsoleLogger::critical</title>
<!-- Node1 -->
<g id="Node000001" class="node">
<title>Node1</title>
<g id="a_Node000001"><a xlink:title="Log a critical message.">
<polygon fill="#999999" stroke="#666666" points="127,-72.12 0,-72.12 0,-51.38 127,-51.38 127,-72.12"/>
<text text-anchor="middle" x="63.5" y="-58.62" font-family="Helvetica,sans-Serif" font-size="10.00">ConsoleLogger::critical</text>
</a>
</g>
</g>
<!-- Node2 -->
<g id="Node000002" class="node">
<title>Node2</title>
<g id="a_Node000002"><a xlink:href="classConsoleLogger.html#a31696856245b018e9645c614683ba037" target="_top" xlink:title="Logs a message with a specified level to the console and optionally to a file.">
<polygon fill="white" stroke="#666666" points="272,-72.12 163,-72.12 163,-51.38 272,-51.38 272,-72.12"/>
<text text-anchor="middle" x="217.5" y="-58.62" font-family="Helvetica,sans-Serif" font-size="10.00">ConsoleLogger::log</text>
</a>
</g>
</g>
<!-- Node1&#45;&gt;Node2 -->
<g id="edge1_Node000001_Node000002" class="edge">
<title>Node1&#45;&gt;Node2</title>
<g id="a_edge1_Node000001_Node000002"><a xlink:title=" ">
<path fill="none" stroke="#63b8ff" d="M127.2,-61.75C135.11,-61.75 143.22,-61.75 151.18,-61.75"/>
<polygon fill="#63b8ff" stroke="#63b8ff" points="151.16,-65.25 161.16,-61.75 151.16,-58.25 151.16,-65.25"/>
</a>
</g>
</g>
<!-- Node3 -->
<g id="Node000003" class="node">
<title>Node3</title>
<g id="a_Node000003"><a xlink:href="classConsoleLogger.html#a5d533abe0114989d4997b6dabfe4687c" target="_top" xlink:title="Convert a logging level to its string representation.">
<polygon fill="white" stroke="#666666" points="465,-110.12 308,-110.12 308,-89.38 465,-89.38 465,-110.12"/>
<text text-anchor="middle" x="386.5" y="-96.62" font-family="Helvetica,sans-Serif" font-size="10.00">ConsoleLogger::levelToString</text>
</a>
</g>
</g>
<!-- Node2&#45;&gt;Node3 -->
<g id="edge2_Node000002_Node000003" class="edge">
<title>Node2&#45;&gt;Node3</title>
<g id="a_edge2_Node000002_Node000003"><a xlink:title=" ">
<path fill="none" stroke="#63b8ff" d="M265.91,-72.54C284.86,-76.85 306.88,-81.86 326.83,-86.4"/>
<polygon fill="#63b8ff" stroke="#63b8ff" points="325.97,-89.79 336.5,-88.6 327.52,-82.97 325.97,-89.79"/>
</a>
</g>
</g>
<!-- Node4 -->
<g id="Node000004" class="node">
<title>Node4</title>
<g id="a_Node000004"><a xlink:href="classConsoleLogger.html#a787b42f6e197b60908113326b9a048fa" target="_top" xlink:title="Reset the console color to default.">
<polygon fill="white" stroke="#666666" points="842.75,-55.5 685,-55.5 685,-22 842.75,-22 842.75,-55.5"/>
<text text-anchor="start" x="693" y="-42" font-family="Helvetica,sans-Serif" font-size="10.00">ConsoleLogger::resetConsole</text>
<text text-anchor="middle" x="763.88" y="-29.25" font-family="Helvetica,sans-Serif" font-size="10.00">Color</text>
</a>
</g>
</g>
<!-- Node2&#45;&gt;Node4 -->
<g id="edge3_Node000002_Node000004" class="edge">
<title>Node2&#45;&gt;Node4</title>
<g id="a_edge3_Node000002_Node000004"><a xlink:title=" ">
<path fill="none" stroke="#63b8ff" d="M272.19,-59.48C365.68,-55.53 559.26,-47.35 673.35,-42.53"/>
<polygon fill="#63b8ff" stroke="#63b8ff" points="673.46,-46.03 683.3,-42.11 673.16,-39.04 673.46,-46.03"/>
</a>
</g>
</g>
<!-- Node5 -->
<g id="Node000005" class="node">
<title>Node5</title>
<g id="a_Node000005"><a xlink:href="classConsoleLogger.html#a034b07dd5f02314f42f248eda08fe2b9" target="_top" xlink:title=" ">
<polygon fill="white" stroke="#666666" points="460.5,-33.5 312.5,-33.5 312.5,0 460.5,0 460.5,-33.5"/>
<text text-anchor="start" x="320.5" y="-20" font-family="Helvetica,sans-Serif" font-size="10.00">ConsoleLogger::setConsole</text>
<text text-anchor="middle" x="386.5" y="-7.25" font-family="Helvetica,sans-Serif" font-size="10.00">Color</text>
</a>
</g>
</g>
<!-- Node2&#45;&gt;Node5 -->
<g id="edge4_Node000002_Node000005" class="edge">
<title>Node2&#45;&gt;Node5</title>
<g id="a_edge4_Node000002_Node000005"><a xlink:title=" ">
<path fill="none" stroke="#63b8ff" d="M258.5,-50.97C274.16,-46.75 292.66,-41.77 310.62,-36.93"/>
<polygon fill="#63b8ff" stroke="#63b8ff" points="311.49,-40.32 320.24,-34.34 309.67,-33.56 311.49,-40.32"/>
</a>
</g>
</g>
<!-- Node6 -->
<g id="Node000006" class="node">
<title>Node6</title>
<g id="a_Node000006"><a xlink:href="classConsoleLogger.html#addb2587c7a7fe4e6c213f22f7db385c6" target="_top" xlink:title=" ">
<polygon fill="white" stroke="#666666" points="649,-33.5 501,-33.5 501,0 649,0 649,-33.5"/>
<text text-anchor="start" x="509" y="-20" font-family="Helvetica,sans-Serif" font-size="10.00">ConsoleLogger::setConsole</text>
<text text-anchor="middle" x="575" y="-7.25" font-family="Helvetica,sans-Serif" font-size="10.00">ColorUnix</text>
</a>
</g>
</g>
<!-- Node5&#45;&gt;Node6 -->
<g id="edge5_Node000005_Node000006" class="edge">
<title>Node5&#45;&gt;Node6</title>
<g id="a_edge5_Node000005_Node000006"><a xlink:title=" ">
<path fill="none" stroke="#63b8ff" d="M460.94,-16.75C470.22,-16.75 479.77,-16.75 489.2,-16.75"/>
<polygon fill="#63b8ff" stroke="#63b8ff" points="489.11,-20.25 499.11,-16.75 489.11,-13.25 489.11,-20.25"/>
</a>
</g>
</g>
<!-- Node6&#45;&gt;Node4 -->
<g id="edge6_Node000006_Node000004" class="edge">
<title>Node6&#45;&gt;Node4</title>
<g id="a_edge6_Node000006_Node000004"><a xlink:title=" ">
<path fill="none" stroke="#63b8ff" d="M649.32,-25.38C657.18,-26.31 665.23,-27.25 673.24,-28.2"/>
<polygon fill="#63b8ff" stroke="#63b8ff" points="672.68,-31.66 683.02,-29.35 673.5,-24.7 672.68,-31.66"/>
</a>
</g>
</g>
</g>
</svg>
