<?xml version="1.0" encoding="UTF-8" standalone="no"?>
<!DOCTYPE svg PUBLIC "-//W3C//DTD SVG 1.1//EN"
 "http://www.w3.org/Graphics/SVG/1.1/DTD/svg11.dtd">
<!-- Generated by graphviz version 12.2.1 (0)
 -->
<!-- Title: MockAssetManager Pages: 1 -->
<!--zoomable 588 -->

<svg id="main" version="1.1" xmlns="http://www.w3.org/2000/svg" xmlns:xlink="http://www.w3.org/1999/xlink" xml:space="preserve" onload="init(evt)">

<style type="text/css"><![CDATA[
.node, .edge {opacity: 0.7;}
.node.selected, .edge.selected {opacity: 1;}
.edge:hover path { stroke: red; }
.edge:hover polygon { stroke: red; fill: red; }
]]></style>

<defs>
  <circle id="rim" cx="0" cy="0" r="7"/>
  <circle id="rim2" cx="0" cy="0" r="3.5"/>
  <g id="zoomPlus">
    <use xlink:href="#rim" fill="#404040"><set attributeName="fill" to="#808080" begin="zoomplus.mouseover" end="zoomplus.mouseout"/></use>
    <path d="M-4,0h8M0,-4v8" fill="none" stroke="white" stroke-width="1.5" pointer-events="none"/>
  </g>
  <g id="zoomMin">
    <use xlink:href="#rim" fill="#404040"><set attributeName="fill" to="#808080" begin="zoomminus.mouseover" end="zoomminus.mouseout"/></use>
    <path d="M-4,0h8" fill="none" stroke="white" stroke-width="1.5" pointer-events="none"/>
  </g>
  <g id="arrowUp" transform="translate(30 24)">
    <use xlink:href="#rim"/>
    <path pointer-events="none" fill="none" stroke="white" stroke-width="1.5" d="M0,-3.0v7 M-2.5,-0.5L0,-3.0L2.5,-0.5"/>
  </g>
  <g id="arrowRight" transform="rotate(90) translate(36 -43)">
    <use xlink:href="#rim"/>
    <path pointer-events="none" fill="none" stroke="white" stroke-width="1.5" d="M0,-3.0v7 M-2.5,-0.5L0,-3.0L2.5,-0.5"/>
  </g>
  <g id="arrowDown" transform="rotate(180) translate(-30 -48)">
    <use xlink:href="#rim"/>
    <path pointer-events="none" fill="none" stroke="white" stroke-width="1.5" d="M0,-3.0v7 M-2.5,-0.5L0,-3.0L2.5,-0.5"/>
  </g>
  <g id="arrowLeft" transform="rotate(270) translate(-36 17)">
    <use xlink:href="#rim"/>
    <path pointer-events="none" fill="none" stroke="white" stroke-width="1.5" d="M0,-3.0v7 M-2.5,-0.5L0,-3.0L2.5,-0.5"/>
  </g>
  <g id="resetDef">
    <use xlink:href="#rim2" fill="#404040"><set attributeName="fill" to="#808080" begin="reset.mouseover" end="reset.mouseout"/></use>
  </g>
</defs>
<script type="application/ecmascript">
var viewWidth = 186;
var viewHeight = 588;
var sectionId = 'dynsection-0';
</script>
<script type="application/ecmascript" xlink:href="svg.min.js"/>
<svg id="graph" class="graph">
<g id="viewport">
<title>MockAssetManager</title>
<!-- Node1 -->
<g id="Node000001" class="node">
<title>Node1</title>
<g id="a_Node000001"><a xlink:title="Mock implementation of IAssetManager for testing.">
<polygon fill="#999999" stroke="none" points="177.75,-295 0,-295 0,0 177.75,0 177.75,-295"/>
<text text-anchor="start" x="40.88" y="-281.5" font-family="Helvetica,sans-Serif" font-size="10.00">MockAssetManager</text>
<text text-anchor="start" x="87.38" y="-264.75" font-family="Helvetica,sans-Serif" font-size="10.00"> </text>
<text text-anchor="start" x="4" y="-248" font-family="Helvetica,sans-Serif" font-size="10.00">+</text>
<text text-anchor="start" x="16.25" y="-248" font-family="Helvetica,sans-Serif" font-size="10.00">MockAssetManager(std</text>
<text text-anchor="start" x="16.25" y="-235.25" font-family="Helvetica,sans-Serif" font-size="10.00">::filesystem::path mockPath)</text>
<text text-anchor="start" x="4" y="-218.5" font-family="Helvetica,sans-Serif" font-size="10.00">+</text>
<text text-anchor="start" x="16.25" y="-218.5" font-family="Helvetica,sans-Serif" font-size="10.00">const std::filesystem</text>
<text text-anchor="start" x="16.25" y="-205.75" font-family="Helvetica,sans-Serif" font-size="10.00">::path &amp; getAssetsPath</text>
<text text-anchor="start" x="16.25" y="-193" font-family="Helvetica,sans-Serif" font-size="10.00">() const override</text>
<text text-anchor="start" x="4" y="-176.25" font-family="Helvetica,sans-Serif" font-size="10.00">+</text>
<text text-anchor="start" x="16.25" y="-176.25" font-family="Helvetica,sans-Serif" font-size="10.00">std::filesystem::path</text>
<text text-anchor="start" x="16.25" y="-163.5" font-family="Helvetica,sans-Serif" font-size="10.00"> resolveAsset(const std</text>
<text text-anchor="start" x="16.25" y="-150.75" font-family="Helvetica,sans-Serif" font-size="10.00">::filesystem::path &amp;relativePath)</text>
<text text-anchor="start" x="16.25" y="-138" font-family="Helvetica,sans-Serif" font-size="10.00"> const override</text>
<text text-anchor="start" x="4" y="-121.25" font-family="Helvetica,sans-Serif" font-size="10.00">+</text>
<text text-anchor="start" x="16.25" y="-121.25" font-family="Helvetica,sans-Serif" font-size="10.00">bool assetExists(const</text>
<text text-anchor="start" x="16.25" y="-108.5" font-family="Helvetica,sans-Serif" font-size="10.00"> std::filesystem::path</text>
<text text-anchor="start" x="16.25" y="-95.75" font-family="Helvetica,sans-Serif" font-size="10.00"> &amp;) const override</text>
<text text-anchor="start" x="4" y="-79" font-family="Helvetica,sans-Serif" font-size="10.00">+</text>
<text text-anchor="start" x="16.25" y="-79" font-family="Helvetica,sans-Serif" font-size="10.00">bool validate() const</text>
<text text-anchor="start" x="16.25" y="-66.25" font-family="Helvetica,sans-Serif" font-size="10.00"> override</text>
<text text-anchor="start" x="4" y="-49.5" font-family="Helvetica,sans-Serif" font-size="10.00">+</text>
<text text-anchor="start" x="16.25" y="-49.5" font-family="Helvetica,sans-Serif" font-size="10.00">void setMockExists</text>
<text text-anchor="start" x="16.25" y="-36.75" font-family="Helvetica,sans-Serif" font-size="10.00">(bool exists)</text>
<text text-anchor="start" x="4" y="-20" font-family="Helvetica,sans-Serif" font-size="10.00">+</text>
<text text-anchor="start" x="16.25" y="-20" font-family="Helvetica,sans-Serif" font-size="10.00">void setMockValid(bool</text>
<text text-anchor="start" x="16.25" y="-7.25" font-family="Helvetica,sans-Serif" font-size="10.00"> valid)</text>
<polygon fill="#666666" stroke="#666666" points="0,-276.25 0,-276.25 177.75,-276.25 177.75,-276.25 0,-276.25"/>
<polygon fill="#666666" stroke="#666666" points="0,-259.5 0,-259.5 177.75,-259.5 177.75,-259.5 0,-259.5"/>
<polygon fill="none" stroke="#666666" points="0,0 0,-295 177.75,-295 177.75,0 0,0"/>
</a>
</g>
</g>
<!-- Node2 -->
<g id="Node000002" class="node">
<title>Node2</title>
<g id="a_Node000002"><a xlink:href="classnixoncpp_1_1assets_1_1IAssetManager.html" target="_top" xlink:title=" ">
<polygon fill="white" stroke="none" points="174.38,-579.75 3.38,-579.75 3.38,-331 174.38,-331 174.38,-579.75"/>
<text text-anchor="start" x="30.38" y="-566.25" font-family="Helvetica,sans-Serif" font-size="10.00">nixoncpp::assets::IAsset</text>
<text text-anchor="start" x="67.5" y="-553.5" font-family="Helvetica,sans-Serif" font-size="10.00">Manager</text>
<text text-anchor="start" x="87.38" y="-536.75" font-family="Helvetica,sans-Serif" font-size="10.00"> </text>
<text text-anchor="start" x="7.38" y="-520" font-family="Helvetica,sans-Serif" font-size="10.00">+</text>
<text text-anchor="start" x="19.62" y="-520" font-family="Helvetica,sans-Serif" font-size="10.00">virtual ~IAssetManager</text>
<text text-anchor="start" x="19.62" y="-507.25" font-family="Helvetica,sans-Serif" font-size="10.00">()=default</text>
<text text-anchor="start" x="7.38" y="-490.5" font-family="Helvetica,sans-Serif" font-size="10.00">+</text>
<text text-anchor="start" x="19.62" y="-490.5" font-family="Helvetica,sans-Serif" font-size="10.00">virtual const std::</text>
<text text-anchor="start" x="19.62" y="-477.75" font-family="Helvetica,sans-Serif" font-size="10.00">filesystem::path &amp; getAssets</text>
<text text-anchor="start" x="19.62" y="-465" font-family="Helvetica,sans-Serif" font-size="10.00">Path() const =0</text>
<text text-anchor="start" x="7.38" y="-448.25" font-family="Helvetica,sans-Serif" font-size="10.00">+</text>
<text text-anchor="start" x="19.62" y="-448.25" font-family="Helvetica,sans-Serif" font-size="10.00">virtual std::filesystem</text>
<text text-anchor="start" x="19.62" y="-435.5" font-family="Helvetica,sans-Serif" font-size="10.00">::path resolveAsset(const</text>
<text text-anchor="start" x="19.62" y="-422.75" font-family="Helvetica,sans-Serif" font-size="10.00"> std::filesystem::path &amp;relative</text>
<text text-anchor="start" x="19.62" y="-410" font-family="Helvetica,sans-Serif" font-size="10.00">Path) const =0</text>
<text text-anchor="start" x="7.38" y="-393.25" font-family="Helvetica,sans-Serif" font-size="10.00">+</text>
<text text-anchor="start" x="19.62" y="-393.25" font-family="Helvetica,sans-Serif" font-size="10.00">virtual bool assetExists</text>
<text text-anchor="start" x="19.62" y="-380.5" font-family="Helvetica,sans-Serif" font-size="10.00">(const std::filesystem</text>
<text text-anchor="start" x="19.62" y="-367.75" font-family="Helvetica,sans-Serif" font-size="10.00">::path &amp;relativePath) const =0</text>
<text text-anchor="start" x="7.38" y="-351" font-family="Helvetica,sans-Serif" font-size="10.00">+</text>
<text text-anchor="start" x="19.62" y="-351" font-family="Helvetica,sans-Serif" font-size="10.00">virtual bool validate</text>
<text text-anchor="start" x="19.62" y="-338.25" font-family="Helvetica,sans-Serif" font-size="10.00">() const =0</text>
<polygon fill="#666666" stroke="#666666" points="3.38,-548.25 3.38,-548.25 174.38,-548.25 174.38,-548.25 3.38,-548.25"/>
<polygon fill="#666666" stroke="#666666" points="3.38,-531.5 3.38,-531.5 174.38,-531.5 174.38,-531.5 3.38,-531.5"/>
<polygon fill="none" stroke="#666666" points="3.38,-331 3.38,-579.75 174.38,-579.75 174.38,-331 3.38,-331"/>
</a>
</g>
</g>
<!-- Node2&#45;&gt;Node1 -->
<g id="edge1_Node000001_Node000002" class="edge">
<title>Node2&#45;&gt;Node1</title>
<g id="a_edge1_Node000001_Node000002"><a xlink:title=" ">
<path fill="none" stroke="#63b8ff" d="M88.88,-320.02C88.88,-311.71 88.88,-303.33 88.88,-294.98"/>
<polygon fill="none" stroke="#63b8ff" points="85.38,-319.77 88.88,-329.77 92.38,-319.77 85.38,-319.77"/>
</a>
</g>
</g>
</g>
</svg>

<g id="navigator" transform="translate(0 0)" fill="#404254">
  <rect fill="#f2f5e9" fill-opacity="0.5" stroke="#606060" stroke-width=".5" x="0" y="0" width="60" height="60"/>
  <use id="zoomplus" xlink:href="#zoomPlus" x="17" y="9" onmousedown="handleZoom(evt,'in')"/>
  <use id="zoomminus" xlink:href="#zoomMin" x="42" y="9" onmousedown="handleZoom(evt,'out')"/>
  <use id="reset" xlink:href="#resetDef" x="30" y="36" onmousedown="handleReset()"/>
   <use id="arrowup" xlink:href="#arrowUp" x="0" y="0" onmousedown="handlePan(0,-1)"/>
  <use id="arrowright" xlink:href="#arrowRight" x="0" y="0" onmousedown="handlePan(1,0)"/>
  <use id="arrowdown" xlink:href="#arrowDown" x="0" y="0" onmousedown="handlePan(0,1)"/>
  <use id="arrowleft" xlink:href="#arrowLeft" x="0" y="0" onmousedown="handlePan(-1,0)"/>
</g>
<svg viewBox="0 0 15 15" width="100%" height="30px" preserveAspectRatio="xMaxYMin meet">
 <g id="arrow_out" transform="scale(0.3 0.3)">
  <a xlink:href="classMockAssetManager__inherit__graph_org.svg" target="_base">
   <rect id="button" ry="5" rx="5" y="6" x="6" height="38" width="38"
        fill="#f2f5e9" fill-opacity="0.5" stroke="#606060" stroke-width="1.0"/>
   <path id="arrow"
     d="M 11.500037,31.436501 C 11.940474,20.09759 22.043105,11.32322 32.158766,21.979434 L 37.068811,17.246167 C 37.068811,17.246167 37.088388,32 37.088388,32 L 22.160133,31.978069 C 22.160133,31.978069 26.997745,27.140456 26.997745,27.140456 C 18.528582,18.264221 13.291696,25.230495 11.500037,31.436501 z"
     style="fill:#404040;"/>
  </a>
 </g>
</svg>

<style type='text/css'>
<![CDATA[
[data-mouse-over-selected='false'] { opacity: 0.7; }
[data-mouse-over-selected='true']  { opacity: 1.0; }
]]>
</style>
<script type="application/ecmascript"><![CDATA[
document.addEventListener('DOMContentLoaded', (event) => {
  highlightEdges();
  highlightAdjacentNodes();
});
]]></script>
</svg>
