<?xml version="1.0" encoding="UTF-8" standalone="no"?>
<!DOCTYPE svg PUBLIC "-//W3C//DTD SVG 1.1//EN"
 "http://www.w3.org/Graphics/SVG/1.1/DTD/svg11.dtd">
<!-- Generated by graphviz version 12.2.1 (0)
 -->
<!-- Title: ConsoleLogger::warning Pages: 1 -->
<svg width="857pt" height="118pt"
 viewBox="0.00 0.00 856.75 118.12" xmlns="http://www.w3.org/2000/svg" xmlns:xlink="http://www.w3.org/1999/xlink">
<g id="graph0" class="graph" transform="scale(1 1) rotate(0) translate(4 114.12)">
<title>ConsoleLogger::warning</title>
<!-- Node1 -->
<g id="Node000001" class="node">
<title>Node1</title>
<g id="a_Node000001"><a xlink:title="Log a warning message.">
<polygon fill="#999999" stroke="#666666" points="133,-72.12 0,-72.12 0,-51.38 133,-51.38 133,-72.12"/>
<text text-anchor="middle" x="66.5" y="-58.62" font-family="Helvetica,sans-Serif" font-size="10.00">ConsoleLogger::warning</text>
</a>
</g>
</g>
<!-- Node2 -->
<g id="Node000002" class="node">
<title>Node2</title>
<g id="a_Node000002"><a xlink:href="classConsoleLogger.html#a31696856245b018e9645c614683ba037" target="_top" xlink:title="Logs a message with a specified level to the console and optionally to a file.">
<polygon fill="white" stroke="#666666" points="278,-72.12 169,-72.12 169,-51.38 278,-51.38 278,-72.12"/>
<text text-anchor="middle" x="223.5" y="-58.62" font-family="Helvetica,sans-Serif" font-size="10.00">ConsoleLogger::log</text>
</a>
</g>
</g>
<!-- Node1&#45;&gt;Node2 -->
<g id="edge1_Node000001_Node000002" class="edge">
<title>Node1&#45;&gt;Node2</title>
<g id="a_edge1_Node000001_Node000002"><a xlink:title=" ">
<path fill="none" stroke="#63b8ff" d="M133.23,-61.75C141.31,-61.75 149.56,-61.75 157.62,-61.75"/>
<polygon fill="#63b8ff" stroke="#63b8ff" points="157.35,-65.25 167.35,-61.75 157.35,-58.25 157.35,-65.25"/>
</a>
</g>
</g>
<!-- Node3 -->
<g id="Node000003" class="node">
<title>Node3</title>
<g id="a_Node000003"><a xlink:href="classConsoleLogger.html#a5d533abe0114989d4997b6dabfe4687c" target="_top" xlink:title="Convert a logging level to its string representation.">
<polygon fill="white" stroke="#666666" points="471,-110.12 314,-110.12 314,-89.38 471,-89.38 471,-110.12"/>
<text text-anchor="middle" x="392.5" y="-96.62" font-family="Helvetica,sans-Serif" font-size="10.00">ConsoleLogger::levelToString</text>
</a>
</g>
</g>
<!-- Node2&#45;&gt;Node3 -->
<g id="edge2_Node000002_Node000003" class="edge">
<title>Node2&#45;&gt;Node3</title>
<g id="a_edge2_Node000002_Node000003"><a xlink:title=" ">
<path fill="none" stroke="#63b8ff" d="M271.91,-72.54C290.86,-76.85 312.88,-81.86 332.83,-86.4"/>
<polygon fill="#63b8ff" stroke="#63b8ff" points="331.97,-89.79 342.5,-88.6 333.52,-82.97 331.97,-89.79"/>
</a>
</g>
</g>
<!-- Node4 -->
<g id="Node000004" class="node">
<title>Node4</title>
<g id="a_Node000004"><a xlink:href="classConsoleLogger.html#a787b42f6e197b60908113326b9a048fa" target="_top" xlink:title="Reset the console color to default.">
<polygon fill="white" stroke="#666666" points="848.75,-55.5 691,-55.5 691,-22 848.75,-22 848.75,-55.5"/>
<text text-anchor="start" x="699" y="-42" font-family="Helvetica,sans-Serif" font-size="10.00">ConsoleLogger::resetConsole</text>
<text text-anchor="middle" x="769.88" y="-29.25" font-family="Helvetica,sans-Serif" font-size="10.00">Color</text>
</a>
</g>
</g>
<!-- Node2&#45;&gt;Node4 -->
<g id="edge3_Node000002_Node000004" class="edge">
<title>Node2&#45;&gt;Node4</title>
<g id="a_edge3_Node000002_Node000004"><a xlink:title=" ">
<path fill="none" stroke="#63b8ff" d="M278.19,-59.48C371.68,-55.53 565.26,-47.35 679.35,-42.53"/>
<polygon fill="#63b8ff" stroke="#63b8ff" points="679.46,-46.03 689.3,-42.11 679.16,-39.04 679.46,-46.03"/>
</a>
</g>
</g>
<!-- Node5 -->
<g id="Node000005" class="node">
<title>Node5</title>
<g id="a_Node000005"><a xlink:href="classConsoleLogger.html#a034b07dd5f02314f42f248eda08fe2b9" target="_top" xlink:title=" ">
<polygon fill="white" stroke="#666666" points="466.5,-33.5 318.5,-33.5 318.5,0 466.5,0 466.5,-33.5"/>
<text text-anchor="start" x="326.5" y="-20" font-family="Helvetica,sans-Serif" font-size="10.00">ConsoleLogger::setConsole</text>
<text text-anchor="middle" x="392.5" y="-7.25" font-family="Helvetica,sans-Serif" font-size="10.00">Color</text>
</a>
</g>
</g>
<!-- Node2&#45;&gt;Node5 -->
<g id="edge4_Node000002_Node000005" class="edge">
<title>Node2&#45;&gt;Node5</title>
<g id="a_edge4_Node000002_Node000005"><a xlink:title=" ">
<path fill="none" stroke="#63b8ff" d="M264.5,-50.97C280.16,-46.75 298.66,-41.77 316.62,-36.93"/>
<polygon fill="#63b8ff" stroke="#63b8ff" points="317.49,-40.32 326.24,-34.34 315.67,-33.56 317.49,-40.32"/>
</a>
</g>
</g>
<!-- Node6 -->
<g id="Node000006" class="node">
<title>Node6</title>
<g id="a_Node000006"><a xlink:href="classConsoleLogger.html#addb2587c7a7fe4e6c213f22f7db385c6" target="_top" xlink:title=" ">
<polygon fill="white" stroke="#666666" points="655,-33.5 507,-33.5 507,0 655,0 655,-33.5"/>
<text text-anchor="start" x="515" y="-20" font-family="Helvetica,sans-Serif" font-size="10.00">ConsoleLogger::setConsole</text>
<text text-anchor="middle" x="581" y="-7.25" font-family="Helvetica,sans-Serif" font-size="10.00">ColorUnix</text>
</a>
</g>
</g>
<!-- Node5&#45;&gt;Node6 -->
<g id="edge5_Node000005_Node000006" class="edge">
<title>Node5&#45;&gt;Node6</title>
<g id="a_edge5_Node000005_Node000006"><a xlink:title=" ">
<path fill="none" stroke="#63b8ff" d="M466.94,-16.75C476.22,-16.75 485.77,-16.75 495.2,-16.75"/>
<polygon fill="#63b8ff" stroke="#63b8ff" points="495.11,-20.25 505.11,-16.75 495.11,-13.25 495.11,-20.25"/>
</a>
</g>
</g>
<!-- Node6&#45;&gt;Node4 -->
<g id="edge6_Node000006_Node000004" class="edge">
<title>Node6&#45;&gt;Node4</title>
<g id="a_edge6_Node000006_Node000004"><a xlink:title=" ">
<path fill="none" stroke="#63b8ff" d="M655.32,-25.38C663.18,-26.31 671.23,-27.25 679.24,-28.2"/>
<polygon fill="#63b8ff" stroke="#63b8ff" points="678.68,-31.66 689.02,-29.35 679.5,-24.7 678.68,-31.66"/>
</a>
</g>
</g>
</g>
</svg>
