<?xml version="1.0" encoding="UTF-8" standalone="no"?>
<!DOCTYPE svg PUBLIC "-//W3C//DTD SVG 1.1//EN"
 "http://www.w3.org/Graphics/SVG/1.1/DTD/svg11.dtd">
<!-- Generated by graphviz version 12.2.1 (0)
 -->
<!-- Title: nixoncpp::assets::AssetManager::resolveAsset Pages: 1 -->
<svg width="477pt" height="191pt"
 viewBox="0.00 0.00 476.75 190.75" xmlns="http://www.w3.org/2000/svg" xmlns:xlink="http://www.w3.org/1999/xlink">
<g id="graph0" class="graph" transform="scale(1 1) rotate(0) translate(4 186.75)">
<title>nixoncpp::assets::AssetManager::resolveAsset</title>
<!-- Node1 -->
<g id="Node000001" class="node">
<title>Node1</title>
<g id="a_Node000001"><a xlink:title="Resolve the full path of an asset given its relative path.">
<polygon fill="#999999" stroke="#666666" points="468.75,-85.12 296,-85.12 296,-51.62 468.75,-51.62 468.75,-85.12"/>
<text text-anchor="start" x="304" y="-71.62" font-family="Helvetica,sans-Serif" font-size="10.00">nixoncpp::assets::AssetManager</text>
<text text-anchor="middle" x="382.38" y="-58.88" font-family="Helvetica,sans-Serif" font-size="10.00">::resolveAsset</text>
</a>
</g>
</g>
<!-- Node2 -->
<g id="Node000002" class="node">
<title>Node2</title>
<g id="a_Node000002"><a xlink:href="classnixoncpp_1_1assets_1_1AssetManager.html#a1ee9bb6ce66bf784da142f87560997d6" target="_top" xlink:title="Check if an asset exists given its relative path.">
<polygon fill="white" stroke="#666666" points="260,-150.12 87.25,-150.12 87.25,-116.62 260,-116.62 260,-150.12"/>
<text text-anchor="start" x="95.25" y="-136.62" font-family="Helvetica,sans-Serif" font-size="10.00">nixoncpp::assets::AssetManager</text>
<text text-anchor="middle" x="173.62" y="-123.88" font-family="Helvetica,sans-Serif" font-size="10.00">::assetExists</text>
</a>
</g>
</g>
<!-- Node1&#45;&gt;Node2 -->
<g id="edge1_Node000001_Node000002" class="edge">
<title>Node1&#45;&gt;Node2</title>
<g id="a_edge1_Node000001_Node000002"><a xlink:title=" ">
<path fill="none" stroke="#63b8ff" d="M317.83,-89C299.21,-94.98 278.81,-101.49 260,-107.38 250.83,-110.24 241.1,-113.25 231.61,-116.15"/>
<polygon fill="#63b8ff" stroke="#63b8ff" points="318.67,-92.4 327.12,-86 316.52,-85.74 318.67,-92.4"/>
</a>
</g>
</g>
<!-- Node6 -->
<g id="Node000006" class="node">
<title>Node6</title>
<g id="a_Node000006"><a xlink:href="AssetManagerTest_8cpp.html#afb120c396aab6c89a8f4d65454b3056b" target="_top" xlink:title=" ">
<polygon fill="white" stroke="#666666" points="199.25,-98.75 148,-98.75 148,-78 199.25,-78 199.25,-98.75"/>
<text text-anchor="middle" x="173.62" y="-85.25" font-family="Helvetica,sans-Serif" font-size="10.00">TEST_F</text>
</a>
</g>
</g>
<!-- Node1&#45;&gt;Node6 -->
<g id="edge5_Node000001_Node000006" class="edge">
<title>Node1&#45;&gt;Node6</title>
<g id="a_edge5_Node000001_Node000006"><a xlink:title=" ">
<path fill="none" stroke="#63b8ff" d="M284.68,-77.73C253.11,-80.78 220.72,-83.92 199.32,-85.99"/>
<polygon fill="#63b8ff" stroke="#63b8ff" points="284.67,-81.25 294.28,-76.8 283.99,-74.28 284.67,-81.25"/>
</a>
</g>
</g>
<!-- Node7 -->
<g id="Node000007" class="node">
<title>Node7</title>
<g id="a_Node000007"><a xlink:href="AssetManagerTest_8cpp.html#a5d60a42a81908ce29588078c1ecb96c2" target="_top" xlink:title=" ">
<polygon fill="white" stroke="#666666" points="199.25,-59.75 148,-59.75 148,-39 199.25,-39 199.25,-59.75"/>
<text text-anchor="middle" x="173.62" y="-46.25" font-family="Helvetica,sans-Serif" font-size="10.00">TEST_F</text>
</a>
</g>
</g>
<!-- Node1&#45;&gt;Node7 -->
<g id="edge6_Node000001_Node000007" class="edge">
<title>Node1&#45;&gt;Node7</title>
<g id="a_edge6_Node000001_Node000007"><a xlink:title=" ">
<path fill="none" stroke="#63b8ff" d="M284.68,-59.49C253.11,-56.59 220.72,-53.61 199.32,-51.64"/>
<polygon fill="#63b8ff" stroke="#63b8ff" points="284,-62.94 294.28,-60.37 284.64,-55.97 284,-62.94"/>
</a>
</g>
</g>
<!-- Node8 -->
<g id="Node000008" class="node">
<title>Node8</title>
<g id="a_Node000008"><a xlink:href="AssetManagerTest_8cpp.html#a72e7299bcf134bbe700f73ac083b9994" target="_top" xlink:title=" ">
<polygon fill="white" stroke="#666666" points="199.25,-20.75 148,-20.75 148,0 199.25,0 199.25,-20.75"/>
<text text-anchor="middle" x="173.62" y="-7.25" font-family="Helvetica,sans-Serif" font-size="10.00">TEST_F</text>
</a>
</g>
</g>
<!-- Node1&#45;&gt;Node8 -->
<g id="edge7_Node000001_Node000008" class="edge">
<title>Node1&#45;&gt;Node8</title>
<g id="a_edge7_Node000001_Node000008"><a xlink:title=" ">
<path fill="none" stroke="#63b8ff" d="M318.55,-47.74C299.8,-41.85 279.14,-35.61 260,-30.38 239.73,-24.84 216.51,-19.46 199.4,-15.68"/>
<polygon fill="#63b8ff" stroke="#63b8ff" points="317.31,-51.02 327.9,-50.71 319.43,-44.35 317.31,-51.02"/>
</a>
</g>
</g>
<!-- Node3 -->
<g id="Node000003" class="node">
<title>Node3</title>
<g id="a_Node000003"><a xlink:href="AssetManagerTest_8cpp.html#a68afa704c1ff22c9610fae4172d24bc4" target="_top" xlink:title=" ">
<polygon fill="white" stroke="#666666" points="51.25,-182.75 0,-182.75 0,-162 51.25,-162 51.25,-182.75"/>
<text text-anchor="middle" x="25.62" y="-169.25" font-family="Helvetica,sans-Serif" font-size="10.00">TEST_F</text>
</a>
</g>
</g>
<!-- Node2&#45;&gt;Node3 -->
<g id="edge2_Node000002_Node000003" class="edge">
<title>Node2&#45;&gt;Node3</title>
<g id="a_edge2_Node000002_Node000003"><a xlink:title=" ">
<path fill="none" stroke="#63b8ff" d="M97.32,-153.49C80.81,-157.9 64.46,-162.27 51.65,-165.69"/>
<polygon fill="#63b8ff" stroke="#63b8ff" points="97.94,-156.95 106.7,-150.99 96.14,-150.18 97.94,-156.95"/>
</a>
</g>
</g>
<!-- Node4 -->
<g id="Node000004" class="node">
<title>Node4</title>
<g id="a_Node000004"><a xlink:href="AssetManagerTest_8cpp.html#a08f42620f8e54d3a2e0804f9f064bd94" target="_top" xlink:title=" ">
<polygon fill="white" stroke="#666666" points="51.25,-143.75 0,-143.75 0,-123 51.25,-123 51.25,-143.75"/>
<text text-anchor="middle" x="25.62" y="-130.25" font-family="Helvetica,sans-Serif" font-size="10.00">TEST_F</text>
</a>
</g>
</g>
<!-- Node2&#45;&gt;Node4 -->
<g id="edge3_Node000002_Node000004" class="edge">
<title>Node2&#45;&gt;Node4</title>
<g id="a_edge3_Node000002_Node000004"><a xlink:title=" ">
<path fill="none" stroke="#63b8ff" d="M75.36,-133.38C66.8,-133.38 58.75,-133.38 51.75,-133.38"/>
<polygon fill="#63b8ff" stroke="#63b8ff" points="75.34,-136.88 85.34,-133.38 75.34,-129.88 75.34,-136.88"/>
</a>
</g>
</g>
<!-- Node5 -->
<g id="Node000005" class="node">
<title>Node5</title>
<g id="a_Node000005"><a xlink:href="AssetManagerTest_8cpp.html#a4a19ea38d9becf48d8a59679ba370fbb" target="_top" xlink:title=" ">
<polygon fill="white" stroke="#666666" points="51.25,-104.75 0,-104.75 0,-84 51.25,-84 51.25,-104.75"/>
<text text-anchor="middle" x="25.62" y="-91.25" font-family="Helvetica,sans-Serif" font-size="10.00">TEST_F</text>
</a>
</g>
</g>
<!-- Node2&#45;&gt;Node5 -->
<g id="edge4_Node000002_Node000005" class="edge">
<title>Node2&#45;&gt;Node5</title>
<g id="a_edge4_Node000002_Node000005"><a xlink:title=" ">
<path fill="none" stroke="#63b8ff" d="M97.32,-113.26C80.81,-108.85 64.46,-104.48 51.65,-101.06"/>
<polygon fill="#63b8ff" stroke="#63b8ff" points="96.14,-116.57 106.7,-115.76 97.94,-109.8 96.14,-116.57"/>
</a>
</g>
</g>
</g>
</svg>
