<?xml version="1.0" encoding="UTF-8" standalone="no"?>
<!DOCTYPE svg PUBLIC "-//W3C//DTD SVG 1.1//EN"
 "http://www.w3.org/Graphics/SVG/1.1/DTD/svg11.dtd">
<!-- Generated by graphviz version 12.2.1 (0)
 -->
<!-- Title: nixoncpp::utils::UtilsFactory::createDefaultLogger Pages: 1 -->
<!--zoomable 94 -->

<svg id="main" version="1.1" xmlns="http://www.w3.org/2000/svg" xmlns:xlink="http://www.w3.org/1999/xlink" xml:space="preserve" onload="init(evt)">

<style type="text/css"><![CDATA[
.node, .edge {opacity: 0.7;}
.node.selected, .edge.selected {opacity: 1;}
.edge:hover path { stroke: red; }
.edge:hover polygon { stroke: red; fill: red; }
]]></style>

<defs>
  <circle id="rim" cx="0" cy="0" r="7"/>
  <circle id="rim2" cx="0" cy="0" r="3.5"/>
  <g id="zoomPlus">
    <use xlink:href="#rim" fill="#404040"><set attributeName="fill" to="#808080" begin="zoomplus.mouseover" end="zoomplus.mouseout"/></use>
    <path d="M-4,0h8M0,-4v8" fill="none" stroke="white" stroke-width="1.5" pointer-events="none"/>
  </g>
  <g id="zoomMin">
    <use xlink:href="#rim" fill="#404040"><set attributeName="fill" to="#808080" begin="zoomminus.mouseover" end="zoomminus.mouseout"/></use>
    <path d="M-4,0h8" fill="none" stroke="white" stroke-width="1.5" pointer-events="none"/>
  </g>
  <g id="arrowUp" transform="translate(30 24)">
    <use xlink:href="#rim"/>
    <path pointer-events="none" fill="none" stroke="white" stroke-width="1.5" d="M0,-3.0v7 M-2.5,-0.5L0,-3.0L2.5,-0.5"/>
  </g>
  <g id="arrowRight" transform="rotate(90) translate(36 -43)">
    <use xlink:href="#rim"/>
    <path pointer-events="none" fill="none" stroke="white" stroke-width="1.5" d="M0,-3.0v7 M-2.5,-0.5L0,-3.0L2.5,-0.5"/>
  </g>
  <g id="arrowDown" transform="rotate(180) translate(-30 -48)">
    <use xlink:href="#rim"/>
    <path pointer-events="none" fill="none" stroke="white" stroke-width="1.5" d="M0,-3.0v7 M-2.5,-0.5L0,-3.0L2.5,-0.5"/>
  </g>
  <g id="arrowLeft" transform="rotate(270) translate(-36 17)">
    <use xlink:href="#rim"/>
    <path pointer-events="none" fill="none" stroke="white" stroke-width="1.5" d="M0,-3.0v7 M-2.5,-0.5L0,-3.0L2.5,-0.5"/>
  </g>
  <g id="resetDef">
    <use xlink:href="#rim2" fill="#404040"><set attributeName="fill" to="#808080" begin="reset.mouseover" end="reset.mouseout"/></use>
  </g>
</defs>
<script type="application/ecmascript">
var viewWidth = 696;
var viewHeight = 94;
var sectionId = 'dynsection-7';
</script>
<script type="application/ecmascript" xlink:href="svg.min.js"/>
<svg id="graph" class="graph">
<g id="viewport">
<title>nixoncpp::utils::UtilsFactory::createDefaultLogger</title>
<!-- Node1 -->
<g id="Node000001" class="node">
<title>Node1</title>
<g id="a_Node000001"><a xlink:title=" ">
<polygon fill="#999999" stroke="#666666" points="150.25,-59.5 0,-59.5 0,-26 150.25,-26 150.25,-59.5"/>
<text text-anchor="start" x="8" y="-46" font-family="Helvetica,sans-Serif" font-size="10.00">nixoncpp::utils::UtilsFactory</text>
<text text-anchor="middle" x="75.12" y="-33.25" font-family="Helvetica,sans-Serif" font-size="10.00">::createDefaultLogger</text>
</a>
</g>
</g>
<!-- Node2 -->
<g id="Node000002" class="node">
<title>Node2</title>
<g id="a_Node000002"><a xlink:href="classnixoncpp_1_1utils_1_1UtilsFactory.html#a25d60ab1ffddf4e84f9bfcf18d6cda5e" target="_top" xlink:title=" ">
<polygon fill="white" stroke="#666666" points="336.5,-59.5 186.25,-59.5 186.25,-26 336.5,-26 336.5,-59.5"/>
<text text-anchor="start" x="194.25" y="-46" font-family="Helvetica,sans-Serif" font-size="10.00">nixoncpp::utils::UtilsFactory</text>
<text text-anchor="middle" x="261.38" y="-33.25" font-family="Helvetica,sans-Serif" font-size="10.00">::createLogger</text>
</a>
</g>
</g>
<!-- Node1&#45;&gt;Node2 -->
<g id="edge1_Node000001_Node000002" class="edge">
<title>Node1&#45;&gt;Node2</title>
<g id="a_edge1_Node000001_Node000002"><a xlink:title=" ">
<path fill="none" stroke="#63b8ff" d="M150.54,-42.75C158.48,-42.75 166.6,-42.75 174.66,-42.75"/>
<polygon fill="#63b8ff" stroke="#63b8ff" points="174.47,-46.25 184.47,-42.75 174.47,-39.25 174.47,-46.25"/>
</a>
</g>
</g>
<!-- Node3 -->
<g id="Node000003" class="node">
<title>Node3</title>
<g id="a_Node000003"><a xlink:href="classnixoncpp_1_1logging_1_1LoggerFactory.html#a9a38b177b191b1ab4182363e93dd222b" target="_top" xlink:title="Create a logger instance based on the specified type and configuration.">
<polygon fill="white" stroke="#666666" points="492.75,-59.5 372.5,-59.5 372.5,-26 492.75,-26 492.75,-59.5"/>
<text text-anchor="start" x="380.5" y="-46" font-family="Helvetica,sans-Serif" font-size="10.00">nixoncpp::logging::</text>
<text text-anchor="middle" x="432.62" y="-33.25" font-family="Helvetica,sans-Serif" font-size="10.00">LoggerFactory::create</text>
</a>
</g>
</g>
<!-- Node2&#45;&gt;Node3 -->
<g id="edge2_Node000002_Node000003" class="edge">
<title>Node2&#45;&gt;Node3</title>
<g id="a_edge2_Node000002_Node000003"><a xlink:title=" ">
<path fill="none" stroke="#63b8ff" d="M336.61,-42.75C344.61,-42.75 352.73,-42.75 360.69,-42.75"/>
<polygon fill="#63b8ff" stroke="#63b8ff" points="360.68,-46.25 370.68,-42.75 360.68,-39.25 360.68,-46.25"/>
</a>
</g>
</g>
<!-- Node4 -->
<g id="Node000004" class="node">
<title>Node4</title>
<g id="a_Node000004"><a xlink:href="classnixoncpp_1_1logging_1_1LoggerFactory.html#a26cfce0d7f5386a37884a93178910b85" target="_top" xlink:title="Create a Console object logger.">
<polygon fill="white" stroke="#666666" points="688,-85.5 528.75,-85.5 528.75,-52 688,-52 688,-85.5"/>
<text text-anchor="start" x="536.75" y="-72" font-family="Helvetica,sans-Serif" font-size="10.00">nixoncpp::logging::</text>
<text text-anchor="middle" x="608.38" y="-59.25" font-family="Helvetica,sans-Serif" font-size="10.00">LoggerFactory::createConsole</text>
</a>
</g>
</g>
<!-- Node3&#45;&gt;Node4 -->
<g id="edge3_Node000003_Node000004" class="edge">
<title>Node3&#45;&gt;Node4</title>
<g id="a_edge3_Node000003_Node000004"><a xlink:title=" ">
<path fill="none" stroke="#63b8ff" d="M492.93,-51.63C500.77,-52.8 508.95,-54.02 517.16,-55.25"/>
<polygon fill="#63b8ff" stroke="#63b8ff" points="516.46,-58.68 526.86,-56.7 517.49,-51.76 516.46,-58.68"/>
</a>
</g>
</g>
<!-- Node5 -->
<g id="Node000005" class="node">
<title>Node5</title>
<g id="a_Node000005"><a xlink:href="classnixoncpp_1_1logging_1_1LoggerFactory.html#a155dca9a6066e9729f9237e7d02c2d4e" target="_top" xlink:title="Create a Null object logger.">
<polygon fill="white" stroke="#666666" points="678.25,-33.5 538.5,-33.5 538.5,0 678.25,0 678.25,-33.5"/>
<text text-anchor="start" x="546.5" y="-20" font-family="Helvetica,sans-Serif" font-size="10.00">nixoncpp::logging::</text>
<text text-anchor="middle" x="608.38" y="-7.25" font-family="Helvetica,sans-Serif" font-size="10.00">LoggerFactory::createNull</text>
</a>
</g>
</g>
<!-- Node3&#45;&gt;Node5 -->
<g id="edge4_Node000003_Node000005" class="edge">
<title>Node3&#45;&gt;Node5</title>
<g id="a_edge4_Node000003_Node000005"><a xlink:title=" ">
<path fill="none" stroke="#63b8ff" d="M492.93,-33.87C503.85,-32.24 515.41,-30.51 526.82,-28.8"/>
<polygon fill="#63b8ff" stroke="#63b8ff" points="527.29,-32.27 536.66,-27.33 526.25,-25.35 527.29,-32.27"/>
</a>
</g>
</g>
</g>
</svg>

<g id="navigator" transform="translate(0 0)" fill="#404254">
  <rect fill="#f2f5e9" fill-opacity="0.5" stroke="#606060" stroke-width=".5" x="0" y="0" width="60" height="60"/>
  <use id="zoomplus" xlink:href="#zoomPlus" x="17" y="9" onmousedown="handleZoom(evt,'in')"/>
  <use id="zoomminus" xlink:href="#zoomMin" x="42" y="9" onmousedown="handleZoom(evt,'out')"/>
  <use id="reset" xlink:href="#resetDef" x="30" y="36" onmousedown="handleReset()"/>
   <use id="arrowup" xlink:href="#arrowUp" x="0" y="0" onmousedown="handlePan(0,-1)"/>
  <use id="arrowright" xlink:href="#arrowRight" x="0" y="0" onmousedown="handlePan(1,0)"/>
  <use id="arrowdown" xlink:href="#arrowDown" x="0" y="0" onmousedown="handlePan(0,1)"/>
  <use id="arrowleft" xlink:href="#arrowLeft" x="0" y="0" onmousedown="handlePan(-1,0)"/>
</g>
<svg viewBox="0 0 15 15" width="100%" height="30px" preserveAspectRatio="xMaxYMin meet">
 <g id="arrow_out" transform="scale(0.3 0.3)">
  <a xlink:href="classnixoncpp_1_1utils_1_1UtilsFactory_a701a98b9e13fac471f5b9a35dfa1058e_cgraph_org.svg" target="_base">
   <rect id="button" ry="5" rx="5" y="6" x="6" height="38" width="38"
        fill="#f2f5e9" fill-opacity="0.5" stroke="#606060" stroke-width="1.0"/>
   <path id="arrow"
     d="M 11.500037,31.436501 C 11.940474,20.09759 22.043105,11.32322 32.158766,21.979434 L 37.068811,17.246167 C 37.068811,17.246167 37.088388,32 37.088388,32 L 22.160133,31.978069 C 22.160133,31.978069 26.997745,27.140456 26.997745,27.140456 C 18.528582,18.264221 13.291696,25.230495 11.500037,31.436501 z"
     style="fill:#404040;"/>
  </a>
 </g>
</svg>

<style type='text/css'>
<![CDATA[
[data-mouse-over-selected='false'] { opacity: 0.7; }
[data-mouse-over-selected='true']  { opacity: 1.0; }
]]>
</style>
<script type="application/ecmascript"><![CDATA[
document.addEventListener('DOMContentLoaded', (event) => {
  highlightEdges();
  highlightAdjacentNodes();
});
]]></script>
</svg>
