<?xml version="1.0" encoding="UTF-8" standalone="no"?>
<!DOCTYPE svg PUBLIC "-//W3C//DTD SVG 1.1//EN"
 "http://www.w3.org/Graphics/SVG/1.1/DTD/svg11.dtd">
<!-- Generated by graphviz version 12.2.1 (0)
 -->
<!-- Title: nixoncpp::utils::FileReader::FileReader Pages: 1 -->
<svg width="333pt" height="198pt"
 viewBox="0.00 0.00 332.50 197.50" xmlns="http://www.w3.org/2000/svg" xmlns:xlink="http://www.w3.org/1999/xlink">
<g id="graph0" class="graph" transform="scale(1 1) rotate(0) translate(4 193.5)">
<title>nixoncpp::utils::FileReader::FileReader</title>
<!-- Node1 -->
<g id="Node000001" class="node">
<title>Node1</title>
<g id="a_Node000001"><a xlink:title=" ">
<polygon fill="#999999" stroke="#666666" points="324.5,-111.5 180.25,-111.5 180.25,-78 324.5,-78 324.5,-111.5"/>
<text text-anchor="start" x="188.25" y="-98" font-family="Helvetica,sans-Serif" font-size="10.00">nixoncpp::utils::FileReader</text>
<text text-anchor="middle" x="252.38" y="-85.25" font-family="Helvetica,sans-Serif" font-size="10.00">::FileReader</text>
</a>
</g>
</g>
<!-- Node2 -->
<g id="Node000002" class="node">
<title>Node2</title>
<g id="a_Node000002"><a xlink:href="classnixoncpp_1_1utils_1_1FileReader.html#a3a0972fcb9d4876ce2d00ad43ddbb2e2" target="_top" xlink:title=" ">
<polygon fill="white" stroke="#666666" points="144.25,-189.5 0,-189.5 0,-156 144.25,-156 144.25,-189.5"/>
<text text-anchor="start" x="8" y="-176" font-family="Helvetica,sans-Serif" font-size="10.00">nixoncpp::utils::FileReader</text>
<text text-anchor="middle" x="72.12" y="-163.25" font-family="Helvetica,sans-Serif" font-size="10.00">::FileReader</text>
</a>
</g>
</g>
<!-- Node1&#45;&gt;Node2 -->
<g id="edge1_Node000001_Node000002" class="edge">
<title>Node1&#45;&gt;Node2</title>
<g id="a_edge1_Node000001_Node000002"><a xlink:title=" ">
<path fill="none" stroke="#63b8ff" d="M208.44,-116.83C189.04,-126.48 165.71,-137.65 144.25,-146.75 137.11,-149.78 129.48,-152.79 121.97,-155.64"/>
<polygon fill="#63b8ff" stroke="#63b8ff" points="209.76,-120.08 217.13,-112.47 206.62,-113.82 209.76,-120.08"/>
</a>
</g>
</g>
<!-- Node3 -->
<g id="Node000003" class="node">
<title>Node3</title>
<g id="a_Node000003"><a xlink:href="classnixoncpp_1_1utils_1_1FileReader.html#a8f37658f842c6d0394a26948d6c5f848" target="_top" xlink:title=" ">
<polygon fill="white" stroke="#666666" points="144.25,-137.5 0,-137.5 0,-104 144.25,-104 144.25,-137.5"/>
<text text-anchor="start" x="8" y="-124" font-family="Helvetica,sans-Serif" font-size="10.00">nixoncpp::utils::FileReader</text>
<text text-anchor="middle" x="72.12" y="-111.25" font-family="Helvetica,sans-Serif" font-size="10.00">::FileReader</text>
</a>
</g>
</g>
<!-- Node1&#45;&gt;Node3 -->
<g id="edge2_Node000001_Node000003" class="edge">
<title>Node1&#45;&gt;Node3</title>
<g id="a_edge2_Node000001_Node000003"><a xlink:title=" ">
<path fill="none" stroke="#63b8ff" d="M168.63,-106.82C160.61,-107.99 152.52,-109.17 144.62,-110.32"/>
<polygon fill="#63b8ff" stroke="#63b8ff" points="169.01,-110.3 178.4,-105.39 168,-103.37 169.01,-110.3"/>
</a>
</g>
</g>
<!-- Node4 -->
<g id="Node000004" class="node">
<title>Node4</title>
<g id="a_Node000004"><a xlink:href="classnixoncpp_1_1utils_1_1FileReader.html#a70a7bb6b6fb15ec9ba01ab7769c639f8" target="_top" xlink:title=" ">
<polygon fill="white" stroke="#666666" points="144.25,-85.5 0,-85.5 0,-52 144.25,-52 144.25,-85.5"/>
<text text-anchor="start" x="8" y="-72" font-family="Helvetica,sans-Serif" font-size="10.00">nixoncpp::utils::FileReader</text>
<text text-anchor="middle" x="72.12" y="-59.25" font-family="Helvetica,sans-Serif" font-size="10.00">::operator=</text>
</a>
</g>
</g>
<!-- Node1&#45;&gt;Node4 -->
<g id="edge3_Node000001_Node000004" class="edge">
<title>Node1&#45;&gt;Node4</title>
<g id="a_edge3_Node000001_Node000004"><a xlink:title=" ">
<path fill="none" stroke="#63b8ff" d="M168.63,-82.68C160.61,-81.51 152.52,-80.33 144.62,-79.18"/>
<polygon fill="#63b8ff" stroke="#63b8ff" points="168,-86.13 178.4,-84.11 169.01,-79.2 168,-86.13"/>
</a>
</g>
</g>
<!-- Node5 -->
<g id="Node000005" class="node">
<title>Node5</title>
<g id="a_Node000005"><a xlink:href="classnixoncpp_1_1utils_1_1FileReader.html#a58c008bc9044c9e02b2ae2c66badda47" target="_top" xlink:title=" ">
<polygon fill="white" stroke="#666666" points="144.25,-33.5 0,-33.5 0,0 144.25,0 144.25,-33.5"/>
<text text-anchor="start" x="8" y="-20" font-family="Helvetica,sans-Serif" font-size="10.00">nixoncpp::utils::FileReader</text>
<text text-anchor="middle" x="72.12" y="-7.25" font-family="Helvetica,sans-Serif" font-size="10.00">::operator=</text>
</a>
</g>
</g>
<!-- Node1&#45;&gt;Node5 -->
<g id="edge4_Node000001_Node000005" class="edge">
<title>Node1&#45;&gt;Node5</title>
<g id="a_edge4_Node000001_Node000005"><a xlink:title=" ">
<path fill="none" stroke="#63b8ff" d="M208.44,-72.67C189.04,-63.02 165.71,-51.85 144.25,-42.75 137.11,-39.72 129.48,-36.71 121.97,-33.86"/>
<polygon fill="#63b8ff" stroke="#63b8ff" points="206.62,-75.68 217.13,-77.03 209.76,-69.42 206.62,-75.68"/>
</a>
</g>
</g>
</g>
</svg>
