<?xml version="1.0" encoding="UTF-8" standalone="no"?>
<!DOCTYPE svg PUBLIC "-//W3C//DTD SVG 1.1//EN"
 "http://www.w3.org/Graphics/SVG/1.1/DTD/svg11.dtd">
<!-- Generated by graphviz version 12.2.1 (0)
 -->
<!-- Title: nixoncpp::logging::NullLogger Pages: 1 -->
<!--zoomable 1011 -->

<svg id="main" version="1.1" xmlns="http://www.w3.org/2000/svg" xmlns:xlink="http://www.w3.org/1999/xlink" xml:space="preserve" onload="init(evt)">

<style type="text/css"><![CDATA[
.node, .edge {opacity: 0.7;}
.node.selected, .edge.selected {opacity: 1;}
.edge:hover path { stroke: red; }
.edge:hover polygon { stroke: red; fill: red; }
]]></style>

<defs>
  <circle id="rim" cx="0" cy="0" r="7"/>
  <circle id="rim2" cx="0" cy="0" r="3.5"/>
  <g id="zoomPlus">
    <use xlink:href="#rim" fill="#404040"><set attributeName="fill" to="#808080" begin="zoomplus.mouseover" end="zoomplus.mouseout"/></use>
    <path d="M-4,0h8M0,-4v8" fill="none" stroke="white" stroke-width="1.5" pointer-events="none"/>
  </g>
  <g id="zoomMin">
    <use xlink:href="#rim" fill="#404040"><set attributeName="fill" to="#808080" begin="zoomminus.mouseover" end="zoomminus.mouseout"/></use>
    <path d="M-4,0h8" fill="none" stroke="white" stroke-width="1.5" pointer-events="none"/>
  </g>
  <g id="arrowUp" transform="translate(30 24)">
    <use xlink:href="#rim"/>
    <path pointer-events="none" fill="none" stroke="white" stroke-width="1.5" d="M0,-3.0v7 M-2.5,-0.5L0,-3.0L2.5,-0.5"/>
  </g>
  <g id="arrowRight" transform="rotate(90) translate(36 -43)">
    <use xlink:href="#rim"/>
    <path pointer-events="none" fill="none" stroke="white" stroke-width="1.5" d="M0,-3.0v7 M-2.5,-0.5L0,-3.0L2.5,-0.5"/>
  </g>
  <g id="arrowDown" transform="rotate(180) translate(-30 -48)">
    <use xlink:href="#rim"/>
    <path pointer-events="none" fill="none" stroke="white" stroke-width="1.5" d="M0,-3.0v7 M-2.5,-0.5L0,-3.0L2.5,-0.5"/>
  </g>
  <g id="arrowLeft" transform="rotate(270) translate(-36 17)">
    <use xlink:href="#rim"/>
    <path pointer-events="none" fill="none" stroke="white" stroke-width="1.5" d="M0,-3.0v7 M-2.5,-0.5L0,-3.0L2.5,-0.5"/>
  </g>
  <g id="resetDef">
    <use xlink:href="#rim2" fill="#404040"><set attributeName="fill" to="#808080" begin="reset.mouseover" end="reset.mouseout"/></use>
  </g>
</defs>
<script type="application/ecmascript">
var viewWidth = 182;
var viewHeight = 1011;
var sectionId = 'dynsection-0';
</script>
<script type="application/ecmascript" xlink:href="svg.min.js"/>
<svg id="graph" class="graph">
<g id="viewport">
<title>nixoncpp::logging::NullLogger</title>
<!-- Node1 -->
<g id="Node000001" class="node">
<title>Node1</title>
<g id="a_Node000001"><a xlink:title=" ">
<polygon fill="#999999" stroke="none" points="160.5,-451.25 13.5,-451.25 13.5,0 160.5,0 160.5,-451.25"/>
<text text-anchor="start" x="41.25" y="-437.75" font-family="Helvetica,sans-Serif" font-size="10.00">nixoncpp::logging::</text>
<text text-anchor="start" x="60.75" y="-425" font-family="Helvetica,sans-Serif" font-size="10.00">NullLogger</text>
<text text-anchor="start" x="85.5" y="-408.25" font-family="Helvetica,sans-Serif" font-size="10.00"> </text>
<text text-anchor="start" x="17.5" y="-391.5" font-family="Helvetica,sans-Serif" font-size="10.00">+</text>
<text text-anchor="start" x="29.75" y="-391.5" font-family="Helvetica,sans-Serif" font-size="10.00">void debug(const std</text>
<text text-anchor="start" x="29.75" y="-378.75" font-family="Helvetica,sans-Serif" font-size="10.00">::string &amp;, const std</text>
<text text-anchor="start" x="29.75" y="-366" font-family="Helvetica,sans-Serif" font-size="10.00">::string &amp;=&quot;&quot;) override</text>
<text text-anchor="start" x="17.5" y="-349.25" font-family="Helvetica,sans-Serif" font-size="10.00">+</text>
<text text-anchor="start" x="29.75" y="-349.25" font-family="Helvetica,sans-Serif" font-size="10.00">void info(const std</text>
<text text-anchor="start" x="29.75" y="-336.5" font-family="Helvetica,sans-Serif" font-size="10.00">::string &amp;, const std</text>
<text text-anchor="start" x="29.75" y="-323.75" font-family="Helvetica,sans-Serif" font-size="10.00">::string &amp;=&quot;&quot;) override</text>
<text text-anchor="start" x="17.5" y="-307" font-family="Helvetica,sans-Serif" font-size="10.00">+</text>
<text text-anchor="start" x="29.75" y="-307" font-family="Helvetica,sans-Serif" font-size="10.00">void warning(const</text>
<text text-anchor="start" x="29.75" y="-294.25" font-family="Helvetica,sans-Serif" font-size="10.00"> std::string &amp;, const</text>
<text text-anchor="start" x="29.75" y="-281.5" font-family="Helvetica,sans-Serif" font-size="10.00"> std::string &amp;=&quot;&quot;) override</text>
<text text-anchor="start" x="17.5" y="-264.75" font-family="Helvetica,sans-Serif" font-size="10.00">+</text>
<text text-anchor="start" x="29.75" y="-264.75" font-family="Helvetica,sans-Serif" font-size="10.00">void error(const std</text>
<text text-anchor="start" x="29.75" y="-252" font-family="Helvetica,sans-Serif" font-size="10.00">::string &amp;, const std</text>
<text text-anchor="start" x="29.75" y="-239.25" font-family="Helvetica,sans-Serif" font-size="10.00">::string &amp;=&quot;&quot;) override</text>
<text text-anchor="start" x="17.5" y="-222.5" font-family="Helvetica,sans-Serif" font-size="10.00">+</text>
<text text-anchor="start" x="29.75" y="-222.5" font-family="Helvetica,sans-Serif" font-size="10.00">void critical(const</text>
<text text-anchor="start" x="29.75" y="-209.75" font-family="Helvetica,sans-Serif" font-size="10.00"> std::string &amp;, const</text>
<text text-anchor="start" x="29.75" y="-197" font-family="Helvetica,sans-Serif" font-size="10.00"> std::string &amp;=&quot;&quot;) override</text>
<text text-anchor="start" x="17.5" y="-180.25" font-family="Helvetica,sans-Serif" font-size="10.00">+</text>
<text text-anchor="start" x="29.75" y="-180.25" font-family="Helvetica,sans-Serif" font-size="10.00">void setLevel(Level)</text>
<text text-anchor="start" x="29.75" y="-167.5" font-family="Helvetica,sans-Serif" font-size="10.00"> override</text>
<text text-anchor="start" x="17.5" y="-150.75" font-family="Helvetica,sans-Serif" font-size="10.00">+</text>
<text text-anchor="start" x="29.75" y="-150.75" font-family="Helvetica,sans-Serif" font-size="10.00">Level getLevel() const</text>
<text text-anchor="start" x="29.75" y="-138" font-family="Helvetica,sans-Serif" font-size="10.00"> override</text>
<text text-anchor="start" x="17.5" y="-121.25" font-family="Helvetica,sans-Serif" font-size="10.00">+</text>
<text text-anchor="start" x="29.75" y="-121.25" font-family="Helvetica,sans-Serif" font-size="10.00">void setAppPrefix(const</text>
<text text-anchor="start" x="29.75" y="-108.5" font-family="Helvetica,sans-Serif" font-size="10.00"> std::string &amp;) override</text>
<text text-anchor="start" x="17.5" y="-91.75" font-family="Helvetica,sans-Serif" font-size="10.00">+</text>
<text text-anchor="start" x="29.75" y="-91.75" font-family="Helvetica,sans-Serif" font-size="10.00">std::string getAppPrefix</text>
<text text-anchor="start" x="29.75" y="-79" font-family="Helvetica,sans-Serif" font-size="10.00">() const override</text>
<text text-anchor="start" x="17.5" y="-62.25" font-family="Helvetica,sans-Serif" font-size="10.00">+</text>
<text text-anchor="start" x="29.75" y="-62.25" font-family="Helvetica,sans-Serif" font-size="10.00">bool enableFileLogging</text>
<text text-anchor="start" x="29.75" y="-49.5" font-family="Helvetica,sans-Serif" font-size="10.00">(const std::string &amp;)</text>
<text text-anchor="start" x="29.75" y="-36.75" font-family="Helvetica,sans-Serif" font-size="10.00"> override</text>
<text text-anchor="start" x="17.5" y="-20" font-family="Helvetica,sans-Serif" font-size="10.00">+</text>
<text text-anchor="start" x="29.75" y="-20" font-family="Helvetica,sans-Serif" font-size="10.00">void disableFileLogging</text>
<text text-anchor="start" x="29.75" y="-7.25" font-family="Helvetica,sans-Serif" font-size="10.00">() override</text>
<polygon fill="#666666" stroke="#666666" points="13.5,-419.75 13.5,-419.75 160.5,-419.75 160.5,-419.75 13.5,-419.75"/>
<polygon fill="#666666" stroke="#666666" points="13.5,-403 13.5,-403 160.5,-403 160.5,-403 13.5,-403"/>
<polygon fill="none" stroke="#666666" points="13.5,0 13.5,-451.25 160.5,-451.25 160.5,0 13.5,0"/>
</a>
</g>
</g>
<!-- Node2 -->
<g id="Node000002" class="node">
<title>Node2</title>
<g id="a_Node000002"><a xlink:href="classnixoncpp_1_1logging_1_1ILogger.html" target="_top" xlink:title=" ">
<polygon fill="white" stroke="none" points="174,-900.25 0,-900.25 0,-487.25 174,-487.25 174,-900.25"/>
<text text-anchor="start" x="41.25" y="-886.75" font-family="Helvetica,sans-Serif" font-size="10.00">nixoncpp::logging::</text>
<text text-anchor="start" x="69" y="-874" font-family="Helvetica,sans-Serif" font-size="10.00">ILogger</text>
<text text-anchor="start" x="85.5" y="-857.25" font-family="Helvetica,sans-Serif" font-size="10.00"> </text>
<text text-anchor="start" x="4" y="-840.5" font-family="Helvetica,sans-Serif" font-size="10.00">+</text>
<text text-anchor="start" x="16.25" y="-840.5" font-family="Helvetica,sans-Serif" font-size="10.00">ILogger()=default</text>
<text text-anchor="start" x="4" y="-823.75" font-family="Helvetica,sans-Serif" font-size="10.00">+</text>
<text text-anchor="start" x="16.25" y="-823.75" font-family="Helvetica,sans-Serif" font-size="10.00">virtual ~ILogger()</text>
<text text-anchor="start" x="16.25" y="-811" font-family="Helvetica,sans-Serif" font-size="10.00">=default</text>
<text text-anchor="start" x="4" y="-794.25" font-family="Helvetica,sans-Serif" font-size="10.00">+</text>
<text text-anchor="start" x="16.25" y="-794.25" font-family="Helvetica,sans-Serif" font-size="10.00">virtual void debug</text>
<text text-anchor="start" x="16.25" y="-781.5" font-family="Helvetica,sans-Serif" font-size="10.00">(const std::string &amp;message,</text>
<text text-anchor="start" x="16.25" y="-768.75" font-family="Helvetica,sans-Serif" font-size="10.00"> const std::string &amp;caller=&quot;&quot;)=0</text>
<text text-anchor="start" x="4" y="-752" font-family="Helvetica,sans-Serif" font-size="10.00">+</text>
<text text-anchor="start" x="16.25" y="-752" font-family="Helvetica,sans-Serif" font-size="10.00">virtual void info(const</text>
<text text-anchor="start" x="16.25" y="-739.25" font-family="Helvetica,sans-Serif" font-size="10.00"> std::string &amp;message,</text>
<text text-anchor="start" x="16.25" y="-726.5" font-family="Helvetica,sans-Serif" font-size="10.00"> const std::string &amp;caller=&quot;&quot;)=0</text>
<text text-anchor="start" x="4" y="-709.75" font-family="Helvetica,sans-Serif" font-size="10.00">+</text>
<text text-anchor="start" x="16.25" y="-709.75" font-family="Helvetica,sans-Serif" font-size="10.00">virtual void warning</text>
<text text-anchor="start" x="16.25" y="-697" font-family="Helvetica,sans-Serif" font-size="10.00">(const std::string &amp;message,</text>
<text text-anchor="start" x="16.25" y="-684.25" font-family="Helvetica,sans-Serif" font-size="10.00"> const std::string &amp;caller=&quot;&quot;)=0</text>
<text text-anchor="start" x="4" y="-667.5" font-family="Helvetica,sans-Serif" font-size="10.00">+</text>
<text text-anchor="start" x="16.25" y="-667.5" font-family="Helvetica,sans-Serif" font-size="10.00">virtual void error</text>
<text text-anchor="start" x="16.25" y="-654.75" font-family="Helvetica,sans-Serif" font-size="10.00">(const std::string &amp;message,</text>
<text text-anchor="start" x="16.25" y="-642" font-family="Helvetica,sans-Serif" font-size="10.00"> const std::string &amp;caller=&quot;&quot;)=0</text>
<text text-anchor="start" x="4" y="-625.25" font-family="Helvetica,sans-Serif" font-size="10.00">+</text>
<text text-anchor="start" x="16.25" y="-625.25" font-family="Helvetica,sans-Serif" font-size="10.00">virtual void critical</text>
<text text-anchor="start" x="16.25" y="-612.5" font-family="Helvetica,sans-Serif" font-size="10.00">(const std::string &amp;message,</text>
<text text-anchor="start" x="16.25" y="-599.75" font-family="Helvetica,sans-Serif" font-size="10.00"> const std::string &amp;caller=&quot;&quot;)=0</text>
<text text-anchor="start" x="4" y="-583" font-family="Helvetica,sans-Serif" font-size="10.00">+</text>
<text text-anchor="start" x="16.25" y="-583" font-family="Helvetica,sans-Serif" font-size="10.00">virtual void setLevel</text>
<text text-anchor="start" x="16.25" y="-570.25" font-family="Helvetica,sans-Serif" font-size="10.00">(Level level)=0</text>
<text text-anchor="start" x="4" y="-553.5" font-family="Helvetica,sans-Serif" font-size="10.00">+</text>
<text text-anchor="start" x="16.25" y="-553.5" font-family="Helvetica,sans-Serif" font-size="10.00">virtual Level getLevel</text>
<text text-anchor="start" x="16.25" y="-540.75" font-family="Helvetica,sans-Serif" font-size="10.00">() const =0</text>
<text text-anchor="start" x="4" y="-524" font-family="Helvetica,sans-Serif" font-size="10.00">+</text>
<text text-anchor="start" x="16.25" y="-524" font-family="Helvetica,sans-Serif" font-size="10.00">virtual void setAppPrefix</text>
<text text-anchor="start" x="16.25" y="-511.25" font-family="Helvetica,sans-Serif" font-size="10.00">(const std::string &amp;prefix)=0</text>
<text text-anchor="start" x="16.25" y="-494.5" font-family="Helvetica,sans-Serif" font-size="10.00">and 14 more...</text>
<polygon fill="#666666" stroke="#666666" points="0,-868.75 0,-868.75 174,-868.75 174,-868.75 0,-868.75"/>
<polygon fill="#666666" stroke="#666666" points="0,-852 0,-852 174,-852 174,-852 0,-852"/>
<polygon fill="none" stroke="#666666" points="0,-487.25 0,-900.25 174,-900.25 174,-487.25 0,-487.25"/>
</a>
</g>
</g>
<!-- Node2&#45;&gt;Node1 -->
<g id="edge1_Node000001_Node000002" class="edge">
<title>Node2&#45;&gt;Node1</title>
<g id="a_edge1_Node000001_Node000002"><a xlink:title=" ">
<path fill="none" stroke="#63b8ff" d="M87,-476.05C87,-467.79 87,-459.51 87,-451.24"/>
<polygon fill="none" stroke="#63b8ff" points="83.5,-475.77 87,-485.77 90.5,-475.77 83.5,-475.77"/>
</a>
</g>
</g>
<!-- Node3 -->
<g id="Node000003" class="node">
<title>Node3</title>
<g id="a_Node000003"><a xlink:title=" ">
<polygon fill="white" stroke="none" points="146.12,-1003.25 27.88,-1003.25 27.88,-936.25 146.12,-936.25 146.12,-1003.25"/>
<text text-anchor="start" x="31.88" y="-989.75" font-family="Helvetica,sans-Serif" font-size="10.00">std::enable_shared</text>
<text text-anchor="start" x="31.88" y="-977" font-family="Helvetica,sans-Serif" font-size="10.00">_from_this&lt; ILogger &gt;</text>
<text text-anchor="start" x="85.5" y="-960.25" font-family="Helvetica,sans-Serif" font-size="10.00"> </text>
<text text-anchor="start" x="85.5" y="-943.5" font-family="Helvetica,sans-Serif" font-size="10.00"> </text>
<polygon fill="#666666" stroke="#666666" points="27.88,-971.75 27.88,-971.75 146.12,-971.75 146.12,-971.75 27.88,-971.75"/>
<polygon fill="#666666" stroke="#666666" points="27.88,-955 27.88,-955 146.12,-955 146.12,-955 27.88,-955"/>
<polygon fill="none" stroke="#666666" points="27.88,-936.25 27.88,-1003.25 146.12,-1003.25 146.12,-936.25 27.88,-936.25"/>
</a>
</g>
</g>
<!-- Node3&#45;&gt;Node2 -->
<g id="edge2_Node000002_Node000003" class="edge">
<title>Node3&#45;&gt;Node2</title>
<g id="a_edge2_Node000002_Node000003"><a xlink:title=" ">
<path fill="none" stroke="#63b8ff" d="M87,-925.11C87,-917.45 87,-909.04 87,-900.12"/>
<polygon fill="none" stroke="#63b8ff" points="83.5,-925 87,-935 90.5,-925 83.5,-925"/>
</a>
</g>
</g>
</g>
</svg>

<g id="navigator" transform="translate(0 0)" fill="#404254">
  <rect fill="#f2f5e9" fill-opacity="0.5" stroke="#606060" stroke-width=".5" x="0" y="0" width="60" height="60"/>
  <use id="zoomplus" xlink:href="#zoomPlus" x="17" y="9" onmousedown="handleZoom(evt,'in')"/>
  <use id="zoomminus" xlink:href="#zoomMin" x="42" y="9" onmousedown="handleZoom(evt,'out')"/>
  <use id="reset" xlink:href="#resetDef" x="30" y="36" onmousedown="handleReset()"/>
   <use id="arrowup" xlink:href="#arrowUp" x="0" y="0" onmousedown="handlePan(0,-1)"/>
  <use id="arrowright" xlink:href="#arrowRight" x="0" y="0" onmousedown="handlePan(1,0)"/>
  <use id="arrowdown" xlink:href="#arrowDown" x="0" y="0" onmousedown="handlePan(0,1)"/>
  <use id="arrowleft" xlink:href="#arrowLeft" x="0" y="0" onmousedown="handlePan(-1,0)"/>
</g>
<svg viewBox="0 0 15 15" width="100%" height="30px" preserveAspectRatio="xMaxYMin meet">
 <g id="arrow_out" transform="scale(0.3 0.3)">
  <a xlink:href="classnixoncpp_1_1logging_1_1NullLogger__inherit__graph_org.svg" target="_base">
   <rect id="button" ry="5" rx="5" y="6" x="6" height="38" width="38"
        fill="#f2f5e9" fill-opacity="0.5" stroke="#606060" stroke-width="1.0"/>
   <path id="arrow"
     d="M 11.500037,31.436501 C 11.940474,20.09759 22.043105,11.32322 32.158766,21.979434 L 37.068811,17.246167 C 37.068811,17.246167 37.088388,32 37.088388,32 L 22.160133,31.978069 C 22.160133,31.978069 26.997745,27.140456 26.997745,27.140456 C 18.528582,18.264221 13.291696,25.230495 11.500037,31.436501 z"
     style="fill:#404040;"/>
  </a>
 </g>
</svg>

<style type='text/css'>
<![CDATA[
[data-mouse-over-selected='false'] { opacity: 0.7; }
[data-mouse-over-selected='true']  { opacity: 1.0; }
]]>
</style>
<script type="application/ecmascript"><![CDATA[
document.addEventListener('DOMContentLoaded', (event) => {
  highlightEdges();
  highlightAdjacentNodes();
});
]]></script>
</svg>
