<?xml version="1.0" encoding="UTF-8" standalone="no"?>
<!DOCTYPE svg PUBLIC "-//W3C//DTD SVG 1.1//EN"
 "http://www.w3.org/Graphics/SVG/1.1/DTD/svg11.dtd">
<!-- Generated by graphviz version 12.2.1 (0)
 -->
<!-- Title: nixoncpp::assets::IAssetManager Pages: 1 -->
<!--zoomable 597 -->

<svg id="main" version="1.1" xmlns="http://www.w3.org/2000/svg" xmlns:xlink="http://www.w3.org/1999/xlink" xml:space="preserve" onload="init(evt)">

<style type="text/css"><![CDATA[
.node, .edge {opacity: 0.7;}
.node.selected, .edge.selected {opacity: 1;}
.edge:hover path { stroke: red; }
.edge:hover polygon { stroke: red; fill: red; }
]]></style>

<defs>
  <circle id="rim" cx="0" cy="0" r="7"/>
  <circle id="rim2" cx="0" cy="0" r="3.5"/>
  <g id="zoomPlus">
    <use xlink:href="#rim" fill="#404040"><set attributeName="fill" to="#808080" begin="zoomplus.mouseover" end="zoomplus.mouseout"/></use>
    <path d="M-4,0h8M0,-4v8" fill="none" stroke="white" stroke-width="1.5" pointer-events="none"/>
  </g>
  <g id="zoomMin">
    <use xlink:href="#rim" fill="#404040"><set attributeName="fill" to="#808080" begin="zoomminus.mouseover" end="zoomminus.mouseout"/></use>
    <path d="M-4,0h8" fill="none" stroke="white" stroke-width="1.5" pointer-events="none"/>
  </g>
  <g id="arrowUp" transform="translate(30 24)">
    <use xlink:href="#rim"/>
    <path pointer-events="none" fill="none" stroke="white" stroke-width="1.5" d="M0,-3.0v7 M-2.5,-0.5L0,-3.0L2.5,-0.5"/>
  </g>
  <g id="arrowRight" transform="rotate(90) translate(36 -43)">
    <use xlink:href="#rim"/>
    <path pointer-events="none" fill="none" stroke="white" stroke-width="1.5" d="M0,-3.0v7 M-2.5,-0.5L0,-3.0L2.5,-0.5"/>
  </g>
  <g id="arrowDown" transform="rotate(180) translate(-30 -48)">
    <use xlink:href="#rim"/>
    <path pointer-events="none" fill="none" stroke="white" stroke-width="1.5" d="M0,-3.0v7 M-2.5,-0.5L0,-3.0L2.5,-0.5"/>
  </g>
  <g id="arrowLeft" transform="rotate(270) translate(-36 17)">
    <use xlink:href="#rim"/>
    <path pointer-events="none" fill="none" stroke="white" stroke-width="1.5" d="M0,-3.0v7 M-2.5,-0.5L0,-3.0L2.5,-0.5"/>
  </g>
  <g id="resetDef">
    <use xlink:href="#rim2" fill="#404040"><set attributeName="fill" to="#808080" begin="reset.mouseover" end="reset.mouseout"/></use>
  </g>
</defs>
<script type="application/ecmascript">
var viewWidth = 390;
var viewHeight = 597;
var sectionId = 'dynsection-0';
</script>
<script type="application/ecmascript" xlink:href="svg.min.js"/>
<svg id="graph" class="graph">
<g id="viewport">
<title>nixoncpp::assets::IAssetManager</title>
<!-- Node1 -->
<g id="Node000001" class="node">
<title>Node1</title>
<g id="a_Node000001"><a xlink:title=" ">
<polygon fill="#999999" stroke="none" points="274.38,-588.5 103.38,-588.5 103.38,-339.75 274.38,-339.75 274.38,-588.5"/>
<text text-anchor="start" x="130.38" y="-575" font-family="Helvetica,sans-Serif" font-size="10.00">nixoncpp::assets::IAsset</text>
<text text-anchor="start" x="167.5" y="-562.25" font-family="Helvetica,sans-Serif" font-size="10.00">Manager</text>
<text text-anchor="start" x="187.38" y="-545.5" font-family="Helvetica,sans-Serif" font-size="10.00"> </text>
<text text-anchor="start" x="107.38" y="-528.75" font-family="Helvetica,sans-Serif" font-size="10.00">+</text>
<text text-anchor="start" x="119.62" y="-528.75" font-family="Helvetica,sans-Serif" font-size="10.00">virtual ~IAssetManager</text>
<text text-anchor="start" x="119.62" y="-516" font-family="Helvetica,sans-Serif" font-size="10.00">()=default</text>
<text text-anchor="start" x="107.38" y="-499.25" font-family="Helvetica,sans-Serif" font-size="10.00">+</text>
<text text-anchor="start" x="119.62" y="-499.25" font-family="Helvetica,sans-Serif" font-size="10.00">virtual const std::</text>
<text text-anchor="start" x="119.62" y="-486.5" font-family="Helvetica,sans-Serif" font-size="10.00">filesystem::path &amp; getAssets</text>
<text text-anchor="start" x="119.62" y="-473.75" font-family="Helvetica,sans-Serif" font-size="10.00">Path() const =0</text>
<text text-anchor="start" x="107.38" y="-457" font-family="Helvetica,sans-Serif" font-size="10.00">+</text>
<text text-anchor="start" x="119.62" y="-457" font-family="Helvetica,sans-Serif" font-size="10.00">virtual std::filesystem</text>
<text text-anchor="start" x="119.62" y="-444.25" font-family="Helvetica,sans-Serif" font-size="10.00">::path resolveAsset(const</text>
<text text-anchor="start" x="119.62" y="-431.5" font-family="Helvetica,sans-Serif" font-size="10.00"> std::filesystem::path &amp;relative</text>
<text text-anchor="start" x="119.62" y="-418.75" font-family="Helvetica,sans-Serif" font-size="10.00">Path) const =0</text>
<text text-anchor="start" x="107.38" y="-402" font-family="Helvetica,sans-Serif" font-size="10.00">+</text>
<text text-anchor="start" x="119.62" y="-402" font-family="Helvetica,sans-Serif" font-size="10.00">virtual bool assetExists</text>
<text text-anchor="start" x="119.62" y="-389.25" font-family="Helvetica,sans-Serif" font-size="10.00">(const std::filesystem</text>
<text text-anchor="start" x="119.62" y="-376.5" font-family="Helvetica,sans-Serif" font-size="10.00">::path &amp;relativePath) const =0</text>
<text text-anchor="start" x="107.38" y="-359.75" font-family="Helvetica,sans-Serif" font-size="10.00">+</text>
<text text-anchor="start" x="119.62" y="-359.75" font-family="Helvetica,sans-Serif" font-size="10.00">virtual bool validate</text>
<text text-anchor="start" x="119.62" y="-347" font-family="Helvetica,sans-Serif" font-size="10.00">() const =0</text>
<polygon fill="#666666" stroke="#666666" points="103.38,-557 103.38,-557 274.38,-557 274.38,-557 103.38,-557"/>
<polygon fill="#666666" stroke="#666666" points="103.38,-540.25 103.38,-540.25 274.38,-540.25 274.38,-540.25 103.38,-540.25"/>
<polygon fill="none" stroke="#666666" points="103.38,-339.75 103.38,-588.5 274.38,-588.5 274.38,-339.75 103.38,-339.75"/>
</a>
</g>
</g>
<!-- Node2 -->
<g id="Node000002" class="node">
<title>Node2</title>
<g id="a_Node000002"><a xlink:href="classMockAssetManager.html" target="_top" xlink:title="Mock implementation of IAssetManager for testing.">
<polygon fill="white" stroke="none" points="177.75,-299.38 0,-299.38 0,-4.38 177.75,-4.38 177.75,-299.38"/>
<text text-anchor="start" x="40.88" y="-285.88" font-family="Helvetica,sans-Serif" font-size="10.00">MockAssetManager</text>
<text text-anchor="start" x="87.38" y="-269.12" font-family="Helvetica,sans-Serif" font-size="10.00"> </text>
<text text-anchor="start" x="4" y="-252.38" font-family="Helvetica,sans-Serif" font-size="10.00">+</text>
<text text-anchor="start" x="16.25" y="-252.38" font-family="Helvetica,sans-Serif" font-size="10.00">MockAssetManager(std</text>
<text text-anchor="start" x="16.25" y="-239.62" font-family="Helvetica,sans-Serif" font-size="10.00">::filesystem::path mockPath)</text>
<text text-anchor="start" x="4" y="-222.88" font-family="Helvetica,sans-Serif" font-size="10.00">+</text>
<text text-anchor="start" x="16.25" y="-222.88" font-family="Helvetica,sans-Serif" font-size="10.00">const std::filesystem</text>
<text text-anchor="start" x="16.25" y="-210.12" font-family="Helvetica,sans-Serif" font-size="10.00">::path &amp; getAssetsPath</text>
<text text-anchor="start" x="16.25" y="-197.38" font-family="Helvetica,sans-Serif" font-size="10.00">() const override</text>
<text text-anchor="start" x="4" y="-180.62" font-family="Helvetica,sans-Serif" font-size="10.00">+</text>
<text text-anchor="start" x="16.25" y="-180.62" font-family="Helvetica,sans-Serif" font-size="10.00">std::filesystem::path</text>
<text text-anchor="start" x="16.25" y="-167.88" font-family="Helvetica,sans-Serif" font-size="10.00"> resolveAsset(const std</text>
<text text-anchor="start" x="16.25" y="-155.12" font-family="Helvetica,sans-Serif" font-size="10.00">::filesystem::path &amp;relativePath)</text>
<text text-anchor="start" x="16.25" y="-142.38" font-family="Helvetica,sans-Serif" font-size="10.00"> const override</text>
<text text-anchor="start" x="4" y="-125.62" font-family="Helvetica,sans-Serif" font-size="10.00">+</text>
<text text-anchor="start" x="16.25" y="-125.62" font-family="Helvetica,sans-Serif" font-size="10.00">bool assetExists(const</text>
<text text-anchor="start" x="16.25" y="-112.88" font-family="Helvetica,sans-Serif" font-size="10.00"> std::filesystem::path</text>
<text text-anchor="start" x="16.25" y="-100.12" font-family="Helvetica,sans-Serif" font-size="10.00"> &amp;) const override</text>
<text text-anchor="start" x="4" y="-83.38" font-family="Helvetica,sans-Serif" font-size="10.00">+</text>
<text text-anchor="start" x="16.25" y="-83.38" font-family="Helvetica,sans-Serif" font-size="10.00">bool validate() const</text>
<text text-anchor="start" x="16.25" y="-70.62" font-family="Helvetica,sans-Serif" font-size="10.00"> override</text>
<text text-anchor="start" x="4" y="-53.88" font-family="Helvetica,sans-Serif" font-size="10.00">+</text>
<text text-anchor="start" x="16.25" y="-53.88" font-family="Helvetica,sans-Serif" font-size="10.00">void setMockExists</text>
<text text-anchor="start" x="16.25" y="-41.12" font-family="Helvetica,sans-Serif" font-size="10.00">(bool exists)</text>
<text text-anchor="start" x="4" y="-24.38" font-family="Helvetica,sans-Serif" font-size="10.00">+</text>
<text text-anchor="start" x="16.25" y="-24.38" font-family="Helvetica,sans-Serif" font-size="10.00">void setMockValid(bool</text>
<text text-anchor="start" x="16.25" y="-11.62" font-family="Helvetica,sans-Serif" font-size="10.00"> valid)</text>
<polygon fill="#666666" stroke="#666666" points="0,-280.62 0,-280.62 177.75,-280.62 177.75,-280.62 0,-280.62"/>
<polygon fill="#666666" stroke="#666666" points="0,-263.88 0,-263.88 177.75,-263.88 177.75,-263.88 0,-263.88"/>
<polygon fill="none" stroke="#666666" points="0,-4.38 0,-299.38 177.75,-299.38 177.75,-4.38 0,-4.38"/>
</a>
</g>
</g>
<!-- Node1&#45;&gt;Node2 -->
<g id="edge1_Node000001_Node000002" class="edge">
<title>Node1&#45;&gt;Node2</title>
<g id="a_edge1_Node000001_Node000002"><a xlink:title=" ">
<path fill="none" stroke="#63b8ff" d="M145.73,-329.28C142.52,-319.29 139.26,-309.19 136.02,-299.13"/>
<polygon fill="none" stroke="#63b8ff" points="142.35,-330.18 148.74,-338.62 149.01,-328.03 142.35,-330.18"/>
</a>
</g>
</g>
<!-- Node3 -->
<g id="Node000003" class="node">
<title>Node3</title>
<g id="a_Node000003"><a xlink:href="classnixoncpp_1_1assets_1_1AssetManager.html" target="_top" xlink:title=" ">
<polygon fill="white" stroke="none" points="382.25,-303.75 195.5,-303.75 195.5,0 382.25,0 382.25,-303.75"/>
<text text-anchor="start" x="210.5" y="-290.25" font-family="Helvetica,sans-Serif" font-size="10.00">nixoncpp::assets::AssetManager</text>
<text text-anchor="start" x="287.38" y="-273.5" font-family="Helvetica,sans-Serif" font-size="10.00"> </text>
<text text-anchor="start" x="199.5" y="-256.75" font-family="Helvetica,sans-Serif" font-size="10.00">+</text>
<text text-anchor="start" x="211.75" y="-256.75" font-family="Helvetica,sans-Serif" font-size="10.00">AssetManager(std::</text>
<text text-anchor="start" x="211.75" y="-244" font-family="Helvetica,sans-Serif" font-size="10.00">filesystem::path assetsPath)</text>
<text text-anchor="start" x="199.5" y="-227.25" font-family="Helvetica,sans-Serif" font-size="10.00">+</text>
<text text-anchor="start" x="211.75" y="-227.25" font-family="Helvetica,sans-Serif" font-size="10.00">const std::filesystem</text>
<text text-anchor="start" x="211.75" y="-214.5" font-family="Helvetica,sans-Serif" font-size="10.00">::path &amp; getAssetsPath</text>
<text text-anchor="start" x="211.75" y="-201.75" font-family="Helvetica,sans-Serif" font-size="10.00">() const override</text>
<text text-anchor="start" x="199.5" y="-185" font-family="Helvetica,sans-Serif" font-size="10.00">+</text>
<text text-anchor="start" x="211.75" y="-185" font-family="Helvetica,sans-Serif" font-size="10.00">std::filesystem::path</text>
<text text-anchor="start" x="211.75" y="-172.25" font-family="Helvetica,sans-Serif" font-size="10.00"> resolveAsset(const std</text>
<text text-anchor="start" x="211.75" y="-159.5" font-family="Helvetica,sans-Serif" font-size="10.00">::filesystem::path &amp;relativePath)</text>
<text text-anchor="start" x="211.75" y="-146.75" font-family="Helvetica,sans-Serif" font-size="10.00"> const override</text>
<text text-anchor="start" x="199.5" y="-130" font-family="Helvetica,sans-Serif" font-size="10.00">+</text>
<text text-anchor="start" x="211.75" y="-130" font-family="Helvetica,sans-Serif" font-size="10.00">bool assetExists(const</text>
<text text-anchor="start" x="211.75" y="-117.25" font-family="Helvetica,sans-Serif" font-size="10.00"> std::filesystem::path</text>
<text text-anchor="start" x="211.75" y="-104.5" font-family="Helvetica,sans-Serif" font-size="10.00"> &amp;relativePath) const override</text>
<text text-anchor="start" x="199.5" y="-87.75" font-family="Helvetica,sans-Serif" font-size="10.00">+</text>
<text text-anchor="start" x="211.75" y="-87.75" font-family="Helvetica,sans-Serif" font-size="10.00">bool validate() const</text>
<text text-anchor="start" x="211.75" y="-75" font-family="Helvetica,sans-Serif" font-size="10.00"> override</text>
<text text-anchor="start" x="199.5" y="-58.25" font-family="Helvetica,sans-Serif" font-size="10.00">+</text>
<text text-anchor="start" x="211.75" y="-58.25" font-family="Helvetica,sans-Serif" font-size="10.00">static std::unique</text>
<text text-anchor="start" x="211.75" y="-45.5" font-family="Helvetica,sans-Serif" font-size="10.00">_ptr&lt; IAssetManager</text>
<text text-anchor="start" x="211.75" y="-32.75" font-family="Helvetica,sans-Serif" font-size="10.00"> &gt; create(const std::</text>
<text text-anchor="start" x="211.75" y="-20" font-family="Helvetica,sans-Serif" font-size="10.00">filesystem::path &amp;executable</text>
<text text-anchor="start" x="211.75" y="-7.25" font-family="Helvetica,sans-Serif" font-size="10.00">Path, const std::string &amp;appName)</text>
<polygon fill="#666666" stroke="#666666" points="195.5,-285 195.5,-285 382.25,-285 382.25,-285 195.5,-285"/>
<polygon fill="#666666" stroke="#666666" points="195.5,-268.25 195.5,-268.25 382.25,-268.25 382.25,-268.25 195.5,-268.25"/>
<polygon fill="none" stroke="#666666" points="195.5,0 195.5,-303.75 382.25,-303.75 382.25,0 195.5,0"/>
</a>
</g>
</g>
<!-- Node1&#45;&gt;Node3 -->
<g id="edge2_Node000001_Node000003" class="edge">
<title>Node1&#45;&gt;Node3</title>
<g id="a_edge2_Node000001_Node000003"><a xlink:title=" ">
<path fill="none" stroke="#63b8ff" d="M232.01,-329.3C234.76,-320.76 237.54,-312.13 240.32,-303.53"/>
<polygon fill="none" stroke="#63b8ff" points="228.74,-328.03 229.01,-338.62 235.4,-330.18 228.74,-328.03"/>
</a>
</g>
</g>
</g>
</svg>

<g id="navigator" transform="translate(0 0)" fill="#404254">
  <rect fill="#f2f5e9" fill-opacity="0.5" stroke="#606060" stroke-width=".5" x="0" y="0" width="60" height="60"/>
  <use id="zoomplus" xlink:href="#zoomPlus" x="17" y="9" onmousedown="handleZoom(evt,'in')"/>
  <use id="zoomminus" xlink:href="#zoomMin" x="42" y="9" onmousedown="handleZoom(evt,'out')"/>
  <use id="reset" xlink:href="#resetDef" x="30" y="36" onmousedown="handleReset()"/>
   <use id="arrowup" xlink:href="#arrowUp" x="0" y="0" onmousedown="handlePan(0,-1)"/>
  <use id="arrowright" xlink:href="#arrowRight" x="0" y="0" onmousedown="handlePan(1,0)"/>
  <use id="arrowdown" xlink:href="#arrowDown" x="0" y="0" onmousedown="handlePan(0,1)"/>
  <use id="arrowleft" xlink:href="#arrowLeft" x="0" y="0" onmousedown="handlePan(-1,0)"/>
</g>
<svg viewBox="0 0 15 15" width="100%" height="30px" preserveAspectRatio="xMaxYMin meet">
 <g id="arrow_out" transform="scale(0.3 0.3)">
  <a xlink:href="classnixoncpp_1_1assets_1_1IAssetManager__inherit__graph_org.svg" target="_base">
   <rect id="button" ry="5" rx="5" y="6" x="6" height="38" width="38"
        fill="#f2f5e9" fill-opacity="0.5" stroke="#606060" stroke-width="1.0"/>
   <path id="arrow"
     d="M 11.500037,31.436501 C 11.940474,20.09759 22.043105,11.32322 32.158766,21.979434 L 37.068811,17.246167 C 37.068811,17.246167 37.088388,32 37.088388,32 L 22.160133,31.978069 C 22.160133,31.978069 26.997745,27.140456 26.997745,27.140456 C 18.528582,18.264221 13.291696,25.230495 11.500037,31.436501 z"
     style="fill:#404040;"/>
  </a>
 </g>
</svg>

<style type='text/css'>
<![CDATA[
[data-mouse-over-selected='false'] { opacity: 0.7; }
[data-mouse-over-selected='true']  { opacity: 1.0; }
]]>
</style>
<script type="application/ecmascript"><![CDATA[
document.addEventListener('DOMContentLoaded', (event) => {
  highlightEdges();
  highlightAdjacentNodes();
});
]]></script>
</svg>
