<?xml version="1.0" encoding="UTF-8" standalone="no"?>
<!DOCTYPE svg PUBLIC "-//W3C//DTD SVG 1.1//EN"
 "http://www.w3.org/Graphics/SVG/1.1/DTD/svg11.dtd">
<!-- Generated by graphviz version 12.2.1 (0)
 -->
<!-- Title: ConsoleLoggerTest Pages: 1 -->
<svg width="151pt" height="182pt"
 viewBox="0.00 0.00 151.25 182.00" xmlns="http://www.w3.org/2000/svg" xmlns:xlink="http://www.w3.org/1999/xlink">
<g id="graph0" class="graph" transform="scale(1 1) rotate(0) translate(4 178)">
<title>ConsoleLoggerTest</title>
<!-- Node1 -->
<g id="Node000001" class="node">
<title>Node1</title>
<g id="a_Node000001"><a xlink:title=" ">
<polygon fill="#999999" stroke="none" points="143.25,-83.75 0,-83.75 0,0 143.25,0 143.25,-83.75"/>
<text text-anchor="start" x="25.88" y="-70.25" font-family="Helvetica,sans-Serif" font-size="10.00">ConsoleLoggerTest</text>
<text text-anchor="start" x="4" y="-53.5" font-family="Helvetica,sans-Serif" font-size="10.00">#</text>
<text text-anchor="start" x="16.25" y="-53.5" font-family="Helvetica,sans-Serif" font-size="10.00">std::shared_ptr&lt; Console</text>
<text text-anchor="start" x="16.25" y="-40.75" font-family="Helvetica,sans-Serif" font-size="10.00">Logger &gt; logger</text>
<text text-anchor="start" x="4" y="-24" font-family="Helvetica,sans-Serif" font-size="10.00">#</text>
<text text-anchor="start" x="16.25" y="-24" font-family="Helvetica,sans-Serif" font-size="10.00">void SetUp() override</text>
<text text-anchor="start" x="4" y="-7.25" font-family="Helvetica,sans-Serif" font-size="10.00">#</text>
<text text-anchor="start" x="16.25" y="-7.25" font-family="Helvetica,sans-Serif" font-size="10.00">void TearDown() override</text>
<polygon fill="#666666" stroke="#666666" points="0,-65 0,-65 143.25,-65 143.25,-65 0,-65"/>
<polygon fill="#666666" stroke="#666666" points="0,-35.5 0,-35.5 14.25,-35.5 14.25,-35.5 0,-35.5"/>
<polygon fill="#666666" stroke="#666666" points="14.25,-35.5 14.25,-35.5 143.25,-35.5 143.25,-35.5 14.25,-35.5"/>
<polygon fill="none" stroke="#666666" points="0,0 0,-83.75 143.25,-83.75 143.25,0 0,0"/>
</a>
</g>
</g>
<!-- Node2 -->
<g id="Node000002" class="node">
<title>Node2</title>
<g id="a_Node000002"><a xlink:title=" ">
<polygon fill="white" stroke="none" points="105.25,-174 38,-174 38,-119.75 105.25,-119.75 105.25,-174"/>
<text text-anchor="start" x="42" y="-160.5" font-family="Helvetica,sans-Serif" font-size="10.00">testing::Test</text>
<text text-anchor="start" x="70.12" y="-143.75" font-family="Helvetica,sans-Serif" font-size="10.00"> </text>
<text text-anchor="start" x="70.12" y="-127" font-family="Helvetica,sans-Serif" font-size="10.00"> </text>
<polygon fill="#666666" stroke="#666666" points="38,-155.25 38,-155.25 105.25,-155.25 105.25,-155.25 38,-155.25"/>
<polygon fill="#666666" stroke="#666666" points="38,-138.5 38,-138.5 105.25,-138.5 105.25,-138.5 38,-138.5"/>
<polygon fill="none" stroke="#666666" points="38,-119.75 38,-174 105.25,-174 105.25,-119.75 38,-119.75"/>
</a>
</g>
</g>
<!-- Node2&#45;&gt;Node1 -->
<g id="edge1_Node000001_Node000002" class="edge">
<title>Node2&#45;&gt;Node1</title>
<g id="a_edge1_Node000001_Node000002"><a xlink:title=" ">
<path fill="none" stroke="#63b8ff" d="M71.62,-108.53C71.62,-100.46 71.62,-91.89 71.62,-83.69"/>
<polygon fill="none" stroke="#63b8ff" points="68.13,-108.37 71.63,-118.37 75.13,-108.37 68.13,-108.37"/>
</a>
</g>
</g>
</g>
</svg>
