<?xml version="1.0" encoding="UTF-8" standalone="no"?>
<!DOCTYPE svg PUBLIC "-//W3C//DTD SVG 1.1//EN"
 "http://www.w3.org/Graphics/SVG/1.1/DTD/svg11.dtd">
<!-- Generated by graphviz version 12.2.1 (0)
 -->
<!-- Title: nixoncpp::utils::WindowsPlatformInfo::WindowsPlatformInfo Pages: 1 -->
<svg width="420pt" height="198pt"
 viewBox="0.00 0.00 419.50 197.50" xmlns="http://www.w3.org/2000/svg" xmlns:xlink="http://www.w3.org/1999/xlink">
<g id="graph0" class="graph" transform="scale(1 1) rotate(0) translate(4 193.5)">
<title>nixoncpp::utils::WindowsPlatformInfo::WindowsPlatformInfo</title>
<!-- Node1 -->
<g id="Node000001" class="node">
<title>Node1</title>
<g id="a_Node000001"><a xlink:title=" ">
<polygon fill="#999999" stroke="#666666" points="411.5,-111.5 223.75,-111.5 223.75,-78 411.5,-78 411.5,-111.5"/>
<text text-anchor="start" x="231.75" y="-98" font-family="Helvetica,sans-Serif" font-size="10.00">nixoncpp::utils::Windows</text>
<text text-anchor="middle" x="317.62" y="-85.25" font-family="Helvetica,sans-Serif" font-size="10.00">PlatformInfo::WindowsPlatformInfo</text>
</a>
</g>
</g>
<!-- Node2 -->
<g id="Node000002" class="node">
<title>Node2</title>
<g id="a_Node000002"><a xlink:href="classnixoncpp_1_1utils_1_1WindowsPlatformInfo.html#ac5da57b8625b1c1db12b8d5e7fea04a8" target="_top" xlink:title=" ">
<polygon fill="white" stroke="#666666" points="162.25,-189.5 25.5,-189.5 25.5,-156 162.25,-156 162.25,-189.5"/>
<text text-anchor="start" x="33.5" y="-176" font-family="Helvetica,sans-Serif" font-size="10.00">nixoncpp::utils::Windows</text>
<text text-anchor="middle" x="93.88" y="-163.25" font-family="Helvetica,sans-Serif" font-size="10.00">PlatformInfo::operator=</text>
</a>
</g>
</g>
<!-- Node1&#45;&gt;Node2 -->
<g id="edge1_Node000001_Node000002" class="edge">
<title>Node1&#45;&gt;Node2</title>
<g id="a_edge1_Node000001_Node000002"><a xlink:title=" ">
<path fill="none" stroke="#63b8ff" d="M266.78,-116.36C243.07,-126.25 214.19,-137.75 187.75,-146.75 178.72,-149.83 169.1,-152.82 159.61,-155.62"/>
<polygon fill="#63b8ff" stroke="#63b8ff" points="268.03,-119.63 275.89,-112.53 265.31,-113.18 268.03,-119.63"/>
</a>
</g>
</g>
<!-- Node3 -->
<g id="Node000003" class="node">
<title>Node3</title>
<g id="a_Node000003"><a xlink:href="classnixoncpp_1_1utils_1_1WindowsPlatformInfo.html#a362a93a28ede146c17f475cdfdf5e673" target="_top" xlink:title=" ">
<polygon fill="white" stroke="#666666" points="162.25,-137.5 25.5,-137.5 25.5,-104 162.25,-104 162.25,-137.5"/>
<text text-anchor="start" x="33.5" y="-124" font-family="Helvetica,sans-Serif" font-size="10.00">nixoncpp::utils::Windows</text>
<text text-anchor="middle" x="93.88" y="-111.25" font-family="Helvetica,sans-Serif" font-size="10.00">PlatformInfo::operator=</text>
</a>
</g>
</g>
<!-- Node1&#45;&gt;Node3 -->
<g id="edge2_Node000001_Node000003" class="edge">
<title>Node1&#45;&gt;Node3</title>
<g id="a_edge2_Node000001_Node000003"><a xlink:title=" ">
<path fill="none" stroke="#63b8ff" d="M212.43,-106.97C195.44,-108.96 178.24,-110.98 162.44,-112.83"/>
<polygon fill="#63b8ff" stroke="#63b8ff" points="212.52,-110.48 222.04,-105.84 211.7,-103.53 212.52,-110.48"/>
</a>
</g>
</g>
<!-- Node4 -->
<g id="Node000004" class="node">
<title>Node4</title>
<g id="a_Node000004"><a xlink:href="classnixoncpp_1_1utils_1_1WindowsPlatformInfo.html#a8e2d922c24c3be76060b51820e862356" target="_top" xlink:title=" ">
<polygon fill="white" stroke="#666666" points="187.75,-85.5 0,-85.5 0,-52 187.75,-52 187.75,-85.5"/>
<text text-anchor="start" x="8" y="-72" font-family="Helvetica,sans-Serif" font-size="10.00">nixoncpp::utils::Windows</text>
<text text-anchor="middle" x="93.88" y="-59.25" font-family="Helvetica,sans-Serif" font-size="10.00">PlatformInfo::WindowsPlatformInfo</text>
</a>
</g>
</g>
<!-- Node1&#45;&gt;Node4 -->
<g id="edge3_Node000001_Node000004" class="edge">
<title>Node1&#45;&gt;Node4</title>
<g id="a_edge3_Node000001_Node000004"><a xlink:title=" ">
<path fill="none" stroke="#63b8ff" d="M212.21,-82.51C204.15,-81.56 196.05,-80.61 188.07,-79.68"/>
<polygon fill="#63b8ff" stroke="#63b8ff" points="211.7,-85.97 222.04,-83.66 212.52,-79.02 211.7,-85.97"/>
</a>
</g>
</g>
<!-- Node5 -->
<g id="Node000005" class="node">
<title>Node5</title>
<g id="a_Node000005"><a xlink:href="classnixoncpp_1_1utils_1_1WindowsPlatformInfo.html#a9b2eb7a6af2eef56136e5c5b3e6d061f" target="_top" xlink:title=" ">
<polygon fill="white" stroke="#666666" points="187.75,-33.5 0,-33.5 0,0 187.75,0 187.75,-33.5"/>
<text text-anchor="start" x="8" y="-20" font-family="Helvetica,sans-Serif" font-size="10.00">nixoncpp::utils::Windows</text>
<text text-anchor="middle" x="93.88" y="-7.25" font-family="Helvetica,sans-Serif" font-size="10.00">PlatformInfo::WindowsPlatformInfo</text>
</a>
</g>
</g>
<!-- Node1&#45;&gt;Node5 -->
<g id="edge4_Node000001_Node000005" class="edge">
<title>Node1&#45;&gt;Node5</title>
<g id="a_edge4_Node000001_Node000005"><a xlink:title=" ">
<path fill="none" stroke="#63b8ff" d="M266.78,-73.14C243.07,-63.25 214.19,-51.75 187.75,-42.75 178.72,-39.67 169.1,-36.68 159.61,-33.88"/>
<polygon fill="#63b8ff" stroke="#63b8ff" points="265.31,-76.32 275.89,-76.97 268.03,-69.87 265.31,-76.32"/>
</a>
</g>
</g>
</g>
</svg>
