<?xml version="1.0" encoding="UTF-8" standalone="no"?>
<!DOCTYPE svg PUBLIC "-//W3C//DTD SVG 1.1//EN"
 "http://www.w3.org/Graphics/SVG/1.1/DTD/svg11.dtd">
<!-- Generated by graphviz version 12.2.1 (0)
 -->
<!-- Title: nixoncpp::utils::CustomStringsLoader::CustomStringsLoader Pages: 1 -->
<svg width="372pt" height="198pt"
 viewBox="0.00 0.00 371.50 197.50" xmlns="http://www.w3.org/2000/svg" xmlns:xlink="http://www.w3.org/1999/xlink">

<svg id="main" version="1.1" xmlns="http://www.w3.org/2000/svg" xmlns:xlink="http://www.w3.org/1999/xlink" xml:space="preserve">

<style type="text/css"><![CDATA[
.node, .edge {opacity: 0.7;}
.node.selected, .edge.selected {opacity: 1;}
.edge:hover path { stroke: red; }
.edge:hover polygon { stroke: red; fill: red; }
]]></style>
<script type="application/ecmascript" xlink:href="svg.min.js"/>
<svg id="graph" class="graph">
<g id="graph0" class="graph" transform="scale(1 1) rotate(0) translate(4 193.5)">
<title>nixoncpp::utils::CustomStringsLoader::CustomStringsLoader</title>
<!-- Node1 -->
<g id="Node000001" class="node">
<title>Node1</title>
<g id="a_Node000001"><a xlink:title=" ">
<polygon fill="#999999" stroke="#666666" points="363.5,-111.5 199.75,-111.5 199.75,-78 363.5,-78 363.5,-111.5"/>
<text text-anchor="start" x="207.75" y="-98" font-family="Helvetica,sans-Serif" font-size="10.00">nixoncpp::utils::CustomStrings</text>
<text text-anchor="middle" x="281.62" y="-85.25" font-family="Helvetica,sans-Serif" font-size="10.00">Loader::CustomStringsLoader</text>
</a>
</g>
</g>
<!-- Node2 -->
<g id="Node000002" class="node">
<title>Node2</title>
<g id="a_Node000002"><a xlink:href="classnixoncpp_1_1utils_1_1CustomStringsLoader.html#a1f372fffd199b65dbfff9a9c6eb19408" target="_top" xlink:title=" ">
<polygon fill="white" stroke="#666666" points="163.75,-189.5 0,-189.5 0,-156 163.75,-156 163.75,-189.5"/>
<text text-anchor="start" x="8" y="-176" font-family="Helvetica,sans-Serif" font-size="10.00">nixoncpp::utils::CustomStrings</text>
<text text-anchor="middle" x="81.88" y="-163.25" font-family="Helvetica,sans-Serif" font-size="10.00">Loader::CustomStringsLoader</text>
</a>
</g>
</g>
<!-- Node1&#45;&gt;Node2 -->
<g id="edge1_Node000001_Node000002" class="edge">
<title>Node1&#45;&gt;Node2</title>
<g id="a_edge1_Node000001_Node000002"><a xlink:title=" ">
<path fill="none" stroke="#63b8ff" d="M234.34,-116.72C213.06,-126.46 187.36,-137.73 163.75,-146.75 155.76,-149.8 147.24,-152.81 138.84,-155.63"/>
<polygon fill="#63b8ff" stroke="#63b8ff" points="235.73,-119.93 243.35,-112.56 232.8,-113.58 235.73,-119.93"/>
</a>
</g>
</g>
<!-- Node3 -->
<g id="Node000003" class="node">
<title>Node3</title>
<g id="a_Node000003"><a xlink:href="classnixoncpp_1_1utils_1_1CustomStringsLoader.html#afcde7a38e68646f9466b020b7a9458b8" target="_top" xlink:title=" ">
<polygon fill="white" stroke="#666666" points="163.75,-137.5 0,-137.5 0,-104 163.75,-104 163.75,-137.5"/>
<text text-anchor="start" x="8" y="-124" font-family="Helvetica,sans-Serif" font-size="10.00">nixoncpp::utils::CustomStrings</text>
<text text-anchor="middle" x="81.88" y="-111.25" font-family="Helvetica,sans-Serif" font-size="10.00">Loader::CustomStringsLoader</text>
</a>
</g>
</g>
<!-- Node1&#45;&gt;Node3 -->
<g id="edge2_Node000001_Node000003" class="edge">
<title>Node1&#45;&gt;Node3</title>
<g id="a_edge2_Node000001_Node000003"><a xlink:title=" ">
<path fill="none" stroke="#63b8ff" d="M188.1,-106.92C180.11,-107.97 172.06,-109.02 164.17,-110.06"/>
<polygon fill="#63b8ff" stroke="#63b8ff" points="188.38,-110.41 197.84,-105.64 187.46,-103.47 188.38,-110.41"/>
</a>
</g>
</g>
<!-- Node4 -->
<g id="Node000004" class="node">
<title>Node4</title>
<g id="a_Node000004"><a xlink:href="classnixoncpp_1_1utils_1_1CustomStringsLoader.html#adb7bd52a3cb4c52b397f479ba617b9c0" target="_top" xlink:title=" ">
<polygon fill="white" stroke="#666666" points="163.75,-85.5 0,-85.5 0,-52 163.75,-52 163.75,-85.5"/>
<text text-anchor="start" x="8" y="-72" font-family="Helvetica,sans-Serif" font-size="10.00">nixoncpp::utils::CustomStrings</text>
<text text-anchor="middle" x="81.88" y="-59.25" font-family="Helvetica,sans-Serif" font-size="10.00">Loader::operator=</text>
</a>
</g>
</g>
<!-- Node1&#45;&gt;Node4 -->
<g id="edge3_Node000001_Node000004" class="edge">
<title>Node1&#45;&gt;Node4</title>
<g id="a_edge3_Node000001_Node000004"><a xlink:title=" ">
<path fill="none" stroke="#63b8ff" d="M188.1,-82.58C180.11,-81.53 172.06,-80.48 164.17,-79.44"/>
<polygon fill="#63b8ff" stroke="#63b8ff" points="187.46,-86.03 197.84,-83.86 188.38,-79.09 187.46,-86.03"/>
</a>
</g>
</g>
<!-- Node5 -->
<g id="Node000005" class="node">
<title>Node5</title>
<g id="a_Node000005"><a xlink:href="classnixoncpp_1_1utils_1_1CustomStringsLoader.html#a9b3c0aa0cb9d7a2985ffd32d06dad2ad" target="_top" xlink:title=" ">
<polygon fill="white" stroke="#666666" points="163.75,-33.5 0,-33.5 0,0 163.75,0 163.75,-33.5"/>
<text text-anchor="start" x="8" y="-20" font-family="Helvetica,sans-Serif" font-size="10.00">nixoncpp::utils::CustomStrings</text>
<text text-anchor="middle" x="81.88" y="-7.25" font-family="Helvetica,sans-Serif" font-size="10.00">Loader::operator=</text>
</a>
</g>
</g>
<!-- Node1&#45;&gt;Node5 -->
<g id="edge4_Node000001_Node000005" class="edge">
<title>Node1&#45;&gt;Node5</title>
<g id="a_edge4_Node000001_Node000005"><a xlink:title=" ">
<path fill="none" stroke="#63b8ff" d="M234.34,-72.78C213.06,-63.04 187.36,-51.77 163.75,-42.75 155.76,-39.7 147.24,-36.69 138.84,-33.87"/>
<polygon fill="#63b8ff" stroke="#63b8ff" points="232.8,-75.92 243.35,-76.94 235.73,-69.57 232.8,-75.92"/>
</a>
</g>
</g>
</g>
</svg>
</svg>

<style type='text/css'>
<![CDATA[
[data-mouse-over-selected='false'] { opacity: 0.7; }
[data-mouse-over-selected='true']  { opacity: 1.0; }
]]>
</style>
<script type="application/ecmascript"><![CDATA[
document.addEventListener('DOMContentLoaded', (event) => {
  highlightEdges();
  highlightAdjacentNodes();
});
]]></script>
</svg>
