<?xml version="1.0" encoding="UTF-8" standalone="no"?>
<!DOCTYPE svg PUBLIC "-//W3C//DTD SVG 1.1//EN"
 "http://www.w3.org/Graphics/SVG/1.1/DTD/svg11.dtd">
<!-- Generated by graphviz version 12.2.1 (0)
 -->
<!-- Title: MockAssetManager::validate Pages: 1 -->
<svg width="242pt" height="68pt"
 viewBox="0.00 0.00 241.75 67.75" xmlns="http://www.w3.org/2000/svg" xmlns:xlink="http://www.w3.org/1999/xlink">
<g id="graph0" class="graph" transform="scale(1 1) rotate(0) translate(4 63.75)">
<title>MockAssetManager::validate</title>
<!-- Node1 -->
<g id="Node000001" class="node">
<title>Node1</title>
<g id="a_Node000001"><a xlink:title="Validate the asset manager configuration.">
<polygon fill="#999999" stroke="#666666" points="233.75,-39.75 76,-39.75 76,-19 233.75,-19 233.75,-39.75"/>
<text text-anchor="middle" x="154.88" y="-26.25" font-family="Helvetica,sans-Serif" font-size="10.00">MockAssetManager::validate</text>
</a>
</g>
</g>
<!-- Node2 -->
<g id="Node000002" class="node">
<title>Node2</title>
<g id="a_Node000002"><a xlink:href="AssetManagerTest_8cpp.html#a2101e2c74d1ca5ddb1868403a1cde944" target="_top" xlink:title=" ">
<polygon fill="white" stroke="#666666" points="40,-59.75 0,-59.75 0,-39 40,-39 40,-59.75"/>
<text text-anchor="middle" x="20" y="-46.25" font-family="Helvetica,sans-Serif" font-size="10.00">TEST</text>
</a>
</g>
</g>
<!-- Node1&#45;&gt;Node2 -->
<g id="edge1_Node000001_Node000002" class="edge">
<title>Node1&#45;&gt;Node2</title>
<g id="a_edge1_Node000001_Node000002"><a xlink:title=" ">
<path fill="none" stroke="#63b8ff" d="M70.91,-41.86C59.53,-43.58 48.84,-45.19 40.29,-46.47"/>
<polygon fill="#63b8ff" stroke="#63b8ff" points="71.13,-45.37 80.5,-40.42 70.09,-38.45 71.13,-45.37"/>
</a>
</g>
</g>
<!-- Node3 -->
<g id="Node000003" class="node">
<title>Node3</title>
<g id="a_Node000003"><a xlink:href="AssetManagerTest_8cpp.html#a3aa74e2606d541a5e1427239d1ff2552" target="_top" xlink:title=" ">
<polygon fill="white" stroke="#666666" points="40,-20.75 0,-20.75 0,0 40,0 40,-20.75"/>
<text text-anchor="middle" x="20" y="-7.25" font-family="Helvetica,sans-Serif" font-size="10.00">TEST</text>
</a>
</g>
</g>
<!-- Node1&#45;&gt;Node3 -->
<g id="edge2_Node000001_Node000003" class="edge">
<title>Node1&#45;&gt;Node3</title>
<g id="a_edge2_Node000001_Node000003"><a xlink:title=" ">
<path fill="none" stroke="#63b8ff" d="M66.83,-16.93C57.03,-15.53 47.89,-14.22 40.39,-13.15"/>
<polygon fill="#63b8ff" stroke="#63b8ff" points="66.23,-20.38 76.62,-18.33 67.22,-13.45 66.23,-20.38"/>
</a>
</g>
</g>
</g>
</svg>
