<?xml version="1.0" encoding="UTF-8" standalone="no"?>
<!DOCTYPE svg PUBLIC "-//W3C//DTD SVG 1.1//EN"
 "http://www.w3.org/Graphics/SVG/1.1/DTD/svg11.dtd">
<!-- Generated by graphviz version 12.2.1 (0)
 -->
<!-- Title: nixoncpp::utils::FileReader::readLines Pages: 1 -->
<svg width="240pt" height="185pt"
 viewBox="0.00 0.00 239.50 184.75" xmlns="http://www.w3.org/2000/svg" xmlns:xlink="http://www.w3.org/1999/xlink">
<g id="graph0" class="graph" transform="scale(1 1) rotate(0) translate(4 180.75)">
<title>nixoncpp::utils::FileReader::readLines</title>
<!-- Node1 -->
<g id="Node000001" class="node">
<title>Node1</title>
<g id="a_Node000001"><a xlink:title="Read the content of a file as a vector of lines.">
<polygon fill="#999999" stroke="#666666" points="231.5,-105.12 87.25,-105.12 87.25,-71.62 231.5,-71.62 231.5,-105.12"/>
<text text-anchor="start" x="95.25" y="-91.62" font-family="Helvetica,sans-Serif" font-size="10.00">nixoncpp::utils::FileReader</text>
<text text-anchor="middle" x="159.38" y="-78.88" font-family="Helvetica,sans-Serif" font-size="10.00">::readLines</text>
</a>
</g>
</g>
<!-- Node2 -->
<g id="Node000002" class="node">
<title>Node2</title>
<g id="a_Node000002"><a xlink:href="FileReaderTest_8cpp.html#a9b0935502ec20a7a0bff59806175b1bd" target="_top" xlink:title=" ">
<polygon fill="white" stroke="#666666" points="51.25,-176.75 0,-176.75 0,-156 51.25,-156 51.25,-176.75"/>
<text text-anchor="middle" x="25.62" y="-163.25" font-family="Helvetica,sans-Serif" font-size="10.00">TEST_F</text>
</a>
</g>
</g>
<!-- Node1&#45;&gt;Node2 -->
<g id="edge1_Node000001_Node000002" class="edge">
<title>Node1&#45;&gt;Node2</title>
<g id="a_edge1_Node000001_Node000002"><a xlink:title=" ">
<path fill="none" stroke="#63b8ff" d="M119.66,-111.29C94.99,-125.9 64.16,-144.15 44.92,-155.54"/>
<polygon fill="#63b8ff" stroke="#63b8ff" points="121.34,-114.37 128.16,-106.26 117.77,-108.35 121.34,-114.37"/>
</a>
</g>
</g>
<!-- Node3 -->
<g id="Node000003" class="node">
<title>Node3</title>
<g id="a_Node000003"><a xlink:href="FileReaderTest_8cpp.html#ab503fd3a6ccb7f566d10e228dcc10220" target="_top" xlink:title=" ">
<polygon fill="white" stroke="#666666" points="51.25,-137.75 0,-137.75 0,-117 51.25,-117 51.25,-137.75"/>
<text text-anchor="middle" x="25.62" y="-124.25" font-family="Helvetica,sans-Serif" font-size="10.00">TEST_F</text>
</a>
</g>
</g>
<!-- Node1&#45;&gt;Node3 -->
<g id="edge2_Node000001_Node000003" class="edge">
<title>Node1&#45;&gt;Node3</title>
<g id="a_edge2_Node000001_Node000003"><a xlink:title=" ">
<path fill="none" stroke="#63b8ff" d="M89.34,-108.81C75.78,-112.83 62.4,-116.79 51.5,-120.01"/>
<polygon fill="#63b8ff" stroke="#63b8ff" points="90.16,-112.22 98.75,-106.02 88.17,-105.51 90.16,-112.22"/>
</a>
</g>
</g>
<!-- Node4 -->
<g id="Node000004" class="node">
<title>Node4</title>
<g id="a_Node000004"><a xlink:href="FileReaderTest_8cpp.html#a2cc61af8fe98e0ebcdc58770c630b5d5" target="_top" xlink:title=" ">
<polygon fill="white" stroke="#666666" points="51.25,-98.75 0,-98.75 0,-78 51.25,-78 51.25,-98.75"/>
<text text-anchor="middle" x="25.62" y="-85.25" font-family="Helvetica,sans-Serif" font-size="10.00">TEST_F</text>
</a>
</g>
</g>
<!-- Node1&#45;&gt;Node4 -->
<g id="edge3_Node000001_Node000004" class="edge">
<title>Node1&#45;&gt;Node4</title>
<g id="a_edge3_Node000001_Node000004"><a xlink:title=" ">
<path fill="none" stroke="#63b8ff" d="M75.59,-88.38C66.98,-88.38 58.78,-88.38 51.64,-88.38"/>
<polygon fill="#63b8ff" stroke="#63b8ff" points="75.59,-91.88 85.59,-88.38 75.59,-84.88 75.59,-91.88"/>
</a>
</g>
</g>
<!-- Node5 -->
<g id="Node000005" class="node">
<title>Node5</title>
<g id="a_Node000005"><a xlink:href="FileReaderTest_8cpp.html#afe02515e25d8735533b0b4f9a8ab6437" target="_top" xlink:title=" ">
<polygon fill="white" stroke="#666666" points="51.25,-59.75 0,-59.75 0,-39 51.25,-39 51.25,-59.75"/>
<text text-anchor="middle" x="25.62" y="-46.25" font-family="Helvetica,sans-Serif" font-size="10.00">TEST_F</text>
</a>
</g>
</g>
<!-- Node1&#45;&gt;Node5 -->
<g id="edge4_Node000001_Node000005" class="edge">
<title>Node1&#45;&gt;Node5</title>
<g id="a_edge4_Node000001_Node000005"><a xlink:title=" ">
<path fill="none" stroke="#63b8ff" d="M89.34,-67.94C75.78,-63.92 62.4,-59.96 51.5,-56.74"/>
<polygon fill="#63b8ff" stroke="#63b8ff" points="88.17,-71.24 98.75,-70.73 90.16,-64.53 88.17,-71.24"/>
</a>
</g>
</g>
<!-- Node6 -->
<g id="Node000006" class="node">
<title>Node6</title>
<g id="a_Node000006"><a xlink:href="FileReaderTest_8cpp.html#a1d1de7e2e36b4c5bb4d58fd86447a38f" target="_top" xlink:title=" ">
<polygon fill="white" stroke="#666666" points="51.25,-20.75 0,-20.75 0,0 51.25,0 51.25,-20.75"/>
<text text-anchor="middle" x="25.62" y="-7.25" font-family="Helvetica,sans-Serif" font-size="10.00">TEST_F</text>
</a>
</g>
</g>
<!-- Node1&#45;&gt;Node6 -->
<g id="edge5_Node000001_Node000006" class="edge">
<title>Node1&#45;&gt;Node6</title>
<g id="a_edge5_Node000001_Node000006"><a xlink:title=" ">
<path fill="none" stroke="#63b8ff" d="M119.66,-65.46C94.99,-50.85 64.16,-32.6 44.92,-21.21"/>
<polygon fill="#63b8ff" stroke="#63b8ff" points="117.77,-68.4 128.16,-70.49 121.34,-62.38 117.77,-68.4"/>
</a>
</g>
</g>
</g>
</svg>
