<?xml version="1.0" encoding="UTF-8" standalone="no"?>
<!DOCTYPE svg PUBLIC "-//W3C//DTD SVG 1.1//EN"
 "http://www.w3.org/Graphics/SVG/1.1/DTD/svg11.dtd">
<!-- Generated by graphviz version 12.2.1 (0)
 -->
<!-- Title: nixoncpp::logging::ILogger Pages: 1 -->
<svg width="182pt" height="524pt"
 viewBox="0.00 0.00 182.00 524.00" xmlns="http://www.w3.org/2000/svg" xmlns:xlink="http://www.w3.org/1999/xlink">
<g id="graph0" class="graph" transform="scale(1 1) rotate(0) translate(4 520)">
<title>nixoncpp::logging::ILogger</title>
<!-- Node1 -->
<g id="Node000001" class="node">
<title>Node1</title>
<g id="a_Node000001"><a xlink:title=" ">
<polygon fill="#999999" stroke="none" points="174,-413 0,-413 0,0 174,0 174,-413"/>
<text text-anchor="start" x="41.25" y="-399.5" font-family="Helvetica,sans-Serif" font-size="10.00">nixoncpp::logging::</text>
<text text-anchor="start" x="69" y="-386.75" font-family="Helvetica,sans-Serif" font-size="10.00">ILogger</text>
<text text-anchor="start" x="85.5" y="-370" font-family="Helvetica,sans-Serif" font-size="10.00"> </text>
<text text-anchor="start" x="4" y="-353.25" font-family="Helvetica,sans-Serif" font-size="10.00">+</text>
<text text-anchor="start" x="16.25" y="-353.25" font-family="Helvetica,sans-Serif" font-size="10.00">ILogger()=default</text>
<text text-anchor="start" x="4" y="-336.5" font-family="Helvetica,sans-Serif" font-size="10.00">+</text>
<text text-anchor="start" x="16.25" y="-336.5" font-family="Helvetica,sans-Serif" font-size="10.00">virtual ~ILogger()</text>
<text text-anchor="start" x="16.25" y="-323.75" font-family="Helvetica,sans-Serif" font-size="10.00">=default</text>
<text text-anchor="start" x="4" y="-307" font-family="Helvetica,sans-Serif" font-size="10.00">+</text>
<text text-anchor="start" x="16.25" y="-307" font-family="Helvetica,sans-Serif" font-size="10.00">virtual void debug</text>
<text text-anchor="start" x="16.25" y="-294.25" font-family="Helvetica,sans-Serif" font-size="10.00">(const std::string &amp;message,</text>
<text text-anchor="start" x="16.25" y="-281.5" font-family="Helvetica,sans-Serif" font-size="10.00"> const std::string &amp;caller=&quot;&quot;)=0</text>
<text text-anchor="start" x="4" y="-264.75" font-family="Helvetica,sans-Serif" font-size="10.00">+</text>
<text text-anchor="start" x="16.25" y="-264.75" font-family="Helvetica,sans-Serif" font-size="10.00">virtual void info(const</text>
<text text-anchor="start" x="16.25" y="-252" font-family="Helvetica,sans-Serif" font-size="10.00"> std::string &amp;message,</text>
<text text-anchor="start" x="16.25" y="-239.25" font-family="Helvetica,sans-Serif" font-size="10.00"> const std::string &amp;caller=&quot;&quot;)=0</text>
<text text-anchor="start" x="4" y="-222.5" font-family="Helvetica,sans-Serif" font-size="10.00">+</text>
<text text-anchor="start" x="16.25" y="-222.5" font-family="Helvetica,sans-Serif" font-size="10.00">virtual void warning</text>
<text text-anchor="start" x="16.25" y="-209.75" font-family="Helvetica,sans-Serif" font-size="10.00">(const std::string &amp;message,</text>
<text text-anchor="start" x="16.25" y="-197" font-family="Helvetica,sans-Serif" font-size="10.00"> const std::string &amp;caller=&quot;&quot;)=0</text>
<text text-anchor="start" x="4" y="-180.25" font-family="Helvetica,sans-Serif" font-size="10.00">+</text>
<text text-anchor="start" x="16.25" y="-180.25" font-family="Helvetica,sans-Serif" font-size="10.00">virtual void error</text>
<text text-anchor="start" x="16.25" y="-167.5" font-family="Helvetica,sans-Serif" font-size="10.00">(const std::string &amp;message,</text>
<text text-anchor="start" x="16.25" y="-154.75" font-family="Helvetica,sans-Serif" font-size="10.00"> const std::string &amp;caller=&quot;&quot;)=0</text>
<text text-anchor="start" x="4" y="-138" font-family="Helvetica,sans-Serif" font-size="10.00">+</text>
<text text-anchor="start" x="16.25" y="-138" font-family="Helvetica,sans-Serif" font-size="10.00">virtual void critical</text>
<text text-anchor="start" x="16.25" y="-125.25" font-family="Helvetica,sans-Serif" font-size="10.00">(const std::string &amp;message,</text>
<text text-anchor="start" x="16.25" y="-112.5" font-family="Helvetica,sans-Serif" font-size="10.00"> const std::string &amp;caller=&quot;&quot;)=0</text>
<text text-anchor="start" x="4" y="-95.75" font-family="Helvetica,sans-Serif" font-size="10.00">+</text>
<text text-anchor="start" x="16.25" y="-95.75" font-family="Helvetica,sans-Serif" font-size="10.00">virtual void setLevel</text>
<text text-anchor="start" x="16.25" y="-83" font-family="Helvetica,sans-Serif" font-size="10.00">(Level level)=0</text>
<text text-anchor="start" x="4" y="-66.25" font-family="Helvetica,sans-Serif" font-size="10.00">+</text>
<text text-anchor="start" x="16.25" y="-66.25" font-family="Helvetica,sans-Serif" font-size="10.00">virtual Level getLevel</text>
<text text-anchor="start" x="16.25" y="-53.5" font-family="Helvetica,sans-Serif" font-size="10.00">() const =0</text>
<text text-anchor="start" x="4" y="-36.75" font-family="Helvetica,sans-Serif" font-size="10.00">+</text>
<text text-anchor="start" x="16.25" y="-36.75" font-family="Helvetica,sans-Serif" font-size="10.00">virtual void setAppPrefix</text>
<text text-anchor="start" x="16.25" y="-24" font-family="Helvetica,sans-Serif" font-size="10.00">(const std::string &amp;prefix)=0</text>
<text text-anchor="start" x="16.25" y="-7.25" font-family="Helvetica,sans-Serif" font-size="10.00">and 14 more...</text>
<polygon fill="#666666" stroke="#666666" points="0,-381.5 0,-381.5 174,-381.5 174,-381.5 0,-381.5"/>
<polygon fill="#666666" stroke="#666666" points="0,-364.75 0,-364.75 174,-364.75 174,-364.75 0,-364.75"/>
<polygon fill="none" stroke="#666666" points="0,0 0,-413 174,-413 174,0 0,0"/>
</a>
</g>
</g>
<!-- Node2 -->
<g id="Node000002" class="node">
<title>Node2</title>
<g id="a_Node000002"><a xlink:title=" ">
<polygon fill="white" stroke="none" points="146.12,-516 27.88,-516 27.88,-449 146.12,-449 146.12,-516"/>
<text text-anchor="start" x="31.88" y="-502.5" font-family="Helvetica,sans-Serif" font-size="10.00">std::enable_shared</text>
<text text-anchor="start" x="31.88" y="-489.75" font-family="Helvetica,sans-Serif" font-size="10.00">_from_this&lt; ILogger &gt;</text>
<text text-anchor="start" x="85.5" y="-473" font-family="Helvetica,sans-Serif" font-size="10.00"> </text>
<text text-anchor="start" x="85.5" y="-456.25" font-family="Helvetica,sans-Serif" font-size="10.00"> </text>
<polygon fill="#666666" stroke="#666666" points="27.88,-484.5 27.88,-484.5 146.12,-484.5 146.12,-484.5 27.88,-484.5"/>
<polygon fill="#666666" stroke="#666666" points="27.88,-467.75 27.88,-467.75 146.12,-467.75 146.12,-467.75 27.88,-467.75"/>
<polygon fill="none" stroke="#666666" points="27.88,-449 27.88,-516 146.12,-516 146.12,-449 27.88,-449"/>
</a>
</g>
</g>
<!-- Node2&#45;&gt;Node1 -->
<g id="edge1_Node000001_Node000002" class="edge">
<title>Node2&#45;&gt;Node1</title>
<g id="a_edge1_Node000001_Node000002"><a xlink:title=" ">
<path fill="none" stroke="#63b8ff" d="M87,-437.86C87,-430.2 87,-421.79 87,-412.87"/>
<polygon fill="none" stroke="#63b8ff" points="83.5,-437.75 87,-447.75 90.5,-437.75 83.5,-437.75"/>
</a>
</g>
</g>
</g>
</svg>
