<?xml version="1.0" encoding="UTF-8" standalone="no"?>
<!DOCTYPE svg PUBLIC "-//W3C//DTD SVG 1.1//EN"
 "http://www.w3.org/Graphics/SVG/1.1/DTD/svg11.dtd">
<!-- Generated by graphviz version 12.2.1 (0)
 -->
<!-- Title: ConsoleLogger::info Pages: 1 -->
<svg width="837pt" height="118pt"
 viewBox="0.00 0.00 836.50 118.12" xmlns="http://www.w3.org/2000/svg" xmlns:xlink="http://www.w3.org/1999/xlink">
<g id="graph0" class="graph" transform="scale(1 1) rotate(0) translate(4 114.12)">
<title>ConsoleLogger::info</title>
<!-- Node1 -->
<g id="Node000001" class="node">
<title>Node1</title>
<g id="a_Node000001"><a xlink:title="Log an info message.">
<polygon fill="#999999" stroke="#666666" points="112.75,-72.12 0,-72.12 0,-51.38 112.75,-51.38 112.75,-72.12"/>
<text text-anchor="middle" x="56.38" y="-58.62" font-family="Helvetica,sans-Serif" font-size="10.00">ConsoleLogger::info</text>
</a>
</g>
</g>
<!-- Node2 -->
<g id="Node000002" class="node">
<title>Node2</title>
<g id="a_Node000002"><a xlink:href="classConsoleLogger.html#a31696856245b018e9645c614683ba037" target="_top" xlink:title="Logs a message with a specified level to the console and optionally to a file.">
<polygon fill="white" stroke="#666666" points="257.75,-72.12 148.75,-72.12 148.75,-51.38 257.75,-51.38 257.75,-72.12"/>
<text text-anchor="middle" x="203.25" y="-58.62" font-family="Helvetica,sans-Serif" font-size="10.00">ConsoleLogger::log</text>
</a>
</g>
</g>
<!-- Node1&#45;&gt;Node2 -->
<g id="edge1_Node000001_Node000002" class="edge">
<title>Node1&#45;&gt;Node2</title>
<g id="a_edge1_Node000001_Node000002"><a xlink:title=" ">
<path fill="none" stroke="#63b8ff" d="M112.97,-61.75C120.89,-61.75 129.09,-61.75 137.17,-61.75"/>
<polygon fill="#63b8ff" stroke="#63b8ff" points="136.96,-65.25 146.96,-61.75 136.96,-58.25 136.96,-65.25"/>
</a>
</g>
</g>
<!-- Node3 -->
<g id="Node000003" class="node">
<title>Node3</title>
<g id="a_Node000003"><a xlink:href="classConsoleLogger.html#a5d533abe0114989d4997b6dabfe4687c" target="_top" xlink:title="Convert a logging level to its string representation.">
<polygon fill="white" stroke="#666666" points="450.75,-110.12 293.75,-110.12 293.75,-89.38 450.75,-89.38 450.75,-110.12"/>
<text text-anchor="middle" x="372.25" y="-96.62" font-family="Helvetica,sans-Serif" font-size="10.00">ConsoleLogger::levelToString</text>
</a>
</g>
</g>
<!-- Node2&#45;&gt;Node3 -->
<g id="edge2_Node000002_Node000003" class="edge">
<title>Node2&#45;&gt;Node3</title>
<g id="a_edge2_Node000002_Node000003"><a xlink:title=" ">
<path fill="none" stroke="#63b8ff" d="M251.66,-72.54C270.61,-76.85 292.63,-81.86 312.58,-86.4"/>
<polygon fill="#63b8ff" stroke="#63b8ff" points="311.72,-89.79 322.25,-88.6 313.27,-82.97 311.72,-89.79"/>
</a>
</g>
</g>
<!-- Node4 -->
<g id="Node000004" class="node">
<title>Node4</title>
<g id="a_Node000004"><a xlink:href="classConsoleLogger.html#a787b42f6e197b60908113326b9a048fa" target="_top" xlink:title="Reset the console color to default.">
<polygon fill="white" stroke="#666666" points="828.5,-55.5 670.75,-55.5 670.75,-22 828.5,-22 828.5,-55.5"/>
<text text-anchor="start" x="678.75" y="-42" font-family="Helvetica,sans-Serif" font-size="10.00">ConsoleLogger::resetConsole</text>
<text text-anchor="middle" x="749.62" y="-29.25" font-family="Helvetica,sans-Serif" font-size="10.00">Color</text>
</a>
</g>
</g>
<!-- Node2&#45;&gt;Node4 -->
<g id="edge3_Node000002_Node000004" class="edge">
<title>Node2&#45;&gt;Node4</title>
<g id="a_edge3_Node000002_Node000004"><a xlink:title=" ">
<path fill="none" stroke="#63b8ff" d="M257.94,-59.48C351.43,-55.53 545.01,-47.35 659.1,-42.53"/>
<polygon fill="#63b8ff" stroke="#63b8ff" points="659.21,-46.03 669.05,-42.11 658.91,-39.04 659.21,-46.03"/>
</a>
</g>
</g>
<!-- Node5 -->
<g id="Node000005" class="node">
<title>Node5</title>
<g id="a_Node000005"><a xlink:href="classConsoleLogger.html#a034b07dd5f02314f42f248eda08fe2b9" target="_top" xlink:title=" ">
<polygon fill="white" stroke="#666666" points="446.25,-33.5 298.25,-33.5 298.25,0 446.25,0 446.25,-33.5"/>
<text text-anchor="start" x="306.25" y="-20" font-family="Helvetica,sans-Serif" font-size="10.00">ConsoleLogger::setConsole</text>
<text text-anchor="middle" x="372.25" y="-7.25" font-family="Helvetica,sans-Serif" font-size="10.00">Color</text>
</a>
</g>
</g>
<!-- Node2&#45;&gt;Node5 -->
<g id="edge4_Node000002_Node000005" class="edge">
<title>Node2&#45;&gt;Node5</title>
<g id="a_edge4_Node000002_Node000005"><a xlink:title=" ">
<path fill="none" stroke="#63b8ff" d="M244.25,-50.97C259.91,-46.75 278.41,-41.77 296.37,-36.93"/>
<polygon fill="#63b8ff" stroke="#63b8ff" points="297.24,-40.32 305.99,-34.34 295.42,-33.56 297.24,-40.32"/>
</a>
</g>
</g>
<!-- Node6 -->
<g id="Node000006" class="node">
<title>Node6</title>
<g id="a_Node000006"><a xlink:href="classConsoleLogger.html#addb2587c7a7fe4e6c213f22f7db385c6" target="_top" xlink:title=" ">
<polygon fill="white" stroke="#666666" points="634.75,-33.5 486.75,-33.5 486.75,0 634.75,0 634.75,-33.5"/>
<text text-anchor="start" x="494.75" y="-20" font-family="Helvetica,sans-Serif" font-size="10.00">ConsoleLogger::setConsole</text>
<text text-anchor="middle" x="560.75" y="-7.25" font-family="Helvetica,sans-Serif" font-size="10.00">ColorUnix</text>
</a>
</g>
</g>
<!-- Node5&#45;&gt;Node6 -->
<g id="edge5_Node000005_Node000006" class="edge">
<title>Node5&#45;&gt;Node6</title>
<g id="a_edge5_Node000005_Node000006"><a xlink:title=" ">
<path fill="none" stroke="#63b8ff" d="M446.69,-16.75C455.97,-16.75 465.52,-16.75 474.95,-16.75"/>
<polygon fill="#63b8ff" stroke="#63b8ff" points="474.86,-20.25 484.86,-16.75 474.86,-13.25 474.86,-20.25"/>
</a>
</g>
</g>
<!-- Node6&#45;&gt;Node4 -->
<g id="edge6_Node000006_Node000004" class="edge">
<title>Node6&#45;&gt;Node4</title>
<g id="a_edge6_Node000006_Node000004"><a xlink:title=" ">
<path fill="none" stroke="#63b8ff" d="M635.07,-25.38C642.93,-26.31 650.98,-27.25 658.99,-28.2"/>
<polygon fill="#63b8ff" stroke="#63b8ff" points="658.43,-31.66 668.77,-29.35 659.25,-24.7 658.43,-31.66"/>
</a>
</g>
</g>
</g>
</svg>
