<?xml version="1.0" encoding="UTF-8" standalone="no"?>
<!DOCTYPE svg PUBLIC "-//W3C//DTD SVG 1.1//EN"
 "http://www.w3.org/Graphics/SVG/1.1/DTD/svg11.dtd">
<!-- Generated by graphviz version 12.2.1 (0)
 -->
<!-- Title: nixoncpp::logging::LogStream::LogStream Pages: 1 -->
<svg width="303pt" height="94pt"
 viewBox="0.00 0.00 303.25 93.50" xmlns="http://www.w3.org/2000/svg" xmlns:xlink="http://www.w3.org/1999/xlink">
<g id="graph0" class="graph" transform="scale(1 1) rotate(0) translate(4 89.5)">
<title>nixoncpp::logging::LogStream::LogStream</title>
<!-- Node1 -->
<g id="Node000001" class="node">
<title>Node1</title>
<g id="a_Node000001"><a xlink:title=" ">
<polygon fill="#999999" stroke="#666666" points="295.25,-59.5 168.25,-59.5 168.25,-26 295.25,-26 295.25,-59.5"/>
<text text-anchor="start" x="176.25" y="-46" font-family="Helvetica,sans-Serif" font-size="10.00">nixoncpp::logging::</text>
<text text-anchor="middle" x="231.75" y="-33.25" font-family="Helvetica,sans-Serif" font-size="10.00">LogStream::LogStream</text>
</a>
</g>
</g>
<!-- Node2 -->
<g id="Node000002" class="node">
<title>Node2</title>
<g id="a_Node000002"><a xlink:href="classnixoncpp_1_1logging_1_1LogStream.html#a6934a6e0838050251679439d64719591" target="_top" xlink:title="Stream a value into the log message.">
<polygon fill="white" stroke="#666666" points="132.25,-85.5 0,-85.5 0,-52 132.25,-52 132.25,-85.5"/>
<text text-anchor="start" x="8" y="-72" font-family="Helvetica,sans-Serif" font-size="10.00">nixoncpp::logging::</text>
<text text-anchor="middle" x="66.12" y="-59.25" font-family="Helvetica,sans-Serif" font-size="10.00">LogStream::operator&lt;&lt;</text>
</a>
</g>
</g>
<!-- Node1&#45;&gt;Node2 -->
<g id="edge1_Node000001_Node000002" class="edge">
<title>Node1&#45;&gt;Node2</title>
<g id="a_edge1_Node000001_Node000002"><a xlink:title=" ">
<path fill="none" stroke="#63b8ff" d="M156.74,-54.51C148.73,-55.78 140.63,-57.07 132.73,-58.32"/>
<polygon fill="#63b8ff" stroke="#63b8ff" points="157.13,-57.99 166.46,-52.97 156.04,-51.08 157.13,-57.99"/>
</a>
</g>
</g>
<!-- Node3 -->
<g id="Node000003" class="node">
<title>Node3</title>
<g id="a_Node000003"><a xlink:href="classnixoncpp_1_1logging_1_1LogStream.html#a278f2bfc27f945d787728ec76a81a9fc" target="_top" xlink:title="Stream a manipulator into the log message (e.g., std::endl).">
<polygon fill="white" stroke="#666666" points="132.25,-33.5 0,-33.5 0,0 132.25,0 132.25,-33.5"/>
<text text-anchor="start" x="8" y="-20" font-family="Helvetica,sans-Serif" font-size="10.00">nixoncpp::logging::</text>
<text text-anchor="middle" x="66.12" y="-7.25" font-family="Helvetica,sans-Serif" font-size="10.00">LogStream::operator&lt;&lt;</text>
</a>
</g>
</g>
<!-- Node1&#45;&gt;Node3 -->
<g id="edge2_Node000001_Node000003" class="edge">
<title>Node1&#45;&gt;Node3</title>
<g id="a_edge2_Node000001_Node000003"><a xlink:title=" ">
<path fill="none" stroke="#63b8ff" d="M156.74,-30.99C148.73,-29.72 140.63,-28.43 132.73,-27.18"/>
<polygon fill="#63b8ff" stroke="#63b8ff" points="156.04,-34.42 166.46,-32.53 157.13,-27.51 156.04,-34.42"/>
</a>
</g>
</g>
</g>
</svg>
