<?xml version="1.0" encoding="UTF-8" standalone="no"?>
<!DOCTYPE svg PUBLIC "-//W3C//DTD SVG 1.1//EN"
 "http://www.w3.org/Graphics/SVG/1.1/DTD/svg11.dtd">
<!-- Generated by graphviz version 12.2.1 (0)
 -->
<!-- Title: ConsoleLogger::noHeader Pages: 1 -->
<svg width="369pt" height="171pt"
 viewBox="0.00 0.00 369.25 171.12" xmlns="http://www.w3.org/2000/svg" xmlns:xlink="http://www.w3.org/1999/xlink">
<g id="graph0" class="graph" transform="scale(1 1) rotate(0) translate(4 167.12)">
<title>ConsoleLogger::noHeader</title>
<!-- Node1 -->
<g id="Node000001" class="node">
<title>Node1</title>
<g id="a_Node000001"><a xlink:title="Show or hide all headers in the log output.">
<polygon fill="#999999" stroke="#666666" points="141.25,-81.75 0,-81.75 0,-61 141.25,-61 141.25,-81.75"/>
<text text-anchor="middle" x="70.62" y="-68.25" font-family="Helvetica,sans-Serif" font-size="10.00">ConsoleLogger::noHeader</text>
</a>
</g>
</g>
<!-- Node1&#45;&gt;Node1 -->
<g id="edge1_Node000001_Node000001" class="edge">
<title>Node1&#45;&gt;Node1</title>
<g id="a_edge1_Node000001_Node000001"><a xlink:title=" ">
<path fill="none" stroke="#63b8ff" d="M38.62,-82.15C25.82,-90.81 36.49,-99.75 70.62,-99.75 89.29,-99.75 100.94,-97.08 105.58,-93.24"/>
<polygon fill="#63b8ff" stroke="#63b8ff" points="108.97,-92.38 103.02,-83.61 102.2,-94.17 108.97,-92.38"/>
</a>
</g>
</g>
<!-- Node2 -->
<g id="Node000002" class="node">
<title>Node2</title>
<g id="a_Node000002"><a xlink:href="classConsoleLogger.html#ad992cf9846433c9d08171e0da7a27d52" target="_top" xlink:title="Show or hide the header caller in the log output.">
<polygon fill="white" stroke="#666666" points="346.62,-163.12 191.88,-163.12 191.88,-129.62 346.62,-129.62 346.62,-163.12"/>
<text text-anchor="start" x="199.88" y="-149.62" font-family="Helvetica,sans-Serif" font-size="10.00">ConsoleLogger::showHeader</text>
<text text-anchor="middle" x="269.25" y="-136.88" font-family="Helvetica,sans-Serif" font-size="10.00">Caller</text>
</a>
</g>
</g>
<!-- Node1&#45;&gt;Node2 -->
<g id="edge2_Node000001_Node000002" class="edge">
<title>Node1&#45;&gt;Node2</title>
<g id="a_edge2_Node000001_Node000002"><a xlink:title=" ">
<path fill="none" stroke="#63b8ff" d="M92.26,-82.12C113.26,-92.77 146.94,-109.09 177.25,-120.38 182.19,-122.21 187.32,-124 192.51,-125.71"/>
<polygon fill="#63b8ff" stroke="#63b8ff" points="191.19,-128.97 201.78,-128.68 193.32,-122.3 191.19,-128.97"/>
</a>
</g>
</g>
<!-- Node3 -->
<g id="Node000003" class="node">
<title>Node3</title>
<g id="a_Node000003"><a xlink:href="classConsoleLogger.html#a93931df43572ddc3ca9246e793fa9ae8" target="_top" xlink:title="Show or hide the header level in the log output.">
<polygon fill="white" stroke="#666666" points="346.62,-111.12 191.88,-111.12 191.88,-77.62 346.62,-77.62 346.62,-111.12"/>
<text text-anchor="start" x="199.88" y="-97.62" font-family="Helvetica,sans-Serif" font-size="10.00">ConsoleLogger::showHeader</text>
<text text-anchor="middle" x="269.25" y="-84.88" font-family="Helvetica,sans-Serif" font-size="10.00">Level</text>
</a>
</g>
</g>
<!-- Node1&#45;&gt;Node3 -->
<g id="edge3_Node000001_Node000003" class="edge">
<title>Node1&#45;&gt;Node3</title>
<g id="a_edge3_Node000001_Node000003"><a xlink:title=" ">
<path fill="none" stroke="#63b8ff" d="M141.5,-79.55C154.05,-81.02 167.28,-82.56 180.26,-84.08"/>
<polygon fill="#63b8ff" stroke="#63b8ff" points="179.74,-87.55 190.08,-85.23 180.56,-80.59 179.74,-87.55"/>
</a>
</g>
</g>
<!-- Node4 -->
<g id="Node000004" class="node">
<title>Node4</title>
<g id="a_Node000004"><a xlink:href="classConsoleLogger.html#a76a289d0d0a58842e365885437644fe0" target="_top" xlink:title="Show or hide the header name in the log output.">
<polygon fill="white" stroke="#666666" points="361.25,-59.75 177.25,-59.75 177.25,-39 361.25,-39 361.25,-59.75"/>
<text text-anchor="middle" x="269.25" y="-46.25" font-family="Helvetica,sans-Serif" font-size="10.00">ConsoleLogger::showHeaderName</text>
</a>
</g>
</g>
<!-- Node1&#45;&gt;Node4 -->
<g id="edge4_Node000001_Node000004" class="edge">
<title>Node1&#45;&gt;Node4</title>
<g id="a_edge4_Node000001_Node000004"><a xlink:title=" ">
<path fill="none" stroke="#63b8ff" d="M141.5,-63.56C149.39,-62.67 157.55,-61.76 165.75,-60.84"/>
<polygon fill="#63b8ff" stroke="#63b8ff" points="165.88,-64.35 175.43,-59.76 165.1,-57.39 165.88,-64.35"/>
</a>
</g>
</g>
<!-- Node5 -->
<g id="Node000005" class="node">
<title>Node5</title>
<g id="a_Node000005"><a xlink:href="classConsoleLogger.html#a09c84bad7201e76b0b8c31e25ec46efc" target="_top" xlink:title="Show or hide the header time in the log output.">
<polygon fill="white" stroke="#666666" points="359,-20.75 179.5,-20.75 179.5,0 359,0 359,-20.75"/>
<text text-anchor="middle" x="269.25" y="-7.25" font-family="Helvetica,sans-Serif" font-size="10.00">ConsoleLogger::showHeaderTime</text>
</a>
</g>
</g>
<!-- Node1&#45;&gt;Node5 -->
<g id="edge5_Node000001_Node000005" class="edge">
<title>Node1&#45;&gt;Node5</title>
<g id="a_edge5_Node000001_Node000005"><a xlink:title=" ">
<path fill="none" stroke="#63b8ff" d="M96.01,-60.67C117.18,-51.68 148.82,-38.96 177.25,-30.38 185.02,-28.03 193.24,-25.83 201.44,-23.82"/>
<polygon fill="#63b8ff" stroke="#63b8ff" points="202.16,-27.25 211.08,-21.54 200.55,-20.43 202.16,-27.25"/>
</a>
</g>
</g>
</g>
</svg>
