<?xml version="1.0" encoding="UTF-8" standalone="no"?>
<!DOCTYPE svg PUBLIC "-//W3C//DTD SVG 1.1//EN"
 "http://www.w3.org/Graphics/SVG/1.1/DTD/svg11.dtd">
<!-- Generated by graphviz version 12.2.1 (0)
 -->
<!-- Title: nixoncpp::utils::JsonSerializer::JsonSerializer Pages: 1 -->
<svg width="361pt" height="198pt"
 viewBox="0.00 0.00 361.00 197.50" xmlns="http://www.w3.org/2000/svg" xmlns:xlink="http://www.w3.org/1999/xlink">

<svg id="main" version="1.1" xmlns="http://www.w3.org/2000/svg" xmlns:xlink="http://www.w3.org/1999/xlink" xml:space="preserve">

<style type="text/css"><![CDATA[
.node, .edge {opacity: 0.7;}
.node.selected, .edge.selected {opacity: 1;}
.edge:hover path { stroke: red; }
.edge:hover polygon { stroke: red; fill: red; }
]]></style>
<script type="application/ecmascript" xlink:href="svg.min.js"/>
<svg id="graph" class="graph">
<g id="graph0" class="graph" transform="scale(1 1) rotate(0) translate(4 193.5)">
<title>nixoncpp::utils::JsonSerializer::JsonSerializer</title>
<!-- Node1 -->
<g id="Node000001" class="node">
<title>Node1</title>
<g id="a_Node000001"><a xlink:title=" ">
<polygon fill="#999999" stroke="#666666" points="353,-111.5 194.5,-111.5 194.5,-78 353,-78 353,-111.5"/>
<text text-anchor="start" x="202.5" y="-98" font-family="Helvetica,sans-Serif" font-size="10.00">nixoncpp::utils::JsonSerializer</text>
<text text-anchor="middle" x="273.75" y="-85.25" font-family="Helvetica,sans-Serif" font-size="10.00">::JsonSerializer</text>
</a>
</g>
</g>
<!-- Node2 -->
<g id="Node000002" class="node">
<title>Node2</title>
<g id="a_Node000002"><a xlink:href="classnixoncpp_1_1utils_1_1JsonSerializer.html#afaa4fb0dfbc923e2bcd03184dd58dfc9" target="_top" xlink:title=" ">
<polygon fill="white" stroke="#666666" points="158.5,-189.5 0,-189.5 0,-156 158.5,-156 158.5,-189.5"/>
<text text-anchor="start" x="8" y="-176" font-family="Helvetica,sans-Serif" font-size="10.00">nixoncpp::utils::JsonSerializer</text>
<text text-anchor="middle" x="79.25" y="-163.25" font-family="Helvetica,sans-Serif" font-size="10.00">::JsonSerializer</text>
</a>
</g>
</g>
<!-- Node1&#45;&gt;Node2 -->
<g id="edge1_Node000001_Node000002" class="edge">
<title>Node1&#45;&gt;Node2</title>
<g id="a_edge1_Node000001_Node000002"><a xlink:title=" ">
<path fill="none" stroke="#63b8ff" d="M227.52,-116.68C206.71,-126.41 181.58,-137.69 158.5,-146.75 150.77,-149.78 142.53,-152.78 134.4,-155.59"/>
<polygon fill="#63b8ff" stroke="#63b8ff" points="228.74,-119.97 236.29,-112.54 225.75,-113.64 228.74,-119.97"/>
</a>
</g>
</g>
<!-- Node3 -->
<g id="Node000003" class="node">
<title>Node3</title>
<g id="a_Node000003"><a xlink:href="classnixoncpp_1_1utils_1_1JsonSerializer.html#aa9ebad9c0359686fd1296e22f08bd038" target="_top" xlink:title=" ">
<polygon fill="white" stroke="#666666" points="158.5,-137.5 0,-137.5 0,-104 158.5,-104 158.5,-137.5"/>
<text text-anchor="start" x="8" y="-124" font-family="Helvetica,sans-Serif" font-size="10.00">nixoncpp::utils::JsonSerializer</text>
<text text-anchor="middle" x="79.25" y="-111.25" font-family="Helvetica,sans-Serif" font-size="10.00">::JsonSerializer</text>
</a>
</g>
</g>
<!-- Node1&#45;&gt;Node3 -->
<g id="edge2_Node000001_Node000003" class="edge">
<title>Node1&#45;&gt;Node3</title>
<g id="a_edge2_Node000001_Node000003"><a xlink:title=" ">
<path fill="none" stroke="#63b8ff" d="M182.9,-106.89C174.88,-107.97 166.8,-109.06 158.89,-110.13"/>
<polygon fill="#63b8ff" stroke="#63b8ff" points="183.23,-110.37 192.68,-105.57 182.3,-103.44 183.23,-110.37"/>
</a>
</g>
</g>
<!-- Node4 -->
<g id="Node000004" class="node">
<title>Node4</title>
<g id="a_Node000004"><a xlink:href="classnixoncpp_1_1utils_1_1JsonSerializer.html#acaab39f2f6d0e99d8cc2320bfb11982f" target="_top" xlink:title=" ">
<polygon fill="white" stroke="#666666" points="158.5,-85.5 0,-85.5 0,-52 158.5,-52 158.5,-85.5"/>
<text text-anchor="start" x="8" y="-72" font-family="Helvetica,sans-Serif" font-size="10.00">nixoncpp::utils::JsonSerializer</text>
<text text-anchor="middle" x="79.25" y="-59.25" font-family="Helvetica,sans-Serif" font-size="10.00">::operator=</text>
</a>
</g>
</g>
<!-- Node1&#45;&gt;Node4 -->
<g id="edge3_Node000001_Node000004" class="edge">
<title>Node1&#45;&gt;Node4</title>
<g id="a_edge3_Node000001_Node000004"><a xlink:title=" ">
<path fill="none" stroke="#63b8ff" d="M182.9,-82.61C174.88,-81.53 166.8,-80.44 158.89,-79.37"/>
<polygon fill="#63b8ff" stroke="#63b8ff" points="182.3,-86.06 192.68,-83.93 183.23,-79.13 182.3,-86.06"/>
</a>
</g>
</g>
<!-- Node5 -->
<g id="Node000005" class="node">
<title>Node5</title>
<g id="a_Node000005"><a xlink:href="classnixoncpp_1_1utils_1_1JsonSerializer.html#abfed11bf86d01ce3f65e9fea333ec66a" target="_top" xlink:title=" ">
<polygon fill="white" stroke="#666666" points="158.5,-33.5 0,-33.5 0,0 158.5,0 158.5,-33.5"/>
<text text-anchor="start" x="8" y="-20" font-family="Helvetica,sans-Serif" font-size="10.00">nixoncpp::utils::JsonSerializer</text>
<text text-anchor="middle" x="79.25" y="-7.25" font-family="Helvetica,sans-Serif" font-size="10.00">::operator=</text>
</a>
</g>
</g>
<!-- Node1&#45;&gt;Node5 -->
<g id="edge4_Node000001_Node000005" class="edge">
<title>Node1&#45;&gt;Node5</title>
<g id="a_edge4_Node000001_Node000005"><a xlink:title=" ">
<path fill="none" stroke="#63b8ff" d="M227.52,-72.82C206.71,-63.09 181.58,-51.81 158.5,-42.75 150.77,-39.72 142.53,-36.72 134.4,-33.91"/>
<polygon fill="#63b8ff" stroke="#63b8ff" points="225.75,-75.86 236.29,-76.96 228.74,-69.53 225.75,-75.86"/>
</a>
</g>
</g>
</g>
</svg>
</svg>

<style type='text/css'>
<![CDATA[
[data-mouse-over-selected='false'] { opacity: 0.7; }
[data-mouse-over-selected='true']  { opacity: 1.0; }
]]>
</style>
<script type="application/ecmascript"><![CDATA[
document.addEventListener('DOMContentLoaded', (event) => {
  highlightEdges();
  highlightAdjacentNodes();
});
]]></script>
</svg>
