<?xml version="1.0" encoding="UTF-8" standalone="no"?>
<!DOCTYPE svg PUBLIC "-//W3C//DTD SVG 1.1//EN"
 "http://www.w3.org/Graphics/SVG/1.1/DTD/svg11.dtd">
<!-- Generated by graphviz version 12.2.1 (0)
 -->
<!-- Title: nixoncpp::utils::DirectoryManager::DirectoryManager Pages: 1 -->
<svg width="349pt" height="198pt"
 viewBox="0.00 0.00 349.00 197.50" xmlns="http://www.w3.org/2000/svg" xmlns:xlink="http://www.w3.org/1999/xlink">
<g id="graph0" class="graph" transform="scale(1 1) rotate(0) translate(4 193.5)">
<title>nixoncpp::utils::DirectoryManager::DirectoryManager</title>
<!-- Node1 -->
<g id="Node000001" class="node">
<title>Node1</title>
<g id="a_Node000001"><a xlink:title=" ">
<polygon fill="#999999" stroke="#666666" points="341,-111.5 188.5,-111.5 188.5,-78 341,-78 341,-111.5"/>
<text text-anchor="start" x="196.5" y="-98" font-family="Helvetica,sans-Serif" font-size="10.00">nixoncpp::utils::Directory</text>
<text text-anchor="middle" x="264.75" y="-85.25" font-family="Helvetica,sans-Serif" font-size="10.00">Manager::DirectoryManager</text>
</a>
</g>
</g>
<!-- Node2 -->
<g id="Node000002" class="node">
<title>Node2</title>
<g id="a_Node000002"><a xlink:href="classnixoncpp_1_1utils_1_1DirectoryManager.html#aa5eb3a5770a6ea9311c0af38c76dad43" target="_top" xlink:title=" ">
<polygon fill="white" stroke="#666666" points="152.5,-189.5 0,-189.5 0,-156 152.5,-156 152.5,-189.5"/>
<text text-anchor="start" x="8" y="-176" font-family="Helvetica,sans-Serif" font-size="10.00">nixoncpp::utils::Directory</text>
<text text-anchor="middle" x="76.25" y="-163.25" font-family="Helvetica,sans-Serif" font-size="10.00">Manager::DirectoryManager</text>
</a>
</g>
</g>
<!-- Node1&#45;&gt;Node2 -->
<g id="edge1_Node000001_Node000002" class="edge">
<title>Node1&#45;&gt;Node2</title>
<g id="a_edge1_Node000001_Node000002"><a xlink:title=" ">
<path fill="none" stroke="#63b8ff" d="M219.43,-116.76C199.23,-126.46 174.88,-137.68 152.5,-146.75 145.07,-149.76 137.14,-152.74 129.33,-155.55"/>
<polygon fill="#63b8ff" stroke="#63b8ff" points="220.74,-120.02 228.22,-112.51 217.69,-113.72 220.74,-120.02"/>
</a>
</g>
</g>
<!-- Node3 -->
<g id="Node000003" class="node">
<title>Node3</title>
<g id="a_Node000003"><a xlink:href="classnixoncpp_1_1utils_1_1DirectoryManager.html#a3d9271430e9ad6d039ca45bdfd9505a3" target="_top" xlink:title=" ">
<polygon fill="white" stroke="#666666" points="152.5,-137.5 0,-137.5 0,-104 152.5,-104 152.5,-137.5"/>
<text text-anchor="start" x="8" y="-124" font-family="Helvetica,sans-Serif" font-size="10.00">nixoncpp::utils::Directory</text>
<text text-anchor="middle" x="76.25" y="-111.25" font-family="Helvetica,sans-Serif" font-size="10.00">Manager::DirectoryManager</text>
</a>
</g>
</g>
<!-- Node1&#45;&gt;Node3 -->
<g id="edge2_Node000001_Node000003" class="edge">
<title>Node1&#45;&gt;Node3</title>
<g id="a_edge2_Node000001_Node000003"><a xlink:title=" ">
<path fill="none" stroke="#63b8ff" d="M176.91,-106.86C168.91,-107.97 160.84,-109.1 152.95,-110.2"/>
<polygon fill="#63b8ff" stroke="#63b8ff" points="177.24,-110.34 186.66,-105.5 176.28,-103.41 177.24,-110.34"/>
</a>
</g>
</g>
<!-- Node4 -->
<g id="Node000004" class="node">
<title>Node4</title>
<g id="a_Node000004"><a xlink:href="classnixoncpp_1_1utils_1_1DirectoryManager.html#a3dbb800a639b88db0301d2810def3a1d" target="_top" xlink:title=" ">
<polygon fill="white" stroke="#666666" points="145,-85.5 7.5,-85.5 7.5,-52 145,-52 145,-85.5"/>
<text text-anchor="start" x="15.5" y="-72" font-family="Helvetica,sans-Serif" font-size="10.00">nixoncpp::utils::Directory</text>
<text text-anchor="middle" x="76.25" y="-59.25" font-family="Helvetica,sans-Serif" font-size="10.00">Manager::operator=</text>
</a>
</g>
</g>
<!-- Node1&#45;&gt;Node4 -->
<g id="edge3_Node000001_Node000004" class="edge">
<title>Node1&#45;&gt;Node4</title>
<g id="a_edge3_Node000001_Node000004"><a xlink:title=" ">
<path fill="none" stroke="#63b8ff" d="M176.8,-82.63C166.27,-81.16 155.64,-79.68 145.43,-78.26"/>
<polygon fill="#63b8ff" stroke="#63b8ff" points="176.28,-86.09 186.66,-84 177.24,-79.16 176.28,-86.09"/>
</a>
</g>
</g>
<!-- Node5 -->
<g id="Node000005" class="node">
<title>Node5</title>
<g id="a_Node000005"><a xlink:href="classnixoncpp_1_1utils_1_1DirectoryManager.html#a94320fd2ead592eec2fed18f020b829b" target="_top" xlink:title=" ">
<polygon fill="white" stroke="#666666" points="145,-33.5 7.5,-33.5 7.5,0 145,0 145,-33.5"/>
<text text-anchor="start" x="15.5" y="-20" font-family="Helvetica,sans-Serif" font-size="10.00">nixoncpp::utils::Directory</text>
<text text-anchor="middle" x="76.25" y="-7.25" font-family="Helvetica,sans-Serif" font-size="10.00">Manager::operator=</text>
</a>
</g>
</g>
<!-- Node1&#45;&gt;Node5 -->
<g id="edge4_Node000001_Node000005" class="edge">
<title>Node1&#45;&gt;Node5</title>
<g id="a_edge4_Node000001_Node000005"><a xlink:title=" ">
<path fill="none" stroke="#63b8ff" d="M219.43,-72.74C199.23,-63.04 174.88,-51.82 152.5,-42.75 145.07,-39.74 137.14,-36.76 129.33,-33.95"/>
<polygon fill="#63b8ff" stroke="#63b8ff" points="217.69,-75.78 228.22,-76.99 220.74,-69.48 217.69,-75.78"/>
</a>
</g>
</g>
</g>
</svg>
