<?xml version="1.0" encoding="UTF-8" standalone="no"?>
<!DOCTYPE svg PUBLIC "-//W3C//DTD SVG 1.1//EN"
 "http://www.w3.org/Graphics/SVG/1.1/DTD/svg11.dtd">
<!-- Generated by graphviz version 12.2.1 (0)
 -->
<!-- Title: ConsoleLogger::log Pages: 1 -->
<svg width="688pt" height="118pt"
 viewBox="0.00 0.00 687.75 118.12" xmlns="http://www.w3.org/2000/svg" xmlns:xlink="http://www.w3.org/1999/xlink">
<g id="graph0" class="graph" transform="scale(1 1) rotate(0) translate(4 114.12)">
<title>ConsoleLogger::log</title>
<!-- Node1 -->
<g id="Node000001" class="node">
<title>Node1</title>
<g id="a_Node000001"><a xlink:title="Logs a message with a specified level to the console and optionally to a file.">
<polygon fill="#999999" stroke="#666666" points="109,-72.12 0,-72.12 0,-51.38 109,-51.38 109,-72.12"/>
<text text-anchor="middle" x="54.5" y="-58.62" font-family="Helvetica,sans-Serif" font-size="10.00">ConsoleLogger::log</text>
</a>
</g>
</g>
<!-- Node2 -->
<g id="Node000002" class="node">
<title>Node2</title>
<g id="a_Node000002"><a xlink:href="classConsoleLogger.html#a5d533abe0114989d4997b6dabfe4687c" target="_top" xlink:title="Convert a logging level to its string representation.">
<polygon fill="white" stroke="#666666" points="302,-110.12 145,-110.12 145,-89.38 302,-89.38 302,-110.12"/>
<text text-anchor="middle" x="223.5" y="-96.62" font-family="Helvetica,sans-Serif" font-size="10.00">ConsoleLogger::levelToString</text>
</a>
</g>
</g>
<!-- Node1&#45;&gt;Node2 -->
<g id="edge1_Node000001_Node000002" class="edge">
<title>Node1&#45;&gt;Node2</title>
<g id="a_edge1_Node000001_Node000002"><a xlink:title=" ">
<path fill="none" stroke="#63b8ff" d="M102.91,-72.54C121.86,-76.85 143.88,-81.86 163.83,-86.4"/>
<polygon fill="#63b8ff" stroke="#63b8ff" points="162.97,-89.79 173.5,-88.6 164.52,-82.97 162.97,-89.79"/>
</a>
</g>
</g>
<!-- Node3 -->
<g id="Node000003" class="node">
<title>Node3</title>
<g id="a_Node000003"><a xlink:href="classConsoleLogger.html#a787b42f6e197b60908113326b9a048fa" target="_top" xlink:title="Reset the console color to default.">
<polygon fill="white" stroke="#666666" points="679.75,-55.5 522,-55.5 522,-22 679.75,-22 679.75,-55.5"/>
<text text-anchor="start" x="530" y="-42" font-family="Helvetica,sans-Serif" font-size="10.00">ConsoleLogger::resetConsole</text>
<text text-anchor="middle" x="600.88" y="-29.25" font-family="Helvetica,sans-Serif" font-size="10.00">Color</text>
</a>
</g>
</g>
<!-- Node1&#45;&gt;Node3 -->
<g id="edge2_Node000001_Node000003" class="edge">
<title>Node1&#45;&gt;Node3</title>
<g id="a_edge2_Node000001_Node000003"><a xlink:title=" ">
<path fill="none" stroke="#63b8ff" d="M109.19,-59.48C202.68,-55.53 396.26,-47.35 510.35,-42.53"/>
<polygon fill="#63b8ff" stroke="#63b8ff" points="510.46,-46.03 520.3,-42.11 510.16,-39.04 510.46,-46.03"/>
</a>
</g>
</g>
<!-- Node4 -->
<g id="Node000004" class="node">
<title>Node4</title>
<g id="a_Node000004"><a xlink:href="classConsoleLogger.html#a034b07dd5f02314f42f248eda08fe2b9" target="_top" xlink:title=" ">
<polygon fill="white" stroke="#666666" points="297.5,-33.5 149.5,-33.5 149.5,0 297.5,0 297.5,-33.5"/>
<text text-anchor="start" x="157.5" y="-20" font-family="Helvetica,sans-Serif" font-size="10.00">ConsoleLogger::setConsole</text>
<text text-anchor="middle" x="223.5" y="-7.25" font-family="Helvetica,sans-Serif" font-size="10.00">Color</text>
</a>
</g>
</g>
<!-- Node1&#45;&gt;Node4 -->
<g id="edge3_Node000001_Node000004" class="edge">
<title>Node1&#45;&gt;Node4</title>
<g id="a_edge3_Node000001_Node000004"><a xlink:title=" ">
<path fill="none" stroke="#63b8ff" d="M95.5,-50.97C111.16,-46.75 129.66,-41.77 147.62,-36.93"/>
<polygon fill="#63b8ff" stroke="#63b8ff" points="148.49,-40.32 157.24,-34.34 146.67,-33.56 148.49,-40.32"/>
</a>
</g>
</g>
<!-- Node5 -->
<g id="Node000005" class="node">
<title>Node5</title>
<g id="a_Node000005"><a xlink:href="classConsoleLogger.html#addb2587c7a7fe4e6c213f22f7db385c6" target="_top" xlink:title=" ">
<polygon fill="white" stroke="#666666" points="486,-33.5 338,-33.5 338,0 486,0 486,-33.5"/>
<text text-anchor="start" x="346" y="-20" font-family="Helvetica,sans-Serif" font-size="10.00">ConsoleLogger::setConsole</text>
<text text-anchor="middle" x="412" y="-7.25" font-family="Helvetica,sans-Serif" font-size="10.00">ColorUnix</text>
</a>
</g>
</g>
<!-- Node4&#45;&gt;Node5 -->
<g id="edge4_Node000004_Node000005" class="edge">
<title>Node4&#45;&gt;Node5</title>
<g id="a_edge4_Node000004_Node000005"><a xlink:title=" ">
<path fill="none" stroke="#63b8ff" d="M297.94,-16.75C307.22,-16.75 316.77,-16.75 326.2,-16.75"/>
<polygon fill="#63b8ff" stroke="#63b8ff" points="326.11,-20.25 336.11,-16.75 326.11,-13.25 326.11,-20.25"/>
</a>
</g>
</g>
<!-- Node5&#45;&gt;Node3 -->
<g id="edge5_Node000005_Node000003" class="edge">
<title>Node5&#45;&gt;Node3</title>
<g id="a_edge5_Node000005_Node000003"><a xlink:title=" ">
<path fill="none" stroke="#63b8ff" d="M486.32,-25.38C494.18,-26.31 502.23,-27.25 510.24,-28.2"/>
<polygon fill="#63b8ff" stroke="#63b8ff" points="509.68,-31.66 520.02,-29.35 510.5,-24.7 509.68,-31.66"/>
</a>
</g>
</g>
</g>
</svg>
