<?xml version="1.0" encoding="UTF-8" standalone="no"?>
<!DOCTYPE svg PUBLIC "-//W3C//DTD SVG 1.1//EN"
 "http://www.w3.org/Graphics/SVG/1.1/DTD/svg11.dtd">
<!-- Generated by graphviz version 12.2.1 (0)
 -->
<!-- Title: ConsoleLogger::visibleHeaders Pages: 1 -->
<svg width="395pt" height="171pt"
 viewBox="0.00 0.00 394.75 171.12" xmlns="http://www.w3.org/2000/svg" xmlns:xlink="http://www.w3.org/1999/xlink">

<svg id="main" version="1.1" xmlns="http://www.w3.org/2000/svg" xmlns:xlink="http://www.w3.org/1999/xlink" xml:space="preserve">

<style type="text/css"><![CDATA[
.node, .edge {opacity: 0.7;}
.node.selected, .edge.selected {opacity: 1;}
.edge:hover path { stroke: red; }
.edge:hover polygon { stroke: red; fill: red; }
]]></style>
<script type="application/ecmascript" xlink:href="svg.min.js"/>
<svg id="graph" class="graph">
<g id="graph0" class="graph" transform="scale(1 1) rotate(0) translate(4 167.12)">
<title>ConsoleLogger::visibleHeaders</title>
<!-- Node1 -->
<g id="Node000001" class="node">
<title>Node1</title>
<g id="a_Node000001"><a xlink:title="Show or hide specific headers in the log output.">
<polygon fill="#999999" stroke="#666666" points="166.75,-81.75 0,-81.75 0,-61 166.75,-61 166.75,-81.75"/>
<text text-anchor="middle" x="83.38" y="-68.25" font-family="Helvetica,sans-Serif" font-size="10.00">ConsoleLogger::visibleHeaders</text>
</a>
</g>
</g>
<!-- Node2 -->
<g id="Node000002" class="node">
<title>Node2</title>
<g id="a_Node000002"><a xlink:href="classConsoleLogger.html#ad992cf9846433c9d08171e0da7a27d52" target="_top" xlink:title="Show or hide the header caller in the log output.">
<polygon fill="white" stroke="#666666" points="372.12,-163.12 217.38,-163.12 217.38,-129.62 372.12,-129.62 372.12,-163.12"/>
<text text-anchor="start" x="225.38" y="-149.62" font-family="Helvetica,sans-Serif" font-size="10.00">ConsoleLogger::showHeader</text>
<text text-anchor="middle" x="294.75" y="-136.88" font-family="Helvetica,sans-Serif" font-size="10.00">Caller</text>
</a>
</g>
</g>
<!-- Node1&#45;&gt;Node2 -->
<g id="edge1_Node000001_Node000002" class="edge">
<title>Node1&#45;&gt;Node2</title>
<g id="a_edge1_Node000001_Node000002"><a xlink:title=" ">
<path fill="none" stroke="#63b8ff" d="M108.1,-82.14C131.78,-92.65 169.36,-108.74 202.75,-120.38 208.14,-122.25 213.74,-124.1 219.4,-125.89"/>
<polygon fill="#63b8ff" stroke="#63b8ff" points="218.27,-129.21 228.86,-128.81 220.34,-122.52 218.27,-129.21"/>
</a>
</g>
</g>
<!-- Node3 -->
<g id="Node000003" class="node">
<title>Node3</title>
<g id="a_Node000003"><a xlink:href="classConsoleLogger.html#a93931df43572ddc3ca9246e793fa9ae8" target="_top" xlink:title="Show or hide the header level in the log output.">
<polygon fill="white" stroke="#666666" points="372.12,-111.12 217.38,-111.12 217.38,-77.62 372.12,-77.62 372.12,-111.12"/>
<text text-anchor="start" x="225.38" y="-97.62" font-family="Helvetica,sans-Serif" font-size="10.00">ConsoleLogger::showHeader</text>
<text text-anchor="middle" x="294.75" y="-84.88" font-family="Helvetica,sans-Serif" font-size="10.00">Level</text>
</a>
</g>
</g>
<!-- Node1&#45;&gt;Node3 -->
<g id="edge2_Node000001_Node000003" class="edge">
<title>Node1&#45;&gt;Node3</title>
<g id="a_edge2_Node000001_Node000003"><a xlink:title=" ">
<path fill="none" stroke="#63b8ff" d="M167.13,-80.47C179.86,-81.86 193.04,-83.31 205.88,-84.72"/>
<polygon fill="#63b8ff" stroke="#63b8ff" points="205.22,-88.17 215.55,-85.78 205.99,-81.21 205.22,-88.17"/>
</a>
</g>
</g>
<!-- Node4 -->
<g id="Node000004" class="node">
<title>Node4</title>
<g id="a_Node000004"><a xlink:href="classConsoleLogger.html#a76a289d0d0a58842e365885437644fe0" target="_top" xlink:title="Show or hide the header name in the log output.">
<polygon fill="white" stroke="#666666" points="386.75,-59.75 202.75,-59.75 202.75,-39 386.75,-39 386.75,-59.75"/>
<text text-anchor="middle" x="294.75" y="-46.25" font-family="Helvetica,sans-Serif" font-size="10.00">ConsoleLogger::showHeaderName</text>
</a>
</g>
</g>
<!-- Node1&#45;&gt;Node4 -->
<g id="edge3_Node000001_Node000004" class="edge">
<title>Node1&#45;&gt;Node4</title>
<g id="a_edge3_Node000001_Node000004"><a xlink:title=" ">
<path fill="none" stroke="#63b8ff" d="M167.13,-62.68C174.97,-61.86 182.99,-61.01 191,-60.17"/>
<polygon fill="#63b8ff" stroke="#63b8ff" points="191.2,-63.67 200.78,-59.14 190.47,-56.71 191.2,-63.67"/>
</a>
</g>
</g>
<!-- Node5 -->
<g id="Node000005" class="node">
<title>Node5</title>
<g id="a_Node000005"><a xlink:href="classConsoleLogger.html#a09c84bad7201e76b0b8c31e25ec46efc" target="_top" xlink:title="Show or hide the header time in the log output.">
<polygon fill="white" stroke="#666666" points="384.5,-20.75 205,-20.75 205,0 384.5,0 384.5,-20.75"/>
<text text-anchor="middle" x="294.75" y="-7.25" font-family="Helvetica,sans-Serif" font-size="10.00">ConsoleLogger::showHeaderTime</text>
</a>
</g>
</g>
<!-- Node1&#45;&gt;Node5 -->
<g id="edge4_Node000001_Node000005" class="edge">
<title>Node1&#45;&gt;Node5</title>
<g id="a_edge4_Node000001_Node000005"><a xlink:title=" ">
<path fill="none" stroke="#63b8ff" d="M112.3,-60.66C136.11,-51.78 171.35,-39.23 202.75,-30.38 211.07,-28.03 219.88,-25.79 228.62,-23.72"/>
<polygon fill="#63b8ff" stroke="#63b8ff" points="229.17,-27.18 238.12,-21.52 227.59,-20.36 229.17,-27.18"/>
</a>
</g>
</g>
</g>
</svg>
</svg>

<style type='text/css'>
<![CDATA[
[data-mouse-over-selected='false'] { opacity: 0.7; }
[data-mouse-over-selected='true']  { opacity: 1.0; }
]]>
</style>
<script type="application/ecmascript"><![CDATA[
document.addEventListener('DOMContentLoaded', (event) => {
  highlightEdges();
  highlightAdjacentNodes();
});
]]></script>
</svg>
