<?xml version="1.0" encoding="UTF-8" standalone="no"?>
<!DOCTYPE svg PUBLIC "-//W3C//DTD SVG 1.1//EN"
 "http://www.w3.org/Graphics/SVG/1.1/DTD/svg11.dtd">
<!-- Generated by graphviz version 12.2.1 (0)
 -->
<!-- Title: nixoncpp::utils::FileReader::getSize Pages: 1 -->
<svg width="420pt" height="249pt"
 viewBox="0.00 0.00 419.75 248.75" xmlns="http://www.w3.org/2000/svg" xmlns:xlink="http://www.w3.org/1999/xlink">

<svg id="main" version="1.1" xmlns="http://www.w3.org/2000/svg" xmlns:xlink="http://www.w3.org/1999/xlink" xml:space="preserve">

<style type="text/css"><![CDATA[
.node, .edge {opacity: 0.7;}
.node.selected, .edge.selected {opacity: 1;}
.edge:hover path { stroke: red; }
.edge:hover polygon { stroke: red; fill: red; }
]]></style>
<script type="application/ecmascript" xlink:href="svg.min.js"/>
<svg id="graph" class="graph">
<g id="graph0" class="graph" transform="scale(1 1) rotate(0) translate(4 244.75)">
<title>nixoncpp::utils::FileReader::getSize</title>
<!-- Node1 -->
<g id="Node000001" class="node">
<title>Node1</title>
<g id="a_Node000001"><a xlink:title="Get the Size object.">
<polygon fill="#999999" stroke="#666666" points="411.75,-105.12 267.5,-105.12 267.5,-71.62 411.75,-71.62 411.75,-105.12"/>
<text text-anchor="start" x="275.5" y="-91.62" font-family="Helvetica,sans-Serif" font-size="10.00">nixoncpp::utils::FileReader</text>
<text text-anchor="middle" x="339.62" y="-78.88" font-family="Helvetica,sans-Serif" font-size="10.00">::getSize</text>
</a>
</g>
</g>
<!-- Node2 -->
<g id="Node000002" class="node">
<title>Node2</title>
<g id="a_Node000002"><a xlink:href="classnixoncpp_1_1utils_1_1FileReader.html#a2435da74c1532afda168a1f44d20ca36" target="_top" xlink:title="Read the entire content of a file as a vector of bytes.">
<polygon fill="white" stroke="#666666" points="231.5,-189.12 87.25,-189.12 87.25,-155.62 231.5,-155.62 231.5,-189.12"/>
<text text-anchor="start" x="95.25" y="-175.62" font-family="Helvetica,sans-Serif" font-size="10.00">nixoncpp::utils::FileReader</text>
<text text-anchor="middle" x="159.38" y="-162.88" font-family="Helvetica,sans-Serif" font-size="10.00">::readBytes</text>
</a>
</g>
</g>
<!-- Node1&#45;&gt;Node2 -->
<g id="edge1_Node000001_Node000002" class="edge">
<title>Node1&#45;&gt;Node2</title>
<g id="a_edge1_Node000001_Node000002"><a xlink:title=" ">
<path fill="none" stroke="#63b8ff" d="M299.67,-111.24C279.65,-122.54 254.65,-135.94 231.5,-146.38 224.67,-149.45 217.35,-152.45 210.11,-155.25"/>
<polygon fill="#63b8ff" stroke="#63b8ff" points="301.38,-114.3 308.34,-106.31 297.92,-108.22 301.38,-114.3"/>
</a>
</g>
</g>
<!-- Node7 -->
<g id="Node000007" class="node">
<title>Node7</title>
<g id="a_Node000007"><a xlink:href="FileReaderTest_8cpp.html#acf5d0870ec57649b43569f8286472d30" target="_top" xlink:title=" ">
<polygon fill="white" stroke="#666666" points="185,-137.75 133.75,-137.75 133.75,-117 185,-117 185,-137.75"/>
<text text-anchor="middle" x="159.38" y="-124.25" font-family="Helvetica,sans-Serif" font-size="10.00">TEST_F</text>
</a>
</g>
</g>
<!-- Node1&#45;&gt;Node7 -->
<g id="edge6_Node000001_Node000007" class="edge">
<title>Node1&#45;&gt;Node7</title>
<g id="a_edge6_Node000001_Node000007"><a xlink:title=" ">
<path fill="none" stroke="#63b8ff" d="M256.16,-106.42C230.34,-112.07 203.77,-117.88 185.19,-121.95"/>
<polygon fill="#63b8ff" stroke="#63b8ff" points="256.65,-109.89 265.67,-104.34 255.16,-103.05 256.65,-109.89"/>
</a>
</g>
</g>
<!-- Node8 -->
<g id="Node000008" class="node">
<title>Node8</title>
<g id="a_Node000008"><a xlink:href="FileReaderTest_8cpp.html#aa5756d60466f1a4e1b06b4e90862a86e" target="_top" xlink:title=" ">
<polygon fill="white" stroke="#666666" points="185,-98.75 133.75,-98.75 133.75,-78 185,-78 185,-98.75"/>
<text text-anchor="middle" x="159.38" y="-85.25" font-family="Helvetica,sans-Serif" font-size="10.00">TEST_F</text>
</a>
</g>
</g>
<!-- Node1&#45;&gt;Node8 -->
<g id="edge7_Node000001_Node000008" class="edge">
<title>Node1&#45;&gt;Node8</title>
<g id="a_edge7_Node000001_Node000008"><a xlink:title=" ">
<path fill="none" stroke="#63b8ff" d="M255.81,-88.38C230.1,-88.38 203.69,-88.38 185.19,-88.38"/>
<polygon fill="#63b8ff" stroke="#63b8ff" points="255.64,-91.88 265.64,-88.38 255.64,-84.88 255.64,-91.88"/>
</a>
</g>
</g>
<!-- Node9 -->
<g id="Node000009" class="node">
<title>Node9</title>
<g id="a_Node000009"><a xlink:href="FileReaderTest_8cpp.html#aed0994f6d1fe9d39d534cb60f2a186b6" target="_top" xlink:title=" ">
<polygon fill="white" stroke="#666666" points="185,-59.75 133.75,-59.75 133.75,-39 185,-39 185,-59.75"/>
<text text-anchor="middle" x="159.38" y="-46.25" font-family="Helvetica,sans-Serif" font-size="10.00">TEST_F</text>
</a>
</g>
</g>
<!-- Node1&#45;&gt;Node9 -->
<g id="edge8_Node000001_Node000009" class="edge">
<title>Node1&#45;&gt;Node9</title>
<g id="a_edge8_Node000001_Node000009"><a xlink:title=" ">
<path fill="none" stroke="#63b8ff" d="M256.16,-70.33C230.34,-64.68 203.77,-58.87 185.19,-54.8"/>
<polygon fill="#63b8ff" stroke="#63b8ff" points="255.16,-73.7 265.67,-72.41 256.65,-66.86 255.16,-73.7"/>
</a>
</g>
</g>
<!-- Node10 -->
<g id="Node000010" class="node">
<title>Node10</title>
<g id="a_Node000010"><a xlink:href="FileReaderTest_8cpp.html#a2dbab418fc5b9014f12804905df01d34" target="_top" xlink:title=" ">
<polygon fill="white" stroke="#666666" points="185,-20.75 133.75,-20.75 133.75,0 185,0 185,-20.75"/>
<text text-anchor="middle" x="159.38" y="-7.25" font-family="Helvetica,sans-Serif" font-size="10.00">TEST_F</text>
</a>
</g>
</g>
<!-- Node1&#45;&gt;Node10 -->
<g id="edge9_Node000001_Node000010" class="edge">
<title>Node1&#45;&gt;Node10</title>
<g id="a_edge9_Node000001_Node000010"><a xlink:title=" ">
<path fill="none" stroke="#63b8ff" d="M301.54,-65.64C281.36,-53.96 255.64,-40.16 231.5,-30.38 216.52,-24.3 199.06,-19.36 185.18,-15.91"/>
<polygon fill="#63b8ff" stroke="#63b8ff" points="299.56,-68.54 309.95,-70.59 303.1,-62.51 299.56,-68.54"/>
</a>
</g>
</g>
<!-- Node3 -->
<g id="Node000003" class="node">
<title>Node3</title>
<g id="a_Node000003"><a xlink:href="FileReaderTest_8cpp.html#a21fbdc04482e85168ee95265a6e6410d" target="_top" xlink:title=" ">
<polygon fill="white" stroke="#666666" points="51.25,-240.75 0,-240.75 0,-220 51.25,-220 51.25,-240.75"/>
<text text-anchor="middle" x="25.62" y="-227.25" font-family="Helvetica,sans-Serif" font-size="10.00">TEST_F</text>
</a>
</g>
</g>
<!-- Node2&#45;&gt;Node3 -->
<g id="edge2_Node000002_Node000003" class="edge">
<title>Node2&#45;&gt;Node3</title>
<g id="a_edge2_Node000002_Node000003"><a xlink:title=" ">
<path fill="none" stroke="#63b8ff" d="M108.79,-194.2C89.01,-202.91 67.15,-212.54 50.95,-219.67"/>
<polygon fill="#63b8ff" stroke="#63b8ff" points="110.07,-197.46 117.82,-190.23 107.25,-191.06 110.07,-197.46"/>
</a>
</g>
</g>
<!-- Node4 -->
<g id="Node000004" class="node">
<title>Node4</title>
<g id="a_Node000004"><a xlink:href="FileReaderTest_8cpp.html#a0131d32a3466ac7f4026682b24f25d4e" target="_top" xlink:title=" ">
<polygon fill="white" stroke="#666666" points="51.25,-201.75 0,-201.75 0,-181 51.25,-181 51.25,-201.75"/>
<text text-anchor="middle" x="25.62" y="-188.25" font-family="Helvetica,sans-Serif" font-size="10.00">TEST_F</text>
</a>
</g>
</g>
<!-- Node2&#45;&gt;Node4 -->
<g id="edge3_Node000002_Node000004" class="edge">
<title>Node2&#45;&gt;Node4</title>
<g id="a_edge3_Node000002_Node000004"><a xlink:title=" ">
<path fill="none" stroke="#63b8ff" d="M75.88,-184.27C67.16,-185.53 58.86,-186.73 51.64,-187.77"/>
<polygon fill="#63b8ff" stroke="#63b8ff" points="76.21,-187.76 85.6,-182.87 75.21,-180.83 76.21,-187.76"/>
</a>
</g>
</g>
<!-- Node5 -->
<g id="Node000005" class="node">
<title>Node5</title>
<g id="a_Node000005"><a xlink:href="FileReaderTest_8cpp.html#a3e54e2d4494798f1b31bf9bc3d9e476a" target="_top" xlink:title=" ">
<polygon fill="white" stroke="#666666" points="51.25,-162.75 0,-162.75 0,-142 51.25,-142 51.25,-162.75"/>
<text text-anchor="middle" x="25.62" y="-149.25" font-family="Helvetica,sans-Serif" font-size="10.00">TEST_F</text>
</a>
</g>
</g>
<!-- Node2&#45;&gt;Node5 -->
<g id="edge4_Node000002_Node000005" class="edge">
<title>Node2&#45;&gt;Node5</title>
<g id="a_edge4_Node000002_Node000005"><a xlink:title=" ">
<path fill="none" stroke="#63b8ff" d="M75.88,-159.85C67.16,-158.53 58.86,-157.27 51.64,-156.17"/>
<polygon fill="#63b8ff" stroke="#63b8ff" points="75.19,-163.29 85.61,-161.33 76.24,-156.37 75.19,-163.29"/>
</a>
</g>
</g>
<!-- Node6 -->
<g id="Node000006" class="node">
<title>Node6</title>
<g id="a_Node000006"><a xlink:href="FileReaderTest_8cpp.html#a92203db8536ae7f1fa01807385f10568" target="_top" xlink:title=" ">
<polygon fill="white" stroke="#666666" points="51.25,-123.75 0,-123.75 0,-103 51.25,-103 51.25,-123.75"/>
<text text-anchor="middle" x="25.62" y="-110.25" font-family="Helvetica,sans-Serif" font-size="10.00">TEST_F</text>
</a>
</g>
</g>
<!-- Node2&#45;&gt;Node6 -->
<g id="edge5_Node000002_Node000006" class="edge">
<title>Node2&#45;&gt;Node6</title>
<g id="a_edge5_Node000002_Node000006"><a xlink:title=" ">
<path fill="none" stroke="#63b8ff" d="M98.12,-151.07C94.42,-149.54 90.77,-147.97 87.25,-146.38 72.62,-139.76 56.69,-131.03 44.84,-124.21"/>
<polygon fill="#63b8ff" stroke="#63b8ff" points="96.65,-154.24 107.23,-154.7 99.24,-147.74 96.65,-154.24"/>
</a>
</g>
</g>
</g>
</svg>
</svg>

<style type='text/css'>
<![CDATA[
[data-mouse-over-selected='false'] { opacity: 0.7; }
[data-mouse-over-selected='true']  { opacity: 1.0; }
]]>
</style>
<script type="application/ecmascript"><![CDATA[
document.addEventListener('DOMContentLoaded', (event) => {
  highlightEdges();
  highlightAdjacentNodes();
});
]]></script>
</svg>
