<?xml version="1.0" encoding="UTF-8" standalone="no"?>
<!DOCTYPE svg PUBLIC "-//W3C//DTD SVG 1.1//EN"
 "http://www.w3.org/Graphics/SVG/1.1/DTD/svg11.dtd">
<!-- Generated by graphviz version 12.2.1 (0)
 -->
<!-- Title: nixoncpp::utils::UtilsFactory::createCustomStringsLoader Pages: 1 -->
<svg width="769pt" height="146pt"
 viewBox="0.00 0.00 768.75 145.50" xmlns="http://www.w3.org/2000/svg" xmlns:xlink="http://www.w3.org/1999/xlink">
<g id="graph0" class="graph" transform="scale(1 1) rotate(0) translate(4 141.5)">
<title>nixoncpp::utils::UtilsFactory::createCustomStringsLoader</title>
<!-- Node1 -->
<g id="Node000001" class="node">
<title>Node1</title>
<g id="a_Node000001"><a xlink:title=" ">
<polygon fill="#999999" stroke="#666666" points="157,-111.5 0,-111.5 0,-78 157,-78 157,-111.5"/>
<text text-anchor="start" x="8" y="-98" font-family="Helvetica,sans-Serif" font-size="10.00">nixoncpp::utils::UtilsFactory</text>
<text text-anchor="middle" x="78.5" y="-85.25" font-family="Helvetica,sans-Serif" font-size="10.00">::createCustomStringsLoader</text>
</a>
</g>
</g>
<!-- Node2 -->
<g id="Node000002" class="node">
<title>Node2</title>
<g id="a_Node000002"><a xlink:href="classnixoncpp_1_1utils_1_1UtilsFactory.html#a6e7781b6db8c887f84c08609c72cee9b" target="_top" xlink:title=" ">
<polygon fill="white" stroke="#666666" points="343.25,-137.5 193,-137.5 193,-104 343.25,-104 343.25,-137.5"/>
<text text-anchor="start" x="201" y="-124" font-family="Helvetica,sans-Serif" font-size="10.00">nixoncpp::utils::UtilsFactory</text>
<text text-anchor="middle" x="268.12" y="-111.25" font-family="Helvetica,sans-Serif" font-size="10.00">::createAssetManager</text>
</a>
</g>
</g>
<!-- Node1&#45;&gt;Node2 -->
<g id="edge1_Node000001_Node000002" class="edge">
<title>Node1&#45;&gt;Node2</title>
<g id="a_edge1_Node000001_Node000002"><a xlink:title=" ">
<path fill="none" stroke="#63b8ff" d="M157.44,-105.55C165.38,-106.65 173.47,-107.77 181.49,-108.88"/>
<polygon fill="#63b8ff" stroke="#63b8ff" points="180.85,-112.33 191.24,-110.23 181.81,-105.39 180.85,-112.33"/>
</a>
</g>
</g>
<!-- Node5 -->
<g id="Node000005" class="node">
<title>Node5</title>
<g id="a_Node000005"><a xlink:href="classnixoncpp_1_1utils_1_1UtilsFactory.html#ac89ae32784dcc62839c88a8e99c50f7c" target="_top" xlink:title=" ">
<polygon fill="white" stroke="#666666" points="343.25,-85.5 193,-85.5 193,-52 343.25,-52 343.25,-85.5"/>
<text text-anchor="start" x="201" y="-72" font-family="Helvetica,sans-Serif" font-size="10.00">nixoncpp::utils::UtilsFactory</text>
<text text-anchor="middle" x="268.12" y="-59.25" font-family="Helvetica,sans-Serif" font-size="10.00">::createJsonSerializer</text>
</a>
</g>
</g>
<!-- Node1&#45;&gt;Node5 -->
<g id="edge4_Node000001_Node000005" class="edge">
<title>Node1&#45;&gt;Node5</title>
<g id="a_edge4_Node000001_Node000005"><a xlink:title=" ">
<path fill="none" stroke="#63b8ff" d="M157.44,-83.95C165.38,-82.85 173.47,-81.73 181.49,-80.62"/>
<polygon fill="#63b8ff" stroke="#63b8ff" points="181.81,-84.11 191.24,-79.27 180.85,-77.17 181.81,-84.11"/>
</a>
</g>
</g>
<!-- Node3 -->
<g id="Node000003" class="node">
<title>Node3</title>
<g id="a_Node000003"><a xlink:href="classnixoncpp_1_1assets_1_1AssetManagerFactory.html#a534dac197c8ab46bca337cbc7162371b" target="_top" xlink:title="Create a Default object.">
<polygon fill="white" stroke="#666666" points="552,-137.5 379.25,-137.5 379.25,-104 552,-104 552,-137.5"/>
<text text-anchor="start" x="387.25" y="-124" font-family="Helvetica,sans-Serif" font-size="10.00">nixoncpp::assets::AssetManager</text>
<text text-anchor="middle" x="465.62" y="-111.25" font-family="Helvetica,sans-Serif" font-size="10.00">Factory::createDefault</text>
</a>
</g>
</g>
<!-- Node2&#45;&gt;Node3 -->
<g id="edge2_Node000002_Node000003" class="edge">
<title>Node2&#45;&gt;Node3</title>
<g id="a_edge2_Node000002_Node000003"><a xlink:title=" ">
<path fill="none" stroke="#63b8ff" d="M343.59,-120.75C351.44,-120.75 359.5,-120.75 367.55,-120.75"/>
<polygon fill="#63b8ff" stroke="#63b8ff" points="367.4,-124.25 377.4,-120.75 367.4,-117.25 367.4,-124.25"/>
</a>
</g>
</g>
<!-- Node4 -->
<g id="Node000004" class="node">
<title>Node4</title>
<g id="a_Node000004"><a xlink:href="classnixoncpp_1_1assets_1_1AssetManager.html#a9778c797417b17b62b8f1135ca613cd3" target="_top" xlink:title="Create a new Asset Manager instance.">
<polygon fill="white" stroke="#666666" points="760.75,-137.5 588,-137.5 588,-104 760.75,-104 760.75,-137.5"/>
<text text-anchor="start" x="596" y="-124" font-family="Helvetica,sans-Serif" font-size="10.00">nixoncpp::assets::AssetManager</text>
<text text-anchor="middle" x="674.38" y="-111.25" font-family="Helvetica,sans-Serif" font-size="10.00">::create</text>
</a>
</g>
</g>
<!-- Node3&#45;&gt;Node4 -->
<g id="edge3_Node000003_Node000004" class="edge">
<title>Node3&#45;&gt;Node4</title>
<g id="a_edge3_Node000003_Node000004"><a xlink:title=" ">
<path fill="none" stroke="#63b8ff" d="M552.21,-120.75C560.14,-120.75 568.21,-120.75 576.23,-120.75"/>
<polygon fill="#63b8ff" stroke="#63b8ff" points="576.01,-124.25 586.01,-120.75 576.01,-117.25 576.01,-124.25"/>
</a>
</g>
</g>
<!-- Node6 -->
<g id="Node000006" class="node">
<title>Node6</title>
<g id="a_Node000006"><a xlink:href="classnixoncpp_1_1utils_1_1UtilsFactory.html#a898645cce10d377a7586d12c3fdb6e93" target="_top" xlink:title=" ">
<polygon fill="white" stroke="#666666" points="540.75,-85.5 390.5,-85.5 390.5,-52 540.75,-52 540.75,-85.5"/>
<text text-anchor="start" x="398.5" y="-72" font-family="Helvetica,sans-Serif" font-size="10.00">nixoncpp::utils::UtilsFactory</text>
<text text-anchor="middle" x="465.62" y="-59.25" font-family="Helvetica,sans-Serif" font-size="10.00">::createFileReader</text>
</a>
</g>
</g>
<!-- Node5&#45;&gt;Node6 -->
<g id="edge5_Node000005_Node000006" class="edge">
<title>Node5&#45;&gt;Node6</title>
<g id="a_edge5_Node000005_Node000006"><a xlink:title=" ">
<path fill="none" stroke="#63b8ff" d="M343.59,-68.75C355.12,-68.75 367.11,-68.75 378.87,-68.75"/>
<polygon fill="#63b8ff" stroke="#63b8ff" points="378.53,-72.25 388.53,-68.75 378.53,-65.25 378.53,-72.25"/>
</a>
</g>
</g>
<!-- Node7 -->
<g id="Node000007" class="node">
<title>Node7</title>
<g id="a_Node000007"><a xlink:href="classnixoncpp_1_1utils_1_1UtilsFactory.html#a1315826b061bc911c58a3bca701ef5f0" target="_top" xlink:title=" ">
<polygon fill="white" stroke="#666666" points="540.75,-33.5 390.5,-33.5 390.5,0 540.75,0 540.75,-33.5"/>
<text text-anchor="start" x="398.5" y="-20" font-family="Helvetica,sans-Serif" font-size="10.00">nixoncpp::utils::UtilsFactory</text>
<text text-anchor="middle" x="465.62" y="-7.25" font-family="Helvetica,sans-Serif" font-size="10.00">::createFileWriter</text>
</a>
</g>
</g>
<!-- Node5&#45;&gt;Node7 -->
<g id="edge6_Node000005_Node000007" class="edge">
<title>Node5&#45;&gt;Node7</title>
<g id="a_edge6_Node000005_Node000007"><a xlink:title=" ">
<path fill="none" stroke="#63b8ff" d="M333.95,-51.51C351.53,-46.83 370.72,-41.73 388.85,-36.91"/>
<polygon fill="#63b8ff" stroke="#63b8ff" points="389.75,-40.29 398.51,-34.34 387.95,-33.52 389.75,-40.29"/>
</a>
</g>
</g>
</g>
</svg>
