<?xml version="1.0" encoding="UTF-8" standalone="no"?>
<!DOCTYPE svg PUBLIC "-//W3C//DTD SVG 1.1//EN"
 "http://www.w3.org/Graphics/SVG/1.1/DTD/svg11.dtd">
<!-- Generated by graphviz version 12.2.1 (0)
 -->
<!-- Title: nixoncpp::utils::UnixPlatformInfo::UnixPlatformInfo Pages: 1 -->
<svg width="358pt" height="198pt"
 viewBox="0.00 0.00 358.00 197.50" xmlns="http://www.w3.org/2000/svg" xmlns:xlink="http://www.w3.org/1999/xlink">

<svg id="main" version="1.1" xmlns="http://www.w3.org/2000/svg" xmlns:xlink="http://www.w3.org/1999/xlink" xml:space="preserve">

<style type="text/css"><![CDATA[
.node, .edge {opacity: 0.7;}
.node.selected, .edge.selected {opacity: 1;}
.edge:hover path { stroke: red; }
.edge:hover polygon { stroke: red; fill: red; }
]]></style>
<script type="application/ecmascript" xlink:href="svg.min.js"/>
<svg id="graph" class="graph">
<g id="graph0" class="graph" transform="scale(1 1) rotate(0) translate(4 193.5)">
<title>nixoncpp::utils::UnixPlatformInfo::UnixPlatformInfo</title>
<!-- Node1 -->
<g id="Node000001" class="node">
<title>Node1</title>
<g id="a_Node000001"><a xlink:title=" ">
<polygon fill="#999999" stroke="#666666" points="350,-111.5 193,-111.5 193,-78 350,-78 350,-111.5"/>
<text text-anchor="start" x="201" y="-98" font-family="Helvetica,sans-Serif" font-size="10.00">nixoncpp::utils::UnixPlatform</text>
<text text-anchor="middle" x="271.5" y="-85.25" font-family="Helvetica,sans-Serif" font-size="10.00">Info::UnixPlatformInfo</text>
</a>
</g>
</g>
<!-- Node2 -->
<g id="Node000002" class="node">
<title>Node2</title>
<g id="a_Node000002"><a xlink:href="classnixoncpp_1_1utils_1_1UnixPlatformInfo.html#aca3164ca869512cc7fbc855239cf1217" target="_top" xlink:title=" ">
<polygon fill="white" stroke="#666666" points="157,-189.5 0,-189.5 0,-156 157,-156 157,-189.5"/>
<text text-anchor="start" x="8" y="-176" font-family="Helvetica,sans-Serif" font-size="10.00">nixoncpp::utils::UnixPlatform</text>
<text text-anchor="middle" x="78.5" y="-163.25" font-family="Helvetica,sans-Serif" font-size="10.00">Info::operator=</text>
</a>
</g>
</g>
<!-- Node1&#45;&gt;Node2 -->
<g id="edge1_Node000001_Node000002" class="edge">
<title>Node1&#45;&gt;Node2</title>
<g id="a_edge1_Node000001_Node000002"><a xlink:title=" ">
<path fill="none" stroke="#63b8ff" d="M225.28,-116.8C204.67,-126.5 179.83,-137.72 157,-146.75 149.35,-149.78 141.18,-152.77 133.13,-155.58"/>
<polygon fill="#63b8ff" stroke="#63b8ff" points="226.74,-119.98 234.27,-112.53 223.74,-113.66 226.74,-119.98"/>
</a>
</g>
</g>
<!-- Node3 -->
<g id="Node000003" class="node">
<title>Node3</title>
<g id="a_Node000003"><a xlink:href="classnixoncpp_1_1utils_1_1UnixPlatformInfo.html#a090c1b16c8df97f45aa7bb7d01cbbc7b" target="_top" xlink:title=" ">
<polygon fill="white" stroke="#666666" points="157,-137.5 0,-137.5 0,-104 157,-104 157,-137.5"/>
<text text-anchor="start" x="8" y="-124" font-family="Helvetica,sans-Serif" font-size="10.00">nixoncpp::utils::UnixPlatform</text>
<text text-anchor="middle" x="78.5" y="-111.25" font-family="Helvetica,sans-Serif" font-size="10.00">Info::operator=</text>
</a>
</g>
</g>
<!-- Node1&#45;&gt;Node3 -->
<g id="edge2_Node000001_Node000003" class="edge">
<title>Node1&#45;&gt;Node3</title>
<g id="a_edge2_Node000001_Node000003"><a xlink:title=" ">
<path fill="none" stroke="#63b8ff" d="M181.25,-106.9C173.22,-107.99 165.13,-109.09 157.21,-110.17"/>
<polygon fill="#63b8ff" stroke="#63b8ff" points="181.6,-110.38 191.04,-105.57 180.66,-103.45 181.6,-110.38"/>
</a>
</g>
</g>
<!-- Node4 -->
<g id="Node000004" class="node">
<title>Node4</title>
<g id="a_Node000004"><a xlink:href="classnixoncpp_1_1utils_1_1UnixPlatformInfo.html#a08a0b4a719dbad72d4a36292d00f4af0" target="_top" xlink:title=" ">
<polygon fill="white" stroke="#666666" points="157,-85.5 0,-85.5 0,-52 157,-52 157,-85.5"/>
<text text-anchor="start" x="8" y="-72" font-family="Helvetica,sans-Serif" font-size="10.00">nixoncpp::utils::UnixPlatform</text>
<text text-anchor="middle" x="78.5" y="-59.25" font-family="Helvetica,sans-Serif" font-size="10.00">Info::UnixPlatformInfo</text>
</a>
</g>
</g>
<!-- Node1&#45;&gt;Node4 -->
<g id="edge3_Node000001_Node000004" class="edge">
<title>Node1&#45;&gt;Node4</title>
<g id="a_edge3_Node000001_Node000004"><a xlink:title=" ">
<path fill="none" stroke="#63b8ff" d="M181.25,-82.6C173.22,-81.51 165.13,-80.41 157.21,-79.33"/>
<polygon fill="#63b8ff" stroke="#63b8ff" points="180.66,-86.05 191.04,-83.93 181.6,-79.12 180.66,-86.05"/>
</a>
</g>
</g>
<!-- Node5 -->
<g id="Node000005" class="node">
<title>Node5</title>
<g id="a_Node000005"><a xlink:href="classnixoncpp_1_1utils_1_1UnixPlatformInfo.html#a3084da0ad3eaaeeceb2776979be95be9" target="_top" xlink:title=" ">
<polygon fill="white" stroke="#666666" points="157,-33.5 0,-33.5 0,0 157,0 157,-33.5"/>
<text text-anchor="start" x="8" y="-20" font-family="Helvetica,sans-Serif" font-size="10.00">nixoncpp::utils::UnixPlatform</text>
<text text-anchor="middle" x="78.5" y="-7.25" font-family="Helvetica,sans-Serif" font-size="10.00">Info::UnixPlatformInfo</text>
</a>
</g>
</g>
<!-- Node1&#45;&gt;Node5 -->
<g id="edge4_Node000001_Node000005" class="edge">
<title>Node1&#45;&gt;Node5</title>
<g id="a_edge4_Node000001_Node000005"><a xlink:title=" ">
<path fill="none" stroke="#63b8ff" d="M225.28,-72.7C204.67,-63 179.83,-51.78 157,-42.75 149.35,-39.72 141.18,-36.73 133.13,-33.92"/>
<polygon fill="#63b8ff" stroke="#63b8ff" points="223.74,-75.84 234.27,-76.97 226.74,-69.52 223.74,-75.84"/>
</a>
</g>
</g>
</g>
</svg>
</svg>

<style type='text/css'>
<![CDATA[
[data-mouse-over-selected='false'] { opacity: 0.7; }
[data-mouse-over-selected='true']  { opacity: 1.0; }
]]>
</style>
<script type="application/ecmascript"><![CDATA[
document.addEventListener('DOMContentLoaded', (event) => {
  highlightEdges();
  highlightAdjacentNodes();
});
]]></script>
</svg>
