<?xml version="1.0" encoding="UTF-8" standalone="no"?>
<!DOCTYPE svg PUBLIC "-//W3C//DTD SVG 1.1//EN"
 "http://www.w3.org/Graphics/SVG/1.1/DTD/svg11.dtd">
<!-- Generated by graphviz version 12.2.1 (0)
 -->
<!-- Title: ConsoleLogger::error Pages: 1 -->
<svg width="841pt" height="118pt"
 viewBox="0.00 0.00 841.00 118.12" xmlns="http://www.w3.org/2000/svg" xmlns:xlink="http://www.w3.org/1999/xlink">
<g id="graph0" class="graph" transform="scale(1 1) rotate(0) translate(4 114.12)">
<title>ConsoleLogger::error</title>
<!-- Node1 -->
<g id="Node000001" class="node">
<title>Node1</title>
<g id="a_Node000001"><a xlink:title="Log an error message.">
<polygon fill="#999999" stroke="#666666" points="117.25,-72.12 0,-72.12 0,-51.38 117.25,-51.38 117.25,-72.12"/>
<text text-anchor="middle" x="58.62" y="-58.62" font-family="Helvetica,sans-Serif" font-size="10.00">ConsoleLogger::error</text>
</a>
</g>
</g>
<!-- Node2 -->
<g id="Node000002" class="node">
<title>Node2</title>
<g id="a_Node000002"><a xlink:href="classConsoleLogger.html#a31696856245b018e9645c614683ba037" target="_top" xlink:title="Logs a message with a specified level to the console and optionally to a file.">
<polygon fill="white" stroke="#666666" points="262.25,-72.12 153.25,-72.12 153.25,-51.38 262.25,-51.38 262.25,-72.12"/>
<text text-anchor="middle" x="207.75" y="-58.62" font-family="Helvetica,sans-Serif" font-size="10.00">ConsoleLogger::log</text>
</a>
</g>
</g>
<!-- Node1&#45;&gt;Node2 -->
<g id="edge1_Node000001_Node000002" class="edge">
<title>Node1&#45;&gt;Node2</title>
<g id="a_edge1_Node000001_Node000002"><a xlink:title=" ">
<path fill="none" stroke="#63b8ff" d="M117.35,-61.75C125.34,-61.75 133.59,-61.75 141.7,-61.75"/>
<polygon fill="#63b8ff" stroke="#63b8ff" points="141.52,-65.25 151.52,-61.75 141.52,-58.25 141.52,-65.25"/>
</a>
</g>
</g>
<!-- Node3 -->
<g id="Node000003" class="node">
<title>Node3</title>
<g id="a_Node000003"><a xlink:href="classConsoleLogger.html#a5d533abe0114989d4997b6dabfe4687c" target="_top" xlink:title="Convert a logging level to its string representation.">
<polygon fill="white" stroke="#666666" points="455.25,-110.12 298.25,-110.12 298.25,-89.38 455.25,-89.38 455.25,-110.12"/>
<text text-anchor="middle" x="376.75" y="-96.62" font-family="Helvetica,sans-Serif" font-size="10.00">ConsoleLogger::levelToString</text>
</a>
</g>
</g>
<!-- Node2&#45;&gt;Node3 -->
<g id="edge2_Node000002_Node000003" class="edge">
<title>Node2&#45;&gt;Node3</title>
<g id="a_edge2_Node000002_Node000003"><a xlink:title=" ">
<path fill="none" stroke="#63b8ff" d="M256.16,-72.54C275.11,-76.85 297.13,-81.86 317.08,-86.4"/>
<polygon fill="#63b8ff" stroke="#63b8ff" points="316.22,-89.79 326.75,-88.6 317.77,-82.97 316.22,-89.79"/>
</a>
</g>
</g>
<!-- Node4 -->
<g id="Node000004" class="node">
<title>Node4</title>
<g id="a_Node000004"><a xlink:href="classConsoleLogger.html#a787b42f6e197b60908113326b9a048fa" target="_top" xlink:title="Reset the console color to default.">
<polygon fill="white" stroke="#666666" points="833,-55.5 675.25,-55.5 675.25,-22 833,-22 833,-55.5"/>
<text text-anchor="start" x="683.25" y="-42" font-family="Helvetica,sans-Serif" font-size="10.00">ConsoleLogger::resetConsole</text>
<text text-anchor="middle" x="754.12" y="-29.25" font-family="Helvetica,sans-Serif" font-size="10.00">Color</text>
</a>
</g>
</g>
<!-- Node2&#45;&gt;Node4 -->
<g id="edge3_Node000002_Node000004" class="edge">
<title>Node2&#45;&gt;Node4</title>
<g id="a_edge3_Node000002_Node000004"><a xlink:title=" ">
<path fill="none" stroke="#63b8ff" d="M262.44,-59.48C355.93,-55.53 549.51,-47.35 663.6,-42.53"/>
<polygon fill="#63b8ff" stroke="#63b8ff" points="663.71,-46.03 673.55,-42.11 663.41,-39.04 663.71,-46.03"/>
</a>
</g>
</g>
<!-- Node5 -->
<g id="Node000005" class="node">
<title>Node5</title>
<g id="a_Node000005"><a xlink:href="classConsoleLogger.html#a034b07dd5f02314f42f248eda08fe2b9" target="_top" xlink:title=" ">
<polygon fill="white" stroke="#666666" points="450.75,-33.5 302.75,-33.5 302.75,0 450.75,0 450.75,-33.5"/>
<text text-anchor="start" x="310.75" y="-20" font-family="Helvetica,sans-Serif" font-size="10.00">ConsoleLogger::setConsole</text>
<text text-anchor="middle" x="376.75" y="-7.25" font-family="Helvetica,sans-Serif" font-size="10.00">Color</text>
</a>
</g>
</g>
<!-- Node2&#45;&gt;Node5 -->
<g id="edge4_Node000002_Node000005" class="edge">
<title>Node2&#45;&gt;Node5</title>
<g id="a_edge4_Node000002_Node000005"><a xlink:title=" ">
<path fill="none" stroke="#63b8ff" d="M248.75,-50.97C264.41,-46.75 282.91,-41.77 300.87,-36.93"/>
<polygon fill="#63b8ff" stroke="#63b8ff" points="301.74,-40.32 310.49,-34.34 299.92,-33.56 301.74,-40.32"/>
</a>
</g>
</g>
<!-- Node6 -->
<g id="Node000006" class="node">
<title>Node6</title>
<g id="a_Node000006"><a xlink:href="classConsoleLogger.html#addb2587c7a7fe4e6c213f22f7db385c6" target="_top" xlink:title=" ">
<polygon fill="white" stroke="#666666" points="639.25,-33.5 491.25,-33.5 491.25,0 639.25,0 639.25,-33.5"/>
<text text-anchor="start" x="499.25" y="-20" font-family="Helvetica,sans-Serif" font-size="10.00">ConsoleLogger::setConsole</text>
<text text-anchor="middle" x="565.25" y="-7.25" font-family="Helvetica,sans-Serif" font-size="10.00">ColorUnix</text>
</a>
</g>
</g>
<!-- Node5&#45;&gt;Node6 -->
<g id="edge5_Node000005_Node000006" class="edge">
<title>Node5&#45;&gt;Node6</title>
<g id="a_edge5_Node000005_Node000006"><a xlink:title=" ">
<path fill="none" stroke="#63b8ff" d="M451.19,-16.75C460.47,-16.75 470.02,-16.75 479.45,-16.75"/>
<polygon fill="#63b8ff" stroke="#63b8ff" points="479.36,-20.25 489.36,-16.75 479.36,-13.25 479.36,-20.25"/>
</a>
</g>
</g>
<!-- Node6&#45;&gt;Node4 -->
<g id="edge6_Node000006_Node000004" class="edge">
<title>Node6&#45;&gt;Node4</title>
<g id="a_edge6_Node000006_Node000004"><a xlink:title=" ">
<path fill="none" stroke="#63b8ff" d="M639.57,-25.38C647.43,-26.31 655.48,-27.25 663.49,-28.2"/>
<polygon fill="#63b8ff" stroke="#63b8ff" points="662.93,-31.66 673.27,-29.35 663.75,-24.7 662.93,-31.66"/>
</a>
</g>
</g>
</g>
</svg>
