<?xml version="1.0" encoding="UTF-8" standalone="no"?>
<!DOCTYPE svg PUBLIC "-//W3C//DTD SVG 1.1//EN"
 "http://www.w3.org/Graphics/SVG/1.1/DTD/svg11.dtd">
<!-- Generated by graphviz version 12.2.1 (0)
 -->
<!-- Title: nixoncpp::utils::UtilsFactory::createJsonSerializer Pages: 1 -->
<svg width="614pt" height="169pt"
 viewBox="0.00 0.00 614.25 168.50" xmlns="http://www.w3.org/2000/svg" xmlns:xlink="http://www.w3.org/1999/xlink">
<g id="graph0" class="graph" transform="scale(1 1) rotate(0) translate(4 164.5)">
<title>nixoncpp::utils::UtilsFactory::createJsonSerializer</title>
<!-- Node1 -->
<g id="Node000001" class="node">
<title>Node1</title>
<g id="a_Node000001"><a xlink:title=" ">
<polygon fill="#999999" stroke="#666666" points="606.25,-82.5 456,-82.5 456,-49 606.25,-49 606.25,-82.5"/>
<text text-anchor="start" x="464" y="-69" font-family="Helvetica,sans-Serif" font-size="10.00">nixoncpp::utils::UtilsFactory</text>
<text text-anchor="middle" x="531.12" y="-56.25" font-family="Helvetica,sans-Serif" font-size="10.00">::createJsonSerializer</text>
</a>
</g>
</g>
<!-- Node2 -->
<g id="Node000002" class="node">
<title>Node2</title>
<g id="a_Node000002"><a xlink:href="classnixoncpp_1_1utils_1_1UtilsFactory.html#aab74a1a2491ea457c170d20781cf6897" target="_top" xlink:title="Create basic utilities context with default logger.">
<polygon fill="white" stroke="#666666" points="416.62,-160.5 266.38,-160.5 266.38,-127 416.62,-127 416.62,-160.5"/>
<text text-anchor="start" x="274.38" y="-147" font-family="Helvetica,sans-Serif" font-size="10.00">nixoncpp::utils::UtilsFactory</text>
<text text-anchor="middle" x="341.5" y="-134.25" font-family="Helvetica,sans-Serif" font-size="10.00">::createBasicContext</text>
</a>
</g>
</g>
<!-- Node1&#45;&gt;Node2 -->
<g id="edge1_Node000001_Node000002" class="edge">
<title>Node1&#45;&gt;Node2</title>
<g id="a_edge1_Node000001_Node000002"><a xlink:title=" ">
<path fill="none" stroke="#63b8ff" d="M486.04,-88.02C466.11,-97.71 442.11,-108.86 420,-117.75 412.49,-120.77 404.49,-123.73 396.58,-126.52"/>
<polygon fill="#63b8ff" stroke="#63b8ff" points="487.56,-91.17 495,-83.63 484.48,-84.89 487.56,-91.17"/>
</a>
</g>
</g>
<!-- Node3 -->
<g id="Node000003" class="node">
<title>Node3</title>
<g id="a_Node000003"><a xlink:href="classnixoncpp_1_1utils_1_1UtilsFactory.html#a7584ff01912c5d2a8450715debefed80" target="_top" xlink:title="Create minimal context without app&#45;specific components.">
<polygon fill="white" stroke="#666666" points="416.62,-108.5 266.38,-108.5 266.38,-75 416.62,-75 416.62,-108.5"/>
<text text-anchor="start" x="274.38" y="-95" font-family="Helvetica,sans-Serif" font-size="10.00">nixoncpp::utils::UtilsFactory</text>
<text text-anchor="middle" x="341.5" y="-82.25" font-family="Helvetica,sans-Serif" font-size="10.00">::createCoreContext</text>
</a>
</g>
</g>
<!-- Node1&#45;&gt;Node3 -->
<g id="edge2_Node000001_Node000003" class="edge">
<title>Node1&#45;&gt;Node3</title>
<g id="a_edge2_Node000001_Node000003"><a xlink:title=" ">
<path fill="none" stroke="#63b8ff" d="M444.51,-77.61C435.27,-78.89 425.92,-80.19 416.83,-81.45"/>
<polygon fill="#63b8ff" stroke="#63b8ff" points="444.78,-81.11 454.2,-76.27 443.82,-74.18 444.78,-81.11"/>
</a>
</g>
</g>
<!-- Node4 -->
<g id="Node000004" class="node">
<title>Node4</title>
<g id="a_Node000004"><a xlink:href="classnixoncpp_1_1utils_1_1UtilsFactory.html#a5d58ef900c1db80a1d196a271d26b6e4" target="_top" xlink:title=" ">
<polygon fill="white" stroke="#666666" points="420,-56.5 263,-56.5 263,-23 420,-23 420,-56.5"/>
<text text-anchor="start" x="271" y="-43" font-family="Helvetica,sans-Serif" font-size="10.00">nixoncpp::utils::UtilsFactory</text>
<text text-anchor="middle" x="341.5" y="-30.25" font-family="Helvetica,sans-Serif" font-size="10.00">::createCustomStringsLoader</text>
</a>
</g>
</g>
<!-- Node1&#45;&gt;Node4 -->
<g id="edge3_Node000001_Node000004" class="edge">
<title>Node1&#45;&gt;Node4</title>
<g id="a_edge3_Node000001_Node000004"><a xlink:title=" ">
<path fill="none" stroke="#63b8ff" d="M444.39,-53.87C436.33,-52.75 428.2,-51.63 420.22,-50.52"/>
<polygon fill="#63b8ff" stroke="#63b8ff" points="443.82,-57.32 454.2,-55.23 444.78,-50.39 443.82,-57.32"/>
</a>
</g>
</g>
<!-- Node5 -->
<g id="Node000005" class="node">
<title>Node5</title>
<g id="a_Node000005"><a xlink:href="classnixoncpp_1_1utils_1_1UtilsFactory.html#a4f4379374cac4b57e87332373ecdb3c2" target="_top" xlink:title="Create full application context with all components.">
<polygon fill="white" stroke="#666666" points="227,-33.5 76.75,-33.5 76.75,0 227,0 227,-33.5"/>
<text text-anchor="start" x="84.75" y="-20" font-family="Helvetica,sans-Serif" font-size="10.00">nixoncpp::utils::UtilsFactory</text>
<text text-anchor="middle" x="151.88" y="-7.25" font-family="Helvetica,sans-Serif" font-size="10.00">::createFullContext</text>
</a>
</g>
</g>
<!-- Node1&#45;&gt;Node5 -->
<g id="edge6_Node000001_Node000005" class="edge">
<title>Node1&#45;&gt;Node5</title>
<g id="a_edge6_Node000001_Node000005"><a xlink:title=" ">
<path fill="none" stroke="#63b8ff" d="M492.91,-43.12C472.24,-31.87 445.59,-19.49 420,-13.75 356.08,0.58 281.37,-1.81 227.24,-6.84"/>
<polygon fill="#63b8ff" stroke="#63b8ff" points="491.08,-46.11 501.52,-47.94 494.51,-40 491.08,-46.11"/>
</a>
</g>
</g>
<!-- Node4&#45;&gt;Node5 -->
<g id="edge4_Node000004_Node000005" class="edge">
<title>Node4&#45;&gt;Node5</title>
<g id="a_edge4_Node000004_Node000005"><a xlink:title=" ">
<path fill="none" stroke="#63b8ff" d="M251.26,-28.81C243.22,-27.83 235.15,-26.84 227.26,-25.87"/>
<polygon fill="#63b8ff" stroke="#63b8ff" points="250.71,-32.27 261.06,-30.01 251.56,-25.32 250.71,-32.27"/>
</a>
</g>
</g>
<!-- Node6 -->
<g id="Node000006" class="node">
<title>Node6</title>
<g id="a_Node000006"><a xlink:href="Application_8cpp.html#a3c04138a5bfe5d72780bb7e82a18e627" target="_top" xlink:title=" ">
<polygon fill="white" stroke="#666666" points="40.75,-27.12 0,-27.12 0,-6.38 40.75,-6.38 40.75,-27.12"/>
<text text-anchor="middle" x="20.38" y="-13.62" font-family="Helvetica,sans-Serif" font-size="10.00">main</text>
</a>
</g>
</g>
<!-- Node5&#45;&gt;Node6 -->
<g id="edge5_Node000005_Node000006" class="edge">
<title>Node5&#45;&gt;Node6</title>
<g id="a_edge5_Node000005_Node000006"><a xlink:title=" ">
<path fill="none" stroke="#63b8ff" d="M64.97,-16.75C56.24,-16.75 48.08,-16.75 41.23,-16.75"/>
<polygon fill="#63b8ff" stroke="#63b8ff" points="64.78,-20.25 74.78,-16.75 64.78,-13.25 64.78,-20.25"/>
</a>
</g>
</g>
</g>
</svg>
