<?xml version="1.0" encoding="UTF-8" standalone="no"?>
<!DOCTYPE svg PUBLIC "-//W3C//DTD SVG 1.1//EN"
 "http://www.w3.org/Graphics/SVG/1.1/DTD/svg11.dtd">
<!-- Generated by graphviz version 12.2.1 (0)
 -->
<!-- Title: nixoncpp::assets::AssetManager::validate Pages: 1 -->
<svg width="268pt" height="224pt"
 viewBox="0.00 0.00 268.00 223.75" xmlns="http://www.w3.org/2000/svg" xmlns:xlink="http://www.w3.org/1999/xlink">

<svg id="main" version="1.1" xmlns="http://www.w3.org/2000/svg" xmlns:xlink="http://www.w3.org/1999/xlink" xml:space="preserve">

<style type="text/css"><![CDATA[
.node, .edge {opacity: 0.7;}
.node.selected, .edge.selected {opacity: 1;}
.edge:hover path { stroke: red; }
.edge:hover polygon { stroke: red; fill: red; }
]]></style>
<script type="application/ecmascript" xlink:href="svg.min.js"/>
<svg id="graph" class="graph">
<g id="graph0" class="graph" transform="scale(1 1) rotate(0) translate(4 219.75)">
<title>nixoncpp::assets::AssetManager::validate</title>
<!-- Node1 -->
<g id="Node000001" class="node">
<title>Node1</title>
<g id="a_Node000001"><a xlink:title="Validate the asset manager configuration.">
<polygon fill="#999999" stroke="#666666" points="260,-124.12 87.25,-124.12 87.25,-90.62 260,-90.62 260,-124.12"/>
<text text-anchor="start" x="95.25" y="-110.62" font-family="Helvetica,sans-Serif" font-size="10.00">nixoncpp::assets::AssetManager</text>
<text text-anchor="middle" x="173.62" y="-97.88" font-family="Helvetica,sans-Serif" font-size="10.00">::validate</text>
</a>
</g>
</g>
<!-- Node2 -->
<g id="Node000002" class="node">
<title>Node2</title>
<g id="a_Node000002"><a xlink:href="AssetManagerTest_8cpp.html#a164d13741975afb5bcc7c1850a6bf0b6" target="_top" xlink:title=" ">
<polygon fill="white" stroke="#666666" points="51.25,-215.75 0,-215.75 0,-195 51.25,-195 51.25,-215.75"/>
<text text-anchor="middle" x="25.62" y="-202.25" font-family="Helvetica,sans-Serif" font-size="10.00">TEST_F</text>
</a>
</g>
</g>
<!-- Node1&#45;&gt;Node2 -->
<g id="edge1_Node000001_Node000002" class="edge">
<title>Node1&#45;&gt;Node2</title>
<g id="a_edge1_Node000001_Node000002"><a xlink:title=" ">
<path fill="none" stroke="#63b8ff" d="M137.88,-130.7C107.76,-150.91 65.53,-179.26 42.74,-194.56"/>
<polygon fill="#63b8ff" stroke="#63b8ff" points="139.58,-133.77 145.94,-125.29 135.68,-127.96 139.58,-133.77"/>
</a>
</g>
</g>
<!-- Node3 -->
<g id="Node000003" class="node">
<title>Node3</title>
<g id="a_Node000003"><a xlink:href="AssetManagerTest_8cpp.html#abe136243ace10c032013eac345788425" target="_top" xlink:title=" ">
<polygon fill="white" stroke="#666666" points="51.25,-176.75 0,-176.75 0,-156 51.25,-156 51.25,-176.75"/>
<text text-anchor="middle" x="25.62" y="-163.25" font-family="Helvetica,sans-Serif" font-size="10.00">TEST_F</text>
</a>
</g>
</g>
<!-- Node1&#45;&gt;Node3 -->
<g id="edge2_Node000001_Node000003" class="edge">
<title>Node1&#45;&gt;Node3</title>
<g id="a_edge2_Node000001_Node000003"><a xlink:title=" ">
<path fill="none" stroke="#63b8ff" d="M119.6,-128.8C96.42,-138.17 70.33,-148.71 51.7,-156.24"/>
<polygon fill="#63b8ff" stroke="#63b8ff" points="120.64,-132.16 128.6,-125.17 118.02,-125.67 120.64,-132.16"/>
</a>
</g>
</g>
<!-- Node4 -->
<g id="Node000004" class="node">
<title>Node4</title>
<g id="a_Node000004"><a xlink:href="AssetManagerTest_8cpp.html#a54a1c8e328d04db768b927359b1242d6" target="_top" xlink:title=" ">
<polygon fill="white" stroke="#666666" points="51.25,-137.75 0,-137.75 0,-117 51.25,-117 51.25,-137.75"/>
<text text-anchor="middle" x="25.62" y="-124.25" font-family="Helvetica,sans-Serif" font-size="10.00">TEST_F</text>
</a>
</g>
</g>
<!-- Node1&#45;&gt;Node4 -->
<g id="edge3_Node000001_Node000004" class="edge">
<title>Node1&#45;&gt;Node4</title>
<g id="a_edge3_Node000001_Node000004"><a xlink:title=" ">
<path fill="none" stroke="#63b8ff" d="M75.65,-120.66C66.99,-121.85 58.83,-122.96 51.75,-123.93"/>
<polygon fill="#63b8ff" stroke="#63b8ff" points="75.92,-124.16 85.35,-119.33 74.97,-117.22 75.92,-124.16"/>
</a>
</g>
</g>
<!-- Node5 -->
<g id="Node000005" class="node">
<title>Node5</title>
<g id="a_Node000005"><a xlink:href="AssetManagerTest_8cpp.html#a0b3d8f45924e169b41efc8e21cf54de7" target="_top" xlink:title=" ">
<polygon fill="white" stroke="#666666" points="51.25,-98.75 0,-98.75 0,-78 51.25,-78 51.25,-98.75"/>
<text text-anchor="middle" x="25.62" y="-85.25" font-family="Helvetica,sans-Serif" font-size="10.00">TEST_F</text>
</a>
</g>
</g>
<!-- Node1&#45;&gt;Node5 -->
<g id="edge4_Node000001_Node000005" class="edge">
<title>Node1&#45;&gt;Node5</title>
<g id="a_edge4_Node000001_Node000005"><a xlink:title=" ">
<path fill="none" stroke="#63b8ff" d="M75.65,-94.75C66.99,-93.63 58.83,-92.57 51.75,-91.64"/>
<polygon fill="#63b8ff" stroke="#63b8ff" points="74.98,-98.2 85.35,-96.02 75.89,-91.26 74.98,-98.2"/>
</a>
</g>
</g>
<!-- Node6 -->
<g id="Node000006" class="node">
<title>Node6</title>
<g id="a_Node000006"><a xlink:href="AssetManagerTest_8cpp.html#af93464a1881ac52a77cce1cee91dbc58" target="_top" xlink:title=" ">
<polygon fill="white" stroke="#666666" points="51.25,-59.75 0,-59.75 0,-39 51.25,-39 51.25,-59.75"/>
<text text-anchor="middle" x="25.62" y="-46.25" font-family="Helvetica,sans-Serif" font-size="10.00">TEST_F</text>
</a>
</g>
</g>
<!-- Node1&#45;&gt;Node6 -->
<g id="edge5_Node000001_Node000006" class="edge">
<title>Node1&#45;&gt;Node6</title>
<g id="a_edge5_Node000001_Node000006"><a xlink:title=" ">
<path fill="none" stroke="#63b8ff" d="M118.52,-85.88C95.5,-76.74 69.79,-66.52 51.43,-59.23"/>
<polygon fill="#63b8ff" stroke="#63b8ff" points="117.22,-89.13 127.81,-89.57 119.81,-82.63 117.22,-89.13"/>
</a>
</g>
</g>
<!-- Node7 -->
<g id="Node000007" class="node">
<title>Node7</title>
<g id="a_Node000007"><a xlink:href="AssetManagerTest_8cpp.html#a63e0468dad34f3af1a66e5a77ac9d29b" target="_top" xlink:title=" ">
<polygon fill="white" stroke="#666666" points="51.25,-20.75 0,-20.75 0,0 51.25,0 51.25,-20.75"/>
<text text-anchor="middle" x="25.62" y="-7.25" font-family="Helvetica,sans-Serif" font-size="10.00">TEST_F</text>
</a>
</g>
</g>
<!-- Node1&#45;&gt;Node7 -->
<g id="edge6_Node000001_Node000007" class="edge">
<title>Node1&#45;&gt;Node7</title>
<g id="a_edge6_Node000001_Node000007"><a xlink:title=" ">
<path fill="none" stroke="#63b8ff" d="M137.53,-84.06C107.4,-64.04 65.35,-36.1 42.66,-21.03"/>
<polygon fill="#63b8ff" stroke="#63b8ff" points="135.33,-86.8 145.6,-89.42 139.21,-80.97 135.33,-86.8"/>
</a>
</g>
</g>
</g>
</svg>
</svg>

<style type='text/css'>
<![CDATA[
[data-mouse-over-selected='false'] { opacity: 0.7; }
[data-mouse-over-selected='true']  { opacity: 1.0; }
]]>
</style>
<script type="application/ecmascript"><![CDATA[
document.addEventListener('DOMContentLoaded', (event) => {
  highlightEdges();
  highlightAdjacentNodes();
});
]]></script>
</svg>
