<?xml version="1.0" encoding="UTF-8" standalone="no"?>
<!DOCTYPE svg PUBLIC "-//W3C//DTD SVG 1.1//EN"
 "http://www.w3.org/Graphics/SVG/1.1/DTD/svg11.dtd">
<!-- Generated by graphviz version 12.2.1 (0)
 -->
<!-- Title: nixoncpp::utils::PlatformInfoFactory Pages: 1 -->
<svg width="174pt" height="143pt"
 viewBox="0.00 0.00 173.75 142.75" xmlns="http://www.w3.org/2000/svg" xmlns:xlink="http://www.w3.org/1999/xlink">
<g id="graph0" class="graph" transform="scale(1 1) rotate(0) translate(4 138.75)">
<title>nixoncpp::utils::PlatformInfoFactory</title>
<!-- Node1 -->
<g id="Node000001" class="node">
<title>Node1</title>
<g id="a_Node000001"><a xlink:title=" ">
<polygon fill="#999999" stroke="none" points="165.75,-134.75 0,-134.75 0,0 165.75,0 165.75,-134.75"/>
<text text-anchor="start" x="23.62" y="-121.25" font-family="Helvetica,sans-Serif" font-size="10.00">nixoncpp::utils::Platform</text>
<text text-anchor="start" x="55.88" y="-108.5" font-family="Helvetica,sans-Serif" font-size="10.00">InfoFactory</text>
<text text-anchor="start" x="81.38" y="-91.75" font-family="Helvetica,sans-Serif" font-size="10.00"> </text>
<text text-anchor="start" x="4" y="-75" font-family="Helvetica,sans-Serif" font-size="10.00">+</text>
<text text-anchor="start" x="16.25" y="-75" font-family="Helvetica,sans-Serif" font-size="10.00">static std::unique</text>
<text text-anchor="start" x="16.25" y="-62.25" font-family="Helvetica,sans-Serif" font-size="10.00">_ptr&lt; IPlatformInfo</text>
<text text-anchor="start" x="16.25" y="-49.5" font-family="Helvetica,sans-Serif" font-size="10.00"> &gt; createForCurrentPlatform()</text>
<text text-anchor="start" x="4" y="-32.75" font-family="Helvetica,sans-Serif" font-size="10.00">+</text>
<text text-anchor="start" x="16.25" y="-32.75" font-family="Helvetica,sans-Serif" font-size="10.00">static std::unique</text>
<text text-anchor="start" x="16.25" y="-20" font-family="Helvetica,sans-Serif" font-size="10.00">_ptr&lt; IPlatformInfo</text>
<text text-anchor="start" x="16.25" y="-7.25" font-family="Helvetica,sans-Serif" font-size="10.00"> &gt; create(Platform platform)</text>
<polygon fill="#666666" stroke="#666666" points="0,-103.25 0,-103.25 165.75,-103.25 165.75,-103.25 0,-103.25"/>
<polygon fill="#666666" stroke="#666666" points="0,-86.5 0,-86.5 165.75,-86.5 165.75,-86.5 0,-86.5"/>
<polygon fill="none" stroke="#666666" points="0,0 0,-134.75 165.75,-134.75 165.75,0 0,0"/>
</a>
</g>
</g>
</g>
</svg>
