<?xml version="1.0" encoding="UTF-8" standalone="no"?>
<!DOCTYPE svg PUBLIC "-//W3C//DTD SVG 1.1//EN"
 "http://www.w3.org/Graphics/SVG/1.1/DTD/svg11.dtd">
<!-- Generated by graphviz version 12.2.1 (0)
 -->
<!-- Title: nixoncpp::logging::ILogger::stream Pages: 1 -->
<svg width="284pt" height="250pt"
 viewBox="0.00 0.00 283.75 249.50" xmlns="http://www.w3.org/2000/svg" xmlns:xlink="http://www.w3.org/1999/xlink">
<g id="graph0" class="graph" transform="scale(1 1) rotate(0) translate(4 245.5)">
<title>nixoncpp::logging::ILogger::stream</title>
<!-- Node1 -->
<g id="Node000001" class="node">
<title>Node1</title>
<g id="a_Node000001"><a xlink:title="Create a LogStream for streaming log messages.">
<polygon fill="#999999" stroke="#666666" points="275.75,-137.5 168.25,-137.5 168.25,-104 275.75,-104 275.75,-137.5"/>
<text text-anchor="start" x="176.25" y="-124" font-family="Helvetica,sans-Serif" font-size="10.00">nixoncpp::logging::</text>
<text text-anchor="middle" x="222" y="-111.25" font-family="Helvetica,sans-Serif" font-size="10.00">ILogger::stream</text>
</a>
</g>
</g>
<!-- Node2 -->
<g id="Node000002" class="node">
<title>Node2</title>
<g id="a_Node000002"><a xlink:href="classnixoncpp_1_1logging_1_1ILogger.html#a7355e63eabb150ade6f995d0fa83b2f5" target="_top" xlink:title="Create a LogStream for streaming critical messages.">
<polygon fill="white" stroke="#666666" points="129.25,-241.5 3,-241.5 3,-208 129.25,-208 129.25,-241.5"/>
<text text-anchor="start" x="11" y="-228" font-family="Helvetica,sans-Serif" font-size="10.00">nixoncpp::logging::</text>
<text text-anchor="middle" x="66.12" y="-215.25" font-family="Helvetica,sans-Serif" font-size="10.00">ILogger::criticalStream</text>
</a>
</g>
</g>
<!-- Node1&#45;&gt;Node2 -->
<g id="edge1_Node000001_Node000002" class="edge">
<title>Node1&#45;&gt;Node2</title>
<g id="a_edge1_Node000001_Node000002"><a xlink:title=" ">
<path fill="none" stroke="#63b8ff" d="M197.32,-145.62C180.41,-162.32 156.44,-183.9 132.25,-198.75 127.06,-201.93 121.42,-204.87 115.69,-207.52"/>
<polygon fill="#63b8ff" stroke="#63b8ff" points="199.4,-148.5 203.97,-138.94 194.43,-143.56 199.4,-148.5"/>
</a>
</g>
</g>
<!-- Node3 -->
<g id="Node000003" class="node">
<title>Node3</title>
<g id="a_Node000003"><a xlink:href="classnixoncpp_1_1logging_1_1ILogger.html#a3614089d7f4af7f70c27cf9d0012826f" target="_top" xlink:title="Create a LogStream for streaming debug messages.">
<polygon fill="white" stroke="#666666" points="127.75,-189.5 4.5,-189.5 4.5,-156 127.75,-156 127.75,-189.5"/>
<text text-anchor="start" x="12.5" y="-176" font-family="Helvetica,sans-Serif" font-size="10.00">nixoncpp::logging::</text>
<text text-anchor="middle" x="66.12" y="-163.25" font-family="Helvetica,sans-Serif" font-size="10.00">ILogger::debugStream</text>
</a>
</g>
</g>
<!-- Node1&#45;&gt;Node3 -->
<g id="edge2_Node000001_Node000003" class="edge">
<title>Node1&#45;&gt;Node3</title>
<g id="a_edge2_Node000001_Node000003"><a xlink:title=" ">
<path fill="none" stroke="#63b8ff" d="M159.39,-141.57C145.71,-146.19 131.35,-151.05 118.15,-155.51"/>
<polygon fill="#63b8ff" stroke="#63b8ff" points="160.4,-144.92 168.76,-138.41 158.16,-138.29 160.4,-144.92"/>
</a>
</g>
</g>
<!-- Node4 -->
<g id="Node000004" class="node">
<title>Node4</title>
<g id="a_Node000004"><a xlink:href="classnixoncpp_1_1logging_1_1ILogger.html#a5adfec01af63593d605c64aa824fadfa" target="_top" xlink:title="Create a LogStream for streaming error messages.">
<polygon fill="white" stroke="#666666" points="124.38,-137.5 7.88,-137.5 7.88,-104 124.38,-104 124.38,-137.5"/>
<text text-anchor="start" x="15.88" y="-124" font-family="Helvetica,sans-Serif" font-size="10.00">nixoncpp::logging::</text>
<text text-anchor="middle" x="66.12" y="-111.25" font-family="Helvetica,sans-Serif" font-size="10.00">ILogger::errorStream</text>
</a>
</g>
</g>
<!-- Node1&#45;&gt;Node4 -->
<g id="edge3_Node000001_Node000004" class="edge">
<title>Node1&#45;&gt;Node4</title>
<g id="a_edge3_Node000001_Node000004"><a xlink:title=" ">
<path fill="none" stroke="#63b8ff" d="M156.68,-120.75C146.05,-120.75 135.1,-120.75 124.65,-120.75"/>
<polygon fill="#63b8ff" stroke="#63b8ff" points="156.53,-124.25 166.53,-120.75 156.53,-117.25 156.53,-124.25"/>
</a>
</g>
</g>
<!-- Node5 -->
<g id="Node000005" class="node">
<title>Node5</title>
<g id="a_Node000005"><a xlink:href="classnixoncpp_1_1logging_1_1ILogger.html#a9f737750a8311e36eabdf036d74c6150" target="_top" xlink:title="Create a LogStream for streaming info messages.">
<polygon fill="white" stroke="#666666" points="122.12,-85.5 10.12,-85.5 10.12,-52 122.12,-52 122.12,-85.5"/>
<text text-anchor="start" x="18.12" y="-72" font-family="Helvetica,sans-Serif" font-size="10.00">nixoncpp::logging::</text>
<text text-anchor="middle" x="66.12" y="-59.25" font-family="Helvetica,sans-Serif" font-size="10.00">ILogger::infoStream</text>
</a>
</g>
</g>
<!-- Node1&#45;&gt;Node5 -->
<g id="edge4_Node000001_Node000005" class="edge">
<title>Node1&#45;&gt;Node5</title>
<g id="a_edge4_Node000001_Node000005"><a xlink:title=" ">
<path fill="none" stroke="#63b8ff" d="M159.39,-99.93C145.71,-95.31 131.35,-90.45 118.15,-85.99"/>
<polygon fill="#63b8ff" stroke="#63b8ff" points="158.16,-103.21 168.76,-103.09 160.4,-96.58 158.16,-103.21"/>
</a>
</g>
</g>
<!-- Node6 -->
<g id="Node000006" class="node">
<title>Node6</title>
<g id="a_Node000006"><a xlink:href="classnixoncpp_1_1logging_1_1ILogger.html#a5c4236fc23131d4798505c26bcea8737" target="_top" xlink:title="Create a LogStream for streaming warning messages.">
<polygon fill="white" stroke="#666666" points="132.25,-33.5 0,-33.5 0,0 132.25,0 132.25,-33.5"/>
<text text-anchor="start" x="8" y="-20" font-family="Helvetica,sans-Serif" font-size="10.00">nixoncpp::logging::</text>
<text text-anchor="middle" x="66.12" y="-7.25" font-family="Helvetica,sans-Serif" font-size="10.00">ILogger::warningStream</text>
</a>
</g>
</g>
<!-- Node1&#45;&gt;Node6 -->
<g id="edge5_Node000001_Node000006" class="edge">
<title>Node1&#45;&gt;Node6</title>
<g id="a_edge5_Node000001_Node000006"><a xlink:title=" ">
<path fill="none" stroke="#63b8ff" d="M197.32,-95.88C180.41,-79.18 156.44,-57.6 132.25,-42.75 127.06,-39.57 121.42,-36.63 115.69,-33.98"/>
<polygon fill="#63b8ff" stroke="#63b8ff" points="194.43,-97.94 203.97,-102.56 199.4,-93 194.43,-97.94"/>
</a>
</g>
</g>
</g>
</svg>
