<?xml version="1.0" encoding="UTF-8" standalone="no"?>
<!DOCTYPE svg PUBLIC "-//W3C//DTD SVG 1.1//EN"
 "http://www.w3.org/Graphics/SVG/1.1/DTD/svg11.dtd">
<!-- Generated by graphviz version 12.2.1 (0)
 -->
<!-- Title: nixoncpp::utils::PathResolver::PathResolver Pages: 1 -->
<svg width="357pt" height="198pt"
 viewBox="0.00 0.00 356.50 197.50" xmlns="http://www.w3.org/2000/svg" xmlns:xlink="http://www.w3.org/1999/xlink">
<g id="graph0" class="graph" transform="scale(1 1) rotate(0) translate(4 193.5)">
<title>nixoncpp::utils::PathResolver::PathResolver</title>
<!-- Node1 -->
<g id="Node000001" class="node">
<title>Node1</title>
<g id="a_Node000001"><a xlink:title=" ">
<polygon fill="#999999" stroke="#666666" points="348.5,-111.5 192.25,-111.5 192.25,-78 348.5,-78 348.5,-111.5"/>
<text text-anchor="start" x="200.25" y="-98" font-family="Helvetica,sans-Serif" font-size="10.00">nixoncpp::utils::PathResolver</text>
<text text-anchor="middle" x="270.38" y="-85.25" font-family="Helvetica,sans-Serif" font-size="10.00">::PathResolver</text>
</a>
</g>
</g>
<!-- Node2 -->
<g id="Node000002" class="node">
<title>Node2</title>
<g id="a_Node000002"><a xlink:href="classnixoncpp_1_1utils_1_1PathResolver.html#ad1b7c43fca8367a5319fdc6fdf949711" target="_top" xlink:title=" ">
<polygon fill="white" stroke="#666666" points="156.25,-189.5 0,-189.5 0,-156 156.25,-156 156.25,-189.5"/>
<text text-anchor="start" x="8" y="-176" font-family="Helvetica,sans-Serif" font-size="10.00">nixoncpp::utils::PathResolver</text>
<text text-anchor="middle" x="78.12" y="-163.25" font-family="Helvetica,sans-Serif" font-size="10.00">::operator=</text>
</a>
</g>
</g>
<!-- Node1&#45;&gt;Node2 -->
<g id="edge1_Node000001_Node000002" class="edge">
<title>Node1&#45;&gt;Node2</title>
<g id="a_edge1_Node000001_Node000002"><a xlink:title=" ">
<path fill="none" stroke="#63b8ff" d="M224.31,-116.79C203.77,-126.5 179,-137.71 156.25,-146.75 148.63,-149.77 140.51,-152.76 132.5,-155.58"/>
<polygon fill="#63b8ff" stroke="#63b8ff" points="225.74,-119.99 233.26,-112.53 222.73,-113.67 225.74,-119.99"/>
</a>
</g>
</g>
<!-- Node3 -->
<g id="Node000003" class="node">
<title>Node3</title>
<g id="a_Node000003"><a xlink:href="classnixoncpp_1_1utils_1_1PathResolver.html#a26f2f40d5126c1abe78040a788afe657" target="_top" xlink:title=" ">
<polygon fill="white" stroke="#666666" points="156.25,-137.5 0,-137.5 0,-104 156.25,-104 156.25,-137.5"/>
<text text-anchor="start" x="8" y="-124" font-family="Helvetica,sans-Serif" font-size="10.00">nixoncpp::utils::PathResolver</text>
<text text-anchor="middle" x="78.12" y="-111.25" font-family="Helvetica,sans-Serif" font-size="10.00">::operator=</text>
</a>
</g>
</g>
<!-- Node1&#45;&gt;Node3 -->
<g id="edge2_Node000001_Node000003" class="edge">
<title>Node1&#45;&gt;Node3</title>
<g id="a_edge2_Node000001_Node000003"><a xlink:title=" ">
<path fill="none" stroke="#63b8ff" d="M180.73,-106.86C172.72,-107.96 164.65,-109.06 156.75,-110.14"/>
<polygon fill="#63b8ff" stroke="#63b8ff" points="181.06,-110.35 190.49,-105.53 180.11,-103.42 181.06,-110.35"/>
</a>
</g>
</g>
<!-- Node4 -->
<g id="Node000004" class="node">
<title>Node4</title>
<g id="a_Node000004"><a xlink:href="classnixoncpp_1_1utils_1_1PathResolver.html#af8663b35aa233403652ae8e723d0da7f" target="_top" xlink:title=" ">
<polygon fill="white" stroke="#666666" points="156.25,-85.5 0,-85.5 0,-52 156.25,-52 156.25,-85.5"/>
<text text-anchor="start" x="8" y="-72" font-family="Helvetica,sans-Serif" font-size="10.00">nixoncpp::utils::PathResolver</text>
<text text-anchor="middle" x="78.12" y="-59.25" font-family="Helvetica,sans-Serif" font-size="10.00">::PathResolver</text>
</a>
</g>
</g>
<!-- Node1&#45;&gt;Node4 -->
<g id="edge3_Node000001_Node000004" class="edge">
<title>Node1&#45;&gt;Node4</title>
<g id="a_edge3_Node000001_Node000004"><a xlink:title=" ">
<path fill="none" stroke="#63b8ff" d="M180.73,-82.64C172.72,-81.54 164.65,-80.44 156.75,-79.36"/>
<polygon fill="#63b8ff" stroke="#63b8ff" points="180.11,-86.08 190.49,-83.97 181.06,-79.15 180.11,-86.08"/>
</a>
</g>
</g>
<!-- Node5 -->
<g id="Node000005" class="node">
<title>Node5</title>
<g id="a_Node000005"><a xlink:href="classnixoncpp_1_1utils_1_1PathResolver.html#a3687c2063d4f404db0ba8de2e3ca4465" target="_top" xlink:title=" ">
<polygon fill="white" stroke="#666666" points="156.25,-33.5 0,-33.5 0,0 156.25,0 156.25,-33.5"/>
<text text-anchor="start" x="8" y="-20" font-family="Helvetica,sans-Serif" font-size="10.00">nixoncpp::utils::PathResolver</text>
<text text-anchor="middle" x="78.12" y="-7.25" font-family="Helvetica,sans-Serif" font-size="10.00">::PathResolver</text>
</a>
</g>
</g>
<!-- Node1&#45;&gt;Node5 -->
<g id="edge4_Node000001_Node000005" class="edge">
<title>Node1&#45;&gt;Node5</title>
<g id="a_edge4_Node000001_Node000005"><a xlink:title=" ">
<path fill="none" stroke="#63b8ff" d="M224.31,-72.71C203.77,-63 179,-51.79 156.25,-42.75 148.63,-39.73 140.51,-36.74 132.5,-33.92"/>
<polygon fill="#63b8ff" stroke="#63b8ff" points="222.73,-75.83 233.26,-76.97 225.74,-69.51 222.73,-75.83"/>
</a>
</g>
</g>
</g>
</svg>
