<?xml version="1.0" encoding="UTF-8" standalone="no"?>
<!DOCTYPE svg PUBLIC "-//W3C//DTD SVG 1.1//EN"
 "http://www.w3.org/Graphics/SVG/1.1/DTD/svg11.dtd">
<!-- Generated by graphviz version 12.2.1 (0)
 -->
<!-- Title: nixoncpp::utils::StringFormatter Pages: 1 -->
<svg width="185pt" height="520pt"
 viewBox="0.00 0.00 185.00 520.00" xmlns="http://www.w3.org/2000/svg" xmlns:xlink="http://www.w3.org/1999/xlink">
<g id="graph0" class="graph" transform="scale(1 1) rotate(0) translate(4 516)">
<title>nixoncpp::utils::StringFormatter</title>
<!-- Node1 -->
<g id="Node000001" class="node">
<title>Node1</title>
<g id="a_Node000001"><a xlink:title=" ">
<polygon fill="#999999" stroke="none" points="177,-311.75 0,-311.75 0,0 177,0 177,-311.75"/>
<text text-anchor="start" x="12" y="-298.25" font-family="Helvetica,sans-Serif" font-size="10.00">nixoncpp::utils::StringFormatter</text>
<text text-anchor="start" x="87" y="-281.5" font-family="Helvetica,sans-Serif" font-size="10.00"> </text>
<text text-anchor="start" x="4" y="-264.75" font-family="Helvetica,sans-Serif" font-size="10.00">+</text>
<text text-anchor="start" x="16.25" y="-264.75" font-family="Helvetica,sans-Serif" font-size="10.00">StringFormatter()</text>
<text text-anchor="start" x="16.25" y="-252" font-family="Helvetica,sans-Serif" font-size="10.00">=default</text>
<text text-anchor="start" x="4" y="-235.25" font-family="Helvetica,sans-Serif" font-size="10.00">+</text>
<text text-anchor="start" x="16.25" y="-235.25" font-family="Helvetica,sans-Serif" font-size="10.00">~StringFormatter()</text>
<text text-anchor="start" x="16.25" y="-222.5" font-family="Helvetica,sans-Serif" font-size="10.00"> override=default</text>
<text text-anchor="start" x="4" y="-205.75" font-family="Helvetica,sans-Serif" font-size="10.00">+</text>
<text text-anchor="start" x="16.25" y="-205.75" font-family="Helvetica,sans-Serif" font-size="10.00">StringFormatter(const</text>
<text text-anchor="start" x="16.25" y="-193" font-family="Helvetica,sans-Serif" font-size="10.00"> StringFormatter &amp;)=delete</text>
<text text-anchor="start" x="4" y="-176.25" font-family="Helvetica,sans-Serif" font-size="10.00">+</text>
<text text-anchor="start" x="16.25" y="-176.25" font-family="Helvetica,sans-Serif" font-size="10.00">StringFormatter &amp; operator</text>
<text text-anchor="start" x="16.25" y="-163.5" font-family="Helvetica,sans-Serif" font-size="10.00">=(const StringFormatter</text>
<text text-anchor="start" x="16.25" y="-150.75" font-family="Helvetica,sans-Serif" font-size="10.00"> &amp;)=delete</text>
<text text-anchor="start" x="4" y="-134" font-family="Helvetica,sans-Serif" font-size="10.00">+</text>
<text text-anchor="start" x="16.25" y="-134" font-family="Helvetica,sans-Serif" font-size="10.00">StringFormatter(StringFormatter</text>
<text text-anchor="start" x="16.25" y="-121.25" font-family="Helvetica,sans-Serif" font-size="10.00"> &amp;&amp;)=delete</text>
<text text-anchor="start" x="4" y="-104.5" font-family="Helvetica,sans-Serif" font-size="10.00">+</text>
<text text-anchor="start" x="16.25" y="-104.5" font-family="Helvetica,sans-Serif" font-size="10.00">StringFormatter &amp; operator</text>
<text text-anchor="start" x="16.25" y="-91.75" font-family="Helvetica,sans-Serif" font-size="10.00">=(StringFormatter &amp;&amp;)=delete</text>
<text text-anchor="start" x="4" y="-75" font-family="Helvetica,sans-Serif" font-size="10.00">+</text>
<text text-anchor="start" x="16.25" y="-75" font-family="Helvetica,sans-Serif" font-size="10.00">std::string addDots</text>
<text text-anchor="start" x="16.25" y="-62.25" font-family="Helvetica,sans-Serif" font-size="10.00">(const std::string &amp;str)</text>
<text text-anchor="start" x="16.25" y="-49.5" font-family="Helvetica,sans-Serif" font-size="10.00"> const override</text>
<text text-anchor="start" x="4" y="-32.75" font-family="Helvetica,sans-Serif" font-size="10.00">+</text>
<text text-anchor="start" x="16.25" y="-32.75" font-family="Helvetica,sans-Serif" font-size="10.00">std::string removeDots</text>
<text text-anchor="start" x="16.25" y="-20" font-family="Helvetica,sans-Serif" font-size="10.00">(const std::string &amp;str)</text>
<text text-anchor="start" x="16.25" y="-7.25" font-family="Helvetica,sans-Serif" font-size="10.00"> const override</text>
<polygon fill="#666666" stroke="#666666" points="0,-293 0,-293 177,-293 177,-293 0,-293"/>
<polygon fill="#666666" stroke="#666666" points="0,-276.25 0,-276.25 177,-276.25 177,-276.25 0,-276.25"/>
<polygon fill="none" stroke="#666666" points="0,0 0,-311.75 177,-311.75 177,0 0,0"/>
</a>
</g>
</g>
<!-- Node2 -->
<g id="Node000002" class="node">
<title>Node2</title>
<g id="a_Node000002"><a xlink:href="classnixoncpp_1_1utils_1_1IStringFormatter.html" target="_top" xlink:title="Interface for string formatting operations.">
<polygon fill="white" stroke="none" points="159.75,-512 17.25,-512 17.25,-347.75 159.75,-347.75 159.75,-512"/>
<text text-anchor="start" x="34.5" y="-498.5" font-family="Helvetica,sans-Serif" font-size="10.00">nixoncpp::utils::IString</text>
<text text-anchor="start" x="64.5" y="-485.75" font-family="Helvetica,sans-Serif" font-size="10.00">Formatter</text>
<text text-anchor="start" x="87" y="-469" font-family="Helvetica,sans-Serif" font-size="10.00"> </text>
<text text-anchor="start" x="21.25" y="-452.25" font-family="Helvetica,sans-Serif" font-size="10.00">+</text>
<text text-anchor="start" x="33.5" y="-452.25" font-family="Helvetica,sans-Serif" font-size="10.00">virtual ~IStringFormatter</text>
<text text-anchor="start" x="33.5" y="-439.5" font-family="Helvetica,sans-Serif" font-size="10.00">()=default</text>
<text text-anchor="start" x="21.25" y="-422.75" font-family="Helvetica,sans-Serif" font-size="10.00">+</text>
<text text-anchor="start" x="33.5" y="-422.75" font-family="Helvetica,sans-Serif" font-size="10.00">virtual std::string</text>
<text text-anchor="start" x="33.5" y="-410" font-family="Helvetica,sans-Serif" font-size="10.00"> addDots(const std::</text>
<text text-anchor="start" x="33.5" y="-397.25" font-family="Helvetica,sans-Serif" font-size="10.00">string &amp;str) const =0</text>
<text text-anchor="start" x="21.25" y="-380.5" font-family="Helvetica,sans-Serif" font-size="10.00">+</text>
<text text-anchor="start" x="33.5" y="-380.5" font-family="Helvetica,sans-Serif" font-size="10.00">virtual std::string</text>
<text text-anchor="start" x="33.5" y="-367.75" font-family="Helvetica,sans-Serif" font-size="10.00"> removeDots(const std</text>
<text text-anchor="start" x="33.5" y="-355" font-family="Helvetica,sans-Serif" font-size="10.00">::string &amp;str) const =0</text>
<polygon fill="#666666" stroke="#666666" points="17.25,-480.5 17.25,-480.5 159.75,-480.5 159.75,-480.5 17.25,-480.5"/>
<polygon fill="#666666" stroke="#666666" points="17.25,-463.75 17.25,-463.75 159.75,-463.75 159.75,-463.75 17.25,-463.75"/>
<polygon fill="none" stroke="#666666" points="17.25,-347.75 17.25,-512 159.75,-512 159.75,-347.75 17.25,-347.75"/>
</a>
</g>
</g>
<!-- Node2&#45;&gt;Node1 -->
<g id="edge1_Node000001_Node000002" class="edge">
<title>Node2&#45;&gt;Node1</title>
<g id="a_edge1_Node000001_Node000002"><a xlink:title=" ">
<path fill="none" stroke="#63b8ff" d="M88.5,-336.68C88.5,-328.56 88.5,-320.2 88.5,-311.74"/>
<polygon fill="none" stroke="#63b8ff" points="85,-336.49 88.5,-346.49 92,-336.49 85,-336.49"/>
</a>
</g>
</g>
</g>
</svg>
