<?xml version="1.0" encoding="UTF-8" standalone="no"?>
<!DOCTYPE svg PUBLIC "-//W3C//DTD SVG 1.1//EN"
 "http://www.w3.org/Graphics/SVG/1.1/DTD/svg11.dtd">
<!-- Generated by graphviz version 12.2.1 (0)
 -->
<!-- Title: ConsoleLogger::log Pages: 1 -->
<svg width="373pt" height="185pt"
 viewBox="0.00 0.00 373.25 184.75" xmlns="http://www.w3.org/2000/svg" xmlns:xlink="http://www.w3.org/1999/xlink">

<svg id="main" version="1.1" xmlns="http://www.w3.org/2000/svg" xmlns:xlink="http://www.w3.org/1999/xlink" xml:space="preserve">

<style type="text/css"><![CDATA[
.node, .edge {opacity: 0.7;}
.node.selected, .edge.selected {opacity: 1;}
.edge:hover path { stroke: red; }
.edge:hover polygon { stroke: red; fill: red; }
]]></style>
<script type="application/ecmascript" xlink:href="svg.min.js"/>
<svg id="graph" class="graph">
<g id="graph0" class="graph" transform="scale(1 1) rotate(0) translate(4 180.75)">
<title>ConsoleLogger::log</title>
<!-- Node1 -->
<g id="Node000001" class="node">
<title>Node1</title>
<g id="a_Node000001"><a xlink:title="Logs a message with a specified level to the console and optionally to a file.">
<polygon fill="#999999" stroke="#666666" points="365.25,-98.75 256.25,-98.75 256.25,-78 365.25,-78 365.25,-98.75"/>
<text text-anchor="middle" x="310.75" y="-85.25" font-family="Helvetica,sans-Serif" font-size="10.00">ConsoleLogger::log</text>
</a>
</g>
</g>
<!-- Node2 -->
<g id="Node000002" class="node">
<title>Node2</title>
<g id="a_Node000002"><a xlink:href="classConsoleLogger.html#adfe7ec1d32cf22b8280363401bc2f331" target="_top" xlink:title="Log a critical message.">
<polygon fill="white" stroke="#666666" points="217.25,-176.75 90.25,-176.75 90.25,-156 217.25,-156 217.25,-176.75"/>
<text text-anchor="middle" x="153.75" y="-163.25" font-family="Helvetica,sans-Serif" font-size="10.00">ConsoleLogger::critical</text>
</a>
</g>
</g>
<!-- Node1&#45;&gt;Node2 -->
<g id="edge1_Node000001_Node000002" class="edge">
<title>Node1&#45;&gt;Node2</title>
<g id="a_edge1_Node000001_Node000002"><a xlink:title=" ">
<path fill="none" stroke="#63b8ff" d="M287.02,-105.65C269.52,-118.31 244.33,-135.17 220.25,-146.38 212.7,-149.89 204.39,-152.97 196.29,-155.61"/>
<polygon fill="#63b8ff" stroke="#63b8ff" points="288.7,-108.76 294.68,-100.01 284.55,-103.13 288.7,-108.76"/>
</a>
</g>
</g>
<!-- Node3 -->
<g id="Node000003" class="node">
<title>Node3</title>
<g id="a_Node000003"><a xlink:href="classConsoleLogger.html#a872f1edb1c3f27151aea7893257e84f9" target="_top" xlink:title="Log a debug message.">
<polygon fill="white" stroke="#666666" points="215.75,-137.75 91.75,-137.75 91.75,-117 215.75,-117 215.75,-137.75"/>
<text text-anchor="middle" x="153.75" y="-124.25" font-family="Helvetica,sans-Serif" font-size="10.00">ConsoleLogger::debug</text>
</a>
</g>
</g>
<!-- Node1&#45;&gt;Node3 -->
<g id="edge2_Node000001_Node000003" class="edge">
<title>Node1&#45;&gt;Node3</title>
<g id="a_edge2_Node000001_Node000003"><a xlink:title=" ">
<path fill="none" stroke="#63b8ff" d="M255.46,-102.04C236.63,-106.77 215.78,-112.02 197.96,-116.5"/>
<polygon fill="#63b8ff" stroke="#63b8ff" points="256.26,-105.44 265.11,-99.61 254.55,-98.65 256.26,-105.44"/>
</a>
</g>
</g>
<!-- Node4 -->
<g id="Node000004" class="node">
<title>Node4</title>
<g id="a_Node000004"><a xlink:href="classConsoleLogger.html#a8973d67f0a94cf2af0c5c5df4f303ffe" target="_top" xlink:title="Log an error message.">
<polygon fill="white" stroke="#666666" points="212.38,-98.75 95.12,-98.75 95.12,-78 212.38,-78 212.38,-98.75"/>
<text text-anchor="middle" x="153.75" y="-85.25" font-family="Helvetica,sans-Serif" font-size="10.00">ConsoleLogger::error</text>
</a>
</g>
</g>
<!-- Node1&#45;&gt;Node4 -->
<g id="edge3_Node000001_Node000004" class="edge">
<title>Node1&#45;&gt;Node4</title>
<g id="a_edge3_Node000001_Node000004"><a xlink:title=" ">
<path fill="none" stroke="#63b8ff" d="M244.62,-88.38C234.01,-88.38 223.08,-88.38 212.66,-88.38"/>
<polygon fill="#63b8ff" stroke="#63b8ff" points="244.46,-91.88 254.46,-88.38 244.46,-84.88 244.46,-91.88"/>
</a>
</g>
</g>
<!-- Node5 -->
<g id="Node000005" class="node">
<title>Node5</title>
<g id="a_Node000005"><a xlink:href="classConsoleLogger.html#ab610c1dfc5564e00841dfeae547f836f" target="_top" xlink:title="Log an info message.">
<polygon fill="white" stroke="#666666" points="210.12,-59.75 97.38,-59.75 97.38,-39 210.12,-39 210.12,-59.75"/>
<text text-anchor="middle" x="153.75" y="-46.25" font-family="Helvetica,sans-Serif" font-size="10.00">ConsoleLogger::info</text>
</a>
</g>
</g>
<!-- Node1&#45;&gt;Node5 -->
<g id="edge4_Node000001_Node000005" class="edge">
<title>Node1&#45;&gt;Node5</title>
<g id="a_edge4_Node000001_Node000005"><a xlink:title=" ">
<path fill="none" stroke="#63b8ff" d="M255.46,-74.71C236.63,-69.98 215.78,-64.73 197.96,-60.25"/>
<polygon fill="#63b8ff" stroke="#63b8ff" points="254.55,-78.1 265.11,-77.14 256.26,-71.31 254.55,-78.1"/>
</a>
</g>
</g>
<!-- Node7 -->
<g id="Node000007" class="node">
<title>Node7</title>
<g id="a_Node000007"><a xlink:href="classConsoleLogger.html#a7c16af28ba75ff33649181778e73c070" target="_top" xlink:title="Log a warning message.">
<polygon fill="white" stroke="#666666" points="220.25,-20.75 87.25,-20.75 87.25,0 220.25,0 220.25,-20.75"/>
<text text-anchor="middle" x="153.75" y="-7.25" font-family="Helvetica,sans-Serif" font-size="10.00">ConsoleLogger::warning</text>
</a>
</g>
</g>
<!-- Node1&#45;&gt;Node7 -->
<g id="edge6_Node000001_Node000007" class="edge">
<title>Node1&#45;&gt;Node7</title>
<g id="a_edge6_Node000001_Node000007"><a xlink:title=" ">
<path fill="none" stroke="#63b8ff" d="M287.02,-71.1C269.52,-58.44 244.33,-41.58 220.25,-30.38 212.7,-26.86 204.39,-23.78 196.29,-21.14"/>
<polygon fill="#63b8ff" stroke="#63b8ff" points="284.55,-73.62 294.68,-76.74 288.7,-67.99 284.55,-73.62"/>
</a>
</g>
</g>
<!-- Node6 -->
<g id="Node000006" class="node">
<title>Node6</title>
<g id="a_Node000006"><a xlink:href="ConsoleLoggerTest_8cpp.html#ab35834df4087e6a0d58b5dbefb02da96" target="_top" xlink:title=" ">
<polygon fill="white" stroke="#666666" points="51.25,-59.75 0,-59.75 0,-39 51.25,-39 51.25,-59.75"/>
<text text-anchor="middle" x="25.62" y="-46.25" font-family="Helvetica,sans-Serif" font-size="10.00">TEST_F</text>
</a>
</g>
</g>
<!-- Node5&#45;&gt;Node6 -->
<g id="edge5_Node000005_Node000006" class="edge">
<title>Node5&#45;&gt;Node6</title>
<g id="a_edge5_Node000005_Node000006"><a xlink:title=" ">
<path fill="none" stroke="#63b8ff" d="M85.88,-49.38C73.7,-49.38 61.7,-49.38 51.73,-49.38"/>
<polygon fill="#63b8ff" stroke="#63b8ff" points="85.55,-52.88 95.55,-49.38 85.55,-45.88 85.55,-52.88"/>
</a>
</g>
</g>
</g>
</svg>
</svg>

<style type='text/css'>
<![CDATA[
[data-mouse-over-selected='false'] { opacity: 0.7; }
[data-mouse-over-selected='true']  { opacity: 1.0; }
]]>
</style>
<script type="application/ecmascript"><![CDATA[
document.addEventListener('DOMContentLoaded', (event) => {
  highlightEdges();
  highlightAdjacentNodes();
});
]]></script>
</svg>
