<?xml version="1.0" encoding="UTF-8" standalone="no"?>
<!DOCTYPE svg PUBLIC "-//W3C//DTD SVG 1.1//EN"
 "http://www.w3.org/Graphics/SVG/1.1/DTD/svg11.dtd">
<!-- Generated by graphviz version 12.2.1 (0)
 -->
<!-- Title: nixoncpp::assets::AssetManager::getAssetsPath Pages: 1 -->
<svg width="268pt" height="107pt"
 viewBox="0.00 0.00 268.00 106.75" xmlns="http://www.w3.org/2000/svg" xmlns:xlink="http://www.w3.org/1999/xlink">
<g id="graph0" class="graph" transform="scale(1 1) rotate(0) translate(4 102.75)">
<title>nixoncpp::assets::AssetManager::getAssetsPath</title>
<!-- Node1 -->
<g id="Node000001" class="node">
<title>Node1</title>
<g id="a_Node000001"><a xlink:title="Get the Assets Path object.">
<polygon fill="#999999" stroke="#666666" points="260,-66.12 87.25,-66.12 87.25,-32.62 260,-32.62 260,-66.12"/>
<text text-anchor="start" x="95.25" y="-52.62" font-family="Helvetica,sans-Serif" font-size="10.00">nixoncpp::assets::AssetManager</text>
<text text-anchor="middle" x="173.62" y="-39.88" font-family="Helvetica,sans-Serif" font-size="10.00">::getAssetsPath</text>
</a>
</g>
</g>
<!-- Node2 -->
<g id="Node000002" class="node">
<title>Node2</title>
<g id="a_Node000002"><a xlink:href="AssetManagerTest_8cpp.html#aac63443e19485c0a868b6262adda0707" target="_top" xlink:title=" ">
<polygon fill="white" stroke="#666666" points="51.25,-98.75 0,-98.75 0,-78 51.25,-78 51.25,-98.75"/>
<text text-anchor="middle" x="25.62" y="-85.25" font-family="Helvetica,sans-Serif" font-size="10.00">TEST_F</text>
</a>
</g>
</g>
<!-- Node1&#45;&gt;Node2 -->
<g id="edge1_Node000001_Node000002" class="edge">
<title>Node1&#45;&gt;Node2</title>
<g id="a_edge1_Node000001_Node000002"><a xlink:title=" ">
<path fill="none" stroke="#63b8ff" d="M97.32,-69.49C80.81,-73.9 64.46,-78.27 51.65,-81.69"/>
<polygon fill="#63b8ff" stroke="#63b8ff" points="97.94,-72.95 106.7,-66.99 96.14,-66.18 97.94,-72.95"/>
</a>
</g>
</g>
<!-- Node3 -->
<g id="Node000003" class="node">
<title>Node3</title>
<g id="a_Node000003"><a xlink:href="AssetManagerTest_8cpp.html#a164d13741975afb5bcc7c1850a6bf0b6" target="_top" xlink:title=" ">
<polygon fill="white" stroke="#666666" points="51.25,-59.75 0,-59.75 0,-39 51.25,-39 51.25,-59.75"/>
<text text-anchor="middle" x="25.62" y="-46.25" font-family="Helvetica,sans-Serif" font-size="10.00">TEST_F</text>
</a>
</g>
</g>
<!-- Node1&#45;&gt;Node3 -->
<g id="edge2_Node000001_Node000003" class="edge">
<title>Node1&#45;&gt;Node3</title>
<g id="a_edge2_Node000001_Node000003"><a xlink:title=" ">
<path fill="none" stroke="#63b8ff" d="M75.36,-49.38C66.8,-49.38 58.75,-49.38 51.75,-49.38"/>
<polygon fill="#63b8ff" stroke="#63b8ff" points="75.34,-52.88 85.34,-49.38 75.34,-45.88 75.34,-52.88"/>
</a>
</g>
</g>
<!-- Node4 -->
<g id="Node000004" class="node">
<title>Node4</title>
<g id="a_Node000004"><a xlink:href="AssetManagerTest_8cpp.html#a54a1c8e328d04db768b927359b1242d6" target="_top" xlink:title=" ">
<polygon fill="white" stroke="#666666" points="51.25,-20.75 0,-20.75 0,0 51.25,0 51.25,-20.75"/>
<text text-anchor="middle" x="25.62" y="-7.25" font-family="Helvetica,sans-Serif" font-size="10.00">TEST_F</text>
</a>
</g>
</g>
<!-- Node1&#45;&gt;Node4 -->
<g id="edge3_Node000001_Node000004" class="edge">
<title>Node1&#45;&gt;Node4</title>
<g id="a_edge3_Node000001_Node000004"><a xlink:title=" ">
<path fill="none" stroke="#63b8ff" d="M97.32,-29.26C80.81,-24.85 64.46,-20.48 51.65,-17.06"/>
<polygon fill="#63b8ff" stroke="#63b8ff" points="96.14,-32.57 106.7,-31.76 97.94,-25.8 96.14,-32.57"/>
</a>
</g>
</g>
</g>
</svg>
