<?xml version="1.0" encoding="UTF-8" standalone="no"?>
<!DOCTYPE svg PUBLIC "-//W3C//DTD SVG 1.1//EN"
 "http://www.w3.org/Graphics/SVG/1.1/DTD/svg11.dtd">
<!-- Generated by graphviz version 12.2.1 (0)
 -->
<!-- Title: nixoncpp::utils::UtilsFactory::createCoreContext Pages: 1 -->
<svg width="775pt" height="378pt"
 viewBox="0.00 0.00 774.75 377.50" xmlns="http://www.w3.org/2000/svg" xmlns:xlink="http://www.w3.org/1999/xlink">
<g id="graph0" class="graph" transform="scale(1 1) rotate(0) translate(4 373.5)">
<title>nixoncpp::utils::UtilsFactory::createCoreContext</title>
<!-- Node1 -->
<g id="Node000001" class="node">
<title>Node1</title>
<g id="a_Node000001"><a xlink:title="Create minimal context without app&#45;specific components.">
<polygon fill="#999999" stroke="#666666" points="150.25,-211.5 0,-211.5 0,-178 150.25,-178 150.25,-211.5"/>
<text text-anchor="start" x="8" y="-198" font-family="Helvetica,sans-Serif" font-size="10.00">nixoncpp::utils::UtilsFactory</text>
<text text-anchor="middle" x="75.12" y="-185.25" font-family="Helvetica,sans-Serif" font-size="10.00">::createCoreContext</text>
</a>
</g>
</g>
<!-- Node2 -->
<g id="Node000002" class="node">
<title>Node2</title>
<g id="a_Node000002"><a xlink:href="classnixoncpp_1_1utils_1_1UtilsFactory.html#ad6f07ec37707abf581796c46ee56211d" target="_top" xlink:title=" ">
<polygon fill="white" stroke="#666666" points="336.5,-369.5 186.25,-369.5 186.25,-336 336.5,-336 336.5,-369.5"/>
<text text-anchor="start" x="194.25" y="-356" font-family="Helvetica,sans-Serif" font-size="10.00">nixoncpp::utils::UtilsFactory</text>
<text text-anchor="middle" x="261.38" y="-343.25" font-family="Helvetica,sans-Serif" font-size="10.00">::createDirectoryManager</text>
</a>
</g>
</g>
<!-- Node1&#45;&gt;Node2 -->
<g id="edge1_Node000001_Node000002" class="edge">
<title>Node1&#45;&gt;Node2</title>
<g id="a_edge1_Node000001_Node000002"><a xlink:title=" ">
<path fill="none" stroke="#63b8ff" d="M87.03,-211.77C104.89,-238.44 142.74,-290.28 186.25,-321.75 190.61,-324.91 195.34,-327.81 200.23,-330.48"/>
<polygon fill="#63b8ff" stroke="#63b8ff" points="198.57,-333.56 209.08,-334.93 201.71,-327.31 198.57,-333.56"/>
</a>
</g>
</g>
<!-- Node3 -->
<g id="Node000003" class="node">
<title>Node3</title>
<g id="a_Node000003"><a xlink:href="classnixoncpp_1_1utils_1_1UtilsFactory.html#a898645cce10d377a7586d12c3fdb6e93" target="_top" xlink:title=" ">
<polygon fill="white" stroke="#666666" points="547.12,-316.5 396.88,-316.5 396.88,-283 547.12,-283 547.12,-316.5"/>
<text text-anchor="start" x="404.88" y="-303" font-family="Helvetica,sans-Serif" font-size="10.00">nixoncpp::utils::UtilsFactory</text>
<text text-anchor="middle" x="472" y="-290.25" font-family="Helvetica,sans-Serif" font-size="10.00">::createFileReader</text>
</a>
</g>
</g>
<!-- Node1&#45;&gt;Node3 -->
<g id="edge2_Node000001_Node000003" class="edge">
<title>Node1&#45;&gt;Node3</title>
<g id="a_edge2_Node000001_Node000003"><a xlink:title=" ">
<path fill="none" stroke="#63b8ff" d="M89.59,-211.83C108.45,-234.25 145.04,-272.65 186.25,-288.75 249.64,-313.53 327.14,-314.85 385.27,-310.77"/>
<polygon fill="#63b8ff" stroke="#63b8ff" points="385.42,-314.27 395.12,-310.01 384.88,-307.29 385.42,-314.27"/>
</a>
</g>
</g>
<!-- Node4 -->
<g id="Node000004" class="node">
<title>Node4</title>
<g id="a_Node000004"><a xlink:href="classnixoncpp_1_1utils_1_1UtilsFactory.html#a1315826b061bc911c58a3bca701ef5f0" target="_top" xlink:title=" ">
<polygon fill="white" stroke="#666666" points="547.12,-256.5 396.88,-256.5 396.88,-223 547.12,-223 547.12,-256.5"/>
<text text-anchor="start" x="404.88" y="-243" font-family="Helvetica,sans-Serif" font-size="10.00">nixoncpp::utils::UtilsFactory</text>
<text text-anchor="middle" x="472" y="-230.25" font-family="Helvetica,sans-Serif" font-size="10.00">::createFileWriter</text>
</a>
</g>
</g>
<!-- Node1&#45;&gt;Node4 -->
<g id="edge3_Node000001_Node000004" class="edge">
<title>Node1&#45;&gt;Node4</title>
<g id="a_edge3_Node000001_Node000004"><a xlink:title=" ">
<path fill="none" stroke="#63b8ff" d="M150.4,-203.21C217.06,-210.81 314.91,-221.96 384.96,-229.94"/>
<polygon fill="#63b8ff" stroke="#63b8ff" points="384.55,-233.42 394.89,-231.08 385.35,-226.47 384.55,-233.42"/>
</a>
</g>
</g>
<!-- Node5 -->
<g id="Node000005" class="node">
<title>Node5</title>
<g id="a_Node000005"><a xlink:href="classnixoncpp_1_1utils_1_1UtilsFactory.html#ac89ae32784dcc62839c88a8e99c50f7c" target="_top" xlink:title=" ">
<polygon fill="white" stroke="#666666" points="336.5,-279.5 186.25,-279.5 186.25,-246 336.5,-246 336.5,-279.5"/>
<text text-anchor="start" x="194.25" y="-266" font-family="Helvetica,sans-Serif" font-size="10.00">nixoncpp::utils::UtilsFactory</text>
<text text-anchor="middle" x="261.38" y="-253.25" font-family="Helvetica,sans-Serif" font-size="10.00">::createJsonSerializer</text>
</a>
</g>
</g>
<!-- Node1&#45;&gt;Node5 -->
<g id="edge4_Node000001_Node000005" class="edge">
<title>Node1&#45;&gt;Node5</title>
<g id="a_edge4_Node000001_Node000005"><a xlink:title=" ">
<path fill="none" stroke="#63b8ff" d="M122.62,-211.91C147.06,-220.93 177.23,-232.06 203.1,-241.61"/>
<polygon fill="#63b8ff" stroke="#63b8ff" points="201.88,-244.89 212.48,-245.07 204.31,-238.33 201.88,-244.89"/>
</a>
</g>
</g>
<!-- Node6 -->
<g id="Node000006" class="node">
<title>Node6</title>
<g id="a_Node000006"><a xlink:href="classnixoncpp_1_1utils_1_1UtilsFactory.html#a25d60ab1ffddf4e84f9bfcf18d6cda5e" target="_top" xlink:title=" ">
<polygon fill="white" stroke="#666666" points="336.5,-189.5 186.25,-189.5 186.25,-156 336.5,-156 336.5,-189.5"/>
<text text-anchor="start" x="194.25" y="-176" font-family="Helvetica,sans-Serif" font-size="10.00">nixoncpp::utils::UtilsFactory</text>
<text text-anchor="middle" x="261.38" y="-163.25" font-family="Helvetica,sans-Serif" font-size="10.00">::createLogger</text>
</a>
</g>
</g>
<!-- Node1&#45;&gt;Node6 -->
<g id="edge7_Node000001_Node000006" class="edge">
<title>Node1&#45;&gt;Node6</title>
<g id="a_edge7_Node000001_Node000006"><a xlink:title=" ">
<path fill="none" stroke="#63b8ff" d="M150.54,-185.87C158.48,-184.92 166.6,-183.95 174.66,-182.98"/>
<polygon fill="#63b8ff" stroke="#63b8ff" points="174.97,-186.47 184.48,-181.81 174.14,-179.52 174.97,-186.47"/>
</a>
</g>
</g>
<!-- Node10 -->
<g id="Node000010" class="node">
<title>Node10</title>
<g id="a_Node000010"><a xlink:href="classnixoncpp_1_1utils_1_1UtilsFactory.html#af57873fd9fa5b5a4b39925fc05966698" target="_top" xlink:title=" ">
<polygon fill="white" stroke="#666666" points="336.5,-137.5 186.25,-137.5 186.25,-104 336.5,-104 336.5,-137.5"/>
<text text-anchor="start" x="194.25" y="-124" font-family="Helvetica,sans-Serif" font-size="10.00">nixoncpp::utils::UtilsFactory</text>
<text text-anchor="middle" x="261.38" y="-111.25" font-family="Helvetica,sans-Serif" font-size="10.00">::createPathResolver</text>
</a>
</g>
</g>
<!-- Node1&#45;&gt;Node10 -->
<g id="edge11_Node000001_Node000010" class="edge">
<title>Node1&#45;&gt;Node10</title>
<g id="a_edge11_Node000001_Node000010"><a xlink:title=" ">
<path fill="none" stroke="#63b8ff" d="M113.81,-177.51C134.94,-168.04 161.89,-156.32 186.25,-146.75 190.53,-145.07 194.98,-143.38 199.46,-141.71"/>
<polygon fill="#63b8ff" stroke="#63b8ff" points="200.34,-145.12 208.53,-138.39 197.94,-138.54 200.34,-145.12"/>
</a>
</g>
</g>
<!-- Node11 -->
<g id="Node000011" class="node">
<title>Node11</title>
<g id="a_Node000011"><a xlink:href="classnixoncpp_1_1utils_1_1UtilsFactory.html#af9d36cfe688b1460dec5453b5d5c0f3e" target="_top" xlink:title=" ">
<polygon fill="white" stroke="#666666" points="336.5,-85.5 186.25,-85.5 186.25,-52 336.5,-52 336.5,-85.5"/>
<text text-anchor="start" x="194.25" y="-72" font-family="Helvetica,sans-Serif" font-size="10.00">nixoncpp::utils::UtilsFactory</text>
<text text-anchor="middle" x="261.38" y="-59.25" font-family="Helvetica,sans-Serif" font-size="10.00">::createPlatformInfo</text>
</a>
</g>
</g>
<!-- Node1&#45;&gt;Node11 -->
<g id="edge12_Node000001_Node000011" class="edge">
<title>Node1&#45;&gt;Node11</title>
<g id="a_edge12_Node000001_Node000011"><a xlink:title=" ">
<path fill="none" stroke="#63b8ff" d="M90.9,-177.62C110.64,-155.68 147.65,-117.75 186.25,-94.75 188.57,-93.37 190.98,-92.04 193.45,-90.77"/>
<polygon fill="#63b8ff" stroke="#63b8ff" points="194.91,-93.95 202.47,-86.53 191.93,-87.62 194.91,-93.95"/>
</a>
</g>
</g>
<!-- Node13 -->
<g id="Node000013" class="node">
<title>Node13</title>
<g id="a_Node000013"><a xlink:href="classnixoncpp_1_1utils_1_1UtilsFactory.html#a99c58e956babbfc262186c1c0d3fd29e" target="_top" xlink:title=" ">
<polygon fill="white" stroke="#666666" points="336.5,-33.5 186.25,-33.5 186.25,0 336.5,0 336.5,-33.5"/>
<text text-anchor="start" x="194.25" y="-20" font-family="Helvetica,sans-Serif" font-size="10.00">nixoncpp::utils::UtilsFactory</text>
<text text-anchor="middle" x="261.38" y="-7.25" font-family="Helvetica,sans-Serif" font-size="10.00">::createStringFormatter</text>
</a>
</g>
</g>
<!-- Node1&#45;&gt;Node13 -->
<g id="edge14_Node000001_Node000013" class="edge">
<title>Node1&#45;&gt;Node13</title>
<g id="a_edge14_Node000001_Node000013"><a xlink:title=" ">
<path fill="none" stroke="#63b8ff" d="M84.17,-177.52C99.61,-146.25 136.35,-79.95 186.25,-42.75 187.79,-41.6 189.39,-40.5 191.03,-39.45"/>
<polygon fill="#63b8ff" stroke="#63b8ff" points="192.54,-42.61 199.51,-34.64 189.09,-36.52 192.54,-42.61"/>
</a>
</g>
</g>
<!-- Node5&#45;&gt;Node3 -->
<g id="edge5_Node000005_Node000003" class="edge">
<title>Node5&#45;&gt;Node3</title>
<g id="a_edge5_Node000005_Node000003"><a xlink:title=" ">
<path fill="none" stroke="#63b8ff" d="M336.81,-275.95C352.59,-278.75 369.37,-281.73 385.53,-284.59"/>
<polygon fill="#63b8ff" stroke="#63b8ff" points="384.65,-287.99 395.1,-286.29 385.87,-281.1 384.65,-287.99"/>
</a>
</g>
</g>
<!-- Node5&#45;&gt;Node4 -->
<g id="edge6_Node000005_Node000004" class="edge">
<title>Node5&#45;&gt;Node4</title>
<g id="a_edge6_Node000005_Node000004"><a xlink:title=" ">
<path fill="none" stroke="#63b8ff" d="M336.81,-254.54C352.59,-252.8 369.37,-250.95 385.53,-249.17"/>
<polygon fill="#63b8ff" stroke="#63b8ff" points="385.53,-252.69 395.09,-248.12 384.77,-245.74 385.53,-252.69"/>
</a>
</g>
</g>
<!-- Node7 -->
<g id="Node000007" class="node">
<title>Node7</title>
<g id="a_Node000007"><a xlink:href="classnixoncpp_1_1logging_1_1LoggerFactory.html#a9a38b177b191b1ab4182363e93dd222b" target="_top" xlink:title="Create a logger instance based on the specified type and configuration.">
<polygon fill="white" stroke="#666666" points="532.12,-189.5 411.88,-189.5 411.88,-156 532.12,-156 532.12,-189.5"/>
<text text-anchor="start" x="419.88" y="-176" font-family="Helvetica,sans-Serif" font-size="10.00">nixoncpp::logging::</text>
<text text-anchor="middle" x="472" y="-163.25" font-family="Helvetica,sans-Serif" font-size="10.00">LoggerFactory::create</text>
</a>
</g>
</g>
<!-- Node6&#45;&gt;Node7 -->
<g id="edge8_Node000006_Node000007" class="edge">
<title>Node6&#45;&gt;Node7</title>
<g id="a_edge8_Node000006_Node000007"><a xlink:title=" ">
<path fill="none" stroke="#63b8ff" d="M336.81,-172.75C357.45,-172.75 379.79,-172.75 400.21,-172.75"/>
<polygon fill="#63b8ff" stroke="#63b8ff" points="400.15,-176.25 410.15,-172.75 400.15,-169.25 400.15,-176.25"/>
</a>
</g>
</g>
<!-- Node8 -->
<g id="Node000008" class="node">
<title>Node8</title>
<g id="a_Node000008"><a xlink:href="classnixoncpp_1_1logging_1_1LoggerFactory.html#a26cfce0d7f5386a37884a93178910b85" target="_top" xlink:title="Create a Console object logger.">
<polygon fill="white" stroke="#666666" points="766.75,-215.5 607.5,-215.5 607.5,-182 766.75,-182 766.75,-215.5"/>
<text text-anchor="start" x="615.5" y="-202" font-family="Helvetica,sans-Serif" font-size="10.00">nixoncpp::logging::</text>
<text text-anchor="middle" x="687.12" y="-189.25" font-family="Helvetica,sans-Serif" font-size="10.00">LoggerFactory::createConsole</text>
</a>
</g>
</g>
<!-- Node7&#45;&gt;Node8 -->
<g id="edge9_Node000007_Node000008" class="edge">
<title>Node7&#45;&gt;Node8</title>
<g id="a_edge9_Node000007_Node000008"><a xlink:title=" ">
<path fill="none" stroke="#63b8ff" d="M532.37,-179.99C552.09,-182.4 574.51,-185.13 596.01,-187.76"/>
<polygon fill="#63b8ff" stroke="#63b8ff" points="595.3,-191.2 605.65,-188.93 596.15,-184.25 595.3,-191.2"/>
</a>
</g>
</g>
<!-- Node9 -->
<g id="Node000009" class="node">
<title>Node9</title>
<g id="a_Node000009"><a xlink:href="classnixoncpp_1_1logging_1_1LoggerFactory.html#a155dca9a6066e9729f9237e7d02c2d4e" target="_top" xlink:title="Create a Null object logger.">
<polygon fill="white" stroke="#666666" points="757,-163.5 617.25,-163.5 617.25,-130 757,-130 757,-163.5"/>
<text text-anchor="start" x="625.25" y="-150" font-family="Helvetica,sans-Serif" font-size="10.00">nixoncpp::logging::</text>
<text text-anchor="middle" x="687.12" y="-137.25" font-family="Helvetica,sans-Serif" font-size="10.00">LoggerFactory::createNull</text>
</a>
</g>
</g>
<!-- Node7&#45;&gt;Node9 -->
<g id="edge10_Node000007_Node000009" class="edge">
<title>Node7&#45;&gt;Node9</title>
<g id="a_edge10_Node000007_Node000009"><a xlink:title=" ">
<path fill="none" stroke="#63b8ff" d="M532.37,-165.51C555.02,-162.74 581.23,-159.55 605.52,-156.58"/>
<polygon fill="#63b8ff" stroke="#63b8ff" points="605.89,-160.06 615.4,-155.38 605.05,-153.12 605.89,-160.06"/>
</a>
</g>
</g>
<!-- Node12 -->
<g id="Node000012" class="node">
<title>Node12</title>
<g id="a_Node000012"><a xlink:href="classnixoncpp_1_1utils_1_1PlatformInfoFactory.html#a0195da5938b4019fd41096c4e57a3c6a" target="_top" xlink:title=" ">
<polygon fill="white" stroke="#666666" points="571.5,-85.5 372.5,-85.5 372.5,-52 571.5,-52 571.5,-85.5"/>
<text text-anchor="start" x="380.5" y="-72" font-family="Helvetica,sans-Serif" font-size="10.00">nixoncpp::utils::Platform</text>
<text text-anchor="middle" x="472" y="-59.25" font-family="Helvetica,sans-Serif" font-size="10.00">InfoFactory::createForCurrentPlatform</text>
</a>
</g>
</g>
<!-- Node11&#45;&gt;Node12 -->
<g id="edge13_Node000011_Node000012" class="edge">
<title>Node11&#45;&gt;Node12</title>
<g id="a_edge13_Node000011_Node000012"><a xlink:title=" ">
<path fill="none" stroke="#63b8ff" d="M336.81,-68.75C344.6,-68.75 352.64,-68.75 360.73,-68.75"/>
<polygon fill="#63b8ff" stroke="#63b8ff" points="360.66,-72.25 370.66,-68.75 360.66,-65.25 360.66,-72.25"/>
</a>
</g>
</g>
</g>
</svg>
