<?xml version="1.0" encoding="UTF-8" standalone="no"?>
<!DOCTYPE svg PUBLIC "-//W3C//DTD SVG 1.1//EN"
 "http://www.w3.org/Graphics/SVG/1.1/DTD/svg11.dtd">
<!-- Generated by graphviz version 12.2.1 (0)
 -->
<!-- Title: nixoncpp::assets::AssetManagerFactory Pages: 1 -->
<svg width="173pt" height="194pt"
 viewBox="0.00 0.00 172.75 193.75" xmlns="http://www.w3.org/2000/svg" xmlns:xlink="http://www.w3.org/1999/xlink">
<g id="graph0" class="graph" transform="scale(1 1) rotate(0) translate(4 189.75)">
<title>nixoncpp::assets::AssetManagerFactory</title>
<!-- Node1 -->
<g id="Node000001" class="node">
<title>Node1</title>
<g id="a_Node000001"><a xlink:title=" ">
<polygon fill="#999999" stroke="none" points="164.75,-185.75 0,-185.75 0,0 164.75,0 164.75,-185.75"/>
<text text-anchor="start" x="4" y="-172.25" font-family="Helvetica,sans-Serif" font-size="10.00">nixoncpp::assets::AssetManager</text>
<text text-anchor="start" x="64.75" y="-159.5" font-family="Helvetica,sans-Serif" font-size="10.00">Factory</text>
<text text-anchor="start" x="80.88" y="-142.75" font-family="Helvetica,sans-Serif" font-size="10.00"> </text>
<text text-anchor="start" x="9.94" y="-126" font-family="Helvetica,sans-Serif" font-size="10.00">+</text>
<text text-anchor="start" x="28.12" y="-126" font-family="Helvetica,sans-Serif" font-size="10.00">static std::shared</text>
<text text-anchor="start" x="28.12" y="-113.25" font-family="Helvetica,sans-Serif" font-size="10.00">_ptr&lt; IAssetManager</text>
<text text-anchor="start" x="28.12" y="-100.5" font-family="Helvetica,sans-Serif" font-size="10.00"> &gt; createDefault(const</text>
<text text-anchor="start" x="28.12" y="-87.75" font-family="Helvetica,sans-Serif" font-size="10.00"> std::filesystem::path</text>
<text text-anchor="start" x="28.12" y="-75" font-family="Helvetica,sans-Serif" font-size="10.00"> &amp;executablePath, const</text>
<text text-anchor="start" x="28.12" y="-62.25" font-family="Helvetica,sans-Serif" font-size="10.00"> std::string &amp;appName)</text>
<text text-anchor="start" x="9.94" y="-45.5" font-family="Helvetica,sans-Serif" font-size="10.00">+</text>
<text text-anchor="start" x="28.12" y="-45.5" font-family="Helvetica,sans-Serif" font-size="10.00">static std::shared</text>
<text text-anchor="start" x="28.12" y="-32.75" font-family="Helvetica,sans-Serif" font-size="10.00">_ptr&lt; IAssetManager</text>
<text text-anchor="start" x="28.12" y="-20" font-family="Helvetica,sans-Serif" font-size="10.00"> &gt; create(std::filesystem</text>
<text text-anchor="start" x="28.12" y="-7.25" font-family="Helvetica,sans-Serif" font-size="10.00">::path assetsPath)</text>
<polygon fill="#666666" stroke="#666666" points="0,-154.25 0,-154.25 164.75,-154.25 164.75,-154.25 0,-154.25"/>
<polygon fill="#666666" stroke="#666666" points="0,-137.5 0,-137.5 164.75,-137.5 164.75,-137.5 0,-137.5"/>
<polygon fill="none" stroke="#666666" points="0,0 0,-185.75 164.75,-185.75 164.75,0 0,0"/>
</a>
</g>
</g>
</g>
</svg>
