<?xml version="1.0" encoding="UTF-8" standalone="no"?>
<!DOCTYPE svg PUBLIC "-//W3C//DTD SVG 1.1//EN"
 "http://www.w3.org/Graphics/SVG/1.1/DTD/svg11.dtd">
<!-- Generated by graphviz version 12.2.1 (0)
 -->
<!-- Title: nixoncpp::utils::UtilsFactory::createLogger Pages: 1 -->
<svg width="510pt" height="94pt"
 viewBox="0.00 0.00 509.75 93.50" xmlns="http://www.w3.org/2000/svg" xmlns:xlink="http://www.w3.org/1999/xlink">
<g id="graph0" class="graph" transform="scale(1 1) rotate(0) translate(4 89.5)">
<title>nixoncpp::utils::UtilsFactory::createLogger</title>
<!-- Node1 -->
<g id="Node000001" class="node">
<title>Node1</title>
<g id="a_Node000001"><a xlink:title=" ">
<polygon fill="#999999" stroke="#666666" points="150.25,-59.5 0,-59.5 0,-26 150.25,-26 150.25,-59.5"/>
<text text-anchor="start" x="8" y="-46" font-family="Helvetica,sans-Serif" font-size="10.00">nixoncpp::utils::UtilsFactory</text>
<text text-anchor="middle" x="75.12" y="-33.25" font-family="Helvetica,sans-Serif" font-size="10.00">::createLogger</text>
</a>
</g>
</g>
<!-- Node2 -->
<g id="Node000002" class="node">
<title>Node2</title>
<g id="a_Node000002"><a xlink:href="classnixoncpp_1_1logging_1_1LoggerFactory.html#a9a38b177b191b1ab4182363e93dd222b" target="_top" xlink:title="Create a logger instance based on the specified type and configuration.">
<polygon fill="white" stroke="#666666" points="306.5,-59.5 186.25,-59.5 186.25,-26 306.5,-26 306.5,-59.5"/>
<text text-anchor="start" x="194.25" y="-46" font-family="Helvetica,sans-Serif" font-size="10.00">nixoncpp::logging::</text>
<text text-anchor="middle" x="246.38" y="-33.25" font-family="Helvetica,sans-Serif" font-size="10.00">LoggerFactory::create</text>
</a>
</g>
</g>
<!-- Node1&#45;&gt;Node2 -->
<g id="edge1_Node000001_Node000002" class="edge">
<title>Node1&#45;&gt;Node2</title>
<g id="a_edge1_Node000001_Node000002"><a xlink:title=" ">
<path fill="none" stroke="#63b8ff" d="M150.36,-42.75C158.36,-42.75 166.48,-42.75 174.44,-42.75"/>
<polygon fill="#63b8ff" stroke="#63b8ff" points="174.43,-46.25 184.43,-42.75 174.43,-39.25 174.43,-46.25"/>
</a>
</g>
</g>
<!-- Node3 -->
<g id="Node000003" class="node">
<title>Node3</title>
<g id="a_Node000003"><a xlink:href="classnixoncpp_1_1logging_1_1LoggerFactory.html#a26cfce0d7f5386a37884a93178910b85" target="_top" xlink:title="Create a Console object logger.">
<polygon fill="white" stroke="#666666" points="501.75,-85.5 342.5,-85.5 342.5,-52 501.75,-52 501.75,-85.5"/>
<text text-anchor="start" x="350.5" y="-72" font-family="Helvetica,sans-Serif" font-size="10.00">nixoncpp::logging::</text>
<text text-anchor="middle" x="422.12" y="-59.25" font-family="Helvetica,sans-Serif" font-size="10.00">LoggerFactory::createConsole</text>
</a>
</g>
</g>
<!-- Node2&#45;&gt;Node3 -->
<g id="edge2_Node000002_Node000003" class="edge">
<title>Node2&#45;&gt;Node3</title>
<g id="a_edge2_Node000002_Node000003"><a xlink:title=" ">
<path fill="none" stroke="#63b8ff" d="M306.68,-51.63C314.52,-52.8 322.7,-54.02 330.91,-55.25"/>
<polygon fill="#63b8ff" stroke="#63b8ff" points="330.21,-58.68 340.61,-56.7 331.24,-51.76 330.21,-58.68"/>
</a>
</g>
</g>
<!-- Node4 -->
<g id="Node000004" class="node">
<title>Node4</title>
<g id="a_Node000004"><a xlink:href="classnixoncpp_1_1logging_1_1LoggerFactory.html#a155dca9a6066e9729f9237e7d02c2d4e" target="_top" xlink:title="Create a Null object logger.">
<polygon fill="white" stroke="#666666" points="492,-33.5 352.25,-33.5 352.25,0 492,0 492,-33.5"/>
<text text-anchor="start" x="360.25" y="-20" font-family="Helvetica,sans-Serif" font-size="10.00">nixoncpp::logging::</text>
<text text-anchor="middle" x="422.12" y="-7.25" font-family="Helvetica,sans-Serif" font-size="10.00">LoggerFactory::createNull</text>
</a>
</g>
</g>
<!-- Node2&#45;&gt;Node4 -->
<g id="edge3_Node000002_Node000004" class="edge">
<title>Node2&#45;&gt;Node4</title>
<g id="a_edge3_Node000002_Node000004"><a xlink:title=" ">
<path fill="none" stroke="#63b8ff" d="M306.68,-33.87C317.6,-32.24 329.16,-30.51 340.57,-28.8"/>
<polygon fill="#63b8ff" stroke="#63b8ff" points="341.04,-32.27 350.41,-27.33 340,-25.35 341.04,-32.27"/>
</a>
</g>
</g>
</g>
</svg>
