<?xml version="1.0" encoding="UTF-8" standalone="no"?>
<!DOCTYPE svg PUBLIC "-//W3C//DTD SVG 1.1//EN"
 "http://www.w3.org/Graphics/SVG/1.1/DTD/svg11.dtd">
<!-- Generated by graphviz version 12.2.1 (0)
 -->
<!-- Title: nixoncpp::utils::FileReader::readBytes Pages: 1 -->
<svg width="240pt" height="146pt"
 viewBox="0.00 0.00 239.50 145.75" xmlns="http://www.w3.org/2000/svg" xmlns:xlink="http://www.w3.org/1999/xlink">
<g id="graph0" class="graph" transform="scale(1 1) rotate(0) translate(4 141.75)">
<title>nixoncpp::utils::FileReader::readBytes</title>
<!-- Node1 -->
<g id="Node000001" class="node">
<title>Node1</title>
<g id="a_Node000001"><a xlink:title="Read the entire content of a file as a vector of bytes.">
<polygon fill="#999999" stroke="#666666" points="231.5,-85.12 87.25,-85.12 87.25,-51.62 231.5,-51.62 231.5,-85.12"/>
<text text-anchor="start" x="95.25" y="-71.62" font-family="Helvetica,sans-Serif" font-size="10.00">nixoncpp::utils::FileReader</text>
<text text-anchor="middle" x="159.38" y="-58.88" font-family="Helvetica,sans-Serif" font-size="10.00">::readBytes</text>
</a>
</g>
</g>
<!-- Node2 -->
<g id="Node000002" class="node">
<title>Node2</title>
<g id="a_Node000002"><a xlink:href="FileReaderTest_8cpp.html#a21fbdc04482e85168ee95265a6e6410d" target="_top" xlink:title=" ">
<polygon fill="white" stroke="#666666" points="51.25,-137.75 0,-137.75 0,-117 51.25,-117 51.25,-137.75"/>
<text text-anchor="middle" x="25.62" y="-124.25" font-family="Helvetica,sans-Serif" font-size="10.00">TEST_F</text>
</a>
</g>
</g>
<!-- Node1&#45;&gt;Node2 -->
<g id="edge1_Node000001_Node000002" class="edge">
<title>Node1&#45;&gt;Node2</title>
<g id="a_edge1_Node000001_Node000002"><a xlink:title=" ">
<path fill="none" stroke="#63b8ff" d="M109.67,-90.18C89.61,-99.17 67.27,-109.17 50.82,-116.54"/>
<polygon fill="#63b8ff" stroke="#63b8ff" points="110.84,-93.5 118.53,-86.22 107.97,-87.11 110.84,-93.5"/>
</a>
</g>
</g>
<!-- Node3 -->
<g id="Node000003" class="node">
<title>Node3</title>
<g id="a_Node000003"><a xlink:href="FileReaderTest_8cpp.html#a0131d32a3466ac7f4026682b24f25d4e" target="_top" xlink:title=" ">
<polygon fill="white" stroke="#666666" points="51.25,-98.75 0,-98.75 0,-78 51.25,-78 51.25,-98.75"/>
<text text-anchor="middle" x="25.62" y="-85.25" font-family="Helvetica,sans-Serif" font-size="10.00">TEST_F</text>
</a>
</g>
</g>
<!-- Node1&#45;&gt;Node3 -->
<g id="edge2_Node000001_Node000003" class="edge">
<title>Node1&#45;&gt;Node3</title>
<g id="a_edge2_Node000001_Node000003"><a xlink:title=" ">
<path fill="none" stroke="#63b8ff" d="M75.88,-80.9C67.16,-82.22 58.86,-83.48 51.64,-84.58"/>
<polygon fill="#63b8ff" stroke="#63b8ff" points="76.24,-84.38 85.61,-79.42 75.19,-77.46 76.24,-84.38"/>
</a>
</g>
</g>
<!-- Node4 -->
<g id="Node000004" class="node">
<title>Node4</title>
<g id="a_Node000004"><a xlink:href="FileReaderTest_8cpp.html#a3e54e2d4494798f1b31bf9bc3d9e476a" target="_top" xlink:title=" ">
<polygon fill="white" stroke="#666666" points="51.25,-59.75 0,-59.75 0,-39 51.25,-39 51.25,-59.75"/>
<text text-anchor="middle" x="25.62" y="-46.25" font-family="Helvetica,sans-Serif" font-size="10.00">TEST_F</text>
</a>
</g>
</g>
<!-- Node1&#45;&gt;Node4 -->
<g id="edge3_Node000001_Node000004" class="edge">
<title>Node1&#45;&gt;Node4</title>
<g id="a_edge3_Node000001_Node000004"><a xlink:title=" ">
<path fill="none" stroke="#63b8ff" d="M75.88,-56.48C67.16,-55.22 58.86,-54.02 51.64,-52.98"/>
<polygon fill="#63b8ff" stroke="#63b8ff" points="75.21,-59.92 85.6,-57.88 76.21,-52.99 75.21,-59.92"/>
</a>
</g>
</g>
<!-- Node5 -->
<g id="Node000005" class="node">
<title>Node5</title>
<g id="a_Node000005"><a xlink:href="FileReaderTest_8cpp.html#a92203db8536ae7f1fa01807385f10568" target="_top" xlink:title=" ">
<polygon fill="white" stroke="#666666" points="51.25,-20.75 0,-20.75 0,0 51.25,0 51.25,-20.75"/>
<text text-anchor="middle" x="25.62" y="-7.25" font-family="Helvetica,sans-Serif" font-size="10.00">TEST_F</text>
</a>
</g>
</g>
<!-- Node1&#45;&gt;Node5 -->
<g id="edge4_Node000001_Node000005" class="edge">
<title>Node1&#45;&gt;Node5</title>
<g id="a_edge4_Node000001_Node000005"><a xlink:title=" ">
<path fill="none" stroke="#63b8ff" d="M108.79,-46.55C89.01,-37.84 67.15,-28.21 50.95,-21.08"/>
<polygon fill="#63b8ff" stroke="#63b8ff" points="107.25,-49.69 117.82,-50.52 110.07,-43.29 107.25,-49.69"/>
</a>
</g>
</g>
</g>
</svg>
