<?xml version="1.0" encoding="UTF-8" standalone="no"?>
<!DOCTYPE svg PUBLIC "-//W3C//DTD SVG 1.1//EN"
 "http://www.w3.org/Graphics/SVG/1.1/DTD/svg11.dtd">
<!-- Generated by graphviz version 12.2.1 (0)
 -->
<!-- Title: nixoncpp::logging::LoggerFactory::createConsole Pages: 1 -->
<svg width="882pt" height="146pt"
 viewBox="0.00 0.00 882.25 145.50" xmlns="http://www.w3.org/2000/svg" xmlns:xlink="http://www.w3.org/1999/xlink">
<g id="graph0" class="graph" transform="scale(1 1) rotate(0) translate(4 141.5)">
<title>nixoncpp::logging::LoggerFactory::createConsole</title>
<!-- Node1 -->
<g id="Node000001" class="node">
<title>Node1</title>
<g id="a_Node000001"><a xlink:title="Create a Console object logger.">
<polygon fill="#999999" stroke="#666666" points="874.25,-85.5 715,-85.5 715,-52 874.25,-52 874.25,-85.5"/>
<text text-anchor="start" x="723" y="-72" font-family="Helvetica,sans-Serif" font-size="10.00">nixoncpp::logging::</text>
<text text-anchor="middle" x="794.62" y="-59.25" font-family="Helvetica,sans-Serif" font-size="10.00">LoggerFactory::createConsole</text>
</a>
</g>
</g>
<!-- Node2 -->
<g id="Node000002" class="node">
<title>Node2</title>
<g id="a_Node000002"><a xlink:href="classnixoncpp_1_1logging_1_1LoggerFactory.html#a9a38b177b191b1ab4182363e93dd222b" target="_top" xlink:title="Create a logger instance based on the specified type and configuration.">
<polygon fill="white" stroke="#666666" points="679,-85.5 558.75,-85.5 558.75,-52 679,-52 679,-85.5"/>
<text text-anchor="start" x="566.75" y="-72" font-family="Helvetica,sans-Serif" font-size="10.00">nixoncpp::logging::</text>
<text text-anchor="middle" x="618.88" y="-59.25" font-family="Helvetica,sans-Serif" font-size="10.00">LoggerFactory::create</text>
</a>
</g>
</g>
<!-- Node1&#45;&gt;Node2 -->
<g id="edge1_Node000001_Node000002" class="edge">
<title>Node1&#45;&gt;Node2</title>
<g id="a_edge1_Node000001_Node000002"><a xlink:title=" ">
<path fill="none" stroke="#63b8ff" d="M703.23,-68.75C695.16,-68.75 687.14,-68.75 679.43,-68.75"/>
<polygon fill="#63b8ff" stroke="#63b8ff" points="703.12,-72.25 713.12,-68.75 703.12,-65.25 703.12,-72.25"/>
</a>
</g>
</g>
<!-- Node3 -->
<g id="Node000003" class="node">
<title>Node3</title>
<g id="a_Node000003"><a xlink:href="classnixoncpp_1_1utils_1_1UtilsFactory.html#a25d60ab1ffddf4e84f9bfcf18d6cda5e" target="_top" xlink:title=" ">
<polygon fill="white" stroke="#666666" points="522.75,-85.5 372.5,-85.5 372.5,-52 522.75,-52 522.75,-85.5"/>
<text text-anchor="start" x="380.5" y="-72" font-family="Helvetica,sans-Serif" font-size="10.00">nixoncpp::utils::UtilsFactory</text>
<text text-anchor="middle" x="447.62" y="-59.25" font-family="Helvetica,sans-Serif" font-size="10.00">::createLogger</text>
</a>
</g>
</g>
<!-- Node2&#45;&gt;Node3 -->
<g id="edge2_Node000002_Node000003" class="edge">
<title>Node2&#45;&gt;Node3</title>
<g id="a_edge2_Node000002_Node000003"><a xlink:title=" ">
<path fill="none" stroke="#63b8ff" d="M547.41,-68.75C539.34,-68.75 531.09,-68.75 522.96,-68.75"/>
<polygon fill="#63b8ff" stroke="#63b8ff" points="547.17,-72.25 557.17,-68.75 547.17,-65.25 547.17,-72.25"/>
</a>
</g>
</g>
<!-- Node4 -->
<g id="Node000004" class="node">
<title>Node4</title>
<g id="a_Node000004"><a xlink:href="classnixoncpp_1_1utils_1_1UtilsFactory.html#a7584ff01912c5d2a8450715debefed80" target="_top" xlink:title="Create minimal context without app&#45;specific components.">
<polygon fill="white" stroke="#666666" points="336.5,-137.5 186.25,-137.5 186.25,-104 336.5,-104 336.5,-137.5"/>
<text text-anchor="start" x="194.25" y="-124" font-family="Helvetica,sans-Serif" font-size="10.00">nixoncpp::utils::UtilsFactory</text>
<text text-anchor="middle" x="261.38" y="-111.25" font-family="Helvetica,sans-Serif" font-size="10.00">::createCoreContext</text>
</a>
</g>
</g>
<!-- Node3&#45;&gt;Node4 -->
<g id="edge3_Node000003_Node000004" class="edge">
<title>Node3&#45;&gt;Node4</title>
<g id="a_edge3_Node000003_Node000004"><a xlink:title=" ">
<path fill="none" stroke="#63b8ff" d="M374.55,-89.09C357.61,-93.87 339.71,-98.92 323.31,-103.55"/>
<polygon fill="#63b8ff" stroke="#63b8ff" points="375.4,-92.49 384.07,-86.4 373.5,-85.75 375.4,-92.49"/>
</a>
</g>
</g>
<!-- Node5 -->
<g id="Node000005" class="node">
<title>Node5</title>
<g id="a_Node000005"><a xlink:href="classnixoncpp_1_1utils_1_1UtilsFactory.html#a701a98b9e13fac471f5b9a35dfa1058e" target="_top" xlink:title=" ">
<polygon fill="white" stroke="#666666" points="336.5,-85.5 186.25,-85.5 186.25,-52 336.5,-52 336.5,-85.5"/>
<text text-anchor="start" x="194.25" y="-72" font-family="Helvetica,sans-Serif" font-size="10.00">nixoncpp::utils::UtilsFactory</text>
<text text-anchor="middle" x="261.38" y="-59.25" font-family="Helvetica,sans-Serif" font-size="10.00">::createDefaultLogger</text>
</a>
</g>
</g>
<!-- Node3&#45;&gt;Node5 -->
<g id="edge4_Node000003_Node000005" class="edge">
<title>Node3&#45;&gt;Node5</title>
<g id="a_edge4_Node000003_Node000005"><a xlink:title=" ">
<path fill="none" stroke="#63b8ff" d="M360.89,-68.75C352.83,-68.75 344.71,-68.75 336.76,-68.75"/>
<polygon fill="#63b8ff" stroke="#63b8ff" points="360.7,-72.25 370.7,-68.75 360.7,-65.25 360.7,-72.25"/>
</a>
</g>
</g>
<!-- Node7 -->
<g id="Node000007" class="node">
<title>Node7</title>
<g id="a_Node000007"><a xlink:href="classnixoncpp_1_1utils_1_1UtilsFactory.html#a4f4379374cac4b57e87332373ecdb3c2" target="_top" xlink:title="Create full application context with all components.">
<polygon fill="white" stroke="#666666" points="336.5,-33.5 186.25,-33.5 186.25,0 336.5,0 336.5,-33.5"/>
<text text-anchor="start" x="194.25" y="-20" font-family="Helvetica,sans-Serif" font-size="10.00">nixoncpp::utils::UtilsFactory</text>
<text text-anchor="middle" x="261.38" y="-7.25" font-family="Helvetica,sans-Serif" font-size="10.00">::createFullContext</text>
</a>
</g>
</g>
<!-- Node3&#45;&gt;Node7 -->
<g id="edge6_Node000003_Node000007" class="edge">
<title>Node3&#45;&gt;Node7</title>
<g id="a_edge6_Node000003_Node000007"><a xlink:title=" ">
<path fill="none" stroke="#63b8ff" d="M374.55,-48.41C357.61,-43.63 339.71,-38.58 323.31,-33.95"/>
<polygon fill="#63b8ff" stroke="#63b8ff" points="373.5,-51.75 384.07,-51.1 375.4,-45.01 373.5,-51.75"/>
</a>
</g>
</g>
<!-- Node6 -->
<g id="Node000006" class="node">
<title>Node6</title>
<g id="a_Node000006"><a xlink:href="classnixoncpp_1_1utils_1_1UtilsFactory.html#aab74a1a2491ea457c170d20781cf6897" target="_top" xlink:title="Create basic utilities context with default logger.">
<polygon fill="white" stroke="#666666" points="150.25,-85.5 0,-85.5 0,-52 150.25,-52 150.25,-85.5"/>
<text text-anchor="start" x="8" y="-72" font-family="Helvetica,sans-Serif" font-size="10.00">nixoncpp::utils::UtilsFactory</text>
<text text-anchor="middle" x="75.12" y="-59.25" font-family="Helvetica,sans-Serif" font-size="10.00">::createBasicContext</text>
</a>
</g>
</g>
<!-- Node5&#45;&gt;Node6 -->
<g id="edge5_Node000005_Node000006" class="edge">
<title>Node5&#45;&gt;Node6</title>
<g id="a_edge5_Node000005_Node000006"><a xlink:title=" ">
<path fill="none" stroke="#63b8ff" d="M174.64,-68.75C166.58,-68.75 158.46,-68.75 150.51,-68.75"/>
<polygon fill="#63b8ff" stroke="#63b8ff" points="174.45,-72.25 184.45,-68.75 174.45,-65.25 174.45,-72.25"/>
</a>
</g>
</g>
<!-- Node8 -->
<g id="Node000008" class="node">
<title>Node8</title>
<g id="a_Node000008"><a xlink:href="Application_8cpp.html#a3c04138a5bfe5d72780bb7e82a18e627" target="_top" xlink:title=" ">
<polygon fill="white" stroke="#666666" points="95.5,-27.12 54.75,-27.12 54.75,-6.38 95.5,-6.38 95.5,-27.12"/>
<text text-anchor="middle" x="75.12" y="-13.62" font-family="Helvetica,sans-Serif" font-size="10.00">main</text>
</a>
</g>
</g>
<!-- Node7&#45;&gt;Node8 -->
<g id="edge7_Node000007_Node000008" class="edge">
<title>Node7&#45;&gt;Node8</title>
<g id="a_edge7_Node000007_Node000008"><a xlink:title=" ">
<path fill="none" stroke="#63b8ff" d="M174.74,-16.75C145.26,-16.75 114.9,-16.75 95.79,-16.75"/>
<polygon fill="#63b8ff" stroke="#63b8ff" points="174.45,-20.25 184.45,-16.75 174.45,-13.25 174.45,-20.25"/>
</a>
</g>
</g>
</g>
</svg>
