<?xml version="1.0" encoding="UTF-8" standalone="no"?>
<!DOCTYPE svg PUBLIC "-//W3C//DTD SVG 1.1//EN"
 "http://www.w3.org/Graphics/SVG/1.1/DTD/svg11.dtd">
<!-- Generated by graphviz version 12.2.1 (0)
 -->
<!-- Title: nixoncpp::utils::Result::value Pages: 1 -->
<svg width="291pt" height="354pt"
 viewBox="0.00 0.00 290.50 353.50" xmlns="http://www.w3.org/2000/svg" xmlns:xlink="http://www.w3.org/1999/xlink">
<g id="graph0" class="graph" transform="scale(1 1) rotate(0) translate(4 349.5)">
<title>nixoncpp::utils::Result::value</title>
<!-- Node1 -->
<g id="Node000001" class="node">
<title>Node1</title>
<g id="a_Node000001"><a xlink:title=" ">
<polygon fill="#999999" stroke="#666666" points="282.5,-189.5 159.25,-189.5 159.25,-156 282.5,-156 282.5,-189.5"/>
<text text-anchor="start" x="167.25" y="-176" font-family="Helvetica,sans-Serif" font-size="10.00">nixoncpp::utils::Result</text>
<text text-anchor="middle" x="220.88" y="-163.25" font-family="Helvetica,sans-Serif" font-size="10.00">::value</text>
</a>
</g>
</g>
<!-- Node2 -->
<g id="Node000002" class="node">
<title>Node2</title>
<g id="a_Node000002"><a xlink:href="classnixoncpp_1_1utils_1_1Result.html#a4b9113570924afe8b2ef3e53886aba35" target="_top" xlink:title=" ">
<polygon fill="white" stroke="#666666" points="123.25,-345.5 0,-345.5 0,-312 123.25,-312 123.25,-345.5"/>
<text text-anchor="start" x="8" y="-332" font-family="Helvetica,sans-Serif" font-size="10.00">nixoncpp::utils::Result</text>
<text text-anchor="middle" x="61.62" y="-319.25" font-family="Helvetica,sans-Serif" font-size="10.00">::operator*</text>
</a>
</g>
</g>
<!-- Node1&#45;&gt;Node2 -->
<g id="edge1_Node000001_Node000002" class="edge">
<title>Node1&#45;&gt;Node2</title>
<g id="a_edge1_Node000001_Node000002"><a xlink:title=" ">
<path fill="none" stroke="#63b8ff" d="M205.66,-199.57C189.2,-228.43 159.61,-274.04 123.25,-302.75 119.12,-306.01 114.51,-308.95 109.73,-311.56"/>
<polygon fill="#63b8ff" stroke="#63b8ff" points="208.58,-201.52 210.39,-191.08 202.46,-198.12 208.58,-201.52"/>
</a>
</g>
</g>
<!-- Node3 -->
<g id="Node000003" class="node">
<title>Node3</title>
<g id="a_Node000003"><a xlink:href="classnixoncpp_1_1utils_1_1Result.html#a980da16664deea8cc15af6205638e27c" target="_top" xlink:title=" ">
<polygon fill="white" stroke="#666666" points="123.25,-293.5 0,-293.5 0,-260 123.25,-260 123.25,-293.5"/>
<text text-anchor="start" x="8" y="-280" font-family="Helvetica,sans-Serif" font-size="10.00">nixoncpp::utils::Result</text>
<text text-anchor="middle" x="61.62" y="-267.25" font-family="Helvetica,sans-Serif" font-size="10.00">::operator*</text>
</a>
</g>
</g>
<!-- Node1&#45;&gt;Node3 -->
<g id="edge2_Node000001_Node000003" class="edge">
<title>Node1&#45;&gt;Node3</title>
<g id="a_edge2_Node000001_Node000003"><a xlink:title=" ">
<path fill="none" stroke="#63b8ff" d="M193.25,-197.58C174.63,-214.09 148.64,-235.45 123.25,-250.75 118.05,-253.88 112.41,-256.83 106.72,-259.54"/>
<polygon fill="#63b8ff" stroke="#63b8ff" points="195.55,-200.23 200.64,-190.93 190.87,-195.02 195.55,-200.23"/>
</a>
</g>
</g>
<!-- Node4 -->
<g id="Node000004" class="node">
<title>Node4</title>
<g id="a_Node000004"><a xlink:href="classnixoncpp_1_1utils_1_1Result.html#abd3ac223109f8b2e992da26f766dfeb7" target="_top" xlink:title=" ">
<polygon fill="white" stroke="#666666" points="123.25,-241.5 0,-241.5 0,-208 123.25,-208 123.25,-241.5"/>
<text text-anchor="start" x="8" y="-228" font-family="Helvetica,sans-Serif" font-size="10.00">nixoncpp::utils::Result</text>
<text text-anchor="middle" x="61.62" y="-215.25" font-family="Helvetica,sans-Serif" font-size="10.00">::operator*</text>
</a>
</g>
</g>
<!-- Node1&#45;&gt;Node4 -->
<g id="edge3_Node000001_Node000004" class="edge">
<title>Node1&#45;&gt;Node4</title>
<g id="a_edge3_Node000001_Node000004"><a xlink:title=" ">
<path fill="none" stroke="#63b8ff" d="M157.33,-193.43C143.22,-198.1 128.39,-203 114.76,-207.51"/>
<polygon fill="#63b8ff" stroke="#63b8ff" points="158.12,-196.86 166.51,-190.4 155.92,-190.21 158.12,-196.86"/>
</a>
</g>
</g>
<!-- Node5 -->
<g id="Node000005" class="node">
<title>Node5</title>
<g id="a_Node000005"><a xlink:href="classnixoncpp_1_1utils_1_1Result.html#aef8d5e5eb7b3715cbc7e57f49cebbbeb" target="_top" xlink:title=" ">
<polygon fill="white" stroke="#666666" points="123.25,-189.5 0,-189.5 0,-156 123.25,-156 123.25,-189.5"/>
<text text-anchor="start" x="8" y="-176" font-family="Helvetica,sans-Serif" font-size="10.00">nixoncpp::utils::Result</text>
<text text-anchor="middle" x="61.62" y="-163.25" font-family="Helvetica,sans-Serif" font-size="10.00">::operator&#45;&gt;</text>
</a>
</g>
</g>
<!-- Node1&#45;&gt;Node5 -->
<g id="edge4_Node000001_Node000005" class="edge">
<title>Node1&#45;&gt;Node5</title>
<g id="a_edge4_Node000001_Node000005"><a xlink:title=" ">
<path fill="none" stroke="#63b8ff" d="M147.73,-172.75C139.64,-172.75 131.45,-172.75 123.52,-172.75"/>
<polygon fill="#63b8ff" stroke="#63b8ff" points="147.56,-176.25 157.56,-172.75 147.56,-169.25 147.56,-176.25"/>
</a>
</g>
</g>
<!-- Node6 -->
<g id="Node000006" class="node">
<title>Node6</title>
<g id="a_Node000006"><a xlink:href="classnixoncpp_1_1utils_1_1Result.html#a9d55939c3f3e0e700a063e16a998385b" target="_top" xlink:title=" ">
<polygon fill="white" stroke="#666666" points="123.25,-137.5 0,-137.5 0,-104 123.25,-104 123.25,-137.5"/>
<text text-anchor="start" x="8" y="-124" font-family="Helvetica,sans-Serif" font-size="10.00">nixoncpp::utils::Result</text>
<text text-anchor="middle" x="61.62" y="-111.25" font-family="Helvetica,sans-Serif" font-size="10.00">::operator&#45;&gt;</text>
</a>
</g>
</g>
<!-- Node1&#45;&gt;Node6 -->
<g id="edge5_Node000001_Node000006" class="edge">
<title>Node1&#45;&gt;Node6</title>
<g id="a_edge5_Node000001_Node000006"><a xlink:title=" ">
<path fill="none" stroke="#63b8ff" d="M157.33,-152.07C143.22,-147.4 128.39,-142.5 114.76,-137.99"/>
<polygon fill="#63b8ff" stroke="#63b8ff" points="155.92,-155.29 166.51,-155.1 158.12,-148.64 155.92,-155.29"/>
</a>
</g>
</g>
<!-- Node7 -->
<g id="Node000007" class="node">
<title>Node7</title>
<g id="a_Node000007"><a xlink:href="classnixoncpp_1_1utils_1_1Result.html#a595b0f75bef31c62bca8eb22e3ea6e06" target="_top" xlink:title=" ">
<polygon fill="white" stroke="#666666" points="123.25,-85.5 0,-85.5 0,-52 123.25,-52 123.25,-85.5"/>
<text text-anchor="start" x="8" y="-72" font-family="Helvetica,sans-Serif" font-size="10.00">nixoncpp::utils::Result</text>
<text text-anchor="middle" x="61.62" y="-59.25" font-family="Helvetica,sans-Serif" font-size="10.00">::Result</text>
</a>
</g>
</g>
<!-- Node1&#45;&gt;Node7 -->
<g id="edge6_Node000001_Node000007" class="edge">
<title>Node1&#45;&gt;Node7</title>
<g id="a_edge6_Node000001_Node000007"><a xlink:title=" ">
<path fill="none" stroke="#63b8ff" d="M193.25,-147.92C174.63,-131.41 148.64,-110.05 123.25,-94.75 118.05,-91.62 112.41,-88.67 106.72,-85.96"/>
<polygon fill="#63b8ff" stroke="#63b8ff" points="190.87,-150.48 200.64,-154.57 195.55,-145.27 190.87,-150.48"/>
</a>
</g>
</g>
<!-- Node8 -->
<g id="Node000008" class="node">
<title>Node8</title>
<g id="a_Node000008"><a xlink:href="classnixoncpp_1_1utils_1_1Result.html#a21072af54b0e591502dc813d6cd9cb23" target="_top" xlink:title=" ">
<polygon fill="white" stroke="#666666" points="123.25,-33.5 0,-33.5 0,0 123.25,0 123.25,-33.5"/>
<text text-anchor="start" x="8" y="-20" font-family="Helvetica,sans-Serif" font-size="10.00">nixoncpp::utils::Result</text>
<text text-anchor="middle" x="61.62" y="-7.25" font-family="Helvetica,sans-Serif" font-size="10.00">::Result</text>
</a>
</g>
</g>
<!-- Node1&#45;&gt;Node8 -->
<g id="edge7_Node000001_Node000008" class="edge">
<title>Node1&#45;&gt;Node8</title>
<g id="a_edge7_Node000001_Node000008"><a xlink:title=" ">
<path fill="none" stroke="#63b8ff" d="M205.66,-145.93C189.2,-117.07 159.61,-71.46 123.25,-42.75 119.12,-39.49 114.51,-36.55 109.73,-33.94"/>
<polygon fill="#63b8ff" stroke="#63b8ff" points="202.46,-147.38 210.39,-154.42 208.58,-143.98 202.46,-147.38"/>
</a>
</g>
</g>
</g>
</svg>
