<?xml version="1.0" encoding="UTF-8" standalone="no"?>
<!DOCTYPE svg PUBLIC "-//W3C//DTD SVG 1.1//EN"
 "http://www.w3.org/Graphics/SVG/1.1/DTD/svg11.dtd">
<!-- Generated by graphviz version 12.2.1 (0)
 -->
<!-- Title: nixoncpp::utils::UtilsFactory::createAssetManager Pages: 1 -->
<svg width="576pt" height="42pt"
 viewBox="0.00 0.00 575.75 41.50" xmlns="http://www.w3.org/2000/svg" xmlns:xlink="http://www.w3.org/1999/xlink">
<g id="graph0" class="graph" transform="scale(1 1) rotate(0) translate(4 37.5)">
<title>nixoncpp::utils::UtilsFactory::createAssetManager</title>
<!-- Node1 -->
<g id="Node000001" class="node">
<title>Node1</title>
<g id="a_Node000001"><a xlink:title=" ">
<polygon fill="#999999" stroke="#666666" points="150.25,-33.5 0,-33.5 0,0 150.25,0 150.25,-33.5"/>
<text text-anchor="start" x="8" y="-20" font-family="Helvetica,sans-Serif" font-size="10.00">nixoncpp::utils::UtilsFactory</text>
<text text-anchor="middle" x="75.12" y="-7.25" font-family="Helvetica,sans-Serif" font-size="10.00">::createAssetManager</text>
</a>
</g>
</g>
<!-- Node2 -->
<g id="Node000002" class="node">
<title>Node2</title>
<g id="a_Node000002"><a xlink:href="classnixoncpp_1_1assets_1_1AssetManagerFactory.html#a534dac197c8ab46bca337cbc7162371b" target="_top" xlink:title="Create a Default object.">
<polygon fill="white" stroke="#666666" points="359,-33.5 186.25,-33.5 186.25,0 359,0 359,-33.5"/>
<text text-anchor="start" x="194.25" y="-20" font-family="Helvetica,sans-Serif" font-size="10.00">nixoncpp::assets::AssetManager</text>
<text text-anchor="middle" x="272.62" y="-7.25" font-family="Helvetica,sans-Serif" font-size="10.00">Factory::createDefault</text>
</a>
</g>
</g>
<!-- Node1&#45;&gt;Node2 -->
<g id="edge1_Node000001_Node000002" class="edge">
<title>Node1&#45;&gt;Node2</title>
<g id="a_edge1_Node000001_Node000002"><a xlink:title=" ">
<path fill="none" stroke="#63b8ff" d="M150.59,-16.75C158.44,-16.75 166.5,-16.75 174.55,-16.75"/>
<polygon fill="#63b8ff" stroke="#63b8ff" points="174.4,-20.25 184.4,-16.75 174.4,-13.25 174.4,-20.25"/>
</a>
</g>
</g>
<!-- Node3 -->
<g id="Node000003" class="node">
<title>Node3</title>
<g id="a_Node000003"><a xlink:href="classnixoncpp_1_1assets_1_1AssetManager.html#a9778c797417b17b62b8f1135ca613cd3" target="_top" xlink:title="Create a new Asset Manager instance.">
<polygon fill="white" stroke="#666666" points="567.75,-33.5 395,-33.5 395,0 567.75,0 567.75,-33.5"/>
<text text-anchor="start" x="403" y="-20" font-family="Helvetica,sans-Serif" font-size="10.00">nixoncpp::assets::AssetManager</text>
<text text-anchor="middle" x="481.38" y="-7.25" font-family="Helvetica,sans-Serif" font-size="10.00">::create</text>
</a>
</g>
</g>
<!-- Node2&#45;&gt;Node3 -->
<g id="edge2_Node000002_Node000003" class="edge">
<title>Node2&#45;&gt;Node3</title>
<g id="a_edge2_Node000002_Node000003"><a xlink:title=" ">
<path fill="none" stroke="#63b8ff" d="M359.21,-16.75C367.14,-16.75 375.21,-16.75 383.23,-16.75"/>
<polygon fill="#63b8ff" stroke="#63b8ff" points="383.01,-20.25 393.01,-16.75 383.01,-13.25 383.01,-20.25"/>
</a>
</g>
</g>
</g>
</svg>
