<?xml version="1.0" encoding="UTF-8" standalone="no"?>
<!DOCTYPE svg PUBLIC "-//W3C//DTD SVG 1.1//EN"
 "http://www.w3.org/Graphics/SVG/1.1/DTD/svg11.dtd">
<!-- Generated by graphviz version 12.2.1 (0)
 -->
<!-- Title: nixoncpp::utils::StringFormatter::StringFormatter Pages: 1 -->
<svg width="382pt" height="198pt"
 viewBox="0.00 0.00 382.00 197.50" xmlns="http://www.w3.org/2000/svg" xmlns:xlink="http://www.w3.org/1999/xlink">

<svg id="main" version="1.1" xmlns="http://www.w3.org/2000/svg" xmlns:xlink="http://www.w3.org/1999/xlink" xml:space="preserve">

<style type="text/css"><![CDATA[
.node, .edge {opacity: 0.7;}
.node.selected, .edge.selected {opacity: 1;}
.edge:hover path { stroke: red; }
.edge:hover polygon { stroke: red; fill: red; }
]]></style>
<script type="application/ecmascript" xlink:href="svg.min.js"/>
<svg id="graph" class="graph">
<g id="graph0" class="graph" transform="scale(1 1) rotate(0) translate(4 193.5)">
<title>nixoncpp::utils::StringFormatter::StringFormatter</title>
<!-- Node1 -->
<g id="Node000001" class="node">
<title>Node1</title>
<g id="a_Node000001"><a xlink:title=" ">
<polygon fill="#999999" stroke="#666666" points="374,-111.5 205,-111.5 205,-78 374,-78 374,-111.5"/>
<text text-anchor="start" x="213" y="-98" font-family="Helvetica,sans-Serif" font-size="10.00">nixoncpp::utils::StringFormatter</text>
<text text-anchor="middle" x="289.5" y="-85.25" font-family="Helvetica,sans-Serif" font-size="10.00">::StringFormatter</text>
</a>
</g>
</g>
<!-- Node2 -->
<g id="Node000002" class="node">
<title>Node2</title>
<g id="a_Node000002"><a xlink:href="classnixoncpp_1_1utils_1_1StringFormatter.html#a7b63364e30bfb02f8d654eb8f8bcb3d2" target="_top" xlink:title=" ">
<polygon fill="white" stroke="#666666" points="169,-189.5 0,-189.5 0,-156 169,-156 169,-189.5"/>
<text text-anchor="start" x="8" y="-176" font-family="Helvetica,sans-Serif" font-size="10.00">nixoncpp::utils::StringFormatter</text>
<text text-anchor="middle" x="84.5" y="-163.25" font-family="Helvetica,sans-Serif" font-size="10.00">::operator=</text>
</a>
</g>
</g>
<!-- Node1&#45;&gt;Node2 -->
<g id="edge1_Node000001_Node000002" class="edge">
<title>Node1&#45;&gt;Node2</title>
<g id="a_edge1_Node000001_Node000002"><a xlink:title=" ">
<path fill="none" stroke="#63b8ff" d="M241.47,-116.62C219.65,-126.4 193.24,-137.73 169,-146.75 160.89,-149.77 152.25,-152.73 143.72,-155.51"/>
<polygon fill="#63b8ff" stroke="#63b8ff" points="242.73,-119.89 250.4,-112.58 239.85,-113.51 242.73,-119.89"/>
</a>
</g>
</g>
<!-- Node3 -->
<g id="Node000003" class="node">
<title>Node3</title>
<g id="a_Node000003"><a xlink:href="classnixoncpp_1_1utils_1_1StringFormatter.html#aa8ad2e310b7916079612ced7d756a286" target="_top" xlink:title=" ">
<polygon fill="white" stroke="#666666" points="169,-137.5 0,-137.5 0,-104 169,-104 169,-137.5"/>
<text text-anchor="start" x="8" y="-124" font-family="Helvetica,sans-Serif" font-size="10.00">nixoncpp::utils::StringFormatter</text>
<text text-anchor="middle" x="84.5" y="-111.25" font-family="Helvetica,sans-Serif" font-size="10.00">::operator=</text>
</a>
</g>
</g>
<!-- Node1&#45;&gt;Node3 -->
<g id="edge2_Node000001_Node000003" class="edge">
<title>Node1&#45;&gt;Node3</title>
<g id="a_edge2_Node000001_Node000003"><a xlink:title=" ">
<path fill="none" stroke="#63b8ff" d="M193.45,-106.92C185.41,-107.95 177.32,-108.99 169.38,-110.01"/>
<polygon fill="#63b8ff" stroke="#63b8ff" points="193.78,-110.41 203.26,-105.67 192.9,-103.47 193.78,-110.41"/>
</a>
</g>
</g>
<!-- Node4 -->
<g id="Node000004" class="node">
<title>Node4</title>
<g id="a_Node000004"><a xlink:href="classnixoncpp_1_1utils_1_1StringFormatter.html#a7857dad449456b7f97cd782afaa06d2e" target="_top" xlink:title=" ">
<polygon fill="white" stroke="#666666" points="169,-85.5 0,-85.5 0,-52 169,-52 169,-85.5"/>
<text text-anchor="start" x="8" y="-72" font-family="Helvetica,sans-Serif" font-size="10.00">nixoncpp::utils::StringFormatter</text>
<text text-anchor="middle" x="84.5" y="-59.25" font-family="Helvetica,sans-Serif" font-size="10.00">::StringFormatter</text>
</a>
</g>
</g>
<!-- Node1&#45;&gt;Node4 -->
<g id="edge3_Node000001_Node000004" class="edge">
<title>Node1&#45;&gt;Node4</title>
<g id="a_edge3_Node000001_Node000004"><a xlink:title=" ">
<path fill="none" stroke="#63b8ff" d="M193.45,-82.58C185.41,-81.55 177.32,-80.51 169.38,-79.49"/>
<polygon fill="#63b8ff" stroke="#63b8ff" points="192.9,-86.03 203.26,-83.83 193.78,-79.09 192.9,-86.03"/>
</a>
</g>
</g>
<!-- Node5 -->
<g id="Node000005" class="node">
<title>Node5</title>
<g id="a_Node000005"><a xlink:href="classnixoncpp_1_1utils_1_1StringFormatter.html#add8a7125d34c98f68a792c6a3f34f6d9" target="_top" xlink:title=" ">
<polygon fill="white" stroke="#666666" points="169,-33.5 0,-33.5 0,0 169,0 169,-33.5"/>
<text text-anchor="start" x="8" y="-20" font-family="Helvetica,sans-Serif" font-size="10.00">nixoncpp::utils::StringFormatter</text>
<text text-anchor="middle" x="84.5" y="-7.25" font-family="Helvetica,sans-Serif" font-size="10.00">::StringFormatter</text>
</a>
</g>
</g>
<!-- Node1&#45;&gt;Node5 -->
<g id="edge4_Node000001_Node000005" class="edge">
<title>Node1&#45;&gt;Node5</title>
<g id="a_edge4_Node000001_Node000005"><a xlink:title=" ">
<path fill="none" stroke="#63b8ff" d="M241.47,-72.88C219.65,-63.1 193.24,-51.77 169,-42.75 160.89,-39.73 152.25,-36.77 143.72,-33.99"/>
<polygon fill="#63b8ff" stroke="#63b8ff" points="239.85,-75.99 250.4,-76.92 242.73,-69.61 239.85,-75.99"/>
</a>
</g>
</g>
</g>
</svg>
</svg>

<style type='text/css'>
<![CDATA[
[data-mouse-over-selected='false'] { opacity: 0.7; }
[data-mouse-over-selected='true']  { opacity: 1.0; }
]]>
</style>
<script type="application/ecmascript"><![CDATA[
document.addEventListener('DOMContentLoaded', (event) => {
  highlightEdges();
  highlightAdjacentNodes();
});
]]></script>
</svg>
