<?xml version="1.0" encoding="UTF-8" standalone="no"?>
<!DOCTYPE svg PUBLIC "-//W3C//DTD SVG 1.1//EN"
 "http://www.w3.org/Graphics/SVG/1.1/DTD/svg11.dtd">
<!-- Generated by graphviz version 12.2.1 (0)
 -->
<!-- Title: ConsoleLogger::levelToString Pages: 1 -->
<svg width="566pt" height="185pt"
 viewBox="0.00 0.00 566.25 184.75" xmlns="http://www.w3.org/2000/svg" xmlns:xlink="http://www.w3.org/1999/xlink">
<g id="graph0" class="graph" transform="scale(1 1) rotate(0) translate(4 180.75)">
<title>ConsoleLogger::levelToString</title>
<!-- Node1 -->
<g id="Node000001" class="node">
<title>Node1</title>
<g id="a_Node000001"><a xlink:title="Convert a logging level to its string representation.">
<polygon fill="#999999" stroke="#666666" points="558.25,-78.75 401.25,-78.75 401.25,-58 558.25,-58 558.25,-78.75"/>
<text text-anchor="middle" x="479.75" y="-65.25" font-family="Helvetica,sans-Serif" font-size="10.00">ConsoleLogger::levelToString</text>
</a>
</g>
</g>
<!-- Node2 -->
<g id="Node000002" class="node">
<title>Node2</title>
<g id="a_Node000002"><a xlink:href="classConsoleLogger.html#a31696856245b018e9645c614683ba037" target="_top" xlink:title="Logs a message with a specified level to the console and optionally to a file.">
<polygon fill="white" stroke="#666666" points="365.25,-98.75 256.25,-98.75 256.25,-78 365.25,-78 365.25,-98.75"/>
<text text-anchor="middle" x="310.75" y="-85.25" font-family="Helvetica,sans-Serif" font-size="10.00">ConsoleLogger::log</text>
</a>
</g>
</g>
<!-- Node1&#45;&gt;Node2 -->
<g id="edge1_Node000001_Node000002" class="edge">
<title>Node1&#45;&gt;Node2</title>
<g id="a_edge1_Node000001_Node000002"><a xlink:title=" ">
<path fill="none" stroke="#63b8ff" d="M389.76,-79.03C381.44,-80.03 373.2,-81.02 365.36,-81.95"/>
<polygon fill="#63b8ff" stroke="#63b8ff" points="390.1,-82.52 399.61,-77.85 389.27,-75.57 390.1,-82.52"/>
</a>
</g>
</g>
<!-- Node9 -->
<g id="Node000009" class="node">
<title>Node9</title>
<g id="a_Node000009"><a xlink:href="ConsoleLoggerTest_8cpp.html#a8e9d84d3a553e26e5f81b69d7ca9cecd" target="_top" xlink:title=" ">
<polygon fill="white" stroke="#666666" points="336.38,-59.75 285.12,-59.75 285.12,-39 336.38,-39 336.38,-59.75"/>
<text text-anchor="middle" x="310.75" y="-46.25" font-family="Helvetica,sans-Serif" font-size="10.00">TEST_F</text>
</a>
</g>
</g>
<!-- Node1&#45;&gt;Node9 -->
<g id="edge8_Node000001_Node000009" class="edge">
<title>Node1&#45;&gt;Node9</title>
<g id="a_edge8_Node000001_Node000009"><a xlink:title=" ">
<path fill="none" stroke="#63b8ff" d="M389.89,-58.26C370.28,-56.03 351.07,-53.85 336.6,-52.2"/>
<polygon fill="#63b8ff" stroke="#63b8ff" points="389.28,-61.72 399.61,-59.37 390.07,-54.76 389.28,-61.72"/>
</a>
</g>
</g>
<!-- Node3 -->
<g id="Node000003" class="node">
<title>Node3</title>
<g id="a_Node000003"><a xlink:href="classConsoleLogger.html#adfe7ec1d32cf22b8280363401bc2f331" target="_top" xlink:title="Log a critical message.">
<polygon fill="white" stroke="#666666" points="217.25,-176.75 90.25,-176.75 90.25,-156 217.25,-156 217.25,-176.75"/>
<text text-anchor="middle" x="153.75" y="-163.25" font-family="Helvetica,sans-Serif" font-size="10.00">ConsoleLogger::critical</text>
</a>
</g>
</g>
<!-- Node2&#45;&gt;Node3 -->
<g id="edge2_Node000002_Node000003" class="edge">
<title>Node2&#45;&gt;Node3</title>
<g id="a_edge2_Node000002_Node000003"><a xlink:title=" ">
<path fill="none" stroke="#63b8ff" d="M287.02,-105.65C269.52,-118.31 244.33,-135.17 220.25,-146.38 212.7,-149.89 204.39,-152.97 196.29,-155.61"/>
<polygon fill="#63b8ff" stroke="#63b8ff" points="288.7,-108.76 294.68,-100.01 284.55,-103.13 288.7,-108.76"/>
</a>
</g>
</g>
<!-- Node4 -->
<g id="Node000004" class="node">
<title>Node4</title>
<g id="a_Node000004"><a xlink:href="classConsoleLogger.html#a872f1edb1c3f27151aea7893257e84f9" target="_top" xlink:title="Log a debug message.">
<polygon fill="white" stroke="#666666" points="215.75,-137.75 91.75,-137.75 91.75,-117 215.75,-117 215.75,-137.75"/>
<text text-anchor="middle" x="153.75" y="-124.25" font-family="Helvetica,sans-Serif" font-size="10.00">ConsoleLogger::debug</text>
</a>
</g>
</g>
<!-- Node2&#45;&gt;Node4 -->
<g id="edge3_Node000002_Node000004" class="edge">
<title>Node2&#45;&gt;Node4</title>
<g id="a_edge3_Node000002_Node000004"><a xlink:title=" ">
<path fill="none" stroke="#63b8ff" d="M255.46,-102.04C236.63,-106.77 215.78,-112.02 197.96,-116.5"/>
<polygon fill="#63b8ff" stroke="#63b8ff" points="256.26,-105.44 265.11,-99.61 254.55,-98.65 256.26,-105.44"/>
</a>
</g>
</g>
<!-- Node5 -->
<g id="Node000005" class="node">
<title>Node5</title>
<g id="a_Node000005"><a xlink:href="classConsoleLogger.html#a8973d67f0a94cf2af0c5c5df4f303ffe" target="_top" xlink:title="Log an error message.">
<polygon fill="white" stroke="#666666" points="212.38,-98.75 95.12,-98.75 95.12,-78 212.38,-78 212.38,-98.75"/>
<text text-anchor="middle" x="153.75" y="-85.25" font-family="Helvetica,sans-Serif" font-size="10.00">ConsoleLogger::error</text>
</a>
</g>
</g>
<!-- Node2&#45;&gt;Node5 -->
<g id="edge4_Node000002_Node000005" class="edge">
<title>Node2&#45;&gt;Node5</title>
<g id="a_edge4_Node000002_Node000005"><a xlink:title=" ">
<path fill="none" stroke="#63b8ff" d="M244.62,-88.38C234.01,-88.38 223.08,-88.38 212.66,-88.38"/>
<polygon fill="#63b8ff" stroke="#63b8ff" points="244.46,-91.88 254.46,-88.38 244.46,-84.88 244.46,-91.88"/>
</a>
</g>
</g>
<!-- Node6 -->
<g id="Node000006" class="node">
<title>Node6</title>
<g id="a_Node000006"><a xlink:href="classConsoleLogger.html#ab610c1dfc5564e00841dfeae547f836f" target="_top" xlink:title="Log an info message.">
<polygon fill="white" stroke="#666666" points="210.12,-59.75 97.38,-59.75 97.38,-39 210.12,-39 210.12,-59.75"/>
<text text-anchor="middle" x="153.75" y="-46.25" font-family="Helvetica,sans-Serif" font-size="10.00">ConsoleLogger::info</text>
</a>
</g>
</g>
<!-- Node2&#45;&gt;Node6 -->
<g id="edge5_Node000002_Node000006" class="edge">
<title>Node2&#45;&gt;Node6</title>
<g id="a_edge5_Node000002_Node000006"><a xlink:title=" ">
<path fill="none" stroke="#63b8ff" d="M255.46,-74.71C236.63,-69.98 215.78,-64.73 197.96,-60.25"/>
<polygon fill="#63b8ff" stroke="#63b8ff" points="254.55,-78.1 265.11,-77.14 256.26,-71.31 254.55,-78.1"/>
</a>
</g>
</g>
<!-- Node8 -->
<g id="Node000008" class="node">
<title>Node8</title>
<g id="a_Node000008"><a xlink:href="classConsoleLogger.html#a7c16af28ba75ff33649181778e73c070" target="_top" xlink:title="Log a warning message.">
<polygon fill="white" stroke="#666666" points="220.25,-20.75 87.25,-20.75 87.25,0 220.25,0 220.25,-20.75"/>
<text text-anchor="middle" x="153.75" y="-7.25" font-family="Helvetica,sans-Serif" font-size="10.00">ConsoleLogger::warning</text>
</a>
</g>
</g>
<!-- Node2&#45;&gt;Node8 -->
<g id="edge7_Node000002_Node000008" class="edge">
<title>Node2&#45;&gt;Node8</title>
<g id="a_edge7_Node000002_Node000008"><a xlink:title=" ">
<path fill="none" stroke="#63b8ff" d="M263.66,-72.75C261.09,-71.39 258.6,-69.93 256.25,-68.38 236.86,-55.53 240.03,-42.62 220.25,-30.38 214.39,-26.74 207.82,-23.73 201.16,-21.25"/>
<polygon fill="#63b8ff" stroke="#63b8ff" points="261.91,-75.8 272.45,-76.89 264.89,-69.46 261.91,-75.8"/>
</a>
</g>
</g>
<!-- Node7 -->
<g id="Node000007" class="node">
<title>Node7</title>
<g id="a_Node000007"><a xlink:href="ConsoleLoggerTest_8cpp.html#ab35834df4087e6a0d58b5dbefb02da96" target="_top" xlink:title=" ">
<polygon fill="white" stroke="#666666" points="51.25,-59.75 0,-59.75 0,-39 51.25,-39 51.25,-59.75"/>
<text text-anchor="middle" x="25.62" y="-46.25" font-family="Helvetica,sans-Serif" font-size="10.00">TEST_F</text>
</a>
</g>
</g>
<!-- Node6&#45;&gt;Node7 -->
<g id="edge6_Node000006_Node000007" class="edge">
<title>Node6&#45;&gt;Node7</title>
<g id="a_edge6_Node000006_Node000007"><a xlink:title=" ">
<path fill="none" stroke="#63b8ff" d="M85.88,-49.38C73.7,-49.38 61.7,-49.38 51.73,-49.38"/>
<polygon fill="#63b8ff" stroke="#63b8ff" points="85.55,-52.88 95.55,-49.38 85.55,-45.88 85.55,-52.88"/>
</a>
</g>
</g>
</g>
</svg>
