<?xml version="1.0" encoding="UTF-8" standalone="no"?>
<!DOCTYPE svg PUBLIC "-//W3C//DTD SVG 1.1//EN"
 "http://www.w3.org/Graphics/SVG/1.1/DTD/svg11.dtd">
<!-- Generated by graphviz version 12.2.1 (0)
 -->
<!-- Title: nixoncpp::utils::EmscriptenPlatformInfo::EmscriptenPlatformInfo Pages: 1 -->
<svg width="441pt" height="198pt"
 viewBox="0.00 0.00 440.50 197.50" xmlns="http://www.w3.org/2000/svg" xmlns:xlink="http://www.w3.org/1999/xlink">

<svg id="main" version="1.1" xmlns="http://www.w3.org/2000/svg" xmlns:xlink="http://www.w3.org/1999/xlink" xml:space="preserve">

<style type="text/css"><![CDATA[
.node, .edge {opacity: 0.7;}
.node.selected, .edge.selected {opacity: 1;}
.edge:hover path { stroke: red; }
.edge:hover polygon { stroke: red; fill: red; }
]]></style>
<script type="application/ecmascript" xlink:href="svg.min.js"/>
<svg id="graph" class="graph">
<g id="graph0" class="graph" transform="scale(1 1) rotate(0) translate(4 193.5)">
<title>nixoncpp::utils::EmscriptenPlatformInfo::EmscriptenPlatformInfo</title>
<!-- Node1 -->
<g id="Node000001" class="node">
<title>Node1</title>
<g id="a_Node000001"><a xlink:title=" ">
<polygon fill="#999999" stroke="#666666" points="432.5,-111.5 234.25,-111.5 234.25,-78 432.5,-78 432.5,-111.5"/>
<text text-anchor="start" x="242.25" y="-98" font-family="Helvetica,sans-Serif" font-size="10.00">nixoncpp::utils::Emscripten</text>
<text text-anchor="middle" x="333.38" y="-85.25" font-family="Helvetica,sans-Serif" font-size="10.00">PlatformInfo::EmscriptenPlatformInfo</text>
</a>
</g>
</g>
<!-- Node2 -->
<g id="Node000002" class="node">
<title>Node2</title>
<g id="a_Node000002"><a xlink:href="classnixoncpp_1_1utils_1_1EmscriptenPlatformInfo.html#adb135c41d274419fb611de6877983b97" target="_top" xlink:title=" ">
<polygon fill="white" stroke="#666666" points="198.25,-189.5 0,-189.5 0,-156 198.25,-156 198.25,-189.5"/>
<text text-anchor="start" x="8" y="-176" font-family="Helvetica,sans-Serif" font-size="10.00">nixoncpp::utils::Emscripten</text>
<text text-anchor="middle" x="99.12" y="-163.25" font-family="Helvetica,sans-Serif" font-size="10.00">PlatformInfo::EmscriptenPlatformInfo</text>
</a>
</g>
</g>
<!-- Node1&#45;&gt;Node2 -->
<g id="edge1_Node000001_Node000002" class="edge">
<title>Node1&#45;&gt;Node2</title>
<g id="a_edge1_Node000001_Node000002"><a xlink:title=" ">
<path fill="none" stroke="#63b8ff" d="M280.81,-116.28C256.07,-126.22 225.87,-137.77 198.25,-146.75 188.86,-149.8 178.89,-152.76 169.03,-155.53"/>
<polygon fill="#63b8ff" stroke="#63b8ff" points="282.05,-119.56 290.01,-112.56 279.43,-113.07 282.05,-119.56"/>
</a>
</g>
</g>
<!-- Node3 -->
<g id="Node000003" class="node">
<title>Node3</title>
<g id="a_Node000003"><a xlink:href="classnixoncpp_1_1utils_1_1EmscriptenPlatformInfo.html#a0aab7eb9a45cfcf7ec9cfa60dfee79cb" target="_top" xlink:title=" ">
<polygon fill="white" stroke="#666666" points="198.25,-137.5 0,-137.5 0,-104 198.25,-104 198.25,-137.5"/>
<text text-anchor="start" x="8" y="-124" font-family="Helvetica,sans-Serif" font-size="10.00">nixoncpp::utils::Emscripten</text>
<text text-anchor="middle" x="99.12" y="-111.25" font-family="Helvetica,sans-Serif" font-size="10.00">PlatformInfo::EmscriptenPlatformInfo</text>
</a>
</g>
</g>
<!-- Node1&#45;&gt;Node3 -->
<g id="edge2_Node000001_Node000003" class="edge">
<title>Node1&#45;&gt;Node3</title>
<g id="a_edge2_Node000001_Node000003"><a xlink:title=" ">
<path fill="none" stroke="#63b8ff" d="M222.53,-107.05C214.48,-107.95 206.38,-108.85 198.4,-109.75"/>
<polygon fill="#63b8ff" stroke="#63b8ff" points="222.83,-110.54 232.38,-105.94 222.05,-103.58 222.83,-110.54"/>
</a>
</g>
</g>
<!-- Node4 -->
<g id="Node000004" class="node">
<title>Node4</title>
<g id="a_Node000004"><a xlink:href="classnixoncpp_1_1utils_1_1EmscriptenPlatformInfo.html#aaa729b4c1765a664c6ac3b51fe982b13" target="_top" xlink:title=" ">
<polygon fill="white" stroke="#666666" points="172.75,-85.5 25.5,-85.5 25.5,-52 172.75,-52 172.75,-85.5"/>
<text text-anchor="start" x="33.5" y="-72" font-family="Helvetica,sans-Serif" font-size="10.00">nixoncpp::utils::Emscripten</text>
<text text-anchor="middle" x="99.12" y="-59.25" font-family="Helvetica,sans-Serif" font-size="10.00">PlatformInfo::operator=</text>
</a>
</g>
</g>
<!-- Node1&#45;&gt;Node4 -->
<g id="edge3_Node000001_Node000004" class="edge">
<title>Node1&#45;&gt;Node4</title>
<g id="a_edge3_Node000001_Node000004"><a xlink:title=" ">
<path fill="none" stroke="#63b8ff" d="M222.83,-82.49C205.94,-80.6 188.87,-78.69 173.05,-76.91"/>
<polygon fill="#63b8ff" stroke="#63b8ff" points="222.05,-85.92 232.38,-83.56 222.83,-78.96 222.05,-85.92"/>
</a>
</g>
</g>
<!-- Node5 -->
<g id="Node000005" class="node">
<title>Node5</title>
<g id="a_Node000005"><a xlink:href="classnixoncpp_1_1utils_1_1EmscriptenPlatformInfo.html#a9a956f91d4f33c2bd718ba9937ac5d1a" target="_top" xlink:title=" ">
<polygon fill="white" stroke="#666666" points="172.75,-33.5 25.5,-33.5 25.5,0 172.75,0 172.75,-33.5"/>
<text text-anchor="start" x="33.5" y="-20" font-family="Helvetica,sans-Serif" font-size="10.00">nixoncpp::utils::Emscripten</text>
<text text-anchor="middle" x="99.12" y="-7.25" font-family="Helvetica,sans-Serif" font-size="10.00">PlatformInfo::operator=</text>
</a>
</g>
</g>
<!-- Node1&#45;&gt;Node5 -->
<g id="edge4_Node000001_Node000005" class="edge">
<title>Node1&#45;&gt;Node5</title>
<g id="a_edge4_Node000001_Node000005"><a xlink:title=" ">
<path fill="none" stroke="#63b8ff" d="M280.81,-73.22C256.07,-63.28 225.87,-51.73 198.25,-42.75 188.86,-39.7 178.89,-36.74 169.03,-33.97"/>
<polygon fill="#63b8ff" stroke="#63b8ff" points="279.43,-76.43 290.01,-76.94 282.05,-69.94 279.43,-76.43"/>
</a>
</g>
</g>
</g>
</svg>
</svg>

<style type='text/css'>
<![CDATA[
[data-mouse-over-selected='false'] { opacity: 0.7; }
[data-mouse-over-selected='true']  { opacity: 1.0; }
]]>
</style>
<script type="application/ecmascript"><![CDATA[
document.addEventListener('DOMContentLoaded', (event) => {
  highlightEdges();
  highlightAdjacentNodes();
});
]]></script>
</svg>
