<?xml version="1.0" encoding="UTF-8" standalone="no"?>
<!DOCTYPE svg PUBLIC "-//W3C//DTD SVG 1.1//EN"
 "http://www.w3.org/Graphics/SVG/1.1/DTD/svg11.dtd">
<!-- Generated by graphviz version 12.2.1 (0)
 -->
<!-- Title: nixoncpp::utils::UtilsFactory::createBasicContext Pages: 1 -->
<!--zoomable 404 -->

<svg id="main" version="1.1" xmlns="http://www.w3.org/2000/svg" xmlns:xlink="http://www.w3.org/1999/xlink" xml:space="preserve" onload="init(evt)">

<style type="text/css"><![CDATA[
.node, .edge {opacity: 0.7;}
.node.selected, .edge.selected {opacity: 1;}
.edge:hover path { stroke: red; }
.edge:hover polygon { stroke: red; fill: red; }
]]></style>

<defs>
  <circle id="rim" cx="0" cy="0" r="7"/>
  <circle id="rim2" cx="0" cy="0" r="3.5"/>
  <g id="zoomPlus">
    <use xlink:href="#rim" fill="#404040"><set attributeName="fill" to="#808080" begin="zoomplus.mouseover" end="zoomplus.mouseout"/></use>
    <path d="M-4,0h8M0,-4v8" fill="none" stroke="white" stroke-width="1.5" pointer-events="none"/>
  </g>
  <g id="zoomMin">
    <use xlink:href="#rim" fill="#404040"><set attributeName="fill" to="#808080" begin="zoomminus.mouseover" end="zoomminus.mouseout"/></use>
    <path d="M-4,0h8" fill="none" stroke="white" stroke-width="1.5" pointer-events="none"/>
  </g>
  <g id="arrowUp" transform="translate(30 24)">
    <use xlink:href="#rim"/>
    <path pointer-events="none" fill="none" stroke="white" stroke-width="1.5" d="M0,-3.0v7 M-2.5,-0.5L0,-3.0L2.5,-0.5"/>
  </g>
  <g id="arrowRight" transform="rotate(90) translate(36 -43)">
    <use xlink:href="#rim"/>
    <path pointer-events="none" fill="none" stroke="white" stroke-width="1.5" d="M0,-3.0v7 M-2.5,-0.5L0,-3.0L2.5,-0.5"/>
  </g>
  <g id="arrowDown" transform="rotate(180) translate(-30 -48)">
    <use xlink:href="#rim"/>
    <path pointer-events="none" fill="none" stroke="white" stroke-width="1.5" d="M0,-3.0v7 M-2.5,-0.5L0,-3.0L2.5,-0.5"/>
  </g>
  <g id="arrowLeft" transform="rotate(270) translate(-36 17)">
    <use xlink:href="#rim"/>
    <path pointer-events="none" fill="none" stroke="white" stroke-width="1.5" d="M0,-3.0v7 M-2.5,-0.5L0,-3.0L2.5,-0.5"/>
  </g>
  <g id="resetDef">
    <use xlink:href="#rim2" fill="#404040"><set attributeName="fill" to="#808080" begin="reset.mouseover" end="reset.mouseout"/></use>
  </g>
</defs>
<script type="application/ecmascript">
var viewWidth = 931;
var viewHeight = 404;
var sectionId = 'dynsection-3';
</script>
<script type="application/ecmascript" xlink:href="svg.min.js"/>
<svg id="graph" class="graph">
<g id="viewport">
<title>nixoncpp::utils::UtilsFactory::createBasicContext</title>
<!-- Node1 -->
<g id="Node000001" class="node">
<title>Node1</title>
<g id="a_Node000001"><a xlink:title="Create basic utilities context with default logger.">
<polygon fill="#999999" stroke="#666666" points="150.25,-204.5 0,-204.5 0,-171 150.25,-171 150.25,-204.5"/>
<text text-anchor="start" x="8" y="-191" font-family="Helvetica,sans-Serif" font-size="10.00">nixoncpp::utils::UtilsFactory</text>
<text text-anchor="middle" x="75.12" y="-178.25" font-family="Helvetica,sans-Serif" font-size="10.00">::createBasicContext</text>
</a>
</g>
</g>
<!-- Node2 -->
<g id="Node000002" class="node">
<title>Node2</title>
<g id="a_Node000002"><a xlink:href="classnixoncpp_1_1utils_1_1UtilsFactory.html#a701a98b9e13fac471f5b9a35dfa1058e" target="_top" xlink:title=" ">
<polygon fill="white" stroke="#666666" points="336.5,-369.5 186.25,-369.5 186.25,-336 336.5,-336 336.5,-369.5"/>
<text text-anchor="start" x="194.25" y="-356" font-family="Helvetica,sans-Serif" font-size="10.00">nixoncpp::utils::UtilsFactory</text>
<text text-anchor="middle" x="261.38" y="-343.25" font-family="Helvetica,sans-Serif" font-size="10.00">::createDefaultLogger</text>
</a>
</g>
</g>
<!-- Node1&#45;&gt;Node2 -->
<g id="edge1_Node000001_Node000002" class="edge">
<title>Node1&#45;&gt;Node2</title>
<g id="a_edge1_Node000001_Node000002"><a xlink:title=" ">
<path fill="none" stroke="#63b8ff" d="M85.33,-204.85C101.82,-233.94 139.11,-293.16 186.25,-326.75 188,-328 189.81,-329.19 191.68,-330.33"/>
<polygon fill="#63b8ff" stroke="#63b8ff" points="189.57,-333.16 200.03,-334.86 192.92,-327.01 189.57,-333.16"/>
</a>
</g>
</g>
<!-- Node7 -->
<g id="Node000007" class="node">
<title>Node7</title>
<g id="a_Node000007"><a xlink:href="classnixoncpp_1_1utils_1_1UtilsFactory.html#ad6f07ec37707abf581796c46ee56211d" target="_top" xlink:title=" ">
<polygon fill="white" stroke="#666666" points="336.5,-317.5 186.25,-317.5 186.25,-284 336.5,-284 336.5,-317.5"/>
<text text-anchor="start" x="194.25" y="-304" font-family="Helvetica,sans-Serif" font-size="10.00">nixoncpp::utils::UtilsFactory</text>
<text text-anchor="middle" x="261.38" y="-291.25" font-family="Helvetica,sans-Serif" font-size="10.00">::createDirectoryManager</text>
</a>
</g>
</g>
<!-- Node1&#45;&gt;Node7 -->
<g id="edge6_Node000001_Node000007" class="edge">
<title>Node1&#45;&gt;Node7</title>
<g id="a_edge6_Node000001_Node000007"><a xlink:title=" ">
<path fill="none" stroke="#63b8ff" d="M95.8,-204.73C117.08,-222.53 152.49,-250.51 186.25,-269.75 191.92,-272.98 197.99,-276.07 204.12,-278.95"/>
<polygon fill="#63b8ff" stroke="#63b8ff" points="202.52,-282.07 213.08,-282.98 205.4,-275.68 202.52,-282.07"/>
</a>
</g>
</g>
<!-- Node8 -->
<g id="Node000008" class="node">
<title>Node8</title>
<g id="a_Node000008"><a xlink:href="classnixoncpp_1_1utils_1_1UtilsFactory.html#a898645cce10d377a7586d12c3fdb6e93" target="_top" xlink:title=" ">
<polygon fill="white" stroke="#666666" points="547.12,-253.5 396.88,-253.5 396.88,-220 547.12,-220 547.12,-253.5"/>
<text text-anchor="start" x="404.88" y="-240" font-family="Helvetica,sans-Serif" font-size="10.00">nixoncpp::utils::UtilsFactory</text>
<text text-anchor="middle" x="472" y="-227.25" font-family="Helvetica,sans-Serif" font-size="10.00">::createFileReader</text>
</a>
</g>
</g>
<!-- Node1&#45;&gt;Node8 -->
<g id="edge7_Node000001_Node000008" class="edge">
<title>Node1&#45;&gt;Node8</title>
<g id="a_edge7_Node000001_Node000008"><a xlink:title=" ">
<path fill="none" stroke="#63b8ff" d="M105.36,-204.82C126.91,-216.38 157.39,-230.62 186.25,-236.75 252.1,-250.74 328.46,-249.85 385.52,-245.94"/>
<polygon fill="#63b8ff" stroke="#63b8ff" points="385.44,-249.46 395.16,-245.24 384.93,-242.48 385.44,-249.46"/>
</a>
</g>
</g>
<!-- Node9 -->
<g id="Node000009" class="node">
<title>Node9</title>
<g id="a_Node000009"><a xlink:href="classnixoncpp_1_1utils_1_1UtilsFactory.html#a1315826b061bc911c58a3bca701ef5f0" target="_top" xlink:title=" ">
<polygon fill="white" stroke="#666666" points="547.12,-191.5 396.88,-191.5 396.88,-158 547.12,-158 547.12,-191.5"/>
<text text-anchor="start" x="404.88" y="-178" font-family="Helvetica,sans-Serif" font-size="10.00">nixoncpp::utils::UtilsFactory</text>
<text text-anchor="middle" x="472" y="-165.25" font-family="Helvetica,sans-Serif" font-size="10.00">::createFileWriter</text>
</a>
</g>
</g>
<!-- Node1&#45;&gt;Node9 -->
<g id="edge8_Node000001_Node000009" class="edge">
<title>Node1&#45;&gt;Node9</title>
<g id="a_edge8_Node000001_Node000009"><a xlink:title=" ">
<path fill="none" stroke="#63b8ff" d="M150.4,-185.3C217.06,-183.11 314.91,-179.89 384.96,-177.58"/>
<polygon fill="#63b8ff" stroke="#63b8ff" points="385,-181.08 394.88,-177.26 384.77,-174.09 385,-181.08"/>
</a>
</g>
</g>
<!-- Node10 -->
<g id="Node000010" class="node">
<title>Node10</title>
<g id="a_Node000010"><a xlink:href="classnixoncpp_1_1utils_1_1UtilsFactory.html#ac89ae32784dcc62839c88a8e99c50f7c" target="_top" xlink:title=" ">
<polygon fill="white" stroke="#666666" points="336.5,-227.5 186.25,-227.5 186.25,-194 336.5,-194 336.5,-227.5"/>
<text text-anchor="start" x="194.25" y="-214" font-family="Helvetica,sans-Serif" font-size="10.00">nixoncpp::utils::UtilsFactory</text>
<text text-anchor="middle" x="261.38" y="-201.25" font-family="Helvetica,sans-Serif" font-size="10.00">::createJsonSerializer</text>
</a>
</g>
</g>
<!-- Node1&#45;&gt;Node10 -->
<g id="edge9_Node000001_Node000010" class="edge">
<title>Node1&#45;&gt;Node10</title>
<g id="a_edge9_Node000001_Node000010"><a xlink:title=" ">
<path fill="none" stroke="#63b8ff" d="M150.54,-197.04C158.48,-198.03 166.6,-199.04 174.66,-200.05"/>
<polygon fill="#63b8ff" stroke="#63b8ff" points="174.13,-203.51 184.48,-201.28 175,-196.56 174.13,-203.51"/>
</a>
</g>
</g>
<!-- Node11 -->
<g id="Node000011" class="node">
<title>Node11</title>
<g id="a_Node000011"><a xlink:href="classnixoncpp_1_1utils_1_1UtilsFactory.html#af57873fd9fa5b5a4b39925fc05966698" target="_top" xlink:title=" ">
<polygon fill="white" stroke="#666666" points="336.5,-137.5 186.25,-137.5 186.25,-104 336.5,-104 336.5,-137.5"/>
<text text-anchor="start" x="194.25" y="-124" font-family="Helvetica,sans-Serif" font-size="10.00">nixoncpp::utils::UtilsFactory</text>
<text text-anchor="middle" x="261.38" y="-111.25" font-family="Helvetica,sans-Serif" font-size="10.00">::createPathResolver</text>
</a>
</g>
</g>
<!-- Node1&#45;&gt;Node11 -->
<g id="edge12_Node000001_Node000011" class="edge">
<title>Node1&#45;&gt;Node11</title>
<g id="a_edge12_Node000001_Node000011"><a xlink:title=" ">
<path fill="none" stroke="#63b8ff" d="M123.1,-170.67C147.26,-161.88 176.93,-151.09 202.49,-141.8"/>
<polygon fill="#63b8ff" stroke="#63b8ff" points="203.55,-145.14 211.75,-138.43 201.15,-138.56 203.55,-145.14"/>
</a>
</g>
</g>
<!-- Node12 -->
<g id="Node000012" class="node">
<title>Node12</title>
<g id="a_Node000012"><a xlink:href="classnixoncpp_1_1utils_1_1UtilsFactory.html#af9d36cfe688b1460dec5453b5d5c0f3e" target="_top" xlink:title=" ">
<polygon fill="white" stroke="#666666" points="336.5,-85.5 186.25,-85.5 186.25,-52 336.5,-52 336.5,-85.5"/>
<text text-anchor="start" x="194.25" y="-72" font-family="Helvetica,sans-Serif" font-size="10.00">nixoncpp::utils::UtilsFactory</text>
<text text-anchor="middle" x="261.38" y="-59.25" font-family="Helvetica,sans-Serif" font-size="10.00">::createPlatformInfo</text>
</a>
</g>
</g>
<!-- Node1&#45;&gt;Node12 -->
<g id="edge13_Node000001_Node000012" class="edge">
<title>Node1&#45;&gt;Node12</title>
<g id="a_edge13_Node000001_Node000012"><a xlink:title=" ">
<path fill="none" stroke="#63b8ff" d="M92.2,-170.82C112.44,-150.35 149.1,-115.99 186.25,-94.75 188.74,-93.33 191.31,-91.97 193.95,-90.66"/>
<polygon fill="#63b8ff" stroke="#63b8ff" points="195.32,-93.88 202.97,-86.54 192.42,-87.51 195.32,-93.88"/>
</a>
</g>
</g>
<!-- Node14 -->
<g id="Node000014" class="node">
<title>Node14</title>
<g id="a_Node000014"><a xlink:href="classnixoncpp_1_1utils_1_1UtilsFactory.html#a99c58e956babbfc262186c1c0d3fd29e" target="_top" xlink:title=" ">
<polygon fill="white" stroke="#666666" points="336.5,-33.5 186.25,-33.5 186.25,0 336.5,0 336.5,-33.5"/>
<text text-anchor="start" x="194.25" y="-20" font-family="Helvetica,sans-Serif" font-size="10.00">nixoncpp::utils::UtilsFactory</text>
<text text-anchor="middle" x="261.38" y="-7.25" font-family="Helvetica,sans-Serif" font-size="10.00">::createStringFormatter</text>
</a>
</g>
</g>
<!-- Node1&#45;&gt;Node14 -->
<g id="edge15_Node000001_Node000014" class="edge">
<title>Node1&#45;&gt;Node14</title>
<g id="a_edge15_Node000001_Node000014"><a xlink:title=" ">
<path fill="none" stroke="#63b8ff" d="M84.63,-170.86C100.55,-140.85 137.69,-78.1 186.25,-42.75 187.8,-41.62 189.41,-40.53 191.06,-39.49"/>
<polygon fill="#63b8ff" stroke="#63b8ff" points="192.56,-42.66 199.59,-34.74 189.15,-36.55 192.56,-42.66"/>
</a>
</g>
</g>
<!-- Node3 -->
<g id="Node000003" class="node">
<title>Node3</title>
<g id="a_Node000003"><a xlink:href="classnixoncpp_1_1utils_1_1UtilsFactory.html#a25d60ab1ffddf4e84f9bfcf18d6cda5e" target="_top" xlink:title=" ">
<polygon fill="white" stroke="#666666" points="547.12,-369.5 396.88,-369.5 396.88,-336 547.12,-336 547.12,-369.5"/>
<text text-anchor="start" x="404.88" y="-356" font-family="Helvetica,sans-Serif" font-size="10.00">nixoncpp::utils::UtilsFactory</text>
<text text-anchor="middle" x="472" y="-343.25" font-family="Helvetica,sans-Serif" font-size="10.00">::createLogger</text>
</a>
</g>
</g>
<!-- Node2&#45;&gt;Node3 -->
<g id="edge2_Node000002_Node000003" class="edge">
<title>Node2&#45;&gt;Node3</title>
<g id="a_edge2_Node000002_Node000003"><a xlink:title=" ">
<path fill="none" stroke="#63b8ff" d="M336.81,-352.75C352.59,-352.75 369.37,-352.75 385.53,-352.75"/>
<polygon fill="#63b8ff" stroke="#63b8ff" points="385.08,-356.25 395.08,-352.75 385.08,-349.25 385.08,-356.25"/>
</a>
</g>
</g>
<!-- Node4 -->
<g id="Node000004" class="node">
<title>Node4</title>
<g id="a_Node000004"><a xlink:href="classnixoncpp_1_1logging_1_1LoggerFactory.html#a9a38b177b191b1ab4182363e93dd222b" target="_top" xlink:title="Create a logger instance based on the specified type and configuration.">
<polygon fill="white" stroke="#666666" points="727.75,-369.5 607.5,-369.5 607.5,-336 727.75,-336 727.75,-369.5"/>
<text text-anchor="start" x="615.5" y="-356" font-family="Helvetica,sans-Serif" font-size="10.00">nixoncpp::logging::</text>
<text text-anchor="middle" x="667.62" y="-343.25" font-family="Helvetica,sans-Serif" font-size="10.00">LoggerFactory::create</text>
</a>
</g>
</g>
<!-- Node3&#45;&gt;Node4 -->
<g id="edge3_Node000003_Node000004" class="edge">
<title>Node3&#45;&gt;Node4</title>
<g id="a_edge3_Node000003_Node000004"><a xlink:title=" ">
<path fill="none" stroke="#63b8ff" d="M547.58,-352.75C563.44,-352.75 580.14,-352.75 595.86,-352.75"/>
<polygon fill="#63b8ff" stroke="#63b8ff" points="595.58,-356.25 605.58,-352.75 595.58,-349.25 595.58,-356.25"/>
</a>
</g>
</g>
<!-- Node5 -->
<g id="Node000005" class="node">
<title>Node5</title>
<g id="a_Node000005"><a xlink:href="classnixoncpp_1_1logging_1_1LoggerFactory.html#a26cfce0d7f5386a37884a93178910b85" target="_top" xlink:title="Create a Console object logger.">
<polygon fill="white" stroke="#666666" points="923,-395.5 763.75,-395.5 763.75,-362 923,-362 923,-395.5"/>
<text text-anchor="start" x="771.75" y="-382" font-family="Helvetica,sans-Serif" font-size="10.00">nixoncpp::logging::</text>
<text text-anchor="middle" x="843.38" y="-369.25" font-family="Helvetica,sans-Serif" font-size="10.00">LoggerFactory::createConsole</text>
</a>
</g>
</g>
<!-- Node4&#45;&gt;Node5 -->
<g id="edge4_Node000004_Node000005" class="edge">
<title>Node4&#45;&gt;Node5</title>
<g id="a_edge4_Node000004_Node000005"><a xlink:title=" ">
<path fill="none" stroke="#63b8ff" d="M727.93,-361.63C735.77,-362.8 743.95,-364.02 752.16,-365.25"/>
<polygon fill="#63b8ff" stroke="#63b8ff" points="751.46,-368.68 761.86,-366.7 752.49,-361.76 751.46,-368.68"/>
</a>
</g>
</g>
<!-- Node6 -->
<g id="Node000006" class="node">
<title>Node6</title>
<g id="a_Node000006"><a xlink:href="classnixoncpp_1_1logging_1_1LoggerFactory.html#a155dca9a6066e9729f9237e7d02c2d4e" target="_top" xlink:title="Create a Null object logger.">
<polygon fill="white" stroke="#666666" points="913.25,-343.5 773.5,-343.5 773.5,-310 913.25,-310 913.25,-343.5"/>
<text text-anchor="start" x="781.5" y="-330" font-family="Helvetica,sans-Serif" font-size="10.00">nixoncpp::logging::</text>
<text text-anchor="middle" x="843.38" y="-317.25" font-family="Helvetica,sans-Serif" font-size="10.00">LoggerFactory::createNull</text>
</a>
</g>
</g>
<!-- Node4&#45;&gt;Node6 -->
<g id="edge5_Node000004_Node000006" class="edge">
<title>Node4&#45;&gt;Node6</title>
<g id="a_edge5_Node000004_Node000006"><a xlink:title=" ">
<path fill="none" stroke="#63b8ff" d="M727.93,-343.87C738.85,-342.24 750.41,-340.51 761.82,-338.8"/>
<polygon fill="#63b8ff" stroke="#63b8ff" points="762.29,-342.27 771.66,-337.33 761.25,-335.35 762.29,-342.27"/>
</a>
</g>
</g>
<!-- Node10&#45;&gt;Node8 -->
<g id="edge10_Node000010_Node000008" class="edge">
<title>Node10&#45;&gt;Node8</title>
<g id="a_edge10_Node000010_Node000008"><a xlink:title=" ">
<path fill="none" stroke="#63b8ff" d="M336.81,-220.03C352.59,-221.99 369.37,-224.08 385.53,-226.1"/>
<polygon fill="#63b8ff" stroke="#63b8ff" points="384.74,-229.53 395.09,-227.29 385.6,-222.58 384.74,-229.53"/>
</a>
</g>
</g>
<!-- Node10&#45;&gt;Node9 -->
<g id="edge11_Node000010_Node000009" class="edge">
<title>Node10&#45;&gt;Node9</title>
<g id="a_edge11_Node000010_Node000009"><a xlink:title=" ">
<path fill="none" stroke="#63b8ff" d="M336.81,-197.91C352.59,-195.18 369.37,-192.29 385.53,-189.5"/>
<polygon fill="#63b8ff" stroke="#63b8ff" points="385.84,-193 395.1,-187.85 384.65,-186.1 385.84,-193"/>
</a>
</g>
</g>
<!-- Node13 -->
<g id="Node000013" class="node">
<title>Node13</title>
<g id="a_Node000013"><a xlink:href="classnixoncpp_1_1utils_1_1PlatformInfoFactory.html#a0195da5938b4019fd41096c4e57a3c6a" target="_top" xlink:title=" ">
<polygon fill="white" stroke="#666666" points="571.5,-85.5 372.5,-85.5 372.5,-52 571.5,-52 571.5,-85.5"/>
<text text-anchor="start" x="380.5" y="-72" font-family="Helvetica,sans-Serif" font-size="10.00">nixoncpp::utils::Platform</text>
<text text-anchor="middle" x="472" y="-59.25" font-family="Helvetica,sans-Serif" font-size="10.00">InfoFactory::createForCurrentPlatform</text>
</a>
</g>
</g>
<!-- Node12&#45;&gt;Node13 -->
<g id="edge14_Node000012_Node000013" class="edge">
<title>Node12&#45;&gt;Node13</title>
<g id="a_edge14_Node000012_Node000013"><a xlink:title=" ">
<path fill="none" stroke="#63b8ff" d="M336.81,-68.75C344.6,-68.75 352.64,-68.75 360.73,-68.75"/>
<polygon fill="#63b8ff" stroke="#63b8ff" points="360.66,-72.25 370.66,-68.75 360.66,-65.25 360.66,-72.25"/>
</a>
</g>
</g>
</g>
</svg>

<g id="navigator" transform="translate(0 0)" fill="#404254">
  <rect fill="#f2f5e9" fill-opacity="0.5" stroke="#606060" stroke-width=".5" x="0" y="0" width="60" height="60"/>
  <use id="zoomplus" xlink:href="#zoomPlus" x="17" y="9" onmousedown="handleZoom(evt,'in')"/>
  <use id="zoomminus" xlink:href="#zoomMin" x="42" y="9" onmousedown="handleZoom(evt,'out')"/>
  <use id="reset" xlink:href="#resetDef" x="30" y="36" onmousedown="handleReset()"/>
   <use id="arrowup" xlink:href="#arrowUp" x="0" y="0" onmousedown="handlePan(0,-1)"/>
  <use id="arrowright" xlink:href="#arrowRight" x="0" y="0" onmousedown="handlePan(1,0)"/>
  <use id="arrowdown" xlink:href="#arrowDown" x="0" y="0" onmousedown="handlePan(0,1)"/>
  <use id="arrowleft" xlink:href="#arrowLeft" x="0" y="0" onmousedown="handlePan(-1,0)"/>
</g>
<svg viewBox="0 0 15 15" width="100%" height="30px" preserveAspectRatio="xMaxYMin meet">
 <g id="arrow_out" transform="scale(0.3 0.3)">
  <a xlink:href="classnixoncpp_1_1utils_1_1UtilsFactory_aab74a1a2491ea457c170d20781cf6897_cgraph_org.svg" target="_base">
   <rect id="button" ry="5" rx="5" y="6" x="6" height="38" width="38"
        fill="#f2f5e9" fill-opacity="0.5" stroke="#606060" stroke-width="1.0"/>
   <path id="arrow"
     d="M 11.500037,31.436501 C 11.940474,20.09759 22.043105,11.32322 32.158766,21.979434 L 37.068811,17.246167 C 37.068811,17.246167 37.088388,32 37.088388,32 L 22.160133,31.978069 C 22.160133,31.978069 26.997745,27.140456 26.997745,27.140456 C 18.528582,18.264221 13.291696,25.230495 11.500037,31.436501 z"
     style="fill:#404040;"/>
  </a>
 </g>
</svg>

<style type='text/css'>
<![CDATA[
[data-mouse-over-selected='false'] { opacity: 0.7; }
[data-mouse-over-selected='true']  { opacity: 1.0; }
]]>
</style>
<script type="application/ecmascript"><![CDATA[
document.addEventListener('DOMContentLoaded', (event) => {
  highlightEdges();
  highlightAdjacentNodes();
});
]]></script>
</svg>
