<?xml version="1.0" encoding="UTF-8" standalone="no"?>
<!DOCTYPE svg PUBLIC "-//W3C//DTD SVG 1.1//EN"
 "http://www.w3.org/Graphics/SVG/1.1/DTD/svg11.dtd">
<!-- Generated by graphviz version 12.2.1 (0)
 -->
<!-- Title: nixoncpp::utils::FileWriter::FileWriter Pages: 1 -->
<svg width="324pt" height="198pt"
 viewBox="0.00 0.00 323.50 197.50" xmlns="http://www.w3.org/2000/svg" xmlns:xlink="http://www.w3.org/1999/xlink">
<g id="graph0" class="graph" transform="scale(1 1) rotate(0) translate(4 193.5)">
<title>nixoncpp::utils::FileWriter::FileWriter</title>
<!-- Node1 -->
<g id="Node000001" class="node">
<title>Node1</title>
<g id="a_Node000001"><a xlink:title=" ">
<polygon fill="#999999" stroke="#666666" points="315.5,-111.5 175.75,-111.5 175.75,-78 315.5,-78 315.5,-111.5"/>
<text text-anchor="start" x="183.75" y="-98" font-family="Helvetica,sans-Serif" font-size="10.00">nixoncpp::utils::FileWriter</text>
<text text-anchor="middle" x="245.62" y="-85.25" font-family="Helvetica,sans-Serif" font-size="10.00">::FileWriter</text>
</a>
</g>
</g>
<!-- Node2 -->
<g id="Node000002" class="node">
<title>Node2</title>
<g id="a_Node000002"><a xlink:href="classnixoncpp_1_1utils_1_1FileWriter.html#a20b2681106bdbbf4e0495c79ace4a360" target="_top" xlink:title=" ">
<polygon fill="white" stroke="#666666" points="139.75,-189.5 0,-189.5 0,-156 139.75,-156 139.75,-189.5"/>
<text text-anchor="start" x="8" y="-176" font-family="Helvetica,sans-Serif" font-size="10.00">nixoncpp::utils::FileWriter</text>
<text text-anchor="middle" x="69.88" y="-163.25" font-family="Helvetica,sans-Serif" font-size="10.00">::FileWriter</text>
</a>
</g>
</g>
<!-- Node1&#45;&gt;Node2 -->
<g id="edge1_Node000001_Node000002" class="edge">
<title>Node1&#45;&gt;Node2</title>
<g id="a_edge1_Node000001_Node000002"><a xlink:title=" ">
<path fill="none" stroke="#63b8ff" d="M201.9,-117.14C183.05,-126.7 160.5,-137.71 139.75,-146.75 132.84,-149.76 125.45,-152.76 118.18,-155.6"/>
<polygon fill="#63b8ff" stroke="#63b8ff" points="203.3,-120.35 210.61,-112.68 200.11,-114.12 203.3,-120.35"/>
</a>
</g>
</g>
<!-- Node3 -->
<g id="Node000003" class="node">
<title>Node3</title>
<g id="a_Node000003"><a xlink:href="classnixoncpp_1_1utils_1_1FileWriter.html#a4a659dd18dd048af3b183674453ed45c" target="_top" xlink:title=" ">
<polygon fill="white" stroke="#666666" points="139.75,-137.5 0,-137.5 0,-104 139.75,-104 139.75,-137.5"/>
<text text-anchor="start" x="8" y="-124" font-family="Helvetica,sans-Serif" font-size="10.00">nixoncpp::utils::FileWriter</text>
<text text-anchor="middle" x="69.88" y="-111.25" font-family="Helvetica,sans-Serif" font-size="10.00">::FileWriter</text>
</a>
</g>
</g>
<!-- Node1&#45;&gt;Node3 -->
<g id="edge2_Node000001_Node000003" class="edge">
<title>Node1&#45;&gt;Node3</title>
<g id="a_edge2_Node000001_Node000003"><a xlink:title=" ">
<path fill="none" stroke="#63b8ff" d="M164.16,-106.79C156.12,-107.99 148,-109.21 140.09,-110.39"/>
<polygon fill="#63b8ff" stroke="#63b8ff" points="164.59,-110.27 173.96,-105.32 163.55,-103.34 164.59,-110.27"/>
</a>
</g>
</g>
<!-- Node4 -->
<g id="Node000004" class="node">
<title>Node4</title>
<g id="a_Node000004"><a xlink:href="classnixoncpp_1_1utils_1_1FileWriter.html#a17bf31c0a9303fd19cd7d8017738cb58" target="_top" xlink:title=" ">
<polygon fill="white" stroke="#666666" points="139.75,-85.5 0,-85.5 0,-52 139.75,-52 139.75,-85.5"/>
<text text-anchor="start" x="8" y="-72" font-family="Helvetica,sans-Serif" font-size="10.00">nixoncpp::utils::FileWriter</text>
<text text-anchor="middle" x="69.88" y="-59.25" font-family="Helvetica,sans-Serif" font-size="10.00">::operator=</text>
</a>
</g>
</g>
<!-- Node1&#45;&gt;Node4 -->
<g id="edge3_Node000001_Node000004" class="edge">
<title>Node1&#45;&gt;Node4</title>
<g id="a_edge3_Node000001_Node000004"><a xlink:title=" ">
<path fill="none" stroke="#63b8ff" d="M164.16,-82.71C156.12,-81.51 148,-80.29 140.09,-79.11"/>
<polygon fill="#63b8ff" stroke="#63b8ff" points="163.55,-86.16 173.96,-84.18 164.59,-79.23 163.55,-86.16"/>
</a>
</g>
</g>
<!-- Node5 -->
<g id="Node000005" class="node">
<title>Node5</title>
<g id="a_Node000005"><a xlink:href="classnixoncpp_1_1utils_1_1FileWriter.html#ac508fab4dbea08efa7bfa018a8101891" target="_top" xlink:title=" ">
<polygon fill="white" stroke="#666666" points="139.75,-33.5 0,-33.5 0,0 139.75,0 139.75,-33.5"/>
<text text-anchor="start" x="8" y="-20" font-family="Helvetica,sans-Serif" font-size="10.00">nixoncpp::utils::FileWriter</text>
<text text-anchor="middle" x="69.88" y="-7.25" font-family="Helvetica,sans-Serif" font-size="10.00">::operator=</text>
</a>
</g>
</g>
<!-- Node1&#45;&gt;Node5 -->
<g id="edge4_Node000001_Node000005" class="edge">
<title>Node1&#45;&gt;Node5</title>
<g id="a_edge4_Node000001_Node000005"><a xlink:title=" ">
<path fill="none" stroke="#63b8ff" d="M201.9,-72.36C183.05,-62.8 160.5,-51.79 139.75,-42.75 132.84,-39.74 125.45,-36.74 118.18,-33.9"/>
<polygon fill="#63b8ff" stroke="#63b8ff" points="200.11,-75.38 210.61,-76.82 203.3,-69.15 200.11,-75.38"/>
</a>
</g>
</g>
</g>
</svg>
