<?xml version="1.0" encoding="UTF-8" standalone="no"?>
<!DOCTYPE svg PUBLIC "-//W3C//DTD SVG 1.1//EN"
 "http://www.w3.org/Graphics/SVG/1.1/DTD/svg11.dtd">
<!-- Generated by graphviz version 12.2.1 (0)
 -->
<!-- Title: ConsoleLogger::showHeaderName Pages: 1 -->
<svg width="395pt" height="86pt"
 viewBox="0.00 0.00 394.75 85.75" xmlns="http://www.w3.org/2000/svg" xmlns:xlink="http://www.w3.org/1999/xlink">
<g id="graph0" class="graph" transform="scale(1 1) rotate(0) translate(4 81.75)">
<title>ConsoleLogger::showHeaderName</title>
<!-- Node1 -->
<g id="Node000001" class="node">
<title>Node1</title>
<g id="a_Node000001"><a xlink:title="Show or hide the header name in the log output.">
<polygon fill="#999999" stroke="#666666" points="386.75,-39.75 202.75,-39.75 202.75,-19 386.75,-19 386.75,-39.75"/>
<text text-anchor="middle" x="294.75" y="-26.25" font-family="Helvetica,sans-Serif" font-size="10.00">ConsoleLogger::showHeaderName</text>
</a>
</g>
</g>
<!-- Node2 -->
<g id="Node000002" class="node">
<title>Node2</title>
<g id="a_Node000002"><a xlink:href="classConsoleLogger.html#a777c72f8f45463233b5e29231b2cd659" target="_top" xlink:title="Show or hide all headers in the log output.">
<polygon fill="white" stroke="#666666" points="154,-59.75 12.75,-59.75 12.75,-39 154,-39 154,-59.75"/>
<text text-anchor="middle" x="83.38" y="-46.25" font-family="Helvetica,sans-Serif" font-size="10.00">ConsoleLogger::noHeader</text>
</a>
</g>
</g>
<!-- Node1&#45;&gt;Node2 -->
<g id="edge1_Node000001_Node000002" class="edge">
<title>Node1&#45;&gt;Node2</title>
<g id="a_edge1_Node000001_Node000002"><a xlink:title=" ">
<path fill="none" stroke="#63b8ff" d="M191.08,-39.18C178.59,-40.38 166.06,-41.57 154.2,-42.71"/>
<polygon fill="#63b8ff" stroke="#63b8ff" points="191.4,-42.67 201.02,-38.23 190.73,-35.7 191.4,-42.67"/>
</a>
</g>
</g>
<!-- Node3 -->
<g id="Node000003" class="node">
<title>Node3</title>
<g id="a_Node000003"><a xlink:href="classConsoleLogger.html#ae56e4044605f57c9253807c7e10db745" target="_top" xlink:title="Show or hide specific headers in the log output.">
<polygon fill="white" stroke="#666666" points="166.75,-20.75 0,-20.75 0,0 166.75,0 166.75,-20.75"/>
<text text-anchor="middle" x="83.38" y="-7.25" font-family="Helvetica,sans-Serif" font-size="10.00">ConsoleLogger::visibleHeaders</text>
</a>
</g>
</g>
<!-- Node1&#45;&gt;Node3 -->
<g id="edge3_Node000001_Node000003" class="edge">
<title>Node1&#45;&gt;Node3</title>
<g id="a_edge3_Node000001_Node000003"><a xlink:title=" ">
<path fill="none" stroke="#63b8ff" d="M191.14,-20.06C183.07,-19.33 174.98,-18.6 167.07,-17.88"/>
<polygon fill="#63b8ff" stroke="#63b8ff" points="190.74,-23.54 201.02,-20.96 191.37,-16.57 190.74,-23.54"/>
</a>
</g>
</g>
<!-- Node2&#45;&gt;Node2 -->
<g id="edge2_Node000002_Node000002" class="edge">
<title>Node2&#45;&gt;Node2</title>
<g id="a_edge2_Node000002_Node000002"><a xlink:title=" ">
<path fill="none" stroke="#63b8ff" d="M120.97,-70.9C116.34,-74.92 103.81,-77.75 83.38,-77.75 47.04,-77.75 35.69,-68.81 49.32,-60.15"/>
<polygon fill="#63b8ff" stroke="#63b8ff" points="124.36,-69.99 117.91,-61.58 117.71,-72.18 124.36,-69.99"/>
</a>
</g>
</g>
</g>
</svg>
