<?xml version="1.0" encoding="UTF-8" standalone="no"?>
<!DOCTYPE svg PUBLIC "-//W3C//DTD SVG 1.1//EN"
 "http://www.w3.org/Graphics/SVG/1.1/DTD/svg11.dtd">
<!-- Generated by graphviz version 12.2.1 (0)
 -->
<!-- Title: nixoncpp::assets::AssetManagerFactory::createDefault Pages: 1 -->
<svg width="823pt" height="102pt"
 viewBox="0.00 0.00 823.00 102.12" xmlns="http://www.w3.org/2000/svg" xmlns:xlink="http://www.w3.org/1999/xlink">
<g id="graph0" class="graph" transform="scale(1 1) rotate(0) translate(4 98.12)">
<title>nixoncpp::assets::AssetManagerFactory::createDefault</title>
<!-- Node1 -->
<g id="Node000001" class="node">
<title>Node1</title>
<g id="a_Node000001"><a xlink:title="Create a Default object.">
<polygon fill="#999999" stroke="#666666" points="815,-49.12 642.25,-49.12 642.25,-15.62 815,-15.62 815,-49.12"/>
<text text-anchor="start" x="650.25" y="-35.62" font-family="Helvetica,sans-Serif" font-size="10.00">nixoncpp::assets::AssetManager</text>
<text text-anchor="middle" x="728.62" y="-22.88" font-family="Helvetica,sans-Serif" font-size="10.00">Factory::createDefault</text>
</a>
</g>
</g>
<!-- Node2 -->
<g id="Node000002" class="node">
<title>Node2</title>
<g id="a_Node000002"><a xlink:href="classnixoncpp_1_1utils_1_1UtilsFactory.html#a6e7781b6db8c887f84c08609c72cee9b" target="_top" xlink:title=" ">
<polygon fill="white" stroke="#666666" points="606.25,-72.12 456,-72.12 456,-38.62 606.25,-38.62 606.25,-72.12"/>
<text text-anchor="start" x="464" y="-58.62" font-family="Helvetica,sans-Serif" font-size="10.00">nixoncpp::utils::UtilsFactory</text>
<text text-anchor="middle" x="531.12" y="-45.88" font-family="Helvetica,sans-Serif" font-size="10.00">::createAssetManager</text>
</a>
</g>
</g>
<!-- Node1&#45;&gt;Node2 -->
<g id="edge1_Node000001_Node000002" class="edge">
<title>Node1&#45;&gt;Node2</title>
<g id="a_edge1_Node000001_Node000002"><a xlink:title=" ">
<path fill="none" stroke="#63b8ff" d="M630.49,-43.8C622.42,-44.75 614.34,-45.7 606.47,-46.63"/>
<polygon fill="#63b8ff" stroke="#63b8ff" points="630.85,-47.28 640.37,-42.64 630.03,-40.33 630.85,-47.28"/>
</a>
</g>
</g>
<!-- Node6 -->
<g id="Node000006" class="node">
<title>Node6</title>
<g id="a_Node000006"><a xlink:href="AssetManagerTest_8cpp.html#a351b0b825a033c19c191b803ef3ed412" target="_top" xlink:title=" ">
<polygon fill="white" stroke="#666666" points="556.75,-20.75 505.5,-20.75 505.5,0 556.75,0 556.75,-20.75"/>
<text text-anchor="middle" x="531.12" y="-7.25" font-family="Helvetica,sans-Serif" font-size="10.00">TEST_F</text>
</a>
</g>
</g>
<!-- Node1&#45;&gt;Node6 -->
<g id="edge6_Node000001_Node000006" class="edge">
<title>Node1&#45;&gt;Node6</title>
<g id="a_edge6_Node000001_Node000006"><a xlink:title=" ">
<path fill="none" stroke="#63b8ff" d="M630.65,-21.46C603.41,-18.4 576.1,-15.32 557.16,-13.19"/>
<polygon fill="#63b8ff" stroke="#63b8ff" points="630.04,-24.92 640.37,-22.56 630.83,-17.96 630.04,-24.92"/>
</a>
</g>
</g>
<!-- Node3 -->
<g id="Node000003" class="node">
<title>Node3</title>
<g id="a_Node000003"><a xlink:href="classnixoncpp_1_1utils_1_1UtilsFactory.html#a5d58ef900c1db80a1d196a271d26b6e4" target="_top" xlink:title=" ">
<polygon fill="white" stroke="#666666" points="420,-94.12 263,-94.12 263,-60.62 420,-60.62 420,-94.12"/>
<text text-anchor="start" x="271" y="-80.62" font-family="Helvetica,sans-Serif" font-size="10.00">nixoncpp::utils::UtilsFactory</text>
<text text-anchor="middle" x="341.5" y="-67.88" font-family="Helvetica,sans-Serif" font-size="10.00">::createCustomStringsLoader</text>
</a>
</g>
</g>
<!-- Node2&#45;&gt;Node3 -->
<g id="edge2_Node000002_Node000003" class="edge">
<title>Node2&#45;&gt;Node3</title>
<g id="a_edge2_Node000002_Node000003"><a xlink:title=" ">
<path fill="none" stroke="#63b8ff" d="M444.39,-65.43C436.33,-66.37 428.2,-67.33 420.22,-68.26"/>
<polygon fill="#63b8ff" stroke="#63b8ff" points="444.67,-68.92 454.2,-64.28 443.86,-61.97 444.67,-68.92"/>
</a>
</g>
</g>
<!-- Node4 -->
<g id="Node000004" class="node">
<title>Node4</title>
<g id="a_Node000004"><a xlink:href="classnixoncpp_1_1utils_1_1UtilsFactory.html#a4f4379374cac4b57e87332373ecdb3c2" target="_top" xlink:title="Create full application context with all components.">
<polygon fill="white" stroke="#666666" points="227,-71.12 76.75,-71.12 76.75,-37.62 227,-37.62 227,-71.12"/>
<text text-anchor="start" x="84.75" y="-57.62" font-family="Helvetica,sans-Serif" font-size="10.00">nixoncpp::utils::UtilsFactory</text>
<text text-anchor="middle" x="151.88" y="-44.88" font-family="Helvetica,sans-Serif" font-size="10.00">::createFullContext</text>
</a>
</g>
</g>
<!-- Node2&#45;&gt;Node4 -->
<g id="edge5_Node000002_Node000004" class="edge">
<title>Node2&#45;&gt;Node4</title>
<g id="a_edge5_Node000002_Node000004"><a xlink:title=" ">
<path fill="none" stroke="#63b8ff" d="M444.52,-51.96C436.23,-51.72 427.96,-51.52 420,-51.38 350.23,-50.11 332.77,-50.42 263,-51.38 251.43,-51.53 239.18,-51.78 227.21,-52.07"/>
<polygon fill="#63b8ff" stroke="#63b8ff" points="444.18,-55.45 454.28,-52.26 444.39,-48.46 444.18,-55.45"/>
</a>
</g>
</g>
<!-- Node3&#45;&gt;Node4 -->
<g id="edge3_Node000003_Node000004" class="edge">
<title>Node3&#45;&gt;Node4</title>
<g id="a_edge3_Node000003_Node000004"><a xlink:title=" ">
<path fill="none" stroke="#63b8ff" d="M251.26,-66.44C243.22,-65.45 235.15,-64.46 227.26,-63.49"/>
<polygon fill="#63b8ff" stroke="#63b8ff" points="250.71,-69.89 261.06,-67.64 251.56,-62.95 250.71,-69.89"/>
</a>
</g>
</g>
<!-- Node5 -->
<g id="Node000005" class="node">
<title>Node5</title>
<g id="a_Node000005"><a xlink:href="Application_8cpp.html#a3c04138a5bfe5d72780bb7e82a18e627" target="_top" xlink:title=" ">
<polygon fill="white" stroke="#666666" points="40.75,-64.75 0,-64.75 0,-44 40.75,-44 40.75,-64.75"/>
<text text-anchor="middle" x="20.38" y="-51.25" font-family="Helvetica,sans-Serif" font-size="10.00">main</text>
</a>
</g>
</g>
<!-- Node4&#45;&gt;Node5 -->
<g id="edge4_Node000004_Node000005" class="edge">
<title>Node4&#45;&gt;Node5</title>
<g id="a_edge4_Node000004_Node000005"><a xlink:title=" ">
<path fill="none" stroke="#63b8ff" d="M64.97,-54.38C56.24,-54.38 48.08,-54.38 41.23,-54.38"/>
<polygon fill="#63b8ff" stroke="#63b8ff" points="64.78,-57.88 74.78,-54.38 64.78,-50.88 64.78,-57.88"/>
</a>
</g>
</g>
</g>
</svg>
