<?xml version="1.0" encoding="UTF-8" standalone="no"?>
<!DOCTYPE svg PUBLIC "-//W3C//DTD SVG 1.1//EN"
 "http://www.w3.org/Graphics/SVG/1.1/DTD/svg11.dtd">
<!-- Generated by graphviz version 12.2.1 (0)
 -->
<!-- Title: nixoncpp::utils::UtilsFactory::createFileWriter Pages: 1 -->
<svg width="801pt" height="210pt"
 viewBox="0.00 0.00 800.50 210.07" xmlns="http://www.w3.org/2000/svg" xmlns:xlink="http://www.w3.org/1999/xlink">
<g id="graph0" class="graph" transform="scale(1 1) rotate(0) translate(4 206.07)">
<title>nixoncpp::utils::UtilsFactory::createFileWriter</title>
<!-- Node1 -->
<g id="Node000001" class="node">
<title>Node1</title>
<g id="a_Node000001"><a xlink:title=" ">
<polygon fill="#999999" stroke="#666666" points="792.5,-82.07 642.25,-82.07 642.25,-48.57 792.5,-48.57 792.5,-82.07"/>
<text text-anchor="start" x="650.25" y="-68.57" font-family="Helvetica,sans-Serif" font-size="10.00">nixoncpp::utils::UtilsFactory</text>
<text text-anchor="middle" x="717.38" y="-55.82" font-family="Helvetica,sans-Serif" font-size="10.00">::createFileWriter</text>
</a>
</g>
</g>
<!-- Node2 -->
<g id="Node000002" class="node">
<title>Node2</title>
<g id="a_Node000002"><a xlink:href="classnixoncpp_1_1utils_1_1UtilsFactory.html#aab74a1a2491ea457c170d20781cf6897" target="_top" xlink:title="Create basic utilities context with default logger.">
<polygon fill="white" stroke="#666666" points="416.62,-202.07 266.38,-202.07 266.38,-168.57 416.62,-168.57 416.62,-202.07"/>
<text text-anchor="start" x="274.38" y="-188.57" font-family="Helvetica,sans-Serif" font-size="10.00">nixoncpp::utils::UtilsFactory</text>
<text text-anchor="middle" x="341.5" y="-175.82" font-family="Helvetica,sans-Serif" font-size="10.00">::createBasicContext</text>
</a>
</g>
</g>
<!-- Node1&#45;&gt;Node2 -->
<g id="edge1_Node000001_Node000002" class="edge">
<title>Node1&#45;&gt;Node2</title>
<g id="a_edge1_Node000001_Node000002"><a xlink:title=" ">
<path fill="none" stroke="#63b8ff" d="M671.5,-87.18C651.77,-96.3 628.15,-106.55 606.25,-114.32 543.57,-136.54 470.4,-155.73 417.06,-168.53"/>
<polygon fill="#63b8ff" stroke="#63b8ff" points="672.78,-90.45 680.36,-83.04 669.82,-84.11 672.78,-90.45"/>
</a>
</g>
</g>
<!-- Node3 -->
<g id="Node000003" class="node">
<title>Node3</title>
<g id="a_Node000003"><a xlink:href="classnixoncpp_1_1utils_1_1UtilsFactory.html#a7584ff01912c5d2a8450715debefed80" target="_top" xlink:title="Create minimal context without app&#45;specific components.">
<polygon fill="white" stroke="#666666" points="416.62,-60.07 266.38,-60.07 266.38,-26.57 416.62,-26.57 416.62,-60.07"/>
<text text-anchor="start" x="274.38" y="-46.57" font-family="Helvetica,sans-Serif" font-size="10.00">nixoncpp::utils::UtilsFactory</text>
<text text-anchor="middle" x="341.5" y="-33.82" font-family="Helvetica,sans-Serif" font-size="10.00">::createCoreContext</text>
</a>
</g>
</g>
<!-- Node1&#45;&gt;Node3 -->
<g id="edge2_Node000001_Node000003" class="edge">
<title>Node1&#45;&gt;Node3</title>
<g id="a_edge2_Node000001_Node000003"><a xlink:title=" ">
<path fill="none" stroke="#63b8ff" d="M630.7,-60.27C566.18,-56.48 478.62,-51.32 416.99,-47.7"/>
<polygon fill="#63b8ff" stroke="#63b8ff" points="630.36,-63.76 640.55,-60.85 630.77,-56.77 630.36,-63.76"/>
</a>
</g>
</g>
<!-- Node4 -->
<g id="Node000004" class="node">
<title>Node4</title>
<g id="a_Node000004"><a xlink:href="classnixoncpp_1_1utils_1_1UtilsFactory.html#a4f4379374cac4b57e87332373ecdb3c2" target="_top" xlink:title="Create full application context with all components.">
<polygon fill="white" stroke="#666666" points="227,-105.07 76.75,-105.07 76.75,-71.57 227,-71.57 227,-105.07"/>
<text text-anchor="start" x="84.75" y="-91.57" font-family="Helvetica,sans-Serif" font-size="10.00">nixoncpp::utils::UtilsFactory</text>
<text text-anchor="middle" x="151.88" y="-78.82" font-family="Helvetica,sans-Serif" font-size="10.00">::createFullContext</text>
</a>
</g>
</g>
<!-- Node1&#45;&gt;Node4 -->
<g id="edge3_Node000001_Node000004" class="edge">
<title>Node1&#45;&gt;Node4</title>
<g id="a_edge3_Node000001_Node000004"><a xlink:title=" ">
<path fill="none" stroke="#63b8ff" d="M657.14,-44.74C569.28,-17.39 400.07,23.04 263,-17.32 227.43,-27.79 192.51,-53.71 171.83,-71.16"/>
<polygon fill="#63b8ff" stroke="#63b8ff" points="655.92,-48.02 666.51,-47.71 658.04,-41.35 655.92,-48.02"/>
</a>
</g>
</g>
<!-- Node6 -->
<g id="Node000006" class="node">
<title>Node6</title>
<g id="a_Node000006"><a xlink:href="classnixoncpp_1_1utils_1_1UtilsFactory.html#ac89ae32784dcc62839c88a8e99c50f7c" target="_top" xlink:title=" ">
<polygon fill="white" stroke="#666666" points="606.25,-105.07 456,-105.07 456,-71.57 606.25,-71.57 606.25,-105.07"/>
<text text-anchor="start" x="464" y="-91.57" font-family="Helvetica,sans-Serif" font-size="10.00">nixoncpp::utils::UtilsFactory</text>
<text text-anchor="middle" x="531.12" y="-78.82" font-family="Helvetica,sans-Serif" font-size="10.00">::createJsonSerializer</text>
</a>
</g>
</g>
<!-- Node1&#45;&gt;Node6 -->
<g id="edge5_Node000001_Node000006" class="edge">
<title>Node1&#45;&gt;Node6</title>
<g id="a_edge5_Node000001_Node000006"><a xlink:title=" ">
<path fill="none" stroke="#63b8ff" d="M630.64,-76.02C622.58,-77.02 614.46,-78.04 606.51,-79.03"/>
<polygon fill="#63b8ff" stroke="#63b8ff" points="630.97,-79.5 640.46,-74.79 630.11,-72.56 630.97,-79.5"/>
</a>
</g>
</g>
<!-- Node5 -->
<g id="Node000005" class="node">
<title>Node5</title>
<g id="a_Node000005"><a xlink:href="Application_8cpp.html#a3c04138a5bfe5d72780bb7e82a18e627" target="_top" xlink:title=" ">
<polygon fill="white" stroke="#666666" points="40.75,-98.69 0,-98.69 0,-77.94 40.75,-77.94 40.75,-98.69"/>
<text text-anchor="middle" x="20.38" y="-85.19" font-family="Helvetica,sans-Serif" font-size="10.00">main</text>
</a>
</g>
</g>
<!-- Node4&#45;&gt;Node5 -->
<g id="edge4_Node000004_Node000005" class="edge">
<title>Node4&#45;&gt;Node5</title>
<g id="a_edge4_Node000004_Node000005"><a xlink:title=" ">
<path fill="none" stroke="#63b8ff" d="M64.97,-88.32C56.24,-88.32 48.08,-88.32 41.23,-88.32"/>
<polygon fill="#63b8ff" stroke="#63b8ff" points="64.78,-91.82 74.78,-88.32 64.78,-84.82 64.78,-91.82"/>
</a>
</g>
</g>
<!-- Node6&#45;&gt;Node2 -->
<g id="edge6_Node000006_Node000002" class="edge">
<title>Node6&#45;&gt;Node2</title>
<g id="a_edge6_Node000006_Node000002"><a xlink:title=" ">
<path fill="none" stroke="#63b8ff" d="M498.26,-111.89C476.91,-126.91 447.73,-145.98 420,-159.32 413.35,-162.51 406.2,-165.48 399.04,-168.19"/>
<polygon fill="#63b8ff" stroke="#63b8ff" points="500.14,-114.85 506.25,-106.19 496.08,-109.15 500.14,-114.85"/>
</a>
</g>
</g>
<!-- Node6&#45;&gt;Node3 -->
<g id="edge7_Node000006_Node000003" class="edge">
<title>Node6&#45;&gt;Node3</title>
<g id="a_edge7_Node000006_Node000003"><a xlink:title=" ">
<path fill="none" stroke="#63b8ff" d="M447.41,-68.48C436.34,-65.82 425.06,-63.12 414.2,-60.51"/>
<polygon fill="#63b8ff" stroke="#63b8ff" points="446.38,-71.83 456.92,-70.76 448.01,-65.02 446.38,-71.83"/>
</a>
</g>
</g>
<!-- Node6&#45;&gt;Node4 -->
<g id="edge10_Node000006_Node000004" class="edge">
<title>Node6&#45;&gt;Node4</title>
<g id="a_edge10_Node000006_Node000004"><a xlink:title=" ">
<path fill="none" stroke="#63b8ff" d="M444.48,-88.32C379.03,-88.32 289.73,-88.32 227.25,-88.32"/>
<polygon fill="#63b8ff" stroke="#63b8ff" points="444.08,-91.82 454.08,-88.32 444.08,-84.82 444.08,-91.82"/>
</a>
</g>
</g>
<!-- Node7 -->
<g id="Node000007" class="node">
<title>Node7</title>
<g id="a_Node000007"><a xlink:href="classnixoncpp_1_1utils_1_1UtilsFactory.html#a5d58ef900c1db80a1d196a271d26b6e4" target="_top" xlink:title=" ">
<polygon fill="white" stroke="#666666" points="420,-150.07 263,-150.07 263,-116.57 420,-116.57 420,-150.07"/>
<text text-anchor="start" x="271" y="-136.57" font-family="Helvetica,sans-Serif" font-size="10.00">nixoncpp::utils::UtilsFactory</text>
<text text-anchor="middle" x="341.5" y="-123.82" font-family="Helvetica,sans-Serif" font-size="10.00">::createCustomStringsLoader</text>
</a>
</g>
</g>
<!-- Node6&#45;&gt;Node7 -->
<g id="edge8_Node000006_Node000007" class="edge">
<title>Node6&#45;&gt;Node7</title>
<g id="a_edge8_Node000006_Node000007"><a xlink:title=" ">
<path fill="none" stroke="#63b8ff" d="M447.41,-108.15C436.34,-110.81 425.06,-113.51 414.2,-116.12"/>
<polygon fill="#63b8ff" stroke="#63b8ff" points="448.01,-111.61 456.92,-105.87 446.38,-104.8 448.01,-111.61"/>
</a>
</g>
</g>
<!-- Node7&#45;&gt;Node4 -->
<g id="edge9_Node000007_Node000004" class="edge">
<title>Node7&#45;&gt;Node4</title>
<g id="a_edge9_Node000007_Node000004"><a xlink:title=" ">
<path fill="none" stroke="#63b8ff" d="M257.79,-113.48C246.71,-110.82 235.43,-108.12 224.57,-105.51"/>
<polygon fill="#63b8ff" stroke="#63b8ff" points="256.75,-116.83 267.29,-115.76 258.38,-110.02 256.75,-116.83"/>
</a>
</g>
</g>
</g>
</svg>
