<?xml version="1.0" encoding="UTF-8" standalone="no"?>
<!DOCTYPE svg PUBLIC "-//W3C//DTD SVG 1.1//EN"
 "http://www.w3.org/Graphics/SVG/1.1/DTD/svg11.dtd">
<!-- Generated by graphviz version 12.2.1 (0)
 -->
<!-- Title: src/lib/Utils/Logger/ConsoleLogger.hpp Pages: 1 -->
<svg width="858pt" height="155pt"
 viewBox="0.00 0.00 857.62 155.00" xmlns="http://www.w3.org/2000/svg" xmlns:xlink="http://www.w3.org/1999/xlink">
<g id="graph0" class="graph" transform="scale(1 1) rotate(0) translate(4 151)">
<title>src/lib/Utils/Logger/ConsoleLogger.hpp</title>
<!-- Node1 -->
<g id="Node000001" class="node">
<title>Node1</title>
<g id="a_Node000001"><a xlink:title=" ">
<polygon fill="#999999" stroke="#666666" points="504.75,-147 393.5,-147 393.5,-113.5 504.75,-113.5 504.75,-147"/>
<text text-anchor="start" x="401.5" y="-133.5" font-family="Helvetica,sans-Serif" font-size="10.00">src/lib/Utils/Logger</text>
<text text-anchor="middle" x="449.12" y="-120.75" font-family="Helvetica,sans-Serif" font-size="10.00">/ConsoleLogger.hpp</text>
</a>
</g>
</g>
<!-- Node2 -->
<g id="Node000002" class="node">
<title>Node2</title>
<g id="a_Node000002"><a xlink:href="ILogger_8hpp.html" target="_top" xlink:title=" ">
<polygon fill="white" stroke="#666666" points="221.25,-77.5 149,-77.5 149,-56.75 221.25,-56.75 221.25,-77.5"/>
<text text-anchor="middle" x="185.12" y="-64" font-family="Helvetica,sans-Serif" font-size="10.00">ILogger.hpp</text>
</a>
</g>
</g>
<!-- Node1&#45;&gt;Node2 -->
<g id="edge1_Node000001_Node000002" class="edge">
<title>Node1&#45;&gt;Node2</title>
<g id="a_edge1_Node000001_Node000002"><a xlink:title=" ">
<path fill="none" stroke="#63b8ff" d="M393.14,-116.29C345.42,-105.24 277.59,-89.53 232.52,-79.1"/>
<polygon fill="#63b8ff" stroke="#63b8ff" points="233.58,-75.75 223.05,-76.91 232,-82.57 233.58,-75.75"/>
</a>
</g>
</g>
<!-- Node3 -->
<g id="Node000003" class="node">
<title>Node3</title>
<g id="a_Node000003"><a xlink:title=" ">
<polygon fill="#e0e0e0" stroke="#999999" points="66.25,-20.75 0,-20.75 0,0 66.25,0 66.25,-20.75"/>
<text text-anchor="middle" x="33.12" y="-7.25" font-family="Helvetica,sans-Serif" font-size="10.00">fmt/core.h</text>
</a>
</g>
</g>
<!-- Node1&#45;&gt;Node3 -->
<g id="edge16_Node000001_Node000003" class="edge">
<title>Node1&#45;&gt;Node3</title>
<g id="a_edge16_Node000001_Node000003"><a xlink:title=" ">
<path fill="none" stroke="#63b8ff" d="M393.03,-126.37C329.79,-121.65 224.76,-109.33 140.12,-77.5 108.16,-65.48 75.31,-43.46 54.59,-28.15"/>
<polygon fill="#63b8ff" stroke="#63b8ff" points="56.75,-25.4 46.66,-22.16 52.53,-30.98 56.75,-25.4"/>
</a>
</g>
</g>
<!-- Node6 -->
<g id="Node000006" class="node">
<title>Node6</title>
<g id="a_Node000006"><a xlink:title=" ">
<polygon fill="#e0e0e0" stroke="#999999" points="282,-20.75 226.25,-20.75 226.25,0 282,0 282,-20.75"/>
<text text-anchor="middle" x="254.12" y="-7.25" font-family="Helvetica,sans-Serif" font-size="10.00">sstream</text>
</a>
</g>
</g>
<!-- Node1&#45;&gt;Node6 -->
<g id="edge13_Node000001_Node000006" class="edge">
<title>Node1&#45;&gt;Node6</title>
<g id="a_edge13_Node000001_Node000006"><a xlink:title=" ">
<path fill="none" stroke="#63b8ff" d="M393.18,-118.34C363.67,-110.56 328.1,-97.78 301.12,-77.5 284.8,-65.23 271.88,-45.64 263.76,-30.96"/>
<polygon fill="#63b8ff" stroke="#63b8ff" points="266.93,-29.48 259.2,-22.24 260.73,-32.72 266.93,-29.48"/>
</a>
</g>
</g>
<!-- Node7 -->
<g id="Node000007" class="node">
<title>Node7</title>
<g id="a_Node000007"><a xlink:title=" ">
<polygon fill="#e0e0e0" stroke="#999999" points="344,-20.75 300.25,-20.75 300.25,0 344,0 344,-20.75"/>
<text text-anchor="middle" x="322.12" y="-7.25" font-family="Helvetica,sans-Serif" font-size="10.00">string</text>
</a>
</g>
</g>
<!-- Node1&#45;&gt;Node7 -->
<g id="edge14_Node000001_Node000007" class="edge">
<title>Node1&#45;&gt;Node7</title>
<g id="a_edge14_Node000001_Node000007"><a xlink:title=" ">
<path fill="none" stroke="#63b8ff" d="M393.02,-123.53C363.14,-117.3 328.78,-104.36 310.12,-77.5 300.67,-63.89 305.4,-45.03 311.49,-30.93"/>
<polygon fill="#63b8ff" stroke="#63b8ff" points="314.51,-32.72 315.75,-22.2 308.22,-29.65 314.51,-32.72"/>
</a>
</g>
</g>
<!-- Node8 -->
<g id="Node000008" class="node">
<title>Node8</title>
<g id="a_Node000008"><a xlink:title=" ">
<polygon fill="#e0e0e0" stroke="#999999" points="367.62,-77.5 318.62,-77.5 318.62,-56.75 367.62,-56.75 367.62,-77.5"/>
<text text-anchor="middle" x="343.12" y="-64" font-family="Helvetica,sans-Serif" font-size="10.00">chrono</text>
</a>
</g>
</g>
<!-- Node1&#45;&gt;Node8 -->
<g id="edge7_Node000001_Node000008" class="edge">
<title>Node1&#45;&gt;Node8</title>
<g id="a_edge7_Node000001_Node000008"><a xlink:title=" ">
<path fill="none" stroke="#63b8ff" d="M421,-113.03C405.1,-103.86 385.34,-92.47 369.7,-83.45"/>
<polygon fill="#63b8ff" stroke="#63b8ff" points="371.82,-80.63 361.41,-78.67 368.33,-86.7 371.82,-80.63"/>
</a>
</g>
</g>
<!-- Node9 -->
<g id="Node000009" class="node">
<title>Node9</title>
<g id="a_Node000009"><a xlink:title=" ">
<polygon fill="#e0e0e0" stroke="#999999" points="440.25,-77.5 386,-77.5 386,-56.75 440.25,-56.75 440.25,-77.5"/>
<text text-anchor="middle" x="413.12" y="-64" font-family="Helvetica,sans-Serif" font-size="10.00">fstream</text>
</a>
</g>
</g>
<!-- Node1&#45;&gt;Node9 -->
<g id="edge8_Node000001_Node000009" class="edge">
<title>Node1&#45;&gt;Node9</title>
<g id="a_edge8_Node000001_Node000009"><a xlink:title=" ">
<path fill="none" stroke="#63b8ff" d="M439.67,-113.19C435.09,-105.42 429.55,-96.02 424.72,-87.82"/>
<polygon fill="#63b8ff" stroke="#63b8ff" points="427.78,-86.11 419.69,-79.27 421.75,-89.66 427.78,-86.11"/>
</a>
</g>
</g>
<!-- Node10 -->
<g id="Node000010" class="node">
<title>Node10</title>
<g id="a_Node000010"><a xlink:title=" ">
<polygon fill="#e0e0e0" stroke="#999999" points="514,-77.5 458.25,-77.5 458.25,-56.75 514,-56.75 514,-77.5"/>
<text text-anchor="middle" x="486.12" y="-64" font-family="Helvetica,sans-Serif" font-size="10.00">iomanip</text>
</a>
</g>
</g>
<!-- Node1&#45;&gt;Node10 -->
<g id="edge9_Node000001_Node000010" class="edge">
<title>Node1&#45;&gt;Node10</title>
<g id="a_edge9_Node000001_Node000010"><a xlink:title=" ">
<path fill="none" stroke="#63b8ff" d="M458.85,-113.19C463.6,-105.33 469.37,-95.81 474.37,-87.54"/>
<polygon fill="#63b8ff" stroke="#63b8ff" points="477.2,-89.63 479.38,-79.26 471.21,-86 477.2,-89.63"/>
</a>
</g>
</g>
<!-- Node11 -->
<g id="Node000011" class="node">
<title>Node11</title>
<g id="a_Node000011"><a xlink:title=" ">
<polygon fill="#e0e0e0" stroke="#999999" points="591.88,-77.5 532.38,-77.5 532.38,-56.75 591.88,-56.75 591.88,-77.5"/>
<text text-anchor="middle" x="562.12" y="-64" font-family="Helvetica,sans-Serif" font-size="10.00">iostream</text>
</a>
</g>
</g>
<!-- Node1&#45;&gt;Node11 -->
<g id="edge10_Node000001_Node000011" class="edge">
<title>Node1&#45;&gt;Node11</title>
<g id="a_edge10_Node000001_Node000011"><a xlink:title=" ">
<path fill="none" stroke="#63b8ff" d="M479.11,-113.03C496.22,-103.77 517.53,-92.25 534.27,-83.19"/>
<polygon fill="#63b8ff" stroke="#63b8ff" points="535.56,-86.47 542.7,-78.64 532.23,-80.31 535.56,-86.47"/>
</a>
</g>
</g>
<!-- Node12 -->
<g id="Node000012" class="node">
<title>Node12</title>
<g id="a_Node000012"><a xlink:title=" ">
<polygon fill="#e0e0e0" stroke="#999999" points="648,-77.5 610.25,-77.5 610.25,-56.75 648,-56.75 648,-77.5"/>
<text text-anchor="middle" x="629.12" y="-64" font-family="Helvetica,sans-Serif" font-size="10.00">map</text>
</a>
</g>
</g>
<!-- Node1&#45;&gt;Node12 -->
<g id="edge11_Node000001_Node000012" class="edge">
<title>Node1&#45;&gt;Node12</title>
<g id="a_edge11_Node000001_Node000012"><a xlink:title=" ">
<path fill="none" stroke="#63b8ff" d="M496.89,-113.03C529.48,-101.96 571.62,-87.65 599.47,-78.2"/>
<polygon fill="#63b8ff" stroke="#63b8ff" points="600.33,-81.6 608.67,-75.07 598.08,-74.97 600.33,-81.6"/>
</a>
</g>
</g>
<!-- Node13 -->
<g id="Node000013" class="node">
<title>Node13</title>
<g id="a_Node000013"><a xlink:title=" ">
<polygon fill="#e0e0e0" stroke="#999999" points="713.88,-77.5 666.38,-77.5 666.38,-56.75 713.88,-56.75 713.88,-77.5"/>
<text text-anchor="middle" x="690.12" y="-64" font-family="Helvetica,sans-Serif" font-size="10.00">mutex</text>
</a>
</g>
</g>
<!-- Node1&#45;&gt;Node13 -->
<g id="edge12_Node000001_Node000013" class="edge">
<title>Node1&#45;&gt;Node13</title>
<g id="a_edge12_Node000001_Node000013"><a xlink:title=" ">
<path fill="none" stroke="#63b8ff" d="M504.87,-115.91C544.29,-106.35 598.64,-92.94 655.07,-77.99"/>
<polygon fill="#63b8ff" stroke="#63b8ff" points="655.77,-81.42 664.54,-75.47 653.97,-74.66 655.77,-81.42"/>
</a>
</g>
</g>
<!-- Node14 -->
<g id="Node000014" class="node">
<title>Node14</title>
<g id="a_Node000014"><a xlink:title=" ">
<polygon fill="#e0e0e0" stroke="#999999" points="776.38,-77.5 731.88,-77.5 731.88,-56.75 776.38,-56.75 776.38,-77.5"/>
<text text-anchor="middle" x="754.12" y="-64" font-family="Helvetica,sans-Serif" font-size="10.00">utility</text>
</a>
</g>
</g>
<!-- Node1&#45;&gt;Node14 -->
<g id="edge15_Node000001_Node000014" class="edge">
<title>Node1&#45;&gt;Node14</title>
<g id="a_edge15_Node000001_Node000014"><a xlink:title=" ">
<path fill="none" stroke="#63b8ff" d="M505.13,-120.48C558.38,-111.73 640.89,-97.13 720.77,-77.89"/>
<polygon fill="#63b8ff" stroke="#63b8ff" points="721.16,-81.4 730.04,-75.63 719.5,-74.6 721.16,-81.4"/>
</a>
</g>
</g>
<!-- Node15 -->
<g id="Node000015" class="node">
<title>Node15</title>
<g id="a_Node000015"><a xlink:title=" ">
<polygon fill="#e0e0e0" stroke="#999999" points="849.62,-77.5 794.62,-77.5 794.62,-56.75 849.62,-56.75 849.62,-77.5"/>
<text text-anchor="middle" x="822.12" y="-64" font-family="Helvetica,sans-Serif" font-size="10.00">unistd.h</text>
</a>
</g>
</g>
<!-- Node1&#45;&gt;Node15 -->
<g id="edge17_Node000001_Node000015" class="edge">
<title>Node1&#45;&gt;Node15</title>
<g id="a_edge17_Node000001_Node000015"><a xlink:title=" ">
<path fill="none" stroke="#63b8ff" d="M505,-122.3C569.63,-113.9 679.41,-98.49 783.3,-77.7"/>
<polygon fill="#63b8ff" stroke="#63b8ff" points="783.72,-81.19 792.83,-75.78 782.33,-74.33 783.72,-81.19"/>
</a>
</g>
</g>
<!-- Node2&#45;&gt;Node3 -->
<g id="edge2_Node000002_Node000003" class="edge">
<title>Node2&#45;&gt;Node3</title>
<g id="a_edge2_Node000002_Node000003"><a xlink:title=" ">
<path fill="none" stroke="#63b8ff" d="M157.95,-56.34C133.71,-47.61 97.97,-34.73 70.94,-25"/>
<polygon fill="#63b8ff" stroke="#63b8ff" points="72.34,-21.78 61.74,-21.68 69.97,-28.37 72.34,-21.78"/>
</a>
</g>
</g>
<!-- Node4 -->
<g id="Node000004" class="node">
<title>Node4</title>
<g id="a_Node000004"><a xlink:title=" ">
<polygon fill="#e0e0e0" stroke="#999999" points="208.62,-20.75 159.62,-20.75 159.62,0 208.62,0 208.62,-20.75"/>
<text text-anchor="middle" x="184.12" y="-7.25" font-family="Helvetica,sans-Serif" font-size="10.00">cstdint</text>
</a>
</g>
</g>
<!-- Node2&#45;&gt;Node4 -->
<g id="edge3_Node000002_Node000004" class="edge">
<title>Node2&#45;&gt;Node4</title>
<g id="a_edge3_Node000002_Node000004"><a xlink:title=" ">
<path fill="none" stroke="#63b8ff" d="M184.95,-56.34C184.83,-49.72 184.66,-40.72 184.51,-32.52"/>
<polygon fill="#63b8ff" stroke="#63b8ff" points="188.01,-32.53 184.33,-22.59 181.01,-32.65 188.01,-32.53"/>
</a>
</g>
</g>
<!-- Node5 -->
<g id="Node000005" class="node">
<title>Node5</title>
<g id="a_Node000005"><a xlink:title=" ">
<polygon fill="#e0e0e0" stroke="#999999" points="141.75,-20.75 84.5,-20.75 84.5,0 141.75,0 141.75,-20.75"/>
<text text-anchor="middle" x="113.12" y="-7.25" font-family="Helvetica,sans-Serif" font-size="10.00">memory</text>
</a>
</g>
</g>
<!-- Node2&#45;&gt;Node5 -->
<g id="edge4_Node000002_Node000005" class="edge">
<title>Node2&#45;&gt;Node5</title>
<g id="a_edge4_Node000002_Node000005"><a xlink:title=" ">
<path fill="none" stroke="#63b8ff" d="M172.25,-56.34C161.91,-48.47 147.16,-37.25 134.97,-27.99"/>
<polygon fill="#63b8ff" stroke="#63b8ff" points="137.17,-25.26 127.09,-21.99 132.93,-30.83 137.17,-25.26"/>
</a>
</g>
</g>
<!-- Node2&#45;&gt;Node6 -->
<g id="edge5_Node000002_Node000006" class="edge">
<title>Node2&#45;&gt;Node6</title>
<g id="a_edge5_Node000002_Node000006"><a xlink:title=" ">
<path fill="none" stroke="#63b8ff" d="M197.46,-56.34C207.37,-48.47 221.51,-37.25 233.19,-27.99"/>
<polygon fill="#63b8ff" stroke="#63b8ff" points="235.05,-30.98 240.71,-22.02 230.7,-25.49 235.05,-30.98"/>
</a>
</g>
</g>
<!-- Node2&#45;&gt;Node7 -->
<g id="edge6_Node000002_Node000007" class="edge">
<title>Node2&#45;&gt;Node7</title>
<g id="a_edge6_Node000002_Node000007"><a xlink:title=" ">
<path fill="none" stroke="#63b8ff" d="M209.62,-56.34C231.91,-47.43 264.99,-34.21 289.51,-24.41"/>
<polygon fill="#63b8ff" stroke="#63b8ff" points="290.71,-27.7 298.7,-20.74 288.12,-21.2 290.71,-27.7"/>
</a>
</g>
</g>
</g>
</svg>
