<?xml version="1.0" encoding="UTF-8" standalone="no"?>
<!DOCTYPE svg PUBLIC "-//W3C//DTD SVG 1.1//EN"
 "http://www.w3.org/Graphics/SVG/1.1/DTD/svg11.dtd">
<!-- Generated by graphviz version 12.2.1 (0)
 -->
<!-- Title: TEST_F Pages: 1 -->
<svg width="985pt" height="118pt"
 viewBox="0.00 0.00 984.50 118.12" xmlns="http://www.w3.org/2000/svg" xmlns:xlink="http://www.w3.org/1999/xlink">
<g id="graph0" class="graph" transform="scale(1 1) rotate(0) translate(4 114.12)">
<title>TEST_F</title>
<!-- Node1 -->
<g id="Node000001" class="node">
<title>Node1</title>
<g id="a_Node000001"><a xlink:title=" ">
<polygon fill="#999999" stroke="#666666" points="51.25,-52.12 0,-52.12 0,-31.38 51.25,-31.38 51.25,-52.12"/>
<text text-anchor="middle" x="25.62" y="-38.62" font-family="Helvetica,sans-Serif" font-size="10.00">TEST_F</text>
</a>
</g>
</g>
<!-- Node2 -->
<g id="Node000002" class="node">
<title>Node2</title>
<g id="a_Node000002"><a xlink:href="classConsoleLogger.html#ab610c1dfc5564e00841dfeae547f836f" target="_top" xlink:title="Log an info message.">
<polygon fill="white" stroke="#666666" points="230.38,-72.12 117.62,-72.12 117.62,-51.38 230.38,-51.38 230.38,-72.12"/>
<text text-anchor="middle" x="174" y="-58.62" font-family="Helvetica,sans-Serif" font-size="10.00">ConsoleLogger::info</text>
</a>
</g>
</g>
<!-- Node1&#45;&gt;Node2 -->
<g id="edge1_Node000001_Node000002" class="edge">
<title>Node1&#45;&gt;Node2</title>
<g id="a_edge1_Node000001_Node000002"><a xlink:title=" ">
<path fill="none" stroke="#63b8ff" d="M51.46,-45.14C66.52,-47.2 86.54,-49.94 105.98,-52.59"/>
<polygon fill="#63b8ff" stroke="#63b8ff" points="105.43,-56.05 115.81,-53.94 106.38,-49.11 105.43,-56.05"/>
</a>
</g>
</g>
<!-- Node8 -->
<g id="Node000008" class="node">
<title>Node8</title>
<g id="a_Node000008"><a xlink:href="classConsoleLogger.html#add4cfcb48e31fc7223fefc343ce324b1" target="_top" xlink:title="Set the Header Name object.">
<polygon fill="white" stroke="#666666" points="260.75,-33.12 87.25,-33.12 87.25,-12.38 260.75,-12.38 260.75,-33.12"/>
<text text-anchor="middle" x="174" y="-19.62" font-family="Helvetica,sans-Serif" font-size="10.00">ConsoleLogger::setHeaderName</text>
</a>
</g>
</g>
<!-- Node1&#45;&gt;Node8 -->
<g id="edge8_Node000001_Node000008" class="edge">
<title>Node1&#45;&gt;Node8</title>
<g id="a_edge8_Node000001_Node000008"><a xlink:title=" ">
<path fill="none" stroke="#63b8ff" d="M51.46,-38.53C59.28,-37.51 68.43,-36.32 78.15,-35.06"/>
<polygon fill="#63b8ff" stroke="#63b8ff" points="78.35,-38.57 87.82,-33.81 77.45,-31.62 78.35,-38.57"/>
</a>
</g>
</g>
<!-- Node3 -->
<g id="Node000003" class="node">
<title>Node3</title>
<g id="a_Node000003"><a xlink:href="classConsoleLogger.html#a31696856245b018e9645c614683ba037" target="_top" xlink:title="Logs a message with a specified level to the console and optionally to a file.">
<polygon fill="white" stroke="#666666" points="405.75,-72.12 296.75,-72.12 296.75,-51.38 405.75,-51.38 405.75,-72.12"/>
<text text-anchor="middle" x="351.25" y="-58.62" font-family="Helvetica,sans-Serif" font-size="10.00">ConsoleLogger::log</text>
</a>
</g>
</g>
<!-- Node2&#45;&gt;Node3 -->
<g id="edge2_Node000002_Node000003" class="edge">
<title>Node2&#45;&gt;Node3</title>
<g id="a_edge2_Node000002_Node000003"><a xlink:title=" ">
<path fill="none" stroke="#63b8ff" d="M230.45,-61.75C247.81,-61.75 267.12,-61.75 285.08,-61.75"/>
<polygon fill="#63b8ff" stroke="#63b8ff" points="284.85,-65.25 294.85,-61.75 284.85,-58.25 284.85,-65.25"/>
</a>
</g>
</g>
<!-- Node4 -->
<g id="Node000004" class="node">
<title>Node4</title>
<g id="a_Node000004"><a xlink:href="classConsoleLogger.html#a5d533abe0114989d4997b6dabfe4687c" target="_top" xlink:title="Convert a logging level to its string representation.">
<polygon fill="white" stroke="#666666" points="598.75,-110.12 441.75,-110.12 441.75,-89.38 598.75,-89.38 598.75,-110.12"/>
<text text-anchor="middle" x="520.25" y="-96.62" font-family="Helvetica,sans-Serif" font-size="10.00">ConsoleLogger::levelToString</text>
</a>
</g>
</g>
<!-- Node3&#45;&gt;Node4 -->
<g id="edge3_Node000003_Node000004" class="edge">
<title>Node3&#45;&gt;Node4</title>
<g id="a_edge3_Node000003_Node000004"><a xlink:title=" ">
<path fill="none" stroke="#63b8ff" d="M399.66,-72.54C418.61,-76.85 440.63,-81.86 460.58,-86.4"/>
<polygon fill="#63b8ff" stroke="#63b8ff" points="459.72,-89.79 470.25,-88.6 461.27,-82.97 459.72,-89.79"/>
</a>
</g>
</g>
<!-- Node5 -->
<g id="Node000005" class="node">
<title>Node5</title>
<g id="a_Node000005"><a xlink:href="classConsoleLogger.html#a787b42f6e197b60908113326b9a048fa" target="_top" xlink:title="Reset the console color to default.">
<polygon fill="white" stroke="#666666" points="976.5,-55.5 818.75,-55.5 818.75,-22 976.5,-22 976.5,-55.5"/>
<text text-anchor="start" x="826.75" y="-42" font-family="Helvetica,sans-Serif" font-size="10.00">ConsoleLogger::resetConsole</text>
<text text-anchor="middle" x="897.62" y="-29.25" font-family="Helvetica,sans-Serif" font-size="10.00">Color</text>
</a>
</g>
</g>
<!-- Node3&#45;&gt;Node5 -->
<g id="edge4_Node000003_Node000005" class="edge">
<title>Node3&#45;&gt;Node5</title>
<g id="a_edge4_Node000003_Node000005"><a xlink:title=" ">
<path fill="none" stroke="#63b8ff" d="M405.94,-59.48C499.43,-55.53 693.01,-47.35 807.1,-42.53"/>
<polygon fill="#63b8ff" stroke="#63b8ff" points="807.21,-46.03 817.05,-42.11 806.91,-39.04 807.21,-46.03"/>
</a>
</g>
</g>
<!-- Node6 -->
<g id="Node000006" class="node">
<title>Node6</title>
<g id="a_Node000006"><a xlink:href="classConsoleLogger.html#a034b07dd5f02314f42f248eda08fe2b9" target="_top" xlink:title=" ">
<polygon fill="white" stroke="#666666" points="594.25,-33.5 446.25,-33.5 446.25,0 594.25,0 594.25,-33.5"/>
<text text-anchor="start" x="454.25" y="-20" font-family="Helvetica,sans-Serif" font-size="10.00">ConsoleLogger::setConsole</text>
<text text-anchor="middle" x="520.25" y="-7.25" font-family="Helvetica,sans-Serif" font-size="10.00">Color</text>
</a>
</g>
</g>
<!-- Node3&#45;&gt;Node6 -->
<g id="edge5_Node000003_Node000006" class="edge">
<title>Node3&#45;&gt;Node6</title>
<g id="a_edge5_Node000003_Node000006"><a xlink:title=" ">
<path fill="none" stroke="#63b8ff" d="M392.25,-50.97C407.91,-46.75 426.41,-41.77 444.37,-36.93"/>
<polygon fill="#63b8ff" stroke="#63b8ff" points="445.24,-40.32 453.99,-34.34 443.42,-33.56 445.24,-40.32"/>
</a>
</g>
</g>
<!-- Node7 -->
<g id="Node000007" class="node">
<title>Node7</title>
<g id="a_Node000007"><a xlink:href="classConsoleLogger.html#addb2587c7a7fe4e6c213f22f7db385c6" target="_top" xlink:title=" ">
<polygon fill="white" stroke="#666666" points="782.75,-33.5 634.75,-33.5 634.75,0 782.75,0 782.75,-33.5"/>
<text text-anchor="start" x="642.75" y="-20" font-family="Helvetica,sans-Serif" font-size="10.00">ConsoleLogger::setConsole</text>
<text text-anchor="middle" x="708.75" y="-7.25" font-family="Helvetica,sans-Serif" font-size="10.00">ColorUnix</text>
</a>
</g>
</g>
<!-- Node6&#45;&gt;Node7 -->
<g id="edge6_Node000006_Node000007" class="edge">
<title>Node6&#45;&gt;Node7</title>
<g id="a_edge6_Node000006_Node000007"><a xlink:title=" ">
<path fill="none" stroke="#63b8ff" d="M594.69,-16.75C603.97,-16.75 613.52,-16.75 622.95,-16.75"/>
<polygon fill="#63b8ff" stroke="#63b8ff" points="622.86,-20.25 632.86,-16.75 622.86,-13.25 622.86,-20.25"/>
</a>
</g>
</g>
<!-- Node7&#45;&gt;Node5 -->
<g id="edge7_Node000007_Node000005" class="edge">
<title>Node7&#45;&gt;Node5</title>
<g id="a_edge7_Node000007_Node000005"><a xlink:title=" ">
<path fill="none" stroke="#63b8ff" d="M783.07,-25.38C790.93,-26.31 798.98,-27.25 806.99,-28.2"/>
<polygon fill="#63b8ff" stroke="#63b8ff" points="806.43,-31.66 816.77,-29.35 807.25,-24.7 806.43,-31.66"/>
</a>
</g>
</g>
</g>
</svg>
