<?xml version="1.0" encoding="UTF-8" standalone="no"?>
<!DOCTYPE svg PUBLIC "-//W3C//DTD SVG 1.1//EN"
 "http://www.w3.org/Graphics/SVG/1.1/DTD/svg11.dtd">
<!-- Generated by graphviz version 12.2.1 (0)
 -->
<!-- Title: TEST_F Pages: 1 -->
<svg width="621pt" height="64pt"
 viewBox="0.00 0.00 621.00 63.50" xmlns="http://www.w3.org/2000/svg" xmlns:xlink="http://www.w3.org/1999/xlink">
<g id="graph0" class="graph" transform="scale(1 1) rotate(0) translate(4 59.5)">
<title>TEST_F</title>
<!-- Node1 -->
<g id="Node000001" class="node">
<title>Node1</title>
<g id="a_Node000001"><a xlink:title=" ">
<polygon fill="#999999" stroke="#666666" points="51.25,-49.12 0,-49.12 0,-28.38 51.25,-28.38 51.25,-49.12"/>
<text text-anchor="middle" x="25.62" y="-35.62" font-family="Helvetica,sans-Serif" font-size="10.00">TEST_F</text>
</a>
</g>
</g>
<!-- Node2 -->
<g id="Node000002" class="node">
<title>Node2</title>
<g id="a_Node000002"><a xlink:href="classConsoleLogger.html#a787b42f6e197b60908113326b9a048fa" target="_top" xlink:title="Reset the console color to default.">
<polygon fill="white" stroke="#666666" points="613,-55.5 455.25,-55.5 455.25,-22 613,-22 613,-55.5"/>
<text text-anchor="start" x="463.25" y="-42" font-family="Helvetica,sans-Serif" font-size="10.00">ConsoleLogger::resetConsole</text>
<text text-anchor="middle" x="534.12" y="-29.25" font-family="Helvetica,sans-Serif" font-size="10.00">Color</text>
</a>
</g>
</g>
<!-- Node1&#45;&gt;Node2 -->
<g id="edge1_Node000001_Node000002" class="edge">
<title>Node1&#45;&gt;Node2</title>
<g id="a_edge1_Node000001_Node000002"><a xlink:title=" ">
<path fill="none" stroke="#63b8ff" d="M51.68,-40.77C62.6,-41.56 75.55,-42.36 87.25,-42.75 234.73,-47.61 271.72,-45.34 419.25,-42.75 427.2,-42.61 435.47,-42.42 443.75,-42.19"/>
<polygon fill="#63b8ff" stroke="#63b8ff" points="443.63,-45.69 453.52,-41.9 443.42,-38.7 443.63,-45.69"/>
</a>
</g>
</g>
<!-- Node3 -->
<g id="Node000003" class="node">
<title>Node3</title>
<g id="a_Node000003"><a xlink:href="classConsoleLogger.html#a034b07dd5f02314f42f248eda08fe2b9" target="_top" xlink:title=" ">
<polygon fill="white" stroke="#666666" points="235.25,-33.5 87.25,-33.5 87.25,0 235.25,0 235.25,-33.5"/>
<text text-anchor="start" x="95.25" y="-20" font-family="Helvetica,sans-Serif" font-size="10.00">ConsoleLogger::setConsole</text>
<text text-anchor="middle" x="161.25" y="-7.25" font-family="Helvetica,sans-Serif" font-size="10.00">Color</text>
</a>
</g>
</g>
<!-- Node1&#45;&gt;Node3 -->
<g id="edge2_Node000001_Node000003" class="edge">
<title>Node1&#45;&gt;Node3</title>
<g id="a_edge2_Node000001_Node000003"><a xlink:title=" ">
<path fill="none" stroke="#63b8ff" d="M51.45,-34.66C58.66,-33.48 66.98,-32.11 75.73,-30.66"/>
<polygon fill="#63b8ff" stroke="#63b8ff" points="76.21,-34.13 85.51,-29.05 75.08,-27.23 76.21,-34.13"/>
</a>
</g>
</g>
<!-- Node4 -->
<g id="Node000004" class="node">
<title>Node4</title>
<g id="a_Node000004"><a xlink:href="classConsoleLogger.html#addb2587c7a7fe4e6c213f22f7db385c6" target="_top" xlink:title=" ">
<polygon fill="white" stroke="#666666" points="419.25,-33.5 271.25,-33.5 271.25,0 419.25,0 419.25,-33.5"/>
<text text-anchor="start" x="279.25" y="-20" font-family="Helvetica,sans-Serif" font-size="10.00">ConsoleLogger::setConsole</text>
<text text-anchor="middle" x="345.25" y="-7.25" font-family="Helvetica,sans-Serif" font-size="10.00">ColorUnix</text>
</a>
</g>
</g>
<!-- Node3&#45;&gt;Node4 -->
<g id="edge3_Node000003_Node000004" class="edge">
<title>Node3&#45;&gt;Node4</title>
<g id="a_edge3_Node000003_Node000004"><a xlink:title=" ">
<path fill="none" stroke="#63b8ff" d="M235.49,-16.75C243.41,-16.75 251.52,-16.75 259.56,-16.75"/>
<polygon fill="#63b8ff" stroke="#63b8ff" points="259.35,-20.25 269.35,-16.75 259.35,-13.25 259.35,-20.25"/>
</a>
</g>
</g>
<!-- Node4&#45;&gt;Node2 -->
<g id="edge4_Node000004_Node000002" class="edge">
<title>Node4&#45;&gt;Node2</title>
<g id="a_edge4_Node000004_Node000002"><a xlink:title=" ">
<path fill="none" stroke="#63b8ff" d="M419.57,-25.38C427.43,-26.31 435.48,-27.25 443.49,-28.2"/>
<polygon fill="#63b8ff" stroke="#63b8ff" points="442.93,-31.66 453.27,-29.35 443.75,-24.7 442.93,-31.66"/>
</a>
</g>
</g>
</g>
</svg>
