<?xml version="1.0" encoding="UTF-8" standalone="no"?>
<!DOCTYPE svg PUBLIC "-//W3C//DTD SVG 1.1//EN"
 "http://www.w3.org/Graphics/SVG/1.1/DTD/svg11.dtd">
<!-- Generated by graphviz version 12.2.1 (0)
 -->
<!-- Title: tests/ConsoleLoggerTest.cpp Pages: 1 -->
<!--zoomable 212 -->

<svg id="main" version="1.1" xmlns="http://www.w3.org/2000/svg" xmlns:xlink="http://www.w3.org/1999/xlink" xml:space="preserve" onload="init(evt)">

<style type="text/css"><![CDATA[
.node, .edge {opacity: 0.7;}
.node.selected, .edge.selected {opacity: 1;}
.edge:hover path { stroke: red; }
.edge:hover polygon { stroke: red; fill: red; }
]]></style>

<defs>
  <circle id="rim" cx="0" cy="0" r="7"/>
  <circle id="rim2" cx="0" cy="0" r="3.5"/>
  <g id="zoomPlus">
    <use xlink:href="#rim" fill="#404040"><set attributeName="fill" to="#808080" begin="zoomplus.mouseover" end="zoomplus.mouseout"/></use>
    <path d="M-4,0h8M0,-4v8" fill="none" stroke="white" stroke-width="1.5" pointer-events="none"/>
  </g>
  <g id="zoomMin">
    <use xlink:href="#rim" fill="#404040"><set attributeName="fill" to="#808080" begin="zoomminus.mouseover" end="zoomminus.mouseout"/></use>
    <path d="M-4,0h8" fill="none" stroke="white" stroke-width="1.5" pointer-events="none"/>
  </g>
  <g id="arrowUp" transform="translate(30 24)">
    <use xlink:href="#rim"/>
    <path pointer-events="none" fill="none" stroke="white" stroke-width="1.5" d="M0,-3.0v7 M-2.5,-0.5L0,-3.0L2.5,-0.5"/>
  </g>
  <g id="arrowRight" transform="rotate(90) translate(36 -43)">
    <use xlink:href="#rim"/>
    <path pointer-events="none" fill="none" stroke="white" stroke-width="1.5" d="M0,-3.0v7 M-2.5,-0.5L0,-3.0L2.5,-0.5"/>
  </g>
  <g id="arrowDown" transform="rotate(180) translate(-30 -48)">
    <use xlink:href="#rim"/>
    <path pointer-events="none" fill="none" stroke="white" stroke-width="1.5" d="M0,-3.0v7 M-2.5,-0.5L0,-3.0L2.5,-0.5"/>
  </g>
  <g id="arrowLeft" transform="rotate(270) translate(-36 17)">
    <use xlink:href="#rim"/>
    <path pointer-events="none" fill="none" stroke="white" stroke-width="1.5" d="M0,-3.0v7 M-2.5,-0.5L0,-3.0L2.5,-0.5"/>
  </g>
  <g id="resetDef">
    <use xlink:href="#rim2" fill="#404040"><set attributeName="fill" to="#808080" begin="reset.mouseover" end="reset.mouseout"/></use>
  </g>
</defs>
<script type="application/ecmascript">
var viewWidth = 942;
var viewHeight = 212;
var sectionId = 'dynsection-0';
</script>
<script type="application/ecmascript" xlink:href="svg.min.js"/>
<svg id="graph" class="graph">
<g id="viewport">
<title>tests/ConsoleLoggerTest.cpp</title>
<!-- Node1 -->
<g id="Node000001" class="node">
<title>Node1</title>
<g id="a_Node000001"><a xlink:title=" ">
<polygon fill="#999999" stroke="#666666" points="819.88,-203.75 665.12,-203.75 665.12,-183 819.88,-183 819.88,-203.75"/>
<text text-anchor="middle" x="742.5" y="-190.25" font-family="Helvetica,sans-Serif" font-size="10.00">tests/ConsoleLoggerTest.cpp</text>
</a>
</g>
</g>
<!-- Node2 -->
<g id="Node000002" class="node">
<title>Node2</title>
<g id="a_Node000002"><a xlink:href="ConsoleLogger_8hpp.html" target="_top" xlink:title=" ">
<polygon fill="white" stroke="#666666" points="430.38,-147 314.62,-147 314.62,-113.5 430.38,-113.5 430.38,-147"/>
<text text-anchor="start" x="322.62" y="-133.5" font-family="Helvetica,sans-Serif" font-size="10.00">../src/lib/Utils/Logger</text>
<text text-anchor="middle" x="372.5" y="-120.75" font-family="Helvetica,sans-Serif" font-size="10.00">/ConsoleLogger.hpp</text>
</a>
</g>
</g>
<!-- Node1&#45;&gt;Node2 -->
<g id="edge1_Node000001_Node000002" class="edge">
<title>Node1&#45;&gt;Node2</title>
<g id="a_edge1_Node000001_Node000002"><a xlink:title=" ">
<path fill="none" stroke="#63b8ff" d="M683.05,-182.55C617.26,-171.69 511.36,-154.19 441.84,-142.7"/>
<polygon fill="#63b8ff" stroke="#63b8ff" points="442.51,-139.27 432.07,-141.09 441.37,-146.17 442.51,-139.27"/>
</a>
</g>
</g>
<!-- Node6 -->
<g id="Node000006" class="node">
<title>Node6</title>
<g id="a_Node000006"><a xlink:title=" ">
<polygon fill="#e0e0e0" stroke="#999999" points="605.12,-20.75 547.88,-20.75 547.88,0 605.12,0 605.12,-20.75"/>
<text text-anchor="middle" x="576.5" y="-7.25" font-family="Helvetica,sans-Serif" font-size="10.00">memory</text>
</a>
</g>
</g>
<!-- Node1&#45;&gt;Node6 -->
<g id="edge22_Node000001_Node000006" class="edge">
<title>Node1&#45;&gt;Node6</title>
<g id="a_edge22_Node000001_Node000006"><a xlink:title=" ">
<path fill="none" stroke="#63b8ff" d="M746.22,-182.58C754.72,-158.38 772.68,-94.91 743.5,-56.75 728.17,-36.7 661.05,-23.43 616.71,-16.67"/>
<polygon fill="#63b8ff" stroke="#63b8ff" points="617.32,-13.22 606.92,-15.23 616.3,-20.15 617.32,-13.22"/>
</a>
</g>
</g>
<!-- Node9 -->
<g id="Node000009" class="node">
<title>Node9</title>
<g id="a_Node000009"><a xlink:title=" ">
<polygon fill="#e0e0e0" stroke="#999999" points="49,-77.5 0,-77.5 0,-56.75 49,-56.75 49,-77.5"/>
<text text-anchor="middle" x="24.5" y="-64" font-family="Helvetica,sans-Serif" font-size="10.00">chrono</text>
</a>
</g>
</g>
<!-- Node1&#45;&gt;Node9 -->
<g id="edge19_Node000001_Node000009" class="edge">
<title>Node1&#45;&gt;Node9</title>
<g id="a_edge19_Node000001_Node000009"><a xlink:title=" ">
<path fill="none" stroke="#63b8ff" d="M664.96,-188.31C577.14,-182.78 430.07,-170.74 305.5,-147 215.77,-129.9 113.07,-97.77 60.16,-80.26"/>
<polygon fill="#63b8ff" stroke="#63b8ff" points="61.38,-76.97 50.78,-77.13 59.16,-83.61 61.38,-76.97"/>
</a>
</g>
</g>
<!-- Node10 -->
<g id="Node000010" class="node">
<title>Node10</title>
<g id="a_Node000010"><a xlink:title=" ">
<polygon fill="#e0e0e0" stroke="#999999" points="734.62,-77.5 680.38,-77.5 680.38,-56.75 734.62,-56.75 734.62,-77.5"/>
<text text-anchor="middle" x="707.5" y="-64" font-family="Helvetica,sans-Serif" font-size="10.00">fstream</text>
</a>
</g>
</g>
<!-- Node1&#45;&gt;Node10 -->
<g id="edge20_Node000001_Node000010" class="edge">
<title>Node1&#45;&gt;Node10</title>
<g id="a_edge20_Node000001_Node000010"><a xlink:title=" ">
<path fill="none" stroke="#63b8ff" d="M739.75,-182.63C734.08,-162.48 720.96,-115.9 713.31,-88.76"/>
<polygon fill="#63b8ff" stroke="#63b8ff" points="716.72,-87.96 710.64,-79.29 709.99,-89.86 716.72,-87.96"/>
</a>
</g>
</g>
<!-- Node17 -->
<g id="Node000017" class="node">
<title>Node17</title>
<g id="a_Node000017"><a xlink:title=" ">
<polygon fill="#e0e0e0" stroke="#999999" points="868.25,-140.62 790.75,-140.62 790.75,-119.88 868.25,-119.88 868.25,-140.62"/>
<text text-anchor="middle" x="829.5" y="-127.12" font-family="Helvetica,sans-Serif" font-size="10.00">gtest/gtest.h</text>
</a>
</g>
</g>
<!-- Node1&#45;&gt;Node17 -->
<g id="edge21_Node000001_Node000017" class="edge">
<title>Node1&#45;&gt;Node17</title>
<g id="a_edge21_Node000001_Node000017"><a xlink:title=" ">
<path fill="none" stroke="#63b8ff" d="M756.48,-182.55C769.92,-173.11 790.49,-158.66 806.38,-147.5"/>
<polygon fill="#63b8ff" stroke="#63b8ff" points="808.15,-150.53 814.32,-141.92 804.12,-144.8 808.15,-150.53"/>
</a>
</g>
</g>
<!-- Node18 -->
<g id="Node000018" class="node">
<title>Node18</title>
<g id="a_Node000018"><a xlink:title=" ">
<polygon fill="#e0e0e0" stroke="#999999" points="934.25,-140.62 886.75,-140.62 886.75,-119.88 934.25,-119.88 934.25,-140.62"/>
<text text-anchor="middle" x="910.5" y="-127.12" font-family="Helvetica,sans-Serif" font-size="10.00">thread</text>
</a>
</g>
</g>
<!-- Node1&#45;&gt;Node18 -->
<g id="edge23_Node000001_Node000018" class="edge">
<title>Node1&#45;&gt;Node18</title>
<g id="a_edge23_Node000001_Node000018"><a xlink:title=" ">
<path fill="none" stroke="#63b8ff" d="M775.36,-182.55C802.95,-174.02 843.24,-160.87 877.5,-147 878.62,-146.55 879.75,-146.07 880.89,-145.59"/>
<polygon fill="#63b8ff" stroke="#63b8ff" points="882.07,-148.9 889.75,-141.6 879.2,-142.51 882.07,-148.9"/>
</a>
</g>
</g>
<!-- Node3 -->
<g id="Node000003" class="node">
<title>Node3</title>
<g id="a_Node000003"><a xlink:href="ILogger_8hpp.html" target="_top" xlink:title=" ">
<polygon fill="white" stroke="#666666" points="288.62,-77.5 216.38,-77.5 216.38,-56.75 288.62,-56.75 288.62,-77.5"/>
<text text-anchor="middle" x="252.5" y="-64" font-family="Helvetica,sans-Serif" font-size="10.00">ILogger.hpp</text>
</a>
</g>
</g>
<!-- Node2&#45;&gt;Node3 -->
<g id="edge2_Node000002_Node000003" class="edge">
<title>Node2&#45;&gt;Node3</title>
<g id="a_edge2_Node000002_Node000003"><a xlink:title=" ">
<path fill="none" stroke="#63b8ff" d="M340.66,-113.03C322.4,-103.73 299.65,-92.14 281.83,-83.06"/>
<polygon fill="#63b8ff" stroke="#63b8ff" points="283.57,-80.02 273.07,-78.6 280.39,-86.26 283.57,-80.02"/>
</a>
</g>
</g>
<!-- Node4 -->
<g id="Node000004" class="node">
<title>Node4</title>
<g id="a_Node000004"><a xlink:title=" ">
<polygon fill="#e0e0e0" stroke="#999999" points="142.62,-20.75 76.38,-20.75 76.38,0 142.62,0 142.62,-20.75"/>
<text text-anchor="middle" x="109.5" y="-7.25" font-family="Helvetica,sans-Serif" font-size="10.00">fmt/core.h</text>
</a>
</g>
</g>
<!-- Node2&#45;&gt;Node4 -->
<g id="edge17_Node000002_Node000004" class="edge">
<title>Node2&#45;&gt;Node4</title>
<g id="a_edge17_Node000002_Node000004"><a xlink:title=" ">
<path fill="none" stroke="#63b8ff" d="M314.43,-118.84C277.79,-110.8 230.23,-97.59 191.5,-77.5 166.8,-64.69 142.5,-43.75 126.84,-28.87"/>
<polygon fill="#63b8ff" stroke="#63b8ff" points="129.37,-26.45 119.77,-21.97 124.49,-31.46 129.37,-26.45"/>
</a>
</g>
</g>
<!-- Node7 -->
<g id="Node000007" class="node">
<title>Node7</title>
<g id="a_Node000007"><a xlink:title=" ">
<polygon fill="#e0e0e0" stroke="#999999" points="216.38,-20.75 160.62,-20.75 160.62,0 216.38,0 216.38,-20.75"/>
<text text-anchor="middle" x="188.5" y="-7.25" font-family="Helvetica,sans-Serif" font-size="10.00">sstream</text>
</a>
</g>
</g>
<!-- Node2&#45;&gt;Node7 -->
<g id="edge14_Node000002_Node000007" class="edge">
<title>Node2&#45;&gt;Node7</title>
<g id="a_edge14_Node000002_Node000007"><a xlink:title=" ">
<path fill="none" stroke="#63b8ff" d="M314.15,-124.68C278.84,-118.92 235.39,-106.07 207.5,-77.5 195.76,-65.47 191.18,-46.68 189.44,-32.19"/>
<polygon fill="#63b8ff" stroke="#63b8ff" points="192.94,-32.06 188.66,-22.37 185.97,-32.61 192.94,-32.06"/>
</a>
</g>
</g>
<!-- Node8 -->
<g id="Node000008" class="node">
<title>Node8</title>
<g id="a_Node000008"><a xlink:title=" ">
<polygon fill="#e0e0e0" stroke="#999999" points="344.38,-20.75 300.62,-20.75 300.62,0 344.38,0 344.38,-20.75"/>
<text text-anchor="middle" x="322.5" y="-7.25" font-family="Helvetica,sans-Serif" font-size="10.00">string</text>
</a>
</g>
</g>
<!-- Node2&#45;&gt;Node8 -->
<g id="edge15_Node000002_Node000008" class="edge">
<title>Node2&#45;&gt;Node8</title>
<g id="a_edge15_Node000002_Node000008"><a xlink:title=" ">
<path fill="none" stroke="#63b8ff" d="M358.2,-113.11C350.35,-103.42 341.1,-90.48 335.5,-77.5 329.32,-63.17 326.05,-45.83 324.33,-32.49"/>
<polygon fill="#63b8ff" stroke="#63b8ff" points="327.83,-32.25 323.29,-22.68 320.87,-32.99 327.83,-32.25"/>
</a>
</g>
</g>
<!-- Node2&#45;&gt;Node9 -->
<g id="edge8_Node000002_Node000009" class="edge">
<title>Node2&#45;&gt;Node9</title>
<g id="a_edge8_Node000002_Node000009"><a xlink:title=" ">
<path fill="none" stroke="#63b8ff" d="M314.35,-121.72C253.27,-113.36 154.24,-98.53 60.41,-77.96"/>
<polygon fill="#63b8ff" stroke="#63b8ff" points="61.29,-74.58 50.77,-75.82 59.77,-81.41 61.29,-74.58"/>
</a>
</g>
</g>
<!-- Node2&#45;&gt;Node10 -->
<g id="edge9_Node000002_Node000010" class="edge">
<title>Node2&#45;&gt;Node10</title>
<g id="a_edge9_Node000002_Node000010"><a xlink:title=" ">
<path fill="none" stroke="#63b8ff" d="M430.66,-120.66C488.69,-111.75 580.62,-96.75 669,-77.91"/>
<polygon fill="#63b8ff" stroke="#63b8ff" points="669.52,-81.37 678.56,-75.85 668.05,-74.53 669.52,-81.37"/>
</a>
</g>
</g>
<!-- Node11 -->
<g id="Node000011" class="node">
<title>Node11</title>
<g id="a_Node000011"><a xlink:title=" ">
<polygon fill="#e0e0e0" stroke="#999999" points="400.38,-77.5 344.62,-77.5 344.62,-56.75 400.38,-56.75 400.38,-77.5"/>
<text text-anchor="middle" x="372.5" y="-64" font-family="Helvetica,sans-Serif" font-size="10.00">iomanip</text>
</a>
</g>
</g>
<!-- Node2&#45;&gt;Node11 -->
<g id="edge10_Node000002_Node000011" class="edge">
<title>Node2&#45;&gt;Node11</title>
<g id="a_edge10_Node000002_Node000011"><a xlink:title=" ">
<path fill="none" stroke="#63b8ff" d="M372.5,-113.19C372.5,-105.85 372.5,-97.07 372.5,-89.21"/>
<polygon fill="#63b8ff" stroke="#63b8ff" points="376,-89.48 372.5,-79.48 369,-89.48 376,-89.48"/>
</a>
</g>
</g>
<!-- Node12 -->
<g id="Node000012" class="node">
<title>Node12</title>
<g id="a_Node000012"><a xlink:title=" ">
<polygon fill="#e0e0e0" stroke="#999999" points="478.25,-77.5 418.75,-77.5 418.75,-56.75 478.25,-56.75 478.25,-77.5"/>
<text text-anchor="middle" x="448.5" y="-64" font-family="Helvetica,sans-Serif" font-size="10.00">iostream</text>
</a>
</g>
</g>
<!-- Node2&#45;&gt;Node12 -->
<g id="edge11_Node000002_Node000012" class="edge">
<title>Node2&#45;&gt;Node12</title>
<g id="a_edge11_Node000002_Node000012"><a xlink:title=" ">
<path fill="none" stroke="#63b8ff" d="M392.47,-113.19C403.22,-104.55 416.47,-93.88 427.39,-85.1"/>
<polygon fill="#63b8ff" stroke="#63b8ff" points="429.48,-87.91 435.08,-78.92 425.1,-82.46 429.48,-87.91"/>
</a>
</g>
</g>
<!-- Node13 -->
<g id="Node000013" class="node">
<title>Node13</title>
<g id="a_Node000013"><a xlink:title=" ">
<polygon fill="#e0e0e0" stroke="#999999" points="534.38,-77.5 496.62,-77.5 496.62,-56.75 534.38,-56.75 534.38,-77.5"/>
<text text-anchor="middle" x="515.5" y="-64" font-family="Helvetica,sans-Serif" font-size="10.00">map</text>
</a>
</g>
</g>
<!-- Node2&#45;&gt;Node13 -->
<g id="edge12_Node000002_Node000013" class="edge">
<title>Node2&#45;&gt;Node13</title>
<g id="a_edge12_Node000002_Node000013"><a xlink:title=" ">
<path fill="none" stroke="#63b8ff" d="M410.45,-113.03C434.09,-102.92 464.06,-90.11 485.93,-80.76"/>
<polygon fill="#63b8ff" stroke="#63b8ff" points="487.05,-84.09 494.87,-76.95 484.29,-77.66 487.05,-84.09"/>
</a>
</g>
</g>
<!-- Node14 -->
<g id="Node000014" class="node">
<title>Node14</title>
<g id="a_Node000014"><a xlink:title=" ">
<polygon fill="#e0e0e0" stroke="#999999" points="600.25,-77.5 552.75,-77.5 552.75,-56.75 600.25,-56.75 600.25,-77.5"/>
<text text-anchor="middle" x="576.5" y="-64" font-family="Helvetica,sans-Serif" font-size="10.00">mutex</text>
</a>
</g>
</g>
<!-- Node2&#45;&gt;Node14 -->
<g id="edge13_Node000002_Node000014" class="edge">
<title>Node2&#45;&gt;Node14</title>
<g id="a_edge13_Node000002_Node000014"><a xlink:title=" ">
<path fill="none" stroke="#63b8ff" d="M426.63,-113.03C463.01,-102.13 509.89,-88.09 541.45,-78.63"/>
<polygon fill="#63b8ff" stroke="#63b8ff" points="542.31,-82.02 550.88,-75.8 540.3,-75.32 542.31,-82.02"/>
</a>
</g>
</g>
<!-- Node15 -->
<g id="Node000015" class="node">
<title>Node15</title>
<g id="a_Node000015"><a xlink:title=" ">
<polygon fill="#e0e0e0" stroke="#999999" points="662.75,-77.5 618.25,-77.5 618.25,-56.75 662.75,-56.75 662.75,-77.5"/>
<text text-anchor="middle" x="640.5" y="-64" font-family="Helvetica,sans-Serif" font-size="10.00">utility</text>
</a>
</g>
</g>
<!-- Node2&#45;&gt;Node15 -->
<g id="edge16_Node000002_Node000015" class="edge">
<title>Node2&#45;&gt;Node15</title>
<g id="a_edge16_Node000002_Node000015"><a xlink:title=" ">
<path fill="none" stroke="#63b8ff" d="M430.76,-117.86C476.38,-108.64 541.64,-94.79 606.96,-78.02"/>
<polygon fill="#63b8ff" stroke="#63b8ff" points="607.6,-81.47 616.41,-75.57 605.85,-74.69 607.6,-81.47"/>
</a>
</g>
</g>
<!-- Node16 -->
<g id="Node000016" class="node">
<title>Node16</title>
<g id="a_Node000016"><a xlink:title=" ">
<polygon fill="#e0e0e0" stroke="#999999" points="122,-77.5 67,-77.5 67,-56.75 122,-56.75 122,-77.5"/>
<text text-anchor="middle" x="94.5" y="-64" font-family="Helvetica,sans-Serif" font-size="10.00">unistd.h</text>
</a>
</g>
</g>
<!-- Node2&#45;&gt;Node16 -->
<g id="edge18_Node000002_Node000016" class="edge">
<title>Node2&#45;&gt;Node16</title>
<g id="a_edge18_Node000002_Node000016"><a xlink:title=" ">
<path fill="none" stroke="#63b8ff" d="M314.3,-116.55C266.52,-106.11 197.11,-90.91 136.5,-77.5 135.33,-77.24 134.15,-76.98 132.95,-76.71"/>
<polygon fill="#63b8ff" stroke="#63b8ff" points="134.06,-73.37 123.54,-74.62 132.54,-80.21 134.06,-73.37"/>
</a>
</g>
</g>
<!-- Node3&#45;&gt;Node4 -->
<g id="edge3_Node000003_Node000004" class="edge">
<title>Node3&#45;&gt;Node4</title>
<g id="a_edge3_Node000003_Node000004"><a xlink:title=" ">
<path fill="none" stroke="#63b8ff" d="M226.93,-56.34C204.26,-47.66 170.9,-34.88 145.52,-25.17"/>
<polygon fill="#63b8ff" stroke="#63b8ff" points="146.85,-21.93 136.26,-21.62 144.35,-28.46 146.85,-21.93"/>
</a>
</g>
</g>
<!-- Node5 -->
<g id="Node000005" class="node">
<title>Node5</title>
<g id="a_Node000005"><a xlink:title=" ">
<polygon fill="#e0e0e0" stroke="#999999" points="283,-20.75 234,-20.75 234,0 283,0 283,-20.75"/>
<text text-anchor="middle" x="258.5" y="-7.25" font-family="Helvetica,sans-Serif" font-size="10.00">cstdint</text>
</a>
</g>
</g>
<!-- Node3&#45;&gt;Node5 -->
<g id="edge4_Node000003_Node000005" class="edge">
<title>Node3&#45;&gt;Node5</title>
<g id="a_edge4_Node000003_Node000005"><a xlink:title=" ">
<path fill="none" stroke="#63b8ff" d="M253.57,-56.34C254.3,-49.72 255.28,-40.72 256.18,-32.52"/>
<polygon fill="#63b8ff" stroke="#63b8ff" points="259.66,-32.9 257.27,-22.58 252.7,-32.14 259.66,-32.9"/>
</a>
</g>
</g>
<!-- Node3&#45;&gt;Node6 -->
<g id="edge5_Node000003_Node000006" class="edge">
<title>Node3&#45;&gt;Node6</title>
<g id="a_edge5_Node000003_Node000006"><a xlink:title=" ">
<path fill="none" stroke="#63b8ff" d="M289.04,-59.95C350.27,-49.6 473.11,-28.85 536.55,-18.13"/>
<polygon fill="#63b8ff" stroke="#63b8ff" points="536.9,-21.62 546.18,-16.5 535.74,-14.71 536.9,-21.62"/>
</a>
</g>
</g>
<!-- Node3&#45;&gt;Node7 -->
<g id="edge6_Node000003_Node000007" class="edge">
<title>Node3&#45;&gt;Node7</title>
<g id="a_edge6_Node000003_Node000007"><a xlink:title=" ">
<path fill="none" stroke="#63b8ff" d="M241.06,-56.34C232.05,-48.63 219.27,-37.7 208.57,-28.54"/>
<polygon fill="#63b8ff" stroke="#63b8ff" points="210.87,-25.9 200.99,-22.06 206.32,-31.22 210.87,-25.9"/>
</a>
</g>
</g>
<!-- Node3&#45;&gt;Node8 -->
<g id="edge7_Node000003_Node000008" class="edge">
<title>Node3&#45;&gt;Node8</title>
<g id="a_edge7_Node000003_Node000008"><a xlink:title=" ">
<path fill="none" stroke="#63b8ff" d="M265.01,-56.34C275.07,-48.47 289.41,-37.25 301.26,-27.99"/>
<polygon fill="#63b8ff" stroke="#63b8ff" points="303.18,-30.93 308.9,-22.01 298.87,-25.41 303.18,-30.93"/>
</a>
</g>
</g>
</g>
</svg>

<g id="navigator" transform="translate(0 0)" fill="#404254">
  <rect fill="#f2f5e9" fill-opacity="0.5" stroke="#606060" stroke-width=".5" x="0" y="0" width="60" height="60"/>
  <use id="zoomplus" xlink:href="#zoomPlus" x="17" y="9" onmousedown="handleZoom(evt,'in')"/>
  <use id="zoomminus" xlink:href="#zoomMin" x="42" y="9" onmousedown="handleZoom(evt,'out')"/>
  <use id="reset" xlink:href="#resetDef" x="30" y="36" onmousedown="handleReset()"/>
   <use id="arrowup" xlink:href="#arrowUp" x="0" y="0" onmousedown="handlePan(0,-1)"/>
  <use id="arrowright" xlink:href="#arrowRight" x="0" y="0" onmousedown="handlePan(1,0)"/>
  <use id="arrowdown" xlink:href="#arrowDown" x="0" y="0" onmousedown="handlePan(0,1)"/>
  <use id="arrowleft" xlink:href="#arrowLeft" x="0" y="0" onmousedown="handlePan(-1,0)"/>
</g>
<svg viewBox="0 0 15 15" width="100%" height="30px" preserveAspectRatio="xMaxYMin meet">
 <g id="arrow_out" transform="scale(0.3 0.3)">
  <a xlink:href="ConsoleLoggerTest_8cpp__incl_org.svg" target="_base">
   <rect id="button" ry="5" rx="5" y="6" x="6" height="38" width="38"
        fill="#f2f5e9" fill-opacity="0.5" stroke="#606060" stroke-width="1.0"/>
   <path id="arrow"
     d="M 11.500037,31.436501 C 11.940474,20.09759 22.043105,11.32322 32.158766,21.979434 L 37.068811,17.246167 C 37.068811,17.246167 37.088388,32 37.088388,32 L 22.160133,31.978069 C 22.160133,31.978069 26.997745,27.140456 26.997745,27.140456 C 18.528582,18.264221 13.291696,25.230495 11.500037,31.436501 z"
     style="fill:#404040;"/>
  </a>
 </g>
</svg>

<style type='text/css'>
<![CDATA[
[data-mouse-over-selected='false'] { opacity: 0.7; }
[data-mouse-over-selected='true']  { opacity: 1.0; }
]]>
</style>
<script type="application/ecmascript"><![CDATA[
document.addEventListener('DOMContentLoaded', (event) => {
  highlightEdges();
  highlightAdjacentNodes();
});
]]></script>
</svg>
