<?xml version="1.0" encoding="UTF-8" standalone="no"?>
<!DOCTYPE svg PUBLIC "-//W3C//DTD SVG 1.1//EN"
 "http://www.w3.org/Graphics/SVG/1.1/DTD/svg11.dtd">
<!-- Generated by graphviz version 12.2.1 (0)
 -->
<!-- Title: src/lib/Utils/Json/CustomStringsLoader.hpp Pages: 1 -->
<svg width="736pt" height="225pt"
 viewBox="0.00 0.00 735.62 224.50" xmlns="http://www.w3.org/2000/svg" xmlns:xlink="http://www.w3.org/1999/xlink">
<g id="graph0" class="graph" transform="scale(1 1) rotate(0) translate(4 220.5)">
<title>src/lib/Utils/Json/CustomStringsLoader.hpp</title>
<!-- Node1 -->
<g id="Node000001" class="node">
<title>Node1</title>
<g id="a_Node000001"><a xlink:title=" ">
<polygon fill="#999999" stroke="#666666" points="573.62,-216.5 430.12,-216.5 430.12,-183 573.62,-183 573.62,-216.5"/>
<text text-anchor="start" x="438.12" y="-203" font-family="Helvetica,sans-Serif" font-size="10.00">src/lib/Utils/Json</text>
<text text-anchor="middle" x="501.88" y="-190.25" font-family="Helvetica,sans-Serif" font-size="10.00">/CustomStringsLoader.hpp</text>
</a>
</g>
</g>
<!-- Node2 -->
<g id="Node000002" class="node">
<title>Node2</title>
<g id="a_Node000002"><a xlink:href="IAssetManager_8hpp.html" target="_top" xlink:title=" ">
<polygon fill="white" stroke="#666666" points="586.75,-140.62 417,-140.62 417,-119.88 586.75,-119.88 586.75,-140.62"/>
<text text-anchor="middle" x="501.88" y="-127.12" font-family="Helvetica,sans-Serif" font-size="10.00">Utils/Assets/IAssetManager.hpp</text>
</a>
</g>
</g>
<!-- Node1&#45;&gt;Node2 -->
<g id="edge1_Node000001_Node000002" class="edge">
<title>Node1&#45;&gt;Node2</title>
<g id="a_edge1_Node000001_Node000002"><a xlink:title=" ">
<path fill="none" stroke="#63b8ff" d="M501.88,-182.75C501.88,-173.65 501.88,-162.14 501.88,-152.32"/>
<polygon fill="#63b8ff" stroke="#63b8ff" points="505.38,-152.59 501.88,-142.59 498.38,-152.59 505.38,-152.59"/>
</a>
</g>
</g>
<!-- Node4 -->
<g id="Node000004" class="node">
<title>Node4</title>
<g id="a_Node000004"><a xlink:href="ICustomStringsLoader_8hpp.html" target="_top" xlink:title=" ">
<polygon fill="white" stroke="#666666" points="226.38,-147 87.38,-147 87.38,-113.5 226.38,-113.5 226.38,-147"/>
<text text-anchor="start" x="95.38" y="-133.5" font-family="Helvetica,sans-Serif" font-size="10.00">Utils/Json/ICustomStrings</text>
<text text-anchor="middle" x="156.88" y="-120.75" font-family="Helvetica,sans-Serif" font-size="10.00">Loader.hpp</text>
</a>
</g>
</g>
<!-- Node1&#45;&gt;Node4 -->
<g id="edge3_Node000001_Node000004" class="edge">
<title>Node1&#45;&gt;Node4</title>
<g id="a_edge3_Node000001_Node000004"><a xlink:title=" ">
<path fill="none" stroke="#63b8ff" d="M429.89,-184.84C378.97,-174.98 308.79,-161.34 237.62,-147.34"/>
<polygon fill="#63b8ff" stroke="#63b8ff" points="238.63,-143.97 228.14,-145.47 237.28,-150.84 238.63,-143.97"/>
</a>
</g>
</g>
<!-- Node12 -->
<g id="Node000012" class="node">
<title>Node12</title>
<g id="a_Node000012"><a xlink:href="IJsonSerializer_8hpp.html" target="_top" xlink:title=" ">
<polygon fill="white" stroke="#666666" points="398.88,-140.62 244.88,-140.62 244.88,-119.88 398.88,-119.88 398.88,-140.62"/>
<text text-anchor="middle" x="321.88" y="-127.12" font-family="Helvetica,sans-Serif" font-size="10.00">Utils/Json/IJsonSerializer.hpp</text>
</a>
</g>
</g>
<!-- Node1&#45;&gt;Node12 -->
<g id="edge13_Node000001_Node000012" class="edge">
<title>Node1&#45;&gt;Node12</title>
<g id="a_edge13_Node000001_Node000012"><a xlink:title=" ">
<path fill="none" stroke="#63b8ff" d="M458.76,-182.58C428.23,-171.13 387.72,-155.94 358.71,-145.06"/>
<polygon fill="#63b8ff" stroke="#63b8ff" points="360.2,-141.89 349.61,-141.65 357.75,-148.44 360.2,-141.89"/>
</a>
</g>
</g>
<!-- Node13 -->
<g id="Node000013" class="node">
<title>Node13</title>
<g id="a_Node000013"><a xlink:title=" ">
<polygon fill="#e0e0e0" stroke="#999999" points="662.5,-140.62 605.25,-140.62 605.25,-119.88 662.5,-119.88 662.5,-140.62"/>
<text text-anchor="middle" x="633.88" y="-127.12" font-family="Helvetica,sans-Serif" font-size="10.00">memory</text>
</a>
</g>
</g>
<!-- Node1&#45;&gt;Node13 -->
<g id="edge18_Node000001_Node000013" class="edge">
<title>Node1&#45;&gt;Node13</title>
<g id="a_edge18_Node000001_Node000013"><a xlink:title=" ">
<path fill="none" stroke="#63b8ff" d="M533.49,-182.58C555.15,-171.5 583.67,-156.92 604.78,-146.13"/>
<polygon fill="#63b8ff" stroke="#63b8ff" points="606.11,-149.38 613.42,-141.71 602.92,-143.15 606.11,-149.38"/>
</a>
</g>
</g>
<!-- Node14 -->
<g id="Node000014" class="node">
<title>Node14</title>
<g id="a_Node000014"><a xlink:title=" ">
<polygon fill="#e0e0e0" stroke="#999999" points="727.62,-140.62 680.12,-140.62 680.12,-119.88 727.62,-119.88 727.62,-140.62"/>
<text text-anchor="middle" x="703.88" y="-127.12" font-family="Helvetica,sans-Serif" font-size="10.00">mutex</text>
</a>
</g>
</g>
<!-- Node1&#45;&gt;Node14 -->
<g id="edge19_Node000001_Node000014" class="edge">
<title>Node1&#45;&gt;Node14</title>
<g id="a_edge19_Node000001_Node000014"><a xlink:title=" ">
<path fill="none" stroke="#63b8ff" d="M563.68,-182.54C596.29,-173.34 636.73,-160.89 671.88,-147 672.83,-146.62 673.8,-146.23 674.77,-145.82"/>
<polygon fill="#63b8ff" stroke="#63b8ff" points="676.12,-149.05 683.77,-141.72 673.22,-142.68 676.12,-149.05"/>
</a>
</g>
</g>
<!-- Node3 -->
<g id="Node000003" class="node">
<title>Node3</title>
<g id="a_Node000003"><a xlink:title=" ">
<polygon fill="#e0e0e0" stroke="#999999" points="518.38,-77.5 451.38,-77.5 451.38,-56.75 518.38,-56.75 518.38,-77.5"/>
<text text-anchor="middle" x="484.88" y="-64" font-family="Helvetica,sans-Serif" font-size="10.00">filesystem</text>
</a>
</g>
</g>
<!-- Node2&#45;&gt;Node3 -->
<g id="edge2_Node000002_Node000003" class="edge">
<title>Node2&#45;&gt;Node3</title>
<g id="a_edge2_Node000002_Node000003"><a xlink:title=" ">
<path fill="none" stroke="#63b8ff" d="M499.14,-119.43C496.85,-111.18 493.5,-99.12 490.61,-88.76"/>
<polygon fill="#63b8ff" stroke="#63b8ff" points="494,-87.87 487.95,-79.18 487.26,-89.75 494,-87.87"/>
</a>
</g>
</g>
<!-- Node5 -->
<g id="Node000005" class="node">
<title>Node5</title>
<g id="a_Node000005"><a xlink:href="UtilsError_8hpp.html" target="_top" xlink:title=" ">
<polygon fill="white" stroke="#666666" points="210.62,-77.5 103.12,-77.5 103.12,-56.75 210.62,-56.75 210.62,-77.5"/>
<text text-anchor="middle" x="156.88" y="-64" font-family="Helvetica,sans-Serif" font-size="10.00">Utils/UtilsError.hpp</text>
</a>
</g>
</g>
<!-- Node4&#45;&gt;Node5 -->
<g id="edge4_Node000004_Node000005" class="edge">
<title>Node4&#45;&gt;Node5</title>
<g id="a_edge4_Node000004_Node000005"><a xlink:title=" ">
<path fill="none" stroke="#63b8ff" d="M156.88,-113.19C156.88,-105.85 156.88,-97.07 156.88,-89.21"/>
<polygon fill="#63b8ff" stroke="#63b8ff" points="160.38,-89.48 156.88,-79.48 153.38,-89.48 160.38,-89.48"/>
</a>
</g>
</g>
<!-- Node7 -->
<g id="Node000007" class="node">
<title>Node7</title>
<g id="a_Node000007"><a xlink:title=" ">
<polygon fill="#e0e0e0" stroke="#999999" points="55.75,-20.75 0,-20.75 0,0 55.75,0 55.75,-20.75"/>
<text text-anchor="middle" x="27.88" y="-7.25" font-family="Helvetica,sans-Serif" font-size="10.00">optional</text>
</a>
</g>
</g>
<!-- Node4&#45;&gt;Node7 -->
<g id="edge11_Node000004_Node000007" class="edge">
<title>Node4&#45;&gt;Node7</title>
<g id="a_edge11_Node000004_Node000007"><a xlink:title=" ">
<path fill="none" stroke="#63b8ff" d="M136.3,-113.2C123.78,-103.22 107.61,-89.96 93.88,-77.5 76.53,-61.76 57.76,-42.74 44.69,-29.15"/>
<polygon fill="#63b8ff" stroke="#63b8ff" points="47.47,-27 38.03,-22.19 42.41,-31.83 47.47,-27"/>
</a>
</g>
</g>
<!-- Node9 -->
<g id="Node000009" class="node">
<title>Node9</title>
<g id="a_Node000009"><a xlink:title=" ">
<polygon fill="#e0e0e0" stroke="#999999" points="334.75,-20.75 291,-20.75 291,0 334.75,0 334.75,-20.75"/>
<text text-anchor="middle" x="312.88" y="-7.25" font-family="Helvetica,sans-Serif" font-size="10.00">string</text>
</a>
</g>
</g>
<!-- Node4&#45;&gt;Node9 -->
<g id="edge12_Node000004_Node000009" class="edge">
<title>Node4&#45;&gt;Node9</title>
<g id="a_edge12_Node000004_Node000009"><a xlink:title=" ">
<path fill="none" stroke="#63b8ff" d="M178.24,-113.11C207.91,-90.69 261.29,-50.35 291.15,-27.79"/>
<polygon fill="#63b8ff" stroke="#63b8ff" points="292.88,-30.87 298.75,-22.05 288.66,-25.29 292.88,-30.87"/>
</a>
</g>
</g>
<!-- Node11 -->
<g id="Node000011" class="node">
<title>Node11</title>
<g id="a_Node000011"><a xlink:title=" ">
<polygon fill="#e0e0e0" stroke="#999999" points="376.38,-77.5 267.38,-77.5 267.38,-56.75 376.38,-56.75 376.38,-77.5"/>
<text text-anchor="middle" x="321.88" y="-64" font-family="Helvetica,sans-Serif" font-size="10.00">nlohmann/json.hpp</text>
</a>
</g>
</g>
<!-- Node4&#45;&gt;Node11 -->
<g id="edge10_Node000004_Node000011" class="edge">
<title>Node4&#45;&gt;Node11</title>
<g id="a_edge10_Node000004_Node000011"><a xlink:title=" ">
<path fill="none" stroke="#63b8ff" d="M200.66,-113.03C226.94,-103.29 260,-91.05 284.95,-81.8"/>
<polygon fill="#63b8ff" stroke="#63b8ff" points="285.87,-85.2 294.03,-78.44 283.44,-78.63 285.87,-85.2"/>
</a>
</g>
</g>
<!-- Node6 -->
<g id="Node000006" class="node">
<title>Node6</title>
<g id="a_Node000006"><a xlink:title=" ">
<polygon fill="#e0e0e0" stroke="#999999" points="122.38,-20.75 73.38,-20.75 73.38,0 122.38,0 122.38,-20.75"/>
<text text-anchor="middle" x="97.88" y="-7.25" font-family="Helvetica,sans-Serif" font-size="10.00">cstdint</text>
</a>
</g>
</g>
<!-- Node5&#45;&gt;Node6 -->
<g id="edge5_Node000005_Node000006" class="edge">
<title>Node5&#45;&gt;Node6</title>
<g id="a_edge5_Node000005_Node000006"><a xlink:title=" ">
<path fill="none" stroke="#63b8ff" d="M146.33,-56.34C138.1,-48.71 126.48,-37.92 116.67,-28.82"/>
<polygon fill="#63b8ff" stroke="#63b8ff" points="119.15,-26.34 109.44,-22.11 114.39,-31.48 119.15,-26.34"/>
</a>
</g>
</g>
<!-- Node5&#45;&gt;Node7 -->
<g id="edge6_Node000005_Node000007" class="edge">
<title>Node5&#45;&gt;Node7</title>
<g id="a_edge6_Node000005_Node000007"><a xlink:title=" ">
<path fill="none" stroke="#63b8ff" d="M133.81,-56.34C113.63,-47.77 84.07,-35.23 61.3,-25.56"/>
<polygon fill="#63b8ff" stroke="#63b8ff" points="62.7,-22.35 52.13,-21.67 59.97,-28.8 62.7,-22.35"/>
</a>
</g>
</g>
<!-- Node8 -->
<g id="Node000008" class="node">
<title>Node8</title>
<g id="a_Node000008"><a xlink:title=" ">
<polygon fill="#e0e0e0" stroke="#999999" points="204.88,-20.75 140.88,-20.75 140.88,0 204.88,0 204.88,-20.75"/>
<text text-anchor="middle" x="172.88" y="-7.25" font-family="Helvetica,sans-Serif" font-size="10.00">stdexcept</text>
</a>
</g>
</g>
<!-- Node5&#45;&gt;Node8 -->
<g id="edge7_Node000005_Node000008" class="edge">
<title>Node5&#45;&gt;Node8</title>
<g id="a_edge7_Node000005_Node000008"><a xlink:title=" ">
<path fill="none" stroke="#63b8ff" d="M159.74,-56.34C161.71,-49.56 164.42,-40.3 166.87,-31.94"/>
<polygon fill="#63b8ff" stroke="#63b8ff" points="170.17,-33.11 169.61,-22.53 163.45,-31.15 170.17,-33.11"/>
</a>
</g>
</g>
<!-- Node5&#45;&gt;Node9 -->
<g id="edge8_Node000005_Node000009" class="edge">
<title>Node5&#45;&gt;Node9</title>
<g id="a_edge8_Node000005_Node000009"><a xlink:title=" ">
<path fill="none" stroke="#63b8ff" d="M184.76,-56.34C211.53,-46.94 251.96,-32.75 280.22,-22.84"/>
<polygon fill="#63b8ff" stroke="#63b8ff" points="281.06,-26.25 289.34,-19.63 278.75,-19.64 281.06,-26.25"/>
</a>
</g>
</g>
<!-- Node10 -->
<g id="Node000010" class="node">
<title>Node10</title>
<g id="a_Node000010"><a xlink:title=" ">
<polygon fill="#e0e0e0" stroke="#999999" points="273.12,-20.75 222.62,-20.75 222.62,0 273.12,0 273.12,-20.75"/>
<text text-anchor="middle" x="247.88" y="-7.25" font-family="Helvetica,sans-Serif" font-size="10.00">variant</text>
</a>
</g>
</g>
<!-- Node5&#45;&gt;Node10 -->
<g id="edge9_Node000005_Node000010" class="edge">
<title>Node5&#45;&gt;Node10</title>
<g id="a_edge9_Node000005_Node000010"><a xlink:title=" ">
<path fill="none" stroke="#63b8ff" d="M173.14,-56.34C186.73,-48.16 206.35,-36.36 222.08,-26.9"/>
<polygon fill="#63b8ff" stroke="#63b8ff" points="223.69,-30.01 230.45,-21.86 220.08,-24.02 223.69,-30.01"/>
</a>
</g>
</g>
<!-- Node12&#45;&gt;Node3 -->
<g id="edge15_Node000012_Node000003" class="edge">
<title>Node12&#45;&gt;Node3</title>
<g id="a_edge15_Node000012_Node000003"><a xlink:title=" ">
<path fill="none" stroke="#63b8ff" d="M348.06,-119.43C375.15,-109.27 417.68,-93.32 448.13,-81.9"/>
<polygon fill="#63b8ff" stroke="#63b8ff" points="449.2,-85.24 457.33,-78.45 446.74,-78.69 449.2,-85.24"/>
</a>
</g>
</g>
<!-- Node12&#45;&gt;Node5 -->
<g id="edge14_Node000012_Node000005" class="edge">
<title>Node12&#45;&gt;Node5</title>
<g id="a_edge14_Node000012_Node000005"><a xlink:title=" ">
<path fill="none" stroke="#63b8ff" d="M295.36,-119.43C267.94,-109.27 224.89,-93.32 194.07,-81.9"/>
<polygon fill="#63b8ff" stroke="#63b8ff" points="195.33,-78.64 184.74,-78.45 192.9,-85.2 195.33,-78.64"/>
</a>
</g>
</g>
<!-- Node12&#45;&gt;Node9 -->
<g id="edge17_Node000012_Node000009" class="edge">
<title>Node12&#45;&gt;Node9</title>
<g id="a_edge17_Node000012_Node000009"><a xlink:title=" ">
<path fill="none" stroke="#63b8ff" d="M341.74,-119.56C365.4,-106.6 400.07,-82.28 385.88,-56.75 377.16,-41.07 360.52,-30.1 345.33,-22.89"/>
<polygon fill="#63b8ff" stroke="#63b8ff" points="347.12,-19.85 336.55,-19.08 344.33,-26.27 347.12,-19.85"/>
</a>
</g>
</g>
<!-- Node12&#45;&gt;Node11 -->
<g id="edge16_Node000012_Node000011" class="edge">
<title>Node12&#45;&gt;Node11</title>
<g id="a_edge16_Node000012_Node000011"><a xlink:title=" ">
<path fill="none" stroke="#63b8ff" d="M321.88,-119.43C321.88,-111.27 321.88,-99.38 321.88,-89.1"/>
<polygon fill="#63b8ff" stroke="#63b8ff" points="325.38,-89.23 321.88,-79.23 318.38,-89.23 325.38,-89.23"/>
</a>
</g>
</g>
</g>
</svg>
