<?xml version="1.0" encoding="UTF-8" standalone="no"?>
<!DOCTYPE svg PUBLIC "-//W3C//DTD SVG 1.1//EN"
 "http://www.w3.org/Graphics/SVG/1.1/DTD/svg11.dtd">
<!-- Generated by graphviz version 12.2.1 (0)
 -->
<!-- Title: src/lib/Utils/Filesystem/FileReader.hpp Pages: 1 -->
<svg width="456pt" height="111pt"
 viewBox="0.00 0.00 455.75 111.00" xmlns="http://www.w3.org/2000/svg" xmlns:xlink="http://www.w3.org/1999/xlink">
<g id="graph0" class="graph" transform="scale(1 1) rotate(0) translate(4 107)">
<title>src/lib/Utils/Filesystem/FileReader.hpp</title>
<!-- Node1 -->
<g id="Node000001" class="node">
<title>Node1</title>
<g id="a_Node000001"><a xlink:title=" ">
<polygon fill="#999999" stroke="#666666" points="284,-103 157,-103 157,-69.5 284,-69.5 284,-103"/>
<text text-anchor="start" x="165" y="-89.5" font-family="Helvetica,sans-Serif" font-size="10.00">src/lib/Utils/Filesystem</text>
<text text-anchor="middle" x="220.5" y="-76.75" font-family="Helvetica,sans-Serif" font-size="10.00">/FileReader.hpp</text>
</a>
</g>
</g>
<!-- Node2 -->
<g id="Node000002" class="node">
<title>Node2</title>
<g id="a_Node000002"><a xlink:href="FileReader_8cpp.html" target="_top" xlink:title=" ">
<polygon fill="white" stroke="#666666" points="127,-33.5 0,-33.5 0,0 127,0 127,-33.5"/>
<text text-anchor="start" x="8" y="-20" font-family="Helvetica,sans-Serif" font-size="10.00">src/lib/Utils/Filesystem</text>
<text text-anchor="middle" x="63.5" y="-7.25" font-family="Helvetica,sans-Serif" font-size="10.00">/FileReader.cpp</text>
</a>
</g>
</g>
<!-- Node1&#45;&gt;Node2 -->
<g id="edge1_Node000001_Node000002" class="edge">
<title>Node1&#45;&gt;Node2</title>
<g id="a_edge1_Node000001_Node000002"><a xlink:title=" ">
<path fill="none" stroke="#63b8ff" d="M172.35,-64.55C149.44,-54.7 122.44,-43.09 101.07,-33.9"/>
<polygon fill="#63b8ff" stroke="#63b8ff" points="170.93,-67.75 181.5,-68.48 173.7,-61.32 170.93,-67.75"/>
</a>
</g>
</g>
<!-- Node3 -->
<g id="Node000003" class="node">
<title>Node3</title>
<g id="a_Node000003"><a xlink:href="UtilsFactory_8cpp.html" target="_top" xlink:title=" ">
<polygon fill="white" stroke="#666666" points="295.62,-27.12 145.38,-27.12 145.38,-6.38 295.62,-6.38 295.62,-27.12"/>
<text text-anchor="middle" x="220.5" y="-13.62" font-family="Helvetica,sans-Serif" font-size="10.00">src/lib/Utils/UtilsFactory.cpp</text>
</a>
</g>
</g>
<!-- Node1&#45;&gt;Node3 -->
<g id="edge2_Node000001_Node000003" class="edge">
<title>Node1&#45;&gt;Node3</title>
<g id="a_edge2_Node000001_Node000003"><a xlink:title=" ">
<path fill="none" stroke="#63b8ff" d="M220.5,-57.78C220.5,-47.08 220.5,-35.51 220.5,-27.57"/>
<polygon fill="#63b8ff" stroke="#63b8ff" points="217,-57.74 220.5,-67.74 224,-57.74 217,-57.74"/>
</a>
</g>
</g>
<!-- Node4 -->
<g id="Node000004" class="node">
<title>Node4</title>
<g id="a_Node000004"><a xlink:href="FileReaderTest_8cpp.html" target="_top" xlink:title=" ">
<polygon fill="white" stroke="#666666" points="447.75,-27.12 313.25,-27.12 313.25,-6.38 447.75,-6.38 447.75,-27.12"/>
<text text-anchor="middle" x="380.5" y="-13.62" font-family="Helvetica,sans-Serif" font-size="10.00">tests/FileReaderTest.cpp</text>
</a>
</g>
</g>
<!-- Node1&#45;&gt;Node4 -->
<g id="edge3_Node000001_Node000004" class="edge">
<title>Node1&#45;&gt;Node4</title>
<g id="a_edge3_Node000001_Node000004"><a xlink:title=" ">
<path fill="none" stroke="#63b8ff" d="M269.27,-64.68C298.52,-52.33 334.39,-37.2 357.34,-27.52"/>
<polygon fill="#63b8ff" stroke="#63b8ff" points="268.07,-61.38 260.22,-68.49 270.79,-67.83 268.07,-61.38"/>
</a>
</g>
</g>
</g>
</svg>
