<?xml version="1.0" encoding="UTF-8" standalone="no"?>
<!DOCTYPE svg PUBLIC "-//W3C//DTD SVG 1.1//EN"
 "http://www.w3.org/Graphics/SVG/1.1/DTD/svg11.dtd">
<!-- Generated by graphviz version 12.2.1 (0)
 -->
<!-- Title: src/lib/Utils/Assets/IAssetManager.hpp Pages: 1 -->
<!--zoomable 237 -->

<svg id="main" version="1.1" xmlns="http://www.w3.org/2000/svg" xmlns:xlink="http://www.w3.org/1999/xlink" xml:space="preserve" onload="init(evt)">

<style type="text/css"><![CDATA[
.node, .edge {opacity: 0.7;}
.node.selected, .edge.selected {opacity: 1;}
.edge:hover path { stroke: red; }
.edge:hover polygon { stroke: red; fill: red; }
]]></style>

<defs>
  <circle id="rim" cx="0" cy="0" r="7"/>
  <circle id="rim2" cx="0" cy="0" r="3.5"/>
  <g id="zoomPlus">
    <use xlink:href="#rim" fill="#404040"><set attributeName="fill" to="#808080" begin="zoomplus.mouseover" end="zoomplus.mouseout"/></use>
    <path d="M-4,0h8M0,-4v8" fill="none" stroke="white" stroke-width="1.5" pointer-events="none"/>
  </g>
  <g id="zoomMin">
    <use xlink:href="#rim" fill="#404040"><set attributeName="fill" to="#808080" begin="zoomminus.mouseover" end="zoomminus.mouseout"/></use>
    <path d="M-4,0h8" fill="none" stroke="white" stroke-width="1.5" pointer-events="none"/>
  </g>
  <g id="arrowUp" transform="translate(30 24)">
    <use xlink:href="#rim"/>
    <path pointer-events="none" fill="none" stroke="white" stroke-width="1.5" d="M0,-3.0v7 M-2.5,-0.5L0,-3.0L2.5,-0.5"/>
  </g>
  <g id="arrowRight" transform="rotate(90) translate(36 -43)">
    <use xlink:href="#rim"/>
    <path pointer-events="none" fill="none" stroke="white" stroke-width="1.5" d="M0,-3.0v7 M-2.5,-0.5L0,-3.0L2.5,-0.5"/>
  </g>
  <g id="arrowDown" transform="rotate(180) translate(-30 -48)">
    <use xlink:href="#rim"/>
    <path pointer-events="none" fill="none" stroke="white" stroke-width="1.5" d="M0,-3.0v7 M-2.5,-0.5L0,-3.0L2.5,-0.5"/>
  </g>
  <g id="arrowLeft" transform="rotate(270) translate(-36 17)">
    <use xlink:href="#rim"/>
    <path pointer-events="none" fill="none" stroke="white" stroke-width="1.5" d="M0,-3.0v7 M-2.5,-0.5L0,-3.0L2.5,-0.5"/>
  </g>
  <g id="resetDef">
    <use xlink:href="#rim2" fill="#404040"><set attributeName="fill" to="#808080" begin="reset.mouseover" end="reset.mouseout"/></use>
  </g>
</defs>
<script type="application/ecmascript">
var viewWidth = 932;
var viewHeight = 237;
var sectionId = 'dynsection-1';
</script>
<script type="application/ecmascript" xlink:href="svg.min.js"/>
<svg id="graph" class="graph">
<g id="viewport">
<title>src/lib/Utils/Assets/IAssetManager.hpp</title>
<!-- Node1 -->
<g id="Node000001" class="node">
<title>Node1</title>
<g id="a_Node000001"><a xlink:title=" ">
<polygon fill="#999999" stroke="#666666" points="391.62,-229.25 279.62,-229.25 279.62,-195.75 391.62,-195.75 391.62,-229.25"/>
<text text-anchor="start" x="287.62" y="-215.75" font-family="Helvetica,sans-Serif" font-size="10.00">src/lib/Utils/Assets</text>
<text text-anchor="middle" x="335.62" y="-203" font-family="Helvetica,sans-Serif" font-size="10.00">/IAssetManager.hpp</text>
</a>
</g>
</g>
<!-- Node2 -->
<g id="Node000002" class="node">
<title>Node2</title>
<g id="a_Node000002"><a xlink:href="AssetManager_8hpp.html" target="_top" xlink:title=" ">
<polygon fill="white" stroke="#666666" points="300.12,-159.75 191.12,-159.75 191.12,-126.25 300.12,-126.25 300.12,-159.75"/>
<text text-anchor="start" x="199.12" y="-146.25" font-family="Helvetica,sans-Serif" font-size="10.00">src/lib/Utils/Assets</text>
<text text-anchor="middle" x="245.62" y="-133.5" font-family="Helvetica,sans-Serif" font-size="10.00">/AssetManager.hpp</text>
</a>
</g>
</g>
<!-- Node1&#45;&gt;Node2 -->
<g id="edge1_Node000001_Node000002" class="edge">
<title>Node1&#45;&gt;Node2</title>
<g id="a_edge1_Node000001_Node000002"><a xlink:title=" ">
<path fill="none" stroke="#63b8ff" d="M305.14,-188.64C292.65,-179.27 278.49,-168.65 267.11,-160.12"/>
<polygon fill="#63b8ff" stroke="#63b8ff" points="302.99,-191.4 313.09,-194.6 307.19,-185.8 302.99,-191.4"/>
</a>
</g>
</g>
<!-- Node4 -->
<g id="Node000004" class="node">
<title>Node4</title>
<g id="a_Node000004"><a xlink:href="AssetManagerFactory_8hpp.html" target="_top" xlink:title=" ">
<polygon fill="white" stroke="#666666" points="407.38,-90.25 263.88,-90.25 263.88,-56.75 407.38,-56.75 407.38,-90.25"/>
<text text-anchor="start" x="271.88" y="-76.75" font-family="Helvetica,sans-Serif" font-size="10.00">src/lib/Utils/Assets</text>
<text text-anchor="middle" x="335.62" y="-64" font-family="Helvetica,sans-Serif" font-size="10.00">/AssetManagerFactory.hpp</text>
</a>
</g>
</g>
<!-- Node1&#45;&gt;Node4 -->
<g id="edge7_Node000001_Node000004" class="edge">
<title>Node1&#45;&gt;Node4</title>
<g id="a_edge7_Node000001_Node000004"><a xlink:title=" ">
<path fill="none" stroke="#63b8ff" d="M335.62,-184.12C335.62,-156.04 335.62,-113.32 335.62,-90.38"/>
<polygon fill="#63b8ff" stroke="#63b8ff" points="332.13,-184 335.63,-194 339.13,-184 332.13,-184"/>
</a>
</g>
</g>
<!-- Node7 -->
<g id="Node000007" class="node">
<title>Node7</title>
<g id="a_Node000007"><a xlink:href="CustomStringsLoader_8hpp.html" target="_top" xlink:title=" ">
<polygon fill="white" stroke="#666666" points="568.38,-159.75 424.88,-159.75 424.88,-126.25 568.38,-126.25 568.38,-159.75"/>
<text text-anchor="start" x="432.88" y="-146.25" font-family="Helvetica,sans-Serif" font-size="10.00">src/lib/Utils/Json</text>
<text text-anchor="middle" x="496.62" y="-133.5" font-family="Helvetica,sans-Serif" font-size="10.00">/CustomStringsLoader.hpp</text>
</a>
</g>
</g>
<!-- Node1&#45;&gt;Node7 -->
<g id="edge8_Node000001_Node000007" class="edge">
<title>Node1&#45;&gt;Node7</title>
<g id="a_edge8_Node000001_Node000007"><a xlink:title=" ">
<path fill="none" stroke="#63b8ff" d="M384.68,-190.93C408.25,-181.05 436.08,-169.38 458.1,-160.15"/>
<polygon fill="#63b8ff" stroke="#63b8ff" points="383.45,-187.65 375.58,-194.75 386.16,-194.11 383.45,-187.65"/>
</a>
</g>
</g>
<!-- Node9 -->
<g id="Node000009" class="node">
<title>Node9</title>
<g id="a_Node000009"><a xlink:href="UtilsFactory_8hpp.html" target="_top" xlink:title=" ">
<polygon fill="white" stroke="#666666" points="742.12,-153.38 591.12,-153.38 591.12,-132.62 742.12,-132.62 742.12,-153.38"/>
<text text-anchor="middle" x="666.62" y="-139.88" font-family="Helvetica,sans-Serif" font-size="10.00">src/lib/Utils/UtilsFactory.hpp</text>
</a>
</g>
</g>
<!-- Node1&#45;&gt;Node9 -->
<g id="edge11_Node000001_Node000009" class="edge">
<title>Node1&#45;&gt;Node9</title>
<g id="a_edge11_Node000001_Node000009"><a xlink:title=" ">
<path fill="none" stroke="#63b8ff" d="M402.95,-197.77C466.9,-184.73 561.49,-165.44 618.29,-153.86"/>
<polygon fill="#63b8ff" stroke="#63b8ff" points="402.36,-194.32 393.26,-199.75 403.76,-201.18 402.36,-194.32"/>
</a>
</g>
</g>
<!-- Node13 -->
<g id="Node000013" class="node">
<title>Node13</title>
<g id="a_Node000013"><a xlink:href="MockAssetManager_8hpp.html" target="_top" xlink:title=" ">
<polygon fill="white" stroke="#666666" points="159.25,-153.38 0,-153.38 0,-132.62 159.25,-132.62 159.25,-153.38"/>
<text text-anchor="middle" x="79.62" y="-139.88" font-family="Helvetica,sans-Serif" font-size="10.00">tests/MockAssetManager.hpp</text>
</a>
</g>
</g>
<!-- Node1&#45;&gt;Node13 -->
<g id="edge17_Node000001_Node000013" class="edge">
<title>Node1&#45;&gt;Node13</title>
<g id="a_edge17_Node000001_Node000013"><a xlink:title=" ">
<path fill="none" stroke="#63b8ff" d="M268.13,-193.7C219.8,-180.96 156.53,-164.28 116.98,-153.85"/>
<polygon fill="#63b8ff" stroke="#63b8ff" points="267.1,-197.05 277.66,-196.22 268.89,-190.28 267.1,-197.05"/>
</a>
</g>
</g>
<!-- Node3 -->
<g id="Node000003" class="node">
<title>Node3</title>
<g id="a_Node000003"><a xlink:href="AssetManager_8cpp.html" target="_top" xlink:title=" ">
<polygon fill="white" stroke="#666666" points="207.75,-90.25 99.5,-90.25 99.5,-56.75 207.75,-56.75 207.75,-90.25"/>
<text text-anchor="start" x="107.5" y="-76.75" font-family="Helvetica,sans-Serif" font-size="10.00">src/lib/Utils/Assets</text>
<text text-anchor="middle" x="153.62" y="-64" font-family="Helvetica,sans-Serif" font-size="10.00">/AssetManager.cpp</text>
</a>
</g>
</g>
<!-- Node2&#45;&gt;Node3 -->
<g id="edge2_Node000002_Node000003" class="edge">
<title>Node2&#45;&gt;Node3</title>
<g id="a_edge2_Node000002_Node000003"><a xlink:title=" ">
<path fill="none" stroke="#63b8ff" d="M214.84,-119.41C201.98,-109.98 187.33,-99.23 175.59,-90.62"/>
<polygon fill="#63b8ff" stroke="#63b8ff" points="212.47,-122.01 222.6,-125.11 216.61,-116.37 212.47,-122.01"/>
</a>
</g>
</g>
<!-- Node2&#45;&gt;Node4 -->
<g id="edge3_Node000002_Node000004" class="edge">
<title>Node2&#45;&gt;Node4</title>
<g id="a_edge3_Node000002_Node000004"><a xlink:title=" ">
<path fill="none" stroke="#63b8ff" d="M276.11,-119.14C288.6,-109.77 302.76,-99.15 314.14,-90.62"/>
<polygon fill="#63b8ff" stroke="#63b8ff" points="274.06,-116.3 268.16,-125.1 278.26,-121.9 274.06,-116.3"/>
</a>
</g>
</g>
<!-- Node6 -->
<g id="Node000006" class="node">
<title>Node6</title>
<g id="a_Node000006"><a xlink:href="AssetManagerTest_8cpp.html" target="_top" xlink:title=" ">
<polygon fill="white" stroke="#666666" points="311.88,-20.75 159.38,-20.75 159.38,0 311.88,0 311.88,-20.75"/>
<text text-anchor="middle" x="235.62" y="-7.25" font-family="Helvetica,sans-Serif" font-size="10.00">tests/AssetManagerTest.cpp</text>
</a>
</g>
</g>
<!-- Node2&#45;&gt;Node6 -->
<g id="edge6_Node000002_Node000006" class="edge">
<title>Node2&#45;&gt;Node6</title>
<g id="a_edge6_Node000002_Node000006"><a xlink:title=" ">
<path fill="none" stroke="#63b8ff" d="M243.52,-114.53C241.29,-85.35 237.87,-40.76 236.38,-21.18"/>
<polygon fill="#63b8ff" stroke="#63b8ff" points="240.03,-114.77 244.28,-124.47 247.01,-114.24 240.03,-114.77"/>
</a>
</g>
</g>
<!-- Node5 -->
<g id="Node000005" class="node">
<title>Node5</title>
<g id="a_Node000005"><a xlink:href="UtilsFactory_8cpp.html" target="_top" xlink:title=" ">
<polygon fill="white" stroke="#666666" points="629.75,-20.75 479.5,-20.75 479.5,0 629.75,0 629.75,-20.75"/>
<text text-anchor="middle" x="554.62" y="-7.25" font-family="Helvetica,sans-Serif" font-size="10.00">src/lib/Utils/UtilsFactory.cpp</text>
</a>
</g>
</g>
<!-- Node4&#45;&gt;Node5 -->
<g id="edge4_Node000004_Node000005" class="edge">
<title>Node4&#45;&gt;Node5</title>
<g id="a_edge4_Node000004_Node000005"><a xlink:title=" ">
<path fill="none" stroke="#63b8ff" d="M404.8,-53.19C442.96,-42.54 488.72,-29.77 519.55,-21.17"/>
<polygon fill="#63b8ff" stroke="#63b8ff" points="403.89,-49.81 395.2,-55.87 405.77,-56.56 403.89,-49.81"/>
</a>
</g>
</g>
<!-- Node4&#45;&gt;Node6 -->
<g id="edge5_Node000004_Node000006" class="edge">
<title>Node4&#45;&gt;Node6</title>
<g id="a_edge5_Node000004_Node000006"><a xlink:title=" ">
<path fill="none" stroke="#63b8ff" d="M299.71,-50.55C283.25,-40.49 264.57,-29.07 251.64,-21.17"/>
<polygon fill="#63b8ff" stroke="#63b8ff" points="297.44,-53.26 307.8,-55.49 301.09,-47.29 297.44,-53.26"/>
</a>
</g>
</g>
<!-- Node7&#45;&gt;Node5 -->
<g id="edge10_Node000007_Node000005" class="edge">
<title>Node7&#45;&gt;Node5</title>
<g id="a_edge10_Node000007_Node000005"><a xlink:title=" ">
<path fill="none" stroke="#63b8ff" d="M546.94,-120.17C558.77,-112.51 569.89,-102.63 576.62,-90.25 589.13,-67.27 572.29,-36.58 561.83,-21.13"/>
<polygon fill="#63b8ff" stroke="#63b8ff" points="545.48,-116.96 538.66,-125.07 549.05,-122.98 545.48,-116.96"/>
</a>
</g>
</g>
<!-- Node8 -->
<g id="Node000008" class="node">
<title>Node8</title>
<g id="a_Node000008"><a xlink:href="CustomStringsLoader_8cpp.html" target="_top" xlink:title=" ">
<polygon fill="white" stroke="#666666" points="568,-90.25 425.25,-90.25 425.25,-56.75 568,-56.75 568,-90.25"/>
<text text-anchor="start" x="433.25" y="-76.75" font-family="Helvetica,sans-Serif" font-size="10.00">src/lib/Utils/Json</text>
<text text-anchor="middle" x="496.62" y="-64" font-family="Helvetica,sans-Serif" font-size="10.00">/CustomStringsLoader.cpp</text>
</a>
</g>
</g>
<!-- Node7&#45;&gt;Node8 -->
<g id="edge9_Node000007_Node000008" class="edge">
<title>Node7&#45;&gt;Node8</title>
<g id="a_edge9_Node000007_Node000008"><a xlink:title=" ">
<path fill="none" stroke="#63b8ff" d="M496.62,-114.56C496.62,-106.34 496.62,-97.59 496.62,-90.38"/>
<polygon fill="#63b8ff" stroke="#63b8ff" points="493.13,-114.49 496.63,-124.49 500.13,-114.49 493.13,-114.49"/>
</a>
</g>
</g>
<!-- Node9&#45;&gt;Node5 -->
<g id="edge16_Node000009_Node000005" class="edge">
<title>Node9&#45;&gt;Node5</title>
<g id="a_edge16_Node000009_Node000005"><a xlink:title=" ">
<path fill="none" stroke="#63b8ff" d="M650.9,-123.66C626.75,-95.49 581.38,-42.58 562.84,-20.95"/>
<polygon fill="#63b8ff" stroke="#63b8ff" points="648.06,-125.72 657.22,-131.03 653.37,-121.16 648.06,-125.72"/>
</a>
</g>
</g>
<!-- Node10 -->
<g id="Node000010" class="node">
<title>Node10</title>
<g id="a_Node000010"><a xlink:href="NixonCppLib_8hpp.html" target="_top" xlink:title=" ">
<polygon fill="white" stroke="#666666" points="815.12,-90.25 700.12,-90.25 700.12,-56.75 815.12,-56.75 815.12,-90.25"/>
<text text-anchor="start" x="708.12" y="-76.75" font-family="Helvetica,sans-Serif" font-size="10.00">include/NixonCppLib</text>
<text text-anchor="middle" x="757.62" y="-64" font-family="Helvetica,sans-Serif" font-size="10.00">/NixonCppLib.hpp</text>
</a>
</g>
</g>
<!-- Node9&#45;&gt;Node10 -->
<g id="edge12_Node000009_Node000010" class="edge">
<title>Node9&#45;&gt;Node10</title>
<g id="a_edge12_Node000009_Node000010"><a xlink:title=" ">
<path fill="none" stroke="#63b8ff" d="M688.78,-125.56C703.08,-114.96 721.6,-101.22 735.83,-90.67"/>
<polygon fill="#63b8ff" stroke="#63b8ff" points="686.83,-122.66 680.88,-131.43 691,-128.28 686.83,-122.66"/>
</a>
</g>
</g>
<!-- Node11 -->
<g id="Node000011" class="node">
<title>Node11</title>
<g id="a_Node000011"><a xlink:href="Application_8cpp.html" target="_top" xlink:title=" ">
<polygon fill="white" stroke="#666666" points="777.25,-20.75 648,-20.75 648,0 777.25,0 777.25,-20.75"/>
<text text-anchor="middle" x="712.62" y="-7.25" font-family="Helvetica,sans-Serif" font-size="10.00">src/app/Application.cpp</text>
</a>
</g>
</g>
<!-- Node9&#45;&gt;Node11 -->
<g id="edge15_Node000009_Node000011" class="edge">
<title>Node9&#45;&gt;Node11</title>
<g id="a_edge15_Node000009_Node000011"><a xlink:title=" ">
<path fill="none" stroke="#63b8ff" d="M671.85,-121C676.41,-103.57 683.55,-78.24 691.62,-56.75 696.39,-44.07 703.14,-30 707.7,-20.93"/>
<polygon fill="#63b8ff" stroke="#63b8ff" points="668.47,-120.11 669.39,-130.66 675.25,-121.84 668.47,-120.11"/>
</a>
</g>
</g>
<!-- Node10&#45;&gt;Node11 -->
<g id="edge13_Node000010_Node000011" class="edge">
<title>Node10&#45;&gt;Node11</title>
<g id="a_edge13_Node000010_Node000011"><a xlink:title=" ">
<path fill="none" stroke="#63b8ff" d="M739.05,-47.27C732.3,-38.1 725.06,-28.27 719.87,-21.22"/>
<polygon fill="#63b8ff" stroke="#63b8ff" points="736.16,-49.24 744.9,-55.22 741.79,-45.09 736.16,-49.24"/>
</a>
</g>
</g>
<!-- Node12 -->
<g id="Node000012" class="node">
<title>Node12</title>
<g id="a_Node000012"><a xlink:href="NixonCppLib_8cpp.html" target="_top" xlink:title=" ">
<polygon fill="white" stroke="#666666" points="924.25,-20.75 795,-20.75 795,0 924.25,0 924.25,-20.75"/>
<text text-anchor="middle" x="859.62" y="-7.25" font-family="Helvetica,sans-Serif" font-size="10.00">src/lib/NixonCppLib.cpp</text>
</a>
</g>
</g>
<!-- Node10&#45;&gt;Node12 -->
<g id="edge14_Node000010_Node000012" class="edge">
<title>Node10&#45;&gt;Node12</title>
<g id="a_edge14_Node000010_Node000012"><a xlink:title=" ">
<path fill="none" stroke="#63b8ff" d="M794.26,-50.55C811.05,-40.49 830.1,-29.07 843.29,-21.17"/>
<polygon fill="#63b8ff" stroke="#63b8ff" points="792.77,-47.36 785.99,-55.5 796.37,-53.36 792.77,-47.36"/>
</a>
</g>
</g>
<!-- Node13&#45;&gt;Node6 -->
<g id="edge18_Node000013_Node000006" class="edge">
<title>Node13&#45;&gt;Node6</title>
<g id="a_edge18_Node000013_Node000006"><a xlink:title=" ">
<path fill="none" stroke="#63b8ff" d="M76.47,-120.98C74.86,-102.03 75.75,-74.49 90.62,-56.75 107.66,-36.44 133.67,-25.08 158.98,-18.78"/>
<polygon fill="#63b8ff" stroke="#63b8ff" points="72.98,-121.23 77.63,-130.75 79.93,-120.41 72.98,-121.23"/>
</a>
</g>
</g>
</g>
</svg>

<g id="navigator" transform="translate(0 0)" fill="#404254">
  <rect fill="#f2f5e9" fill-opacity="0.5" stroke="#606060" stroke-width=".5" x="0" y="0" width="60" height="60"/>
  <use id="zoomplus" xlink:href="#zoomPlus" x="17" y="9" onmousedown="handleZoom(evt,'in')"/>
  <use id="zoomminus" xlink:href="#zoomMin" x="42" y="9" onmousedown="handleZoom(evt,'out')"/>
  <use id="reset" xlink:href="#resetDef" x="30" y="36" onmousedown="handleReset()"/>
   <use id="arrowup" xlink:href="#arrowUp" x="0" y="0" onmousedown="handlePan(0,-1)"/>
  <use id="arrowright" xlink:href="#arrowRight" x="0" y="0" onmousedown="handlePan(1,0)"/>
  <use id="arrowdown" xlink:href="#arrowDown" x="0" y="0" onmousedown="handlePan(0,1)"/>
  <use id="arrowleft" xlink:href="#arrowLeft" x="0" y="0" onmousedown="handlePan(-1,0)"/>
</g>
<svg viewBox="0 0 15 15" width="100%" height="30px" preserveAspectRatio="xMaxYMin meet">
 <g id="arrow_out" transform="scale(0.3 0.3)">
  <a xlink:href="IAssetManager_8hpp__dep__incl_org.svg" target="_base">
   <rect id="button" ry="5" rx="5" y="6" x="6" height="38" width="38"
        fill="#f2f5e9" fill-opacity="0.5" stroke="#606060" stroke-width="1.0"/>
   <path id="arrow"
     d="M 11.500037,31.436501 C 11.940474,20.09759 22.043105,11.32322 32.158766,21.979434 L 37.068811,17.246167 C 37.068811,17.246167 37.088388,32 37.088388,32 L 22.160133,31.978069 C 22.160133,31.978069 26.997745,27.140456 26.997745,27.140456 C 18.528582,18.264221 13.291696,25.230495 11.500037,31.436501 z"
     style="fill:#404040;"/>
  </a>
 </g>
</svg>

<style type='text/css'>
<![CDATA[
[data-mouse-over-selected='false'] { opacity: 0.7; }
[data-mouse-over-selected='true']  { opacity: 1.0; }
]]>
</style>
<script type="application/ecmascript"><![CDATA[
document.addEventListener('DOMContentLoaded', (event) => {
  highlightEdges();
  highlightAdjacentNodes();
});
]]></script>
</svg>
