<?xml version="1.0" encoding="UTF-8" standalone="no"?>
<!DOCTYPE svg PUBLIC "-//W3C//DTD SVG 1.1//EN"
 "http://www.w3.org/Graphics/SVG/1.1/DTD/svg11.dtd">
<!-- Generated by graphviz version 12.2.1 (0)
 -->
<!-- Title: src/lib/Utils/Json/ICustomStringsLoader.hpp Pages: 1 -->
<svg width="559pt" height="237pt"
 viewBox="0.00 0.00 559.00 237.25" xmlns="http://www.w3.org/2000/svg" xmlns:xlink="http://www.w3.org/1999/xlink">
<g id="graph0" class="graph" transform="scale(1 1) rotate(0) translate(4 233.25)">
<title>src/lib/Utils/Json/ICustomStringsLoader.hpp</title>
<!-- Node1 -->
<g id="Node000001" class="node">
<title>Node1</title>
<g id="a_Node000001"><a xlink:title=" ">
<polygon fill="#999999" stroke="#666666" points="329.62,-229.25 183.12,-229.25 183.12,-195.75 329.62,-195.75 329.62,-229.25"/>
<text text-anchor="start" x="191.12" y="-215.75" font-family="Helvetica,sans-Serif" font-size="10.00">src/lib/Utils/Json</text>
<text text-anchor="middle" x="256.38" y="-203" font-family="Helvetica,sans-Serif" font-size="10.00">/ICustomStringsLoader.hpp</text>
</a>
</g>
</g>
<!-- Node2 -->
<g id="Node000002" class="node">
<title>Node2</title>
<g id="a_Node000002"><a xlink:href="CustomStringsLoader_8hpp.html" target="_top" xlink:title=" ">
<polygon fill="white" stroke="#666666" points="246.12,-159.75 102.62,-159.75 102.62,-126.25 246.12,-126.25 246.12,-159.75"/>
<text text-anchor="start" x="110.62" y="-146.25" font-family="Helvetica,sans-Serif" font-size="10.00">src/lib/Utils/Json</text>
<text text-anchor="middle" x="174.38" y="-133.5" font-family="Helvetica,sans-Serif" font-size="10.00">/CustomStringsLoader.hpp</text>
</a>
</g>
</g>
<!-- Node1&#45;&gt;Node2 -->
<g id="edge1_Node000001_Node000002" class="edge">
<title>Node1&#45;&gt;Node2</title>
<g id="a_edge1_Node000001_Node000002"><a xlink:title=" ">
<path fill="none" stroke="#63b8ff" d="M228.27,-188.36C216.97,-179.06 204.22,-168.56 193.95,-160.12"/>
<polygon fill="#63b8ff" stroke="#63b8ff" points="225.83,-190.89 235.77,-194.54 230.28,-185.48 225.83,-190.89"/>
</a>
</g>
</g>
<!-- Node5 -->
<g id="Node000005" class="node">
<title>Node5</title>
<g id="a_Node000005"><a xlink:href="UtilsFactory_8hpp.html" target="_top" xlink:title=" ">
<polygon fill="white" stroke="#666666" points="414.88,-153.38 263.88,-153.38 263.88,-132.62 414.88,-132.62 414.88,-153.38"/>
<text text-anchor="middle" x="339.38" y="-139.88" font-family="Helvetica,sans-Serif" font-size="10.00">src/lib/Utils/UtilsFactory.hpp</text>
</a>
</g>
</g>
<!-- Node1&#45;&gt;Node5 -->
<g id="edge4_Node000001_Node000005" class="edge">
<title>Node1&#45;&gt;Node5</title>
<g id="a_edge4_Node000001_Node000005"><a xlink:title=" ">
<path fill="none" stroke="#63b8ff" d="M284.71,-188.46C299.24,-176.64 316.17,-162.87 327.3,-153.82"/>
<polygon fill="#63b8ff" stroke="#63b8ff" points="282.77,-185.52 277.22,-194.55 287.19,-190.95 282.77,-185.52"/>
</a>
</g>
</g>
<!-- Node3 -->
<g id="Node000003" class="node">
<title>Node3</title>
<g id="a_Node000003"><a xlink:href="CustomStringsLoader_8cpp.html" target="_top" xlink:title=" ">
<polygon fill="white" stroke="#666666" points="142.75,-90.25 0,-90.25 0,-56.75 142.75,-56.75 142.75,-90.25"/>
<text text-anchor="start" x="8" y="-76.75" font-family="Helvetica,sans-Serif" font-size="10.00">src/lib/Utils/Json</text>
<text text-anchor="middle" x="71.38" y="-64" font-family="Helvetica,sans-Serif" font-size="10.00">/CustomStringsLoader.cpp</text>
</a>
</g>
</g>
<!-- Node2&#45;&gt;Node3 -->
<g id="edge2_Node000002_Node000003" class="edge">
<title>Node2&#45;&gt;Node3</title>
<g id="a_edge2_Node000002_Node000003"><a xlink:title=" ">
<path fill="none" stroke="#63b8ff" d="M140.49,-119.79C125.91,-110.24 109.19,-99.28 95.84,-90.54"/>
<polygon fill="#63b8ff" stroke="#63b8ff" points="138.16,-122.45 148.44,-125 141.99,-116.59 138.16,-122.45"/>
</a>
</g>
</g>
<!-- Node4 -->
<g id="Node000004" class="node">
<title>Node4</title>
<g id="a_Node000004"><a xlink:href="UtilsFactory_8cpp.html" target="_top" xlink:title=" ">
<polygon fill="white" stroke="#666666" points="311.5,-83.88 161.25,-83.88 161.25,-63.12 311.5,-63.12 311.5,-83.88"/>
<text text-anchor="middle" x="236.38" y="-70.38" font-family="Helvetica,sans-Serif" font-size="10.00">src/lib/Utils/UtilsFactory.cpp</text>
</a>
</g>
</g>
<!-- Node2&#45;&gt;Node4 -->
<g id="edge3_Node000002_Node000004" class="edge">
<title>Node2&#45;&gt;Node4</title>
<g id="a_edge3_Node000002_Node000004"><a xlink:title=" ">
<path fill="none" stroke="#63b8ff" d="M196.78,-117.61C207.34,-106.11 219.36,-93.03 227.35,-84.32"/>
<polygon fill="#63b8ff" stroke="#63b8ff" points="194.28,-115.16 190.09,-124.89 199.43,-119.89 194.28,-115.16"/>
</a>
</g>
</g>
<!-- Node5&#45;&gt;Node4 -->
<g id="edge9_Node000005_Node000004" class="edge">
<title>Node5&#45;&gt;Node4</title>
<g id="a_edge9_Node000005_Node000004"><a xlink:title=" ">
<path fill="none" stroke="#63b8ff" d="M315.08,-126.08C295.35,-113.15 268.15,-95.32 251.44,-84.37"/>
<polygon fill="#63b8ff" stroke="#63b8ff" points="313.07,-128.95 323.35,-131.5 316.91,-123.09 313.07,-128.95"/>
</a>
</g>
</g>
<!-- Node6 -->
<g id="Node000006" class="node">
<title>Node6</title>
<g id="a_Node000006"><a xlink:href="NixonCppLib_8hpp.html" target="_top" xlink:title=" ">
<polygon fill="white" stroke="#666666" points="482.88,-90.25 367.88,-90.25 367.88,-56.75 482.88,-56.75 482.88,-90.25"/>
<text text-anchor="start" x="375.88" y="-76.75" font-family="Helvetica,sans-Serif" font-size="10.00">include/NixonCppLib</text>
<text text-anchor="middle" x="425.38" y="-64" font-family="Helvetica,sans-Serif" font-size="10.00">/NixonCppLib.hpp</text>
</a>
</g>
</g>
<!-- Node5&#45;&gt;Node6 -->
<g id="edge5_Node000005_Node000006" class="edge">
<title>Node5&#45;&gt;Node6</title>
<g id="a_edge5_Node000005_Node000006"><a xlink:title=" ">
<path fill="none" stroke="#63b8ff" d="M360.71,-125.26C374.17,-114.69 391.46,-101.12 404.77,-90.67"/>
<polygon fill="#63b8ff" stroke="#63b8ff" points="358.59,-122.47 352.89,-131.39 362.91,-127.97 358.59,-122.47"/>
</a>
</g>
</g>
<!-- Node7 -->
<g id="Node000007" class="node">
<title>Node7</title>
<g id="a_Node000007"><a xlink:href="Application_8cpp.html" target="_top" xlink:title=" ">
<polygon fill="white" stroke="#666666" points="404,-20.75 274.75,-20.75 274.75,0 404,0 404,-20.75"/>
<text text-anchor="middle" x="339.38" y="-7.25" font-family="Helvetica,sans-Serif" font-size="10.00">src/app/Application.cpp</text>
</a>
</g>
</g>
<!-- Node5&#45;&gt;Node7 -->
<g id="edge8_Node000005_Node000007" class="edge">
<title>Node5&#45;&gt;Node7</title>
<g id="a_edge8_Node000005_Node000007"><a xlink:title=" ">
<path fill="none" stroke="#63b8ff" d="M339.38,-121.02C339.38,-92.3 339.38,-41.92 339.38,-20.95"/>
<polygon fill="#63b8ff" stroke="#63b8ff" points="335.88,-120.67 339.38,-130.67 342.88,-120.67 335.88,-120.67"/>
</a>
</g>
</g>
<!-- Node6&#45;&gt;Node7 -->
<g id="edge6_Node000006_Node000007" class="edge">
<title>Node6&#45;&gt;Node7</title>
<g id="a_edge6_Node000006_Node000007"><a xlink:title=" ">
<path fill="none" stroke="#63b8ff" d="M393.51,-49.85C379.63,-39.99 364.08,-28.94 353.22,-21.22"/>
<polygon fill="#63b8ff" stroke="#63b8ff" points="391.37,-52.62 401.55,-55.56 395.42,-46.92 391.37,-52.62"/>
</a>
</g>
</g>
<!-- Node8 -->
<g id="Node000008" class="node">
<title>Node8</title>
<g id="a_Node000008"><a xlink:href="NixonCppLib_8cpp.html" target="_top" xlink:title=" ">
<polygon fill="white" stroke="#666666" points="551,-20.75 421.75,-20.75 421.75,0 551,0 551,-20.75"/>
<text text-anchor="middle" x="486.38" y="-7.25" font-family="Helvetica,sans-Serif" font-size="10.00">src/lib/NixonCppLib.cpp</text>
</a>
</g>
</g>
<!-- Node6&#45;&gt;Node8 -->
<g id="edge7_Node000006_Node000008" class="edge">
<title>Node6&#45;&gt;Node8</title>
<g id="a_edge7_Node000006_Node000008"><a xlink:title=" ">
<path fill="none" stroke="#63b8ff" d="M449.4,-48.42C458.88,-38.93 469.22,-28.56 476.55,-21.22"/>
<polygon fill="#63b8ff" stroke="#63b8ff" points="447.06,-45.82 442.47,-55.37 452.01,-50.76 447.06,-45.82"/>
</a>
</g>
</g>
</g>
</svg>
