<?xml version="1.0" encoding="UTF-8" standalone="no"?>
<!DOCTYPE svg PUBLIC "-//W3C//DTD SVG 1.1//EN"
 "http://www.w3.org/Graphics/SVG/1.1/DTD/svg11.dtd">
<!-- Generated by graphviz version 12.2.1 (0)
 -->
<!-- Title: src/lib/Utils/Json/ICustomStringsLoader.hpp Pages: 1 -->
<svg width="400pt" height="155pt"
 viewBox="0.00 0.00 400.38 155.00" xmlns="http://www.w3.org/2000/svg" xmlns:xlink="http://www.w3.org/1999/xlink">

<svg id="main" version="1.1" xmlns="http://www.w3.org/2000/svg" xmlns:xlink="http://www.w3.org/1999/xlink" xml:space="preserve">

<style type="text/css"><![CDATA[
.node, .edge {opacity: 0.7;}
.node.selected, .edge.selected {opacity: 1;}
.edge:hover path { stroke: red; }
.edge:hover polygon { stroke: red; fill: red; }
]]></style>
<script type="application/ecmascript" xlink:href="svg.min.js"/>
<svg id="graph" class="graph">
<g id="graph0" class="graph" transform="scale(1 1) rotate(0) translate(4 151)">
<title>src/lib/Utils/Json/ICustomStringsLoader.hpp</title>
<!-- Node1 -->
<g id="Node000001" class="node">
<title>Node1</title>
<g id="a_Node000001"><a xlink:title=" ">
<polygon fill="#999999" stroke="#666666" points="287.12,-147 140.62,-147 140.62,-113.5 287.12,-113.5 287.12,-147"/>
<text text-anchor="start" x="148.62" y="-133.5" font-family="Helvetica,sans-Serif" font-size="10.00">src/lib/Utils/Json</text>
<text text-anchor="middle" x="213.88" y="-120.75" font-family="Helvetica,sans-Serif" font-size="10.00">/ICustomStringsLoader.hpp</text>
</a>
</g>
</g>
<!-- Node2 -->
<g id="Node000002" class="node">
<title>Node2</title>
<g id="a_Node000002"><a xlink:href="UtilsError_8hpp.html" target="_top" xlink:title=" ">
<polygon fill="white" stroke="#666666" points="226.62,-77.5 119.12,-77.5 119.12,-56.75 226.62,-56.75 226.62,-77.5"/>
<text text-anchor="middle" x="172.88" y="-64" font-family="Helvetica,sans-Serif" font-size="10.00">Utils/UtilsError.hpp</text>
</a>
</g>
</g>
<!-- Node1&#45;&gt;Node2 -->
<g id="edge1_Node000001_Node000002" class="edge">
<title>Node1&#45;&gt;Node2</title>
<g id="a_edge1_Node000001_Node000002"><a xlink:title=" ">
<path fill="none" stroke="#63b8ff" d="M203.1,-113.19C197.77,-105.24 191.3,-95.59 185.71,-87.27"/>
<polygon fill="#63b8ff" stroke="#63b8ff" points="188.8,-85.58 180.32,-79.22 182.98,-89.48 188.8,-85.58"/>
</a>
</g>
</g>
<!-- Node4 -->
<g id="Node000004" class="node">
<title>Node4</title>
<g id="a_Node000004"><a xlink:title=" ">
<polygon fill="#e0e0e0" stroke="#999999" points="55.75,-20.75 0,-20.75 0,0 55.75,0 55.75,-20.75"/>
<text text-anchor="middle" x="27.88" y="-7.25" font-family="Helvetica,sans-Serif" font-size="10.00">optional</text>
</a>
</g>
</g>
<!-- Node1&#45;&gt;Node4 -->
<g id="edge8_Node000001_Node000004" class="edge">
<title>Node1&#45;&gt;Node4</title>
<g id="a_edge8_Node000001_Node000004"><a xlink:title=" ">
<path fill="none" stroke="#63b8ff" d="M176.72,-113.16C156.39,-103.76 131.1,-91.11 109.88,-77.5 86.97,-62.81 62.99,-42.86 46.92,-28.72"/>
<polygon fill="#63b8ff" stroke="#63b8ff" points="49.36,-26.21 39.57,-22.16 44.7,-31.43 49.36,-26.21"/>
</a>
</g>
</g>
<!-- Node6 -->
<g id="Node000006" class="node">
<title>Node6</title>
<g id="a_Node000006"><a xlink:title=" ">
<polygon fill="#e0e0e0" stroke="#999999" points="334.75,-20.75 291,-20.75 291,0 334.75,0 334.75,-20.75"/>
<text text-anchor="middle" x="312.88" y="-7.25" font-family="Helvetica,sans-Serif" font-size="10.00">string</text>
</a>
</g>
</g>
<!-- Node1&#45;&gt;Node6 -->
<g id="edge9_Node000001_Node000006" class="edge">
<title>Node1&#45;&gt;Node6</title>
<g id="a_edge9_Node000001_Node000006"><a xlink:title=" ">
<path fill="none" stroke="#63b8ff" d="M227.23,-113.35C245.42,-91.69 277.95,-52.96 297.25,-29.98"/>
<polygon fill="#63b8ff" stroke="#63b8ff" points="299.91,-32.25 303.66,-22.34 294.55,-27.75 299.91,-32.25"/>
</a>
</g>
</g>
<!-- Node8 -->
<g id="Node000008" class="node">
<title>Node8</title>
<g id="a_Node000008"><a xlink:title=" ">
<polygon fill="#e0e0e0" stroke="#999999" points="392.38,-77.5 283.38,-77.5 283.38,-56.75 392.38,-56.75 392.38,-77.5"/>
<text text-anchor="middle" x="337.88" y="-64" font-family="Helvetica,sans-Serif" font-size="10.00">nlohmann/json.hpp</text>
</a>
</g>
</g>
<!-- Node1&#45;&gt;Node8 -->
<g id="edge7_Node000001_Node000008" class="edge">
<title>Node1&#45;&gt;Node8</title>
<g id="a_edge7_Node000001_Node000008"><a xlink:title=" ">
<path fill="none" stroke="#63b8ff" d="M246.78,-113.03C265.73,-103.69 289.38,-92.03 307.83,-82.94"/>
<polygon fill="#63b8ff" stroke="#63b8ff" points="309.24,-86.15 316.66,-78.58 306.14,-79.87 309.24,-86.15"/>
</a>
</g>
</g>
<!-- Node3 -->
<g id="Node000003" class="node">
<title>Node3</title>
<g id="a_Node000003"><a xlink:title=" ">
<polygon fill="#e0e0e0" stroke="#999999" points="122.38,-20.75 73.38,-20.75 73.38,0 122.38,0 122.38,-20.75"/>
<text text-anchor="middle" x="97.88" y="-7.25" font-family="Helvetica,sans-Serif" font-size="10.00">cstdint</text>
</a>
</g>
</g>
<!-- Node2&#45;&gt;Node3 -->
<g id="edge2_Node000002_Node000003" class="edge">
<title>Node2&#45;&gt;Node3</title>
<g id="a_edge2_Node000002_Node000003"><a xlink:title=" ">
<path fill="none" stroke="#63b8ff" d="M159.47,-56.34C148.59,-48.4 133.02,-37.03 120.26,-27.71"/>
<polygon fill="#63b8ff" stroke="#63b8ff" points="122.53,-25.04 112.39,-21.97 118.4,-30.69 122.53,-25.04"/>
</a>
</g>
</g>
<!-- Node2&#45;&gt;Node4 -->
<g id="edge3_Node000002_Node000004" class="edge">
<title>Node2&#45;&gt;Node4</title>
<g id="a_edge3_Node000002_Node000004"><a xlink:title=" ">
<path fill="none" stroke="#63b8ff" d="M146.95,-56.34C123.86,-47.62 89.83,-34.77 64.06,-25.04"/>
<polygon fill="#63b8ff" stroke="#63b8ff" points="65.58,-21.87 54.99,-21.61 63.11,-28.42 65.58,-21.87"/>
</a>
</g>
</g>
<!-- Node5 -->
<g id="Node000005" class="node">
<title>Node5</title>
<g id="a_Node000005"><a xlink:title=" ">
<polygon fill="#e0e0e0" stroke="#999999" points="204.88,-20.75 140.88,-20.75 140.88,0 204.88,0 204.88,-20.75"/>
<text text-anchor="middle" x="172.88" y="-7.25" font-family="Helvetica,sans-Serif" font-size="10.00">stdexcept</text>
</a>
</g>
</g>
<!-- Node2&#45;&gt;Node5 -->
<g id="edge4_Node000002_Node000005" class="edge">
<title>Node2&#45;&gt;Node5</title>
<g id="a_edge4_Node000002_Node000005"><a xlink:title=" ">
<path fill="none" stroke="#63b8ff" d="M172.88,-56.34C172.88,-49.72 172.88,-40.72 172.88,-32.52"/>
<polygon fill="#63b8ff" stroke="#63b8ff" points="176.38,-32.59 172.88,-22.59 169.38,-32.59 176.38,-32.59"/>
</a>
</g>
</g>
<!-- Node2&#45;&gt;Node6 -->
<g id="edge5_Node000002_Node000006" class="edge">
<title>Node2&#45;&gt;Node6</title>
<g id="a_edge5_Node000002_Node000006"><a xlink:title=" ">
<path fill="none" stroke="#63b8ff" d="M197.9,-56.34C220.92,-47.33 255.2,-33.93 280.33,-24.1"/>
<polygon fill="#63b8ff" stroke="#63b8ff" points="281.38,-27.45 289.42,-20.55 278.83,-20.93 281.38,-27.45"/>
</a>
</g>
</g>
<!-- Node7 -->
<g id="Node000007" class="node">
<title>Node7</title>
<g id="a_Node000007"><a xlink:title=" ">
<polygon fill="#e0e0e0" stroke="#999999" points="273.12,-20.75 222.62,-20.75 222.62,0 273.12,0 273.12,-20.75"/>
<text text-anchor="middle" x="247.88" y="-7.25" font-family="Helvetica,sans-Serif" font-size="10.00">variant</text>
</a>
</g>
</g>
<!-- Node2&#45;&gt;Node7 -->
<g id="edge6_Node000002_Node000007" class="edge">
<title>Node2&#45;&gt;Node7</title>
<g id="a_edge6_Node000002_Node000007"><a xlink:title=" ">
<path fill="none" stroke="#63b8ff" d="M186.28,-56.34C197.16,-48.4 212.73,-37.03 225.49,-27.71"/>
<polygon fill="#63b8ff" stroke="#63b8ff" points="227.35,-30.69 233.36,-21.97 223.22,-25.04 227.35,-30.69"/>
</a>
</g>
</g>
</g>
</svg>
</svg>

<style type='text/css'>
<![CDATA[
[data-mouse-over-selected='false'] { opacity: 0.7; }
[data-mouse-over-selected='true']  { opacity: 1.0; }
]]>
</style>
<script type="application/ecmascript"><![CDATA[
document.addEventListener('DOMContentLoaded', (event) => {
  highlightEdges();
  highlightAdjacentNodes();
});
]]></script>
</svg>
