<?xml version="1.0" encoding="UTF-8" standalone="no"?>
<!DOCTYPE svg PUBLIC "-//W3C//DTD SVG 1.1//EN"
 "http://www.w3.org/Graphics/SVG/1.1/DTD/svg11.dtd">
<!-- Generated by graphviz version 12.2.1 (0)
 -->
<!-- Title: src/lib/Utils/Filesystem/IDirectoryManager.hpp Pages: 1 -->
<svg width="384pt" height="155pt"
 viewBox="0.00 0.00 383.88 155.00" xmlns="http://www.w3.org/2000/svg" xmlns:xlink="http://www.w3.org/1999/xlink">

<svg id="main" version="1.1" xmlns="http://www.w3.org/2000/svg" xmlns:xlink="http://www.w3.org/1999/xlink" xml:space="preserve">

<style type="text/css"><![CDATA[
.node, .edge {opacity: 0.7;}
.node.selected, .edge.selected {opacity: 1;}
.edge:hover path { stroke: red; }
.edge:hover polygon { stroke: red; fill: red; }
]]></style>
<script type="application/ecmascript" xlink:href="svg.min.js"/>
<svg id="graph" class="graph">
<g id="graph0" class="graph" transform="scale(1 1) rotate(0) translate(4 151)">
<title>src/lib/Utils/Filesystem/IDirectoryManager.hpp</title>
<!-- Node1 -->
<g id="Node000001" class="node">
<title>Node1</title>
<g id="a_Node000001"><a xlink:title=" ">
<polygon fill="#999999" stroke="#666666" points="342.5,-147 212.5,-147 212.5,-113.5 342.5,-113.5 342.5,-147"/>
<text text-anchor="start" x="220.5" y="-133.5" font-family="Helvetica,sans-Serif" font-size="10.00">src/lib/Utils/Filesystem</text>
<text text-anchor="middle" x="277.5" y="-120.75" font-family="Helvetica,sans-Serif" font-size="10.00">/IDirectoryManager.hpp</text>
</a>
</g>
</g>
<!-- Node2 -->
<g id="Node000002" class="node">
<title>Node2</title>
<g id="a_Node000002"><a xlink:href="UtilsError_8hpp.html" target="_top" xlink:title=" ">
<polygon fill="white" stroke="#666666" points="226.25,-77.5 118.75,-77.5 118.75,-56.75 226.25,-56.75 226.25,-77.5"/>
<text text-anchor="middle" x="172.5" y="-64" font-family="Helvetica,sans-Serif" font-size="10.00">Utils/UtilsError.hpp</text>
</a>
</g>
</g>
<!-- Node1&#45;&gt;Node2 -->
<g id="edge1_Node000001_Node000002" class="edge">
<title>Node1&#45;&gt;Node2</title>
<g id="a_edge1_Node000001_Node000002"><a xlink:title=" ">
<path fill="none" stroke="#63b8ff" d="M249.64,-113.03C233.89,-103.86 214.31,-92.47 198.82,-83.45"/>
<polygon fill="#63b8ff" stroke="#63b8ff" points="201.03,-80.68 190.63,-78.68 197.51,-86.73 201.03,-80.68"/>
</a>
</g>
</g>
<!-- Node8 -->
<g id="Node000008" class="node">
<title>Node8</title>
<g id="a_Node000008"><a xlink:title=" ">
<polygon fill="#e0e0e0" stroke="#999999" points="311,-77.5 244,-77.5 244,-56.75 311,-56.75 311,-77.5"/>
<text text-anchor="middle" x="277.5" y="-64" font-family="Helvetica,sans-Serif" font-size="10.00">filesystem</text>
</a>
</g>
</g>
<!-- Node1&#45;&gt;Node8 -->
<g id="edge7_Node000001_Node000008" class="edge">
<title>Node1&#45;&gt;Node8</title>
<g id="a_edge7_Node000001_Node000008"><a xlink:title=" ">
<path fill="none" stroke="#63b8ff" d="M277.5,-113.19C277.5,-105.85 277.5,-97.07 277.5,-89.21"/>
<polygon fill="#63b8ff" stroke="#63b8ff" points="281,-89.48 277.5,-79.48 274,-89.48 281,-89.48"/>
</a>
</g>
</g>
<!-- Node9 -->
<g id="Node000009" class="node">
<title>Node9</title>
<g id="a_Node000009"><a xlink:title=" ">
<polygon fill="#e0e0e0" stroke="#999999" points="375.88,-77.5 329.12,-77.5 329.12,-56.75 375.88,-56.75 375.88,-77.5"/>
<text text-anchor="middle" x="352.5" y="-64" font-family="Helvetica,sans-Serif" font-size="10.00">vector</text>
</a>
</g>
</g>
<!-- Node1&#45;&gt;Node9 -->
<g id="edge8_Node000001_Node000009" class="edge">
<title>Node1&#45;&gt;Node9</title>
<g id="a_edge8_Node000001_Node000009"><a xlink:title=" ">
<path fill="none" stroke="#63b8ff" d="M297.21,-113.19C307.81,-104.55 320.89,-93.88 331.67,-85.1"/>
<polygon fill="#63b8ff" stroke="#63b8ff" points="333.71,-87.95 339.25,-78.92 329.29,-82.53 333.71,-87.95"/>
</a>
</g>
</g>
<!-- Node3 -->
<g id="Node000003" class="node">
<title>Node3</title>
<g id="a_Node000003"><a xlink:title=" ">
<polygon fill="#e0e0e0" stroke="#999999" points="49,-20.75 0,-20.75 0,0 49,0 49,-20.75"/>
<text text-anchor="middle" x="24.5" y="-7.25" font-family="Helvetica,sans-Serif" font-size="10.00">cstdint</text>
</a>
</g>
</g>
<!-- Node2&#45;&gt;Node3 -->
<g id="edge2_Node000002_Node000003" class="edge">
<title>Node2&#45;&gt;Node3</title>
<g id="a_edge2_Node000002_Node000003"><a xlink:title=" ">
<path fill="none" stroke="#63b8ff" d="M146.04,-56.34C122.03,-47.46 86.45,-34.29 59.98,-24.5"/>
<polygon fill="#63b8ff" stroke="#63b8ff" points="61.27,-21.24 50.67,-21.06 58.84,-27.81 61.27,-21.24"/>
</a>
</g>
</g>
<!-- Node4 -->
<g id="Node000004" class="node">
<title>Node4</title>
<g id="a_Node000004"><a xlink:title=" ">
<polygon fill="#e0e0e0" stroke="#999999" points="122.38,-20.75 66.62,-20.75 66.62,0 122.38,0 122.38,-20.75"/>
<text text-anchor="middle" x="94.5" y="-7.25" font-family="Helvetica,sans-Serif" font-size="10.00">optional</text>
</a>
</g>
</g>
<!-- Node2&#45;&gt;Node4 -->
<g id="edge3_Node000002_Node000004" class="edge">
<title>Node2&#45;&gt;Node4</title>
<g id="a_edge3_Node000002_Node000004"><a xlink:title=" ">
<path fill="none" stroke="#63b8ff" d="M158.56,-56.34C147.13,-48.32 130.73,-36.81 117.39,-27.44"/>
<polygon fill="#63b8ff" stroke="#63b8ff" points="119.76,-24.83 109.56,-21.95 115.74,-30.56 119.76,-24.83"/>
</a>
</g>
</g>
<!-- Node5 -->
<g id="Node000005" class="node">
<title>Node5</title>
<g id="a_Node000005"><a xlink:title=" ">
<polygon fill="#e0e0e0" stroke="#999999" points="204.5,-20.75 140.5,-20.75 140.5,0 204.5,0 204.5,-20.75"/>
<text text-anchor="middle" x="172.5" y="-7.25" font-family="Helvetica,sans-Serif" font-size="10.00">stdexcept</text>
</a>
</g>
</g>
<!-- Node2&#45;&gt;Node5 -->
<g id="edge4_Node000002_Node000005" class="edge">
<title>Node2&#45;&gt;Node5</title>
<g id="a_edge4_Node000002_Node000005"><a xlink:title=" ">
<path fill="none" stroke="#63b8ff" d="M172.5,-56.34C172.5,-49.72 172.5,-40.72 172.5,-32.52"/>
<polygon fill="#63b8ff" stroke="#63b8ff" points="176,-32.59 172.5,-22.59 169,-32.59 176,-32.59"/>
</a>
</g>
</g>
<!-- Node6 -->
<g id="Node000006" class="node">
<title>Node6</title>
<g id="a_Node000006"><a xlink:title=" ">
<polygon fill="#e0e0e0" stroke="#999999" points="266.38,-20.75 222.62,-20.75 222.62,0 266.38,0 266.38,-20.75"/>
<text text-anchor="middle" x="244.5" y="-7.25" font-family="Helvetica,sans-Serif" font-size="10.00">string</text>
</a>
</g>
</g>
<!-- Node2&#45;&gt;Node6 -->
<g id="edge5_Node000002_Node000006" class="edge">
<title>Node2&#45;&gt;Node6</title>
<g id="a_edge5_Node000002_Node000006"><a xlink:title=" ">
<path fill="none" stroke="#63b8ff" d="M185.37,-56.34C195.71,-48.47 210.47,-37.25 222.65,-27.99"/>
<polygon fill="#63b8ff" stroke="#63b8ff" points="224.69,-30.83 230.53,-21.99 220.46,-25.26 224.69,-30.83"/>
</a>
</g>
</g>
<!-- Node7 -->
<g id="Node000007" class="node">
<title>Node7</title>
<g id="a_Node000007"><a xlink:title=" ">
<polygon fill="#e0e0e0" stroke="#999999" points="334.75,-20.75 284.25,-20.75 284.25,0 334.75,0 334.75,-20.75"/>
<text text-anchor="middle" x="309.5" y="-7.25" font-family="Helvetica,sans-Serif" font-size="10.00">variant</text>
</a>
</g>
</g>
<!-- Node2&#45;&gt;Node7 -->
<g id="edge6_Node000002_Node000007" class="edge">
<title>Node2&#45;&gt;Node7</title>
<g id="a_edge6_Node000002_Node000007"><a xlink:title=" ">
<path fill="none" stroke="#63b8ff" d="M196.99,-56.34C218.62,-47.69 250.39,-35 274.66,-25.3"/>
<polygon fill="#63b8ff" stroke="#63b8ff" points="275.83,-28.6 283.81,-21.64 273.23,-22.1 275.83,-28.6"/>
</a>
</g>
</g>
</g>
</svg>
</svg>

<style type='text/css'>
<![CDATA[
[data-mouse-over-selected='false'] { opacity: 0.7; }
[data-mouse-over-selected='true']  { opacity: 1.0; }
]]>
</style>
<script type="application/ecmascript"><![CDATA[
document.addEventListener('DOMContentLoaded', (event) => {
  highlightEdges();
  highlightAdjacentNodes();
});
]]></script>
</svg>
