<?xml version="1.0" encoding="UTF-8" standalone="no"?>
<!DOCTYPE svg PUBLIC "-//W3C//DTD SVG 1.1//EN"
 "http://www.w3.org/Graphics/SVG/1.1/DTD/svg11.dtd">
<!-- Generated by graphviz version 12.2.1 (0)
 -->
<!-- Title: src/lib/Utils/Filesystem/IFileReader.hpp Pages: 1 -->
<!--zoomable 237 -->

<svg id="main" version="1.1" xmlns="http://www.w3.org/2000/svg" xmlns:xlink="http://www.w3.org/1999/xlink" xml:space="preserve" onload="init(evt)">

<style type="text/css"><![CDATA[
.node, .edge {opacity: 0.7;}
.node.selected, .edge.selected {opacity: 1;}
.edge:hover path { stroke: red; }
.edge:hover polygon { stroke: red; fill: red; }
]]></style>

<defs>
  <circle id="rim" cx="0" cy="0" r="7"/>
  <circle id="rim2" cx="0" cy="0" r="3.5"/>
  <g id="zoomPlus">
    <use xlink:href="#rim" fill="#404040"><set attributeName="fill" to="#808080" begin="zoomplus.mouseover" end="zoomplus.mouseout"/></use>
    <path d="M-4,0h8M0,-4v8" fill="none" stroke="white" stroke-width="1.5" pointer-events="none"/>
  </g>
  <g id="zoomMin">
    <use xlink:href="#rim" fill="#404040"><set attributeName="fill" to="#808080" begin="zoomminus.mouseover" end="zoomminus.mouseout"/></use>
    <path d="M-4,0h8" fill="none" stroke="white" stroke-width="1.5" pointer-events="none"/>
  </g>
  <g id="arrowUp" transform="translate(30 24)">
    <use xlink:href="#rim"/>
    <path pointer-events="none" fill="none" stroke="white" stroke-width="1.5" d="M0,-3.0v7 M-2.5,-0.5L0,-3.0L2.5,-0.5"/>
  </g>
  <g id="arrowRight" transform="rotate(90) translate(36 -43)">
    <use xlink:href="#rim"/>
    <path pointer-events="none" fill="none" stroke="white" stroke-width="1.5" d="M0,-3.0v7 M-2.5,-0.5L0,-3.0L2.5,-0.5"/>
  </g>
  <g id="arrowDown" transform="rotate(180) translate(-30 -48)">
    <use xlink:href="#rim"/>
    <path pointer-events="none" fill="none" stroke="white" stroke-width="1.5" d="M0,-3.0v7 M-2.5,-0.5L0,-3.0L2.5,-0.5"/>
  </g>
  <g id="arrowLeft" transform="rotate(270) translate(-36 17)">
    <use xlink:href="#rim"/>
    <path pointer-events="none" fill="none" stroke="white" stroke-width="1.5" d="M0,-3.0v7 M-2.5,-0.5L0,-3.0L2.5,-0.5"/>
  </g>
  <g id="resetDef">
    <use xlink:href="#rim2" fill="#404040"><set attributeName="fill" to="#808080" begin="reset.mouseover" end="reset.mouseout"/></use>
  </g>
</defs>
<script type="application/ecmascript">
var viewWidth = 817;
var viewHeight = 237;
var sectionId = 'dynsection-1';
</script>
<script type="application/ecmascript" xlink:href="svg.min.js"/>
<svg id="graph" class="graph">
<g id="viewport">
<title>src/lib/Utils/Filesystem/IFileReader.hpp</title>
<!-- Node1 -->
<g id="Node000001" class="node">
<title>Node1</title>
<g id="a_Node000001"><a xlink:title=" ">
<polygon fill="#999999" stroke="#666666" points="456,-229.25 329,-229.25 329,-195.75 456,-195.75 456,-229.25"/>
<text text-anchor="start" x="337" y="-215.75" font-family="Helvetica,sans-Serif" font-size="10.00">src/lib/Utils/Filesystem</text>
<text text-anchor="middle" x="392.5" y="-203" font-family="Helvetica,sans-Serif" font-size="10.00">/IFileReader.hpp</text>
</a>
</g>
</g>
<!-- Node2 -->
<g id="Node000002" class="node">
<title>Node2</title>
<g id="a_Node000002"><a xlink:href="FileReader_8hpp.html" target="_top" xlink:title=" ">
<polygon fill="white" stroke="#666666" points="309,-159.75 182,-159.75 182,-126.25 309,-126.25 309,-159.75"/>
<text text-anchor="start" x="190" y="-146.25" font-family="Helvetica,sans-Serif" font-size="10.00">src/lib/Utils/Filesystem</text>
<text text-anchor="middle" x="245.5" y="-133.5" font-family="Helvetica,sans-Serif" font-size="10.00">/FileReader.hpp</text>
</a>
</g>
</g>
<!-- Node1&#45;&gt;Node2 -->
<g id="edge1_Node000001_Node000002" class="edge">
<title>Node1&#45;&gt;Node2</title>
<g id="a_edge1_Node000001_Node000002"><a xlink:title=" ">
<path fill="none" stroke="#63b8ff" d="M346.84,-190.53C325.51,-180.74 300.51,-169.26 280.68,-160.15"/>
<polygon fill="#63b8ff" stroke="#63b8ff" points="345.37,-193.71 355.91,-194.7 348.29,-187.35 345.37,-193.71"/>
</a>
</g>
</g>
<!-- Node6 -->
<g id="Node000006" class="node">
<title>Node6</title>
<g id="a_Node000006"><a xlink:href="JsonSerializer_8hpp.html" target="_top" xlink:title=" ">
<polygon fill="white" stroke="#666666" points="445.12,-159.75 339.88,-159.75 339.88,-126.25 445.12,-126.25 445.12,-159.75"/>
<text text-anchor="start" x="347.88" y="-146.25" font-family="Helvetica,sans-Serif" font-size="10.00">src/lib/Utils/Json</text>
<text text-anchor="middle" x="392.5" y="-133.5" font-family="Helvetica,sans-Serif" font-size="10.00">/JsonSerializer.hpp</text>
</a>
</g>
</g>
<!-- Node1&#45;&gt;Node6 -->
<g id="edge5_Node000001_Node000006" class="edge">
<title>Node1&#45;&gt;Node6</title>
<g id="a_edge5_Node000001_Node000006"><a xlink:title=" ">
<path fill="none" stroke="#63b8ff" d="M392.5,-184.06C392.5,-175.84 392.5,-167.09 392.5,-159.88"/>
<polygon fill="#63b8ff" stroke="#63b8ff" points="389,-183.99 392.5,-193.99 396,-183.99 389,-183.99"/>
</a>
</g>
</g>
<!-- Node8 -->
<g id="Node000008" class="node">
<title>Node8</title>
<g id="a_Node000008"><a xlink:href="UtilsFactory_8hpp.html" target="_top" xlink:title=" ">
<polygon fill="white" stroke="#666666" points="653,-153.38 502,-153.38 502,-132.62 653,-132.62 653,-153.38"/>
<text text-anchor="middle" x="577.5" y="-139.88" font-family="Helvetica,sans-Serif" font-size="10.00">src/lib/Utils/UtilsFactory.hpp</text>
</a>
</g>
</g>
<!-- Node1&#45;&gt;Node8 -->
<g id="edge8_Node000001_Node000008" class="edge">
<title>Node1&#45;&gt;Node8</title>
<g id="a_edge8_Node000001_Node000008"><a xlink:title=" ">
<path fill="none" stroke="#63b8ff" d="M447.52,-191.42C481.48,-179.04 523.54,-163.69 550.45,-153.87"/>
<polygon fill="#63b8ff" stroke="#63b8ff" points="446.43,-188.1 438.23,-194.81 448.83,-194.67 446.43,-188.1"/>
</a>
</g>
</g>
<!-- Node3 -->
<g id="Node000003" class="node">
<title>Node3</title>
<g id="a_Node000003"><a xlink:href="FileReader_8cpp.html" target="_top" xlink:title=" ">
<polygon fill="white" stroke="#666666" points="127,-90.25 0,-90.25 0,-56.75 127,-56.75 127,-90.25"/>
<text text-anchor="start" x="8" y="-76.75" font-family="Helvetica,sans-Serif" font-size="10.00">src/lib/Utils/Filesystem</text>
<text text-anchor="middle" x="63.5" y="-64" font-family="Helvetica,sans-Serif" font-size="10.00">/FileReader.cpp</text>
</a>
</g>
</g>
<!-- Node2&#45;&gt;Node3 -->
<g id="edge2_Node000002_Node000003" class="edge">
<title>Node2&#45;&gt;Node3</title>
<g id="a_edge2_Node000002_Node000003"><a xlink:title=" ">
<path fill="none" stroke="#63b8ff" d="M191.12,-121.83C164.26,-111.87 132.28,-100.01 107.05,-90.65"/>
<polygon fill="#63b8ff" stroke="#63b8ff" points="189.89,-125.11 200.49,-125.31 192.33,-118.55 189.89,-125.11"/>
</a>
</g>
</g>
<!-- Node4 -->
<g id="Node000004" class="node">
<title>Node4</title>
<g id="a_Node000004"><a xlink:href="UtilsFactory_8cpp.html" target="_top" xlink:title=" ">
<polygon fill="white" stroke="#666666" points="447.62,-83.88 297.38,-83.88 297.38,-63.12 447.62,-63.12 447.62,-83.88"/>
<text text-anchor="middle" x="372.5" y="-70.38" font-family="Helvetica,sans-Serif" font-size="10.00">src/lib/Utils/UtilsFactory.cpp</text>
</a>
</g>
</g>
<!-- Node2&#45;&gt;Node4 -->
<g id="edge3_Node000002_Node000004" class="edge">
<title>Node2&#45;&gt;Node4</title>
<g id="a_edge3_Node000002_Node000004"><a xlink:title=" ">
<path fill="none" stroke="#63b8ff" d="M286.05,-120.45C308.92,-108.29 336.38,-93.7 354.12,-84.27"/>
<polygon fill="#63b8ff" stroke="#63b8ff" points="284.44,-117.34 277.26,-125.12 287.73,-123.52 284.44,-117.34"/>
</a>
</g>
</g>
<!-- Node5 -->
<g id="Node000005" class="node">
<title>Node5</title>
<g id="a_Node000005"><a xlink:href="FileReaderTest_8cpp.html" target="_top" xlink:title=" ">
<polygon fill="white" stroke="#666666" points="279.75,-83.88 145.25,-83.88 145.25,-63.12 279.75,-63.12 279.75,-83.88"/>
<text text-anchor="middle" x="212.5" y="-70.38" font-family="Helvetica,sans-Serif" font-size="10.00">tests/FileReaderTest.cpp</text>
</a>
</g>
</g>
<!-- Node2&#45;&gt;Node5 -->
<g id="edge4_Node000002_Node000005" class="edge">
<title>Node2&#45;&gt;Node5</title>
<g id="a_edge4_Node000002_Node000005"><a xlink:title=" ">
<path fill="none" stroke="#63b8ff" d="M232.74,-115.91C227.33,-104.84 221.35,-92.6 217.3,-84.32"/>
<polygon fill="#63b8ff" stroke="#63b8ff" points="229.48,-117.2 237.01,-124.64 235.77,-114.12 229.48,-117.2"/>
</a>
</g>
</g>
<!-- Node6&#45;&gt;Node4 -->
<g id="edge7_Node000006_Node000004" class="edge">
<title>Node6&#45;&gt;Node4</title>
<g id="a_edge7_Node000006_Node000004"><a xlink:title=" ">
<path fill="none" stroke="#63b8ff" d="M384.57,-115.22C381.34,-104.33 377.81,-92.43 375.41,-84.32"/>
<polygon fill="#63b8ff" stroke="#63b8ff" points="381.13,-115.96 387.33,-124.55 387.85,-113.97 381.13,-115.96"/>
</a>
</g>
</g>
<!-- Node7 -->
<g id="Node000007" class="node">
<title>Node7</title>
<g id="a_Node000007"><a xlink:href="JsonSerializer_8cpp.html" target="_top" xlink:title=" ">
<polygon fill="white" stroke="#666666" points="569.75,-90.25 465.25,-90.25 465.25,-56.75 569.75,-56.75 569.75,-90.25"/>
<text text-anchor="start" x="473.25" y="-76.75" font-family="Helvetica,sans-Serif" font-size="10.00">src/lib/Utils/Json</text>
<text text-anchor="middle" x="517.5" y="-64" font-family="Helvetica,sans-Serif" font-size="10.00">/JsonSerializer.cpp</text>
</a>
</g>
</g>
<!-- Node6&#45;&gt;Node7 -->
<g id="edge6_Node000006_Node000007" class="edge">
<title>Node6&#45;&gt;Node7</title>
<g id="a_edge6_Node000006_Node000007"><a xlink:title=" ">
<path fill="none" stroke="#63b8ff" d="M432.36,-120.47C450.35,-110.76 471.23,-99.49 487.8,-90.54"/>
<polygon fill="#63b8ff" stroke="#63b8ff" points="430.91,-117.28 423.77,-125.11 434.23,-123.44 430.91,-117.28"/>
</a>
</g>
</g>
<!-- Node8&#45;&gt;Node4 -->
<g id="edge13_Node000008_Node000004" class="edge">
<title>Node8&#45;&gt;Node4</title>
<g id="a_edge13_Node000008_Node000004"><a xlink:title=" ">
<path fill="none" stroke="#63b8ff" d="M536.82,-128.6C497.16,-115.55 437.81,-96 402.34,-84.33"/>
<polygon fill="#63b8ff" stroke="#63b8ff" points="535.66,-131.91 546.25,-131.71 537.85,-125.26 535.66,-131.91"/>
</a>
</g>
</g>
<!-- Node9 -->
<g id="Node000009" class="node">
<title>Node9</title>
<g id="a_Node000009"><a xlink:href="NixonCppLib_8hpp.html" target="_top" xlink:title=" ">
<polygon fill="white" stroke="#666666" points="741,-90.25 626,-90.25 626,-56.75 741,-56.75 741,-90.25"/>
<text text-anchor="start" x="634" y="-76.75" font-family="Helvetica,sans-Serif" font-size="10.00">include/NixonCppLib</text>
<text text-anchor="middle" x="683.5" y="-64" font-family="Helvetica,sans-Serif" font-size="10.00">/NixonCppLib.hpp</text>
</a>
</g>
</g>
<!-- Node8&#45;&gt;Node9 -->
<g id="edge9_Node000008_Node000009" class="edge">
<title>Node8&#45;&gt;Node9</title>
<g id="a_edge9_Node000008_Node000009"><a xlink:title=" ">
<path fill="none" stroke="#63b8ff" d="M602.36,-126.17C619.14,-115.49 641.22,-101.43 658.11,-90.67"/>
<polygon fill="#63b8ff" stroke="#63b8ff" points="600.52,-123.19 593.96,-131.52 604.28,-129.1 600.52,-123.19"/>
</a>
</g>
</g>
<!-- Node10 -->
<g id="Node000010" class="node">
<title>Node10</title>
<g id="a_Node000010"><a xlink:href="Application_8cpp.html" target="_top" xlink:title=" ">
<polygon fill="white" stroke="#666666" points="662.12,-20.75 532.88,-20.75 532.88,0 662.12,0 662.12,-20.75"/>
<text text-anchor="middle" x="597.5" y="-7.25" font-family="Helvetica,sans-Serif" font-size="10.00">src/app/Application.cpp</text>
</a>
</g>
</g>
<!-- Node8&#45;&gt;Node10 -->
<g id="edge12_Node000008_Node000010" class="edge">
<title>Node8&#45;&gt;Node10</title>
<g id="a_edge12_Node000008_Node000010"><a xlink:title=" ">
<path fill="none" stroke="#63b8ff" d="M580.71,-121.02C585.11,-92.3 592.82,-41.92 596.03,-20.95"/>
<polygon fill="#63b8ff" stroke="#63b8ff" points="577.29,-120.27 579.23,-130.69 584.21,-121.33 577.29,-120.27"/>
</a>
</g>
</g>
<!-- Node9&#45;&gt;Node10 -->
<g id="edge10_Node000009_Node000010" class="edge">
<title>Node9&#45;&gt;Node10</title>
<g id="a_edge10_Node000009_Node000010"><a xlink:title=" ">
<path fill="none" stroke="#63b8ff" d="M651.64,-49.85C637.75,-39.99 622.21,-28.94 611.35,-21.22"/>
<polygon fill="#63b8ff" stroke="#63b8ff" points="649.49,-52.62 659.67,-55.56 653.55,-46.92 649.49,-52.62"/>
</a>
</g>
</g>
<!-- Node11 -->
<g id="Node000011" class="node">
<title>Node11</title>
<g id="a_Node000011"><a xlink:href="NixonCppLib_8cpp.html" target="_top" xlink:title=" ">
<polygon fill="white" stroke="#666666" points="809.12,-20.75 679.88,-20.75 679.88,0 809.12,0 809.12,-20.75"/>
<text text-anchor="middle" x="744.5" y="-7.25" font-family="Helvetica,sans-Serif" font-size="10.00">src/lib/NixonCppLib.cpp</text>
</a>
</g>
</g>
<!-- Node9&#45;&gt;Node11 -->
<g id="edge11_Node000009_Node000011" class="edge">
<title>Node9&#45;&gt;Node11</title>
<g id="a_edge11_Node000009_Node000011"><a xlink:title=" ">
<path fill="none" stroke="#63b8ff" d="M707.53,-48.42C717,-38.93 727.35,-28.56 734.68,-21.22"/>
<polygon fill="#63b8ff" stroke="#63b8ff" points="705.18,-45.82 700.6,-55.37 710.14,-50.76 705.18,-45.82"/>
</a>
</g>
</g>
</g>
</svg>

<g id="navigator" transform="translate(0 0)" fill="#404254">
  <rect fill="#f2f5e9" fill-opacity="0.5" stroke="#606060" stroke-width=".5" x="0" y="0" width="60" height="60"/>
  <use id="zoomplus" xlink:href="#zoomPlus" x="17" y="9" onmousedown="handleZoom(evt,'in')"/>
  <use id="zoomminus" xlink:href="#zoomMin" x="42" y="9" onmousedown="handleZoom(evt,'out')"/>
  <use id="reset" xlink:href="#resetDef" x="30" y="36" onmousedown="handleReset()"/>
   <use id="arrowup" xlink:href="#arrowUp" x="0" y="0" onmousedown="handlePan(0,-1)"/>
  <use id="arrowright" xlink:href="#arrowRight" x="0" y="0" onmousedown="handlePan(1,0)"/>
  <use id="arrowdown" xlink:href="#arrowDown" x="0" y="0" onmousedown="handlePan(0,1)"/>
  <use id="arrowleft" xlink:href="#arrowLeft" x="0" y="0" onmousedown="handlePan(-1,0)"/>
</g>
<svg viewBox="0 0 15 15" width="100%" height="30px" preserveAspectRatio="xMaxYMin meet">
 <g id="arrow_out" transform="scale(0.3 0.3)">
  <a xlink:href="IFileReader_8hpp__dep__incl_org.svg" target="_base">
   <rect id="button" ry="5" rx="5" y="6" x="6" height="38" width="38"
        fill="#f2f5e9" fill-opacity="0.5" stroke="#606060" stroke-width="1.0"/>
   <path id="arrow"
     d="M 11.500037,31.436501 C 11.940474,20.09759 22.043105,11.32322 32.158766,21.979434 L 37.068811,17.246167 C 37.068811,17.246167 37.088388,32 37.088388,32 L 22.160133,31.978069 C 22.160133,31.978069 26.997745,27.140456 26.997745,27.140456 C 18.528582,18.264221 13.291696,25.230495 11.500037,31.436501 z"
     style="fill:#404040;"/>
  </a>
 </g>
</svg>

<style type='text/css'>
<![CDATA[
[data-mouse-over-selected='false'] { opacity: 0.7; }
[data-mouse-over-selected='true']  { opacity: 1.0; }
]]>
</style>
<script type="application/ecmascript"><![CDATA[
document.addEventListener('DOMContentLoaded', (event) => {
  highlightEdges();
  highlightAdjacentNodes();
});
]]></script>
</svg>
