<?xml version="1.0" encoding="UTF-8" standalone="no"?>
<!DOCTYPE svg PUBLIC "-//W3C//DTD SVG 1.1//EN"
 "http://www.w3.org/Graphics/SVG/1.1/DTD/svg11.dtd">
<!-- Generated by graphviz version 12.2.1 (0)
 -->
<!-- Title: src/lib/Utils/Filesystem/IFileWriter.hpp Pages: 1 -->
<svg width="652pt" height="237pt"
 viewBox="0.00 0.00 652.12 237.25" xmlns="http://www.w3.org/2000/svg" xmlns:xlink="http://www.w3.org/1999/xlink">
<g id="graph0" class="graph" transform="scale(1 1) rotate(0) translate(4 233.25)">
<title>src/lib/Utils/Filesystem/IFileWriter.hpp</title>
<!-- Node1 -->
<g id="Node000001" class="node">
<title>Node1</title>
<g id="a_Node000001"><a xlink:title=" ">
<polygon fill="#999999" stroke="#666666" points="406,-229.25 279,-229.25 279,-195.75 406,-195.75 406,-229.25"/>
<text text-anchor="start" x="287" y="-215.75" font-family="Helvetica,sans-Serif" font-size="10.00">src/lib/Utils/Filesystem</text>
<text text-anchor="middle" x="342.5" y="-203" font-family="Helvetica,sans-Serif" font-size="10.00">/IFileWriter.hpp</text>
</a>
</g>
</g>
<!-- Node2 -->
<g id="Node000002" class="node">
<title>Node2</title>
<g id="a_Node000002"><a xlink:href="FileWriter_8hpp.html" target="_top" xlink:title=" ">
<polygon fill="white" stroke="#666666" points="272,-159.75 145,-159.75 145,-126.25 272,-126.25 272,-159.75"/>
<text text-anchor="start" x="153" y="-146.25" font-family="Helvetica,sans-Serif" font-size="10.00">src/lib/Utils/Filesystem</text>
<text text-anchor="middle" x="208.5" y="-133.5" font-family="Helvetica,sans-Serif" font-size="10.00">/FileWriter.hpp</text>
</a>
</g>
</g>
<!-- Node1&#45;&gt;Node2 -->
<g id="edge1_Node000001_Node000002" class="edge">
<title>Node1&#45;&gt;Node2</title>
<g id="a_edge1_Node000001_Node000002"><a xlink:title=" ">
<path fill="none" stroke="#63b8ff" d="M300.3,-190.24C280.9,-180.47 258.27,-169.07 240.33,-160.04"/>
<polygon fill="#63b8ff" stroke="#63b8ff" points="298.55,-193.28 309.05,-194.65 301.7,-187.03 298.55,-193.28"/>
</a>
</g>
</g>
<!-- Node5 -->
<g id="Node000005" class="node">
<title>Node5</title>
<g id="a_Node000005"><a xlink:href="JsonSerializer_8hpp.html" target="_top" xlink:title=" ">
<polygon fill="white" stroke="#666666" points="395.12,-159.75 289.88,-159.75 289.88,-126.25 395.12,-126.25 395.12,-159.75"/>
<text text-anchor="start" x="297.88" y="-146.25" font-family="Helvetica,sans-Serif" font-size="10.00">src/lib/Utils/Json</text>
<text text-anchor="middle" x="342.5" y="-133.5" font-family="Helvetica,sans-Serif" font-size="10.00">/JsonSerializer.hpp</text>
</a>
</g>
</g>
<!-- Node1&#45;&gt;Node5 -->
<g id="edge4_Node000001_Node000005" class="edge">
<title>Node1&#45;&gt;Node5</title>
<g id="a_edge4_Node000001_Node000005"><a xlink:title=" ">
<path fill="none" stroke="#63b8ff" d="M342.5,-184.06C342.5,-175.84 342.5,-167.09 342.5,-159.88"/>
<polygon fill="#63b8ff" stroke="#63b8ff" points="339,-183.99 342.5,-193.99 346,-183.99 339,-183.99"/>
</a>
</g>
</g>
<!-- Node7 -->
<g id="Node000007" class="node">
<title>Node7</title>
<g id="a_Node000007"><a xlink:href="UtilsFactory_8hpp.html" target="_top" xlink:title=" ">
<polygon fill="white" stroke="#666666" points="566,-153.38 415,-153.38 415,-132.62 566,-132.62 566,-153.38"/>
<text text-anchor="middle" x="490.5" y="-139.88" font-family="Helvetica,sans-Serif" font-size="10.00">src/lib/Utils/UtilsFactory.hpp</text>
</a>
</g>
</g>
<!-- Node1&#45;&gt;Node7 -->
<g id="edge7_Node000001_Node000007" class="edge">
<title>Node1&#45;&gt;Node7</title>
<g id="a_edge7_Node000001_Node000007"><a xlink:title=" ">
<path fill="none" stroke="#63b8ff" d="M388.32,-190.6C415.25,-178.32 448.03,-163.37 469.08,-153.77"/>
<polygon fill="#63b8ff" stroke="#63b8ff" points="386.97,-187.37 379.33,-194.7 389.88,-193.74 386.97,-187.37"/>
</a>
</g>
</g>
<!-- Node3 -->
<g id="Node000003" class="node">
<title>Node3</title>
<g id="a_Node000003"><a xlink:href="FileWriter_8cpp.html" target="_top" xlink:title=" ">
<polygon fill="white" stroke="#666666" points="127,-90.25 0,-90.25 0,-56.75 127,-56.75 127,-90.25"/>
<text text-anchor="start" x="8" y="-76.75" font-family="Helvetica,sans-Serif" font-size="10.00">src/lib/Utils/Filesystem</text>
<text text-anchor="middle" x="63.5" y="-64" font-family="Helvetica,sans-Serif" font-size="10.00">/FileWriter.cpp</text>
</a>
</g>
</g>
<!-- Node2&#45;&gt;Node3 -->
<g id="edge2_Node000002_Node000003" class="edge">
<title>Node2&#45;&gt;Node3</title>
<g id="a_edge2_Node000002_Node000003"><a xlink:title=" ">
<path fill="none" stroke="#63b8ff" d="M163.46,-121.03C142.42,-111.24 117.76,-99.76 98.2,-90.65"/>
<polygon fill="#63b8ff" stroke="#63b8ff" points="161.85,-124.15 172.4,-125.19 164.81,-117.8 161.85,-124.15"/>
</a>
</g>
</g>
<!-- Node4 -->
<g id="Node000004" class="node">
<title>Node4</title>
<g id="a_Node000004"><a xlink:href="UtilsFactory_8cpp.html" target="_top" xlink:title=" ">
<polygon fill="white" stroke="#666666" points="417.62,-83.88 267.38,-83.88 267.38,-63.12 417.62,-63.12 417.62,-83.88"/>
<text text-anchor="middle" x="342.5" y="-70.38" font-family="Helvetica,sans-Serif" font-size="10.00">src/lib/Utils/UtilsFactory.cpp</text>
</a>
</g>
</g>
<!-- Node2&#45;&gt;Node4 -->
<g id="edge3_Node000002_Node000004" class="edge">
<title>Node2&#45;&gt;Node4</title>
<g id="a_edge3_Node000002_Node000004"><a xlink:title=" ">
<path fill="none" stroke="#63b8ff" d="M250.64,-120.77C274.89,-108.56 304.22,-93.78 323.1,-84.27"/>
<polygon fill="#63b8ff" stroke="#63b8ff" points="249.3,-117.53 241.95,-125.15 252.45,-123.78 249.3,-117.53"/>
</a>
</g>
</g>
<!-- Node5&#45;&gt;Node4 -->
<g id="edge6_Node000005_Node000004" class="edge">
<title>Node5&#45;&gt;Node4</title>
<g id="a_edge6_Node000005_Node000004"><a xlink:title=" ">
<path fill="none" stroke="#63b8ff" d="M342.5,-114.53C342.5,-103.83 342.5,-92.26 342.5,-84.32"/>
<polygon fill="#63b8ff" stroke="#63b8ff" points="339,-114.49 342.5,-124.49 346,-114.49 339,-114.49"/>
</a>
</g>
</g>
<!-- Node6 -->
<g id="Node000006" class="node">
<title>Node6</title>
<g id="a_Node000006"><a xlink:href="JsonSerializer_8cpp.html" target="_top" xlink:title=" ">
<polygon fill="white" stroke="#666666" points="249.75,-90.25 145.25,-90.25 145.25,-56.75 249.75,-56.75 249.75,-90.25"/>
<text text-anchor="start" x="153.25" y="-76.75" font-family="Helvetica,sans-Serif" font-size="10.00">src/lib/Utils/Json</text>
<text text-anchor="middle" x="197.5" y="-64" font-family="Helvetica,sans-Serif" font-size="10.00">/JsonSerializer.cpp</text>
</a>
</g>
</g>
<!-- Node5&#45;&gt;Node6 -->
<g id="edge5_Node000005_Node000006" class="edge">
<title>Node5&#45;&gt;Node6</title>
<g id="a_edge5_Node000005_Node000006"><a xlink:title=" ">
<path fill="none" stroke="#63b8ff" d="M297.46,-121.03C276.42,-111.24 251.76,-99.76 232.2,-90.65"/>
<polygon fill="#63b8ff" stroke="#63b8ff" points="295.85,-124.15 306.4,-125.19 298.81,-117.8 295.85,-124.15"/>
</a>
</g>
</g>
<!-- Node7&#45;&gt;Node4 -->
<g id="edge12_Node000007_Node000004" class="edge">
<title>Node7&#45;&gt;Node4</title>
<g id="a_edge12_Node000007_Node000004"><a xlink:title=" ">
<path fill="none" stroke="#63b8ff" d="M458.71,-127.5C430.13,-114.47 388.94,-95.68 364.05,-84.33"/>
<polygon fill="#63b8ff" stroke="#63b8ff" points="457.05,-130.59 467.6,-131.56 459.96,-124.22 457.05,-130.59"/>
</a>
</g>
</g>
<!-- Node8 -->
<g id="Node000008" class="node">
<title>Node8</title>
<g id="a_Node000008"><a xlink:href="NixonCppLib_8hpp.html" target="_top" xlink:title=" ">
<polygon fill="white" stroke="#666666" points="551,-90.25 436,-90.25 436,-56.75 551,-56.75 551,-90.25"/>
<text text-anchor="start" x="444" y="-76.75" font-family="Helvetica,sans-Serif" font-size="10.00">include/NixonCppLib</text>
<text text-anchor="middle" x="493.5" y="-64" font-family="Helvetica,sans-Serif" font-size="10.00">/NixonCppLib.hpp</text>
</a>
</g>
</g>
<!-- Node7&#45;&gt;Node8 -->
<g id="edge8_Node000007_Node000008" class="edge">
<title>Node7&#45;&gt;Node8</title>
<g id="a_edge8_Node000007_Node000008"><a xlink:title=" ">
<path fill="none" stroke="#63b8ff" d="M491.43,-121.13C491.86,-111.32 492.38,-99.8 492.78,-90.67"/>
<polygon fill="#63b8ff" stroke="#63b8ff" points="487.94,-120.67 491,-130.82 494.94,-120.98 487.94,-120.67"/>
</a>
</g>
</g>
<!-- Node9 -->
<g id="Node000009" class="node">
<title>Node9</title>
<g id="a_Node000009"><a xlink:href="Application_8cpp.html" target="_top" xlink:title=" ">
<polygon fill="white" stroke="#666666" points="644.12,-20.75 514.88,-20.75 514.88,0 644.12,0 644.12,-20.75"/>
<text text-anchor="middle" x="579.5" y="-7.25" font-family="Helvetica,sans-Serif" font-size="10.00">src/app/Application.cpp</text>
</a>
</g>
</g>
<!-- Node7&#45;&gt;Node9 -->
<g id="edge11_Node000007_Node000009" class="edge">
<title>Node7&#45;&gt;Node9</title>
<g id="a_edge11_Node000007_Node000009"><a xlink:title=" ">
<path fill="none" stroke="#63b8ff" d="M520.33,-126.48C534.5,-117.66 550.49,-105.35 560.5,-90.25 574.9,-68.53 578.41,-37.01 579.25,-21.2"/>
<polygon fill="#63b8ff" stroke="#63b8ff" points="518.61,-123.43 511.75,-131.51 522.15,-129.47 518.61,-123.43"/>
</a>
</g>
</g>
<!-- Node8&#45;&gt;Node9 -->
<g id="edge9_Node000008_Node000009" class="edge">
<title>Node8&#45;&gt;Node9</title>
<g id="a_edge9_Node000008_Node000009"><a xlink:title=" ">
<path fill="none" stroke="#63b8ff" d="M525.36,-49.85C539.25,-39.99 554.79,-28.94 565.65,-21.22"/>
<polygon fill="#63b8ff" stroke="#63b8ff" points="523.45,-46.92 517.33,-55.56 527.51,-52.62 523.45,-46.92"/>
</a>
</g>
</g>
<!-- Node10 -->
<g id="Node000010" class="node">
<title>Node10</title>
<g id="a_Node000010"><a xlink:href="NixonCppLib_8cpp.html" target="_top" xlink:title=" ">
<polygon fill="white" stroke="#666666" points="497.12,-20.75 367.88,-20.75 367.88,0 497.12,0 497.12,-20.75"/>
<text text-anchor="middle" x="432.5" y="-7.25" font-family="Helvetica,sans-Serif" font-size="10.00">src/lib/NixonCppLib.cpp</text>
</a>
</g>
</g>
<!-- Node8&#45;&gt;Node10 -->
<g id="edge10_Node000008_Node000010" class="edge">
<title>Node8&#45;&gt;Node10</title>
<g id="a_edge10_Node000008_Node000010"><a xlink:title=" ">
<path fill="none" stroke="#63b8ff" d="M469.47,-48.42C460,-38.93 449.65,-28.56 442.32,-21.22"/>
<polygon fill="#63b8ff" stroke="#63b8ff" points="466.86,-50.76 476.4,-55.37 471.82,-45.82 466.86,-50.76"/>
</a>
</g>
</g>
</g>
</svg>
