<?xml version="1.0" encoding="UTF-8" standalone="no"?>
<!DOCTYPE svg PUBLIC "-//W3C//DTD SVG 1.1//EN"
 "http://www.w3.org/Graphics/SVG/1.1/DTD/svg11.dtd">
<!-- Generated by graphviz version 12.2.1 (0)
 -->
<!-- Title: src/lib/Utils/Filesystem/IFileReader.hpp Pages: 1 -->
<svg width="423pt" height="155pt"
 viewBox="0.00 0.00 422.88 155.00" xmlns="http://www.w3.org/2000/svg" xmlns:xlink="http://www.w3.org/1999/xlink">

<svg id="main" version="1.1" xmlns="http://www.w3.org/2000/svg" xmlns:xlink="http://www.w3.org/1999/xlink" xml:space="preserve">

<style type="text/css"><![CDATA[
.node, .edge {opacity: 0.7;}
.node.selected, .edge.selected {opacity: 1;}
.edge:hover path { stroke: red; }
.edge:hover polygon { stroke: red; fill: red; }
]]></style>
<script type="application/ecmascript" xlink:href="svg.min.js"/>
<svg id="graph" class="graph">
<g id="graph0" class="graph" transform="scale(1 1) rotate(0) translate(4 151)">
<title>src/lib/Utils/Filesystem/IFileReader.hpp</title>
<!-- Node1 -->
<g id="Node000001" class="node">
<title>Node1</title>
<g id="a_Node000001"><a xlink:title=" ">
<polygon fill="#999999" stroke="#666666" points="318,-147 191,-147 191,-113.5 318,-113.5 318,-147"/>
<text text-anchor="start" x="199" y="-133.5" font-family="Helvetica,sans-Serif" font-size="10.00">src/lib/Utils/Filesystem</text>
<text text-anchor="middle" x="254.5" y="-120.75" font-family="Helvetica,sans-Serif" font-size="10.00">/IFileReader.hpp</text>
</a>
</g>
</g>
<!-- Node2 -->
<g id="Node000002" class="node">
<title>Node2</title>
<g id="a_Node000002"><a xlink:href="UtilsError_8hpp.html" target="_top" xlink:title=" ">
<polygon fill="white" stroke="#666666" points="226.25,-77.5 118.75,-77.5 118.75,-56.75 226.25,-56.75 226.25,-77.5"/>
<text text-anchor="middle" x="172.5" y="-64" font-family="Helvetica,sans-Serif" font-size="10.00">Utils/UtilsError.hpp</text>
</a>
</g>
</g>
<!-- Node1&#45;&gt;Node2 -->
<g id="edge1_Node000001_Node000002" class="edge">
<title>Node1&#45;&gt;Node2</title>
<g id="a_edge1_Node000001_Node000002"><a xlink:title=" ">
<path fill="none" stroke="#63b8ff" d="M232.96,-113.19C221.24,-104.46 206.77,-93.67 194.92,-84.84"/>
<polygon fill="#63b8ff" stroke="#63b8ff" points="197.03,-82.04 186.92,-78.87 192.84,-87.65 197.03,-82.04"/>
</a>
</g>
</g>
<!-- Node3 -->
<g id="Node000003" class="node">
<title>Node3</title>
<g id="a_Node000003"><a xlink:title=" ">
<polygon fill="#e0e0e0" stroke="#999999" points="49,-20.75 0,-20.75 0,0 49,0 49,-20.75"/>
<text text-anchor="middle" x="24.5" y="-7.25" font-family="Helvetica,sans-Serif" font-size="10.00">cstdint</text>
</a>
</g>
</g>
<!-- Node1&#45;&gt;Node3 -->
<g id="edge7_Node000001_Node000003" class="edge">
<title>Node1&#45;&gt;Node3</title>
<g id="a_edge7_Node000001_Node000003"><a xlink:title=" ">
<path fill="none" stroke="#63b8ff" d="M195.87,-113.02C168.72,-104.34 136.56,-92.35 109.5,-77.5 84.61,-63.84 59.33,-43.11 42.89,-28.51"/>
<polygon fill="#63b8ff" stroke="#63b8ff" points="45.61,-26.25 35.85,-22.13 40.91,-31.44 45.61,-26.25"/>
</a>
</g>
</g>
<!-- Node6 -->
<g id="Node000006" class="node">
<title>Node6</title>
<g id="a_Node000006"><a xlink:title=" ">
<polygon fill="#e0e0e0" stroke="#999999" points="334.38,-20.75 290.62,-20.75 290.62,0 334.38,0 334.38,-20.75"/>
<text text-anchor="middle" x="312.5" y="-7.25" font-family="Helvetica,sans-Serif" font-size="10.00">string</text>
</a>
</g>
</g>
<!-- Node1&#45;&gt;Node6 -->
<g id="edge9_Node000001_Node000006" class="edge">
<title>Node1&#45;&gt;Node6</title>
<g id="a_edge9_Node000001_Node000006"><a xlink:title=" ">
<path fill="none" stroke="#63b8ff" d="M256.89,-113.25C259.61,-98.06 264.98,-74.9 274.5,-56.75 279.72,-46.81 287.4,-37.09 294.5,-29.21"/>
<polygon fill="#63b8ff" stroke="#63b8ff" points="296.99,-31.67 301.33,-22.01 291.91,-26.85 296.99,-31.67"/>
</a>
</g>
</g>
<!-- Node8 -->
<g id="Node000008" class="node">
<title>Node8</title>
<g id="a_Node000008"><a xlink:title=" ">
<polygon fill="#e0e0e0" stroke="#999999" points="350,-77.5 283,-77.5 283,-56.75 350,-56.75 350,-77.5"/>
<text text-anchor="middle" x="316.5" y="-64" font-family="Helvetica,sans-Serif" font-size="10.00">filesystem</text>
</a>
</g>
</g>
<!-- Node1&#45;&gt;Node8 -->
<g id="edge8_Node000001_Node000008" class="edge">
<title>Node1&#45;&gt;Node8</title>
<g id="a_edge8_Node000001_Node000008"><a xlink:title=" ">
<path fill="none" stroke="#63b8ff" d="M270.79,-113.19C279.29,-104.81 289.72,-94.53 298.46,-85.91"/>
<polygon fill="#63b8ff" stroke="#63b8ff" points="300.78,-88.54 305.44,-79.03 295.86,-83.56 300.78,-88.54"/>
</a>
</g>
</g>
<!-- Node9 -->
<g id="Node000009" class="node">
<title>Node9</title>
<g id="a_Node000009"><a xlink:title=" ">
<polygon fill="#e0e0e0" stroke="#999999" points="414.88,-77.5 368.12,-77.5 368.12,-56.75 414.88,-56.75 414.88,-77.5"/>
<text text-anchor="middle" x="391.5" y="-64" font-family="Helvetica,sans-Serif" font-size="10.00">vector</text>
</a>
</g>
</g>
<!-- Node1&#45;&gt;Node9 -->
<g id="edge10_Node000001_Node000009" class="edge">
<title>Node1&#45;&gt;Node9</title>
<g id="a_edge10_Node000001_Node000009"><a xlink:title=" ">
<path fill="none" stroke="#63b8ff" d="M290.85,-113.03C312.09,-103.56 338.65,-91.7 359.16,-82.56"/>
<polygon fill="#63b8ff" stroke="#63b8ff" points="360.47,-85.8 368.18,-78.53 357.62,-79.41 360.47,-85.8"/>
</a>
</g>
</g>
<!-- Node2&#45;&gt;Node3 -->
<g id="edge2_Node000002_Node000003" class="edge">
<title>Node2&#45;&gt;Node3</title>
<g id="a_edge2_Node000002_Node000003"><a xlink:title=" ">
<path fill="none" stroke="#63b8ff" d="M146.04,-56.34C122.03,-47.46 86.45,-34.29 59.98,-24.5"/>
<polygon fill="#63b8ff" stroke="#63b8ff" points="61.27,-21.24 50.67,-21.06 58.84,-27.81 61.27,-21.24"/>
</a>
</g>
</g>
<!-- Node4 -->
<g id="Node000004" class="node">
<title>Node4</title>
<g id="a_Node000004"><a xlink:title=" ">
<polygon fill="#e0e0e0" stroke="#999999" points="122.38,-20.75 66.62,-20.75 66.62,0 122.38,0 122.38,-20.75"/>
<text text-anchor="middle" x="94.5" y="-7.25" font-family="Helvetica,sans-Serif" font-size="10.00">optional</text>
</a>
</g>
</g>
<!-- Node2&#45;&gt;Node4 -->
<g id="edge3_Node000002_Node000004" class="edge">
<title>Node2&#45;&gt;Node4</title>
<g id="a_edge3_Node000002_Node000004"><a xlink:title=" ">
<path fill="none" stroke="#63b8ff" d="M158.56,-56.34C147.13,-48.32 130.73,-36.81 117.39,-27.44"/>
<polygon fill="#63b8ff" stroke="#63b8ff" points="119.76,-24.83 109.56,-21.95 115.74,-30.56 119.76,-24.83"/>
</a>
</g>
</g>
<!-- Node5 -->
<g id="Node000005" class="node">
<title>Node5</title>
<g id="a_Node000005"><a xlink:title=" ">
<polygon fill="#e0e0e0" stroke="#999999" points="204.5,-20.75 140.5,-20.75 140.5,0 204.5,0 204.5,-20.75"/>
<text text-anchor="middle" x="172.5" y="-7.25" font-family="Helvetica,sans-Serif" font-size="10.00">stdexcept</text>
</a>
</g>
</g>
<!-- Node2&#45;&gt;Node5 -->
<g id="edge4_Node000002_Node000005" class="edge">
<title>Node2&#45;&gt;Node5</title>
<g id="a_edge4_Node000002_Node000005"><a xlink:title=" ">
<path fill="none" stroke="#63b8ff" d="M172.5,-56.34C172.5,-49.72 172.5,-40.72 172.5,-32.52"/>
<polygon fill="#63b8ff" stroke="#63b8ff" points="176,-32.59 172.5,-22.59 169,-32.59 176,-32.59"/>
</a>
</g>
</g>
<!-- Node2&#45;&gt;Node6 -->
<g id="edge5_Node000002_Node000006" class="edge">
<title>Node2&#45;&gt;Node6</title>
<g id="a_edge5_Node000002_Node000006"><a xlink:title=" ">
<path fill="none" stroke="#63b8ff" d="M197.53,-56.34C220.55,-47.33 254.82,-33.93 279.96,-24.1"/>
<polygon fill="#63b8ff" stroke="#63b8ff" points="281,-27.45 289.04,-20.55 278.45,-20.93 281,-27.45"/>
</a>
</g>
</g>
<!-- Node7 -->
<g id="Node000007" class="node">
<title>Node7</title>
<g id="a_Node000007"><a xlink:title=" ">
<polygon fill="#e0e0e0" stroke="#999999" points="272.75,-20.75 222.25,-20.75 222.25,0 272.75,0 272.75,-20.75"/>
<text text-anchor="middle" x="247.5" y="-7.25" font-family="Helvetica,sans-Serif" font-size="10.00">variant</text>
</a>
</g>
</g>
<!-- Node2&#45;&gt;Node7 -->
<g id="edge6_Node000002_Node000007" class="edge">
<title>Node2&#45;&gt;Node7</title>
<g id="a_edge6_Node000002_Node000007"><a xlink:title=" ">
<path fill="none" stroke="#63b8ff" d="M185.91,-56.34C196.79,-48.4 212.36,-37.03 225.12,-27.71"/>
<polygon fill="#63b8ff" stroke="#63b8ff" points="226.97,-30.69 232.99,-21.97 222.84,-25.04 226.97,-30.69"/>
</a>
</g>
</g>
</g>
</svg>
</svg>

<style type='text/css'>
<![CDATA[
[data-mouse-over-selected='false'] { opacity: 0.7; }
[data-mouse-over-selected='true']  { opacity: 1.0; }
]]>
</style>
<script type="application/ecmascript"><![CDATA[
document.addEventListener('DOMContentLoaded', (event) => {
  highlightEdges();
  highlightAdjacentNodes();
});
]]></script>
</svg>
