<?xml version="1.0" encoding="UTF-8" standalone="no"?>
<!DOCTYPE svg PUBLIC "-//W3C//DTD SVG 1.1//EN"
 "http://www.w3.org/Graphics/SVG/1.1/DTD/svg11.dtd">
<!-- Generated by graphviz version 12.2.1 (0)
 -->
<!-- Title: src/lib/Utils/Json/IJsonSerializer.hpp Pages: 1 -->
<svg width="668pt" height="237pt"
 viewBox="0.00 0.00 668.00 237.25" xmlns="http://www.w3.org/2000/svg" xmlns:xlink="http://www.w3.org/1999/xlink">
<g id="graph0" class="graph" transform="scale(1 1) rotate(0) translate(4 233.25)">
<title>src/lib/Utils/Json/IJsonSerializer.hpp</title>
<!-- Node1 -->
<g id="Node000001" class="node">
<title>Node1</title>
<g id="a_Node000001"><a xlink:title=" ">
<polygon fill="#999999" stroke="#666666" points="412.5,-229.25 304.25,-229.25 304.25,-195.75 412.5,-195.75 412.5,-229.25"/>
<text text-anchor="start" x="312.25" y="-215.75" font-family="Helvetica,sans-Serif" font-size="10.00">src/lib/Utils/Json</text>
<text text-anchor="middle" x="358.38" y="-203" font-family="Helvetica,sans-Serif" font-size="10.00">/IJsonSerializer.hpp</text>
</a>
</g>
</g>
<!-- Node2 -->
<g id="Node000002" class="node">
<title>Node2</title>
<g id="a_Node000002"><a xlink:href="CustomStringsLoader_8hpp.html" target="_top" xlink:title=" ">
<polygon fill="white" stroke="#666666" points="288.12,-159.75 144.62,-159.75 144.62,-126.25 288.12,-126.25 288.12,-159.75"/>
<text text-anchor="start" x="152.62" y="-146.25" font-family="Helvetica,sans-Serif" font-size="10.00">src/lib/Utils/Json</text>
<text text-anchor="middle" x="216.38" y="-133.5" font-family="Helvetica,sans-Serif" font-size="10.00">/CustomStringsLoader.hpp</text>
</a>
</g>
</g>
<!-- Node1&#45;&gt;Node2 -->
<g id="edge1_Node000001_Node000002" class="edge">
<title>Node1&#45;&gt;Node2</title>
<g id="a_edge1_Node000001_Node000002"><a xlink:title=" ">
<path fill="none" stroke="#63b8ff" d="M314.23,-190.51C293.54,-180.68 269.29,-169.16 250.11,-160.04"/>
<polygon fill="#63b8ff" stroke="#63b8ff" points="312.46,-193.55 323,-194.68 315.47,-187.23 312.46,-193.55"/>
</a>
</g>
</g>
<!-- Node5 -->
<g id="Node000005" class="node">
<title>Node5</title>
<g id="a_Node000005"><a xlink:href="JsonSerializer_8hpp.html" target="_top" xlink:title=" ">
<polygon fill="white" stroke="#666666" points="411,-159.75 305.75,-159.75 305.75,-126.25 411,-126.25 411,-159.75"/>
<text text-anchor="start" x="313.75" y="-146.25" font-family="Helvetica,sans-Serif" font-size="10.00">src/lib/Utils/Json</text>
<text text-anchor="middle" x="358.38" y="-133.5" font-family="Helvetica,sans-Serif" font-size="10.00">/JsonSerializer.hpp</text>
</a>
</g>
</g>
<!-- Node1&#45;&gt;Node5 -->
<g id="edge4_Node000001_Node000005" class="edge">
<title>Node1&#45;&gt;Node5</title>
<g id="a_edge4_Node000001_Node000005"><a xlink:title=" ">
<path fill="none" stroke="#63b8ff" d="M358.38,-184.06C358.38,-175.84 358.38,-167.09 358.38,-159.88"/>
<polygon fill="#63b8ff" stroke="#63b8ff" points="354.88,-183.99 358.38,-193.99 361.88,-183.99 354.88,-183.99"/>
</a>
</g>
</g>
<!-- Node7 -->
<g id="Node000007" class="node">
<title>Node7</title>
<g id="a_Node000007"><a xlink:href="UtilsFactory_8hpp.html" target="_top" xlink:title=" ">
<polygon fill="white" stroke="#666666" points="581.88,-153.38 430.88,-153.38 430.88,-132.62 581.88,-132.62 581.88,-153.38"/>
<text text-anchor="middle" x="506.38" y="-139.88" font-family="Helvetica,sans-Serif" font-size="10.00">src/lib/Utils/UtilsFactory.hpp</text>
</a>
</g>
</g>
<!-- Node1&#45;&gt;Node7 -->
<g id="edge7_Node000001_Node000007" class="edge">
<title>Node1&#45;&gt;Node7</title>
<g id="a_edge7_Node000001_Node000007"><a xlink:title=" ">
<path fill="none" stroke="#63b8ff" d="M404.2,-190.6C431.13,-178.32 463.91,-163.37 484.95,-153.77"/>
<polygon fill="#63b8ff" stroke="#63b8ff" points="402.85,-187.37 395.2,-194.7 405.75,-193.74 402.85,-187.37"/>
</a>
</g>
</g>
<!-- Node3 -->
<g id="Node000003" class="node">
<title>Node3</title>
<g id="a_Node000003"><a xlink:href="CustomStringsLoader_8cpp.html" target="_top" xlink:title=" ">
<polygon fill="white" stroke="#666666" points="142.75,-90.25 0,-90.25 0,-56.75 142.75,-56.75 142.75,-90.25"/>
<text text-anchor="start" x="8" y="-76.75" font-family="Helvetica,sans-Serif" font-size="10.00">src/lib/Utils/Json</text>
<text text-anchor="middle" x="71.38" y="-64" font-family="Helvetica,sans-Serif" font-size="10.00">/CustomStringsLoader.cpp</text>
</a>
</g>
</g>
<!-- Node2&#45;&gt;Node3 -->
<g id="edge2_Node000002_Node000003" class="edge">
<title>Node2&#45;&gt;Node3</title>
<g id="a_edge2_Node000002_Node000003"><a xlink:title=" ">
<path fill="none" stroke="#63b8ff" d="M171.33,-121.03C150.29,-111.24 125.64,-99.76 106.07,-90.65"/>
<polygon fill="#63b8ff" stroke="#63b8ff" points="169.73,-124.15 180.27,-125.19 172.68,-117.8 169.73,-124.15"/>
</a>
</g>
</g>
<!-- Node4 -->
<g id="Node000004" class="node">
<title>Node4</title>
<g id="a_Node000004"><a xlink:href="UtilsFactory_8cpp.html" target="_top" xlink:title=" ">
<polygon fill="white" stroke="#666666" points="433.5,-83.88 283.25,-83.88 283.25,-63.12 433.5,-63.12 433.5,-83.88"/>
<text text-anchor="middle" x="358.38" y="-70.38" font-family="Helvetica,sans-Serif" font-size="10.00">src/lib/Utils/UtilsFactory.cpp</text>
</a>
</g>
</g>
<!-- Node2&#45;&gt;Node4 -->
<g id="edge3_Node000002_Node000004" class="edge">
<title>Node2&#45;&gt;Node4</title>
<g id="a_edge3_Node000002_Node000004"><a xlink:title=" ">
<path fill="none" stroke="#63b8ff" d="M260.68,-120.94C286.45,-108.69 317.72,-93.83 337.82,-84.27"/>
<polygon fill="#63b8ff" stroke="#63b8ff" points="259.28,-117.73 251.75,-125.18 262.29,-124.05 259.28,-117.73"/>
</a>
</g>
</g>
<!-- Node5&#45;&gt;Node4 -->
<g id="edge6_Node000005_Node000004" class="edge">
<title>Node5&#45;&gt;Node4</title>
<g id="a_edge6_Node000005_Node000004"><a xlink:title=" ">
<path fill="none" stroke="#63b8ff" d="M358.38,-114.53C358.38,-103.83 358.38,-92.26 358.38,-84.32"/>
<polygon fill="#63b8ff" stroke="#63b8ff" points="354.88,-114.49 358.38,-124.49 361.88,-114.49 354.88,-114.49"/>
</a>
</g>
</g>
<!-- Node6 -->
<g id="Node000006" class="node">
<title>Node6</title>
<g id="a_Node000006"><a xlink:href="JsonSerializer_8cpp.html" target="_top" xlink:title=" ">
<polygon fill="white" stroke="#666666" points="265.62,-90.25 161.12,-90.25 161.12,-56.75 265.62,-56.75 265.62,-90.25"/>
<text text-anchor="start" x="169.12" y="-76.75" font-family="Helvetica,sans-Serif" font-size="10.00">src/lib/Utils/Json</text>
<text text-anchor="middle" x="213.38" y="-64" font-family="Helvetica,sans-Serif" font-size="10.00">/JsonSerializer.cpp</text>
</a>
</g>
</g>
<!-- Node5&#45;&gt;Node6 -->
<g id="edge5_Node000005_Node000006" class="edge">
<title>Node5&#45;&gt;Node6</title>
<g id="a_edge5_Node000005_Node000006"><a xlink:title=" ">
<path fill="none" stroke="#63b8ff" d="M313.33,-121.03C292.29,-111.24 267.64,-99.76 248.07,-90.65"/>
<polygon fill="#63b8ff" stroke="#63b8ff" points="311.73,-124.15 322.27,-125.19 314.68,-117.8 311.73,-124.15"/>
</a>
</g>
</g>
<!-- Node7&#45;&gt;Node4 -->
<g id="edge12_Node000007_Node000004" class="edge">
<title>Node7&#45;&gt;Node4</title>
<g id="a_edge12_Node000007_Node000004"><a xlink:title=" ">
<path fill="none" stroke="#63b8ff" d="M474.58,-127.5C446,-114.47 404.81,-95.68 379.92,-84.33"/>
<polygon fill="#63b8ff" stroke="#63b8ff" points="472.93,-130.59 483.48,-131.56 475.83,-124.22 472.93,-130.59"/>
</a>
</g>
</g>
<!-- Node8 -->
<g id="Node000008" class="node">
<title>Node8</title>
<g id="a_Node000008"><a xlink:href="NixonCppLib_8hpp.html" target="_top" xlink:title=" ">
<polygon fill="white" stroke="#666666" points="566.88,-90.25 451.88,-90.25 451.88,-56.75 566.88,-56.75 566.88,-90.25"/>
<text text-anchor="start" x="459.88" y="-76.75" font-family="Helvetica,sans-Serif" font-size="10.00">include/NixonCppLib</text>
<text text-anchor="middle" x="509.38" y="-64" font-family="Helvetica,sans-Serif" font-size="10.00">/NixonCppLib.hpp</text>
</a>
</g>
</g>
<!-- Node7&#45;&gt;Node8 -->
<g id="edge8_Node000007_Node000008" class="edge">
<title>Node7&#45;&gt;Node8</title>
<g id="a_edge8_Node000007_Node000008"><a xlink:title=" ">
<path fill="none" stroke="#63b8ff" d="M507.3,-121.13C507.74,-111.32 508.25,-99.8 508.66,-90.67"/>
<polygon fill="#63b8ff" stroke="#63b8ff" points="503.82,-120.67 506.87,-130.82 510.81,-120.98 503.82,-120.67"/>
</a>
</g>
</g>
<!-- Node9 -->
<g id="Node000009" class="node">
<title>Node9</title>
<g id="a_Node000009"><a xlink:href="Application_8cpp.html" target="_top" xlink:title=" ">
<polygon fill="white" stroke="#666666" points="660,-20.75 530.75,-20.75 530.75,0 660,0 660,-20.75"/>
<text text-anchor="middle" x="595.38" y="-7.25" font-family="Helvetica,sans-Serif" font-size="10.00">src/app/Application.cpp</text>
</a>
</g>
</g>
<!-- Node7&#45;&gt;Node9 -->
<g id="edge11_Node000007_Node000009" class="edge">
<title>Node7&#45;&gt;Node9</title>
<g id="a_edge11_Node000007_Node000009"><a xlink:title=" ">
<path fill="none" stroke="#63b8ff" d="M536.21,-126.48C550.38,-117.66 566.36,-105.35 576.38,-90.25 590.77,-68.53 594.28,-37.01 595.12,-21.2"/>
<polygon fill="#63b8ff" stroke="#63b8ff" points="534.48,-123.43 527.63,-131.51 538.02,-129.47 534.48,-123.43"/>
</a>
</g>
</g>
<!-- Node8&#45;&gt;Node9 -->
<g id="edge9_Node000008_Node000009" class="edge">
<title>Node8&#45;&gt;Node9</title>
<g id="a_edge9_Node000008_Node000009"><a xlink:title=" ">
<path fill="none" stroke="#63b8ff" d="M541.24,-49.85C555.12,-39.99 570.67,-28.94 581.53,-21.22"/>
<polygon fill="#63b8ff" stroke="#63b8ff" points="539.33,-46.92 533.2,-55.56 543.38,-52.62 539.33,-46.92"/>
</a>
</g>
</g>
<!-- Node10 -->
<g id="Node000010" class="node">
<title>Node10</title>
<g id="a_Node000010"><a xlink:href="NixonCppLib_8cpp.html" target="_top" xlink:title=" ">
<polygon fill="white" stroke="#666666" points="513,-20.75 383.75,-20.75 383.75,0 513,0 513,-20.75"/>
<text text-anchor="middle" x="448.38" y="-7.25" font-family="Helvetica,sans-Serif" font-size="10.00">src/lib/NixonCppLib.cpp</text>
</a>
</g>
</g>
<!-- Node8&#45;&gt;Node10 -->
<g id="edge10_Node000008_Node000010" class="edge">
<title>Node8&#45;&gt;Node10</title>
<g id="a_edge10_Node000008_Node000010"><a xlink:title=" ">
<path fill="none" stroke="#63b8ff" d="M485.35,-48.42C475.87,-38.93 465.53,-28.56 458.2,-21.22"/>
<polygon fill="#63b8ff" stroke="#63b8ff" points="482.74,-50.76 492.28,-55.37 487.69,-45.82 482.74,-50.76"/>
</a>
</g>
</g>
</g>
</svg>
