<?xml version="1.0" encoding="UTF-8" standalone="no"?>
<!DOCTYPE svg PUBLIC "-//W3C//DTD SVG 1.1//EN"
 "http://www.w3.org/Graphics/SVG/1.1/DTD/svg11.dtd">
<!-- Generated by graphviz version 12.2.1 (0)
 -->
<!-- Title: src/lib/Utils/Logger/ILogger.hpp Pages: 1 -->
<svg width="353pt" height="98pt"
 viewBox="0.00 0.00 353.00 98.25" xmlns="http://www.w3.org/2000/svg" xmlns:xlink="http://www.w3.org/1999/xlink">
<g id="graph0" class="graph" transform="scale(1 1) rotate(0) translate(4 94.25)">
<title>src/lib/Utils/Logger/ILogger.hpp</title>
<!-- Node1 -->
<g id="Node000001" class="node">
<title>Node1</title>
<g id="a_Node000001"><a xlink:title=" ">
<polygon fill="#999999" stroke="#666666" points="233.5,-90.25 126.75,-90.25 126.75,-56.75 233.5,-56.75 233.5,-90.25"/>
<text text-anchor="start" x="134.75" y="-76.75" font-family="Helvetica,sans-Serif" font-size="10.00">src/lib/Utils/Logger</text>
<text text-anchor="middle" x="180.12" y="-64" font-family="Helvetica,sans-Serif" font-size="10.00">/ILogger.hpp</text>
</a>
</g>
</g>
<!-- Node2 -->
<g id="Node000002" class="node">
<title>Node2</title>
<g id="a_Node000002"><a xlink:title=" ">
<polygon fill="#e0e0e0" stroke="#999999" points="66.25,-20.75 0,-20.75 0,0 66.25,0 66.25,-20.75"/>
<text text-anchor="middle" x="33.12" y="-7.25" font-family="Helvetica,sans-Serif" font-size="10.00">fmt/core.h</text>
</a>
</g>
</g>
<!-- Node1&#45;&gt;Node2 -->
<g id="edge1_Node000001_Node000002" class="edge">
<title>Node1&#45;&gt;Node2</title>
<g id="a_edge1_Node000001_Node000002"><a xlink:title=" ">
<path fill="none" stroke="#63b8ff" d="M141.12,-56.28C118.12,-46.72 89.31,-34.74 67.22,-25.55"/>
<polygon fill="#63b8ff" stroke="#63b8ff" points="68.64,-22.35 58.07,-21.75 65.96,-28.82 68.64,-22.35"/>
</a>
</g>
</g>
<!-- Node3 -->
<g id="Node000003" class="node">
<title>Node3</title>
<g id="a_Node000003"><a xlink:title=" ">
<polygon fill="#e0e0e0" stroke="#999999" points="133.62,-20.75 84.62,-20.75 84.62,0 133.62,0 133.62,-20.75"/>
<text text-anchor="middle" x="109.12" y="-7.25" font-family="Helvetica,sans-Serif" font-size="10.00">cstdint</text>
</a>
</g>
</g>
<!-- Node1&#45;&gt;Node3 -->
<g id="edge2_Node000001_Node000003" class="edge">
<title>Node1&#45;&gt;Node3</title>
<g id="a_edge2_Node000001_Node000003"><a xlink:title=" ">
<path fill="none" stroke="#63b8ff" d="M161.47,-56.44C151.53,-47.88 139.3,-37.35 129.16,-28.62"/>
<polygon fill="#63b8ff" stroke="#63b8ff" points="131.57,-26.08 121.7,-22.2 127,-31.38 131.57,-26.08"/>
</a>
</g>
</g>
<!-- Node4 -->
<g id="Node000004" class="node">
<title>Node4</title>
<g id="a_Node000004"><a xlink:title=" ">
<polygon fill="#e0e0e0" stroke="#999999" points="208.75,-20.75 151.5,-20.75 151.5,0 208.75,0 208.75,-20.75"/>
<text text-anchor="middle" x="180.12" y="-7.25" font-family="Helvetica,sans-Serif" font-size="10.00">memory</text>
</a>
</g>
</g>
<!-- Node1&#45;&gt;Node4 -->
<g id="edge3_Node000001_Node000004" class="edge">
<title>Node1&#45;&gt;Node4</title>
<g id="a_edge3_Node000001_Node000004"><a xlink:title=" ">
<path fill="none" stroke="#63b8ff" d="M180.12,-56.44C180.12,-49.1 180.12,-40.32 180.12,-32.46"/>
<polygon fill="#63b8ff" stroke="#63b8ff" points="183.63,-32.73 180.13,-22.73 176.63,-32.73 183.63,-32.73"/>
</a>
</g>
</g>
<!-- Node5 -->
<g id="Node000005" class="node">
<title>Node5</title>
<g id="a_Node000005"><a xlink:title=" ">
<polygon fill="#e0e0e0" stroke="#999999" points="283,-20.75 227.25,-20.75 227.25,0 283,0 283,-20.75"/>
<text text-anchor="middle" x="255.12" y="-7.25" font-family="Helvetica,sans-Serif" font-size="10.00">sstream</text>
</a>
</g>
</g>
<!-- Node1&#45;&gt;Node5 -->
<g id="edge4_Node000001_Node000005" class="edge">
<title>Node1&#45;&gt;Node5</title>
<g id="a_edge4_Node000001_Node000005"><a xlink:title=" ">
<path fill="none" stroke="#63b8ff" d="M199.83,-56.44C210.44,-47.8 223.52,-37.13 234.29,-28.35"/>
<polygon fill="#63b8ff" stroke="#63b8ff" points="236.34,-31.2 241.88,-22.17 231.91,-25.78 236.34,-31.2"/>
</a>
</g>
</g>
<!-- Node6 -->
<g id="Node000006" class="node">
<title>Node6</title>
<g id="a_Node000006"><a xlink:title=" ">
<polygon fill="#e0e0e0" stroke="#999999" points="345,-20.75 301.25,-20.75 301.25,0 345,0 345,-20.75"/>
<text text-anchor="middle" x="323.12" y="-7.25" font-family="Helvetica,sans-Serif" font-size="10.00">string</text>
</a>
</g>
</g>
<!-- Node1&#45;&gt;Node6 -->
<g id="edge5_Node000001_Node000006" class="edge">
<title>Node1&#45;&gt;Node6</title>
<g id="a_edge5_Node000001_Node000006"><a xlink:title=" ">
<path fill="none" stroke="#63b8ff" d="M218.07,-56.28C240.62,-46.64 268.92,-34.54 290.47,-25.33"/>
<polygon fill="#63b8ff" stroke="#63b8ff" points="291.84,-28.55 299.66,-21.4 289.09,-22.12 291.84,-28.55"/>
</a>
</g>
</g>
</g>
</svg>
