<?xml version="1.0" encoding="UTF-8" standalone="no"?>
<!DOCTYPE svg PUBLIC "-//W3C//DTD SVG 1.1//EN"
 "http://www.w3.org/Graphics/SVG/1.1/DTD/svg11.dtd">
<!-- Generated by graphviz version 12.2.1 (0)
 -->
<!-- Title: Graphical Class Hierarchy Pages: 1 -->
<svg width="403pt" height="80pt"
 viewBox="0.00 0.00 403.25 80.12" xmlns="http://www.w3.org/2000/svg" xmlns:xlink="http://www.w3.org/1999/xlink">
<g id="graph0" class="graph" transform="scale(1 1) rotate(0) translate(4 76.12)">
<title>Graphical Class Hierarchy</title>
<!-- Node0 -->
<g id="Node000000" class="node">
<title>Node0</title>
<g id="a_Node000000"><a xlink:title=" ">
<polygon fill="#e0e0e0" stroke="#999999" points="108.25,-55.5 0,-55.5 0,-22 108.25,-22 108.25,-55.5"/>
<text text-anchor="start" x="8" y="-42" font-family="Helvetica,sans-Serif" font-size="10.00">std::enable_shared</text>
<text text-anchor="middle" x="54.12" y="-29.25" font-family="Helvetica,sans-Serif" font-size="10.00">_from_this</text>
</a>
</g>
</g>
<!-- Node1 -->
<g id="Node000001" class="node">
<title>Node1</title>
<g id="a_Node000001"><a xlink:href="classnixoncpp_1_1logging_1_1ILogger.html" target="_top" xlink:title=" ">
<polygon fill="white" stroke="#666666" points="251.75,-55.5 144.25,-55.5 144.25,-22 251.75,-22 251.75,-55.5"/>
<text text-anchor="start" x="152.25" y="-42" font-family="Helvetica,sans-Serif" font-size="10.00">nixoncpp::logging::</text>
<text text-anchor="middle" x="198" y="-29.25" font-family="Helvetica,sans-Serif" font-size="10.00">ILogger</text>
</a>
</g>
</g>
<!-- Node0&#45;&gt;Node1 -->
<g id="edge15_Node000000_Node000001" class="edge">
<title>Node0&#45;&gt;Node1</title>
<g id="a_edge15_Node000000_Node000001"><a xlink:title=" ">
<path fill="none" stroke="#63b8ff" d="M119.7,-38.75C127.81,-38.75 136.04,-38.75 143.94,-38.75"/>
<polygon fill="#63b8ff" stroke="#63b8ff" points="119.87,-35.25 109.87,-38.75 119.87,-42.25 119.87,-35.25"/>
</a>
</g>
</g>
<!-- Node2 -->
<g id="Node000002" class="node">
<title>Node2</title>
<g id="a_Node000002"><a xlink:href="classConsoleLogger.html" target="_top" xlink:title=" ">
<polygon fill="white" stroke="#666666" points="385.5,-72.12 297.5,-72.12 297.5,-51.38 385.5,-51.38 385.5,-72.12"/>
<text text-anchor="middle" x="341.5" y="-58.62" font-family="Helvetica,sans-Serif" font-size="10.00">ConsoleLogger</text>
</a>
</g>
</g>
<!-- Node1&#45;&gt;Node2 -->
<g id="edge16_Node000001_Node000002" class="edge">
<title>Node1&#45;&gt;Node2</title>
<g id="a_edge16_Node000001_Node000002"><a xlink:title=" ">
<path fill="none" stroke="#63b8ff" d="M263.43,-49.22C274.89,-51.09 286.57,-52.98 297.26,-54.72"/>
<polygon fill="#63b8ff" stroke="#63b8ff" points="264.02,-45.77 253.59,-47.62 262.89,-52.68 264.02,-45.77"/>
</a>
</g>
</g>
<!-- Node3 -->
<g id="Node000003" class="node">
<title>Node3</title>
<g id="a_Node000003"><a xlink:href="classnixoncpp_1_1logging_1_1NullLogger.html" target="_top" xlink:title=" ">
<polygon fill="white" stroke="#666666" points="395.25,-33.5 287.75,-33.5 287.75,0 395.25,0 395.25,-33.5"/>
<text text-anchor="start" x="295.75" y="-20" font-family="Helvetica,sans-Serif" font-size="10.00">nixoncpp::logging::</text>
<text text-anchor="middle" x="341.5" y="-7.25" font-family="Helvetica,sans-Serif" font-size="10.00">NullLogger</text>
</a>
</g>
</g>
<!-- Node1&#45;&gt;Node3 -->
<g id="edge17_Node000001_Node000003" class="edge">
<title>Node1&#45;&gt;Node3</title>
<g id="a_edge17_Node000001_Node000003"><a xlink:title=" ">
<path fill="none" stroke="#63b8ff" d="M263.41,-28.74C271.5,-27.48 279.7,-26.2 287.58,-24.98"/>
<polygon fill="#63b8ff" stroke="#63b8ff" points="262.93,-25.27 253.59,-30.26 264.01,-32.18 262.93,-25.27"/>
</a>
</g>
</g>
</g>
</svg>
