<?xml version="1.0" encoding="UTF-8" standalone="no"?>
<!DOCTYPE svg PUBLIC "-//W3C//DTD SVG 1.1//EN"
 "http://www.w3.org/Graphics/SVG/1.1/DTD/svg11.dtd">
<!-- Generated by graphviz version 12.2.1 (0)
 -->
<!-- Title: Graphical Class Hierarchy Pages: 1 -->
<svg width="227pt" height="107pt"
 viewBox="0.00 0.00 226.75 106.75" xmlns="http://www.w3.org/2000/svg" xmlns:xlink="http://www.w3.org/1999/xlink">
<g id="graph0" class="graph" transform="scale(1 1) rotate(0) translate(4 102.75)">
<title>Graphical Class Hierarchy</title>
<!-- Node0 -->
<g id="Node000000" class="node">
<title>Node0</title>
<g id="a_Node000000"><a xlink:title=" ">
<polygon fill="#e0e0e0" stroke="#999999" points="75.25,-59.75 0,-59.75 0,-39 75.25,-39 75.25,-59.75"/>
<text text-anchor="middle" x="37.62" y="-46.25" font-family="Helvetica,sans-Serif" font-size="10.00">testing::Test</text>
</a>
</g>
</g>
<!-- Node1 -->
<g id="Node000001" class="node">
<title>Node1</title>
<g id="a_Node000001"><a xlink:href="classAssetManagerTest.html" target="_top" xlink:title=" ">
<polygon fill="white" stroke="#666666" points="217.62,-98.75 112.38,-98.75 112.38,-78 217.62,-78 217.62,-98.75"/>
<text text-anchor="middle" x="165" y="-85.25" font-family="Helvetica,sans-Serif" font-size="10.00">AssetManagerTest</text>
</a>
</g>
</g>
<!-- Node0&#45;&gt;Node1 -->
<g id="edge18_Node000000_Node000001" class="edge">
<title>Node0&#45;&gt;Node1</title>
<g id="a_edge18_Node000000_Node000001"><a xlink:title=" ">
<path fill="none" stroke="#63b8ff" d="M84.53,-63.65C99.31,-68.25 115.43,-73.27 129.26,-77.57"/>
<polygon fill="#63b8ff" stroke="#63b8ff" points="85.58,-60.32 74.99,-60.69 83.5,-67 85.58,-60.32"/>
</a>
</g>
</g>
<!-- Node2 -->
<g id="Node000002" class="node">
<title>Node2</title>
<g id="a_Node000002"><a xlink:href="classConsoleLoggerTest.html" target="_top" xlink:title=" ">
<polygon fill="white" stroke="#666666" points="218.75,-59.75 111.25,-59.75 111.25,-39 218.75,-39 218.75,-59.75"/>
<text text-anchor="middle" x="165" y="-46.25" font-family="Helvetica,sans-Serif" font-size="10.00">ConsoleLoggerTest</text>
</a>
</g>
</g>
<!-- Node0&#45;&gt;Node2 -->
<g id="edge19_Node000000_Node000002" class="edge">
<title>Node0&#45;&gt;Node2</title>
<g id="a_edge19_Node000000_Node000002"><a xlink:title=" ">
<path fill="none" stroke="#63b8ff" d="M86.87,-49.38C94.79,-49.38 103.04,-49.38 111.07,-49.38"/>
<polygon fill="#63b8ff" stroke="#63b8ff" points="87.08,-45.88 77.08,-49.38 87.08,-52.88 87.08,-45.88"/>
</a>
</g>
</g>
<!-- Node3 -->
<g id="Node000003" class="node">
<title>Node3</title>
<g id="a_Node000003"><a xlink:href="classFileReaderTest.html" target="_top" xlink:title=" ">
<polygon fill="white" stroke="#666666" points="208.62,-20.75 121.38,-20.75 121.38,0 208.62,0 208.62,-20.75"/>
<text text-anchor="middle" x="165" y="-7.25" font-family="Helvetica,sans-Serif" font-size="10.00">FileReaderTest</text>
</a>
</g>
</g>
<!-- Node0&#45;&gt;Node3 -->
<g id="edge20_Node000000_Node000003" class="edge">
<title>Node0&#45;&gt;Node3</title>
<g id="a_edge20_Node000000_Node000003"><a xlink:title=" ">
<path fill="none" stroke="#63b8ff" d="M84.53,-35.1C99.31,-30.5 115.43,-25.48 129.26,-21.18"/>
<polygon fill="#63b8ff" stroke="#63b8ff" points="83.5,-31.75 74.99,-38.06 85.58,-38.43 83.5,-31.75"/>
</a>
</g>
</g>
</g>
</svg>
