<?xml version="1.0" encoding="UTF-8" standalone="no"?>
<!DOCTYPE svg PUBLIC "-//W3C//DTD SVG 1.1//EN"
 "http://www.w3.org/Graphics/SVG/1.1/DTD/svg11.dtd">
<!-- Generated by graphviz version 12.2.1 (0)
 -->
<!-- Title: Graphical Class Hierarchy Pages: 1 -->
<svg width="376pt" height="132pt"
 viewBox="0.00 0.00 376.00 131.50" xmlns="http://www.w3.org/2000/svg" xmlns:xlink="http://www.w3.org/1999/xlink">
<g id="graph0" class="graph" transform="scale(1 1) rotate(0) translate(4 127.5)">
<title>Graphical Class Hierarchy</title>
<!-- Node0 -->
<g id="Node000000" class="node">
<title>Node0</title>
<g id="a_Node000000"><a xlink:href="classnixoncpp_1_1utils_1_1IPlatformInfo.html" target="_top" xlink:title=" ">
<polygon fill="white" stroke="#666666" points="156.25,-72.12 0,-72.12 0,-51.38 156.25,-51.38 156.25,-72.12"/>
<text text-anchor="middle" x="78.12" y="-58.62" font-family="Helvetica,sans-Serif" font-size="10.00">nixoncpp::utils::IPlatformInfo</text>
</a>
</g>
</g>
<!-- Node1 -->
<g id="Node000001" class="node">
<title>Node1</title>
<g id="a_Node000001"><a xlink:href="classnixoncpp_1_1utils_1_1EmscriptenPlatformInfo.html" target="_top" xlink:title="Emscripten&#45;specific platform information implementation.">
<polygon fill="white" stroke="#666666" points="353.75,-123.5 206.5,-123.5 206.5,-90 353.75,-90 353.75,-123.5"/>
<text text-anchor="start" x="214.5" y="-110" font-family="Helvetica,sans-Serif" font-size="10.00">nixoncpp::utils::Emscripten</text>
<text text-anchor="middle" x="280.12" y="-97.25" font-family="Helvetica,sans-Serif" font-size="10.00">PlatformInfo</text>
</a>
</g>
</g>
<!-- Node0&#45;&gt;Node1 -->
<g id="edge11_Node000000_Node000001" class="edge">
<title>Node0&#45;&gt;Node1</title>
<g id="a_edge11_Node000000_Node000001"><a xlink:title=" ">
<path fill="none" stroke="#63b8ff" d="M138.46,-75.1C159.77,-79.9 184.05,-85.36 206.38,-90.38"/>
<polygon fill="#63b8ff" stroke="#63b8ff" points="139.29,-71.7 128.76,-72.92 137.75,-78.53 139.29,-71.7"/>
</a>
</g>
</g>
<!-- Node2 -->
<g id="Node000002" class="node">
<title>Node2</title>
<g id="a_Node000002"><a xlink:href="classnixoncpp_1_1utils_1_1UnixPlatformInfo.html" target="_top" xlink:title="Unix&#45;like platform information implementation (Linux/macOS).">
<polygon fill="white" stroke="#666666" points="368,-72.12 192.25,-72.12 192.25,-51.38 368,-51.38 368,-72.12"/>
<text text-anchor="middle" x="280.12" y="-58.62" font-family="Helvetica,sans-Serif" font-size="10.00">nixoncpp::utils::UnixPlatformInfo</text>
</a>
</g>
</g>
<!-- Node0&#45;&gt;Node2 -->
<g id="edge12_Node000000_Node000002" class="edge">
<title>Node0&#45;&gt;Node2</title>
<g id="a_edge12_Node000000_Node000002"><a xlink:title=" ">
<path fill="none" stroke="#63b8ff" d="M168.2,-61.75C176.08,-61.75 184.06,-61.75 191.92,-61.75"/>
<polygon fill="#63b8ff" stroke="#63b8ff" points="168.25,-58.25 158.25,-61.75 168.25,-65.25 168.25,-58.25"/>
</a>
</g>
</g>
<!-- Node3 -->
<g id="Node000003" class="node">
<title>Node3</title>
<g id="a_Node000003"><a xlink:href="classnixoncpp_1_1utils_1_1WindowsPlatformInfo.html" target="_top" xlink:title="Windows&#45;specific platform information implementation.">
<polygon fill="white" stroke="#666666" points="348.5,-33.5 211.75,-33.5 211.75,0 348.5,0 348.5,-33.5"/>
<text text-anchor="start" x="219.75" y="-20" font-family="Helvetica,sans-Serif" font-size="10.00">nixoncpp::utils::Windows</text>
<text text-anchor="middle" x="280.12" y="-7.25" font-family="Helvetica,sans-Serif" font-size="10.00">PlatformInfo</text>
</a>
</g>
</g>
<!-- Node0&#45;&gt;Node3 -->
<g id="edge13_Node000000_Node000003" class="edge">
<title>Node0&#45;&gt;Node3</title>
<g id="a_edge13_Node000000_Node000003"><a xlink:title=" ">
<path fill="none" stroke="#63b8ff" d="M138.25,-48.45C161.2,-43.28 187.63,-37.34 211.35,-32"/>
<polygon fill="#63b8ff" stroke="#63b8ff" points="137.75,-44.97 128.76,-50.58 139.29,-51.8 137.75,-44.97"/>
</a>
</g>
</g>
</g>
</svg>
