<?xml version="1.0" encoding="UTF-8" standalone="no"?>
<!DOCTYPE svg PUBLIC "-//W3C//DTD SVG 1.1//EN"
 "http://www.w3.org/Graphics/SVG/1.1/DTD/svg11.dtd">
<!-- Generated by graphviz version 12.2.1 (0)
 -->
<!-- Title: Graphical Class Hierarchy Pages: 1 -->
<svg width="382pt" height="80pt"
 viewBox="0.00 0.00 382.00 80.12" xmlns="http://www.w3.org/2000/svg" xmlns:xlink="http://www.w3.org/1999/xlink">
<g id="graph0" class="graph" transform="scale(1 1) rotate(0) translate(4 76.12)">
<title>Graphical Class Hierarchy</title>
<!-- Node0 -->
<g id="Node000000" class="node">
<title>Node0</title>
<g id="a_Node000000"><a xlink:href="classnixoncpp_1_1assets_1_1IAssetManager.html" target="_top" xlink:title=" ">
<polygon fill="white" stroke="#666666" points="149.12,-72.12 16.12,-72.12 16.12,-38.62 149.12,-38.62 149.12,-72.12"/>
<text text-anchor="start" x="24.12" y="-58.62" font-family="Helvetica,sans-Serif" font-size="10.00">nixoncpp::assets::IAsset</text>
<text text-anchor="middle" x="82.62" y="-45.88" font-family="Helvetica,sans-Serif" font-size="10.00">Manager</text>
</a>
</g>
</g>
<!-- Node1 -->
<g id="Node000001" class="node">
<title>Node1</title>
<g id="a_Node000001"><a xlink:href="classMockAssetManager.html" target="_top" xlink:title="Mock implementation of IAssetManager for testing.">
<polygon fill="white" stroke="#666666" points="343.62,-63.75 231.62,-63.75 231.62,-43 343.62,-43 343.62,-63.75"/>
<text text-anchor="middle" x="287.62" y="-50.25" font-family="Helvetica,sans-Serif" font-size="10.00">MockAssetManager</text>
</a>
</g>
</g>
<!-- Node0&#45;&gt;Node1 -->
<g id="edge1_Node000000_Node000001" class="edge">
<title>Node0&#45;&gt;Node1</title>
<g id="a_edge1_Node000000_Node000001"><a xlink:title=" ">
<path fill="none" stroke="#63b8ff" d="M160.86,-54.61C184.29,-54.38 209.55,-54.13 231.24,-53.92"/>
<polygon fill="#63b8ff" stroke="#63b8ff" points="161.01,-51.11 151.05,-54.71 161.08,-58.11 161.01,-51.11"/>
</a>
</g>
</g>
<!-- Node3 -->
<g id="Node000003" class="node">
<title>Node3</title>
<g id="a_Node000003"><a xlink:href="classnixoncpp_1_1assets_1_1AssetManager.html" target="_top" xlink:title=" ">
<polygon fill="white" stroke="#666666" points="374,-23.75 201.25,-23.75 201.25,-3 374,-3 374,-23.75"/>
<text text-anchor="middle" x="287.62" y="-10.25" font-family="Helvetica,sans-Serif" font-size="10.00">nixoncpp::assets::AssetManager</text>
</a>
</g>
</g>
<!-- Node0&#45;&gt;Node3 -->
<g id="edge2_Node000000_Node000003" class="edge">
<title>Node0&#45;&gt;Node3</title>
<g id="a_edge2_Node000000_Node000003"><a xlink:title=" ">
<path fill="none" stroke="#63b8ff" d="M160.65,-39.44C185.22,-34.36 211.81,-28.85 234.21,-24.22"/>
<polygon fill="#63b8ff" stroke="#63b8ff" points="160.1,-35.98 151.02,-41.43 161.52,-42.83 160.1,-35.98"/>
</a>
</g>
</g>
<!-- Node2 -->
<g id="Node000002" class="node">
<title>Node2</title>
<g id="a_Node000002"><a xlink:href="classnixoncpp_1_1utils_1_1IAssetManager.html" target="_top" xlink:title=" ">
<polygon fill="white" stroke="#666666" points="165.25,-20.75 0,-20.75 0,0 165.25,0 165.25,-20.75"/>
<text text-anchor="middle" x="82.62" y="-7.25" font-family="Helvetica,sans-Serif" font-size="10.00">nixoncpp::utils::IAssetManager</text>
</a>
</g>
</g>
<!-- Node2&#45;&gt;Node1 -->
<g id="edge3_Node000002_Node000001" class="edge">
<title>Node2&#45;&gt;Node1</title>
<g id="a_edge3_Node000002_Node000001"><a xlink:title=" ">
<path fill="none" stroke="#63b8ff" d="M145.98,-23.58C174.66,-29.66 208.25,-36.77 235.42,-42.53"/>
<polygon fill="#63b8ff" stroke="#63b8ff" points="146.84,-20.19 136.33,-21.54 145.39,-27.04 146.84,-20.19"/>
</a>
</g>
</g>
<!-- Node2&#45;&gt;Node3 -->
<g id="edge4_Node000002_Node000003" class="edge">
<title>Node2&#45;&gt;Node3</title>
<g id="a_edge4_Node000002_Node000003"><a xlink:title=" ">
<path fill="none" stroke="#63b8ff" d="M176.9,-11.75C184.94,-11.87 193.05,-11.99 201.02,-12.11"/>
<polygon fill="#63b8ff" stroke="#63b8ff" points="177.17,-8.26 167.12,-11.61 177.07,-15.26 177.17,-8.26"/>
</a>
</g>
</g>
</g>
</svg>
