<?xml version="1.0" encoding="UTF-8" standalone="no"?>
<!DOCTYPE svg PUBLIC "-//W3C//DTD SVG 1.1//EN"
 "http://www.w3.org/Graphics/SVG/1.1/DTD/svg11.dtd">
<!-- Generated by graphviz version 12.2.1 (0)
 -->
<!-- Title: src/lib/Utils/Filesystem/IPathResolver.hpp Pages: 1 -->
<svg width="466pt" height="155pt"
 viewBox="0.00 0.00 465.88 155.00" xmlns="http://www.w3.org/2000/svg" xmlns:xlink="http://www.w3.org/1999/xlink">
<g id="graph0" class="graph" transform="scale(1 1) rotate(0) translate(4 151)">
<title>src/lib/Utils/Filesystem/IPathResolver.hpp</title>
<!-- Node1 -->
<g id="Node000001" class="node">
<title>Node1</title>
<g id="a_Node000001"><a xlink:title=" ">
<polygon fill="#999999" stroke="#666666" points="392,-147 265,-147 265,-113.5 392,-113.5 392,-147"/>
<text text-anchor="start" x="273" y="-133.5" font-family="Helvetica,sans-Serif" font-size="10.00">src/lib/Utils/Filesystem</text>
<text text-anchor="middle" x="328.5" y="-120.75" font-family="Helvetica,sans-Serif" font-size="10.00">/IPathResolver.hpp</text>
</a>
</g>
</g>
<!-- Node2 -->
<g id="Node000002" class="node">
<title>Node2</title>
<g id="a_Node000002"><a xlink:href="UtilsError_8hpp.html" target="_top" xlink:title=" ">
<polygon fill="white" stroke="#666666" points="255.25,-77.5 147.75,-77.5 147.75,-56.75 255.25,-56.75 255.25,-77.5"/>
<text text-anchor="middle" x="201.5" y="-64" font-family="Helvetica,sans-Serif" font-size="10.00">Utils/UtilsError.hpp</text>
</a>
</g>
</g>
<!-- Node1&#45;&gt;Node2 -->
<g id="edge1_Node000001_Node000002" class="edge">
<title>Node1&#45;&gt;Node2</title>
<g id="a_edge1_Node000001_Node000002"><a xlink:title=" ">
<path fill="none" stroke="#63b8ff" d="M294.8,-113.03C275.3,-103.64 250.95,-91.92 232.01,-82.81"/>
<polygon fill="#63b8ff" stroke="#63b8ff" points="233.73,-79.75 223.2,-78.57 230.7,-86.06 233.73,-79.75"/>
</a>
</g>
</g>
<!-- Node6 -->
<g id="Node000006" class="node">
<title>Node6</title>
<g id="a_Node000006"><a xlink:title=" ">
<polygon fill="#e0e0e0" stroke="#999999" points="334.38,-20.75 290.62,-20.75 290.62,0 334.38,0 334.38,-20.75"/>
<text text-anchor="middle" x="312.5" y="-7.25" font-family="Helvetica,sans-Serif" font-size="10.00">string</text>
</a>
</g>
</g>
<!-- Node1&#45;&gt;Node6 -->
<g id="edge8_Node000001_Node000006" class="edge">
<title>Node1&#45;&gt;Node6</title>
<g id="a_edge8_Node000001_Node000006"><a xlink:title=" ">
<path fill="none" stroke="#63b8ff" d="M324.47,-113.03C322.09,-102.89 319.22,-89.5 317.5,-77.5 315.34,-62.46 314.08,-45.35 313.36,-32.3"/>
<polygon fill="#63b8ff" stroke="#63b8ff" points="316.86,-32.17 312.89,-22.35 309.87,-32.5 316.86,-32.17"/>
</a>
</g>
</g>
<!-- Node8 -->
<g id="Node000008" class="node">
<title>Node8</title>
<g id="a_Node000008"><a xlink:title=" ">
<polygon fill="#e0e0e0" stroke="#999999" points="393,-77.5 326,-77.5 326,-56.75 393,-56.75 393,-77.5"/>
<text text-anchor="middle" x="359.5" y="-64" font-family="Helvetica,sans-Serif" font-size="10.00">filesystem</text>
</a>
</g>
</g>
<!-- Node1&#45;&gt;Node8 -->
<g id="edge7_Node000001_Node000008" class="edge">
<title>Node1&#45;&gt;Node8</title>
<g id="a_edge7_Node000001_Node000008"><a xlink:title=" ">
<path fill="none" stroke="#63b8ff" d="M336.64,-113.19C340.54,-105.51 345.25,-96.23 349.37,-88.09"/>
<polygon fill="#63b8ff" stroke="#63b8ff" points="352.42,-89.82 353.82,-79.32 346.18,-86.65 352.42,-89.82"/>
</a>
</g>
</g>
<!-- Node9 -->
<g id="Node000009" class="node">
<title>Node9</title>
<g id="a_Node000009"><a xlink:title=" ">
<polygon fill="#e0e0e0" stroke="#999999" points="457.88,-77.5 411.12,-77.5 411.12,-56.75 457.88,-56.75 457.88,-77.5"/>
<text text-anchor="middle" x="434.5" y="-64" font-family="Helvetica,sans-Serif" font-size="10.00">vector</text>
</a>
</g>
</g>
<!-- Node1&#45;&gt;Node9 -->
<g id="edge9_Node000001_Node000009" class="edge">
<title>Node1&#45;&gt;Node9</title>
<g id="a_edge9_Node000001_Node000009"><a xlink:title=" ">
<path fill="none" stroke="#63b8ff" d="M356.63,-113.03C372.53,-103.86 392.29,-92.47 407.92,-83.45"/>
<polygon fill="#63b8ff" stroke="#63b8ff" points="409.3,-86.7 416.21,-78.67 405.8,-80.63 409.3,-86.7"/>
</a>
</g>
</g>
<!-- Node3 -->
<g id="Node000003" class="node">
<title>Node3</title>
<g id="a_Node000003"><a xlink:title=" ">
<polygon fill="#e0e0e0" stroke="#999999" points="49,-20.75 0,-20.75 0,0 49,0 49,-20.75"/>
<text text-anchor="middle" x="24.5" y="-7.25" font-family="Helvetica,sans-Serif" font-size="10.00">cstdint</text>
</a>
</g>
</g>
<!-- Node2&#45;&gt;Node3 -->
<g id="edge2_Node000002_Node000003" class="edge">
<title>Node2&#45;&gt;Node3</title>
<g id="a_edge2_Node000002_Node000003"><a xlink:title=" ">
<path fill="none" stroke="#63b8ff" d="M169.86,-56.34C138.99,-46.79 92.12,-32.29 60,-22.36"/>
<polygon fill="#63b8ff" stroke="#63b8ff" points="61.34,-19.11 50.75,-19.5 59.27,-25.79 61.34,-19.11"/>
</a>
</g>
</g>
<!-- Node4 -->
<g id="Node000004" class="node">
<title>Node4</title>
<g id="a_Node000004"><a xlink:title=" ">
<polygon fill="#e0e0e0" stroke="#999999" points="122.38,-20.75 66.62,-20.75 66.62,0 122.38,0 122.38,-20.75"/>
<text text-anchor="middle" x="94.5" y="-7.25" font-family="Helvetica,sans-Serif" font-size="10.00">optional</text>
</a>
</g>
</g>
<!-- Node2&#45;&gt;Node4 -->
<g id="edge3_Node000002_Node000004" class="edge">
<title>Node2&#45;&gt;Node4</title>
<g id="a_edge3_Node000002_Node000004"><a xlink:title=" ">
<path fill="none" stroke="#63b8ff" d="M182.37,-56.34C166.01,-47.97 142.22,-35.79 123.52,-26.22"/>
<polygon fill="#63b8ff" stroke="#63b8ff" points="125.31,-23.21 114.81,-21.77 122.12,-29.44 125.31,-23.21"/>
</a>
</g>
</g>
<!-- Node5 -->
<g id="Node000005" class="node">
<title>Node5</title>
<g id="a_Node000005"><a xlink:title=" ">
<polygon fill="#e0e0e0" stroke="#999999" points="204.5,-20.75 140.5,-20.75 140.5,0 204.5,0 204.5,-20.75"/>
<text text-anchor="middle" x="172.5" y="-7.25" font-family="Helvetica,sans-Serif" font-size="10.00">stdexcept</text>
</a>
</g>
</g>
<!-- Node2&#45;&gt;Node5 -->
<g id="edge4_Node000002_Node000005" class="edge">
<title>Node2&#45;&gt;Node5</title>
<g id="a_edge4_Node000002_Node000005"><a xlink:title=" ">
<path fill="none" stroke="#63b8ff" d="M196.32,-56.34C192.6,-49.33 187.48,-39.66 182.94,-31.08"/>
<polygon fill="#63b8ff" stroke="#63b8ff" points="186.12,-29.61 178.35,-22.42 179.94,-32.89 186.12,-29.61"/>
</a>
</g>
</g>
<!-- Node2&#45;&gt;Node6 -->
<g id="edge5_Node000002_Node000006" class="edge">
<title>Node2&#45;&gt;Node6</title>
<g id="a_edge5_Node000002_Node000006"><a xlink:title=" ">
<path fill="none" stroke="#63b8ff" d="M221.34,-56.34C238.39,-47.93 263.22,-35.68 282.66,-26.09"/>
<polygon fill="#63b8ff" stroke="#63b8ff" points="284.05,-29.31 291.47,-21.75 280.95,-23.03 284.05,-29.31"/>
</a>
</g>
</g>
<!-- Node7 -->
<g id="Node000007" class="node">
<title>Node7</title>
<g id="a_Node000007"><a xlink:title=" ">
<polygon fill="#e0e0e0" stroke="#999999" points="272.75,-20.75 222.25,-20.75 222.25,0 272.75,0 272.75,-20.75"/>
<text text-anchor="middle" x="247.5" y="-7.25" font-family="Helvetica,sans-Serif" font-size="10.00">variant</text>
</a>
</g>
</g>
<!-- Node2&#45;&gt;Node7 -->
<g id="edge6_Node000002_Node000007" class="edge">
<title>Node2&#45;&gt;Node7</title>
<g id="a_edge6_Node000002_Node000007"><a xlink:title=" ">
<path fill="none" stroke="#63b8ff" d="M209.72,-56.34C215.94,-48.94 224.65,-38.57 232.14,-29.66"/>
<polygon fill="#63b8ff" stroke="#63b8ff" points="234.62,-32.15 238.37,-22.24 229.26,-27.64 234.62,-32.15"/>
</a>
</g>
</g>
</g>
</svg>
