<?xml version="1.0" encoding="UTF-8" standalone="no"?>
<!DOCTYPE svg PUBLIC "-//W3C//DTD SVG 1.1//EN"
 "http://www.w3.org/Graphics/SVG/1.1/DTD/svg11.dtd">
<!-- Generated by graphviz version 12.2.1 (0)
 -->
<!-- Title: src/lib/Utils/Platform/IPlatformInfo.hpp Pages: 1 -->
<!--zoomable 237 -->

<svg id="main" version="1.1" xmlns="http://www.w3.org/2000/svg" xmlns:xlink="http://www.w3.org/1999/xlink" xml:space="preserve" onload="init(evt)">

<style type="text/css"><![CDATA[
.node, .edge {opacity: 0.7;}
.node.selected, .edge.selected {opacity: 1;}
.edge:hover path { stroke: red; }
.edge:hover polygon { stroke: red; fill: red; }
]]></style>

<defs>
  <circle id="rim" cx="0" cy="0" r="7"/>
  <circle id="rim2" cx="0" cy="0" r="3.5"/>
  <g id="zoomPlus">
    <use xlink:href="#rim" fill="#404040"><set attributeName="fill" to="#808080" begin="zoomplus.mouseover" end="zoomplus.mouseout"/></use>
    <path d="M-4,0h8M0,-4v8" fill="none" stroke="white" stroke-width="1.5" pointer-events="none"/>
  </g>
  <g id="zoomMin">
    <use xlink:href="#rim" fill="#404040"><set attributeName="fill" to="#808080" begin="zoomminus.mouseover" end="zoomminus.mouseout"/></use>
    <path d="M-4,0h8" fill="none" stroke="white" stroke-width="1.5" pointer-events="none"/>
  </g>
  <g id="arrowUp" transform="translate(30 24)">
    <use xlink:href="#rim"/>
    <path pointer-events="none" fill="none" stroke="white" stroke-width="1.5" d="M0,-3.0v7 M-2.5,-0.5L0,-3.0L2.5,-0.5"/>
  </g>
  <g id="arrowRight" transform="rotate(90) translate(36 -43)">
    <use xlink:href="#rim"/>
    <path pointer-events="none" fill="none" stroke="white" stroke-width="1.5" d="M0,-3.0v7 M-2.5,-0.5L0,-3.0L2.5,-0.5"/>
  </g>
  <g id="arrowDown" transform="rotate(180) translate(-30 -48)">
    <use xlink:href="#rim"/>
    <path pointer-events="none" fill="none" stroke="white" stroke-width="1.5" d="M0,-3.0v7 M-2.5,-0.5L0,-3.0L2.5,-0.5"/>
  </g>
  <g id="arrowLeft" transform="rotate(270) translate(-36 17)">
    <use xlink:href="#rim"/>
    <path pointer-events="none" fill="none" stroke="white" stroke-width="1.5" d="M0,-3.0v7 M-2.5,-0.5L0,-3.0L2.5,-0.5"/>
  </g>
  <g id="resetDef">
    <use xlink:href="#rim2" fill="#404040"><set attributeName="fill" to="#808080" begin="reset.mouseover" end="reset.mouseout"/></use>
  </g>
</defs>
<script type="application/ecmascript">
var viewWidth = 1012;
var viewHeight = 237;
var sectionId = 'dynsection-1';
</script>
<script type="application/ecmascript" xlink:href="svg.min.js"/>
<svg id="graph" class="graph">
<g id="viewport">
<title>src/lib/Utils/Platform/IPlatformInfo.hpp</title>
<!-- Node1 -->
<g id="Node000001" class="node">
<title>Node1</title>
<g id="a_Node000001"><a xlink:title=" ">
<polygon fill="#999999" stroke="#666666" points="598.25,-229.25 482.5,-229.25 482.5,-195.75 598.25,-195.75 598.25,-229.25"/>
<text text-anchor="start" x="490.5" y="-215.75" font-family="Helvetica,sans-Serif" font-size="10.00">src/lib/Utils/Platform</text>
<text text-anchor="middle" x="540.38" y="-203" font-family="Helvetica,sans-Serif" font-size="10.00">/IPlatformInfo.hpp</text>
</a>
</g>
</g>
<!-- Node2 -->
<g id="Node000002" class="node">
<title>Node2</title>
<g id="a_Node000002"><a xlink:href="EmscriptenPlatformInfo_8hpp.html" target="_top" xlink:title=" ">
<polygon fill="white" stroke="#666666" points="230.12,-159.75 74.62,-159.75 74.62,-126.25 230.12,-126.25 230.12,-159.75"/>
<text text-anchor="start" x="82.62" y="-146.25" font-family="Helvetica,sans-Serif" font-size="10.00">src/lib/Utils/Platform</text>
<text text-anchor="middle" x="152.38" y="-133.5" font-family="Helvetica,sans-Serif" font-size="10.00">/EmscriptenPlatformInfo.hpp</text>
</a>
</g>
</g>
<!-- Node1&#45;&gt;Node2 -->
<g id="edge1_Node000001_Node000002" class="edge">
<title>Node1&#45;&gt;Node2</title>
<g id="a_edge1_Node000001_Node000002"><a xlink:title=" ">
<path fill="none" stroke="#63b8ff" d="M471.09,-199.86C409.86,-189.52 318.13,-173.89 238.38,-159.75 235.68,-159.27 232.95,-158.79 230.18,-158.29"/>
<polygon fill="#63b8ff" stroke="#63b8ff" points="470.23,-203.26 480.67,-201.48 471.39,-196.36 470.23,-203.26"/>
</a>
</g>
</g>
<!-- Node5 -->
<g id="Node000005" class="node">
<title>Node5</title>
<g id="a_Node000005"><a xlink:href="PlatformInfoFactory_8hpp.html" target="_top" xlink:title=" ">
<polygon fill="white" stroke="#666666" points="686.62,-159.75 552.12,-159.75 552.12,-126.25 686.62,-126.25 686.62,-159.75"/>
<text text-anchor="start" x="560.12" y="-146.25" font-family="Helvetica,sans-Serif" font-size="10.00">src/lib/Utils/Platform</text>
<text text-anchor="middle" x="619.38" y="-133.5" font-family="Helvetica,sans-Serif" font-size="10.00">/PlatformInfoFactory.hpp</text>
</a>
</g>
</g>
<!-- Node1&#45;&gt;Node5 -->
<g id="edge4_Node000001_Node000005" class="edge">
<title>Node1&#45;&gt;Node5</title>
<g id="a_edge4_Node000001_Node000005"><a xlink:title=" ">
<path fill="none" stroke="#63b8ff" d="M567.78,-188.09C578.58,-178.85 590.72,-168.48 600.51,-160.12"/>
<polygon fill="#63b8ff" stroke="#63b8ff" points="565.58,-185.36 560.25,-194.52 570.12,-190.69 565.58,-185.36"/>
</a>
</g>
</g>
<!-- Node6 -->
<g id="Node000006" class="node">
<title>Node6</title>
<g id="a_Node000006"><a xlink:href="UtilsFactory_8cpp.html" target="_top" xlink:title=" ">
<polygon fill="white" stroke="#666666" points="777.5,-83.88 627.25,-83.88 627.25,-63.12 777.5,-63.12 777.5,-83.88"/>
<text text-anchor="middle" x="702.38" y="-70.38" font-family="Helvetica,sans-Serif" font-size="10.00">src/lib/Utils/UtilsFactory.cpp</text>
</a>
</g>
</g>
<!-- Node1&#45;&gt;Node6 -->
<g id="edge13_Node000001_Node000006" class="edge">
<title>Node1&#45;&gt;Node6</title>
<g id="a_edge13_Node000001_Node000006"><a xlink:title=" ">
<path fill="none" stroke="#63b8ff" d="M609.98,-205.34C640.94,-198.85 674.94,-185.79 695.38,-159.75 712.79,-137.55 708.21,-101.34 704.69,-84.15"/>
<polygon fill="#63b8ff" stroke="#63b8ff" points="609.41,-201.89 600.23,-207.17 610.7,-208.77 609.41,-201.89"/>
</a>
</g>
</g>
<!-- Node7 -->
<g id="Node000007" class="node">
<title>Node7</title>
<g id="a_Node000007"><a xlink:href="UnixPlatformInfo_8hpp.html" target="_top" xlink:title=" ">
<polygon fill="white" stroke="#666666" points="371,-159.75 247.75,-159.75 247.75,-126.25 371,-126.25 371,-159.75"/>
<text text-anchor="start" x="255.75" y="-146.25" font-family="Helvetica,sans-Serif" font-size="10.00">src/lib/Utils/Platform</text>
<text text-anchor="middle" x="309.38" y="-133.5" font-family="Helvetica,sans-Serif" font-size="10.00">/UnixPlatformInfo.hpp</text>
</a>
</g>
</g>
<!-- Node1&#45;&gt;Node7 -->
<g id="edge7_Node000001_Node000007" class="edge">
<title>Node1&#45;&gt;Node7</title>
<g id="a_edge7_Node000001_Node000007"><a xlink:title=" ">
<path fill="none" stroke="#63b8ff" d="M474.07,-192.13C439.43,-182 397.52,-169.76 364.65,-160.15"/>
<polygon fill="#63b8ff" stroke="#63b8ff" points="473.01,-195.46 483.59,-194.91 474.98,-188.74 473.01,-195.46"/>
</a>
</g>
</g>
<!-- Node9 -->
<g id="Node000009" class="node">
<title>Node9</title>
<g id="a_Node000009"><a xlink:href="WindowsPlatformInfo_8hpp.html" target="_top" xlink:title=" ">
<polygon fill="white" stroke="#666666" points="533.88,-159.75 388.88,-159.75 388.88,-126.25 533.88,-126.25 533.88,-159.75"/>
<text text-anchor="start" x="396.88" y="-146.25" font-family="Helvetica,sans-Serif" font-size="10.00">src/lib/Utils/Platform</text>
<text text-anchor="middle" x="461.38" y="-133.5" font-family="Helvetica,sans-Serif" font-size="10.00">/WindowsPlatformInfo.hpp</text>
</a>
</g>
</g>
<!-- Node1&#45;&gt;Node9 -->
<g id="edge10_Node000001_Node000009" class="edge">
<title>Node1&#45;&gt;Node9</title>
<g id="a_edge10_Node000001_Node000009"><a xlink:title=" ">
<path fill="none" stroke="#63b8ff" d="M512.97,-188.09C502.17,-178.85 490.03,-168.48 480.24,-160.12"/>
<polygon fill="#63b8ff" stroke="#63b8ff" points="510.63,-190.69 520.5,-194.52 515.17,-185.36 510.63,-190.69"/>
</a>
</g>
</g>
<!-- Node11 -->
<g id="Node000011" class="node">
<title>Node11</title>
<g id="a_Node000011"><a xlink:href="UtilsFactory_8hpp.html" target="_top" xlink:title=" ">
<polygon fill="white" stroke="#666666" points="916.88,-153.38 765.88,-153.38 765.88,-132.62 916.88,-132.62 916.88,-153.38"/>
<text text-anchor="middle" x="841.38" y="-139.88" font-family="Helvetica,sans-Serif" font-size="10.00">src/lib/Utils/UtilsFactory.hpp</text>
</a>
</g>
</g>
<!-- Node1&#45;&gt;Node11 -->
<g id="edge14_Node000001_Node000011" class="edge">
<title>Node1&#45;&gt;Node11</title>
<g id="a_edge14_Node000001_Node000011"><a xlink:title=" ">
<path fill="none" stroke="#63b8ff" d="M609.31,-196.04C667.24,-183.05 748.28,-164.88 797.67,-153.8"/>
<polygon fill="#63b8ff" stroke="#63b8ff" points="608.88,-192.55 599.89,-198.15 610.41,-199.38 608.88,-192.55"/>
</a>
</g>
</g>
<!-- Node3 -->
<g id="Node000003" class="node">
<title>Node3</title>
<g id="a_Node000003"><a xlink:href="EmscriptenPlatformInfo_8cpp.html" target="_top" xlink:title=" ">
<polygon fill="white" stroke="#666666" points="154.75,-90.25 0,-90.25 0,-56.75 154.75,-56.75 154.75,-90.25"/>
<text text-anchor="start" x="8" y="-76.75" font-family="Helvetica,sans-Serif" font-size="10.00">src/lib/Utils/Platform</text>
<text text-anchor="middle" x="77.38" y="-64" font-family="Helvetica,sans-Serif" font-size="10.00">/EmscriptenPlatformInfo.cpp</text>
</a>
</g>
</g>
<!-- Node2&#45;&gt;Node3 -->
<g id="edge2_Node000002_Node000003" class="edge">
<title>Node2&#45;&gt;Node3</title>
<g id="a_edge2_Node000002_Node000003"><a xlink:title=" ">
<path fill="none" stroke="#63b8ff" d="M126.05,-118.31C115.87,-109.15 104.48,-98.9 95.28,-90.62"/>
<polygon fill="#63b8ff" stroke="#63b8ff" points="123.7,-120.9 133.48,-124.99 128.38,-115.7 123.7,-120.9"/>
</a>
</g>
</g>
<!-- Node4 -->
<g id="Node000004" class="node">
<title>Node4</title>
<g id="a_Node000004"><a xlink:href="PlatformInfoFactory_8cpp.html" target="_top" xlink:title=" ">
<polygon fill="white" stroke="#666666" points="447.25,-90.25 313.5,-90.25 313.5,-56.75 447.25,-56.75 447.25,-90.25"/>
<text text-anchor="start" x="321.5" y="-76.75" font-family="Helvetica,sans-Serif" font-size="10.00">src/lib/Utils/Platform</text>
<text text-anchor="middle" x="380.38" y="-64" font-family="Helvetica,sans-Serif" font-size="10.00">/PlatformInfoFactory.cpp</text>
</a>
</g>
</g>
<!-- Node2&#45;&gt;Node4 -->
<g id="edge3_Node000002_Node000004" class="edge">
<title>Node2&#45;&gt;Node4</title>
<g id="a_edge3_Node000002_Node000004"><a xlink:title=" ">
<path fill="none" stroke="#63b8ff" d="M217.82,-122.63C252.01,-112.5 293.37,-100.26 325.81,-90.65"/>
<polygon fill="#63b8ff" stroke="#63b8ff" points="217.03,-119.21 208.44,-125.4 219.02,-125.92 217.03,-119.21"/>
</a>
</g>
</g>
<!-- Node5&#45;&gt;Node4 -->
<g id="edge5_Node000005_Node000004" class="edge">
<title>Node5&#45;&gt;Node4</title>
<g id="a_edge5_Node000005_Node000004"><a xlink:title=" ">
<path fill="none" stroke="#63b8ff" d="M551.24,-122.76C515.31,-112.61 471.72,-100.3 437.57,-90.65"/>
<polygon fill="#63b8ff" stroke="#63b8ff" points="550.1,-126.07 560.67,-125.42 552,-119.33 550.1,-126.07"/>
</a>
</g>
</g>
<!-- Node5&#45;&gt;Node6 -->
<g id="edge6_Node000005_Node000006" class="edge">
<title>Node5&#45;&gt;Node6</title>
<g id="a_edge6_Node000005_Node000006"><a xlink:title=" ">
<path fill="none" stroke="#63b8ff" d="M647.71,-118.96C662.24,-107.14 679.17,-93.37 690.3,-84.32"/>
<polygon fill="#63b8ff" stroke="#63b8ff" points="645.77,-116.02 640.22,-125.05 650.19,-121.45 645.77,-116.02"/>
</a>
</g>
</g>
<!-- Node7&#45;&gt;Node4 -->
<g id="edge8_Node000007_Node000004" class="edge">
<title>Node7&#45;&gt;Node4</title>
<g id="a_edge8_Node000007_Node000004"><a xlink:title=" ">
<path fill="none" stroke="#63b8ff" d="M334.36,-118.25C344.07,-109.02 354.94,-98.69 363.67,-90.38"/>
<polygon fill="#63b8ff" stroke="#63b8ff" points="332.13,-115.53 327.3,-124.96 336.96,-120.61 332.13,-115.53"/>
</a>
</g>
</g>
<!-- Node8 -->
<g id="Node000008" class="node">
<title>Node8</title>
<g id="a_Node000008"><a xlink:href="UnixPlatformInfo_8cpp.html" target="_top" xlink:title=" ">
<polygon fill="white" stroke="#666666" points="295.62,-90.25 173.12,-90.25 173.12,-56.75 295.62,-56.75 295.62,-90.25"/>
<text text-anchor="start" x="181.12" y="-76.75" font-family="Helvetica,sans-Serif" font-size="10.00">src/lib/Utils/Platform</text>
<text text-anchor="middle" x="234.38" y="-64" font-family="Helvetica,sans-Serif" font-size="10.00">/UnixPlatformInfo.cpp</text>
</a>
</g>
</g>
<!-- Node7&#45;&gt;Node8 -->
<g id="edge9_Node000007_Node000008" class="edge">
<title>Node7&#45;&gt;Node8</title>
<g id="a_edge9_Node000007_Node000008"><a xlink:title=" ">
<path fill="none" stroke="#63b8ff" d="M283.05,-118.31C272.87,-109.15 261.48,-98.9 252.28,-90.62"/>
<polygon fill="#63b8ff" stroke="#63b8ff" points="280.7,-120.9 290.48,-124.99 285.38,-115.7 280.7,-120.9"/>
</a>
</g>
</g>
<!-- Node9&#45;&gt;Node4 -->
<g id="edge11_Node000009_Node000004" class="edge">
<title>Node9&#45;&gt;Node4</title>
<g id="a_edge11_Node000009_Node000004"><a xlink:title=" ">
<path fill="none" stroke="#63b8ff" d="M433.61,-118.86C422.45,-109.56 409.85,-99.06 399.71,-90.62"/>
<polygon fill="#63b8ff" stroke="#63b8ff" points="431.09,-121.32 441.02,-125.03 435.57,-115.94 431.09,-121.32"/>
</a>
</g>
</g>
<!-- Node10 -->
<g id="Node000010" class="node">
<title>Node10</title>
<g id="a_Node000010"><a xlink:href="WindowsPlatformInfo_8cpp.html" target="_top" xlink:title=" ">
<polygon fill="white" stroke="#666666" points="609.5,-90.25 465.25,-90.25 465.25,-56.75 609.5,-56.75 609.5,-90.25"/>
<text text-anchor="start" x="473.25" y="-76.75" font-family="Helvetica,sans-Serif" font-size="10.00">src/lib/Utils/Platform</text>
<text text-anchor="middle" x="537.38" y="-64" font-family="Helvetica,sans-Serif" font-size="10.00">/WindowsPlatformInfo.cpp</text>
</a>
</g>
</g>
<!-- Node9&#45;&gt;Node10 -->
<g id="edge12_Node000009_Node000010" class="edge">
<title>Node9&#45;&gt;Node10</title>
<g id="a_edge12_Node000009_Node000010"><a xlink:title=" ">
<path fill="none" stroke="#63b8ff" d="M487.74,-118.59C498.13,-109.35 509.81,-98.98 519.23,-90.62"/>
<polygon fill="#63b8ff" stroke="#63b8ff" points="485.67,-115.74 480.52,-125 490.32,-120.97 485.67,-115.74"/>
</a>
</g>
</g>
<!-- Node11&#45;&gt;Node6 -->
<g id="edge19_Node000011_Node000006" class="edge">
<title>Node11&#45;&gt;Node6</title>
<g id="a_edge19_Node000011_Node000006"><a xlink:title=" ">
<path fill="none" stroke="#63b8ff" d="M811.16,-127.33C784.33,-114.3 745.89,-95.63 722.61,-84.33"/>
<polygon fill="#63b8ff" stroke="#63b8ff" points="809.28,-130.3 819.8,-131.52 812.34,-124.01 809.28,-130.3"/>
</a>
</g>
</g>
<!-- Node12 -->
<g id="Node000012" class="node">
<title>Node12</title>
<g id="a_Node000012"><a xlink:href="NixonCppLib_8hpp.html" target="_top" xlink:title=" ">
<polygon fill="white" stroke="#666666" points="910.88,-90.25 795.88,-90.25 795.88,-56.75 910.88,-56.75 910.88,-90.25"/>
<text text-anchor="start" x="803.88" y="-76.75" font-family="Helvetica,sans-Serif" font-size="10.00">include/NixonCppLib</text>
<text text-anchor="middle" x="853.38" y="-64" font-family="Helvetica,sans-Serif" font-size="10.00">/NixonCppLib.hpp</text>
</a>
</g>
</g>
<!-- Node11&#45;&gt;Node12 -->
<g id="edge15_Node000011_Node000012" class="edge">
<title>Node11&#45;&gt;Node12</title>
<g id="a_edge15_Node000011_Node000012"><a xlink:title=" ">
<path fill="none" stroke="#63b8ff" d="M845.09,-121.13C846.83,-111.32 848.88,-99.8 850.5,-90.67"/>
<polygon fill="#63b8ff" stroke="#63b8ff" points="841.66,-120.38 843.36,-130.84 848.56,-121.61 841.66,-120.38"/>
</a>
</g>
</g>
<!-- Node13 -->
<g id="Node000013" class="node">
<title>Node13</title>
<g id="a_Node000013"><a xlink:href="Application_8cpp.html" target="_top" xlink:title=" ">
<polygon fill="white" stroke="#666666" points="1004,-20.75 874.75,-20.75 874.75,0 1004,0 1004,-20.75"/>
<text text-anchor="middle" x="939.38" y="-7.25" font-family="Helvetica,sans-Serif" font-size="10.00">src/app/Application.cpp</text>
</a>
</g>
</g>
<!-- Node11&#45;&gt;Node13 -->
<g id="edge18_Node000011_Node000013" class="edge">
<title>Node11&#45;&gt;Node13</title>
<g id="a_edge18_Node000011_Node000013"><a xlink:title=" ">
<path fill="none" stroke="#63b8ff" d="M875.4,-127.09C891.3,-118.49 909.14,-106.19 920.38,-90.25 935.46,-68.83 938.66,-36.9 939.27,-21.04"/>
<polygon fill="#63b8ff" stroke="#63b8ff" points="874.01,-123.88 866.68,-131.53 877.18,-130.12 874.01,-123.88"/>
</a>
</g>
</g>
<!-- Node12&#45;&gt;Node13 -->
<g id="edge16_Node000012_Node000013" class="edge">
<title>Node12&#45;&gt;Node13</title>
<g id="a_edge16_Node000012_Node000013"><a xlink:title=" ">
<path fill="none" stroke="#63b8ff" d="M885.24,-49.85C899.12,-39.99 914.67,-28.94 925.53,-21.22"/>
<polygon fill="#63b8ff" stroke="#63b8ff" points="883.33,-46.92 877.2,-55.56 887.38,-52.62 883.33,-46.92"/>
</a>
</g>
</g>
<!-- Node14 -->
<g id="Node000014" class="node">
<title>Node14</title>
<g id="a_Node000014"><a xlink:href="NixonCppLib_8cpp.html" target="_top" xlink:title=" ">
<polygon fill="white" stroke="#666666" points="857,-20.75 727.75,-20.75 727.75,0 857,0 857,-20.75"/>
<text text-anchor="middle" x="792.38" y="-7.25" font-family="Helvetica,sans-Serif" font-size="10.00">src/lib/NixonCppLib.cpp</text>
</a>
</g>
</g>
<!-- Node12&#45;&gt;Node14 -->
<g id="edge17_Node000012_Node000014" class="edge">
<title>Node12&#45;&gt;Node14</title>
<g id="a_edge17_Node000012_Node000014"><a xlink:title=" ">
<path fill="none" stroke="#63b8ff" d="M829.35,-48.42C819.87,-38.93 809.53,-28.56 802.2,-21.22"/>
<polygon fill="#63b8ff" stroke="#63b8ff" points="826.74,-50.76 836.28,-55.37 831.69,-45.82 826.74,-50.76"/>
</a>
</g>
</g>
</g>
</svg>

<g id="navigator" transform="translate(0 0)" fill="#404254">
  <rect fill="#f2f5e9" fill-opacity="0.5" stroke="#606060" stroke-width=".5" x="0" y="0" width="60" height="60"/>
  <use id="zoomplus" xlink:href="#zoomPlus" x="17" y="9" onmousedown="handleZoom(evt,'in')"/>
  <use id="zoomminus" xlink:href="#zoomMin" x="42" y="9" onmousedown="handleZoom(evt,'out')"/>
  <use id="reset" xlink:href="#resetDef" x="30" y="36" onmousedown="handleReset()"/>
   <use id="arrowup" xlink:href="#arrowUp" x="0" y="0" onmousedown="handlePan(0,-1)"/>
  <use id="arrowright" xlink:href="#arrowRight" x="0" y="0" onmousedown="handlePan(1,0)"/>
  <use id="arrowdown" xlink:href="#arrowDown" x="0" y="0" onmousedown="handlePan(0,1)"/>
  <use id="arrowleft" xlink:href="#arrowLeft" x="0" y="0" onmousedown="handlePan(-1,0)"/>
</g>
<svg viewBox="0 0 15 15" width="100%" height="30px" preserveAspectRatio="xMaxYMin meet">
 <g id="arrow_out" transform="scale(0.3 0.3)">
  <a xlink:href="IPlatformInfo_8hpp__dep__incl_org.svg" target="_base">
   <rect id="button" ry="5" rx="5" y="6" x="6" height="38" width="38"
        fill="#f2f5e9" fill-opacity="0.5" stroke="#606060" stroke-width="1.0"/>
   <path id="arrow"
     d="M 11.500037,31.436501 C 11.940474,20.09759 22.043105,11.32322 32.158766,21.979434 L 37.068811,17.246167 C 37.068811,17.246167 37.088388,32 37.088388,32 L 22.160133,31.978069 C 22.160133,31.978069 26.997745,27.140456 26.997745,27.140456 C 18.528582,18.264221 13.291696,25.230495 11.500037,31.436501 z"
     style="fill:#404040;"/>
  </a>
 </g>
</svg>

<style type='text/css'>
<![CDATA[
[data-mouse-over-selected='false'] { opacity: 0.7; }
[data-mouse-over-selected='true']  { opacity: 1.0; }
]]>
</style>
<script type="application/ecmascript"><![CDATA[
document.addEventListener('DOMContentLoaded', (event) => {
  highlightEdges();
  highlightAdjacentNodes();
});
]]></script>
</svg>
