<?xml version="1.0" encoding="UTF-8" standalone="no"?>
<!DOCTYPE svg PUBLIC "-//W3C//DTD SVG 1.1//EN"
 "http://www.w3.org/Graphics/SVG/1.1/DTD/svg11.dtd">
<!-- Generated by graphviz version 12.2.1 (0)
 -->
<!-- Title: src/lib/Utils/String/IStringFormatter.hpp Pages: 1 -->
<svg width="531pt" height="237pt"
 viewBox="0.00 0.00 531.12 237.25" xmlns="http://www.w3.org/2000/svg" xmlns:xlink="http://www.w3.org/1999/xlink">
<g id="graph0" class="graph" transform="scale(1 1) rotate(0) translate(4 233.25)">
<title>src/lib/Utils/String/IStringFormatter.hpp</title>
<!-- Node1 -->
<g id="Node000001" class="node">
<title>Node1</title>
<g id="a_Node000001"><a xlink:title=" ">
<polygon fill="#999999" stroke="#666666" points="294.88,-229.25 176.12,-229.25 176.12,-195.75 294.88,-195.75 294.88,-229.25"/>
<text text-anchor="start" x="184.12" y="-215.75" font-family="Helvetica,sans-Serif" font-size="10.00">src/lib/Utils/String</text>
<text text-anchor="middle" x="235.5" y="-203" font-family="Helvetica,sans-Serif" font-size="10.00">/IStringFormatter.hpp</text>
</a>
</g>
</g>
<!-- Node2 -->
<g id="Node000002" class="node">
<title>Node2</title>
<g id="a_Node000002"><a xlink:href="StringFormatter_8hpp.html" target="_top" xlink:title=" ">
<polygon fill="white" stroke="#666666" points="218.38,-159.75 102.62,-159.75 102.62,-126.25 218.38,-126.25 218.38,-159.75"/>
<text text-anchor="start" x="110.62" y="-146.25" font-family="Helvetica,sans-Serif" font-size="10.00">src/lib/Utils/String</text>
<text text-anchor="middle" x="160.5" y="-133.5" font-family="Helvetica,sans-Serif" font-size="10.00">/StringFormatter.hpp</text>
</a>
</g>
</g>
<!-- Node1&#45;&gt;Node2 -->
<g id="edge1_Node000001_Node000002" class="edge">
<title>Node1&#45;&gt;Node2</title>
<g id="a_edge1_Node000001_Node000002"><a xlink:title=" ">
<path fill="none" stroke="#63b8ff" d="M209.18,-187.81C199,-178.65 187.61,-168.4 178.41,-160.12"/>
<polygon fill="#63b8ff" stroke="#63b8ff" points="206.83,-190.4 216.6,-194.49 211.51,-185.2 206.83,-190.4"/>
</a>
</g>
</g>
<!-- Node5 -->
<g id="Node000005" class="node">
<title>Node5</title>
<g id="a_Node000005"><a xlink:href="UtilsFactory_8hpp.html" target="_top" xlink:title=" ">
<polygon fill="white" stroke="#666666" points="387,-153.38 236,-153.38 236,-132.62 387,-132.62 387,-153.38"/>
<text text-anchor="middle" x="311.5" y="-139.88" font-family="Helvetica,sans-Serif" font-size="10.00">src/lib/Utils/UtilsFactory.hpp</text>
</a>
</g>
</g>
<!-- Node1&#45;&gt;Node5 -->
<g id="edge4_Node000001_Node000005" class="edge">
<title>Node1&#45;&gt;Node5</title>
<g id="a_edge4_Node000001_Node000005"><a xlink:title=" ">
<path fill="none" stroke="#63b8ff" d="M261.82,-188.12C275.04,-176.38 290.35,-162.78 300.44,-153.82"/>
<polygon fill="#63b8ff" stroke="#63b8ff" points="259.8,-185.24 254.64,-194.5 264.44,-190.47 259.8,-185.24"/>
</a>
</g>
</g>
<!-- Node3 -->
<g id="Node000003" class="node">
<title>Node3</title>
<g id="a_Node000003"><a xlink:href="StringFormatter_8cpp.html" target="_top" xlink:title=" ">
<polygon fill="white" stroke="#666666" points="115,-90.25 0,-90.25 0,-56.75 115,-56.75 115,-90.25"/>
<text text-anchor="start" x="8" y="-76.75" font-family="Helvetica,sans-Serif" font-size="10.00">src/lib/Utils/String</text>
<text text-anchor="middle" x="57.5" y="-64" font-family="Helvetica,sans-Serif" font-size="10.00">/StringFormatter.cpp</text>
</a>
</g>
</g>
<!-- Node2&#45;&gt;Node3 -->
<g id="edge2_Node000002_Node000003" class="edge">
<title>Node2&#45;&gt;Node3</title>
<g id="a_edge2_Node000002_Node000003"><a xlink:title=" ">
<path fill="none" stroke="#63b8ff" d="M126.61,-119.79C112.03,-110.24 95.31,-99.28 81.97,-90.54"/>
<polygon fill="#63b8ff" stroke="#63b8ff" points="124.28,-122.45 134.56,-125 128.12,-116.59 124.28,-122.45"/>
</a>
</g>
</g>
<!-- Node4 -->
<g id="Node000004" class="node">
<title>Node4</title>
<g id="a_Node000004"><a xlink:href="UtilsFactory_8cpp.html" target="_top" xlink:title=" ">
<polygon fill="white" stroke="#666666" points="283.62,-83.88 133.38,-83.88 133.38,-63.12 283.62,-63.12 283.62,-83.88"/>
<text text-anchor="middle" x="208.5" y="-70.38" font-family="Helvetica,sans-Serif" font-size="10.00">src/lib/Utils/UtilsFactory.cpp</text>
</a>
</g>
</g>
<!-- Node2&#45;&gt;Node4 -->
<g id="edge3_Node000002_Node000004" class="edge">
<title>Node2&#45;&gt;Node4</title>
<g id="a_edge3_Node000002_Node000004"><a xlink:title=" ">
<path fill="none" stroke="#63b8ff" d="M178.33,-116.93C186.39,-105.6 195.45,-92.86 201.52,-84.32"/>
<polygon fill="#63b8ff" stroke="#63b8ff" points="175.7,-114.59 172.75,-124.77 181.4,-118.65 175.7,-114.59"/>
</a>
</g>
</g>
<!-- Node5&#45;&gt;Node4 -->
<g id="edge9_Node000005_Node000004" class="edge">
<title>Node5&#45;&gt;Node4</title>
<g id="a_edge9_Node000005_Node000004"><a xlink:title=" ">
<path fill="none" stroke="#63b8ff" d="M287.2,-126.08C267.47,-113.15 240.27,-95.32 223.56,-84.37"/>
<polygon fill="#63b8ff" stroke="#63b8ff" points="285.19,-128.95 295.48,-131.5 289.03,-123.09 285.19,-128.95"/>
</a>
</g>
</g>
<!-- Node6 -->
<g id="Node000006" class="node">
<title>Node6</title>
<g id="a_Node000006"><a xlink:href="NixonCppLib_8hpp.html" target="_top" xlink:title=" ">
<polygon fill="white" stroke="#666666" points="455,-90.25 340,-90.25 340,-56.75 455,-56.75 455,-90.25"/>
<text text-anchor="start" x="348" y="-76.75" font-family="Helvetica,sans-Serif" font-size="10.00">include/NixonCppLib</text>
<text text-anchor="middle" x="397.5" y="-64" font-family="Helvetica,sans-Serif" font-size="10.00">/NixonCppLib.hpp</text>
</a>
</g>
</g>
<!-- Node5&#45;&gt;Node6 -->
<g id="edge5_Node000005_Node000006" class="edge">
<title>Node5&#45;&gt;Node6</title>
<g id="a_edge5_Node000005_Node000006"><a xlink:title=" ">
<path fill="none" stroke="#63b8ff" d="M332.83,-125.26C346.29,-114.69 363.58,-101.12 376.9,-90.67"/>
<polygon fill="#63b8ff" stroke="#63b8ff" points="330.72,-122.47 325.01,-131.39 335.04,-127.97 330.72,-122.47"/>
</a>
</g>
</g>
<!-- Node7 -->
<g id="Node000007" class="node">
<title>Node7</title>
<g id="a_Node000007"><a xlink:href="Application_8cpp.html" target="_top" xlink:title=" ">
<polygon fill="white" stroke="#666666" points="376.12,-20.75 246.88,-20.75 246.88,0 376.12,0 376.12,-20.75"/>
<text text-anchor="middle" x="311.5" y="-7.25" font-family="Helvetica,sans-Serif" font-size="10.00">src/app/Application.cpp</text>
</a>
</g>
</g>
<!-- Node5&#45;&gt;Node7 -->
<g id="edge8_Node000005_Node000007" class="edge">
<title>Node5&#45;&gt;Node7</title>
<g id="a_edge8_Node000005_Node000007"><a xlink:title=" ">
<path fill="none" stroke="#63b8ff" d="M311.5,-121.02C311.5,-92.3 311.5,-41.92 311.5,-20.95"/>
<polygon fill="#63b8ff" stroke="#63b8ff" points="308,-120.67 311.5,-130.67 315,-120.67 308,-120.67"/>
</a>
</g>
</g>
<!-- Node6&#45;&gt;Node7 -->
<g id="edge6_Node000006_Node000007" class="edge">
<title>Node6&#45;&gt;Node7</title>
<g id="a_edge6_Node000006_Node000007"><a xlink:title=" ">
<path fill="none" stroke="#63b8ff" d="M365.64,-49.85C351.75,-39.99 336.21,-28.94 325.35,-21.22"/>
<polygon fill="#63b8ff" stroke="#63b8ff" points="363.49,-52.62 373.67,-55.56 367.55,-46.92 363.49,-52.62"/>
</a>
</g>
</g>
<!-- Node8 -->
<g id="Node000008" class="node">
<title>Node8</title>
<g id="a_Node000008"><a xlink:href="NixonCppLib_8cpp.html" target="_top" xlink:title=" ">
<polygon fill="white" stroke="#666666" points="523.12,-20.75 393.88,-20.75 393.88,0 523.12,0 523.12,-20.75"/>
<text text-anchor="middle" x="458.5" y="-7.25" font-family="Helvetica,sans-Serif" font-size="10.00">src/lib/NixonCppLib.cpp</text>
</a>
</g>
</g>
<!-- Node6&#45;&gt;Node8 -->
<g id="edge7_Node000006_Node000008" class="edge">
<title>Node6&#45;&gt;Node8</title>
<g id="a_edge7_Node000006_Node000008"><a xlink:title=" ">
<path fill="none" stroke="#63b8ff" d="M421.53,-48.42C431,-38.93 441.35,-28.56 448.68,-21.22"/>
<polygon fill="#63b8ff" stroke="#63b8ff" points="419.18,-45.82 414.6,-55.37 424.14,-50.76 419.18,-45.82"/>
</a>
</g>
</g>
</g>
</svg>
