<?xml version="1.0" encoding="UTF-8" standalone="no"?>
<!DOCTYPE svg PUBLIC "-//W3C//DTD SVG 1.1//EN"
 "http://www.w3.org/Graphics/SVG/1.1/DTD/svg11.dtd">
<!-- Generated by graphviz version 12.2.1 (0)
 -->
<!-- Title: src/lib/Utils/Json/JsonSerializer.hpp Pages: 1 -->
<svg width="615pt" height="212pt"
 viewBox="0.00 0.00 614.75 211.75" xmlns="http://www.w3.org/2000/svg" xmlns:xlink="http://www.w3.org/1999/xlink">
<g id="graph0" class="graph" transform="scale(1 1) rotate(0) translate(4 207.75)">
<title>src/lib/Utils/Json/JsonSerializer.hpp</title>
<!-- Node1 -->
<g id="Node000001" class="node">
<title>Node1</title>
<g id="a_Node000001"><a xlink:title=" ">
<polygon fill="#999999" stroke="#666666" points="415.75,-203.75 310.5,-203.75 310.5,-170.25 415.75,-170.25 415.75,-203.75"/>
<text text-anchor="start" x="318.5" y="-190.25" font-family="Helvetica,sans-Serif" font-size="10.00">src/lib/Utils/Json</text>
<text text-anchor="middle" x="363.12" y="-177.5" font-family="Helvetica,sans-Serif" font-size="10.00">/JsonSerializer.hpp</text>
</a>
</g>
</g>
<!-- Node2 -->
<g id="Node000002" class="node">
<title>Node2</title>
<g id="a_Node000002"><a xlink:href="IFileReader_8hpp.html" target="_top" xlink:title=" ">
<polygon fill="white" stroke="#666666" points="359.5,-134.25 186.75,-134.25 186.75,-113.5 359.5,-113.5 359.5,-134.25"/>
<text text-anchor="middle" x="273.12" y="-120.75" font-family="Helvetica,sans-Serif" font-size="10.00">Utils/Filesystem/IFileReader.hpp</text>
</a>
</g>
</g>
<!-- Node1&#45;&gt;Node2 -->
<g id="edge1_Node000001_Node000002" class="edge">
<title>Node1&#45;&gt;Node2</title>
<g id="a_edge1_Node000001_Node000002"><a xlink:title=" ">
<path fill="none" stroke="#63b8ff" d="M339.48,-169.94C326.36,-161.03 310.1,-149.99 296.96,-141.06"/>
<polygon fill="#63b8ff" stroke="#63b8ff" points="299.11,-138.29 288.87,-135.57 295.17,-144.08 299.11,-138.29"/>
</a>
</g>
</g>
<!-- Node11 -->
<g id="Node000011" class="node">
<title>Node11</title>
<g id="a_Node000011"><a xlink:href="IFileWriter_8hpp.html" target="_top" xlink:title=" ">
<polygon fill="white" stroke="#666666" points="168.25,-134.25 0,-134.25 0,-113.5 168.25,-113.5 168.25,-134.25"/>
<text text-anchor="middle" x="84.12" y="-120.75" font-family="Helvetica,sans-Serif" font-size="10.00">Utils/Filesystem/IFileWriter.hpp</text>
</a>
</g>
</g>
<!-- Node1&#45;&gt;Node11 -->
<g id="edge12_Node000001_Node000011" class="edge">
<title>Node1&#45;&gt;Node11</title>
<g id="a_edge12_Node000001_Node000011"><a xlink:title=" ">
<path fill="none" stroke="#63b8ff" d="M310.32,-174.43C261.66,-163.77 189.69,-148 140.06,-137.13"/>
<polygon fill="#63b8ff" stroke="#63b8ff" points="140.89,-133.73 130.37,-135.01 139.39,-140.57 140.89,-133.73"/>
</a>
</g>
</g>
<!-- Node12 -->
<g id="Node000012" class="node">
<title>Node12</title>
<g id="a_Node000012"><a xlink:href="IJsonSerializer_8hpp.html" target="_top" xlink:title=" ">
<polygon fill="white" stroke="#666666" points="531.12,-134.25 377.12,-134.25 377.12,-113.5 531.12,-113.5 531.12,-134.25"/>
<text text-anchor="middle" x="454.12" y="-120.75" font-family="Helvetica,sans-Serif" font-size="10.00">Utils/Json/IJsonSerializer.hpp</text>
</a>
</g>
</g>
<!-- Node1&#45;&gt;Node12 -->
<g id="edge18_Node000001_Node000012" class="edge">
<title>Node1&#45;&gt;Node12</title>
<g id="a_edge18_Node000001_Node000012"><a xlink:title=" ">
<path fill="none" stroke="#63b8ff" d="M387.03,-169.94C400.29,-161.03 416.74,-149.99 430.03,-141.06"/>
<polygon fill="#63b8ff" stroke="#63b8ff" points="431.87,-144.04 438.22,-135.56 427.96,-138.23 431.87,-144.04"/>
</a>
</g>
</g>
<!-- Node14 -->
<g id="Node000014" class="node">
<title>Node14</title>
<g id="a_Node000014"><a xlink:title=" ">
<polygon fill="#e0e0e0" stroke="#999999" points="606.75,-134.25 549.5,-134.25 549.5,-113.5 606.75,-113.5 606.75,-134.25"/>
<text text-anchor="middle" x="578.12" y="-120.75" font-family="Helvetica,sans-Serif" font-size="10.00">memory</text>
</a>
</g>
</g>
<!-- Node1&#45;&gt;Node14 -->
<g id="edge23_Node000001_Node000014" class="edge">
<title>Node1&#45;&gt;Node14</title>
<g id="a_edge23_Node000001_Node000014"><a xlink:title=" ">
<path fill="none" stroke="#63b8ff" d="M416,-170.97C453.75,-160.23 503.75,-146.02 538.2,-136.23"/>
<polygon fill="#63b8ff" stroke="#63b8ff" points="539.12,-139.6 547.78,-133.5 537.21,-132.87 539.12,-139.6"/>
</a>
</g>
</g>
<!-- Node3 -->
<g id="Node000003" class="node">
<title>Node3</title>
<g id="a_Node000003"><a xlink:href="UtilsError_8hpp.html" target="_top" xlink:title=" ">
<polygon fill="white" stroke="#666666" points="435.88,-77.5 328.38,-77.5 328.38,-56.75 435.88,-56.75 435.88,-77.5"/>
<text text-anchor="middle" x="382.12" y="-64" font-family="Helvetica,sans-Serif" font-size="10.00">Utils/UtilsError.hpp</text>
</a>
</g>
</g>
<!-- Node2&#45;&gt;Node3 -->
<g id="edge2_Node000002_Node000003" class="edge">
<title>Node2&#45;&gt;Node3</title>
<g id="a_edge2_Node000002_Node000003"><a xlink:title=" ">
<path fill="none" stroke="#63b8ff" d="M292.61,-113.09C309.27,-104.72 333.51,-92.54 352.56,-82.97"/>
<polygon fill="#63b8ff" stroke="#63b8ff" points="354.09,-86.12 361.45,-78.51 350.95,-79.87 354.09,-86.12"/>
</a>
</g>
</g>
<!-- Node4 -->
<g id="Node000004" class="node">
<title>Node4</title>
<g id="a_Node000004"><a xlink:title=" ">
<polygon fill="#e0e0e0" stroke="#999999" points="200.62,-20.75 151.62,-20.75 151.62,0 200.62,0 200.62,-20.75"/>
<text text-anchor="middle" x="176.12" y="-7.25" font-family="Helvetica,sans-Serif" font-size="10.00">cstdint</text>
</a>
</g>
</g>
<!-- Node2&#45;&gt;Node4 -->
<g id="edge8_Node000002_Node000004" class="edge">
<title>Node2&#45;&gt;Node4</title>
<g id="a_edge8_Node000002_Node000004"><a xlink:title=" ">
<path fill="none" stroke="#63b8ff" d="M246.45,-113.09C229.77,-105.69 209.07,-93.97 196.12,-77.5 185.81,-64.37 180.8,-45.97 178.37,-31.91"/>
<polygon fill="#63b8ff" stroke="#63b8ff" points="181.9,-31.83 177.05,-22.41 174.96,-32.8 181.9,-31.83"/>
</a>
</g>
</g>
<!-- Node7 -->
<g id="Node000007" class="node">
<title>Node7</title>
<g id="a_Node000007"><a xlink:title=" ">
<polygon fill="#e0e0e0" stroke="#999999" points="322,-20.75 278.25,-20.75 278.25,0 322,0 322,-20.75"/>
<text text-anchor="middle" x="300.12" y="-7.25" font-family="Helvetica,sans-Serif" font-size="10.00">string</text>
</a>
</g>
</g>
<!-- Node2&#45;&gt;Node7 -->
<g id="edge10_Node000002_Node000007" class="edge">
<title>Node2&#45;&gt;Node7</title>
<g id="a_edge10_Node000002_Node000007"><a xlink:title=" ">
<path fill="none" stroke="#63b8ff" d="M275.43,-113.37C279.75,-95.52 289.17,-56.61 295.05,-32.34"/>
<polygon fill="#63b8ff" stroke="#63b8ff" points="298.44,-33.19 297.4,-22.65 291.64,-31.54 298.44,-33.19"/>
</a>
</g>
</g>
<!-- Node9 -->
<g id="Node000009" class="node">
<title>Node9</title>
<g id="a_Node000009"><a xlink:title=" ">
<polygon fill="#e0e0e0" stroke="#999999" points="271.62,-77.5 204.62,-77.5 204.62,-56.75 271.62,-56.75 271.62,-77.5"/>
<text text-anchor="middle" x="238.12" y="-64" font-family="Helvetica,sans-Serif" font-size="10.00">filesystem</text>
</a>
</g>
</g>
<!-- Node2&#45;&gt;Node9 -->
<g id="edge9_Node000002_Node000009" class="edge">
<title>Node2&#45;&gt;Node9</title>
<g id="a_edge9_Node000002_Node000009"><a xlink:title=" ">
<path fill="none" stroke="#63b8ff" d="M266.87,-113.09C262.29,-105.92 255.93,-95.98 250.36,-87.26"/>
<polygon fill="#63b8ff" stroke="#63b8ff" points="253.48,-85.64 245.14,-79.1 247.58,-89.41 253.48,-85.64"/>
</a>
</g>
</g>
<!-- Node10 -->
<g id="Node000010" class="node">
<title>Node10</title>
<g id="a_Node000010"><a xlink:title=" ">
<polygon fill="#e0e0e0" stroke="#999999" points="148.5,-77.5 101.75,-77.5 101.75,-56.75 148.5,-56.75 148.5,-77.5"/>
<text text-anchor="middle" x="125.12" y="-64" font-family="Helvetica,sans-Serif" font-size="10.00">vector</text>
</a>
</g>
</g>
<!-- Node2&#45;&gt;Node10 -->
<g id="edge11_Node000002_Node000010" class="edge">
<title>Node2&#45;&gt;Node10</title>
<g id="a_edge11_Node000002_Node000010"><a xlink:title=" ">
<path fill="none" stroke="#63b8ff" d="M246.67,-113.09C222.37,-104.1 186.21,-90.72 159.65,-80.9"/>
<polygon fill="#63b8ff" stroke="#63b8ff" points="160.92,-77.64 150.33,-77.45 158.5,-84.2 160.92,-77.64"/>
</a>
</g>
</g>
<!-- Node3&#45;&gt;Node4 -->
<g id="edge3_Node000003_Node000004" class="edge">
<title>Node3&#45;&gt;Node4</title>
<g id="a_edge3_Node000003_Node000004"><a xlink:title=" ">
<path fill="none" stroke="#63b8ff" d="M345.3,-56.34C307.54,-46.3 249.21,-30.8 211.86,-20.87"/>
<polygon fill="#63b8ff" stroke="#63b8ff" points="213.01,-17.56 202.45,-18.37 211.21,-24.32 213.01,-17.56"/>
</a>
</g>
</g>
<!-- Node5 -->
<g id="Node000005" class="node">
<title>Node5</title>
<g id="a_Node000005"><a xlink:title=" ">
<polygon fill="#e0e0e0" stroke="#999999" points="546,-20.75 490.25,-20.75 490.25,0 546,0 546,-20.75"/>
<text text-anchor="middle" x="518.12" y="-7.25" font-family="Helvetica,sans-Serif" font-size="10.00">optional</text>
</a>
</g>
</g>
<!-- Node3&#45;&gt;Node5 -->
<g id="edge4_Node000003_Node000005" class="edge">
<title>Node3&#45;&gt;Node5</title>
<g id="a_edge4_Node000003_Node000005"><a xlink:title=" ">
<path fill="none" stroke="#63b8ff" d="M406.44,-56.34C427.91,-47.69 459.45,-35 483.54,-25.3"/>
<polygon fill="#63b8ff" stroke="#63b8ff" points="484.65,-28.63 492.62,-21.64 482.03,-22.13 484.65,-28.63"/>
</a>
</g>
</g>
<!-- Node6 -->
<g id="Node000006" class="node">
<title>Node6</title>
<g id="a_Node000006"><a xlink:title=" ">
<polygon fill="#e0e0e0" stroke="#999999" points="404.12,-20.75 340.12,-20.75 340.12,0 404.12,0 404.12,-20.75"/>
<text text-anchor="middle" x="372.12" y="-7.25" font-family="Helvetica,sans-Serif" font-size="10.00">stdexcept</text>
</a>
</g>
</g>
<!-- Node3&#45;&gt;Node6 -->
<g id="edge5_Node000003_Node000006" class="edge">
<title>Node3&#45;&gt;Node6</title>
<g id="a_edge5_Node000003_Node000006"><a xlink:title=" ">
<path fill="none" stroke="#63b8ff" d="M380.34,-56.34C379.11,-49.64 377.45,-40.51 375.93,-32.23"/>
<polygon fill="#63b8ff" stroke="#63b8ff" points="379.41,-31.78 374.17,-22.57 372.52,-33.03 379.41,-31.78"/>
</a>
</g>
</g>
<!-- Node3&#45;&gt;Node7 -->
<g id="edge6_Node000003_Node000007" class="edge">
<title>Node3&#45;&gt;Node7</title>
<g id="a_edge6_Node000003_Node000007"><a xlink:title=" ">
<path fill="none" stroke="#63b8ff" d="M367.47,-56.34C355.45,-48.32 338.21,-36.81 324.19,-27.44"/>
<polygon fill="#63b8ff" stroke="#63b8ff" points="326.18,-24.56 315.92,-21.92 322.29,-30.38 326.18,-24.56"/>
</a>
</g>
</g>
<!-- Node8 -->
<g id="Node000008" class="node">
<title>Node8</title>
<g id="a_Node000008"><a xlink:title=" ">
<polygon fill="#e0e0e0" stroke="#999999" points="472.38,-20.75 421.88,-20.75 421.88,0 472.38,0 472.38,-20.75"/>
<text text-anchor="middle" x="447.12" y="-7.25" font-family="Helvetica,sans-Serif" font-size="10.00">variant</text>
</a>
</g>
</g>
<!-- Node3&#45;&gt;Node8 -->
<g id="edge7_Node000003_Node000008" class="edge">
<title>Node3&#45;&gt;Node8</title>
<g id="a_edge7_Node000003_Node000008"><a xlink:title=" ">
<path fill="none" stroke="#63b8ff" d="M393.75,-56.34C402.99,-48.55 416.14,-37.47 427.07,-28.26"/>
<polygon fill="#63b8ff" stroke="#63b8ff" points="429.05,-31.17 434.45,-22.05 424.54,-25.82 429.05,-31.17"/>
</a>
</g>
</g>
<!-- Node11&#45;&gt;Node3 -->
<g id="edge13_Node000011_Node000003" class="edge">
<title>Node11&#45;&gt;Node3</title>
<g id="a_edge13_Node000011_Node000003"><a xlink:title=" ">
<path fill="none" stroke="#63b8ff" d="M137.75,-113.02C188.12,-103.77 263.59,-89.9 317.31,-80.03"/>
<polygon fill="#63b8ff" stroke="#63b8ff" points="317.74,-83.51 326.94,-78.26 316.48,-76.63 317.74,-83.51"/>
</a>
</g>
</g>
<!-- Node11&#45;&gt;Node4 -->
<g id="edge14_Node000011_Node000004" class="edge">
<title>Node11&#45;&gt;Node4</title>
<g id="a_edge14_Node000011_Node000004"><a xlink:title=" ">
<path fill="none" stroke="#63b8ff" d="M75.39,-113.2C64.26,-99.66 47.87,-74.7 60.12,-56.75 77.86,-30.77 112.9,-19.66 139.85,-14.92"/>
<polygon fill="#63b8ff" stroke="#63b8ff" points="140.33,-18.38 149.7,-13.43 139.29,-11.46 140.33,-18.38"/>
</a>
</g>
</g>
<!-- Node11&#45;&gt;Node7 -->
<g id="edge16_Node000011_Node000007" class="edge">
<title>Node11&#45;&gt;Node7</title>
<g id="a_edge16_Node000011_Node000007"><a xlink:title=" ">
<path fill="none" stroke="#63b8ff" d="M82.36,-113.38C80.31,-99.13 78.83,-72.25 93.12,-56.75 116.21,-31.73 214.11,-19.17 266.59,-14.13"/>
<polygon fill="#63b8ff" stroke="#63b8ff" points="266.82,-17.62 276.46,-13.23 266.18,-10.65 266.82,-17.62"/>
</a>
</g>
</g>
<!-- Node11&#45;&gt;Node9 -->
<g id="edge15_Node000011_Node000009" class="edge">
<title>Node11&#45;&gt;Node9</title>
<g id="a_edge15_Node000011_Node000009"><a xlink:title=" ">
<path fill="none" stroke="#63b8ff" d="M111.66,-113.09C136.22,-104.36 172.42,-91.48 199.81,-81.75"/>
<polygon fill="#63b8ff" stroke="#63b8ff" points="200.9,-85.08 209.15,-78.43 198.55,-78.48 200.9,-85.08"/>
</a>
</g>
</g>
<!-- Node11&#45;&gt;Node10 -->
<g id="edge17_Node000011_Node000010" class="edge">
<title>Node11&#45;&gt;Node10</title>
<g id="a_edge17_Node000011_Node000010"><a xlink:title=" ">
<path fill="none" stroke="#63b8ff" d="M91.45,-113.09C96.88,-105.85 104.43,-95.76 111.01,-86.97"/>
<polygon fill="#63b8ff" stroke="#63b8ff" points="113.76,-89.14 116.95,-79.04 108.16,-84.95 113.76,-89.14"/>
</a>
</g>
</g>
<!-- Node12&#45;&gt;Node3 -->
<g id="edge19_Node000012_Node000003" class="edge">
<title>Node12&#45;&gt;Node3</title>
<g id="a_edge19_Node000012_Node000003"><a xlink:title=" ">
<path fill="none" stroke="#63b8ff" d="M441.25,-113.09C430.91,-105.22 416.16,-94 403.97,-84.74"/>
<polygon fill="#63b8ff" stroke="#63b8ff" points="406.17,-82.01 396.09,-78.74 401.93,-87.58 406.17,-82.01"/>
</a>
</g>
</g>
<!-- Node12&#45;&gt;Node7 -->
<g id="edge22_Node000012_Node000007" class="edge">
<title>Node12&#45;&gt;Node7</title>
<g id="a_edge22_Node000012_Node000007"><a xlink:title=" ">
<path fill="none" stroke="#63b8ff" d="M455.77,-113.06C457.56,-98.9 458.58,-72.68 445.12,-56.75 444.19,-55.64 375.75,-34.53 333.24,-21.5"/>
<polygon fill="#63b8ff" stroke="#63b8ff" points="334.31,-18.17 323.72,-18.58 332.26,-24.86 334.31,-18.17"/>
</a>
</g>
</g>
<!-- Node12&#45;&gt;Node9 -->
<g id="edge20_Node000012_Node000009" class="edge">
<title>Node12&#45;&gt;Node9</title>
<g id="a_edge20_Node000012_Node000009"><a xlink:title=" ">
<path fill="none" stroke="#63b8ff" d="M415.51,-113.09C378.29,-103.65 322,-89.39 282.85,-79.46"/>
<polygon fill="#63b8ff" stroke="#63b8ff" points="283.82,-76.1 273.26,-77.03 282.1,-82.88 283.82,-76.1"/>
</a>
</g>
</g>
<!-- Node13 -->
<g id="Node000013" class="node">
<title>Node13</title>
<g id="a_Node000013"><a xlink:title=" ">
<polygon fill="#e0e0e0" stroke="#999999" points="601.62,-77.5 492.62,-77.5 492.62,-56.75 601.62,-56.75 601.62,-77.5"/>
<text text-anchor="middle" x="547.12" y="-64" font-family="Helvetica,sans-Serif" font-size="10.00">nlohmann/json.hpp</text>
</a>
</g>
</g>
<!-- Node12&#45;&gt;Node13 -->
<g id="edge21_Node000012_Node000013" class="edge">
<title>Node12&#45;&gt;Node13</title>
<g id="a_edge21_Node000012_Node000013"><a xlink:title=" ">
<path fill="none" stroke="#63b8ff" d="M470.75,-113.09C484.64,-104.91 504.69,-93.11 520.76,-83.65"/>
<polygon fill="#63b8ff" stroke="#63b8ff" points="522.5,-86.69 529.34,-78.6 518.94,-80.65 522.5,-86.69"/>
</a>
</g>
</g>
</g>
</svg>
