<?xml version="1.0" encoding="UTF-8" standalone="no"?>
<!DOCTYPE svg PUBLIC "-//W3C//DTD SVG 1.1//EN"
 "http://www.w3.org/Graphics/SVG/1.1/DTD/svg11.dtd">
<!-- Generated by graphviz version 12.2.1 (0)
 -->
<!-- Title: src/lib/Utils/Json/JsonSerializer.cpp Pages: 1 -->
<svg width="615pt" height="269pt"
 viewBox="0.00 0.00 614.75 268.50" xmlns="http://www.w3.org/2000/svg" xmlns:xlink="http://www.w3.org/1999/xlink">
<g id="graph0" class="graph" transform="scale(1 1) rotate(0) translate(4 264.5)">
<title>src/lib/Utils/Json/JsonSerializer.cpp</title>
<!-- Node1 -->
<g id="Node000001" class="node">
<title>Node1</title>
<g id="a_Node000001"><a xlink:title=" ">
<polygon fill="#999999" stroke="#666666" points="466.38,-260.5 361.88,-260.5 361.88,-227 466.38,-227 466.38,-260.5"/>
<text text-anchor="start" x="369.88" y="-247" font-family="Helvetica,sans-Serif" font-size="10.00">src/lib/Utils/Json</text>
<text text-anchor="middle" x="414.12" y="-234.25" font-family="Helvetica,sans-Serif" font-size="10.00">/JsonSerializer.cpp</text>
</a>
</g>
</g>
<!-- Node2 -->
<g id="Node000002" class="node">
<title>Node2</title>
<g id="a_Node000002"><a xlink:href="JsonSerializer_8hpp.html" target="_top" xlink:title=" ">
<polygon fill="white" stroke="#666666" points="414.25,-191 312,-191 312,-170.25 414.25,-170.25 414.25,-191"/>
<text text-anchor="middle" x="363.12" y="-177.5" font-family="Helvetica,sans-Serif" font-size="10.00">JsonSerializer.hpp</text>
</a>
</g>
</g>
<!-- Node1&#45;&gt;Node2 -->
<g id="edge1_Node000001_Node000002" class="edge">
<title>Node1&#45;&gt;Node2</title>
<g id="a_edge1_Node000001_Node000002"><a xlink:title=" ">
<path fill="none" stroke="#63b8ff" d="M400.73,-226.69C393.95,-218.57 385.69,-208.67 378.64,-200.22"/>
<polygon fill="#63b8ff" stroke="#63b8ff" points="381.4,-198.07 372.31,-192.63 376.03,-202.55 381.4,-198.07"/>
</a>
</g>
</g>
<!-- Node16 -->
<g id="Node000016" class="node">
<title>Node16</title>
<g id="a_Node000016"><a xlink:title=" ">
<polygon fill="#e0e0e0" stroke="#999999" points="498.25,-191 432,-191 432,-170.25 498.25,-170.25 498.25,-191"/>
<text text-anchor="middle" x="465.12" y="-177.5" font-family="Helvetica,sans-Serif" font-size="10.00">fmt/core.h</text>
</a>
</g>
</g>
<!-- Node1&#45;&gt;Node16 -->
<g id="edge25_Node000001_Node000016" class="edge">
<title>Node1&#45;&gt;Node16</title>
<g id="a_edge25_Node000001_Node000016"><a xlink:title=" ">
<path fill="none" stroke="#63b8ff" d="M427.52,-226.69C434.3,-218.57 442.56,-208.67 449.61,-200.22"/>
<polygon fill="#63b8ff" stroke="#63b8ff" points="452.22,-202.55 455.94,-192.63 446.85,-198.07 452.22,-202.55"/>
</a>
</g>
</g>
<!-- Node3 -->
<g id="Node000003" class="node">
<title>Node3</title>
<g id="a_Node000003"><a xlink:href="IFileReader_8hpp.html" target="_top" xlink:title=" ">
<polygon fill="white" stroke="#666666" points="359.5,-134.25 186.75,-134.25 186.75,-113.5 359.5,-113.5 359.5,-134.25"/>
<text text-anchor="middle" x="273.12" y="-120.75" font-family="Helvetica,sans-Serif" font-size="10.00">Utils/Filesystem/IFileReader.hpp</text>
</a>
</g>
</g>
<!-- Node2&#45;&gt;Node3 -->
<g id="edge2_Node000002_Node000003" class="edge">
<title>Node2&#45;&gt;Node3</title>
<g id="a_edge2_Node000002_Node000003"><a xlink:title=" ">
<path fill="none" stroke="#63b8ff" d="M347.03,-169.84C333.6,-161.66 314.19,-149.86 298.64,-140.4"/>
<polygon fill="#63b8ff" stroke="#63b8ff" points="300.73,-137.57 290.37,-135.37 297.09,-143.55 300.73,-137.57"/>
</a>
</g>
</g>
<!-- Node12 -->
<g id="Node000012" class="node">
<title>Node12</title>
<g id="a_Node000012"><a xlink:href="IFileWriter_8hpp.html" target="_top" xlink:title=" ">
<polygon fill="white" stroke="#666666" points="168.25,-134.25 0,-134.25 0,-113.5 168.25,-113.5 168.25,-134.25"/>
<text text-anchor="middle" x="84.12" y="-120.75" font-family="Helvetica,sans-Serif" font-size="10.00">Utils/Filesystem/IFileWriter.hpp</text>
</a>
</g>
</g>
<!-- Node2&#45;&gt;Node12 -->
<g id="edge13_Node000002_Node000012" class="edge">
<title>Node2&#45;&gt;Node12</title>
<g id="a_edge13_Node000002_Node000012"><a xlink:title=" ">
<path fill="none" stroke="#63b8ff" d="M312.92,-169.77C265.96,-160.56 195.7,-146.77 145.44,-136.91"/>
<polygon fill="#63b8ff" stroke="#63b8ff" points="146.37,-133.52 135.88,-135.03 145.02,-140.39 146.37,-133.52"/>
</a>
</g>
</g>
<!-- Node13 -->
<g id="Node000013" class="node">
<title>Node13</title>
<g id="a_Node000013"><a xlink:href="IJsonSerializer_8hpp.html" target="_top" xlink:title=" ">
<polygon fill="white" stroke="#666666" points="531.12,-134.25 377.12,-134.25 377.12,-113.5 531.12,-113.5 531.12,-134.25"/>
<text text-anchor="middle" x="454.12" y="-120.75" font-family="Helvetica,sans-Serif" font-size="10.00">Utils/Json/IJsonSerializer.hpp</text>
</a>
</g>
</g>
<!-- Node2&#45;&gt;Node13 -->
<g id="edge19_Node000002_Node000013" class="edge">
<title>Node2&#45;&gt;Node13</title>
<g id="a_edge19_Node000002_Node000013"><a xlink:title=" ">
<path fill="none" stroke="#63b8ff" d="M379.39,-169.84C392.98,-161.66 412.6,-149.86 428.33,-140.4"/>
<polygon fill="#63b8ff" stroke="#63b8ff" points="429.94,-143.51 436.7,-135.36 426.33,-137.52 429.94,-143.51"/>
</a>
</g>
</g>
<!-- Node15 -->
<g id="Node000015" class="node">
<title>Node15</title>
<g id="a_Node000015"><a xlink:title=" ">
<polygon fill="#e0e0e0" stroke="#999999" points="606.75,-134.25 549.5,-134.25 549.5,-113.5 606.75,-113.5 606.75,-134.25"/>
<text text-anchor="middle" x="578.12" y="-120.75" font-family="Helvetica,sans-Serif" font-size="10.00">memory</text>
</a>
</g>
</g>
<!-- Node2&#45;&gt;Node15 -->
<g id="edge24_Node000002_Node000015" class="edge">
<title>Node2&#45;&gt;Node15</title>
<g id="a_edge24_Node000002_Node000015"><a xlink:title=" ">
<path fill="none" stroke="#63b8ff" d="M401.56,-169.84C440.15,-160.01 499.32,-144.94 538.37,-135"/>
<polygon fill="#63b8ff" stroke="#63b8ff" points="539.01,-138.45 547.84,-132.59 537.28,-131.66 539.01,-138.45"/>
</a>
</g>
</g>
<!-- Node4 -->
<g id="Node000004" class="node">
<title>Node4</title>
<g id="a_Node000004"><a xlink:href="UtilsError_8hpp.html" target="_top" xlink:title=" ">
<polygon fill="white" stroke="#666666" points="435.88,-77.5 328.38,-77.5 328.38,-56.75 435.88,-56.75 435.88,-77.5"/>
<text text-anchor="middle" x="382.12" y="-64" font-family="Helvetica,sans-Serif" font-size="10.00">Utils/UtilsError.hpp</text>
</a>
</g>
</g>
<!-- Node3&#45;&gt;Node4 -->
<g id="edge3_Node000003_Node000004" class="edge">
<title>Node3&#45;&gt;Node4</title>
<g id="a_edge3_Node000003_Node000004"><a xlink:title=" ">
<path fill="none" stroke="#63b8ff" d="M292.61,-113.09C309.27,-104.72 333.51,-92.54 352.56,-82.97"/>
<polygon fill="#63b8ff" stroke="#63b8ff" points="354.09,-86.12 361.45,-78.51 350.95,-79.87 354.09,-86.12"/>
</a>
</g>
</g>
<!-- Node5 -->
<g id="Node000005" class="node">
<title>Node5</title>
<g id="a_Node000005"><a xlink:title=" ">
<polygon fill="#e0e0e0" stroke="#999999" points="200.62,-20.75 151.62,-20.75 151.62,0 200.62,0 200.62,-20.75"/>
<text text-anchor="middle" x="176.12" y="-7.25" font-family="Helvetica,sans-Serif" font-size="10.00">cstdint</text>
</a>
</g>
</g>
<!-- Node3&#45;&gt;Node5 -->
<g id="edge9_Node000003_Node000005" class="edge">
<title>Node3&#45;&gt;Node5</title>
<g id="a_edge9_Node000003_Node000005"><a xlink:title=" ">
<path fill="none" stroke="#63b8ff" d="M246.45,-113.09C229.77,-105.69 209.07,-93.97 196.12,-77.5 185.81,-64.37 180.8,-45.97 178.37,-31.91"/>
<polygon fill="#63b8ff" stroke="#63b8ff" points="181.9,-31.83 177.05,-22.41 174.96,-32.8 181.9,-31.83"/>
</a>
</g>
</g>
<!-- Node8 -->
<g id="Node000008" class="node">
<title>Node8</title>
<g id="a_Node000008"><a xlink:title=" ">
<polygon fill="#e0e0e0" stroke="#999999" points="322,-20.75 278.25,-20.75 278.25,0 322,0 322,-20.75"/>
<text text-anchor="middle" x="300.12" y="-7.25" font-family="Helvetica,sans-Serif" font-size="10.00">string</text>
</a>
</g>
</g>
<!-- Node3&#45;&gt;Node8 -->
<g id="edge11_Node000003_Node000008" class="edge">
<title>Node3&#45;&gt;Node8</title>
<g id="a_edge11_Node000003_Node000008"><a xlink:title=" ">
<path fill="none" stroke="#63b8ff" d="M275.43,-113.37C279.75,-95.52 289.17,-56.61 295.05,-32.34"/>
<polygon fill="#63b8ff" stroke="#63b8ff" points="298.44,-33.19 297.4,-22.65 291.64,-31.54 298.44,-33.19"/>
</a>
</g>
</g>
<!-- Node10 -->
<g id="Node000010" class="node">
<title>Node10</title>
<g id="a_Node000010"><a xlink:title=" ">
<polygon fill="#e0e0e0" stroke="#999999" points="271.62,-77.5 204.62,-77.5 204.62,-56.75 271.62,-56.75 271.62,-77.5"/>
<text text-anchor="middle" x="238.12" y="-64" font-family="Helvetica,sans-Serif" font-size="10.00">filesystem</text>
</a>
</g>
</g>
<!-- Node3&#45;&gt;Node10 -->
<g id="edge10_Node000003_Node000010" class="edge">
<title>Node3&#45;&gt;Node10</title>
<g id="a_edge10_Node000003_Node000010"><a xlink:title=" ">
<path fill="none" stroke="#63b8ff" d="M266.87,-113.09C262.29,-105.92 255.93,-95.98 250.36,-87.26"/>
<polygon fill="#63b8ff" stroke="#63b8ff" points="253.48,-85.64 245.14,-79.1 247.58,-89.41 253.48,-85.64"/>
</a>
</g>
</g>
<!-- Node11 -->
<g id="Node000011" class="node">
<title>Node11</title>
<g id="a_Node000011"><a xlink:title=" ">
<polygon fill="#e0e0e0" stroke="#999999" points="148.5,-77.5 101.75,-77.5 101.75,-56.75 148.5,-56.75 148.5,-77.5"/>
<text text-anchor="middle" x="125.12" y="-64" font-family="Helvetica,sans-Serif" font-size="10.00">vector</text>
</a>
</g>
</g>
<!-- Node3&#45;&gt;Node11 -->
<g id="edge12_Node000003_Node000011" class="edge">
<title>Node3&#45;&gt;Node11</title>
<g id="a_edge12_Node000003_Node000011"><a xlink:title=" ">
<path fill="none" stroke="#63b8ff" d="M246.67,-113.09C222.37,-104.1 186.21,-90.72 159.65,-80.9"/>
<polygon fill="#63b8ff" stroke="#63b8ff" points="160.92,-77.64 150.33,-77.45 158.5,-84.2 160.92,-77.64"/>
</a>
</g>
</g>
<!-- Node4&#45;&gt;Node5 -->
<g id="edge4_Node000004_Node000005" class="edge">
<title>Node4&#45;&gt;Node5</title>
<g id="a_edge4_Node000004_Node000005"><a xlink:title=" ">
<path fill="none" stroke="#63b8ff" d="M345.3,-56.34C307.54,-46.3 249.21,-30.8 211.86,-20.87"/>
<polygon fill="#63b8ff" stroke="#63b8ff" points="213.01,-17.56 202.45,-18.37 211.21,-24.32 213.01,-17.56"/>
</a>
</g>
</g>
<!-- Node6 -->
<g id="Node000006" class="node">
<title>Node6</title>
<g id="a_Node000006"><a xlink:title=" ">
<polygon fill="#e0e0e0" stroke="#999999" points="546,-20.75 490.25,-20.75 490.25,0 546,0 546,-20.75"/>
<text text-anchor="middle" x="518.12" y="-7.25" font-family="Helvetica,sans-Serif" font-size="10.00">optional</text>
</a>
</g>
</g>
<!-- Node4&#45;&gt;Node6 -->
<g id="edge5_Node000004_Node000006" class="edge">
<title>Node4&#45;&gt;Node6</title>
<g id="a_edge5_Node000004_Node000006"><a xlink:title=" ">
<path fill="none" stroke="#63b8ff" d="M406.44,-56.34C427.91,-47.69 459.45,-35 483.54,-25.3"/>
<polygon fill="#63b8ff" stroke="#63b8ff" points="484.65,-28.63 492.62,-21.64 482.03,-22.13 484.65,-28.63"/>
</a>
</g>
</g>
<!-- Node7 -->
<g id="Node000007" class="node">
<title>Node7</title>
<g id="a_Node000007"><a xlink:title=" ">
<polygon fill="#e0e0e0" stroke="#999999" points="404.12,-20.75 340.12,-20.75 340.12,0 404.12,0 404.12,-20.75"/>
<text text-anchor="middle" x="372.12" y="-7.25" font-family="Helvetica,sans-Serif" font-size="10.00">stdexcept</text>
</a>
</g>
</g>
<!-- Node4&#45;&gt;Node7 -->
<g id="edge6_Node000004_Node000007" class="edge">
<title>Node4&#45;&gt;Node7</title>
<g id="a_edge6_Node000004_Node000007"><a xlink:title=" ">
<path fill="none" stroke="#63b8ff" d="M380.34,-56.34C379.11,-49.64 377.45,-40.51 375.93,-32.23"/>
<polygon fill="#63b8ff" stroke="#63b8ff" points="379.41,-31.78 374.17,-22.57 372.52,-33.03 379.41,-31.78"/>
</a>
</g>
</g>
<!-- Node4&#45;&gt;Node8 -->
<g id="edge7_Node000004_Node000008" class="edge">
<title>Node4&#45;&gt;Node8</title>
<g id="a_edge7_Node000004_Node000008"><a xlink:title=" ">
<path fill="none" stroke="#63b8ff" d="M367.47,-56.34C355.45,-48.32 338.21,-36.81 324.19,-27.44"/>
<polygon fill="#63b8ff" stroke="#63b8ff" points="326.18,-24.56 315.92,-21.92 322.29,-30.38 326.18,-24.56"/>
</a>
</g>
</g>
<!-- Node9 -->
<g id="Node000009" class="node">
<title>Node9</title>
<g id="a_Node000009"><a xlink:title=" ">
<polygon fill="#e0e0e0" stroke="#999999" points="472.38,-20.75 421.88,-20.75 421.88,0 472.38,0 472.38,-20.75"/>
<text text-anchor="middle" x="447.12" y="-7.25" font-family="Helvetica,sans-Serif" font-size="10.00">variant</text>
</a>
</g>
</g>
<!-- Node4&#45;&gt;Node9 -->
<g id="edge8_Node000004_Node000009" class="edge">
<title>Node4&#45;&gt;Node9</title>
<g id="a_edge8_Node000004_Node000009"><a xlink:title=" ">
<path fill="none" stroke="#63b8ff" d="M393.75,-56.34C402.99,-48.55 416.14,-37.47 427.07,-28.26"/>
<polygon fill="#63b8ff" stroke="#63b8ff" points="429.05,-31.17 434.45,-22.05 424.54,-25.82 429.05,-31.17"/>
</a>
</g>
</g>
<!-- Node12&#45;&gt;Node4 -->
<g id="edge14_Node000012_Node000004" class="edge">
<title>Node12&#45;&gt;Node4</title>
<g id="a_edge14_Node000012_Node000004"><a xlink:title=" ">
<path fill="none" stroke="#63b8ff" d="M137.75,-113.02C188.12,-103.77 263.59,-89.9 317.31,-80.03"/>
<polygon fill="#63b8ff" stroke="#63b8ff" points="317.74,-83.51 326.94,-78.26 316.48,-76.63 317.74,-83.51"/>
</a>
</g>
</g>
<!-- Node12&#45;&gt;Node5 -->
<g id="edge15_Node000012_Node000005" class="edge">
<title>Node12&#45;&gt;Node5</title>
<g id="a_edge15_Node000012_Node000005"><a xlink:title=" ">
<path fill="none" stroke="#63b8ff" d="M75.39,-113.2C64.26,-99.66 47.87,-74.7 60.12,-56.75 77.86,-30.77 112.9,-19.66 139.85,-14.92"/>
<polygon fill="#63b8ff" stroke="#63b8ff" points="140.33,-18.38 149.7,-13.43 139.29,-11.46 140.33,-18.38"/>
</a>
</g>
</g>
<!-- Node12&#45;&gt;Node8 -->
<g id="edge17_Node000012_Node000008" class="edge">
<title>Node12&#45;&gt;Node8</title>
<g id="a_edge17_Node000012_Node000008"><a xlink:title=" ">
<path fill="none" stroke="#63b8ff" d="M82.36,-113.38C80.31,-99.13 78.83,-72.25 93.12,-56.75 116.21,-31.73 214.11,-19.17 266.59,-14.13"/>
<polygon fill="#63b8ff" stroke="#63b8ff" points="266.82,-17.62 276.46,-13.23 266.18,-10.65 266.82,-17.62"/>
</a>
</g>
</g>
<!-- Node12&#45;&gt;Node10 -->
<g id="edge16_Node000012_Node000010" class="edge">
<title>Node12&#45;&gt;Node10</title>
<g id="a_edge16_Node000012_Node000010"><a xlink:title=" ">
<path fill="none" stroke="#63b8ff" d="M111.66,-113.09C136.22,-104.36 172.42,-91.48 199.81,-81.75"/>
<polygon fill="#63b8ff" stroke="#63b8ff" points="200.9,-85.08 209.15,-78.43 198.55,-78.48 200.9,-85.08"/>
</a>
</g>
</g>
<!-- Node12&#45;&gt;Node11 -->
<g id="edge18_Node000012_Node000011" class="edge">
<title>Node12&#45;&gt;Node11</title>
<g id="a_edge18_Node000012_Node000011"><a xlink:title=" ">
<path fill="none" stroke="#63b8ff" d="M91.45,-113.09C96.88,-105.85 104.43,-95.76 111.01,-86.97"/>
<polygon fill="#63b8ff" stroke="#63b8ff" points="113.76,-89.14 116.95,-79.04 108.16,-84.95 113.76,-89.14"/>
</a>
</g>
</g>
<!-- Node13&#45;&gt;Node4 -->
<g id="edge20_Node000013_Node000004" class="edge">
<title>Node13&#45;&gt;Node4</title>
<g id="a_edge20_Node000013_Node000004"><a xlink:title=" ">
<path fill="none" stroke="#63b8ff" d="M441.25,-113.09C430.91,-105.22 416.16,-94 403.97,-84.74"/>
<polygon fill="#63b8ff" stroke="#63b8ff" points="406.17,-82.01 396.09,-78.74 401.93,-87.58 406.17,-82.01"/>
</a>
</g>
</g>
<!-- Node13&#45;&gt;Node8 -->
<g id="edge23_Node000013_Node000008" class="edge">
<title>Node13&#45;&gt;Node8</title>
<g id="a_edge23_Node000013_Node000008"><a xlink:title=" ">
<path fill="none" stroke="#63b8ff" d="M455.77,-113.06C457.56,-98.9 458.58,-72.68 445.12,-56.75 444.19,-55.64 375.75,-34.53 333.24,-21.5"/>
<polygon fill="#63b8ff" stroke="#63b8ff" points="334.31,-18.17 323.72,-18.58 332.26,-24.86 334.31,-18.17"/>
</a>
</g>
</g>
<!-- Node13&#45;&gt;Node10 -->
<g id="edge21_Node000013_Node000010" class="edge">
<title>Node13&#45;&gt;Node10</title>
<g id="a_edge21_Node000013_Node000010"><a xlink:title=" ">
<path fill="none" stroke="#63b8ff" d="M415.51,-113.09C378.29,-103.65 322,-89.39 282.85,-79.46"/>
<polygon fill="#63b8ff" stroke="#63b8ff" points="283.82,-76.1 273.26,-77.03 282.1,-82.88 283.82,-76.1"/>
</a>
</g>
</g>
<!-- Node14 -->
<g id="Node000014" class="node">
<title>Node14</title>
<g id="a_Node000014"><a xlink:title=" ">
<polygon fill="#e0e0e0" stroke="#999999" points="601.62,-77.5 492.62,-77.5 492.62,-56.75 601.62,-56.75 601.62,-77.5"/>
<text text-anchor="middle" x="547.12" y="-64" font-family="Helvetica,sans-Serif" font-size="10.00">nlohmann/json.hpp</text>
</a>
</g>
</g>
<!-- Node13&#45;&gt;Node14 -->
<g id="edge22_Node000013_Node000014" class="edge">
<title>Node13&#45;&gt;Node14</title>
<g id="a_edge22_Node000013_Node000014"><a xlink:title=" ">
<path fill="none" stroke="#63b8ff" d="M470.75,-113.09C484.64,-104.91 504.69,-93.11 520.76,-83.65"/>
<polygon fill="#63b8ff" stroke="#63b8ff" points="522.5,-86.69 529.34,-78.6 518.94,-80.65 522.5,-86.69"/>
</a>
</g>
</g>
</g>
</svg>
