<?xml version="1.0" encoding="UTF-8" standalone="no"?>
<!DOCTYPE svg PUBLIC "-//W3C//DTD SVG 1.1//EN"
 "http://www.w3.org/Graphics/SVG/1.1/DTD/svg11.dtd">
<!-- Generated by graphviz version 12.2.1 (0)
 -->
<!-- Title: src/lib/Utils/Logger/LoggerFactory.hpp Pages: 1 -->
<svg width="457pt" height="237pt"
 viewBox="0.00 0.00 457.00 237.25" xmlns="http://www.w3.org/2000/svg" xmlns:xlink="http://www.w3.org/1999/xlink">
<g id="graph0" class="graph" transform="scale(1 1) rotate(0) translate(4 233.25)">
<title>src/lib/Utils/Logger/LoggerFactory.hpp</title>
<!-- Node1 -->
<g id="Node000001" class="node">
<title>Node1</title>
<g id="a_Node000001"><a xlink:title=" ">
<polygon fill="#999999" stroke="#666666" points="187.75,-229.25 81,-229.25 81,-195.75 187.75,-195.75 187.75,-229.25"/>
<text text-anchor="start" x="89" y="-215.75" font-family="Helvetica,sans-Serif" font-size="10.00">src/lib/Utils/Logger</text>
<text text-anchor="middle" x="134.38" y="-203" font-family="Helvetica,sans-Serif" font-size="10.00">/LoggerFactory.hpp</text>
</a>
</g>
</g>
<!-- Node2 -->
<g id="Node000002" class="node">
<title>Node2</title>
<g id="a_Node000002"><a xlink:href="LoggerFactory_8cpp.html" target="_top" xlink:title=" ">
<polygon fill="white" stroke="#666666" points="106.75,-159.75 0,-159.75 0,-126.25 106.75,-126.25 106.75,-159.75"/>
<text text-anchor="start" x="8" y="-146.25" font-family="Helvetica,sans-Serif" font-size="10.00">src/lib/Utils/Logger</text>
<text text-anchor="middle" x="53.38" y="-133.5" font-family="Helvetica,sans-Serif" font-size="10.00">/LoggerFactory.cpp</text>
</a>
</g>
</g>
<!-- Node1&#45;&gt;Node2 -->
<g id="edge1_Node000001_Node000002" class="edge">
<title>Node1&#45;&gt;Node2</title>
<g id="a_edge1_Node000001_Node000002"><a xlink:title=" ">
<path fill="none" stroke="#63b8ff" d="M106.61,-188.36C95.45,-179.06 82.85,-168.56 72.71,-160.12"/>
<polygon fill="#63b8ff" stroke="#63b8ff" points="104.09,-190.82 114.02,-194.53 108.57,-185.44 104.09,-190.82"/>
</a>
</g>
</g>
<!-- Node3 -->
<g id="Node000003" class="node">
<title>Node3</title>
<g id="a_Node000003"><a xlink:href="UtilsFactory_8cpp.html" target="_top" xlink:title=" ">
<polygon fill="white" stroke="#666666" points="209.5,-83.88 59.25,-83.88 59.25,-63.12 209.5,-63.12 209.5,-83.88"/>
<text text-anchor="middle" x="134.38" y="-70.38" font-family="Helvetica,sans-Serif" font-size="10.00">src/lib/Utils/UtilsFactory.cpp</text>
</a>
</g>
</g>
<!-- Node1&#45;&gt;Node3 -->
<g id="edge2_Node000001_Node000003" class="edge">
<title>Node1&#45;&gt;Node3</title>
<g id="a_edge2_Node000001_Node000003"><a xlink:title=" ">
<path fill="none" stroke="#63b8ff" d="M134.38,-184.29C134.38,-153.45 134.38,-104.82 134.38,-84.23"/>
<polygon fill="#63b8ff" stroke="#63b8ff" points="130.88,-184 134.38,-194 137.88,-184 130.88,-184"/>
</a>
</g>
</g>
<!-- Node4 -->
<g id="Node000004" class="node">
<title>Node4</title>
<g id="a_Node000004"><a xlink:href="UtilsFactory_8hpp.html" target="_top" xlink:title=" ">
<polygon fill="white" stroke="#666666" points="313.88,-153.38 162.88,-153.38 162.88,-132.62 313.88,-132.62 313.88,-153.38"/>
<text text-anchor="middle" x="238.38" y="-139.88" font-family="Helvetica,sans-Serif" font-size="10.00">src/lib/Utils/UtilsFactory.hpp</text>
</a>
</g>
</g>
<!-- Node1&#45;&gt;Node4 -->
<g id="edge3_Node000001_Node000004" class="edge">
<title>Node1&#45;&gt;Node4</title>
<g id="a_edge3_Node000001_Node000004"><a xlink:title=" ">
<path fill="none" stroke="#63b8ff" d="M168.85,-189.12C187.32,-177.14 209.12,-162.99 223.32,-153.77"/>
<polygon fill="#63b8ff" stroke="#63b8ff" points="167.04,-186.13 160.56,-194.51 170.85,-192 167.04,-186.13"/>
</a>
</g>
</g>
<!-- Node4&#45;&gt;Node3 -->
<g id="edge8_Node000004_Node000003" class="edge">
<title>Node4&#45;&gt;Node3</title>
<g id="a_edge8_Node000004_Node000003"><a xlink:title=" ">
<path fill="none" stroke="#63b8ff" d="M213.84,-126.08C193.92,-113.15 166.46,-95.32 149.59,-84.37"/>
<polygon fill="#63b8ff" stroke="#63b8ff" points="211.91,-129 222.2,-131.5 215.72,-123.12 211.91,-129"/>
</a>
</g>
</g>
<!-- Node5 -->
<g id="Node000005" class="node">
<title>Node5</title>
<g id="a_Node000005"><a xlink:href="NixonCppLib_8hpp.html" target="_top" xlink:title=" ">
<polygon fill="white" stroke="#666666" points="380.88,-90.25 265.88,-90.25 265.88,-56.75 380.88,-56.75 380.88,-90.25"/>
<text text-anchor="start" x="273.88" y="-76.75" font-family="Helvetica,sans-Serif" font-size="10.00">include/NixonCppLib</text>
<text text-anchor="middle" x="323.38" y="-64" font-family="Helvetica,sans-Serif" font-size="10.00">/NixonCppLib.hpp</text>
</a>
</g>
</g>
<!-- Node4&#45;&gt;Node5 -->
<g id="edge4_Node000004_Node000005" class="edge">
<title>Node4&#45;&gt;Node5</title>
<g id="a_edge4_Node000004_Node000005"><a xlink:title=" ">
<path fill="none" stroke="#63b8ff" d="M259.46,-125.26C272.76,-114.69 289.85,-101.12 303.01,-90.67"/>
<polygon fill="#63b8ff" stroke="#63b8ff" points="257.39,-122.43 251.74,-131.39 261.75,-127.91 257.39,-122.43"/>
</a>
</g>
</g>
<!-- Node6 -->
<g id="Node000006" class="node">
<title>Node6</title>
<g id="a_Node000006"><a xlink:href="Application_8cpp.html" target="_top" xlink:title=" ">
<polygon fill="white" stroke="#666666" points="302,-20.75 172.75,-20.75 172.75,0 302,0 302,-20.75"/>
<text text-anchor="middle" x="237.38" y="-7.25" font-family="Helvetica,sans-Serif" font-size="10.00">src/app/Application.cpp</text>
</a>
</g>
</g>
<!-- Node4&#45;&gt;Node6 -->
<g id="edge7_Node000004_Node000006" class="edge">
<title>Node4&#45;&gt;Node6</title>
<g id="a_edge7_Node000004_Node000006"><a xlink:title=" ">
<path fill="none" stroke="#63b8ff" d="M238.21,-121.02C237.99,-92.3 237.61,-41.92 237.45,-20.95"/>
<polygon fill="#63b8ff" stroke="#63b8ff" points="234.71,-120.7 238.29,-130.67 241.71,-120.64 234.71,-120.7"/>
</a>
</g>
</g>
<!-- Node5&#45;&gt;Node6 -->
<g id="edge5_Node000005_Node000006" class="edge">
<title>Node5&#45;&gt;Node6</title>
<g id="a_edge5_Node000005_Node000006"><a xlink:title=" ">
<path fill="none" stroke="#63b8ff" d="M291.51,-49.85C277.63,-39.99 262.08,-28.94 251.22,-21.22"/>
<polygon fill="#63b8ff" stroke="#63b8ff" points="289.37,-52.62 299.55,-55.56 293.42,-46.92 289.37,-52.62"/>
</a>
</g>
</g>
<!-- Node7 -->
<g id="Node000007" class="node">
<title>Node7</title>
<g id="a_Node000007"><a xlink:href="NixonCppLib_8cpp.html" target="_top" xlink:title=" ">
<polygon fill="white" stroke="#666666" points="449,-20.75 319.75,-20.75 319.75,0 449,0 449,-20.75"/>
<text text-anchor="middle" x="384.38" y="-7.25" font-family="Helvetica,sans-Serif" font-size="10.00">src/lib/NixonCppLib.cpp</text>
</a>
</g>
</g>
<!-- Node5&#45;&gt;Node7 -->
<g id="edge6_Node000005_Node000007" class="edge">
<title>Node5&#45;&gt;Node7</title>
<g id="a_edge6_Node000005_Node000007"><a xlink:title=" ">
<path fill="none" stroke="#63b8ff" d="M347.4,-48.42C356.88,-38.93 367.22,-28.56 374.55,-21.22"/>
<polygon fill="#63b8ff" stroke="#63b8ff" points="345.06,-45.82 340.47,-55.37 350.01,-50.76 345.06,-45.82"/>
</a>
</g>
</g>
</g>
</svg>
