<?xml version="1.0" encoding="UTF-8" standalone="no"?>
<!DOCTYPE svg PUBLIC "-//W3C//DTD SVG 1.1//EN"
 "http://www.w3.org/Graphics/SVG/1.1/DTD/svg11.dtd">
<!-- Generated by graphviz version 12.2.1 (0)
 -->
<!-- Title: src/lib/Utils/Logger/LoggerFactory.cpp Pages: 1 -->
<!--zoomable 212 -->

<svg id="main" version="1.1" xmlns="http://www.w3.org/2000/svg" xmlns:xlink="http://www.w3.org/1999/xlink" xml:space="preserve" onload="init(evt)">

<style type="text/css"><![CDATA[
.node, .edge {opacity: 0.7;}
.node.selected, .edge.selected {opacity: 1;}
.edge:hover path { stroke: red; }
.edge:hover polygon { stroke: red; fill: red; }
]]></style>

<defs>
  <circle id="rim" cx="0" cy="0" r="7"/>
  <circle id="rim2" cx="0" cy="0" r="3.5"/>
  <g id="zoomPlus">
    <use xlink:href="#rim" fill="#404040"><set attributeName="fill" to="#808080" begin="zoomplus.mouseover" end="zoomplus.mouseout"/></use>
    <path d="M-4,0h8M0,-4v8" fill="none" stroke="white" stroke-width="1.5" pointer-events="none"/>
  </g>
  <g id="zoomMin">
    <use xlink:href="#rim" fill="#404040"><set attributeName="fill" to="#808080" begin="zoomminus.mouseover" end="zoomminus.mouseout"/></use>
    <path d="M-4,0h8" fill="none" stroke="white" stroke-width="1.5" pointer-events="none"/>
  </g>
  <g id="arrowUp" transform="translate(30 24)">
    <use xlink:href="#rim"/>
    <path pointer-events="none" fill="none" stroke="white" stroke-width="1.5" d="M0,-3.0v7 M-2.5,-0.5L0,-3.0L2.5,-0.5"/>
  </g>
  <g id="arrowRight" transform="rotate(90) translate(36 -43)">
    <use xlink:href="#rim"/>
    <path pointer-events="none" fill="none" stroke="white" stroke-width="1.5" d="M0,-3.0v7 M-2.5,-0.5L0,-3.0L2.5,-0.5"/>
  </g>
  <g id="arrowDown" transform="rotate(180) translate(-30 -48)">
    <use xlink:href="#rim"/>
    <path pointer-events="none" fill="none" stroke="white" stroke-width="1.5" d="M0,-3.0v7 M-2.5,-0.5L0,-3.0L2.5,-0.5"/>
  </g>
  <g id="arrowLeft" transform="rotate(270) translate(-36 17)">
    <use xlink:href="#rim"/>
    <path pointer-events="none" fill="none" stroke="white" stroke-width="1.5" d="M0,-3.0v7 M-2.5,-0.5L0,-3.0L2.5,-0.5"/>
  </g>
  <g id="resetDef">
    <use xlink:href="#rim2" fill="#404040"><set attributeName="fill" to="#808080" begin="reset.mouseover" end="reset.mouseout"/></use>
  </g>
</defs>
<script type="application/ecmascript">
var viewWidth = 886;
var viewHeight = 212;
var sectionId = 'dynsection-0';
</script>
<script type="application/ecmascript" xlink:href="svg.min.js"/>
<svg id="graph" class="graph">
<g id="viewport">
<title>src/lib/Utils/Logger/LoggerFactory.cpp</title>
<!-- Node1 -->
<g id="Node000001" class="node">
<title>Node1</title>
<g id="a_Node000001"><a xlink:title=" ">
<polygon fill="#999999" stroke="#666666" points="219.25,-203.75 112.5,-203.75 112.5,-170.25 219.25,-170.25 219.25,-203.75"/>
<text text-anchor="start" x="120.5" y="-190.25" font-family="Helvetica,sans-Serif" font-size="10.00">src/lib/Utils/Logger</text>
<text text-anchor="middle" x="165.88" y="-177.5" font-family="Helvetica,sans-Serif" font-size="10.00">/LoggerFactory.cpp</text>
</a>
</g>
</g>
<!-- Node2 -->
<g id="Node000002" class="node">
<title>Node2</title>
<g id="a_Node000002"><a xlink:href="LoggerFactory_8hpp.html" target="_top" xlink:title=" ">
<polygon fill="white" stroke="#666666" points="103.75,-134.25 0,-134.25 0,-113.5 103.75,-113.5 103.75,-134.25"/>
<text text-anchor="middle" x="51.88" y="-120.75" font-family="Helvetica,sans-Serif" font-size="10.00">LoggerFactory.hpp</text>
</a>
</g>
</g>
<!-- Node1&#45;&gt;Node2 -->
<g id="edge1_Node000001_Node000002" class="edge">
<title>Node1&#45;&gt;Node2</title>
<g id="a_edge1_Node000001_Node000002"><a xlink:title=" ">
<path fill="none" stroke="#63b8ff" d="M135.62,-169.78C118.36,-160.52 96.87,-149 79.98,-139.94"/>
<polygon fill="#63b8ff" stroke="#63b8ff" points="81.93,-137.02 71.47,-135.38 78.63,-143.19 81.93,-137.02"/>
</a>
</g>
</g>
<!-- Node9 -->
<g id="Node000009" class="node">
<title>Node9</title>
<g id="a_Node000009"><a xlink:href="ConsoleLogger_8hpp.html" target="_top" xlink:title=" ">
<polygon fill="white" stroke="#666666" points="536,-134.25 427.75,-134.25 427.75,-113.5 536,-113.5 536,-134.25"/>
<text text-anchor="middle" x="481.88" y="-120.75" font-family="Helvetica,sans-Serif" font-size="10.00">ConsoleLogger.hpp</text>
</a>
</g>
</g>
<!-- Node1&#45;&gt;Node9 -->
<g id="edge10_Node000001_Node000009" class="edge">
<title>Node1&#45;&gt;Node9</title>
<g id="a_edge10_Node000001_Node000009"><a xlink:title=" ">
<path fill="none" stroke="#63b8ff" d="M219.48,-175.63C274.86,-164.92 361.23,-148.21 419.6,-136.92"/>
<polygon fill="#63b8ff" stroke="#63b8ff" points="420.25,-140.36 429.4,-135.02 418.92,-133.49 420.25,-140.36"/>
</a>
</g>
</g>
<!-- Node18 -->
<g id="Node000018" class="node">
<title>Node18</title>
<g id="a_Node000018"><a xlink:href="NullLogger_8hpp.html" target="_top" xlink:title=" ">
<polygon fill="white" stroke="#666666" points="210.25,-134.25 121.5,-134.25 121.5,-113.5 210.25,-113.5 210.25,-134.25"/>
<text text-anchor="middle" x="165.88" y="-120.75" font-family="Helvetica,sans-Serif" font-size="10.00">NullLogger.hpp</text>
</a>
</g>
</g>
<!-- Node1&#45;&gt;Node18 -->
<g id="edge23_Node000001_Node000018" class="edge">
<title>Node1&#45;&gt;Node18</title>
<g id="a_edge23_Node000001_Node000018"><a xlink:title=" ">
<path fill="none" stroke="#63b8ff" d="M165.88,-169.94C165.88,-162.6 165.88,-153.82 165.88,-145.96"/>
<polygon fill="#63b8ff" stroke="#63b8ff" points="169.38,-146.23 165.88,-136.23 162.38,-146.23 169.38,-146.23"/>
</a>
</g>
</g>
<!-- Node3 -->
<g id="Node000003" class="node">
<title>Node3</title>
<g id="a_Node000003"><a xlink:href="ILogger_8hpp.html" target="_top" xlink:title=" ">
<polygon fill="white" stroke="#666666" points="213.75,-77.5 80,-77.5 80,-56.75 213.75,-56.75 213.75,-77.5"/>
<text text-anchor="middle" x="146.88" y="-64" font-family="Helvetica,sans-Serif" font-size="10.00">Utils/Logger/ILogger.hpp</text>
</a>
</g>
</g>
<!-- Node2&#45;&gt;Node3 -->
<g id="edge2_Node000002_Node000003" class="edge">
<title>Node2&#45;&gt;Node3</title>
<g id="a_edge2_Node000002_Node000003"><a xlink:title=" ">
<path fill="none" stroke="#63b8ff" d="M68.86,-113.09C83.18,-104.83 103.92,-92.88 120.41,-83.38"/>
<polygon fill="#63b8ff" stroke="#63b8ff" points="121.81,-86.61 128.73,-78.58 118.31,-80.55 121.81,-86.61"/>
</a>
</g>
</g>
<!-- Node6 -->
<g id="Node000006" class="node">
<title>Node6</title>
<g id="a_Node000006"><a xlink:title=" ">
<polygon fill="#e0e0e0" stroke="#999999" points="73.5,-20.75 16.25,-20.75 16.25,0 73.5,0 73.5,-20.75"/>
<text text-anchor="middle" x="44.88" y="-7.25" font-family="Helvetica,sans-Serif" font-size="10.00">memory</text>
</a>
</g>
</g>
<!-- Node2&#45;&gt;Node6 -->
<g id="edge8_Node000002_Node000006" class="edge">
<title>Node2&#45;&gt;Node6</title>
<g id="a_edge8_Node000002_Node000006"><a xlink:title=" ">
<path fill="none" stroke="#63b8ff" d="M48.01,-113.33C44.57,-104.28 39.79,-90.22 37.88,-77.5 35.58,-62.28 37.58,-44.97 40.02,-31.88"/>
<polygon fill="#63b8ff" stroke="#63b8ff" points="43.39,-32.82 42.05,-22.31 36.55,-31.36 43.39,-32.82"/>
</a>
</g>
</g>
<!-- Node8 -->
<g id="Node000008" class="node">
<title>Node8</title>
<g id="a_Node000008"><a xlink:title=" ">
<polygon fill="#e0e0e0" stroke="#999999" points="216.75,-20.75 173,-20.75 173,0 216.75,0 216.75,-20.75"/>
<text text-anchor="middle" x="194.88" y="-7.25" font-family="Helvetica,sans-Serif" font-size="10.00">string</text>
</a>
</g>
</g>
<!-- Node2&#45;&gt;Node8 -->
<g id="edge9_Node000002_Node000008" class="edge">
<title>Node2&#45;&gt;Node8</title>
<g id="a_edge9_Node000002_Node000008"><a xlink:title=" ">
<path fill="none" stroke="#63b8ff" d="M52.03,-113.01C52.78,-98.78 56.22,-72.48 70.88,-56.75 77.36,-49.79 127.59,-32.77 162.1,-21.67"/>
<polygon fill="#63b8ff" stroke="#63b8ff" points="162.77,-25.13 171.23,-18.75 160.64,-18.46 162.77,-25.13"/>
</a>
</g>
</g>
<!-- Node4 -->
<g id="Node000004" class="node">
<title>Node4</title>
<g id="a_Node000004"><a xlink:title=" ">
<polygon fill="#e0e0e0" stroke="#999999" points="408,-20.75 341.75,-20.75 341.75,0 408,0 408,-20.75"/>
<text text-anchor="middle" x="374.88" y="-7.25" font-family="Helvetica,sans-Serif" font-size="10.00">fmt/core.h</text>
</a>
</g>
</g>
<!-- Node3&#45;&gt;Node4 -->
<g id="edge3_Node000003_Node000004" class="edge">
<title>Node3&#45;&gt;Node4</title>
<g id="a_edge3_Node000003_Node000004"><a xlink:title=" ">
<path fill="none" stroke="#63b8ff" d="M187.9,-56.27C228.1,-46.62 289.17,-31.95 330.49,-22.03"/>
<polygon fill="#63b8ff" stroke="#63b8ff" points="331.21,-25.46 340.11,-19.72 329.57,-18.65 331.21,-25.46"/>
</a>
</g>
</g>
<!-- Node5 -->
<g id="Node000005" class="node">
<title>Node5</title>
<g id="a_Node000005"><a xlink:title=" ">
<polygon fill="#e0e0e0" stroke="#999999" points="155.38,-20.75 106.38,-20.75 106.38,0 155.38,0 155.38,-20.75"/>
<text text-anchor="middle" x="130.88" y="-7.25" font-family="Helvetica,sans-Serif" font-size="10.00">cstdint</text>
</a>
</g>
</g>
<!-- Node3&#45;&gt;Node5 -->
<g id="edge4_Node000003_Node000005" class="edge">
<title>Node3&#45;&gt;Node5</title>
<g id="a_edge4_Node000003_Node000005"><a xlink:title=" ">
<path fill="none" stroke="#63b8ff" d="M144.01,-56.34C142.04,-49.56 139.33,-40.3 136.88,-31.94"/>
<polygon fill="#63b8ff" stroke="#63b8ff" points="140.3,-31.15 134.14,-22.53 133.58,-33.11 140.3,-31.15"/>
</a>
</g>
</g>
<!-- Node3&#45;&gt;Node6 -->
<g id="edge5_Node000003_Node000006" class="edge">
<title>Node3&#45;&gt;Node6</title>
<g id="a_edge5_Node000003_Node000006"><a xlink:title=" ">
<path fill="none" stroke="#63b8ff" d="M128.64,-56.34C113.19,-48.05 90.79,-36.02 73.04,-26.49"/>
<polygon fill="#63b8ff" stroke="#63b8ff" points="74.75,-23.44 64.29,-21.79 71.44,-29.61 74.75,-23.44"/>
</a>
</g>
</g>
<!-- Node7 -->
<g id="Node000007" class="node">
<title>Node7</title>
<g id="a_Node000007"><a xlink:title=" ">
<polygon fill="#e0e0e0" stroke="#999999" points="621.75,-20.75 566,-20.75 566,0 621.75,0 621.75,-20.75"/>
<text text-anchor="middle" x="593.88" y="-7.25" font-family="Helvetica,sans-Serif" font-size="10.00">sstream</text>
</a>
</g>
</g>
<!-- Node3&#45;&gt;Node7 -->
<g id="edge6_Node000003_Node000007" class="edge">
<title>Node3&#45;&gt;Node7</title>
<g id="a_edge6_Node000003_Node000007"><a xlink:title=" ">
<path fill="none" stroke="#63b8ff" d="M213.8,-57.93C308.43,-46.34 478.32,-25.53 554.75,-16.17"/>
<polygon fill="#63b8ff" stroke="#63b8ff" points="554.75,-19.69 564.25,-15 553.9,-12.74 554.75,-19.69"/>
</a>
</g>
</g>
<!-- Node3&#45;&gt;Node8 -->
<g id="edge7_Node000003_Node000008" class="edge">
<title>Node3&#45;&gt;Node8</title>
<g id="a_edge7_Node000003_Node000008"><a xlink:title=" ">
<path fill="none" stroke="#63b8ff" d="M155.46,-56.34C161.94,-48.94 171.03,-38.57 178.85,-29.66"/>
<polygon fill="#63b8ff" stroke="#63b8ff" points="181.41,-32.04 185.37,-22.22 176.15,-27.43 181.41,-32.04"/>
</a>
</g>
</g>
<!-- Node9&#45;&gt;Node3 -->
<g id="edge11_Node000009_Node000003" class="edge">
<title>Node9&#45;&gt;Node3</title>
<g id="a_edge11_Node000009_Node000003"><a xlink:title=" ">
<path fill="none" stroke="#63b8ff" d="M427.31,-113.96C370.41,-104.66 280.96,-90.04 218.43,-79.82"/>
<polygon fill="#63b8ff" stroke="#63b8ff" points="219.01,-76.37 208.58,-78.21 217.88,-83.28 219.01,-76.37"/>
</a>
</g>
</g>
<!-- Node9&#45;&gt;Node4 -->
<g id="edge21_Node000009_Node000004" class="edge">
<title>Node9&#45;&gt;Node4</title>
<g id="a_edge21_Node000009_Node000004"><a xlink:title=" ">
<path fill="none" stroke="#63b8ff" d="M481.45,-113.25C480.37,-99.31 476.52,-73.37 462.88,-56.75 451.34,-42.69 434.3,-32.5 418.28,-25.38"/>
<polygon fill="#63b8ff" stroke="#63b8ff" points="419.95,-22.29 409.37,-21.72 417.29,-28.76 419.95,-22.29"/>
</a>
</g>
</g>
<!-- Node9&#45;&gt;Node7 -->
<g id="edge18_Node000009_Node000007" class="edge">
<title>Node9&#45;&gt;Node7</title>
<g id="a_edge18_Node000009_Node000007"><a xlink:title=" ">
<path fill="none" stroke="#63b8ff" d="M536.37,-120.05C598,-115.57 692.7,-104.41 714.88,-77.5 740.99,-45.8 677.76,-26.89 633.2,-17.87"/>
<polygon fill="#63b8ff" stroke="#63b8ff" points="634.03,-14.46 623.55,-16.02 632.71,-21.34 634.03,-14.46"/>
</a>
</g>
</g>
<!-- Node9&#45;&gt;Node8 -->
<g id="edge19_Node000009_Node000008" class="edge">
<title>Node9&#45;&gt;Node8</title>
<g id="a_edge19_Node000009_Node000008"><a xlink:title=" ">
<path fill="none" stroke="#63b8ff" d="M427.57,-120.44C380.92,-116.38 313.11,-105.66 260.88,-77.5 239.56,-66.01 220.66,-45.43 208.61,-30.27"/>
<polygon fill="#63b8ff" stroke="#63b8ff" points="211.48,-28.28 202.64,-22.45 205.92,-32.52 211.48,-28.28"/>
</a>
</g>
</g>
<!-- Node10 -->
<g id="Node000010" class="node">
<title>Node10</title>
<g id="a_Node000010"><a xlink:title=" ">
<polygon fill="#e0e0e0" stroke="#999999" points="559.38,-77.5 510.38,-77.5 510.38,-56.75 559.38,-56.75 559.38,-77.5"/>
<text text-anchor="middle" x="534.88" y="-64" font-family="Helvetica,sans-Serif" font-size="10.00">chrono</text>
</a>
</g>
</g>
<!-- Node9&#45;&gt;Node10 -->
<g id="edge12_Node000009_Node000010" class="edge">
<title>Node9&#45;&gt;Node10</title>
<g id="a_edge12_Node000009_Node000010"><a xlink:title=" ">
<path fill="none" stroke="#63b8ff" d="M491.35,-113.09C498.66,-105.53 508.97,-94.89 517.72,-85.85"/>
<polygon fill="#63b8ff" stroke="#63b8ff" points="519.99,-88.54 524.43,-78.92 514.96,-83.67 519.99,-88.54"/>
</a>
</g>
</g>
<!-- Node11 -->
<g id="Node000011" class="node">
<title>Node11</title>
<g id="a_Node000011"><a xlink:title=" ">
<polygon fill="#e0e0e0" stroke="#999999" points="632,-77.5 577.75,-77.5 577.75,-56.75 632,-56.75 632,-77.5"/>
<text text-anchor="middle" x="604.88" y="-64" font-family="Helvetica,sans-Serif" font-size="10.00">fstream</text>
</a>
</g>
</g>
<!-- Node9&#45;&gt;Node11 -->
<g id="edge13_Node000009_Node000011" class="edge">
<title>Node9&#45;&gt;Node11</title>
<g id="a_edge13_Node000009_Node000011"><a xlink:title=" ">
<path fill="none" stroke="#63b8ff" d="M503.86,-113.09C523.02,-104.56 551.04,-92.09 572.71,-82.44"/>
<polygon fill="#63b8ff" stroke="#63b8ff" points="573.98,-85.71 581.69,-78.44 571.13,-79.31 573.98,-85.71"/>
</a>
</g>
</g>
<!-- Node12 -->
<g id="Node000012" class="node">
<title>Node12</title>
<g id="a_Node000012"><a xlink:title=" ">
<polygon fill="#e0e0e0" stroke="#999999" points="705.75,-77.5 650,-77.5 650,-56.75 705.75,-56.75 705.75,-77.5"/>
<text text-anchor="middle" x="677.88" y="-64" font-family="Helvetica,sans-Serif" font-size="10.00">iomanip</text>
</a>
</g>
</g>
<!-- Node9&#45;&gt;Node12 -->
<g id="edge14_Node000009_Node000012" class="edge">
<title>Node9&#45;&gt;Node12</title>
<g id="a_edge14_Node000009_Node000012"><a xlink:title=" ">
<path fill="none" stroke="#63b8ff" d="M516.92,-113.09C551.19,-103.51 603.29,-88.96 638.87,-79.02"/>
<polygon fill="#63b8ff" stroke="#63b8ff" points="639.65,-82.44 648.34,-76.38 637.77,-75.69 639.65,-82.44"/>
</a>
</g>
</g>
<!-- Node13 -->
<g id="Node000013" class="node">
<title>Node13</title>
<g id="a_Node000013"><a xlink:title=" ">
<polygon fill="#e0e0e0" stroke="#999999" points="821.62,-77.5 762.12,-77.5 762.12,-56.75 821.62,-56.75 821.62,-77.5"/>
<text text-anchor="middle" x="791.88" y="-64" font-family="Helvetica,sans-Serif" font-size="10.00">iostream</text>
</a>
</g>
</g>
<!-- Node9&#45;&gt;Node13 -->
<g id="edge15_Node000009_Node000013" class="edge">
<title>Node9&#45;&gt;Node13</title>
<g id="a_edge15_Node000009_Node000013"><a xlink:title=" ">
<path fill="none" stroke="#63b8ff" d="M536.25,-114.27C590.09,-105.59 674.83,-91.5 747.88,-77.5 748.88,-77.31 749.9,-77.11 750.93,-76.91"/>
<polygon fill="#63b8ff" stroke="#63b8ff" points="751.5,-80.36 760.6,-74.95 750.11,-73.5 751.5,-80.36"/>
</a>
</g>
</g>
<!-- Node14 -->
<g id="Node000014" class="node">
<title>Node14</title>
<g id="a_Node000014"><a xlink:title=" ">
<polygon fill="#e0e0e0" stroke="#999999" points="877.75,-77.5 840,-77.5 840,-56.75 877.75,-56.75 877.75,-77.5"/>
<text text-anchor="middle" x="858.88" y="-64" font-family="Helvetica,sans-Serif" font-size="10.00">map</text>
</a>
</g>
</g>
<!-- Node9&#45;&gt;Node14 -->
<g id="edge16_Node000009_Node000014" class="edge">
<title>Node9&#45;&gt;Node14</title>
<g id="a_edge16_Node000009_Node000014"><a xlink:title=" ">
<path fill="none" stroke="#63b8ff" d="M536.26,-119.09C603.11,-113.71 720.07,-101.95 828.59,-77.63"/>
<polygon fill="#63b8ff" stroke="#63b8ff" points="829.29,-81.06 838.26,-75.42 827.73,-74.23 829.29,-81.06"/>
</a>
</g>
</g>
<!-- Node15 -->
<g id="Node000015" class="node">
<title>Node15</title>
<g id="a_Node000015"><a xlink:title=" ">
<polygon fill="#e0e0e0" stroke="#999999" points="317.62,-77.5 270.12,-77.5 270.12,-56.75 317.62,-56.75 317.62,-77.5"/>
<text text-anchor="middle" x="293.88" y="-64" font-family="Helvetica,sans-Serif" font-size="10.00">mutex</text>
</a>
</g>
</g>
<!-- Node9&#45;&gt;Node15 -->
<g id="edge17_Node000009_Node000015" class="edge">
<title>Node9&#45;&gt;Node15</title>
<g id="a_edge17_Node000009_Node000015"><a xlink:title=" ">
<path fill="none" stroke="#63b8ff" d="M448.26,-113.09C414.58,-103.28 362.95,-88.24 328.8,-78.3"/>
<polygon fill="#63b8ff" stroke="#63b8ff" points="329.98,-74.99 319.4,-75.56 328.02,-81.71 329.98,-74.99"/>
</a>
</g>
</g>
<!-- Node16 -->
<g id="Node000016" class="node">
<title>Node16</title>
<g id="a_Node000016"><a xlink:title=" ">
<polygon fill="#e0e0e0" stroke="#999999" points="380.12,-77.5 335.62,-77.5 335.62,-56.75 380.12,-56.75 380.12,-77.5"/>
<text text-anchor="middle" x="357.88" y="-64" font-family="Helvetica,sans-Serif" font-size="10.00">utility</text>
</a>
</g>
</g>
<!-- Node9&#45;&gt;Node16 -->
<g id="edge20_Node000009_Node000016" class="edge">
<title>Node9&#45;&gt;Node16</title>
<g id="a_edge20_Node000009_Node000016"><a xlink:title=" ">
<path fill="none" stroke="#63b8ff" d="M459.71,-113.09C440.4,-104.56 412.15,-92.09 390.3,-82.44"/>
<polygon fill="#63b8ff" stroke="#63b8ff" points="391.8,-79.28 381.24,-78.44 388.97,-85.68 391.8,-79.28"/>
</a>
</g>
</g>
<!-- Node17 -->
<g id="Node000017" class="node">
<title>Node17</title>
<g id="a_Node000017"><a xlink:title=" ">
<polygon fill="#e0e0e0" stroke="#999999" points="453.38,-77.5 398.38,-77.5 398.38,-56.75 453.38,-56.75 453.38,-77.5"/>
<text text-anchor="middle" x="425.88" y="-64" font-family="Helvetica,sans-Serif" font-size="10.00">unistd.h</text>
</a>
</g>
</g>
<!-- Node9&#45;&gt;Node17 -->
<g id="edge22_Node000009_Node000017" class="edge">
<title>Node9&#45;&gt;Node17</title>
<g id="a_edge22_Node000009_Node000017"><a xlink:title=" ">
<path fill="none" stroke="#63b8ff" d="M471.86,-113.09C464.14,-105.53 453.25,-94.89 444,-85.85"/>
<polygon fill="#63b8ff" stroke="#63b8ff" points="446.48,-83.37 436.88,-78.89 441.59,-88.38 446.48,-83.37"/>
</a>
</g>
</g>
<!-- Node18&#45;&gt;Node3 -->
<g id="edge24_Node000018_Node000003" class="edge">
<title>Node18&#45;&gt;Node3</title>
<g id="a_edge24_Node000018_Node000003"><a xlink:title=" ">
<path fill="none" stroke="#63b8ff" d="M162.48,-113.09C160.13,-106.31 156.91,-97.05 154.01,-88.69"/>
<polygon fill="#63b8ff" stroke="#63b8ff" points="157.32,-87.56 150.74,-79.26 150.71,-89.85 157.32,-87.56"/>
</a>
</g>
</g>
</g>
</svg>

<g id="navigator" transform="translate(0 0)" fill="#404254">
  <rect fill="#f2f5e9" fill-opacity="0.5" stroke="#606060" stroke-width=".5" x="0" y="0" width="60" height="60"/>
  <use id="zoomplus" xlink:href="#zoomPlus" x="17" y="9" onmousedown="handleZoom(evt,'in')"/>
  <use id="zoomminus" xlink:href="#zoomMin" x="42" y="9" onmousedown="handleZoom(evt,'out')"/>
  <use id="reset" xlink:href="#resetDef" x="30" y="36" onmousedown="handleReset()"/>
   <use id="arrowup" xlink:href="#arrowUp" x="0" y="0" onmousedown="handlePan(0,-1)"/>
  <use id="arrowright" xlink:href="#arrowRight" x="0" y="0" onmousedown="handlePan(1,0)"/>
  <use id="arrowdown" xlink:href="#arrowDown" x="0" y="0" onmousedown="handlePan(0,1)"/>
  <use id="arrowleft" xlink:href="#arrowLeft" x="0" y="0" onmousedown="handlePan(-1,0)"/>
</g>
<svg viewBox="0 0 15 15" width="100%" height="30px" preserveAspectRatio="xMaxYMin meet">
 <g id="arrow_out" transform="scale(0.3 0.3)">
  <a xlink:href="LoggerFactory_8cpp__incl_org.svg" target="_base">
   <rect id="button" ry="5" rx="5" y="6" x="6" height="38" width="38"
        fill="#f2f5e9" fill-opacity="0.5" stroke="#606060" stroke-width="1.0"/>
   <path id="arrow"
     d="M 11.500037,31.436501 C 11.940474,20.09759 22.043105,11.32322 32.158766,21.979434 L 37.068811,17.246167 C 37.068811,17.246167 37.088388,32 37.088388,32 L 22.160133,31.978069 C 22.160133,31.978069 26.997745,27.140456 26.997745,27.140456 C 18.528582,18.264221 13.291696,25.230495 11.500037,31.436501 z"
     style="fill:#404040;"/>
  </a>
 </g>
</svg>

<style type='text/css'>
<![CDATA[
[data-mouse-over-selected='false'] { opacity: 0.7; }
[data-mouse-over-selected='true']  { opacity: 1.0; }
]]>
</style>
<script type="application/ecmascript"><![CDATA[
document.addEventListener('DOMContentLoaded', (event) => {
  highlightEdges();
  highlightAdjacentNodes();
});
]]></script>
</svg>
