<?xml version="1.0" encoding="UTF-8" standalone="no"?>
<!DOCTYPE svg PUBLIC "-//W3C//DTD SVG 1.1//EN"
 "http://www.w3.org/Graphics/SVG/1.1/DTD/svg11.dtd">
<!-- Generated by graphviz version 12.2.1 (0)
 -->
<!-- Title: tests/MockAssetManager.hpp Pages: 1 -->
<svg width="229pt" height="142pt"
 viewBox="0.00 0.00 228.50 142.25" xmlns="http://www.w3.org/2000/svg" xmlns:xlink="http://www.w3.org/1999/xlink">
<g id="graph0" class="graph" transform="scale(1 1) rotate(0) translate(4 138.25)">
<title>tests/MockAssetManager.hpp</title>
<!-- Node1 -->
<g id="Node000001" class="node">
<title>Node1</title>
<g id="a_Node000001"><a xlink:title=" ">
<polygon fill="#999999" stroke="#666666" points="220.5,-134.25 61.25,-134.25 61.25,-113.5 220.5,-113.5 220.5,-134.25"/>
<text text-anchor="middle" x="140.88" y="-120.75" font-family="Helvetica,sans-Serif" font-size="10.00">tests/MockAssetManager.hpp</text>
</a>
</g>
</g>
<!-- Node2 -->
<g id="Node000002" class="node">
<title>Node2</title>
<g id="a_Node000002"><a xlink:href="IAssetManager_8hpp.html" target="_top" xlink:title=" ">
<polygon fill="white" stroke="#666666" points="169.75,-77.5 0,-77.5 0,-56.75 169.75,-56.75 169.75,-77.5"/>
<text text-anchor="middle" x="84.88" y="-64" font-family="Helvetica,sans-Serif" font-size="10.00">Utils/Assets/IAssetManager.hpp</text>
</a>
</g>
</g>
<!-- Node1&#45;&gt;Node2 -->
<g id="edge1_Node000001_Node000002" class="edge">
<title>Node1&#45;&gt;Node2</title>
<g id="a_edge1_Node000001_Node000002"><a xlink:title=" ">
<path fill="none" stroke="#63b8ff" d="M130.86,-113.09C123.14,-105.53 112.25,-94.89 103,-85.85"/>
<polygon fill="#63b8ff" stroke="#63b8ff" points="105.48,-83.37 95.88,-78.89 100.59,-88.38 105.48,-83.37"/>
</a>
</g>
</g>
<!-- Node3 -->
<g id="Node000003" class="node">
<title>Node3</title>
<g id="a_Node000003"><a xlink:title=" ">
<polygon fill="#e0e0e0" stroke="#999999" points="174.38,-20.75 107.38,-20.75 107.38,0 174.38,0 174.38,-20.75"/>
<text text-anchor="middle" x="140.88" y="-7.25" font-family="Helvetica,sans-Serif" font-size="10.00">filesystem</text>
</a>
</g>
</g>
<!-- Node1&#45;&gt;Node3 -->
<g id="edge3_Node000001_Node000003" class="edge">
<title>Node1&#45;&gt;Node3</title>
<g id="a_edge3_Node000001_Node000003"><a xlink:title=" ">
<path fill="none" stroke="#63b8ff" d="M152.68,-113.09C161.79,-104.73 173.68,-91.79 178.88,-77.5 185.2,-60.11 173.29,-42 161.18,-29.14"/>
<polygon fill="#63b8ff" stroke="#63b8ff" points="163.66,-26.68 154.06,-22.2 158.78,-31.69 163.66,-26.68"/>
</a>
</g>
</g>
<!-- Node2&#45;&gt;Node3 -->
<g id="edge2_Node000002_Node000003" class="edge">
<title>Node2&#45;&gt;Node3</title>
<g id="a_edge2_Node000002_Node000003"><a xlink:title=" ">
<path fill="none" stroke="#63b8ff" d="M94.89,-56.34C102.61,-48.78 113.5,-38.14 122.75,-29.1"/>
<polygon fill="#63b8ff" stroke="#63b8ff" points="125.16,-31.63 129.87,-22.14 120.27,-26.62 125.16,-31.63"/>
</a>
</g>
</g>
</g>
</svg>
