<?xml version="1.0" encoding="UTF-8" standalone="no"?>
<!DOCTYPE svg PUBLIC "-//W3C//DTD SVG 1.1//EN"
 "http://www.w3.org/Graphics/SVG/1.1/DTD/svg11.dtd">
<!-- Generated by graphviz version 12.2.1 (0)
 -->
<!-- Title: include/NixonCppLib/NixonCppLib.hpp Pages: 1 -->
<svg width="1901pt" height="281pt"
 viewBox="0.00 0.00 1900.59 281.25" xmlns="http://www.w3.org/2000/svg" xmlns:xlink="http://www.w3.org/1999/xlink">
<g id="graph0" class="graph" transform="scale(1 1) rotate(0) translate(4 277.25)">
<title>include/NixonCppLib/NixonCppLib.hpp</title>
<!-- Node1 -->
<g id="Node000001" class="node">
<title>Node1</title>
<g id="a_Node000001"><a xlink:title=" ">
<polygon fill="#999999" stroke="#666666" points="1617.62,-273.25 1502.62,-273.25 1502.62,-239.75 1617.62,-239.75 1617.62,-273.25"/>
<text text-anchor="start" x="1510.62" y="-259.75" font-family="Helvetica,sans-Serif" font-size="10.00">include/NixonCppLib</text>
<text text-anchor="middle" x="1560.12" y="-247" font-family="Helvetica,sans-Serif" font-size="10.00">/NixonCppLib.hpp</text>
</a>
</g>
</g>
<!-- Node2 -->
<g id="Node000002" class="node">
<title>Node2</title>
<g id="a_Node000002"><a xlink:href="UtilsFactory_8hpp.html" target="_top" xlink:title=" ">
<polygon fill="white" stroke="#666666" points="1255.5,-203.75 1136.75,-203.75 1136.75,-183 1255.5,-183 1255.5,-203.75"/>
<text text-anchor="middle" x="1196.12" y="-190.25" font-family="Helvetica,sans-Serif" font-size="10.00">Utils/UtilsFactory.hpp</text>
</a>
</g>
</g>
<!-- Node1&#45;&gt;Node2 -->
<g id="edge1_Node000001_Node000002" class="edge">
<title>Node1&#45;&gt;Node2</title>
<g id="a_edge1_Node000001_Node000002"><a xlink:title=" ">
<path fill="none" stroke="#63b8ff" d="M1502.45,-245.81C1438.26,-235.04 1334.57,-217.62 1265.87,-206.09"/>
<polygon fill="#63b8ff" stroke="#63b8ff" points="1266.67,-202.67 1256.23,-204.47 1265.51,-209.58 1266.67,-202.67"/>
</a>
</g>
</g>
<!-- Node21 -->
<g id="Node000021" class="node">
<title>Node21</title>
<g id="a_Node000021"><a xlink:title=" ">
<polygon fill="#e0e0e0" stroke="#999999" points="1867.75,-20.75 1810.5,-20.75 1810.5,0 1867.75,0 1867.75,-20.75"/>
<text text-anchor="middle" x="1839.12" y="-7.25" font-family="Helvetica,sans-Serif" font-size="10.00">memory</text>
</a>
</g>
</g>
<!-- Node1&#45;&gt;Node21 -->
<g id="edge61_Node000001_Node000021" class="edge">
<title>Node1&#45;&gt;Node21</title>
<g id="a_edge61_Node000001_Node000021"><a xlink:title=" ">
<path fill="none" stroke="#63b8ff" d="M1617.93,-255.48C1694.48,-251.95 1827.01,-232.9 1889.12,-147 1896.1,-137.35 1890.6,-68.64 1885.12,-56.75 1880.04,-45.71 1871.02,-35.88 1862.31,-28.23"/>
<polygon fill="#63b8ff" stroke="#63b8ff" points="1864.65,-25.62 1854.69,-22.02 1860.23,-31.05 1864.65,-25.62"/>
</a>
</g>
</g>
<!-- Node3 -->
<g id="Node000003" class="node">
<title>Node3</title>
<g id="a_Node000003"><a xlink:href="IAssetManager_8hpp.html" target="_top" xlink:title=" ">
<polygon fill="white" stroke="#666666" points="547,-140.62 377.25,-140.62 377.25,-119.88 547,-119.88 547,-140.62"/>
<text text-anchor="middle" x="462.12" y="-127.12" font-family="Helvetica,sans-Serif" font-size="10.00">Utils/Assets/IAssetManager.hpp</text>
</a>
</g>
</g>
<!-- Node2&#45;&gt;Node3 -->
<g id="edge2_Node000002_Node000003" class="edge">
<title>Node2&#45;&gt;Node3</title>
<g id="a_edge2_Node000002_Node000003"><a xlink:title=" ">
<path fill="none" stroke="#63b8ff" d="M1136.43,-189.83C1023.72,-184.65 771.94,-171.26 561.12,-147 550.97,-145.83 540.26,-144.37 529.78,-142.81"/>
<polygon fill="#63b8ff" stroke="#63b8ff" points="530.46,-139.37 520.05,-141.32 529.4,-146.29 530.46,-139.37"/>
</a>
</g>
</g>
<!-- Node4 -->
<g id="Node000004" class="node">
<title>Node4</title>
<g id="a_Node000004"><a xlink:title=" ">
<polygon fill="#e0e0e0" stroke="#999999" points="704.62,-77.5 637.62,-77.5 637.62,-56.75 704.62,-56.75 704.62,-77.5"/>
<text text-anchor="middle" x="671.12" y="-64" font-family="Helvetica,sans-Serif" font-size="10.00">filesystem</text>
</a>
</g>
</g>
<!-- Node2&#45;&gt;Node4 -->
<g id="edge59_Node000002_Node000004" class="edge">
<title>Node2&#45;&gt;Node4</title>
<g id="a_edge59_Node000002_Node000004"><a xlink:title=" ">
<path fill="none" stroke="#63b8ff" d="M1136.47,-192.37C991.61,-191.74 630.5,-186.22 594.12,-147 584,-136.08 586.74,-126.43 594.12,-113.5 601.98,-99.76 615.8,-89.76 629.58,-82.71"/>
<polygon fill="#63b8ff" stroke="#63b8ff" points="631.04,-85.89 638.64,-78.52 628.1,-79.54 631.04,-85.89"/>
</a>
</g>
</g>
<!-- Node5 -->
<g id="Node000005" class="node">
<title>Node5</title>
<g id="a_Node000005"><a xlink:href="IDirectoryManager_8hpp.html" target="_top" xlink:title=" ">
<polygon fill="white" stroke="#666666" points="749,-147 603.25,-147 603.25,-113.5 749,-113.5 749,-147"/>
<text text-anchor="start" x="611.25" y="-133.5" font-family="Helvetica,sans-Serif" font-size="10.00">Utils/Filesystem/IDirectory</text>
<text text-anchor="middle" x="676.12" y="-120.75" font-family="Helvetica,sans-Serif" font-size="10.00">Manager.hpp</text>
</a>
</g>
</g>
<!-- Node2&#45;&gt;Node5 -->
<g id="edge4_Node000002_Node000005" class="edge">
<title>Node2&#45;&gt;Node5</title>
<g id="a_edge4_Node000002_Node000005"><a xlink:title=" ">
<path fill="none" stroke="#63b8ff" d="M1136.41,-187.84C1054.14,-181.22 901.09,-167.61 760.76,-147.31"/>
<polygon fill="#63b8ff" stroke="#63b8ff" points="761.29,-143.85 750.89,-145.87 760.27,-150.78 761.29,-143.85"/>
</a>
</g>
</g>
<!-- Node13 -->
<g id="Node000013" class="node">
<title>Node13</title>
<g id="a_Node000013"><a xlink:href="IFileReader_8hpp.html" target="_top" xlink:title=" ">
<polygon fill="white" stroke="#666666" points="359.5,-140.62 186.75,-140.62 186.75,-119.88 359.5,-119.88 359.5,-140.62"/>
<text text-anchor="middle" x="273.12" y="-127.12" font-family="Helvetica,sans-Serif" font-size="10.00">Utils/Filesystem/IFileReader.hpp</text>
</a>
</g>
</g>
<!-- Node2&#45;&gt;Node13 -->
<g id="edge13_Node000002_Node000013" class="edge">
<title>Node2&#45;&gt;Node13</title>
<g id="a_edge13_Node000002_Node000013"><a xlink:title=" ">
<path fill="none" stroke="#63b8ff" d="M1136.45,-191.35C1000,-188.5 654.87,-178.53 368.12,-147 358.22,-145.91 347.79,-144.48 337.6,-142.92"/>
<polygon fill="#63b8ff" stroke="#63b8ff" points="338.16,-139.46 327.74,-141.35 337.06,-146.37 338.16,-139.46"/>
</a>
</g>
</g>
<!-- Node14 -->
<g id="Node000014" class="node">
<title>Node14</title>
<g id="a_Node000014"><a xlink:href="IFileWriter_8hpp.html" target="_top" xlink:title=" ">
<polygon fill="white" stroke="#666666" points="168.25,-140.62 0,-140.62 0,-119.88 168.25,-119.88 168.25,-140.62"/>
<text text-anchor="middle" x="84.12" y="-127.12" font-family="Helvetica,sans-Serif" font-size="10.00">Utils/Filesystem/IFileWriter.hpp</text>
</a>
</g>
</g>
<!-- Node2&#45;&gt;Node14 -->
<g id="edge19_Node000002_Node000014" class="edge">
<title>Node2&#45;&gt;Node14</title>
<g id="a_edge19_Node000002_Node000014"><a xlink:title=" ">
<path fill="none" stroke="#63b8ff" d="M1136.27,-192.24C978.87,-191.34 540.55,-185.3 178.12,-147 167.97,-145.93 157.26,-144.46 146.84,-142.84"/>
<polygon fill="#63b8ff" stroke="#63b8ff" points="147.61,-139.42 137.18,-141.29 146.5,-146.33 147.61,-139.42"/>
</a>
</g>
</g>
<!-- Node15 -->
<g id="Node000015" class="node">
<title>Node15</title>
<g id="a_Node000015"><a xlink:href="IPathResolver_8hpp.html" target="_top" xlink:title=" ">
<polygon fill="white" stroke="#666666" points="951.5,-140.62 766.75,-140.62 766.75,-119.88 951.5,-119.88 951.5,-140.62"/>
<text text-anchor="middle" x="859.12" y="-127.12" font-family="Helvetica,sans-Serif" font-size="10.00">Utils/Filesystem/IPathResolver.hpp</text>
</a>
</g>
</g>
<!-- Node2&#45;&gt;Node15 -->
<g id="edge25_Node000002_Node000015" class="edge">
<title>Node2&#45;&gt;Node15</title>
<g id="a_edge25_Node000002_Node000015"><a xlink:title=" ">
<path fill="none" stroke="#63b8ff" d="M1141.98,-182.55C1082.74,-171.81 987.8,-154.59 924.47,-143.1"/>
<polygon fill="#63b8ff" stroke="#63b8ff" points="925.37,-139.71 914.9,-141.37 924.12,-146.6 925.37,-139.71"/>
</a>
</g>
</g>
<!-- Node16 -->
<g id="Node000016" class="node">
<title>Node16</title>
<g id="a_Node000016"><a xlink:href="ICustomStringsLoader_8hpp.html" target="_top" xlink:title=" ">
<polygon fill="white" stroke="#666666" points="1430.62,-147 1291.62,-147 1291.62,-113.5 1430.62,-113.5 1430.62,-147"/>
<text text-anchor="start" x="1299.62" y="-133.5" font-family="Helvetica,sans-Serif" font-size="10.00">Utils/Json/ICustomStrings</text>
<text text-anchor="middle" x="1361.12" y="-120.75" font-family="Helvetica,sans-Serif" font-size="10.00">Loader.hpp</text>
</a>
</g>
</g>
<!-- Node2&#45;&gt;Node16 -->
<g id="edge30_Node000002_Node000016" class="edge">
<title>Node2&#45;&gt;Node16</title>
<g id="a_edge30_Node000002_Node000016"><a xlink:title=" ">
<path fill="none" stroke="#63b8ff" d="M1222.64,-182.55C1245.25,-174.18 1278.5,-161.86 1306.75,-151.39"/>
<polygon fill="#63b8ff" stroke="#63b8ff" points="1307.72,-154.77 1315.88,-148.01 1305.29,-148.2 1307.72,-154.77"/>
</a>
</g>
</g>
<!-- Node18 -->
<g id="Node000018" class="node">
<title>Node18</title>
<g id="a_Node000018"><a xlink:href="IJsonSerializer_8hpp.html" target="_top" xlink:title=" ">
<polygon fill="white" stroke="#666666" points="1273.12,-140.62 1119.12,-140.62 1119.12,-119.88 1273.12,-119.88 1273.12,-140.62"/>
<text text-anchor="middle" x="1196.12" y="-127.12" font-family="Helvetica,sans-Serif" font-size="10.00">Utils/Json/IJsonSerializer.hpp</text>
</a>
</g>
</g>
<!-- Node2&#45;&gt;Node18 -->
<g id="edge35_Node000002_Node000018" class="edge">
<title>Node2&#45;&gt;Node18</title>
<g id="a_edge35_Node000002_Node000018"><a xlink:title=" ">
<path fill="none" stroke="#63b8ff" d="M1196.12,-182.55C1196.12,-174.4 1196.12,-162.51 1196.12,-152.23"/>
<polygon fill="#63b8ff" stroke="#63b8ff" points="1199.63,-152.36 1196.13,-142.36 1192.63,-152.36 1199.63,-152.36"/>
</a>
</g>
</g>
<!-- Node19 -->
<g id="Node000019" class="node">
<title>Node19</title>
<g id="a_Node000019"><a xlink:href="ILogger_8hpp.html" target="_top" xlink:title=" ">
<polygon fill="white" stroke="#666666" points="1707,-77.5 1573.25,-77.5 1573.25,-56.75 1707,-56.75 1707,-77.5"/>
<text text-anchor="middle" x="1640.12" y="-64" font-family="Helvetica,sans-Serif" font-size="10.00">Utils/Logger/ILogger.hpp</text>
</a>
</g>
</g>
<!-- Node2&#45;&gt;Node19 -->
<g id="edge40_Node000002_Node000019" class="edge">
<title>Node2&#45;&gt;Node19</title>
<g id="a_edge40_Node000002_Node000019"><a xlink:title=" ">
<path fill="none" stroke="#63b8ff" d="M1255.93,-188.04C1310.05,-182.72 1391.29,-171.22 1458.12,-147 1486.11,-136.86 1489.16,-126.11 1516.12,-113.5 1542.69,-101.08 1573.66,-89.75 1598.01,-81.51"/>
<polygon fill="#63b8ff" stroke="#63b8ff" points="1598.87,-84.91 1607.25,-78.43 1596.66,-78.27 1598.87,-84.91"/>
</a>
</g>
</g>
<!-- Node2&#45;&gt;Node21 -->
<g id="edge60_Node000002_Node000021" class="edge">
<title>Node2&#45;&gt;Node21</title>
<g id="a_edge60_Node000002_Node000021"><a xlink:title=" ">
<path fill="none" stroke="#63b8ff" d="M1255.73,-192.88C1412.44,-193.59 1826.78,-191.23 1868.12,-147 1898.15,-114.88 1870.59,-59.59 1852.32,-30.52"/>
<polygon fill="#63b8ff" stroke="#63b8ff" points="1855.37,-28.79 1846.96,-22.35 1849.52,-32.63 1855.37,-28.79"/>
</a>
</g>
</g>
<!-- Node23 -->
<g id="Node000023" class="node">
<title>Node23</title>
<g id="a_Node000023"><a xlink:href="LoggerFactory_8hpp.html" target="_top" xlink:title=" ">
<polygon fill="white" stroke="#666666" points="1690.75,-140.62 1525.5,-140.62 1525.5,-119.88 1690.75,-119.88 1690.75,-140.62"/>
<text text-anchor="middle" x="1608.12" y="-127.12" font-family="Helvetica,sans-Serif" font-size="10.00">Utils/Logger/LoggerFactory.hpp</text>
</a>
</g>
</g>
<!-- Node2&#45;&gt;Node23 -->
<g id="edge46_Node000002_Node000023" class="edge">
<title>Node2&#45;&gt;Node23</title>
<g id="a_edge46_Node000002_Node000023"><a xlink:title=" ">
<path fill="none" stroke="#63b8ff" d="M1255.97,-184.08C1319.37,-175.21 1422.38,-160.6 1511.12,-147 1519.6,-145.7 1528.49,-144.31 1537.3,-142.9"/>
<polygon fill="#63b8ff" stroke="#63b8ff" points="1537.57,-146.4 1546.89,-141.36 1536.46,-139.49 1537.57,-146.4"/>
</a>
</g>
</g>
<!-- Node24 -->
<g id="Node000024" class="node">
<title>Node24</title>
<g id="a_Node000024"><a xlink:href="NullLogger_8hpp.html" target="_top" xlink:title=" ">
<polygon fill="white" stroke="#666666" points="1859.25,-140.62 1709,-140.62 1709,-119.88 1859.25,-119.88 1859.25,-140.62"/>
<text text-anchor="middle" x="1784.12" y="-127.12" font-family="Helvetica,sans-Serif" font-size="10.00">Utils/Logger/NullLogger.hpp</text>
</a>
</g>
</g>
<!-- Node2&#45;&gt;Node24 -->
<g id="edge50_Node000002_Node000024" class="edge">
<title>Node2&#45;&gt;Node24</title>
<g id="a_edge50_Node000002_Node000024"><a xlink:title=" ">
<path fill="none" stroke="#63b8ff" d="M1255.69,-188.86C1350.21,-182.87 1540.22,-169.14 1700.12,-147 1708.11,-145.89 1716.48,-144.55 1724.73,-143.12"/>
<polygon fill="#63b8ff" stroke="#63b8ff" points="1725.12,-146.6 1734.35,-141.39 1723.89,-139.71 1725.12,-146.6"/>
</a>
</g>
</g>
<!-- Node25 -->
<g id="Node000025" class="node">
<title>Node25</title>
<g id="a_Node000025"><a xlink:href="IPlatformInfo_8hpp.html" target="_top" xlink:title=" ">
<polygon fill="white" stroke="#666666" points="1100.88,-147 969.38,-147 969.38,-113.5 1100.88,-113.5 1100.88,-147"/>
<text text-anchor="start" x="977.38" y="-133.5" font-family="Helvetica,sans-Serif" font-size="10.00">Utils/Platform/IPlatform</text>
<text text-anchor="middle" x="1035.12" y="-120.75" font-family="Helvetica,sans-Serif" font-size="10.00">Info.hpp</text>
</a>
</g>
</g>
<!-- Node2&#45;&gt;Node25 -->
<g id="edge52_Node000002_Node000025" class="edge">
<title>Node2&#45;&gt;Node25</title>
<g id="a_edge52_Node000002_Node000025"><a xlink:title=" ">
<path fill="none" stroke="#63b8ff" d="M1170.26,-182.55C1148.29,-174.21 1116.03,-161.97 1088.55,-151.53"/>
<polygon fill="#63b8ff" stroke="#63b8ff" points="1089.89,-148.3 1079.3,-148.02 1087.41,-154.84 1089.89,-148.3"/>
</a>
</g>
</g>
<!-- Node26 -->
<g id="Node000026" class="node">
<title>Node26</title>
<g id="a_Node000026"><a xlink:href="IStringFormatter_8hpp.html" target="_top" xlink:title=" ">
<polygon fill="white" stroke="#666666" points="1517.5,-77.5 1344.75,-77.5 1344.75,-56.75 1517.5,-56.75 1517.5,-77.5"/>
<text text-anchor="middle" x="1431.12" y="-64" font-family="Helvetica,sans-Serif" font-size="10.00">Utils/String/IStringFormatter.hpp</text>
</a>
</g>
</g>
<!-- Node2&#45;&gt;Node26 -->
<g id="edge57_Node000002_Node000026" class="edge">
<title>Node2&#45;&gt;Node26</title>
<g id="a_edge57_Node000002_Node000026"><a xlink:title=" ">
<path fill="none" stroke="#63b8ff" d="M1255.75,-189.77C1320.3,-185.55 1417.13,-174.67 1440.12,-147 1453.64,-130.74 1447.73,-105.65 1440.82,-88.14"/>
<polygon fill="#63b8ff" stroke="#63b8ff" points="1444.16,-87.04 1436.93,-79.29 1437.75,-89.86 1444.16,-87.04"/>
</a>
</g>
</g>
<!-- Node3&#45;&gt;Node4 -->
<g id="edge3_Node000003_Node000004" class="edge">
<title>Node3&#45;&gt;Node4</title>
<g id="a_edge3_Node000003_Node000004"><a xlink:title=" ">
<path fill="none" stroke="#63b8ff" d="M495.7,-119.43C531.28,-109.03 587.61,-92.55 626.81,-81.09"/>
<polygon fill="#63b8ff" stroke="#63b8ff" points="627.56,-84.51 636.18,-78.35 625.6,-77.79 627.56,-84.51"/>
</a>
</g>
</g>
<!-- Node5&#45;&gt;Node4 -->
<g id="edge11_Node000005_Node000004" class="edge">
<title>Node5&#45;&gt;Node4</title>
<g id="a_edge11_Node000005_Node000004"><a xlink:title=" ">
<path fill="none" stroke="#63b8ff" d="M674.81,-113.19C674.21,-105.85 673.49,-97.07 672.85,-89.21"/>
<polygon fill="#63b8ff" stroke="#63b8ff" points="676.36,-89.16 672.05,-79.48 669.38,-89.73 676.36,-89.16"/>
</a>
</g>
</g>
<!-- Node6 -->
<g id="Node000006" class="node">
<title>Node6</title>
<g id="a_Node000006"><a xlink:href="UtilsError_8hpp.html" target="_top" xlink:title=" ">
<polygon fill="white" stroke="#666666" points="987.88,-77.5 880.38,-77.5 880.38,-56.75 987.88,-56.75 987.88,-77.5"/>
<text text-anchor="middle" x="934.12" y="-64" font-family="Helvetica,sans-Serif" font-size="10.00">Utils/UtilsError.hpp</text>
</a>
</g>
</g>
<!-- Node5&#45;&gt;Node6 -->
<g id="edge5_Node000005_Node000006" class="edge">
<title>Node5&#45;&gt;Node6</title>
<g id="a_edge5_Node000005_Node000006"><a xlink:title=" ">
<path fill="none" stroke="#63b8ff" d="M744.59,-113.03C787.61,-102.84 842.26,-89.89 881.81,-80.52"/>
<polygon fill="#63b8ff" stroke="#63b8ff" points="882.41,-83.98 891.33,-78.26 880.79,-77.16 882.41,-83.98"/>
</a>
</g>
</g>
<!-- Node12 -->
<g id="Node000012" class="node">
<title>Node12</title>
<g id="a_Node000012"><a xlink:title=" ">
<polygon fill="#e0e0e0" stroke="#999999" points="608.5,-77.5 561.75,-77.5 561.75,-56.75 608.5,-56.75 608.5,-77.5"/>
<text text-anchor="middle" x="585.12" y="-64" font-family="Helvetica,sans-Serif" font-size="10.00">vector</text>
</a>
</g>
</g>
<!-- Node5&#45;&gt;Node12 -->
<g id="edge12_Node000005_Node000012" class="edge">
<title>Node5&#45;&gt;Node12</title>
<g id="a_edge12_Node000005_Node000012"><a xlink:title=" ">
<path fill="none" stroke="#63b8ff" d="M652.22,-113.19C638.96,-104.28 622.51,-93.24 609.22,-84.31"/>
<polygon fill="#63b8ff" stroke="#63b8ff" points="611.29,-81.48 601.03,-78.81 607.38,-87.29 611.29,-81.48"/>
</a>
</g>
</g>
<!-- Node7 -->
<g id="Node000007" class="node">
<title>Node7</title>
<g id="a_Node000007"><a xlink:title=" ">
<polygon fill="#e0e0e0" stroke="#999999" points="848.62,-20.75 799.62,-20.75 799.62,0 848.62,0 848.62,-20.75"/>
<text text-anchor="middle" x="824.12" y="-7.25" font-family="Helvetica,sans-Serif" font-size="10.00">cstdint</text>
</a>
</g>
</g>
<!-- Node6&#45;&gt;Node7 -->
<g id="edge6_Node000006_Node000007" class="edge">
<title>Node6&#45;&gt;Node7</title>
<g id="a_edge6_Node000006_Node000007"><a xlink:title=" ">
<path fill="none" stroke="#63b8ff" d="M914.46,-56.34C897.57,-47.93 872.96,-35.68 853.69,-26.09"/>
<polygon fill="#63b8ff" stroke="#63b8ff" points="855.49,-23.08 844.98,-21.75 852.37,-29.34 855.49,-23.08"/>
</a>
</g>
</g>
<!-- Node8 -->
<g id="Node000008" class="node">
<title>Node8</title>
<g id="a_Node000008"><a xlink:title=" ">
<polygon fill="#e0e0e0" stroke="#999999" points="1073,-20.75 1017.25,-20.75 1017.25,0 1073,0 1073,-20.75"/>
<text text-anchor="middle" x="1045.12" y="-7.25" font-family="Helvetica,sans-Serif" font-size="10.00">optional</text>
</a>
</g>
</g>
<!-- Node6&#45;&gt;Node8 -->
<g id="edge7_Node000006_Node000008" class="edge">
<title>Node6&#45;&gt;Node8</title>
<g id="a_edge7_Node000006_Node000008"><a xlink:title=" ">
<path fill="none" stroke="#63b8ff" d="M953.97,-56.34C971.02,-47.93 995.85,-35.68 1015.29,-26.09"/>
<polygon fill="#63b8ff" stroke="#63b8ff" points="1016.67,-29.31 1024.09,-21.75 1013.58,-23.03 1016.67,-29.31"/>
</a>
</g>
</g>
<!-- Node9 -->
<g id="Node000009" class="node">
<title>Node9</title>
<g id="a_Node000009"><a xlink:title=" ">
<polygon fill="#e0e0e0" stroke="#999999" points="931.12,-20.75 867.12,-20.75 867.12,0 931.12,0 931.12,-20.75"/>
<text text-anchor="middle" x="899.12" y="-7.25" font-family="Helvetica,sans-Serif" font-size="10.00">stdexcept</text>
</a>
</g>
</g>
<!-- Node6&#45;&gt;Node9 -->
<g id="edge8_Node000006_Node000009" class="edge">
<title>Node6&#45;&gt;Node9</title>
<g id="a_edge8_Node000006_Node000009"><a xlink:title=" ">
<path fill="none" stroke="#63b8ff" d="M927.87,-56.34C923.29,-49.17 916.93,-39.23 911.36,-30.51"/>
<polygon fill="#63b8ff" stroke="#63b8ff" points="914.48,-28.89 906.14,-22.35 908.58,-32.66 914.48,-28.89"/>
</a>
</g>
</g>
<!-- Node10 -->
<g id="Node000010" class="node">
<title>Node10</title>
<g id="a_Node000010"><a xlink:title=" ">
<polygon fill="#e0e0e0" stroke="#999999" points="1135,-20.75 1091.25,-20.75 1091.25,0 1135,0 1135,-20.75"/>
<text text-anchor="middle" x="1113.12" y="-7.25" font-family="Helvetica,sans-Serif" font-size="10.00">string</text>
</a>
</g>
</g>
<!-- Node6&#45;&gt;Node10 -->
<g id="edge9_Node000006_Node000010" class="edge">
<title>Node6&#45;&gt;Node10</title>
<g id="a_edge9_Node000006_Node000010"><a xlink:title=" ">
<path fill="none" stroke="#63b8ff" d="M966.13,-56.34C998.33,-46.49 1047.76,-31.37 1080.26,-21.43"/>
<polygon fill="#63b8ff" stroke="#63b8ff" points="1081.01,-24.86 1089.55,-18.59 1078.97,-18.16 1081.01,-24.86"/>
</a>
</g>
</g>
<!-- Node11 -->
<g id="Node000011" class="node">
<title>Node11</title>
<g id="a_Node000011"><a xlink:title=" ">
<polygon fill="#e0e0e0" stroke="#999999" points="999.38,-20.75 948.88,-20.75 948.88,0 999.38,0 999.38,-20.75"/>
<text text-anchor="middle" x="974.12" y="-7.25" font-family="Helvetica,sans-Serif" font-size="10.00">variant</text>
</a>
</g>
</g>
<!-- Node6&#45;&gt;Node11 -->
<g id="edge10_Node000006_Node000011" class="edge">
<title>Node6&#45;&gt;Node11</title>
<g id="a_edge10_Node000006_Node000011"><a xlink:title=" ">
<path fill="none" stroke="#63b8ff" d="M941.28,-56.34C946.57,-49.1 953.94,-39.01 960.35,-30.22"/>
<polygon fill="#63b8ff" stroke="#63b8ff" points="963.07,-32.44 966.14,-22.3 957.42,-28.31 963.07,-32.44"/>
</a>
</g>
</g>
<!-- Node13&#45;&gt;Node4 -->
<g id="edge16_Node000013_Node000004" class="edge">
<title>Node13&#45;&gt;Node4</title>
<g id="a_edge16_Node000013_Node000004"><a xlink:title=" ">
<path fill="none" stroke="#63b8ff" d="M331.37,-119.4C343.51,-117.4 356.23,-115.35 368.12,-113.5 478.62,-96.35 506.7,-95.07 617.12,-77.5 619.96,-77.05 622.88,-76.57 625.82,-76.09"/>
<polygon fill="#63b8ff" stroke="#63b8ff" points="626.39,-79.54 635.67,-74.42 625.22,-72.64 626.39,-79.54"/>
</a>
</g>
</g>
<!-- Node13&#45;&gt;Node6 -->
<g id="edge14_Node000013_Node000006" class="edge">
<title>Node13&#45;&gt;Node6</title>
<g id="a_edge14_Node000013_Node000006"><a xlink:title=" ">
<path fill="none" stroke="#63b8ff" d="M327.77,-119.38C340.95,-117.23 355.02,-115.11 368.12,-113.5 548.73,-91.33 763.14,-77.54 868.72,-71.57"/>
<polygon fill="#63b8ff" stroke="#63b8ff" points="868.82,-75.07 878.61,-71.02 868.43,-68.08 868.82,-75.07"/>
</a>
</g>
</g>
<!-- Node13&#45;&gt;Node7 -->
<g id="edge15_Node000013_Node000007" class="edge">
<title>Node13&#45;&gt;Node7</title>
<g id="a_edge15_Node000013_Node000007"><a xlink:title=" ">
<path fill="none" stroke="#63b8ff" d="M298.7,-119.4C340.03,-103.84 424.31,-73.64 498.12,-56.75 602.04,-32.96 727.64,-19.75 788.12,-14.33"/>
<polygon fill="#63b8ff" stroke="#63b8ff" points="788.16,-17.84 797.82,-13.48 787.55,-10.87 788.16,-17.84"/>
</a>
</g>
</g>
<!-- Node13&#45;&gt;Node10 -->
<g id="edge17_Node000013_Node000010" class="edge">
<title>Node13&#45;&gt;Node10</title>
<g id="a_edge17_Node000013_Node000010"><a xlink:title=" ">
<path fill="none" stroke="#63b8ff" d="M311.67,-119.38C352.15,-109.01 417.63,-92.19 474.12,-77.5 509.26,-68.36 517.3,-62.62 553.12,-56.75 782.05,-19.24 848.25,-61.76 1079.77,-20.76"/>
<polygon fill="#63b8ff" stroke="#63b8ff" points="1080.21,-24.24 1089.43,-19.01 1078.97,-17.35 1080.21,-24.24"/>
</a>
</g>
</g>
<!-- Node13&#45;&gt;Node12 -->
<g id="edge18_Node000013_Node000012" class="edge">
<title>Node13&#45;&gt;Node12</title>
<g id="a_edge18_Node000013_Node000012"><a xlink:title=" ">
<path fill="none" stroke="#63b8ff" d="M323.25,-119.43C386.8,-106.98 494.74,-85.83 550.1,-74.99"/>
<polygon fill="#63b8ff" stroke="#63b8ff" points="550.77,-78.42 559.91,-73.07 549.42,-71.55 550.77,-78.42"/>
</a>
</g>
</g>
<!-- Node14&#45;&gt;Node4 -->
<g id="edge22_Node000014_Node000004" class="edge">
<title>Node14&#45;&gt;Node4</title>
<g id="a_edge22_Node000014_Node000004"><a xlink:title=" ">
<path fill="none" stroke="#63b8ff" d="M138.19,-119.39C151.24,-117.23 165.15,-115.12 178.12,-113.5 372.39,-89.3 422.93,-102.27 617.12,-77.5 619.97,-77.14 622.9,-76.73 625.85,-76.29"/>
<polygon fill="#63b8ff" stroke="#63b8ff" points="626.38,-79.75 635.71,-74.73 625.29,-72.84 626.38,-79.75"/>
</a>
</g>
</g>
<!-- Node14&#45;&gt;Node6 -->
<g id="edge20_Node000014_Node000006" class="edge">
<title>Node14&#45;&gt;Node6</title>
<g id="a_edge20_Node000014_Node000006"><a xlink:title=" ">
<path fill="none" stroke="#63b8ff" d="M136.69,-119.43C150.15,-117.2 164.64,-115.03 178.12,-113.5 311.08,-98.41 710.49,-78.63 868.63,-71.16"/>
<polygon fill="#63b8ff" stroke="#63b8ff" points="868.7,-74.66 878.53,-70.69 868.37,-67.67 868.7,-74.66"/>
</a>
</g>
</g>
<!-- Node14&#45;&gt;Node7 -->
<g id="edge21_Node000014_Node000007" class="edge">
<title>Node14&#45;&gt;Node7</title>
<g id="a_edge21_Node000014_Node000007"><a xlink:title=" ">
<path fill="none" stroke="#63b8ff" d="M106.14,-119.4C143.26,-103.29 220.99,-71.6 290.12,-56.75 474.31,-17.19 701.19,-11.82 788.01,-11.31"/>
<polygon fill="#63b8ff" stroke="#63b8ff" points="787.81,-14.81 797.8,-11.27 787.79,-7.81 787.81,-14.81"/>
</a>
</g>
</g>
<!-- Node14&#45;&gt;Node10 -->
<g id="edge23_Node000014_Node000010" class="edge">
<title>Node14&#45;&gt;Node10</title>
<g id="a_edge23_Node000014_Node000010"><a xlink:title=" ">
<path fill="none" stroke="#63b8ff" d="M126.69,-119.42C197.52,-103.48 344.25,-72.21 470.12,-56.75 736.87,-23.99 811.83,-67.3 1079.68,-20.76"/>
<polygon fill="#63b8ff" stroke="#63b8ff" points="1080.2,-24.22 1089.44,-19.03 1078.98,-17.33 1080.2,-24.22"/>
</a>
</g>
</g>
<!-- Node14&#45;&gt;Node12 -->
<g id="edge24_Node000014_Node000012" class="edge">
<title>Node14&#45;&gt;Node12</title>
<g id="a_edge24_Node000014_Node000012"><a xlink:title=" ">
<path fill="none" stroke="#63b8ff" d="M139.72,-119.42C152.33,-117.33 165.67,-115.24 178.12,-113.5 315.58,-94.34 480.06,-78.02 550.42,-71.34"/>
<polygon fill="#63b8ff" stroke="#63b8ff" points="550.53,-74.85 560.16,-70.43 549.88,-67.88 550.53,-74.85"/>
</a>
</g>
</g>
<!-- Node15&#45;&gt;Node4 -->
<g id="edge27_Node000015_Node000004" class="edge">
<title>Node15&#45;&gt;Node4</title>
<g id="a_edge27_Node000015_Node000004"><a xlink:title=" ">
<path fill="none" stroke="#63b8ff" d="M828.92,-119.43C797.26,-109.14 747.33,-92.9 712.13,-81.46"/>
<polygon fill="#63b8ff" stroke="#63b8ff" points="713.29,-78.15 702.69,-78.39 711.12,-84.81 713.29,-78.15"/>
</a>
</g>
</g>
<!-- Node15&#45;&gt;Node6 -->
<g id="edge26_Node000015_Node000006" class="edge">
<title>Node15&#45;&gt;Node6</title>
<g id="a_edge26_Node000015_Node000006"><a xlink:title=" ">
<path fill="none" stroke="#63b8ff" d="M871.18,-119.43C882.61,-110.11 900.03,-95.91 913.65,-84.81"/>
<polygon fill="#63b8ff" stroke="#63b8ff" points="915.64,-87.71 921.18,-78.68 911.22,-82.28 915.64,-87.71"/>
</a>
</g>
</g>
<!-- Node15&#45;&gt;Node10 -->
<g id="edge28_Node000015_Node000010" class="edge">
<title>Node15&#45;&gt;Node10</title>
<g id="a_edge28_Node000015_Node000010"><a xlink:title=" ">
<path fill="none" stroke="#63b8ff" d="M889.57,-119.4C917.92,-109.86 961.1,-94.39 997.12,-77.5 1029.52,-62.31 1065.03,-41.4 1088.11,-27.19"/>
<polygon fill="#63b8ff" stroke="#63b8ff" points="1089.85,-30.22 1096.5,-21.97 1086.16,-24.28 1089.85,-30.22"/>
</a>
</g>
</g>
<!-- Node15&#45;&gt;Node12 -->
<g id="edge29_Node000015_Node000012" class="edge">
<title>Node15&#45;&gt;Node12</title>
<g id="a_edge29_Node000015_Node000012"><a xlink:title=" ">
<path fill="none" stroke="#63b8ff" d="M815.1,-119.43C760.76,-107.31 669.47,-86.94 619.83,-75.87"/>
<polygon fill="#63b8ff" stroke="#63b8ff" points="620.73,-72.48 610.21,-73.72 619.21,-79.31 620.73,-72.48"/>
</a>
</g>
</g>
<!-- Node16&#45;&gt;Node6 -->
<g id="edge31_Node000016_Node000006" class="edge">
<title>Node16&#45;&gt;Node6</title>
<g id="a_edge31_Node000016_Node000006"><a xlink:title=" ">
<path fill="none" stroke="#63b8ff" d="M1291.38,-115.08C1288.26,-114.53 1285.16,-114 1282.12,-113.5 1184.03,-97.35 1069.61,-83.35 999.52,-75.33"/>
<polygon fill="#63b8ff" stroke="#63b8ff" points="1000.08,-71.87 989.75,-74.21 999.29,-78.82 1000.08,-71.87"/>
</a>
</g>
</g>
<!-- Node16&#45;&gt;Node8 -->
<g id="edge33_Node000016_Node000008" class="edge">
<title>Node16&#45;&gt;Node8</title>
<g id="a_edge33_Node000016_Node000008"><a xlink:title=" ">
<path fill="none" stroke="#63b8ff" d="M1339.79,-113.2C1312.8,-93.02 1268.78,-60.52 1260.12,-56.75 1189.32,-25.88 1163.09,-37.54 1084.31,-21.08"/>
<polygon fill="#63b8ff" stroke="#63b8ff" points="1085.37,-17.72 1074.85,-19.01 1083.87,-24.56 1085.37,-17.72"/>
</a>
</g>
</g>
<!-- Node16&#45;&gt;Node10 -->
<g id="edge34_Node000016_Node000010" class="edge">
<title>Node16&#45;&gt;Node10</title>
<g id="a_edge34_Node000016_Node000010"><a xlink:title=" ">
<path fill="none" stroke="#63b8ff" d="M1350.32,-113.15C1338.3,-96.51 1317.36,-71.02 1293.12,-56.75 1246.89,-29.53 1184.67,-18.52 1146.8,-14.15"/>
<polygon fill="#63b8ff" stroke="#63b8ff" points="1147.23,-10.68 1136.92,-13.11 1146.5,-17.64 1147.23,-10.68"/>
</a>
</g>
</g>
<!-- Node17 -->
<g id="Node000017" class="node">
<title>Node17</title>
<g id="a_Node000017"><a xlink:title=" ">
<polygon fill="#e0e0e0" stroke="#999999" points="1250.62,-77.5 1141.62,-77.5 1141.62,-56.75 1250.62,-56.75 1250.62,-77.5"/>
<text text-anchor="middle" x="1196.12" y="-64" font-family="Helvetica,sans-Serif" font-size="10.00">nlohmann/json.hpp</text>
</a>
</g>
</g>
<!-- Node16&#45;&gt;Node17 -->
<g id="edge32_Node000016_Node000017" class="edge">
<title>Node16&#45;&gt;Node17</title>
<g id="a_edge32_Node000016_Node000017"><a xlink:title=" ">
<path fill="none" stroke="#63b8ff" d="M1317.34,-113.03C1291.06,-103.29 1258,-91.05 1233.05,-81.8"/>
<polygon fill="#63b8ff" stroke="#63b8ff" points="1234.56,-78.63 1223.97,-78.44 1232.13,-85.2 1234.56,-78.63"/>
</a>
</g>
</g>
<!-- Node18&#45;&gt;Node4 -->
<g id="edge37_Node000018_Node000004" class="edge">
<title>Node18&#45;&gt;Node4</title>
<g id="a_edge37_Node000018_Node000004"><a xlink:title=" ">
<path fill="none" stroke="#63b8ff" d="M1146.21,-119.43C1134.41,-117.29 1121.85,-115.18 1110.12,-113.5 966.8,-93 795.88,-78.04 716.19,-71.61"/>
<polygon fill="#63b8ff" stroke="#63b8ff" points="716.87,-68.16 706.62,-70.85 716.31,-75.13 716.87,-68.16"/>
</a>
</g>
</g>
<!-- Node18&#45;&gt;Node6 -->
<g id="edge36_Node000018_Node000006" class="edge">
<title>Node18&#45;&gt;Node6</title>
<g id="a_edge36_Node000018_Node000006"><a xlink:title=" ">
<path fill="none" stroke="#63b8ff" d="M1154.03,-119.43C1108.67,-108.85 1036.39,-91.98 987.17,-80.5"/>
<polygon fill="#63b8ff" stroke="#63b8ff" points="988.12,-77.13 977.59,-78.27 986.53,-83.95 988.12,-77.13"/>
</a>
</g>
</g>
<!-- Node18&#45;&gt;Node10 -->
<g id="edge39_Node000018_Node000010" class="edge">
<title>Node18&#45;&gt;Node10</title>
<g id="a_edge39_Node000018_Node000010"><a xlink:title=" ">
<path fill="none" stroke="#63b8ff" d="M1179.29,-119.43C1165.04,-110.28 1145.07,-95.4 1133.12,-77.5 1124.05,-63.9 1118.97,-46.04 1116.2,-32.31"/>
<polygon fill="#63b8ff" stroke="#63b8ff" points="1119.68,-31.85 1114.52,-22.6 1112.78,-33.05 1119.68,-31.85"/>
</a>
</g>
</g>
<!-- Node18&#45;&gt;Node17 -->
<g id="edge38_Node000018_Node000017" class="edge">
<title>Node18&#45;&gt;Node17</title>
<g id="a_edge38_Node000018_Node000017"><a xlink:title=" ">
<path fill="none" stroke="#63b8ff" d="M1196.12,-119.43C1196.12,-111.27 1196.12,-99.38 1196.12,-89.1"/>
<polygon fill="#63b8ff" stroke="#63b8ff" points="1199.63,-89.23 1196.13,-79.23 1192.63,-89.23 1199.63,-89.23"/>
</a>
</g>
</g>
<!-- Node19&#45;&gt;Node7 -->
<g id="edge42_Node000019_Node000007" class="edge">
<title>Node19&#45;&gt;Node7</title>
<g id="a_edge42_Node000019_Node000007"><a xlink:title=" ">
<path fill="none" stroke="#63b8ff" d="M1572.94,-60.28C1557.56,-59.03 1541.28,-57.78 1526.12,-56.75 1233.11,-36.81 1153.51,-67.77 859.86,-20.64"/>
<polygon fill="#63b8ff" stroke="#63b8ff" points="860.8,-17.25 850.36,-19.1 859.67,-24.16 860.8,-17.25"/>
</a>
</g>
</g>
<!-- Node19&#45;&gt;Node10 -->
<g id="edge45_Node000019_Node000010" class="edge">
<title>Node19&#45;&gt;Node10</title>
<g id="a_edge45_Node000019_Node000010"><a xlink:title=" ">
<path fill="none" stroke="#63b8ff" d="M1572.95,-58.28C1568.27,-57.75 1563.63,-57.24 1559.12,-56.75 1405.21,-40.01 1221.19,-21.89 1146.79,-14.64"/>
<polygon fill="#63b8ff" stroke="#63b8ff" points="1147.21,-11.16 1136.92,-13.68 1146.53,-18.13 1147.21,-11.16"/>
</a>
</g>
</g>
<!-- Node20 -->
<g id="Node000020" class="node">
<title>Node20</title>
<g id="a_Node000020"><a xlink:title=" ">
<polygon fill="#e0e0e0" stroke="#999999" points="1632.25,-20.75 1566,-20.75 1566,0 1632.25,0 1632.25,-20.75"/>
<text text-anchor="middle" x="1599.12" y="-7.25" font-family="Helvetica,sans-Serif" font-size="10.00">fmt/core.h</text>
</a>
</g>
</g>
<!-- Node19&#45;&gt;Node20 -->
<g id="edge41_Node000019_Node000020" class="edge">
<title>Node19&#45;&gt;Node20</title>
<g id="a_edge41_Node000019_Node000020"><a xlink:title=" ">
<path fill="none" stroke="#63b8ff" d="M1632.8,-56.34C1627.37,-49.1 1619.82,-39.01 1613.24,-30.22"/>
<polygon fill="#63b8ff" stroke="#63b8ff" points="1616.09,-28.2 1607.3,-22.29 1610.49,-32.39 1616.09,-28.2"/>
</a>
</g>
</g>
<!-- Node19&#45;&gt;Node21 -->
<g id="edge43_Node000019_Node000021" class="edge">
<title>Node19&#45;&gt;Node21</title>
<g id="a_edge43_Node000019_Node000021"><a xlink:title=" ">
<path fill="none" stroke="#63b8ff" d="M1675.7,-56.34C1710.4,-46.79 1763.1,-32.29 1799.21,-22.36"/>
<polygon fill="#63b8ff" stroke="#63b8ff" points="1800.14,-25.73 1808.85,-19.7 1798.28,-18.98 1800.14,-25.73"/>
</a>
</g>
</g>
<!-- Node22 -->
<g id="Node000022" class="node">
<title>Node22</title>
<g id="a_Node000022"><a xlink:title=" ">
<polygon fill="#e0e0e0" stroke="#999999" points="1706,-20.75 1650.25,-20.75 1650.25,0 1706,0 1706,-20.75"/>
<text text-anchor="middle" x="1678.12" y="-7.25" font-family="Helvetica,sans-Serif" font-size="10.00">sstream</text>
</a>
</g>
</g>
<!-- Node19&#45;&gt;Node22 -->
<g id="edge44_Node000019_Node000022" class="edge">
<title>Node19&#45;&gt;Node22</title>
<g id="a_edge44_Node000019_Node000022"><a xlink:title=" ">
<path fill="none" stroke="#63b8ff" d="M1646.92,-56.34C1651.89,-49.17 1658.79,-39.23 1664.85,-30.51"/>
<polygon fill="#63b8ff" stroke="#63b8ff" points="1667.7,-32.53 1670.53,-22.32 1661.95,-28.54 1667.7,-32.53"/>
</a>
</g>
</g>
<!-- Node23&#45;&gt;Node10 -->
<g id="edge49_Node000023_Node000010" class="edge">
<title>Node23&#45;&gt;Node10</title>
<g id="a_edge49_Node000023_Node000010"><a xlink:title=" ">
<path fill="none" stroke="#63b8ff" d="M1600.55,-119.42C1587.4,-103.19 1558.62,-71.13 1526.12,-56.75 1458.24,-26.7 1232.49,-15.64 1146.65,-12.46"/>
<polygon fill="#63b8ff" stroke="#63b8ff" points="1146.9,-8.96 1136.78,-12.11 1146.65,-15.96 1146.9,-8.96"/>
</a>
</g>
</g>
<!-- Node23&#45;&gt;Node19 -->
<g id="edge47_Node000023_Node000019" class="edge">
<title>Node23&#45;&gt;Node19</title>
<g id="a_edge47_Node000023_Node000019"><a xlink:title=" ">
<path fill="none" stroke="#63b8ff" d="M1613.27,-119.43C1617.72,-110.91 1624.31,-98.33 1629.85,-87.76"/>
<polygon fill="#63b8ff" stroke="#63b8ff" points="1632.86,-89.54 1634.4,-79.06 1626.66,-86.3 1632.86,-89.54"/>
</a>
</g>
</g>
<!-- Node23&#45;&gt;Node21 -->
<g id="edge48_Node000023_Node000021" class="edge">
<title>Node23&#45;&gt;Node21</title>
<g id="a_edge48_Node000023_Node000021"><a xlink:title=" ">
<path fill="none" stroke="#63b8ff" d="M1629.38,-119.42C1651.26,-109.22 1686.28,-92.66 1716.12,-77.5 1749.41,-60.59 1787.16,-40.09 1811.96,-26.45"/>
<polygon fill="#63b8ff" stroke="#63b8ff" points="1813.35,-29.68 1820.42,-21.78 1809.97,-23.55 1813.35,-29.68"/>
</a>
</g>
</g>
<!-- Node24&#45;&gt;Node19 -->
<g id="edge51_Node000024_Node000019" class="edge">
<title>Node24&#45;&gt;Node19</title>
<g id="a_edge51_Node000024_Node000019"><a xlink:title=" ">
<path fill="none" stroke="#63b8ff" d="M1760.99,-119.43C1737.37,-109.4 1700.47,-93.74 1673.65,-82.36"/>
<polygon fill="#63b8ff" stroke="#63b8ff" points="1675.17,-79.2 1664.6,-78.51 1672.43,-85.64 1675.17,-79.2"/>
</a>
</g>
</g>
<!-- Node25&#45;&gt;Node4 -->
<g id="edge55_Node000025_Node000004" class="edge">
<title>Node25&#45;&gt;Node4</title>
<g id="a_edge55_Node000025_Node000004"><a xlink:title=" ">
<path fill="none" stroke="#63b8ff" d="M968.91,-115.15C965.94,-114.58 963,-114.03 960.12,-113.5 874.13,-97.73 773.11,-82.65 716.16,-74.47"/>
<polygon fill="#63b8ff" stroke="#63b8ff" points="716.93,-71.04 706.53,-73.09 715.94,-77.97 716.93,-71.04"/>
</a>
</g>
</g>
<!-- Node25&#45;&gt;Node6 -->
<g id="edge53_Node000025_Node000006" class="edge">
<title>Node25&#45;&gt;Node6</title>
<g id="a_edge53_Node000025_Node000006"><a xlink:title=" ">
<path fill="none" stroke="#63b8ff" d="M1008.32,-113.03C993.32,-103.95 974.7,-92.68 959.87,-83.71"/>
<polygon fill="#63b8ff" stroke="#63b8ff" points="961.96,-80.88 951.6,-78.7 958.34,-86.87 961.96,-80.88"/>
</a>
</g>
</g>
<!-- Node25&#45;&gt;Node7 -->
<g id="edge54_Node000025_Node000007" class="edge">
<title>Node25&#45;&gt;Node7</title>
<g id="a_edge54_Node000025_Node000007"><a xlink:title=" ">
<path fill="none" stroke="#63b8ff" d="M969.47,-113.1C931.14,-102.8 887.24,-89.23 871.12,-77.5 854.61,-65.48 841.72,-45.85 833.65,-31.1"/>
<polygon fill="#63b8ff" stroke="#63b8ff" points="836.82,-29.61 829.13,-22.32 830.6,-32.81 836.82,-29.61"/>
</a>
</g>
</g>
<!-- Node25&#45;&gt;Node10 -->
<g id="edge56_Node000025_Node000010" class="edge">
<title>Node25&#45;&gt;Node10</title>
<g id="a_edge56_Node000025_Node000010"><a xlink:title=" ">
<path fill="none" stroke="#63b8ff" d="M1045.64,-113.35C1059.85,-91.88 1085.15,-53.65 1100.41,-30.6"/>
<polygon fill="#63b8ff" stroke="#63b8ff" points="1103.2,-32.72 1105.8,-22.45 1097.36,-28.85 1103.2,-32.72"/>
</a>
</g>
</g>
<!-- Node26&#45;&gt;Node10 -->
<g id="edge58_Node000026_Node000010" class="edge">
<title>Node26&#45;&gt;Node10</title>
<g id="a_edge58_Node000026_Node000010"><a xlink:title=" ">
<path fill="none" stroke="#63b8ff" d="M1373.91,-56.27C1307.57,-44.85 1200.47,-26.41 1146.49,-17.12"/>
<polygon fill="#63b8ff" stroke="#63b8ff" points="1147.14,-13.68 1136.69,-15.43 1145.95,-20.58 1147.14,-13.68"/>
</a>
</g>
</g>
</g>
</svg>
