<?xml version="1.0" encoding="UTF-8" standalone="no"?>
<!DOCTYPE svg PUBLIC "-//W3C//DTD SVG 1.1//EN"
 "http://www.w3.org/Graphics/SVG/1.1/DTD/svg11.dtd">
<!-- Generated by graphviz version 12.2.1 (0)
 -->
<!-- Title: src/lib/Utils/Logger/NullLogger.hpp Pages: 1 -->
<svg width="353pt" height="155pt"
 viewBox="0.00 0.00 353.00 155.00" xmlns="http://www.w3.org/2000/svg" xmlns:xlink="http://www.w3.org/1999/xlink">
<g id="graph0" class="graph" transform="scale(1 1) rotate(0) translate(4 151)">
<title>src/lib/Utils/Logger/NullLogger.hpp</title>
<!-- Node1 -->
<g id="Node000001" class="node">
<title>Node1</title>
<g id="a_Node000001"><a xlink:title=" ">
<polygon fill="#999999" stroke="#666666" points="233.5,-147 126.75,-147 126.75,-113.5 233.5,-113.5 233.5,-147"/>
<text text-anchor="start" x="134.75" y="-133.5" font-family="Helvetica,sans-Serif" font-size="10.00">src/lib/Utils/Logger</text>
<text text-anchor="middle" x="180.12" y="-120.75" font-family="Helvetica,sans-Serif" font-size="10.00">/NullLogger.hpp</text>
</a>
</g>
</g>
<!-- Node2 -->
<g id="Node000002" class="node">
<title>Node2</title>
<g id="a_Node000002"><a xlink:href="ILogger_8hpp.html" target="_top" xlink:title=" ">
<polygon fill="white" stroke="#666666" points="216.25,-77.5 144,-77.5 144,-56.75 216.25,-56.75 216.25,-77.5"/>
<text text-anchor="middle" x="180.12" y="-64" font-family="Helvetica,sans-Serif" font-size="10.00">ILogger.hpp</text>
</a>
</g>
</g>
<!-- Node1&#45;&gt;Node2 -->
<g id="edge1_Node000001_Node000002" class="edge">
<title>Node1&#45;&gt;Node2</title>
<g id="a_edge1_Node000001_Node000002"><a xlink:title=" ">
<path fill="none" stroke="#63b8ff" d="M180.12,-113.19C180.12,-105.85 180.12,-97.07 180.12,-89.21"/>
<polygon fill="#63b8ff" stroke="#63b8ff" points="183.63,-89.48 180.13,-79.48 176.63,-89.48 183.63,-89.48"/>
</a>
</g>
</g>
<!-- Node3 -->
<g id="Node000003" class="node">
<title>Node3</title>
<g id="a_Node000003"><a xlink:title=" ">
<polygon fill="#e0e0e0" stroke="#999999" points="66.25,-20.75 0,-20.75 0,0 66.25,0 66.25,-20.75"/>
<text text-anchor="middle" x="33.12" y="-7.25" font-family="Helvetica,sans-Serif" font-size="10.00">fmt/core.h</text>
</a>
</g>
</g>
<!-- Node2&#45;&gt;Node3 -->
<g id="edge2_Node000002_Node000003" class="edge">
<title>Node2&#45;&gt;Node3</title>
<g id="a_edge2_Node000002_Node000003"><a xlink:title=" ">
<path fill="none" stroke="#63b8ff" d="M153.84,-56.34C130.43,-47.62 95.94,-34.77 69.81,-25.04"/>
<polygon fill="#63b8ff" stroke="#63b8ff" points="71.19,-21.82 60.6,-21.61 68.75,-28.38 71.19,-21.82"/>
</a>
</g>
</g>
<!-- Node4 -->
<g id="Node000004" class="node">
<title>Node4</title>
<g id="a_Node000004"><a xlink:title=" ">
<polygon fill="#e0e0e0" stroke="#999999" points="133.62,-20.75 84.62,-20.75 84.62,0 133.62,0 133.62,-20.75"/>
<text text-anchor="middle" x="109.12" y="-7.25" font-family="Helvetica,sans-Serif" font-size="10.00">cstdint</text>
</a>
</g>
</g>
<!-- Node2&#45;&gt;Node4 -->
<g id="edge3_Node000002_Node000004" class="edge">
<title>Node2&#45;&gt;Node4</title>
<g id="a_edge3_Node000002_Node000004"><a xlink:title=" ">
<path fill="none" stroke="#63b8ff" d="M167.43,-56.34C157.23,-48.47 142.68,-37.25 130.67,-27.99"/>
<polygon fill="#63b8ff" stroke="#63b8ff" points="132.96,-25.34 122.91,-22 128.69,-30.88 132.96,-25.34"/>
</a>
</g>
</g>
<!-- Node5 -->
<g id="Node000005" class="node">
<title>Node5</title>
<g id="a_Node000005"><a xlink:title=" ">
<polygon fill="#e0e0e0" stroke="#999999" points="208.75,-20.75 151.5,-20.75 151.5,0 208.75,0 208.75,-20.75"/>
<text text-anchor="middle" x="180.12" y="-7.25" font-family="Helvetica,sans-Serif" font-size="10.00">memory</text>
</a>
</g>
</g>
<!-- Node2&#45;&gt;Node5 -->
<g id="edge4_Node000002_Node000005" class="edge">
<title>Node2&#45;&gt;Node5</title>
<g id="a_edge4_Node000002_Node000005"><a xlink:title=" ">
<path fill="none" stroke="#63b8ff" d="M180.12,-56.34C180.12,-49.72 180.12,-40.72 180.12,-32.52"/>
<polygon fill="#63b8ff" stroke="#63b8ff" points="183.63,-32.59 180.13,-22.59 176.63,-32.59 183.63,-32.59"/>
</a>
</g>
</g>
<!-- Node6 -->
<g id="Node000006" class="node">
<title>Node6</title>
<g id="a_Node000006"><a xlink:title=" ">
<polygon fill="#e0e0e0" stroke="#999999" points="283,-20.75 227.25,-20.75 227.25,0 283,0 283,-20.75"/>
<text text-anchor="middle" x="255.12" y="-7.25" font-family="Helvetica,sans-Serif" font-size="10.00">sstream</text>
</a>
</g>
</g>
<!-- Node2&#45;&gt;Node6 -->
<g id="edge5_Node000002_Node000006" class="edge">
<title>Node2&#45;&gt;Node6</title>
<g id="a_edge5_Node000002_Node000006"><a xlink:title=" ">
<path fill="none" stroke="#63b8ff" d="M193.53,-56.34C204.41,-48.4 219.98,-37.03 232.74,-27.71"/>
<polygon fill="#63b8ff" stroke="#63b8ff" points="234.6,-30.69 240.61,-21.97 230.47,-25.04 234.6,-30.69"/>
</a>
</g>
</g>
<!-- Node7 -->
<g id="Node000007" class="node">
<title>Node7</title>
<g id="a_Node000007"><a xlink:title=" ">
<polygon fill="#e0e0e0" stroke="#999999" points="345,-20.75 301.25,-20.75 301.25,0 345,0 345,-20.75"/>
<text text-anchor="middle" x="323.12" y="-7.25" font-family="Helvetica,sans-Serif" font-size="10.00">string</text>
</a>
</g>
</g>
<!-- Node2&#45;&gt;Node7 -->
<g id="edge6_Node000002_Node000007" class="edge">
<title>Node2&#45;&gt;Node7</title>
<g id="a_edge6_Node000002_Node000007"><a xlink:title=" ">
<path fill="none" stroke="#63b8ff" d="M205.69,-56.34C229.34,-47.28 264.63,-33.77 290.34,-23.93"/>
<polygon fill="#63b8ff" stroke="#63b8ff" points="291.56,-27.21 299.65,-20.36 289.06,-20.67 291.56,-27.21"/>
</a>
</g>
</g>
</g>
</svg>
