<?xml version="1.0" encoding="UTF-8" standalone="no"?>
<!DOCTYPE svg PUBLIC "-//W3C//DTD SVG 1.1//EN"
 "http://www.w3.org/Graphics/SVG/1.1/DTD/svg11.dtd">
<!-- Generated by graphviz version 12.2.1 (0)
 -->
<!-- Title: src/lib/Utils/Logger/NullLogger.hpp Pages: 1 -->
<svg width="435pt" height="237pt"
 viewBox="0.00 0.00 434.50 237.25" xmlns="http://www.w3.org/2000/svg" xmlns:xlink="http://www.w3.org/1999/xlink">

<svg id="main" version="1.1" xmlns="http://www.w3.org/2000/svg" xmlns:xlink="http://www.w3.org/1999/xlink" xml:space="preserve">

<style type="text/css"><![CDATA[
.node, .edge {opacity: 0.7;}
.node.selected, .edge.selected {opacity: 1;}
.edge:hover path { stroke: red; }
.edge:hover polygon { stroke: red; fill: red; }
]]></style>
<script type="application/ecmascript" xlink:href="svg.min.js"/>
<svg id="graph" class="graph">
<g id="graph0" class="graph" transform="scale(1 1) rotate(0) translate(4 233.25)">
<title>src/lib/Utils/Logger/NullLogger.hpp</title>
<!-- Node1 -->
<g id="Node000001" class="node">
<title>Node1</title>
<g id="a_Node000001"><a xlink:title=" ">
<polygon fill="#999999" stroke="#666666" points="179.75,-229.25 73,-229.25 73,-195.75 179.75,-195.75 179.75,-229.25"/>
<text text-anchor="start" x="81" y="-215.75" font-family="Helvetica,sans-Serif" font-size="10.00">src/lib/Utils/Logger</text>
<text text-anchor="middle" x="126.38" y="-203" font-family="Helvetica,sans-Serif" font-size="10.00">/NullLogger.hpp</text>
</a>
</g>
</g>
<!-- Node2 -->
<g id="Node000002" class="node">
<title>Node2</title>
<g id="a_Node000002"><a xlink:href="LoggerFactory_8cpp.html" target="_top" xlink:title=" ">
<polygon fill="white" stroke="#666666" points="106.75,-159.75 0,-159.75 0,-126.25 106.75,-126.25 106.75,-159.75"/>
<text text-anchor="start" x="8" y="-146.25" font-family="Helvetica,sans-Serif" font-size="10.00">src/lib/Utils/Logger</text>
<text text-anchor="middle" x="53.38" y="-133.5" font-family="Helvetica,sans-Serif" font-size="10.00">/LoggerFactory.cpp</text>
</a>
</g>
</g>
<!-- Node1&#45;&gt;Node2 -->
<g id="edge1_Node000001_Node000002" class="edge">
<title>Node1&#45;&gt;Node2</title>
<g id="a_edge1_Node000001_Node000002"><a xlink:title=" ">
<path fill="none" stroke="#63b8ff" d="M100.75,-187.81C90.85,-178.65 79.76,-168.4 70.8,-160.12"/>
<polygon fill="#63b8ff" stroke="#63b8ff" points="98.25,-190.26 107.96,-194.48 103,-185.12 98.25,-190.26"/>
</a>
</g>
</g>
<!-- Node3 -->
<g id="Node000003" class="node">
<title>Node3</title>
<g id="a_Node000003"><a xlink:href="UtilsFactory_8hpp.html" target="_top" xlink:title=" ">
<polygon fill="white" stroke="#666666" points="275.88,-153.38 124.88,-153.38 124.88,-132.62 275.88,-132.62 275.88,-153.38"/>
<text text-anchor="middle" x="200.38" y="-139.88" font-family="Helvetica,sans-Serif" font-size="10.00">src/lib/Utils/UtilsFactory.hpp</text>
</a>
</g>
</g>
<!-- Node1&#45;&gt;Node3 -->
<g id="edge2_Node000001_Node000003" class="edge">
<title>Node1&#45;&gt;Node3</title>
<g id="a_edge2_Node000001_Node000003"><a xlink:title=" ">
<path fill="none" stroke="#63b8ff" d="M152.37,-187.79C165.16,-176.12 179.88,-162.7 189.61,-153.82"/>
<polygon fill="#63b8ff" stroke="#63b8ff" points="150.06,-185.16 145.03,-194.48 154.78,-190.33 150.06,-185.16"/>
</a>
</g>
</g>
<!-- Node4 -->
<g id="Node000004" class="node">
<title>Node4</title>
<g id="a_Node000004"><a xlink:href="NixonCppLib_8hpp.html" target="_top" xlink:title=" ">
<polygon fill="white" stroke="#666666" points="257.88,-90.25 142.88,-90.25 142.88,-56.75 257.88,-56.75 257.88,-90.25"/>
<text text-anchor="start" x="150.88" y="-76.75" font-family="Helvetica,sans-Serif" font-size="10.00">include/NixonCppLib</text>
<text text-anchor="middle" x="200.38" y="-64" font-family="Helvetica,sans-Serif" font-size="10.00">/NixonCppLib.hpp</text>
</a>
</g>
</g>
<!-- Node3&#45;&gt;Node4 -->
<g id="edge3_Node000003_Node000004" class="edge">
<title>Node3&#45;&gt;Node4</title>
<g id="a_edge3_Node000003_Node000004"><a xlink:title=" ">
<path fill="none" stroke="#63b8ff" d="M200.38,-121.13C200.38,-111.32 200.38,-99.8 200.38,-90.67"/>
<polygon fill="#63b8ff" stroke="#63b8ff" points="196.88,-120.82 200.38,-130.82 203.88,-120.82 196.88,-120.82"/>
</a>
</g>
</g>
<!-- Node5 -->
<g id="Node000005" class="node">
<title>Node5</title>
<g id="a_Node000005"><a xlink:href="Application_8cpp.html" target="_top" xlink:title=" ">
<polygon fill="white" stroke="#666666" points="179,-20.75 49.75,-20.75 49.75,0 179,0 179,-20.75"/>
<text text-anchor="middle" x="114.38" y="-7.25" font-family="Helvetica,sans-Serif" font-size="10.00">src/app/Application.cpp</text>
</a>
</g>
</g>
<!-- Node3&#45;&gt;Node5 -->
<g id="edge6_Node000003_Node000005" class="edge">
<title>Node3&#45;&gt;Node5</title>
<g id="a_edge6_Node000003_Node000005"><a xlink:title=" ">
<path fill="none" stroke="#63b8ff" d="M172.2,-126C158.89,-117.08 143.87,-104.84 134.38,-90.25 120.04,-68.23 115.98,-36.57 114.83,-20.9"/>
<polygon fill="#63b8ff" stroke="#63b8ff" points="170.33,-128.95 180.65,-131.34 174.07,-123.03 170.33,-128.95"/>
</a>
</g>
</g>
<!-- Node7 -->
<g id="Node000007" class="node">
<title>Node7</title>
<g id="a_Node000007"><a xlink:href="UtilsFactory_8cpp.html" target="_top" xlink:title=" ">
<polygon fill="white" stroke="#666666" points="426.5,-83.88 276.25,-83.88 276.25,-63.12 426.5,-63.12 426.5,-83.88"/>
<text text-anchor="middle" x="351.38" y="-70.38" font-family="Helvetica,sans-Serif" font-size="10.00">src/lib/Utils/UtilsFactory.cpp</text>
</a>
</g>
</g>
<!-- Node3&#45;&gt;Node7 -->
<g id="edge7_Node000003_Node000007" class="edge">
<title>Node3&#45;&gt;Node7</title>
<g id="a_edge7_Node000003_Node000007"><a xlink:title=" ">
<path fill="none" stroke="#63b8ff" d="M232.81,-127.5C261.97,-114.47 303.99,-95.68 329.39,-84.33"/>
<polygon fill="#63b8ff" stroke="#63b8ff" points="231.41,-124.29 223.71,-131.57 234.27,-130.68 231.41,-124.29"/>
</a>
</g>
</g>
<!-- Node4&#45;&gt;Node5 -->
<g id="edge4_Node000004_Node000005" class="edge">
<title>Node4&#45;&gt;Node5</title>
<g id="a_edge4_Node000004_Node000005"><a xlink:title=" ">
<path fill="none" stroke="#63b8ff" d="M168.51,-49.85C154.63,-39.99 139.08,-28.94 128.22,-21.22"/>
<polygon fill="#63b8ff" stroke="#63b8ff" points="166.37,-52.62 176.55,-55.56 170.42,-46.92 166.37,-52.62"/>
</a>
</g>
</g>
<!-- Node6 -->
<g id="Node000006" class="node">
<title>Node6</title>
<g id="a_Node000006"><a xlink:href="NixonCppLib_8cpp.html" target="_top" xlink:title=" ">
<polygon fill="white" stroke="#666666" points="326,-20.75 196.75,-20.75 196.75,0 326,0 326,-20.75"/>
<text text-anchor="middle" x="261.38" y="-7.25" font-family="Helvetica,sans-Serif" font-size="10.00">src/lib/NixonCppLib.cpp</text>
</a>
</g>
</g>
<!-- Node4&#45;&gt;Node6 -->
<g id="edge5_Node000004_Node000006" class="edge">
<title>Node4&#45;&gt;Node6</title>
<g id="a_edge5_Node000004_Node000006"><a xlink:title=" ">
<path fill="none" stroke="#63b8ff" d="M224.4,-48.42C233.88,-38.93 244.22,-28.56 251.55,-21.22"/>
<polygon fill="#63b8ff" stroke="#63b8ff" points="222.06,-45.82 217.47,-55.37 227.01,-50.76 222.06,-45.82"/>
</a>
</g>
</g>
</g>
</svg>
</svg>

<style type='text/css'>
<![CDATA[
[data-mouse-over-selected='false'] { opacity: 0.7; }
[data-mouse-over-selected='true']  { opacity: 1.0; }
]]>
</style>
<script type="application/ecmascript"><![CDATA[
document.addEventListener('DOMContentLoaded', (event) => {
  highlightEdges();
  highlightAdjacentNodes();
});
]]></script>
</svg>
