<?xml version="1.0" encoding="UTF-8" standalone="no"?>
<!DOCTYPE svg PUBLIC "-//W3C//DTD SVG 1.1//EN"
 "http://www.w3.org/Graphics/SVG/1.1/DTD/svg11.dtd">
<!-- Generated by graphviz version 12.2.1 (0)
 -->
<!-- Title: src/lib/Utils/Filesystem/PathResolver.hpp Pages: 1 -->
<svg width="466pt" height="212pt"
 viewBox="0.00 0.00 465.88 211.75" xmlns="http://www.w3.org/2000/svg" xmlns:xlink="http://www.w3.org/1999/xlink">
<g id="graph0" class="graph" transform="scale(1 1) rotate(0) translate(4 207.75)">
<title>src/lib/Utils/Filesystem/PathResolver.hpp</title>
<!-- Node1 -->
<g id="Node000001" class="node">
<title>Node1</title>
<g id="a_Node000001"><a xlink:title=" ">
<polygon fill="#999999" stroke="#666666" points="392,-203.75 265,-203.75 265,-170.25 392,-170.25 392,-203.75"/>
<text text-anchor="start" x="273" y="-190.25" font-family="Helvetica,sans-Serif" font-size="10.00">src/lib/Utils/Filesystem</text>
<text text-anchor="middle" x="328.5" y="-177.5" font-family="Helvetica,sans-Serif" font-size="10.00">/PathResolver.hpp</text>
</a>
</g>
</g>
<!-- Node2 -->
<g id="Node000002" class="node">
<title>Node2</title>
<g id="a_Node000002"><a xlink:href="IPathResolver_8hpp.html" target="_top" xlink:title=" ">
<polygon fill="white" stroke="#666666" points="420.88,-134.25 236.12,-134.25 236.12,-113.5 420.88,-113.5 420.88,-134.25"/>
<text text-anchor="middle" x="328.5" y="-120.75" font-family="Helvetica,sans-Serif" font-size="10.00">Utils/Filesystem/IPathResolver.hpp</text>
</a>
</g>
</g>
<!-- Node1&#45;&gt;Node2 -->
<g id="edge1_Node000001_Node000002" class="edge">
<title>Node1&#45;&gt;Node2</title>
<g id="a_edge1_Node000001_Node000002"><a xlink:title=" ">
<path fill="none" stroke="#63b8ff" d="M328.5,-169.94C328.5,-162.6 328.5,-153.82 328.5,-145.96"/>
<polygon fill="#63b8ff" stroke="#63b8ff" points="332,-146.23 328.5,-136.23 325,-146.23 332,-146.23"/>
</a>
</g>
</g>
<!-- Node3 -->
<g id="Node000003" class="node">
<title>Node3</title>
<g id="a_Node000003"><a xlink:href="UtilsError_8hpp.html" target="_top" xlink:title=" ">
<polygon fill="white" stroke="#666666" points="255.25,-77.5 147.75,-77.5 147.75,-56.75 255.25,-56.75 255.25,-77.5"/>
<text text-anchor="middle" x="201.5" y="-64" font-family="Helvetica,sans-Serif" font-size="10.00">Utils/UtilsError.hpp</text>
</a>
</g>
</g>
<!-- Node2&#45;&gt;Node3 -->
<g id="edge2_Node000002_Node000003" class="edge">
<title>Node2&#45;&gt;Node3</title>
<g id="a_edge2_Node000002_Node000003"><a xlink:title=" ">
<path fill="none" stroke="#63b8ff" d="M305.79,-113.09C285.93,-104.52 256.83,-91.98 234.41,-82.31"/>
<polygon fill="#63b8ff" stroke="#63b8ff" points="235.97,-79.17 225.4,-78.43 233.2,-85.6 235.97,-79.17"/>
</a>
</g>
</g>
<!-- Node7 -->
<g id="Node000007" class="node">
<title>Node7</title>
<g id="a_Node000007"><a xlink:title=" ">
<polygon fill="#e0e0e0" stroke="#999999" points="334.38,-20.75 290.62,-20.75 290.62,0 334.38,0 334.38,-20.75"/>
<text text-anchor="middle" x="312.5" y="-7.25" font-family="Helvetica,sans-Serif" font-size="10.00">string</text>
</a>
</g>
</g>
<!-- Node2&#45;&gt;Node7 -->
<g id="edge9_Node000002_Node000007" class="edge">
<title>Node2&#45;&gt;Node7</title>
<g id="a_edge9_Node000002_Node000007"><a xlink:title=" ">
<path fill="none" stroke="#63b8ff" d="M325.68,-113.23C323.13,-104.11 319.47,-89.99 317.5,-77.5 315.13,-62.49 313.87,-45.38 313.21,-32.32"/>
<polygon fill="#63b8ff" stroke="#63b8ff" points="316.71,-32.2 312.8,-22.36 309.72,-32.5 316.71,-32.2"/>
</a>
</g>
</g>
<!-- Node9 -->
<g id="Node000009" class="node">
<title>Node9</title>
<g id="a_Node000009"><a xlink:title=" ">
<polygon fill="#e0e0e0" stroke="#999999" points="393,-77.5 326,-77.5 326,-56.75 393,-56.75 393,-77.5"/>
<text text-anchor="middle" x="359.5" y="-64" font-family="Helvetica,sans-Serif" font-size="10.00">filesystem</text>
</a>
</g>
</g>
<!-- Node2&#45;&gt;Node9 -->
<g id="edge8_Node000002_Node000009" class="edge">
<title>Node2&#45;&gt;Node9</title>
<g id="a_edge8_Node000002_Node000009"><a xlink:title=" ">
<path fill="none" stroke="#63b8ff" d="M334.04,-113.09C338.01,-106.08 343.49,-96.41 348.34,-87.83"/>
<polygon fill="#63b8ff" stroke="#63b8ff" points="351.38,-89.57 353.26,-79.15 345.29,-86.12 351.38,-89.57"/>
</a>
</g>
</g>
<!-- Node10 -->
<g id="Node000010" class="node">
<title>Node10</title>
<g id="a_Node000010"><a xlink:title=" ">
<polygon fill="#e0e0e0" stroke="#999999" points="457.88,-77.5 411.12,-77.5 411.12,-56.75 457.88,-56.75 457.88,-77.5"/>
<text text-anchor="middle" x="434.5" y="-64" font-family="Helvetica,sans-Serif" font-size="10.00">vector</text>
</a>
</g>
</g>
<!-- Node2&#45;&gt;Node10 -->
<g id="edge10_Node000002_Node000010" class="edge">
<title>Node2&#45;&gt;Node10</title>
<g id="a_edge10_Node000002_Node000010"><a xlink:title=" ">
<path fill="none" stroke="#63b8ff" d="M347.45,-113.09C363.58,-104.76 387,-92.66 405.49,-83.11"/>
<polygon fill="#63b8ff" stroke="#63b8ff" points="407.09,-86.22 414.37,-78.52 403.88,-80 407.09,-86.22"/>
</a>
</g>
</g>
<!-- Node4 -->
<g id="Node000004" class="node">
<title>Node4</title>
<g id="a_Node000004"><a xlink:title=" ">
<polygon fill="#e0e0e0" stroke="#999999" points="49,-20.75 0,-20.75 0,0 49,0 49,-20.75"/>
<text text-anchor="middle" x="24.5" y="-7.25" font-family="Helvetica,sans-Serif" font-size="10.00">cstdint</text>
</a>
</g>
</g>
<!-- Node3&#45;&gt;Node4 -->
<g id="edge3_Node000003_Node000004" class="edge">
<title>Node3&#45;&gt;Node4</title>
<g id="a_edge3_Node000003_Node000004"><a xlink:title=" ">
<path fill="none" stroke="#63b8ff" d="M169.86,-56.34C138.99,-46.79 92.12,-32.29 60,-22.36"/>
<polygon fill="#63b8ff" stroke="#63b8ff" points="61.34,-19.11 50.75,-19.5 59.27,-25.79 61.34,-19.11"/>
</a>
</g>
</g>
<!-- Node5 -->
<g id="Node000005" class="node">
<title>Node5</title>
<g id="a_Node000005"><a xlink:title=" ">
<polygon fill="#e0e0e0" stroke="#999999" points="122.38,-20.75 66.62,-20.75 66.62,0 122.38,0 122.38,-20.75"/>
<text text-anchor="middle" x="94.5" y="-7.25" font-family="Helvetica,sans-Serif" font-size="10.00">optional</text>
</a>
</g>
</g>
<!-- Node3&#45;&gt;Node5 -->
<g id="edge4_Node000003_Node000005" class="edge">
<title>Node3&#45;&gt;Node5</title>
<g id="a_edge4_Node000003_Node000005"><a xlink:title=" ">
<path fill="none" stroke="#63b8ff" d="M182.37,-56.34C166.01,-47.97 142.22,-35.79 123.52,-26.22"/>
<polygon fill="#63b8ff" stroke="#63b8ff" points="125.31,-23.21 114.81,-21.77 122.12,-29.44 125.31,-23.21"/>
</a>
</g>
</g>
<!-- Node6 -->
<g id="Node000006" class="node">
<title>Node6</title>
<g id="a_Node000006"><a xlink:title=" ">
<polygon fill="#e0e0e0" stroke="#999999" points="204.5,-20.75 140.5,-20.75 140.5,0 204.5,0 204.5,-20.75"/>
<text text-anchor="middle" x="172.5" y="-7.25" font-family="Helvetica,sans-Serif" font-size="10.00">stdexcept</text>
</a>
</g>
</g>
<!-- Node3&#45;&gt;Node6 -->
<g id="edge5_Node000003_Node000006" class="edge">
<title>Node3&#45;&gt;Node6</title>
<g id="a_edge5_Node000003_Node000006"><a xlink:title=" ">
<path fill="none" stroke="#63b8ff" d="M196.32,-56.34C192.6,-49.33 187.48,-39.66 182.94,-31.08"/>
<polygon fill="#63b8ff" stroke="#63b8ff" points="186.12,-29.61 178.35,-22.42 179.94,-32.89 186.12,-29.61"/>
</a>
</g>
</g>
<!-- Node3&#45;&gt;Node7 -->
<g id="edge6_Node000003_Node000007" class="edge">
<title>Node3&#45;&gt;Node7</title>
<g id="a_edge6_Node000003_Node000007"><a xlink:title=" ">
<path fill="none" stroke="#63b8ff" d="M221.34,-56.34C238.39,-47.93 263.22,-35.68 282.66,-26.09"/>
<polygon fill="#63b8ff" stroke="#63b8ff" points="284.05,-29.31 291.47,-21.75 280.95,-23.03 284.05,-29.31"/>
</a>
</g>
</g>
<!-- Node8 -->
<g id="Node000008" class="node">
<title>Node8</title>
<g id="a_Node000008"><a xlink:title=" ">
<polygon fill="#e0e0e0" stroke="#999999" points="272.75,-20.75 222.25,-20.75 222.25,0 272.75,0 272.75,-20.75"/>
<text text-anchor="middle" x="247.5" y="-7.25" font-family="Helvetica,sans-Serif" font-size="10.00">variant</text>
</a>
</g>
</g>
<!-- Node3&#45;&gt;Node8 -->
<g id="edge7_Node000003_Node000008" class="edge">
<title>Node3&#45;&gt;Node8</title>
<g id="a_edge7_Node000003_Node000008"><a xlink:title=" ">
<path fill="none" stroke="#63b8ff" d="M209.72,-56.34C215.94,-48.94 224.65,-38.57 232.14,-29.66"/>
<polygon fill="#63b8ff" stroke="#63b8ff" points="234.62,-32.15 238.37,-22.24 229.26,-27.64 234.62,-32.15"/>
</a>
</g>
</g>
</g>
</svg>
