<?xml version="1.0" encoding="UTF-8" standalone="no"?>
<!DOCTYPE svg PUBLIC "-//W3C//DTD SVG 1.1//EN"
 "http://www.w3.org/Graphics/SVG/1.1/DTD/svg11.dtd">
<!-- Generated by graphviz version 12.2.1 (0)
 -->
<!-- Title: src/lib/Utils/Filesystem/PathResolver.cpp Pages: 1 -->
<svg width="569pt" height="269pt"
 viewBox="0.00 0.00 568.75 268.50" xmlns="http://www.w3.org/2000/svg" xmlns:xlink="http://www.w3.org/1999/xlink">
<g id="graph0" class="graph" transform="scale(1 1) rotate(0) translate(4 264.5)">
<title>src/lib/Utils/Filesystem/PathResolver.cpp</title>
<!-- Node1 -->
<g id="Node000001" class="node">
<title>Node1</title>
<g id="a_Node000001"><a xlink:title=" ">
<polygon fill="#999999" stroke="#666666" points="493,-260.5 366,-260.5 366,-227 493,-227 493,-260.5"/>
<text text-anchor="start" x="374" y="-247" font-family="Helvetica,sans-Serif" font-size="10.00">src/lib/Utils/Filesystem</text>
<text text-anchor="middle" x="429.5" y="-234.25" font-family="Helvetica,sans-Serif" font-size="10.00">/PathResolver.cpp</text>
</a>
</g>
</g>
<!-- Node2 -->
<g id="Node000002" class="node">
<title>Node2</title>
<g id="a_Node000002"><a xlink:href="PathResolver_8hpp.html" target="_top" xlink:title=" ">
<polygon fill="white" stroke="#666666" points="378.5,-191 278.5,-191 278.5,-170.25 378.5,-170.25 378.5,-191"/>
<text text-anchor="middle" x="328.5" y="-177.5" font-family="Helvetica,sans-Serif" font-size="10.00">PathResolver.hpp</text>
</a>
</g>
</g>
<!-- Node1&#45;&gt;Node2 -->
<g id="edge1_Node000001_Node000002" class="edge">
<title>Node1&#45;&gt;Node2</title>
<g id="a_edge1_Node000001_Node000002"><a xlink:title=" ">
<path fill="none" stroke="#63b8ff" d="M402.7,-226.53C387.69,-217.45 369.08,-206.18 354.25,-197.21"/>
<polygon fill="#63b8ff" stroke="#63b8ff" points="356.34,-194.38 345.97,-192.2 352.71,-200.37 356.34,-194.38"/>
</a>
</g>
</g>
<!-- Node12 -->
<g id="Node000012" class="node">
<title>Node12</title>
<g id="a_Node000012"><a xlink:title=" ">
<polygon fill="#e0e0e0" stroke="#999999" points="462.62,-191 396.38,-191 396.38,-170.25 462.62,-170.25 462.62,-191"/>
<text text-anchor="middle" x="429.5" y="-177.5" font-family="Helvetica,sans-Serif" font-size="10.00">fmt/core.h</text>
</a>
</g>
</g>
<!-- Node1&#45;&gt;Node12 -->
<g id="edge12_Node000001_Node000012" class="edge">
<title>Node1&#45;&gt;Node12</title>
<g id="a_edge12_Node000001_Node000012"><a xlink:title=" ">
<path fill="none" stroke="#63b8ff" d="M429.5,-226.69C429.5,-219.35 429.5,-210.57 429.5,-202.71"/>
<polygon fill="#63b8ff" stroke="#63b8ff" points="433,-202.98 429.5,-192.98 426,-202.98 433,-202.98"/>
</a>
</g>
</g>
<!-- Node13 -->
<g id="Node000013" class="node">
<title>Node13</title>
<g id="a_Node000013"><a xlink:title=" ">
<polygon fill="#e0e0e0" stroke="#999999" points="560.75,-191 480.25,-191 480.25,-170.25 560.75,-170.25 560.75,-191"/>
<text text-anchor="middle" x="520.5" y="-177.5" font-family="Helvetica,sans-Serif" font-size="10.00">system_error</text>
</a>
</g>
</g>
<!-- Node1&#45;&gt;Node13 -->
<g id="edge13_Node000001_Node000013" class="edge">
<title>Node1&#45;&gt;Node13</title>
<g id="a_edge13_Node000001_Node000013"><a xlink:title=" ">
<path fill="none" stroke="#63b8ff" d="M453.41,-226.69C466.67,-217.78 483.11,-206.74 496.4,-197.81"/>
<polygon fill="#63b8ff" stroke="#63b8ff" points="498.24,-200.79 504.59,-192.31 494.34,-194.98 498.24,-200.79"/>
</a>
</g>
</g>
<!-- Node3 -->
<g id="Node000003" class="node">
<title>Node3</title>
<g id="a_Node000003"><a xlink:href="IPathResolver_8hpp.html" target="_top" xlink:title=" ">
<polygon fill="white" stroke="#666666" points="420.88,-134.25 236.12,-134.25 236.12,-113.5 420.88,-113.5 420.88,-134.25"/>
<text text-anchor="middle" x="328.5" y="-120.75" font-family="Helvetica,sans-Serif" font-size="10.00">Utils/Filesystem/IPathResolver.hpp</text>
</a>
</g>
</g>
<!-- Node2&#45;&gt;Node3 -->
<g id="edge2_Node000002_Node000003" class="edge">
<title>Node2&#45;&gt;Node3</title>
<g id="a_edge2_Node000002_Node000003"><a xlink:title=" ">
<path fill="none" stroke="#63b8ff" d="M328.5,-169.84C328.5,-163.22 328.5,-154.22 328.5,-146.02"/>
<polygon fill="#63b8ff" stroke="#63b8ff" points="332,-146.09 328.5,-136.09 325,-146.09 332,-146.09"/>
</a>
</g>
</g>
<!-- Node4 -->
<g id="Node000004" class="node">
<title>Node4</title>
<g id="a_Node000004"><a xlink:href="UtilsError_8hpp.html" target="_top" xlink:title=" ">
<polygon fill="white" stroke="#666666" points="255.25,-77.5 147.75,-77.5 147.75,-56.75 255.25,-56.75 255.25,-77.5"/>
<text text-anchor="middle" x="201.5" y="-64" font-family="Helvetica,sans-Serif" font-size="10.00">Utils/UtilsError.hpp</text>
</a>
</g>
</g>
<!-- Node3&#45;&gt;Node4 -->
<g id="edge3_Node000003_Node000004" class="edge">
<title>Node3&#45;&gt;Node4</title>
<g id="a_edge3_Node000003_Node000004"><a xlink:title=" ">
<path fill="none" stroke="#63b8ff" d="M305.79,-113.09C285.93,-104.52 256.83,-91.98 234.41,-82.31"/>
<polygon fill="#63b8ff" stroke="#63b8ff" points="235.97,-79.17 225.4,-78.43 233.2,-85.6 235.97,-79.17"/>
</a>
</g>
</g>
<!-- Node8 -->
<g id="Node000008" class="node">
<title>Node8</title>
<g id="a_Node000008"><a xlink:title=" ">
<polygon fill="#e0e0e0" stroke="#999999" points="334.38,-20.75 290.62,-20.75 290.62,0 334.38,0 334.38,-20.75"/>
<text text-anchor="middle" x="312.5" y="-7.25" font-family="Helvetica,sans-Serif" font-size="10.00">string</text>
</a>
</g>
</g>
<!-- Node3&#45;&gt;Node8 -->
<g id="edge10_Node000003_Node000008" class="edge">
<title>Node3&#45;&gt;Node8</title>
<g id="a_edge10_Node000003_Node000008"><a xlink:title=" ">
<path fill="none" stroke="#63b8ff" d="M325.68,-113.23C323.13,-104.11 319.47,-89.99 317.5,-77.5 315.13,-62.49 313.87,-45.38 313.21,-32.32"/>
<polygon fill="#63b8ff" stroke="#63b8ff" points="316.71,-32.2 312.8,-22.36 309.72,-32.5 316.71,-32.2"/>
</a>
</g>
</g>
<!-- Node10 -->
<g id="Node000010" class="node">
<title>Node10</title>
<g id="a_Node000010"><a xlink:title=" ">
<polygon fill="#e0e0e0" stroke="#999999" points="393,-77.5 326,-77.5 326,-56.75 393,-56.75 393,-77.5"/>
<text text-anchor="middle" x="359.5" y="-64" font-family="Helvetica,sans-Serif" font-size="10.00">filesystem</text>
</a>
</g>
</g>
<!-- Node3&#45;&gt;Node10 -->
<g id="edge9_Node000003_Node000010" class="edge">
<title>Node3&#45;&gt;Node10</title>
<g id="a_edge9_Node000003_Node000010"><a xlink:title=" ">
<path fill="none" stroke="#63b8ff" d="M334.04,-113.09C338.01,-106.08 343.49,-96.41 348.34,-87.83"/>
<polygon fill="#63b8ff" stroke="#63b8ff" points="351.38,-89.57 353.26,-79.15 345.29,-86.12 351.38,-89.57"/>
</a>
</g>
</g>
<!-- Node11 -->
<g id="Node000011" class="node">
<title>Node11</title>
<g id="a_Node000011"><a xlink:title=" ">
<polygon fill="#e0e0e0" stroke="#999999" points="457.88,-77.5 411.12,-77.5 411.12,-56.75 457.88,-56.75 457.88,-77.5"/>
<text text-anchor="middle" x="434.5" y="-64" font-family="Helvetica,sans-Serif" font-size="10.00">vector</text>
</a>
</g>
</g>
<!-- Node3&#45;&gt;Node11 -->
<g id="edge11_Node000003_Node000011" class="edge">
<title>Node3&#45;&gt;Node11</title>
<g id="a_edge11_Node000003_Node000011"><a xlink:title=" ">
<path fill="none" stroke="#63b8ff" d="M347.45,-113.09C363.58,-104.76 387,-92.66 405.49,-83.11"/>
<polygon fill="#63b8ff" stroke="#63b8ff" points="407.09,-86.22 414.37,-78.52 403.88,-80 407.09,-86.22"/>
</a>
</g>
</g>
<!-- Node5 -->
<g id="Node000005" class="node">
<title>Node5</title>
<g id="a_Node000005"><a xlink:title=" ">
<polygon fill="#e0e0e0" stroke="#999999" points="49,-20.75 0,-20.75 0,0 49,0 49,-20.75"/>
<text text-anchor="middle" x="24.5" y="-7.25" font-family="Helvetica,sans-Serif" font-size="10.00">cstdint</text>
</a>
</g>
</g>
<!-- Node4&#45;&gt;Node5 -->
<g id="edge4_Node000004_Node000005" class="edge">
<title>Node4&#45;&gt;Node5</title>
<g id="a_edge4_Node000004_Node000005"><a xlink:title=" ">
<path fill="none" stroke="#63b8ff" d="M169.86,-56.34C138.99,-46.79 92.12,-32.29 60,-22.36"/>
<polygon fill="#63b8ff" stroke="#63b8ff" points="61.34,-19.11 50.75,-19.5 59.27,-25.79 61.34,-19.11"/>
</a>
</g>
</g>
<!-- Node6 -->
<g id="Node000006" class="node">
<title>Node6</title>
<g id="a_Node000006"><a xlink:title=" ">
<polygon fill="#e0e0e0" stroke="#999999" points="122.38,-20.75 66.62,-20.75 66.62,0 122.38,0 122.38,-20.75"/>
<text text-anchor="middle" x="94.5" y="-7.25" font-family="Helvetica,sans-Serif" font-size="10.00">optional</text>
</a>
</g>
</g>
<!-- Node4&#45;&gt;Node6 -->
<g id="edge5_Node000004_Node000006" class="edge">
<title>Node4&#45;&gt;Node6</title>
<g id="a_edge5_Node000004_Node000006"><a xlink:title=" ">
<path fill="none" stroke="#63b8ff" d="M182.37,-56.34C166.01,-47.97 142.22,-35.79 123.52,-26.22"/>
<polygon fill="#63b8ff" stroke="#63b8ff" points="125.31,-23.21 114.81,-21.77 122.12,-29.44 125.31,-23.21"/>
</a>
</g>
</g>
<!-- Node7 -->
<g id="Node000007" class="node">
<title>Node7</title>
<g id="a_Node000007"><a xlink:title=" ">
<polygon fill="#e0e0e0" stroke="#999999" points="204.5,-20.75 140.5,-20.75 140.5,0 204.5,0 204.5,-20.75"/>
<text text-anchor="middle" x="172.5" y="-7.25" font-family="Helvetica,sans-Serif" font-size="10.00">stdexcept</text>
</a>
</g>
</g>
<!-- Node4&#45;&gt;Node7 -->
<g id="edge6_Node000004_Node000007" class="edge">
<title>Node4&#45;&gt;Node7</title>
<g id="a_edge6_Node000004_Node000007"><a xlink:title=" ">
<path fill="none" stroke="#63b8ff" d="M196.32,-56.34C192.6,-49.33 187.48,-39.66 182.94,-31.08"/>
<polygon fill="#63b8ff" stroke="#63b8ff" points="186.12,-29.61 178.35,-22.42 179.94,-32.89 186.12,-29.61"/>
</a>
</g>
</g>
<!-- Node4&#45;&gt;Node8 -->
<g id="edge7_Node000004_Node000008" class="edge">
<title>Node4&#45;&gt;Node8</title>
<g id="a_edge7_Node000004_Node000008"><a xlink:title=" ">
<path fill="none" stroke="#63b8ff" d="M221.34,-56.34C238.39,-47.93 263.22,-35.68 282.66,-26.09"/>
<polygon fill="#63b8ff" stroke="#63b8ff" points="284.05,-29.31 291.47,-21.75 280.95,-23.03 284.05,-29.31"/>
</a>
</g>
</g>
<!-- Node9 -->
<g id="Node000009" class="node">
<title>Node9</title>
<g id="a_Node000009"><a xlink:title=" ">
<polygon fill="#e0e0e0" stroke="#999999" points="272.75,-20.75 222.25,-20.75 222.25,0 272.75,0 272.75,-20.75"/>
<text text-anchor="middle" x="247.5" y="-7.25" font-family="Helvetica,sans-Serif" font-size="10.00">variant</text>
</a>
</g>
</g>
<!-- Node4&#45;&gt;Node9 -->
<g id="edge8_Node000004_Node000009" class="edge">
<title>Node4&#45;&gt;Node9</title>
<g id="a_edge8_Node000004_Node000009"><a xlink:title=" ">
<path fill="none" stroke="#63b8ff" d="M209.72,-56.34C215.94,-48.94 224.65,-38.57 232.14,-29.66"/>
<polygon fill="#63b8ff" stroke="#63b8ff" points="234.62,-32.15 238.37,-22.24 229.26,-27.64 234.62,-32.15"/>
</a>
</g>
</g>
</g>
</svg>
