<?xml version="1.0" encoding="UTF-8" standalone="no"?>
<!DOCTYPE svg PUBLIC "-//W3C//DTD SVG 1.1//EN"
 "http://www.w3.org/Graphics/SVG/1.1/DTD/svg11.dtd">
<!-- Generated by graphviz version 12.2.1 (0)
 -->
<!-- Title: src/lib/Utils/Platform/PlatformInfoFactory.cpp Pages: 1 -->
<svg width="667pt" height="281pt"
 viewBox="0.00 0.00 667.25 281.25" xmlns="http://www.w3.org/2000/svg" xmlns:xlink="http://www.w3.org/1999/xlink">
<g id="graph0" class="graph" transform="scale(1 1) rotate(0) translate(4 277.25)">
<title>src/lib/Utils/Platform/PlatformInfoFactory.cpp</title>
<!-- Node1 -->
<g id="Node000001" class="node">
<title>Node1</title>
<g id="a_Node000001"><a xlink:title=" ">
<polygon fill="#999999" stroke="#666666" points="446.12,-273.25 312.38,-273.25 312.38,-239.75 446.12,-239.75 446.12,-273.25"/>
<text text-anchor="start" x="320.38" y="-259.75" font-family="Helvetica,sans-Serif" font-size="10.00">src/lib/Utils/Platform</text>
<text text-anchor="middle" x="379.25" y="-247" font-family="Helvetica,sans-Serif" font-size="10.00">/PlatformInfoFactory.cpp</text>
</a>
</g>
</g>
<!-- Node2 -->
<g id="Node000002" class="node">
<title>Node2</title>
<g id="a_Node000002"><a xlink:href="PlatformInfoFactory_8hpp.html" target="_top" xlink:title=" ">
<polygon fill="white" stroke="#666666" points="600,-203.75 468.5,-203.75 468.5,-183 600,-183 600,-203.75"/>
<text text-anchor="middle" x="534.25" y="-190.25" font-family="Helvetica,sans-Serif" font-size="10.00">PlatformInfoFactory.hpp</text>
</a>
</g>
</g>
<!-- Node1&#45;&gt;Node2 -->
<g id="edge1_Node000001_Node000002" class="edge">
<title>Node1&#45;&gt;Node2</title>
<g id="a_edge1_Node000001_Node000002"><a xlink:title=" ">
<path fill="none" stroke="#63b8ff" d="M420.38,-239.28C444.85,-229.63 475.57,-217.52 498.93,-208.3"/>
<polygon fill="#63b8ff" stroke="#63b8ff" points="500,-211.64 508.02,-204.72 497.43,-205.13 500,-211.64"/>
</a>
</g>
</g>
<!-- Node7 -->
<g id="Node000007" class="node">
<title>Node7</title>
<g id="a_Node000007"><a xlink:title=" ">
<polygon fill="#e0e0e0" stroke="#999999" points="659.25,-20.75 595.25,-20.75 595.25,0 659.25,0 659.25,-20.75"/>
<text text-anchor="middle" x="627.25" y="-7.25" font-family="Helvetica,sans-Serif" font-size="10.00">stdexcept</text>
</a>
</g>
</g>
<!-- Node1&#45;&gt;Node7 -->
<g id="edge19_Node000001_Node000007" class="edge">
<title>Node1&#45;&gt;Node7</title>
<g id="a_edge19_Node000001_Node000007"><a xlink:title=" ">
<path fill="none" stroke="#63b8ff" d="M446.6,-249.06C506.59,-241.83 588.06,-227.84 609.25,-203.75 651.94,-155.22 640.56,-70.76 632.33,-31.95"/>
<polygon fill="#63b8ff" stroke="#63b8ff" points="635.77,-31.3 630.12,-22.33 628.94,-32.86 635.77,-31.3"/>
</a>
</g>
</g>
<!-- Node12 -->
<g id="Node000012" class="node">
<title>Node12</title>
<g id="a_Node000012"><a xlink:href="EmscriptenPlatformInfo_8hpp.html" target="_top" xlink:title=" ">
<polygon fill="white" stroke="#666666" points="152.5,-203.75 0,-203.75 0,-183 152.5,-183 152.5,-203.75"/>
<text text-anchor="middle" x="76.25" y="-190.25" font-family="Helvetica,sans-Serif" font-size="10.00">EmscriptenPlatformInfo.hpp</text>
</a>
</g>
</g>
<!-- Node1&#45;&gt;Node12 -->
<g id="edge13_Node000001_Node000012" class="edge">
<title>Node1&#45;&gt;Node12</title>
<g id="a_edge13_Node000001_Node000012"><a xlink:title=" ">
<path fill="none" stroke="#63b8ff" d="M312,-241.93C259.33,-231.31 186.72,-216.66 136.05,-206.44"/>
<polygon fill="#63b8ff" stroke="#63b8ff" points="136.93,-203.04 126.43,-204.5 135.54,-209.91 136.93,-203.04"/>
</a>
</g>
</g>
<!-- Node13 -->
<g id="Node000013" class="node">
<title>Node13</title>
<g id="a_Node000013"><a xlink:href="UnixPlatformInfo_8hpp.html" target="_top" xlink:title=" ">
<polygon fill="white" stroke="#666666" points="290.38,-203.75 170.12,-203.75 170.12,-183 290.38,-183 290.38,-203.75"/>
<text text-anchor="middle" x="230.25" y="-190.25" font-family="Helvetica,sans-Serif" font-size="10.00">UnixPlatformInfo.hpp</text>
</a>
</g>
</g>
<!-- Node1&#45;&gt;Node13 -->
<g id="edge15_Node000001_Node000013" class="edge">
<title>Node1&#45;&gt;Node13</title>
<g id="a_edge15_Node000001_Node000013"><a xlink:title=" ">
<path fill="none" stroke="#63b8ff" d="M339.71,-239.28C316.3,-229.68 286.93,-217.63 264.51,-208.43"/>
<polygon fill="#63b8ff" stroke="#63b8ff" points="266.09,-205.3 255.51,-204.74 263.44,-211.77 266.09,-205.3"/>
</a>
</g>
</g>
<!-- Node14 -->
<g id="Node000014" class="node">
<title>Node14</title>
<g id="a_Node000014"><a xlink:href="WindowsPlatformInfo_8hpp.html" target="_top" xlink:title=" ">
<polygon fill="white" stroke="#666666" points="450.25,-203.75 308.25,-203.75 308.25,-183 450.25,-183 450.25,-203.75"/>
<text text-anchor="middle" x="379.25" y="-190.25" font-family="Helvetica,sans-Serif" font-size="10.00">WindowsPlatformInfo.hpp</text>
</a>
</g>
</g>
<!-- Node1&#45;&gt;Node14 -->
<g id="edge17_Node000001_Node000014" class="edge">
<title>Node1&#45;&gt;Node14</title>
<g id="a_edge17_Node000001_Node000014"><a xlink:title=" ">
<path fill="none" stroke="#63b8ff" d="M379.25,-239.44C379.25,-232.1 379.25,-223.32 379.25,-215.46"/>
<polygon fill="#63b8ff" stroke="#63b8ff" points="382.75,-215.73 379.25,-205.73 375.75,-215.73 382.75,-215.73"/>
</a>
</g>
</g>
<!-- Node3 -->
<g id="Node000003" class="node">
<title>Node3</title>
<g id="a_Node000003"><a xlink:href="IPlatformInfo_8hpp.html" target="_top" xlink:title=" ">
<polygon fill="white" stroke="#666666" points="445,-147 313.5,-147 313.5,-113.5 445,-113.5 445,-147"/>
<text text-anchor="start" x="321.5" y="-133.5" font-family="Helvetica,sans-Serif" font-size="10.00">Utils/Platform/IPlatform</text>
<text text-anchor="middle" x="379.25" y="-120.75" font-family="Helvetica,sans-Serif" font-size="10.00">Info.hpp</text>
</a>
</g>
</g>
<!-- Node2&#45;&gt;Node3 -->
<g id="edge2_Node000002_Node000003" class="edge">
<title>Node2&#45;&gt;Node3</title>
<g id="a_edge2_Node000002_Node000003"><a xlink:title=" ">
<path fill="none" stroke="#63b8ff" d="M509.35,-182.55C488.29,-174.25 457.42,-162.08 431.03,-151.67"/>
<polygon fill="#63b8ff" stroke="#63b8ff" points="432.41,-148.45 421.83,-148.04 429.85,-154.96 432.41,-148.45"/>
</a>
</g>
</g>
<!-- Node11 -->
<g id="Node000011" class="node">
<title>Node11</title>
<g id="a_Node000011"><a xlink:title=" ">
<polygon fill="#e0e0e0" stroke="#999999" points="562.88,-140.62 505.62,-140.62 505.62,-119.88 562.88,-119.88 562.88,-140.62"/>
<text text-anchor="middle" x="534.25" y="-127.12" font-family="Helvetica,sans-Serif" font-size="10.00">memory</text>
</a>
</g>
</g>
<!-- Node2&#45;&gt;Node11 -->
<g id="edge12_Node000002_Node000011" class="edge">
<title>Node2&#45;&gt;Node11</title>
<g id="a_edge12_Node000002_Node000011"><a xlink:title=" ">
<path fill="none" stroke="#63b8ff" d="M534.25,-182.55C534.25,-174.4 534.25,-162.51 534.25,-152.23"/>
<polygon fill="#63b8ff" stroke="#63b8ff" points="537.75,-152.36 534.25,-142.36 530.75,-152.36 537.75,-152.36"/>
</a>
</g>
</g>
<!-- Node4 -->
<g id="Node000004" class="node">
<title>Node4</title>
<g id="a_Node000004"><a xlink:href="UtilsError_8hpp.html" target="_top" xlink:title=" ">
<polygon fill="white" stroke="#666666" points="538,-77.5 430.5,-77.5 430.5,-56.75 538,-56.75 538,-77.5"/>
<text text-anchor="middle" x="484.25" y="-64" font-family="Helvetica,sans-Serif" font-size="10.00">Utils/UtilsError.hpp</text>
</a>
</g>
</g>
<!-- Node3&#45;&gt;Node4 -->
<g id="edge3_Node000003_Node000004" class="edge">
<title>Node3&#45;&gt;Node4</title>
<g id="a_edge3_Node000003_Node000004"><a xlink:title=" ">
<path fill="none" stroke="#63b8ff" d="M407.11,-113.03C422.86,-103.86 442.44,-92.47 457.93,-83.45"/>
<polygon fill="#63b8ff" stroke="#63b8ff" points="459.24,-86.73 466.12,-78.68 455.72,-80.68 459.24,-86.73"/>
</a>
</g>
</g>
<!-- Node5 -->
<g id="Node000005" class="node">
<title>Node5</title>
<g id="a_Node000005"><a xlink:title=" ">
<polygon fill="#e0e0e0" stroke="#999999" points="355.75,-20.75 306.75,-20.75 306.75,0 355.75,0 355.75,-20.75"/>
<text text-anchor="middle" x="331.25" y="-7.25" font-family="Helvetica,sans-Serif" font-size="10.00">cstdint</text>
</a>
</g>
</g>
<!-- Node3&#45;&gt;Node5 -->
<g id="edge9_Node000003_Node000005" class="edge">
<title>Node3&#45;&gt;Node5</title>
<g id="a_edge9_Node000003_Node000005"><a xlink:title=" ">
<path fill="none" stroke="#63b8ff" d="M361.52,-113.32C352.27,-103.89 341.77,-91.14 336.25,-77.5 330.49,-63.27 329.38,-45.91 329.63,-32.56"/>
<polygon fill="#63b8ff" stroke="#63b8ff" points="333.12,-32.88 330.11,-22.72 326.13,-32.54 333.12,-32.88"/>
</a>
</g>
</g>
<!-- Node8 -->
<g id="Node000008" class="node">
<title>Node8</title>
<g id="a_Node000008"><a xlink:title=" ">
<polygon fill="#e0e0e0" stroke="#999999" points="575.12,-20.75 531.38,-20.75 531.38,0 575.12,0 575.12,-20.75"/>
<text text-anchor="middle" x="553.25" y="-7.25" font-family="Helvetica,sans-Serif" font-size="10.00">string</text>
</a>
</g>
</g>
<!-- Node3&#45;&gt;Node8 -->
<g id="edge11_Node000003_Node000008" class="edge">
<title>Node3&#45;&gt;Node8</title>
<g id="a_edge11_Node000003_Node000008"><a xlink:title=" ">
<path fill="none" stroke="#63b8ff" d="M445.22,-126.07C480.98,-120.68 522.75,-107.73 547.25,-77.5 557.36,-65.03 558.24,-46.57 556.95,-32.32"/>
<polygon fill="#63b8ff" stroke="#63b8ff" points="560.45,-32.07 555.64,-22.64 553.52,-33.02 560.45,-32.07"/>
</a>
</g>
</g>
<!-- Node10 -->
<g id="Node000010" class="node">
<title>Node10</title>
<g id="a_Node000010"><a xlink:title=" ">
<polygon fill="#e0e0e0" stroke="#999999" points="412.75,-77.5 345.75,-77.5 345.75,-56.75 412.75,-56.75 412.75,-77.5"/>
<text text-anchor="middle" x="379.25" y="-64" font-family="Helvetica,sans-Serif" font-size="10.00">filesystem</text>
</a>
</g>
</g>
<!-- Node3&#45;&gt;Node10 -->
<g id="edge10_Node000003_Node000010" class="edge">
<title>Node3&#45;&gt;Node10</title>
<g id="a_edge10_Node000003_Node000010"><a xlink:title=" ">
<path fill="none" stroke="#63b8ff" d="M379.25,-113.19C379.25,-105.85 379.25,-97.07 379.25,-89.21"/>
<polygon fill="#63b8ff" stroke="#63b8ff" points="382.75,-89.48 379.25,-79.48 375.75,-89.48 382.75,-89.48"/>
</a>
</g>
</g>
<!-- Node4&#45;&gt;Node5 -->
<g id="edge4_Node000004_Node000005" class="edge">
<title>Node4&#45;&gt;Node5</title>
<g id="a_edge4_Node000004_Node000005"><a xlink:title=" ">
<path fill="none" stroke="#63b8ff" d="M456.9,-56.34C431.66,-47.31 394.06,-33.85 366.57,-24.01"/>
<polygon fill="#63b8ff" stroke="#63b8ff" points="367.86,-20.76 357.27,-20.68 365.5,-27.35 367.86,-20.76"/>
</a>
</g>
</g>
<!-- Node6 -->
<g id="Node000006" class="node">
<title>Node6</title>
<g id="a_Node000006"><a xlink:title=" ">
<polygon fill="#e0e0e0" stroke="#999999" points="442.12,-20.75 386.38,-20.75 386.38,0 442.12,0 442.12,-20.75"/>
<text text-anchor="middle" x="414.25" y="-7.25" font-family="Helvetica,sans-Serif" font-size="10.00">optional</text>
</a>
</g>
</g>
<!-- Node4&#45;&gt;Node6 -->
<g id="edge5_Node000004_Node000006" class="edge">
<title>Node4&#45;&gt;Node6</title>
<g id="a_edge5_Node000004_Node000006"><a xlink:title=" ">
<path fill="none" stroke="#63b8ff" d="M471.74,-56.34C461.68,-48.47 447.34,-37.25 435.49,-27.99"/>
<polygon fill="#63b8ff" stroke="#63b8ff" points="437.88,-25.41 427.85,-22.01 433.57,-30.93 437.88,-25.41"/>
</a>
</g>
</g>
<!-- Node4&#45;&gt;Node7 -->
<g id="edge6_Node000004_Node000007" class="edge">
<title>Node4&#45;&gt;Node7</title>
<g id="a_edge6_Node000004_Node000007"><a xlink:title=" ">
<path fill="none" stroke="#63b8ff" d="M509.82,-56.34C532.49,-47.66 565.85,-34.88 591.23,-25.17"/>
<polygon fill="#63b8ff" stroke="#63b8ff" points="592.4,-28.46 600.49,-21.62 589.9,-21.93 592.4,-28.46"/>
</a>
</g>
</g>
<!-- Node4&#45;&gt;Node8 -->
<g id="edge7_Node000004_Node000008" class="edge">
<title>Node4&#45;&gt;Node8</title>
<g id="a_edge7_Node000004_Node000008"><a xlink:title=" ">
<path fill="none" stroke="#63b8ff" d="M496.59,-56.34C506.5,-48.47 520.64,-37.25 532.31,-27.99"/>
<polygon fill="#63b8ff" stroke="#63b8ff" points="534.18,-30.98 539.84,-22.02 529.83,-25.49 534.18,-30.98"/>
</a>
</g>
</g>
<!-- Node9 -->
<g id="Node000009" class="node">
<title>Node9</title>
<g id="a_Node000009"><a xlink:title=" ">
<polygon fill="#e0e0e0" stroke="#999999" points="510.5,-20.75 460,-20.75 460,0 510.5,0 510.5,-20.75"/>
<text text-anchor="middle" x="485.25" y="-7.25" font-family="Helvetica,sans-Serif" font-size="10.00">variant</text>
</a>
</g>
</g>
<!-- Node4&#45;&gt;Node9 -->
<g id="edge8_Node000004_Node000009" class="edge">
<title>Node4&#45;&gt;Node9</title>
<g id="a_edge8_Node000004_Node000009"><a xlink:title=" ">
<path fill="none" stroke="#63b8ff" d="M484.43,-56.34C484.55,-49.72 484.71,-40.72 484.86,-32.52"/>
<polygon fill="#63b8ff" stroke="#63b8ff" points="488.36,-32.65 485.05,-22.59 481.36,-32.53 488.36,-32.65"/>
</a>
</g>
</g>
<!-- Node12&#45;&gt;Node3 -->
<g id="edge14_Node000012_Node000003" class="edge">
<title>Node12&#45;&gt;Node3</title>
<g id="a_edge14_Node000012_Node000003"><a xlink:title=" ">
<path fill="none" stroke="#63b8ff" d="M124.93,-182.55C172.67,-172.92 246.18,-158.09 301.92,-146.85"/>
<polygon fill="#63b8ff" stroke="#63b8ff" points="302.58,-150.29 311.69,-144.88 301.2,-143.43 302.58,-150.29"/>
</a>
</g>
</g>
<!-- Node13&#45;&gt;Node3 -->
<g id="edge16_Node000013_Node000003" class="edge">
<title>Node13&#45;&gt;Node3</title>
<g id="a_edge16_Node000013_Node000003"><a xlink:title=" ">
<path fill="none" stroke="#63b8ff" d="M254.19,-182.55C274.34,-174.29 303.85,-162.18 329.13,-151.81"/>
<polygon fill="#63b8ff" stroke="#63b8ff" points="330.35,-155.09 338.28,-148.06 327.69,-148.62 330.35,-155.09"/>
</a>
</g>
</g>
<!-- Node14&#45;&gt;Node3 -->
<g id="edge18_Node000014_Node000003" class="edge">
<title>Node14&#45;&gt;Node3</title>
<g id="a_edge18_Node000014_Node000003"><a xlink:title=" ">
<path fill="none" stroke="#63b8ff" d="M379.25,-182.55C379.25,-176.13 379.25,-167.4 379.25,-158.95"/>
<polygon fill="#63b8ff" stroke="#63b8ff" points="382.75,-159 379.25,-149 375.75,-159 382.75,-159"/>
</a>
</g>
</g>
</g>
</svg>
