<?xml version="1.0" encoding="UTF-8" standalone="no"?>
<!DOCTYPE svg PUBLIC "-//W3C//DTD SVG 1.1//EN"
 "http://www.w3.org/Graphics/SVG/1.1/DTD/svg11.dtd">
<!-- Generated by graphviz version 12.2.1 (0)
 -->
<!-- Title: src/lib/Utils/String/StringFormatter.cpp Pages: 1 -->
<svg width="299pt" height="212pt"
 viewBox="0.00 0.00 298.88 211.75" xmlns="http://www.w3.org/2000/svg" xmlns:xlink="http://www.w3.org/1999/xlink">
<g id="graph0" class="graph" transform="scale(1 1) rotate(0) translate(4 207.75)">
<title>src/lib/Utils/String/StringFormatter.cpp</title>
<!-- Node1 -->
<g id="Node000001" class="node">
<title>Node1</title>
<g id="a_Node000001"><a xlink:title=" ">
<polygon fill="#999999" stroke="#666666" points="249.88,-203.75 134.88,-203.75 134.88,-170.25 249.88,-170.25 249.88,-203.75"/>
<text text-anchor="start" x="142.88" y="-190.25" font-family="Helvetica,sans-Serif" font-size="10.00">src/lib/Utils/String</text>
<text text-anchor="middle" x="192.38" y="-177.5" font-family="Helvetica,sans-Serif" font-size="10.00">/StringFormatter.cpp</text>
</a>
</g>
</g>
<!-- Node2 -->
<g id="Node000002" class="node">
<title>Node2</title>
<g id="a_Node000002"><a xlink:href="StringFormatter_8hpp.html" target="_top" xlink:title=" ">
<polygon fill="white" stroke="#666666" points="142.75,-134.25 30,-134.25 30,-113.5 142.75,-113.5 142.75,-134.25"/>
<text text-anchor="middle" x="86.38" y="-120.75" font-family="Helvetica,sans-Serif" font-size="10.00">StringFormatter.hpp</text>
</a>
</g>
</g>
<!-- Node1&#45;&gt;Node2 -->
<g id="edge1_Node000001_Node000002" class="edge">
<title>Node1&#45;&gt;Node2</title>
<g id="a_edge1_Node000001_Node000002"><a xlink:title=" ">
<path fill="none" stroke="#63b8ff" d="M164.25,-169.78C148.35,-160.61 128.59,-149.22 112.95,-140.2"/>
<polygon fill="#63b8ff" stroke="#63b8ff" points="115.07,-137.38 104.66,-135.42 111.58,-143.45 115.07,-137.38"/>
</a>
</g>
</g>
<!-- Node5 -->
<g id="Node000005" class="node">
<title>Node5</title>
<g id="a_Node000005"><a xlink:title=" ">
<polygon fill="#e0e0e0" stroke="#999999" points="224,-134.25 160.75,-134.25 160.75,-113.5 224,-113.5 224,-134.25"/>
<text text-anchor="middle" x="192.38" y="-120.75" font-family="Helvetica,sans-Serif" font-size="10.00">algorithm</text>
</a>
</g>
</g>
<!-- Node1&#45;&gt;Node5 -->
<g id="edge4_Node000001_Node000005" class="edge">
<title>Node1&#45;&gt;Node5</title>
<g id="a_edge4_Node000001_Node000005"><a xlink:title=" ">
<path fill="none" stroke="#63b8ff" d="M192.38,-169.94C192.38,-162.6 192.38,-153.82 192.38,-145.96"/>
<polygon fill="#63b8ff" stroke="#63b8ff" points="195.88,-146.23 192.38,-136.23 188.88,-146.23 195.88,-146.23"/>
</a>
</g>
</g>
<!-- Node6 -->
<g id="Node000006" class="node">
<title>Node6</title>
<g id="a_Node000006"><a xlink:title=" ">
<polygon fill="#e0e0e0" stroke="#999999" points="290.88,-134.25 241.88,-134.25 241.88,-113.5 290.88,-113.5 290.88,-134.25"/>
<text text-anchor="middle" x="266.38" y="-120.75" font-family="Helvetica,sans-Serif" font-size="10.00">ranges</text>
</a>
</g>
</g>
<!-- Node1&#45;&gt;Node6 -->
<g id="edge5_Node000001_Node000006" class="edge">
<title>Node1&#45;&gt;Node6</title>
<g id="a_edge5_Node000001_Node000006"><a xlink:title=" ">
<path fill="none" stroke="#63b8ff" d="M211.82,-169.94C222.28,-161.3 235.19,-150.63 245.82,-141.85"/>
<polygon fill="#63b8ff" stroke="#63b8ff" points="247.81,-144.75 253.29,-135.68 243.35,-139.35 247.81,-144.75"/>
</a>
</g>
</g>
<!-- Node3 -->
<g id="Node000003" class="node">
<title>Node3</title>
<g id="a_Node000003"><a xlink:href="IStringFormatter_8hpp.html" target="_top" xlink:title=" ">
<polygon fill="white" stroke="#666666" points="172.75,-77.5 0,-77.5 0,-56.75 172.75,-56.75 172.75,-77.5"/>
<text text-anchor="middle" x="86.38" y="-64" font-family="Helvetica,sans-Serif" font-size="10.00">Utils/String/IStringFormatter.hpp</text>
</a>
</g>
</g>
<!-- Node2&#45;&gt;Node3 -->
<g id="edge2_Node000002_Node000003" class="edge">
<title>Node2&#45;&gt;Node3</title>
<g id="a_edge2_Node000002_Node000003"><a xlink:title=" ">
<path fill="none" stroke="#63b8ff" d="M86.38,-113.09C86.38,-106.47 86.38,-97.47 86.38,-89.27"/>
<polygon fill="#63b8ff" stroke="#63b8ff" points="89.88,-89.34 86.38,-79.34 82.88,-89.34 89.88,-89.34"/>
</a>
</g>
</g>
<!-- Node4 -->
<g id="Node000004" class="node">
<title>Node4</title>
<g id="a_Node000004"><a xlink:title=" ">
<polygon fill="#e0e0e0" stroke="#999999" points="108.25,-20.75 64.5,-20.75 64.5,0 108.25,0 108.25,-20.75"/>
<text text-anchor="middle" x="86.38" y="-7.25" font-family="Helvetica,sans-Serif" font-size="10.00">string</text>
</a>
</g>
</g>
<!-- Node3&#45;&gt;Node4 -->
<g id="edge3_Node000003_Node000004" class="edge">
<title>Node3&#45;&gt;Node4</title>
<g id="a_edge3_Node000003_Node000004"><a xlink:title=" ">
<path fill="none" stroke="#63b8ff" d="M86.38,-56.34C86.38,-49.72 86.38,-40.72 86.38,-32.52"/>
<polygon fill="#63b8ff" stroke="#63b8ff" points="89.88,-32.59 86.38,-22.59 82.88,-32.59 89.88,-32.59"/>
</a>
</g>
</g>
</g>
</svg>
