<?xml version="1.0" encoding="UTF-8" standalone="no"?>
<!DOCTYPE svg PUBLIC "-//W3C//DTD SVG 1.1//EN"
 "http://www.w3.org/Graphics/SVG/1.1/DTD/svg11.dtd">
<!-- Generated by graphviz version 12.2.1 (0)
 -->
<!-- Title: nixoncpp::logging::LoggerConfig Pages: 1 -->
<svg width="141pt" height="142pt"
 viewBox="0.00 0.00 140.75 142.00" xmlns="http://www.w3.org/2000/svg" xmlns:xlink="http://www.w3.org/1999/xlink">
<g id="graph0" class="graph" transform="scale(1 1) rotate(0) translate(4 138)">
<title>nixoncpp::logging::LoggerConfig</title>
<!-- Node1 -->
<g id="Node000001" class="node">
<title>Node1</title>
<g id="a_Node000001"><a xlink:title="Configuration options for creating a logger.">
<polygon fill="#999999" stroke="none" points="132.75,-134 0,-134 0,0 132.75,0 132.75,-134"/>
<text text-anchor="start" x="20.62" y="-120.5" font-family="Helvetica,sans-Serif" font-size="10.00">nixoncpp::logging::</text>
<text text-anchor="start" x="34.5" y="-107.75" font-family="Helvetica,sans-Serif" font-size="10.00">LoggerConfig</text>
<text text-anchor="start" x="4" y="-91" font-family="Helvetica,sans-Serif" font-size="10.00">+</text>
<text text-anchor="start" x="16.25" y="-91" font-family="Helvetica,sans-Serif" font-size="10.00">Level level</text>
<text text-anchor="start" x="4" y="-74.25" font-family="Helvetica,sans-Serif" font-size="10.00">+</text>
<text text-anchor="start" x="16.25" y="-74.25" font-family="Helvetica,sans-Serif" font-size="10.00">bool enableFileLogging</text>
<text text-anchor="start" x="4" y="-57.5" font-family="Helvetica,sans-Serif" font-size="10.00">+</text>
<text text-anchor="start" x="16.25" y="-57.5" font-family="Helvetica,sans-Serif" font-size="10.00">std::string logFilePath</text>
<text text-anchor="start" x="4" y="-40.75" font-family="Helvetica,sans-Serif" font-size="10.00">+</text>
<text text-anchor="start" x="16.25" y="-40.75" font-family="Helvetica,sans-Serif" font-size="10.00">bool colorOutput</text>
<text text-anchor="start" x="4" y="-24" font-family="Helvetica,sans-Serif" font-size="10.00">+</text>
<text text-anchor="start" x="16.25" y="-24" font-family="Helvetica,sans-Serif" font-size="10.00">std::string appPrefix</text>
<text text-anchor="start" x="64.88" y="-7.25" font-family="Helvetica,sans-Serif" font-size="10.00"> </text>
<polygon fill="#666666" stroke="#666666" points="0,-102.5 0,-102.5 132.75,-102.5 132.75,-102.5 0,-102.5"/>
<polygon fill="#666666" stroke="#666666" points="0,-18.75 0,-18.75 14.25,-18.75 14.25,-18.75 0,-18.75"/>
<polygon fill="#666666" stroke="#666666" points="14.25,-18.75 14.25,-18.75 132.75,-18.75 132.75,-18.75 14.25,-18.75"/>
<polygon fill="none" stroke="#666666" points="0,0 0,-134 132.75,-134 132.75,0 0,0"/>
</a>
</g>
</g>
</g>
</svg>
