<?xml version="1.0" encoding="UTF-8" standalone="no"?>
<!DOCTYPE svg PUBLIC "-//W3C//DTD SVG 1.1//EN"
 "http://www.w3.org/Graphics/SVG/1.1/DTD/svg11.dtd">
<!-- Generated by graphviz version 12.2.1 (0)
 -->
<!-- Title: nixoncpp::utils::JsonError Pages: 1 -->
<svg width="136pt" height="109pt"
 viewBox="0.00 0.00 136.00 108.50" xmlns="http://www.w3.org/2000/svg" xmlns:xlink="http://www.w3.org/1999/xlink">
<g id="graph0" class="graph" transform="scale(1 1) rotate(0) translate(4 104.5)">
<title>nixoncpp::utils::JsonError</title>
<!-- Node1 -->
<g id="Node000001" class="node">
<title>Node1</title>
<g id="a_Node000001"><a xlink:title=" ">
<polygon fill="#999999" stroke="none" points="128,-100.5 0,-100.5 0,0 128,0 128,-100.5"/>
<text text-anchor="start" x="4" y="-87" font-family="Helvetica,sans-Serif" font-size="10.00">nixoncpp::utils::JsonError</text>
<text text-anchor="start" x="6.94" y="-70.25" font-family="Helvetica,sans-Serif" font-size="10.00">+</text>
<text text-anchor="start" x="22.12" y="-70.25" font-family="Helvetica,sans-Serif" font-size="10.00">JsonErrorCode code</text>
<text text-anchor="start" x="6.94" y="-53.5" font-family="Helvetica,sans-Serif" font-size="10.00">+</text>
<text text-anchor="start" x="22.12" y="-53.5" font-family="Helvetica,sans-Serif" font-size="10.00">std::string message</text>
<text text-anchor="start" x="6.94" y="-36.75" font-family="Helvetica,sans-Serif" font-size="10.00">+</text>
<text text-anchor="start" x="22.12" y="-36.75" font-family="Helvetica,sans-Serif" font-size="10.00">std::string details</text>
<text text-anchor="start" x="6.94" y="-20" font-family="Helvetica,sans-Serif" font-size="10.00">+</text>
<text text-anchor="start" x="22.12" y="-20" font-family="Helvetica,sans-Serif" font-size="10.00">std::string toString</text>
<text text-anchor="start" x="22.12" y="-7.25" font-family="Helvetica,sans-Serif" font-size="10.00">() const</text>
<polygon fill="#666666" stroke="#666666" points="0,-81.75 0,-81.75 128,-81.75 128,-81.75 0,-81.75"/>
<polygon fill="#666666" stroke="#666666" points="0,-31.5 0,-31.5 20.12,-31.5 20.12,-31.5 0,-31.5"/>
<polygon fill="#666666" stroke="#666666" points="20.12,-31.5 20.12,-31.5 128,-31.5 128,-31.5 20.12,-31.5"/>
<polygon fill="none" stroke="#666666" points="0,0 0,-100.5 128,-100.5 128,0 0,0"/>
</a>
</g>
</g>
</g>
</svg>
