<?xml version="1.0" encoding="UTF-8" standalone="no"?>
<!DOCTYPE svg PUBLIC "-//W3C//DTD SVG 1.1//EN"
 "http://www.w3.org/Graphics/SVG/1.1/DTD/svg11.dtd">
<!-- Generated by graphviz version 12.2.1 (0)
 -->
<!-- Title: src/lib/Utils/Platform/UnixPlatformInfo.hpp Pages: 1 -->
<svg width="282pt" height="111pt"
 viewBox="0.00 0.00 282.12 111.00" xmlns="http://www.w3.org/2000/svg" xmlns:xlink="http://www.w3.org/1999/xlink">
<g id="graph0" class="graph" transform="scale(1 1) rotate(0) translate(4 107)">
<title>src/lib/Utils/Platform/UnixPlatformInfo.hpp</title>
<!-- Node1 -->
<g id="Node000001" class="node">
<title>Node1</title>
<g id="a_Node000001"><a xlink:title=" ">
<polygon fill="#999999" stroke="#666666" points="201.5,-103 78.25,-103 78.25,-69.5 201.5,-69.5 201.5,-103"/>
<text text-anchor="start" x="86.25" y="-89.5" font-family="Helvetica,sans-Serif" font-size="10.00">src/lib/Utils/Platform</text>
<text text-anchor="middle" x="139.88" y="-76.75" font-family="Helvetica,sans-Serif" font-size="10.00">/UnixPlatformInfo.hpp</text>
</a>
</g>
</g>
<!-- Node2 -->
<g id="Node000002" class="node">
<title>Node2</title>
<g id="a_Node000002"><a xlink:href="PlatformInfoFactory_8cpp.html" target="_top" xlink:title=" ">
<polygon fill="white" stroke="#666666" points="133.75,-33.5 0,-33.5 0,0 133.75,0 133.75,-33.5"/>
<text text-anchor="start" x="8" y="-20" font-family="Helvetica,sans-Serif" font-size="10.00">src/lib/Utils/Platform</text>
<text text-anchor="middle" x="66.88" y="-7.25" font-family="Helvetica,sans-Serif" font-size="10.00">/PlatformInfoFactory.cpp</text>
</a>
</g>
</g>
<!-- Node1&#45;&gt;Node2 -->
<g id="edge1_Node000001_Node000002" class="edge">
<title>Node1&#45;&gt;Node2</title>
<g id="a_edge1_Node000001_Node000002"><a xlink:title=" ">
<path fill="none" stroke="#63b8ff" d="M114.25,-61.56C104.35,-52.4 93.26,-42.15 84.3,-33.87"/>
<polygon fill="#63b8ff" stroke="#63b8ff" points="111.75,-64.01 121.46,-68.23 116.5,-58.87 111.75,-64.01"/>
</a>
</g>
</g>
<!-- Node3 -->
<g id="Node000003" class="node">
<title>Node3</title>
<g id="a_Node000003"><a xlink:href="UnixPlatformInfo_8cpp.html" target="_top" xlink:title=" ">
<polygon fill="white" stroke="#666666" points="274.12,-33.5 151.62,-33.5 151.62,0 274.12,0 274.12,-33.5"/>
<text text-anchor="start" x="159.62" y="-20" font-family="Helvetica,sans-Serif" font-size="10.00">src/lib/Utils/Platform</text>
<text text-anchor="middle" x="212.88" y="-7.25" font-family="Helvetica,sans-Serif" font-size="10.00">/UnixPlatformInfo.cpp</text>
</a>
</g>
</g>
<!-- Node1&#45;&gt;Node3 -->
<g id="edge2_Node000001_Node000003" class="edge">
<title>Node1&#45;&gt;Node3</title>
<g id="a_edge2_Node000001_Node000003"><a xlink:title=" ">
<path fill="none" stroke="#63b8ff" d="M165.5,-61.56C175.4,-52.4 186.49,-42.15 195.45,-33.87"/>
<polygon fill="#63b8ff" stroke="#63b8ff" points="163.25,-58.87 158.29,-68.23 168,-64.01 163.25,-58.87"/>
</a>
</g>
</g>
</g>
</svg>
