<?xml version="1.0" encoding="UTF-8" standalone="no"?>
<!DOCTYPE svg PUBLIC "-//W3C//DTD SVG 1.1//EN"
 "http://www.w3.org/Graphics/SVG/1.1/DTD/svg11.dtd">
<!-- Generated by graphviz version 12.2.1 (0)
 -->
<!-- Title: src/lib/Utils/UtilsFactory.hpp Pages: 1 -->
<svg width="385pt" height="155pt"
 viewBox="0.00 0.00 384.75 155.00" xmlns="http://www.w3.org/2000/svg" xmlns:xlink="http://www.w3.org/1999/xlink">
<g id="graph0" class="graph" transform="scale(1 1) rotate(0) translate(4 151)">
<title>src/lib/Utils/UtilsFactory.hpp</title>
<!-- Node1 -->
<g id="Node000001" class="node">
<title>Node1</title>
<g id="a_Node000001"><a xlink:title=" ">
<polygon fill="#999999" stroke="#666666" points="226.12,-147 75.12,-147 75.12,-126.25 226.12,-126.25 226.12,-147"/>
<text text-anchor="middle" x="150.62" y="-133.5" font-family="Helvetica,sans-Serif" font-size="10.00">src/lib/Utils/UtilsFactory.hpp</text>
</a>
</g>
</g>
<!-- Node2 -->
<g id="Node000002" class="node">
<title>Node2</title>
<g id="a_Node000002"><a xlink:href="NixonCppLib_8hpp.html" target="_top" xlink:title=" ">
<polygon fill="white" stroke="#666666" points="208.12,-90.25 93.12,-90.25 93.12,-56.75 208.12,-56.75 208.12,-90.25"/>
<text text-anchor="start" x="101.12" y="-76.75" font-family="Helvetica,sans-Serif" font-size="10.00">include/NixonCppLib</text>
<text text-anchor="middle" x="150.62" y="-64" font-family="Helvetica,sans-Serif" font-size="10.00">/NixonCppLib.hpp</text>
</a>
</g>
</g>
<!-- Node1&#45;&gt;Node2 -->
<g id="edge1_Node000001_Node000002" class="edge">
<title>Node1&#45;&gt;Node2</title>
<g id="a_edge1_Node000001_Node000002"><a xlink:title=" ">
<path fill="none" stroke="#63b8ff" d="M150.62,-114.34C150.62,-106.6 150.62,-97.97 150.62,-90.73"/>
<polygon fill="#63b8ff" stroke="#63b8ff" points="147.13,-114.29 150.63,-124.29 154.13,-114.29 147.13,-114.29"/>
</a>
</g>
</g>
<!-- Node3 -->
<g id="Node000003" class="node">
<title>Node3</title>
<g id="a_Node000003"><a xlink:href="Application_8cpp.html" target="_top" xlink:title=" ">
<polygon fill="white" stroke="#666666" points="129.25,-20.75 0,-20.75 0,0 129.25,0 129.25,-20.75"/>
<text text-anchor="middle" x="64.62" y="-7.25" font-family="Helvetica,sans-Serif" font-size="10.00">src/app/Application.cpp</text>
</a>
</g>
</g>
<!-- Node1&#45;&gt;Node3 -->
<g id="edge4_Node000001_Node000003" class="edge">
<title>Node1&#45;&gt;Node3</title>
<g id="a_edge4_Node000001_Node000003"><a xlink:title=" ">
<path fill="none" stroke="#63b8ff" d="M118.76,-120.14C106.44,-112.68 93.26,-102.64 84.62,-90.25 69.61,-68.69 65.85,-36.82 64.92,-21.01"/>
<polygon fill="#63b8ff" stroke="#63b8ff" points="117.04,-123.19 127.47,-125.05 120.48,-117.09 117.04,-123.19"/>
</a>
</g>
</g>
<!-- Node5 -->
<g id="Node000005" class="node">
<title>Node5</title>
<g id="a_Node000005"><a xlink:href="UtilsFactory_8cpp.html" target="_top" xlink:title=" ">
<polygon fill="white" stroke="#666666" points="376.75,-83.88 226.5,-83.88 226.5,-63.12 376.75,-63.12 376.75,-83.88"/>
<text text-anchor="middle" x="301.62" y="-70.38" font-family="Helvetica,sans-Serif" font-size="10.00">src/lib/Utils/UtilsFactory.cpp</text>
</a>
</g>
</g>
<!-- Node1&#45;&gt;Node5 -->
<g id="edge5_Node000001_Node000005" class="edge">
<title>Node1&#45;&gt;Node5</title>
<g id="a_edge5_Node000001_Node000005"><a xlink:title=" ">
<path fill="none" stroke="#63b8ff" d="M185.48,-121.52C213.65,-110.11 252.57,-94.36 277.42,-84.3"/>
<polygon fill="#63b8ff" stroke="#63b8ff" points="184.24,-118.24 176.29,-125.24 186.87,-124.73 184.24,-118.24"/>
</a>
</g>
</g>
<!-- Node2&#45;&gt;Node3 -->
<g id="edge2_Node000002_Node000003" class="edge">
<title>Node2&#45;&gt;Node3</title>
<g id="a_edge2_Node000002_Node000003"><a xlink:title=" ">
<path fill="none" stroke="#63b8ff" d="M118.76,-49.85C104.88,-39.99 89.33,-28.94 78.47,-21.22"/>
<polygon fill="#63b8ff" stroke="#63b8ff" points="116.62,-52.62 126.8,-55.56 120.67,-46.92 116.62,-52.62"/>
</a>
</g>
</g>
<!-- Node4 -->
<g id="Node000004" class="node">
<title>Node4</title>
<g id="a_Node000004"><a xlink:href="NixonCppLib_8cpp.html" target="_top" xlink:title=" ">
<polygon fill="white" stroke="#666666" points="276.25,-20.75 147,-20.75 147,0 276.25,0 276.25,-20.75"/>
<text text-anchor="middle" x="211.62" y="-7.25" font-family="Helvetica,sans-Serif" font-size="10.00">src/lib/NixonCppLib.cpp</text>
</a>
</g>
</g>
<!-- Node2&#45;&gt;Node4 -->
<g id="edge3_Node000002_Node000004" class="edge">
<title>Node2&#45;&gt;Node4</title>
<g id="a_edge3_Node000002_Node000004"><a xlink:title=" ">
<path fill="none" stroke="#63b8ff" d="M174.65,-48.42C184.13,-38.93 194.47,-28.56 201.8,-21.22"/>
<polygon fill="#63b8ff" stroke="#63b8ff" points="172.31,-45.82 167.72,-55.37 177.26,-50.76 172.31,-45.82"/>
</a>
</g>
</g>
</g>
</svg>
