<?xml version="1.0" encoding="UTF-8" standalone="no"?>
<!DOCTYPE svg PUBLIC "-//W3C//DTD SVG 1.1//EN"
 "http://www.w3.org/Graphics/SVG/1.1/DTD/svg11.dtd">
<!-- Generated by graphviz version 12.2.1 (0)
 -->
<!-- Title: src/lib/Utils/UtilsError.hpp Pages: 1 -->
<!--zoomable 294 -->

<svg id="main" version="1.1" xmlns="http://www.w3.org/2000/svg" xmlns:xlink="http://www.w3.org/1999/xlink" xml:space="preserve" onload="init(evt)">

<style type="text/css"><![CDATA[
.node, .edge {opacity: 0.7;}
.node.selected, .edge.selected {opacity: 1;}
.edge:hover path { stroke: red; }
.edge:hover polygon { stroke: red; fill: red; }
]]></style>

<defs>
  <circle id="rim" cx="0" cy="0" r="7"/>
  <circle id="rim2" cx="0" cy="0" r="3.5"/>
  <g id="zoomPlus">
    <use xlink:href="#rim" fill="#404040"><set attributeName="fill" to="#808080" begin="zoomplus.mouseover" end="zoomplus.mouseout"/></use>
    <path d="M-4,0h8M0,-4v8" fill="none" stroke="white" stroke-width="1.5" pointer-events="none"/>
  </g>
  <g id="zoomMin">
    <use xlink:href="#rim" fill="#404040"><set attributeName="fill" to="#808080" begin="zoomminus.mouseover" end="zoomminus.mouseout"/></use>
    <path d="M-4,0h8" fill="none" stroke="white" stroke-width="1.5" pointer-events="none"/>
  </g>
  <g id="arrowUp" transform="translate(30 24)">
    <use xlink:href="#rim"/>
    <path pointer-events="none" fill="none" stroke="white" stroke-width="1.5" d="M0,-3.0v7 M-2.5,-0.5L0,-3.0L2.5,-0.5"/>
  </g>
  <g id="arrowRight" transform="rotate(90) translate(36 -43)">
    <use xlink:href="#rim"/>
    <path pointer-events="none" fill="none" stroke="white" stroke-width="1.5" d="M0,-3.0v7 M-2.5,-0.5L0,-3.0L2.5,-0.5"/>
  </g>
  <g id="arrowDown" transform="rotate(180) translate(-30 -48)">
    <use xlink:href="#rim"/>
    <path pointer-events="none" fill="none" stroke="white" stroke-width="1.5" d="M0,-3.0v7 M-2.5,-0.5L0,-3.0L2.5,-0.5"/>
  </g>
  <g id="arrowLeft" transform="rotate(270) translate(-36 17)">
    <use xlink:href="#rim"/>
    <path pointer-events="none" fill="none" stroke="white" stroke-width="1.5" d="M0,-3.0v7 M-2.5,-0.5L0,-3.0L2.5,-0.5"/>
  </g>
  <g id="resetDef">
    <use xlink:href="#rim2" fill="#404040"><set attributeName="fill" to="#808080" begin="reset.mouseover" end="reset.mouseout"/></use>
  </g>
</defs>
<script type="application/ecmascript">
var viewWidth = 1974;
var viewHeight = 294;
var sectionId = 'dynsection-1';
</script>
<script type="application/ecmascript" xlink:href="svg.min.js"/>
<svg id="graph" class="graph">
<g id="viewport">
<title>src/lib/Utils/UtilsError.hpp</title>
<!-- Node1 -->
<g id="Node000001" class="node">
<title>Node1</title>
<g id="a_Node000001"><a xlink:title=" ">
<polygon fill="#999999" stroke="#666666" points="879.38,-286 739.62,-286 739.62,-265.25 879.38,-265.25 879.38,-286"/>
<text text-anchor="middle" x="809.5" y="-272.5" font-family="Helvetica,sans-Serif" font-size="10.00">src/lib/Utils/UtilsError.hpp</text>
</a>
</g>
</g>
<!-- Node2 -->
<g id="Node000002" class="node">
<title>Node2</title>
<g id="a_Node000002"><a xlink:href="IDirectoryManager_8hpp.html" target="_top" xlink:title=" ">
<polygon fill="white" stroke="#666666" points="591.5,-229.25 461.5,-229.25 461.5,-195.75 591.5,-195.75 591.5,-229.25"/>
<text text-anchor="start" x="469.5" y="-215.75" font-family="Helvetica,sans-Serif" font-size="10.00">src/lib/Utils/Filesystem</text>
<text text-anchor="middle" x="526.5" y="-203" font-family="Helvetica,sans-Serif" font-size="10.00">/IDirectoryManager.hpp</text>
</a>
</g>
</g>
<!-- Node1&#45;&gt;Node2 -->
<g id="edge1_Node000001_Node000002" class="edge">
<title>Node1&#45;&gt;Node2</title>
<g id="a_edge1_Node000001_Node000002"><a xlink:title=" ">
<path fill="none" stroke="#63b8ff" d="M752.95,-262.41C706.49,-252.38 640.63,-238.15 591.9,-227.63"/>
<polygon fill="#63b8ff" stroke="#63b8ff" points="752.04,-265.79 762.55,-264.48 753.52,-258.95 752.04,-265.79"/>
</a>
</g>
</g>
<!-- Node10 -->
<g id="Node000010" class="node">
<title>Node10</title>
<g id="a_Node000010"><a xlink:href="IFileReader_8hpp.html" target="_top" xlink:title=" ">
<polygon fill="white" stroke="#666666" points="443,-229.25 316,-229.25 316,-195.75 443,-195.75 443,-229.25"/>
<text text-anchor="start" x="324" y="-215.75" font-family="Helvetica,sans-Serif" font-size="10.00">src/lib/Utils/Filesystem</text>
<text text-anchor="middle" x="379.5" y="-203" font-family="Helvetica,sans-Serif" font-size="10.00">/IFileReader.hpp</text>
</a>
</g>
</g>
<!-- Node1&#45;&gt;Node10 -->
<g id="edge11_Node000001_Node000010" class="edge">
<title>Node1&#45;&gt;Node10</title>
<g id="a_edge11_Node000001_Node000010"><a xlink:title=" ">
<path fill="none" stroke="#63b8ff" d="M728.14,-266.3C655.59,-258.4 546.61,-245.35 452.5,-229.25 449.43,-228.73 446.3,-228.16 443.14,-227.57"/>
<polygon fill="#63b8ff" stroke="#63b8ff" points="727.64,-269.77 737.96,-267.36 728.39,-262.81 727.64,-269.77"/>
</a>
</g>
</g>
<!-- Node16 -->
<g id="Node000016" class="node">
<title>Node16</title>
<g id="a_Node000016"><a xlink:href="IFileWriter_8hpp.html" target="_top" xlink:title=" ">
<polygon fill="white" stroke="#666666" points="737,-229.25 610,-229.25 610,-195.75 737,-195.75 737,-229.25"/>
<text text-anchor="start" x="618" y="-215.75" font-family="Helvetica,sans-Serif" font-size="10.00">src/lib/Utils/Filesystem</text>
<text text-anchor="middle" x="673.5" y="-203" font-family="Helvetica,sans-Serif" font-size="10.00">/IFileWriter.hpp</text>
</a>
</g>
</g>
<!-- Node1&#45;&gt;Node16 -->
<g id="edge20_Node000001_Node000016" class="edge">
<title>Node1&#45;&gt;Node16</title>
<g id="a_edge20_Node000001_Node000016"><a xlink:title=" ">
<path fill="none" stroke="#63b8ff" d="M777.33,-260.17C756.99,-251.03 730.67,-239.2 709.62,-229.73"/>
<polygon fill="#63b8ff" stroke="#63b8ff" points="775.71,-263.28 786.27,-264.18 778.58,-256.89 775.71,-263.28"/>
</a>
</g>
</g>
<!-- Node19 -->
<g id="Node000019" class="node">
<title>Node19</title>
<g id="a_Node000019"><a xlink:href="IPathResolver_8hpp.html" target="_top" xlink:title=" ">
<polygon fill="white" stroke="#666666" points="1009,-229.25 882,-229.25 882,-195.75 1009,-195.75 1009,-229.25"/>
<text text-anchor="start" x="890" y="-215.75" font-family="Helvetica,sans-Serif" font-size="10.00">src/lib/Utils/Filesystem</text>
<text text-anchor="middle" x="945.5" y="-203" font-family="Helvetica,sans-Serif" font-size="10.00">/IPathResolver.hpp</text>
</a>
</g>
</g>
<!-- Node1&#45;&gt;Node19 -->
<g id="edge26_Node000001_Node000019" class="edge">
<title>Node1&#45;&gt;Node19</title>
<g id="a_edge26_Node000001_Node000019"><a xlink:title=" ">
<path fill="none" stroke="#63b8ff" d="M841.67,-260.17C862.01,-251.03 888.33,-239.2 909.38,-229.73"/>
<polygon fill="#63b8ff" stroke="#63b8ff" points="840.42,-256.89 832.73,-264.18 843.29,-263.28 840.42,-256.89"/>
</a>
</g>
</g>
<!-- Node22 -->
<g id="Node000022" class="node">
<title>Node22</title>
<g id="a_Node000022"><a xlink:href="ICustomStringsLoader_8hpp.html" target="_top" xlink:title=" ">
<polygon fill="white" stroke="#666666" points="1173.75,-229.25 1027.25,-229.25 1027.25,-195.75 1173.75,-195.75 1173.75,-229.25"/>
<text text-anchor="start" x="1035.25" y="-215.75" font-family="Helvetica,sans-Serif" font-size="10.00">src/lib/Utils/Json</text>
<text text-anchor="middle" x="1100.5" y="-203" font-family="Helvetica,sans-Serif" font-size="10.00">/ICustomStringsLoader.hpp</text>
</a>
</g>
</g>
<!-- Node1&#45;&gt;Node22 -->
<g id="edge31_Node000001_Node000022" class="edge">
<title>Node1&#45;&gt;Node22</title>
<g id="a_edge31_Node000001_Node000022"><a xlink:title=" ">
<path fill="none" stroke="#63b8ff" d="M867.48,-262.45C913.27,-252.83 977.47,-239.34 1026.88,-228.96"/>
<polygon fill="#63b8ff" stroke="#63b8ff" points="866.8,-259.01 857.74,-264.49 868.24,-265.86 866.8,-259.01"/>
</a>
</g>
</g>
<!-- Node25 -->
<g id="Node000025" class="node">
<title>Node25</title>
<g id="a_Node000025"><a xlink:href="IJsonSerializer_8hpp.html" target="_top" xlink:title=" ">
<polygon fill="white" stroke="#666666" points="863.62,-229.25 755.38,-229.25 755.38,-195.75 863.62,-195.75 863.62,-229.25"/>
<text text-anchor="start" x="763.38" y="-215.75" font-family="Helvetica,sans-Serif" font-size="10.00">src/lib/Utils/Json</text>
<text text-anchor="middle" x="809.5" y="-203" font-family="Helvetica,sans-Serif" font-size="10.00">/IJsonSerializer.hpp</text>
</a>
</g>
</g>
<!-- Node1&#45;&gt;Node25 -->
<g id="edge36_Node000001_Node000025" class="edge">
<title>Node1&#45;&gt;Node25</title>
<g id="a_edge36_Node000001_Node000025"><a xlink:title=" ">
<path fill="none" stroke="#63b8ff" d="M809.5,-253.34C809.5,-245.6 809.5,-236.97 809.5,-229.73"/>
<polygon fill="#63b8ff" stroke="#63b8ff" points="806,-253.29 809.5,-263.29 813,-253.29 806,-253.29"/>
</a>
</g>
</g>
<!-- Node26 -->
<g id="Node000026" class="node">
<title>Node26</title>
<g id="a_Node000026"><a xlink:href="IPlatformInfo_8hpp.html" target="_top" xlink:title=" ">
<polygon fill="white" stroke="#666666" points="1363.38,-229.25 1247.62,-229.25 1247.62,-195.75 1363.38,-195.75 1363.38,-229.25"/>
<text text-anchor="start" x="1255.62" y="-215.75" font-family="Helvetica,sans-Serif" font-size="10.00">src/lib/Utils/Platform</text>
<text text-anchor="middle" x="1305.5" y="-203" font-family="Helvetica,sans-Serif" font-size="10.00">/IPlatformInfo.hpp</text>
</a>
</g>
</g>
<!-- Node1&#45;&gt;Node26 -->
<g id="edge40_Node000001_Node000026" class="edge">
<title>Node1&#45;&gt;Node26</title>
<g id="a_edge40_Node000001_Node000026"><a xlink:title=" ">
<path fill="none" stroke="#63b8ff" d="M890.95,-264.87C966.53,-255.78 1082.14,-241.78 1182.5,-229.25 1203.65,-226.61 1226.84,-223.66 1247.32,-221.03"/>
<polygon fill="#63b8ff" stroke="#63b8ff" points="890.65,-261.38 881.14,-266.05 891.49,-268.33 890.65,-261.38"/>
</a>
</g>
</g>
<!-- Node3 -->
<g id="Node000003" class="node">
<title>Node3</title>
<g id="a_Node000003"><a xlink:href="DirectoryManager_8hpp.html" target="_top" xlink:title=" ">
<polygon fill="white" stroke="#666666" points="439,-159.75 312,-159.75 312,-126.25 439,-126.25 439,-159.75"/>
<text text-anchor="start" x="320" y="-146.25" font-family="Helvetica,sans-Serif" font-size="10.00">src/lib/Utils/Filesystem</text>
<text text-anchor="middle" x="375.5" y="-133.5" font-family="Helvetica,sans-Serif" font-size="10.00">/DirectoryManager.hpp</text>
</a>
</g>
</g>
<!-- Node2&#45;&gt;Node3 -->
<g id="edge2_Node000002_Node000003" class="edge">
<title>Node2&#45;&gt;Node3</title>
<g id="a_edge2_Node000002_Node000003"><a xlink:title=" ">
<path fill="none" stroke="#63b8ff" d="M479.89,-190.67C457.92,-180.84 432.1,-169.3 411.63,-160.15"/>
<polygon fill="#63b8ff" stroke="#63b8ff" points="478.39,-193.83 488.95,-194.71 481.25,-187.44 478.39,-193.83"/>
</a>
</g>
</g>
<!-- Node6 -->
<g id="Node000006" class="node">
<title>Node6</title>
<g id="a_Node000006"><a xlink:href="UtilsFactory_8hpp.html" target="_top" xlink:title=" ">
<polygon fill="white" stroke="#666666" points="876,-153.38 725,-153.38 725,-132.62 876,-132.62 876,-153.38"/>
<text text-anchor="middle" x="800.5" y="-139.88" font-family="Helvetica,sans-Serif" font-size="10.00">src/lib/Utils/UtilsFactory.hpp</text>
</a>
</g>
</g>
<!-- Node2&#45;&gt;Node6 -->
<g id="edge5_Node000002_Node000006" class="edge">
<title>Node2&#45;&gt;Node6</title>
<g id="a_edge5_Node000002_Node000006"><a xlink:title=" ">
<path fill="none" stroke="#63b8ff" d="M602.82,-192.7C654.07,-180.07 719.52,-163.95 760.73,-153.8"/>
<polygon fill="#63b8ff" stroke="#63b8ff" points="602.12,-189.27 593.25,-195.06 603.8,-196.06 602.12,-189.27"/>
</a>
</g>
</g>
<!-- Node4 -->
<g id="Node000004" class="node">
<title>Node4</title>
<g id="a_Node000004"><a xlink:href="DirectoryManager_8cpp.html" target="_top" xlink:title=" ">
<polygon fill="white" stroke="#666666" points="425,-90.25 298,-90.25 298,-56.75 425,-56.75 425,-90.25"/>
<text text-anchor="start" x="306" y="-76.75" font-family="Helvetica,sans-Serif" font-size="10.00">src/lib/Utils/Filesystem</text>
<text text-anchor="middle" x="361.5" y="-64" font-family="Helvetica,sans-Serif" font-size="10.00">/DirectoryManager.cpp</text>
</a>
</g>
</g>
<!-- Node3&#45;&gt;Node4 -->
<g id="edge3_Node000003_Node000004" class="edge">
<title>Node3&#45;&gt;Node4</title>
<g id="a_edge3_Node000003_Node000004"><a xlink:title=" ">
<path fill="none" stroke="#63b8ff" d="M369.87,-114.85C368.15,-106.54 366.31,-97.68 364.79,-90.38"/>
<polygon fill="#63b8ff" stroke="#63b8ff" points="366.42,-115.44 371.87,-124.52 373.27,-114.02 366.42,-115.44"/>
</a>
</g>
</g>
<!-- Node5 -->
<g id="Node000005" class="node">
<title>Node5</title>
<g id="a_Node000005"><a xlink:href="UtilsFactory_8cpp.html" target="_top" xlink:title=" ">
<polygon fill="white" stroke="#666666" points="1032.62,-83.88 882.38,-83.88 882.38,-63.12 1032.62,-63.12 1032.62,-83.88"/>
<text text-anchor="middle" x="957.5" y="-70.38" font-family="Helvetica,sans-Serif" font-size="10.00">src/lib/Utils/UtilsFactory.cpp</text>
</a>
</g>
</g>
<!-- Node3&#45;&gt;Node5 -->
<g id="edge4_Node000003_Node000005" class="edge">
<title>Node3&#45;&gt;Node5</title>
<g id="a_edge4_Node000003_Node000005"><a xlink:title=" ">
<path fill="none" stroke="#63b8ff" d="M450.48,-126.09C637.97,-98.87 689.33,-115.25 873.5,-90.25 885.26,-88.65 897.88,-86.52 909.66,-84.33"/>
<polygon fill="#63b8ff" stroke="#63b8ff" points="449.99,-122.63 440.61,-127.55 451.01,-129.55 449.99,-122.63"/>
</a>
</g>
</g>
<!-- Node6&#45;&gt;Node5 -->
<g id="edge10_Node000006_Node000005" class="edge">
<title>Node6&#45;&gt;Node5</title>
<g id="a_edge10_Node000006_Node000005"><a xlink:title=" ">
<path fill="none" stroke="#63b8ff" d="M833.83,-127.67C864.16,-114.63 908.12,-95.73 934.64,-84.33"/>
<polygon fill="#63b8ff" stroke="#63b8ff" points="832.52,-124.42 824.72,-131.59 835.29,-130.85 832.52,-124.42"/>
</a>
</g>
</g>
<!-- Node7 -->
<g id="Node000007" class="node">
<title>Node7</title>
<g id="a_Node000007"><a xlink:href="NixonCppLib_8hpp.html" target="_top" xlink:title=" ">
<polygon fill="white" stroke="#666666" points="864,-90.25 749,-90.25 749,-56.75 864,-56.75 864,-90.25"/>
<text text-anchor="start" x="757" y="-76.75" font-family="Helvetica,sans-Serif" font-size="10.00">include/NixonCppLib</text>
<text text-anchor="middle" x="806.5" y="-64" font-family="Helvetica,sans-Serif" font-size="10.00">/NixonCppLib.hpp</text>
</a>
</g>
</g>
<!-- Node6&#45;&gt;Node7 -->
<g id="edge6_Node000006_Node000007" class="edge">
<title>Node6&#45;&gt;Node7</title>
<g id="a_edge6_Node000006_Node000007"><a xlink:title=" ">
<path fill="none" stroke="#63b8ff" d="M802.36,-121.13C803.23,-111.32 804.25,-99.8 805.06,-90.67"/>
<polygon fill="#63b8ff" stroke="#63b8ff" points="798.89,-120.55 801.49,-130.82 805.87,-121.17 798.89,-120.55"/>
</a>
</g>
</g>
<!-- Node8 -->
<g id="Node000008" class="node">
<title>Node8</title>
<g id="a_Node000008"><a xlink:href="Application_8cpp.html" target="_top" xlink:title=" ">
<polygon fill="white" stroke="#666666" points="785.12,-20.75 655.88,-20.75 655.88,0 785.12,0 785.12,-20.75"/>
<text text-anchor="middle" x="720.5" y="-7.25" font-family="Helvetica,sans-Serif" font-size="10.00">src/app/Application.cpp</text>
</a>
</g>
</g>
<!-- Node6&#45;&gt;Node8 -->
<g id="edge9_Node000006_Node000008" class="edge">
<title>Node6&#45;&gt;Node8</title>
<g id="a_edge9_Node000006_Node000008"><a xlink:title=" ">
<path fill="none" stroke="#63b8ff" d="M775.26,-125.75C763.07,-116.69 749.23,-104.38 740.5,-90.25 726.68,-67.9 722.39,-36.39 721.07,-20.83"/>
<polygon fill="#63b8ff" stroke="#63b8ff" points="773.12,-128.53 783.31,-131.43 777.16,-122.81 773.12,-128.53"/>
</a>
</g>
</g>
<!-- Node7&#45;&gt;Node8 -->
<g id="edge7_Node000007_Node000008" class="edge">
<title>Node7&#45;&gt;Node8</title>
<g id="a_edge7_Node000007_Node000008"><a xlink:title=" ">
<path fill="none" stroke="#63b8ff" d="M774.64,-49.85C760.75,-39.99 745.21,-28.94 734.35,-21.22"/>
<polygon fill="#63b8ff" stroke="#63b8ff" points="772.49,-52.62 782.67,-55.56 776.55,-46.92 772.49,-52.62"/>
</a>
</g>
</g>
<!-- Node9 -->
<g id="Node000009" class="node">
<title>Node9</title>
<g id="a_Node000009"><a xlink:href="NixonCppLib_8cpp.html" target="_top" xlink:title=" ">
<polygon fill="white" stroke="#666666" points="932.12,-20.75 802.88,-20.75 802.88,0 932.12,0 932.12,-20.75"/>
<text text-anchor="middle" x="867.5" y="-7.25" font-family="Helvetica,sans-Serif" font-size="10.00">src/lib/NixonCppLib.cpp</text>
</a>
</g>
</g>
<!-- Node7&#45;&gt;Node9 -->
<g id="edge8_Node000007_Node000009" class="edge">
<title>Node7&#45;&gt;Node9</title>
<g id="a_edge8_Node000007_Node000009"><a xlink:title=" ">
<path fill="none" stroke="#63b8ff" d="M830.53,-48.42C840,-38.93 850.35,-28.56 857.68,-21.22"/>
<polygon fill="#63b8ff" stroke="#63b8ff" points="828.18,-45.82 823.6,-55.37 833.14,-50.76 828.18,-45.82"/>
</a>
</g>
</g>
<!-- Node10&#45;&gt;Node6 -->
<g id="edge19_Node000010_Node000006" class="edge">
<title>Node10&#45;&gt;Node6</title>
<g id="a_edge19_Node000010_Node000006"><a xlink:title=" ">
<path fill="none" stroke="#63b8ff" d="M454.33,-195.52C571.05,-175.43 603.14,-178.09 716.5,-159.75 727.49,-157.97 739.24,-155.88 750.38,-153.82"/>
<polygon fill="#63b8ff" stroke="#63b8ff" points="453.89,-192.04 444.64,-197.21 455.09,-198.94 453.89,-192.04"/>
</a>
</g>
</g>
<!-- Node11 -->
<g id="Node000011" class="node">
<title>Node11</title>
<g id="a_Node000011"><a xlink:href="FileReader_8hpp.html" target="_top" xlink:title=" ">
<polygon fill="white" stroke="#666666" points="285,-159.75 158,-159.75 158,-126.25 285,-126.25 285,-159.75"/>
<text text-anchor="start" x="166" y="-146.25" font-family="Helvetica,sans-Serif" font-size="10.00">src/lib/Utils/Filesystem</text>
<text text-anchor="middle" x="221.5" y="-133.5" font-family="Helvetica,sans-Serif" font-size="10.00">/FileReader.hpp</text>
</a>
</g>
</g>
<!-- Node10&#45;&gt;Node11 -->
<g id="edge12_Node000010_Node000011" class="edge">
<title>Node10&#45;&gt;Node11</title>
<g id="a_edge12_Node000010_Node000011"><a xlink:title=" ">
<path fill="none" stroke="#63b8ff" d="M331.36,-190.93C308.23,-181.05 280.92,-169.38 259.31,-160.15"/>
<polygon fill="#63b8ff" stroke="#63b8ff" points="329.69,-194.03 340.26,-194.74 332.44,-187.59 329.69,-194.03"/>
</a>
</g>
</g>
<!-- Node14 -->
<g id="Node000014" class="node">
<title>Node14</title>
<g id="a_Node000014"><a xlink:href="JsonSerializer_8hpp.html" target="_top" xlink:title=" ">
<polygon fill="white" stroke="#666666" points="707.12,-159.75 601.88,-159.75 601.88,-126.25 707.12,-126.25 707.12,-159.75"/>
<text text-anchor="start" x="609.88" y="-146.25" font-family="Helvetica,sans-Serif" font-size="10.00">src/lib/Utils/Json</text>
<text text-anchor="middle" x="654.5" y="-133.5" font-family="Helvetica,sans-Serif" font-size="10.00">/JsonSerializer.hpp</text>
</a>
</g>
</g>
<!-- Node10&#45;&gt;Node14 -->
<g id="edge16_Node000010_Node000014" class="edge">
<title>Node10&#45;&gt;Node14</title>
<g id="a_edge16_Node000010_Node000014"><a xlink:title=" ">
<path fill="none" stroke="#63b8ff" d="M454.26,-193.72C495.39,-183.86 547.3,-171.3 593.5,-159.75 596.15,-159.09 598.87,-158.4 601.61,-157.71"/>
<polygon fill="#63b8ff" stroke="#63b8ff" points="453.62,-190.27 444.71,-196.01 455.25,-197.08 453.62,-190.27"/>
</a>
</g>
</g>
<!-- Node11&#45;&gt;Node5 -->
<g id="edge14_Node000011_Node000005" class="edge">
<title>Node11&#45;&gt;Node5</title>
<g id="a_edge14_Node000011_Node000005"><a xlink:title=" ">
<path fill="none" stroke="#63b8ff" d="M296.51,-127.2C298.86,-126.86 301.2,-126.54 303.5,-126.25 555.31,-94.25 621.62,-121.7 873.5,-90.25 885.57,-88.74 898.53,-86.58 910.57,-84.35"/>
<polygon fill="#63b8ff" stroke="#63b8ff" points="296.23,-123.7 286.88,-128.69 297.3,-130.62 296.23,-123.7"/>
</a>
</g>
</g>
<!-- Node12 -->
<g id="Node000012" class="node">
<title>Node12</title>
<g id="a_Node000012"><a xlink:href="FileReader_8cpp.html" target="_top" xlink:title=" ">
<polygon fill="white" stroke="#666666" points="127,-90.25 0,-90.25 0,-56.75 127,-56.75 127,-90.25"/>
<text text-anchor="start" x="8" y="-76.75" font-family="Helvetica,sans-Serif" font-size="10.00">src/lib/Utils/Filesystem</text>
<text text-anchor="middle" x="63.5" y="-64" font-family="Helvetica,sans-Serif" font-size="10.00">/FileReader.cpp</text>
</a>
</g>
</g>
<!-- Node11&#45;&gt;Node12 -->
<g id="edge13_Node000011_Node000012" class="edge">
<title>Node11&#45;&gt;Node12</title>
<g id="a_edge13_Node000011_Node000012"><a xlink:title=" ">
<path fill="none" stroke="#63b8ff" d="M173.36,-121.43C150.23,-111.55 122.92,-99.88 101.31,-90.65"/>
<polygon fill="#63b8ff" stroke="#63b8ff" points="171.69,-124.53 182.26,-125.24 174.44,-118.09 171.69,-124.53"/>
</a>
</g>
</g>
<!-- Node13 -->
<g id="Node000013" class="node">
<title>Node13</title>
<g id="a_Node000013"><a xlink:href="FileReaderTest_8cpp.html" target="_top" xlink:title=" ">
<polygon fill="white" stroke="#666666" points="279.75,-83.88 145.25,-83.88 145.25,-63.12 279.75,-63.12 279.75,-83.88"/>
<text text-anchor="middle" x="212.5" y="-70.38" font-family="Helvetica,sans-Serif" font-size="10.00">tests/FileReaderTest.cpp</text>
</a>
</g>
</g>
<!-- Node11&#45;&gt;Node13 -->
<g id="edge15_Node000011_Node000013" class="edge">
<title>Node11&#45;&gt;Node13</title>
<g id="a_edge15_Node000011_Node000013"><a xlink:title=" ">
<path fill="none" stroke="#63b8ff" d="M217.88,-114.88C216.44,-104.08 214.88,-92.35 213.81,-84.32"/>
<polygon fill="#63b8ff" stroke="#63b8ff" points="214.38,-115.05 219.17,-124.5 221.31,-114.13 214.38,-115.05"/>
</a>
</g>
</g>
<!-- Node14&#45;&gt;Node5 -->
<g id="edge18_Node000014_Node000005" class="edge">
<title>Node14&#45;&gt;Node5</title>
<g id="a_edge18_Node000014_Node000005"><a xlink:title=" ">
<path fill="none" stroke="#63b8ff" d="M718.65,-125.79C790.66,-109.05 863.02,-93.83 909.37,-84.28"/>
<polygon fill="#63b8ff" stroke="#63b8ff" points="717.98,-122.35 709.04,-128.04 719.58,-129.17 717.98,-122.35"/>
</a>
</g>
</g>
<!-- Node15 -->
<g id="Node000015" class="node">
<title>Node15</title>
<g id="a_Node000015"><a xlink:href="JsonSerializer_8cpp.html" target="_top" xlink:title=" ">
<polygon fill="white" stroke="#666666" points="692.75,-90.25 588.25,-90.25 588.25,-56.75 692.75,-56.75 692.75,-90.25"/>
<text text-anchor="start" x="596.25" y="-76.75" font-family="Helvetica,sans-Serif" font-size="10.00">src/lib/Utils/Json</text>
<text text-anchor="middle" x="640.5" y="-64" font-family="Helvetica,sans-Serif" font-size="10.00">/JsonSerializer.cpp</text>
</a>
</g>
</g>
<!-- Node14&#45;&gt;Node15 -->
<g id="edge17_Node000014_Node000015" class="edge">
<title>Node14&#45;&gt;Node15</title>
<g id="a_edge17_Node000014_Node000015"><a xlink:title=" ">
<path fill="none" stroke="#63b8ff" d="M648.87,-114.85C647.15,-106.54 645.31,-97.68 643.79,-90.38"/>
<polygon fill="#63b8ff" stroke="#63b8ff" points="645.42,-115.44 650.87,-124.52 652.27,-114.02 645.42,-115.44"/>
</a>
</g>
</g>
<!-- Node16&#45;&gt;Node6 -->
<g id="edge25_Node000016_Node000006" class="edge">
<title>Node16&#45;&gt;Node6</title>
<g id="a_edge25_Node000016_Node000006"><a xlink:title=" ">
<path fill="none" stroke="#63b8ff" d="M714.05,-189.95C736.92,-177.79 764.38,-163.2 782.12,-153.77"/>
<polygon fill="#63b8ff" stroke="#63b8ff" points="712.44,-186.84 705.26,-194.62 715.73,-193.02 712.44,-186.84"/>
</a>
</g>
</g>
<!-- Node16&#45;&gt;Node14 -->
<g id="edge24_Node000016_Node000014" class="edge">
<title>Node16&#45;&gt;Node14</title>
<g id="a_edge24_Node000016_Node000014"><a xlink:title=" ">
<path fill="none" stroke="#63b8ff" d="M665.94,-184.64C663.58,-176.25 661.05,-167.26 658.97,-159.88"/>
<polygon fill="#63b8ff" stroke="#63b8ff" points="662.51,-185.37 668.59,-194.05 669.25,-183.47 662.51,-185.37"/>
</a>
</g>
</g>
<!-- Node17 -->
<g id="Node000017" class="node">
<title>Node17</title>
<g id="a_Node000017"><a xlink:href="FileWriter_8hpp.html" target="_top" xlink:title=" ">
<polygon fill="white" stroke="#666666" points="584,-159.75 457,-159.75 457,-126.25 584,-126.25 584,-159.75"/>
<text text-anchor="start" x="465" y="-146.25" font-family="Helvetica,sans-Serif" font-size="10.00">src/lib/Utils/Filesystem</text>
<text text-anchor="middle" x="520.5" y="-133.5" font-family="Helvetica,sans-Serif" font-size="10.00">/FileWriter.hpp</text>
</a>
</g>
</g>
<!-- Node16&#45;&gt;Node17 -->
<g id="edge21_Node000016_Node000017" class="edge">
<title>Node16&#45;&gt;Node17</title>
<g id="a_edge21_Node000016_Node000017"><a xlink:title=" ">
<path fill="none" stroke="#63b8ff" d="M626.58,-190.8C604.25,-180.95 577.94,-169.34 557.11,-160.15"/>
<polygon fill="#63b8ff" stroke="#63b8ff" points="624.91,-193.89 635.47,-194.72 627.73,-187.48 624.91,-193.89"/>
</a>
</g>
</g>
<!-- Node17&#45;&gt;Node5 -->
<g id="edge23_Node000017_Node000005" class="edge">
<title>Node17&#45;&gt;Node5</title>
<g id="a_edge23_Node000017_Node000005"><a xlink:title=" ">
<path fill="none" stroke="#63b8ff" d="M595.42,-125.83C718.48,-105.04 752.65,-109.3 873.5,-90.25 884.64,-88.49 896.57,-86.39 907.83,-84.3"/>
<polygon fill="#63b8ff" stroke="#63b8ff" points="595.19,-122.32 585.92,-127.45 596.37,-129.22 595.19,-122.32"/>
</a>
</g>
</g>
<!-- Node18 -->
<g id="Node000018" class="node">
<title>Node18</title>
<g id="a_Node000018"><a xlink:href="FileWriter_8cpp.html" target="_top" xlink:title=" ">
<polygon fill="white" stroke="#666666" points="570,-90.25 443,-90.25 443,-56.75 570,-56.75 570,-90.25"/>
<text text-anchor="start" x="451" y="-76.75" font-family="Helvetica,sans-Serif" font-size="10.00">src/lib/Utils/Filesystem</text>
<text text-anchor="middle" x="506.5" y="-64" font-family="Helvetica,sans-Serif" font-size="10.00">/FileWriter.cpp</text>
</a>
</g>
</g>
<!-- Node17&#45;&gt;Node18 -->
<g id="edge22_Node000017_Node000018" class="edge">
<title>Node17&#45;&gt;Node18</title>
<g id="a_edge22_Node000017_Node000018"><a xlink:title=" ">
<path fill="none" stroke="#63b8ff" d="M514.87,-114.85C513.15,-106.54 511.31,-97.68 509.79,-90.38"/>
<polygon fill="#63b8ff" stroke="#63b8ff" points="511.42,-115.44 516.87,-124.52 518.27,-114.02 511.42,-115.44"/>
</a>
</g>
</g>
<!-- Node19&#45;&gt;Node6 -->
<g id="edge30_Node000019_Node000006" class="edge">
<title>Node19&#45;&gt;Node6</title>
<g id="a_edge30_Node000019_Node000006"><a xlink:title=" ">
<path fill="none" stroke="#63b8ff" d="M900.61,-190.6C874.22,-178.32 842.11,-163.37 821.49,-153.77"/>
<polygon fill="#63b8ff" stroke="#63b8ff" points="898.85,-193.65 909.4,-194.69 901.81,-187.3 898.85,-193.65"/>
</a>
</g>
</g>
<!-- Node20 -->
<g id="Node000020" class="node">
<title>Node20</title>
<g id="a_Node000020"><a xlink:href="PathResolver_8hpp.html" target="_top" xlink:title=" ">
<polygon fill="white" stroke="#666666" points="1021,-159.75 894,-159.75 894,-126.25 1021,-126.25 1021,-159.75"/>
<text text-anchor="start" x="902" y="-146.25" font-family="Helvetica,sans-Serif" font-size="10.00">src/lib/Utils/Filesystem</text>
<text text-anchor="middle" x="957.5" y="-133.5" font-family="Helvetica,sans-Serif" font-size="10.00">/PathResolver.hpp</text>
</a>
</g>
</g>
<!-- Node19&#45;&gt;Node20 -->
<g id="edge27_Node000019_Node000020" class="edge">
<title>Node19&#45;&gt;Node20</title>
<g id="a_edge27_Node000019_Node000020"><a xlink:title=" ">
<path fill="none" stroke="#63b8ff" d="M950.33,-184.35C951.8,-176.04 953.38,-167.18 954.68,-159.88"/>
<polygon fill="#63b8ff" stroke="#63b8ff" points="946.91,-183.55 948.61,-194.01 953.81,-184.78 946.91,-183.55"/>
</a>
</g>
</g>
<!-- Node20&#45;&gt;Node5 -->
<g id="edge29_Node000020_Node000005" class="edge">
<title>Node20&#45;&gt;Node5</title>
<g id="a_edge29_Node000020_Node000005"><a xlink:title=" ">
<path fill="none" stroke="#63b8ff" d="M957.5,-114.53C957.5,-103.83 957.5,-92.26 957.5,-84.32"/>
<polygon fill="#63b8ff" stroke="#63b8ff" points="954,-114.49 957.5,-124.49 961,-114.49 954,-114.49"/>
</a>
</g>
</g>
<!-- Node21 -->
<g id="Node000021" class="node">
<title>Node21</title>
<g id="a_Node000021"><a xlink:href="PathResolver_8cpp.html" target="_top" xlink:title=" ">
<polygon fill="white" stroke="#666666" points="1178,-90.25 1051,-90.25 1051,-56.75 1178,-56.75 1178,-90.25"/>
<text text-anchor="start" x="1059" y="-76.75" font-family="Helvetica,sans-Serif" font-size="10.00">src/lib/Utils/Filesystem</text>
<text text-anchor="middle" x="1114.5" y="-64" font-family="Helvetica,sans-Serif" font-size="10.00">/PathResolver.cpp</text>
</a>
</g>
</g>
<!-- Node20&#45;&gt;Node21 -->
<g id="edge28_Node000020_Node000021" class="edge">
<title>Node20&#45;&gt;Node21</title>
<g id="a_edge28_Node000020_Node000021"><a xlink:title=" ">
<path fill="none" stroke="#63b8ff" d="M1005.65,-121.3C1028.56,-111.45 1055.56,-99.84 1076.93,-90.65"/>
<polygon fill="#63b8ff" stroke="#63b8ff" points="1004.3,-118.07 996.5,-125.23 1007.07,-124.5 1004.3,-118.07"/>
</a>
</g>
</g>
<!-- Node22&#45;&gt;Node6 -->
<g id="edge35_Node000022_Node000006" class="edge">
<title>Node22&#45;&gt;Node6</title>
<g id="a_edge35_Node000022_Node000006"><a xlink:title=" ">
<path fill="none" stroke="#63b8ff" d="M1017.65,-192.86C961.57,-180.24 889.7,-164.07 844.36,-153.87"/>
<polygon fill="#63b8ff" stroke="#63b8ff" points="1016.64,-196.22 1027.17,-195 1018.18,-189.39 1016.64,-196.22"/>
</a>
</g>
</g>
<!-- Node23 -->
<g id="Node000023" class="node">
<title>Node23</title>
<g id="a_Node000023"><a xlink:href="CustomStringsLoader_8hpp.html" target="_top" xlink:title=" ">
<polygon fill="white" stroke="#666666" points="1182.25,-159.75 1038.75,-159.75 1038.75,-126.25 1182.25,-126.25 1182.25,-159.75"/>
<text text-anchor="start" x="1046.75" y="-146.25" font-family="Helvetica,sans-Serif" font-size="10.00">src/lib/Utils/Json</text>
<text text-anchor="middle" x="1110.5" y="-133.5" font-family="Helvetica,sans-Serif" font-size="10.00">/CustomStringsLoader.hpp</text>
</a>
</g>
</g>
<!-- Node22&#45;&gt;Node23 -->
<g id="edge32_Node000022_Node000023" class="edge">
<title>Node22&#45;&gt;Node23</title>
<g id="a_edge32_Node000022_Node000023"><a xlink:title=" ">
<path fill="none" stroke="#63b8ff" d="M1104.52,-184.35C1105.75,-176.04 1107.07,-167.18 1108.15,-159.88"/>
<polygon fill="#63b8ff" stroke="#63b8ff" points="1101.1,-183.6 1103.09,-194.01 1108.02,-184.63 1101.1,-183.6"/>
</a>
</g>
</g>
<!-- Node23&#45;&gt;Node5 -->
<g id="edge34_Node000023_Node000005" class="edge">
<title>Node23&#45;&gt;Node5</title>
<g id="a_edge34_Node000023_Node000005"><a xlink:title=" ">
<path fill="none" stroke="#63b8ff" d="M1063.5,-121.26C1035.59,-108.95 1001.5,-93.91 979.65,-84.27"/>
<polygon fill="#63b8ff" stroke="#63b8ff" points="1061.91,-124.39 1072.47,-125.22 1064.73,-117.98 1061.91,-124.39"/>
</a>
</g>
</g>
<!-- Node24 -->
<g id="Node000024" class="node">
<title>Node24</title>
<g id="a_Node000024"><a xlink:href="CustomStringsLoader_8cpp.html" target="_top" xlink:title=" ">
<polygon fill="white" stroke="#666666" points="1338.88,-90.25 1196.12,-90.25 1196.12,-56.75 1338.88,-56.75 1338.88,-90.25"/>
<text text-anchor="start" x="1204.12" y="-76.75" font-family="Helvetica,sans-Serif" font-size="10.00">src/lib/Utils/Json</text>
<text text-anchor="middle" x="1267.5" y="-64" font-family="Helvetica,sans-Serif" font-size="10.00">/CustomStringsLoader.cpp</text>
</a>
</g>
</g>
<!-- Node23&#45;&gt;Node24 -->
<g id="edge33_Node000023_Node000024" class="edge">
<title>Node23&#45;&gt;Node24</title>
<g id="a_edge33_Node000023_Node000024"><a xlink:title=" ">
<path fill="none" stroke="#63b8ff" d="M1158.65,-121.3C1181.56,-111.45 1208.56,-99.84 1229.93,-90.65"/>
<polygon fill="#63b8ff" stroke="#63b8ff" points="1157.3,-118.07 1149.5,-125.23 1160.07,-124.5 1157.3,-118.07"/>
</a>
</g>
</g>
<!-- Node25&#45;&gt;Node6 -->
<g id="edge39_Node000025_Node000006" class="edge">
<title>Node25&#45;&gt;Node6</title>
<g id="a_edge39_Node000025_Node000006"><a xlink:title=" ">
<path fill="none" stroke="#63b8ff" d="M805.88,-184.38C804.44,-173.58 802.88,-161.85 801.81,-153.82"/>
<polygon fill="#63b8ff" stroke="#63b8ff" points="802.38,-184.55 807.17,-194 809.31,-183.63 802.38,-184.55"/>
</a>
</g>
</g>
<!-- Node25&#45;&gt;Node14 -->
<g id="edge38_Node000025_Node000014" class="edge">
<title>Node25&#45;&gt;Node14</title>
<g id="a_edge38_Node000025_Node000014"><a xlink:title=" ">
<path fill="none" stroke="#63b8ff" d="M761.97,-190.8C739.34,-180.95 712.69,-169.34 691.59,-160.15"/>
<polygon fill="#63b8ff" stroke="#63b8ff" points="760.42,-193.94 770.99,-194.73 763.22,-187.53 760.42,-193.94"/>
</a>
</g>
</g>
<!-- Node25&#45;&gt;Node23 -->
<g id="edge37_Node000025_Node000023" class="edge">
<title>Node25&#45;&gt;Node23</title>
<g id="a_edge37_Node000025_Node000023"><a xlink:title=" ">
<path fill="none" stroke="#63b8ff" d="M874.92,-195.45C935.72,-181.41 993.96,-168.73 1038.31,-159.25"/>
<polygon fill="#63b8ff" stroke="#63b8ff" points="874.37,-191.99 865.42,-197.66 875.95,-198.81 874.37,-191.99"/>
</a>
</g>
</g>
<!-- Node26&#45;&gt;Node5 -->
<g id="edge53_Node000026_Node000005" class="edge">
<title>Node26&#45;&gt;Node5</title>
<g id="a_edge53_Node000026_Node000005"><a xlink:title=" ">
<path fill="none" stroke="#63b8ff" d="M1270.73,-189.15C1257.56,-180.34 1242.59,-169.91 1229.5,-159.75 1211.72,-145.94 1211.57,-136.45 1191.5,-126.25 1175.29,-118.02 1072.18,-96.91 1008.35,-84.34"/>
<polygon fill="#63b8ff" stroke="#63b8ff" points="1268.42,-191.82 1278.69,-194.42 1272.28,-185.98 1268.42,-191.82"/>
</a>
</g>
</g>
<!-- Node26&#45;&gt;Node6 -->
<g id="edge54_Node000026_Node000006" class="edge">
<title>Node26&#45;&gt;Node6</title>
<g id="a_edge54_Node000026_Node000006"><a xlink:title=" ">
<path fill="none" stroke="#63b8ff" d="M1236.04,-202.52C1218.57,-200.29 1199.85,-197.91 1182.5,-195.75 1050.55,-179.31 1016.93,-179.87 885.5,-159.75 874.23,-158.02 862.15,-155.93 850.75,-153.85"/>
<polygon fill="#63b8ff" stroke="#63b8ff" points="1235.46,-205.98 1245.82,-203.78 1236.35,-199.03 1235.46,-205.98"/>
</a>
</g>
</g>
<!-- Node27 -->
<g id="Node000027" class="node">
<title>Node27</title>
<g id="a_Node000027"><a xlink:href="EmscriptenPlatformInfo_8hpp.html" target="_top" xlink:title=" ">
<polygon fill="white" stroke="#666666" points="1546.25,-159.75 1390.75,-159.75 1390.75,-126.25 1546.25,-126.25 1546.25,-159.75"/>
<text text-anchor="start" x="1398.75" y="-146.25" font-family="Helvetica,sans-Serif" font-size="10.00">src/lib/Utils/Platform</text>
<text text-anchor="middle" x="1468.5" y="-133.5" font-family="Helvetica,sans-Serif" font-size="10.00">/EmscriptenPlatformInfo.hpp</text>
</a>
</g>
</g>
<!-- Node26&#45;&gt;Node27 -->
<g id="edge41_Node000026_Node000027" class="edge">
<title>Node26&#45;&gt;Node27</title>
<g id="a_edge41_Node000026_Node000027"><a xlink:title=" ">
<path fill="none" stroke="#63b8ff" d="M1355.16,-190.93C1379.02,-181.05 1407.2,-169.38 1429.49,-160.15"/>
<polygon fill="#63b8ff" stroke="#63b8ff" points="1353.84,-187.69 1345.94,-194.75 1356.52,-194.16 1353.84,-187.69"/>
</a>
</g>
</g>
<!-- Node30 -->
<g id="Node000030" class="node">
<title>Node30</title>
<g id="a_Node000030"><a xlink:href="PlatformInfoFactory_8hpp.html" target="_top" xlink:title=" ">
<polygon fill="white" stroke="#666666" points="1372.75,-159.75 1238.25,-159.75 1238.25,-126.25 1372.75,-126.25 1372.75,-159.75"/>
<text text-anchor="start" x="1246.25" y="-146.25" font-family="Helvetica,sans-Serif" font-size="10.00">src/lib/Utils/Platform</text>
<text text-anchor="middle" x="1305.5" y="-133.5" font-family="Helvetica,sans-Serif" font-size="10.00">/PlatformInfoFactory.hpp</text>
</a>
</g>
</g>
<!-- Node26&#45;&gt;Node30 -->
<g id="edge44_Node000026_Node000030" class="edge">
<title>Node26&#45;&gt;Node30</title>
<g id="a_edge44_Node000026_Node000030"><a xlink:title=" ">
<path fill="none" stroke="#63b8ff" d="M1305.5,-184.06C1305.5,-175.84 1305.5,-167.09 1305.5,-159.88"/>
<polygon fill="#63b8ff" stroke="#63b8ff" points="1302,-183.99 1305.5,-193.99 1309,-183.99 1302,-183.99"/>
</a>
</g>
</g>
<!-- Node31 -->
<g id="Node000031" class="node">
<title>Node31</title>
<g id="a_Node000031"><a xlink:href="UnixPlatformInfo_8hpp.html" target="_top" xlink:title=" ">
<polygon fill="white" stroke="#666666" points="1687.12,-159.75 1563.88,-159.75 1563.88,-126.25 1687.12,-126.25 1687.12,-159.75"/>
<text text-anchor="start" x="1571.88" y="-146.25" font-family="Helvetica,sans-Serif" font-size="10.00">src/lib/Utils/Platform</text>
<text text-anchor="middle" x="1625.5" y="-133.5" font-family="Helvetica,sans-Serif" font-size="10.00">/UnixPlatformInfo.hpp</text>
</a>
</g>
</g>
<!-- Node26&#45;&gt;Node31 -->
<g id="edge47_Node000026_Node000031" class="edge">
<title>Node26&#45;&gt;Node31</title>
<g id="a_edge47_Node000026_Node000031"><a xlink:title=" ">
<path fill="none" stroke="#63b8ff" d="M1374.7,-197.51C1424.93,-187.27 1494.48,-172.93 1555.5,-159.75 1558.18,-159.17 1560.91,-158.58 1563.68,-157.97"/>
<polygon fill="#63b8ff" stroke="#63b8ff" points="1374.24,-194.03 1365.14,-199.46 1375.63,-200.89 1374.24,-194.03"/>
</a>
</g>
</g>
<!-- Node33 -->
<g id="Node000033" class="node">
<title>Node33</title>
<g id="a_Node000033"><a xlink:href="WindowsPlatformInfo_8hpp.html" target="_top" xlink:title=" ">
<polygon fill="white" stroke="#666666" points="1850,-159.75 1705,-159.75 1705,-126.25 1850,-126.25 1850,-159.75"/>
<text text-anchor="start" x="1713" y="-146.25" font-family="Helvetica,sans-Serif" font-size="10.00">src/lib/Utils/Platform</text>
<text text-anchor="middle" x="1777.5" y="-133.5" font-family="Helvetica,sans-Serif" font-size="10.00">/WindowsPlatformInfo.hpp</text>
</a>
</g>
</g>
<!-- Node26&#45;&gt;Node33 -->
<g id="edge50_Node000026_Node000033" class="edge">
<title>Node26&#45;&gt;Node33</title>
<g id="a_edge50_Node000026_Node000033"><a xlink:title=" ">
<path fill="none" stroke="#63b8ff" d="M1374.79,-203.61C1453.09,-194.4 1584.26,-178.07 1696.5,-159.75 1699.19,-159.31 1701.92,-158.85 1704.68,-158.38"/>
<polygon fill="#63b8ff" stroke="#63b8ff" points="1374.66,-200.1 1365.13,-204.74 1375.47,-207.06 1374.66,-200.1"/>
</a>
</g>
</g>
<!-- Node28 -->
<g id="Node000028" class="node">
<title>Node28</title>
<g id="a_Node000028"><a xlink:href="EmscriptenPlatformInfo_8cpp.html" target="_top" xlink:title=" ">
<polygon fill="white" stroke="#666666" points="1511.88,-90.25 1357.12,-90.25 1357.12,-56.75 1511.88,-56.75 1511.88,-90.25"/>
<text text-anchor="start" x="1365.12" y="-76.75" font-family="Helvetica,sans-Serif" font-size="10.00">src/lib/Utils/Platform</text>
<text text-anchor="middle" x="1434.5" y="-64" font-family="Helvetica,sans-Serif" font-size="10.00">/EmscriptenPlatformInfo.cpp</text>
</a>
</g>
</g>
<!-- Node27&#45;&gt;Node28 -->
<g id="edge42_Node000027_Node000028" class="edge">
<title>Node27&#45;&gt;Node28</title>
<g id="a_edge42_Node000027_Node000028"><a xlink:title=" ">
<path fill="none" stroke="#63b8ff" d="M1455.4,-115.99C1451.05,-107.36 1446.34,-98.01 1442.5,-90.38"/>
<polygon fill="#63b8ff" stroke="#63b8ff" points="1452.14,-117.3 1459.76,-124.65 1458.39,-114.15 1452.14,-117.3"/>
</a>
</g>
</g>
<!-- Node29 -->
<g id="Node000029" class="node">
<title>Node29</title>
<g id="a_Node000029"><a xlink:href="PlatformInfoFactory_8cpp.html" target="_top" xlink:title=" ">
<polygon fill="white" stroke="#666666" points="1663.38,-90.25 1529.62,-90.25 1529.62,-56.75 1663.38,-56.75 1663.38,-90.25"/>
<text text-anchor="start" x="1537.62" y="-76.75" font-family="Helvetica,sans-Serif" font-size="10.00">src/lib/Utils/Platform</text>
<text text-anchor="middle" x="1596.5" y="-64" font-family="Helvetica,sans-Serif" font-size="10.00">/PlatformInfoFactory.cpp</text>
</a>
</g>
</g>
<!-- Node27&#45;&gt;Node29 -->
<g id="edge43_Node000027_Node000029" class="edge">
<title>Node27&#45;&gt;Node29</title>
<g id="a_edge43_Node000027_Node000029"><a xlink:title=" ">
<path fill="none" stroke="#63b8ff" d="M1509.32,-120.47C1527.74,-110.76 1549.11,-99.49 1566.09,-90.54"/>
<polygon fill="#63b8ff" stroke="#63b8ff" points="1507.71,-117.37 1500.5,-125.13 1510.98,-123.56 1507.71,-117.37"/>
</a>
</g>
</g>
<!-- Node30&#45;&gt;Node5 -->
<g id="edge46_Node000030_Node000005" class="edge">
<title>Node30&#45;&gt;Node5</title>
<g id="a_edge46_Node000030_Node000005"><a xlink:title=" ">
<path fill="none" stroke="#63b8ff" d="M1226.97,-126.73C1226.14,-126.57 1225.32,-126.41 1224.5,-126.25 1149.18,-111.63 1061.9,-94.72 1008.19,-84.32"/>
<polygon fill="#63b8ff" stroke="#63b8ff" points="1225.91,-130.09 1236.39,-128.56 1227.24,-123.22 1225.91,-130.09"/>
</a>
</g>
</g>
<!-- Node30&#45;&gt;Node29 -->
<g id="edge45_Node000030_Node000029" class="edge">
<title>Node30&#45;&gt;Node29</title>
<g id="a_edge45_Node000030_Node000029"><a xlink:title=" ">
<path fill="none" stroke="#63b8ff" d="M1383.99,-123.79C1429.43,-113.25 1486.02,-100.13 1529.37,-90.07"/>
<polygon fill="#63b8ff" stroke="#63b8ff" points="1383.42,-120.33 1374.47,-126 1385,-127.15 1383.42,-120.33"/>
</a>
</g>
</g>
<!-- Node31&#45;&gt;Node29 -->
<g id="edge48_Node000031_Node000029" class="edge">
<title>Node31&#45;&gt;Node29</title>
<g id="a_edge48_Node000031_Node000029"><a xlink:title=" ">
<path fill="none" stroke="#63b8ff" d="M1614.2,-115.71C1610.53,-107.16 1606.57,-97.93 1603.32,-90.38"/>
<polygon fill="#63b8ff" stroke="#63b8ff" points="1610.87,-116.81 1618.03,-124.61 1617.3,-114.04 1610.87,-116.81"/>
</a>
</g>
</g>
<!-- Node32 -->
<g id="Node000032" class="node">
<title>Node32</title>
<g id="a_Node000032"><a xlink:href="UnixPlatformInfo_8cpp.html" target="_top" xlink:title=" ">
<polygon fill="white" stroke="#666666" points="1803.75,-90.25 1681.25,-90.25 1681.25,-56.75 1803.75,-56.75 1803.75,-90.25"/>
<text text-anchor="start" x="1689.25" y="-76.75" font-family="Helvetica,sans-Serif" font-size="10.00">src/lib/Utils/Platform</text>
<text text-anchor="middle" x="1742.5" y="-64" font-family="Helvetica,sans-Serif" font-size="10.00">/UnixPlatformInfo.cpp</text>
</a>
</g>
</g>
<!-- Node31&#45;&gt;Node32 -->
<g id="edge49_Node000031_Node000032" class="edge">
<title>Node31&#45;&gt;Node32</title>
<g id="a_edge49_Node000031_Node000032"><a xlink:title=" ">
<path fill="none" stroke="#63b8ff" d="M1663.05,-120.34C1679.83,-110.66 1699.26,-99.45 1714.7,-90.54"/>
<polygon fill="#63b8ff" stroke="#63b8ff" points="1661.75,-117.05 1654.84,-125.08 1665.25,-123.11 1661.75,-117.05"/>
</a>
</g>
</g>
<!-- Node33&#45;&gt;Node29 -->
<g id="edge51_Node000033_Node000029" class="edge">
<title>Node33&#45;&gt;Node29</title>
<g id="a_edge51_Node000033_Node000029"><a xlink:title=" ">
<path fill="none" stroke="#63b8ff" d="M1723.42,-121.83C1696.7,-111.87 1664.9,-100.01 1639.81,-90.65"/>
<polygon fill="#63b8ff" stroke="#63b8ff" points="1722.14,-125.09 1732.73,-125.3 1724.58,-118.53 1722.14,-125.09"/>
</a>
</g>
</g>
<!-- Node34 -->
<g id="Node000034" class="node">
<title>Node34</title>
<g id="a_Node000034"><a xlink:href="WindowsPlatformInfo_8cpp.html" target="_top" xlink:title=" ">
<polygon fill="white" stroke="#666666" points="1965.62,-90.25 1821.38,-90.25 1821.38,-56.75 1965.62,-56.75 1965.62,-90.25"/>
<text text-anchor="start" x="1829.38" y="-76.75" font-family="Helvetica,sans-Serif" font-size="10.00">src/lib/Utils/Platform</text>
<text text-anchor="middle" x="1893.5" y="-64" font-family="Helvetica,sans-Serif" font-size="10.00">/WindowsPlatformInfo.cpp</text>
</a>
</g>
</g>
<!-- Node33&#45;&gt;Node34 -->
<g id="edge52_Node000033_Node000034" class="edge">
<title>Node33&#45;&gt;Node34</title>
<g id="a_edge52_Node000033_Node000034"><a xlink:title=" ">
<path fill="none" stroke="#63b8ff" d="M1815.19,-120.07C1831.72,-110.45 1850.77,-99.36 1865.94,-90.54"/>
<polygon fill="#63b8ff" stroke="#63b8ff" points="1813.48,-117.02 1806.59,-125.07 1817,-123.07 1813.48,-117.02"/>
</a>
</g>
</g>
</g>
</svg>

<g id="navigator" transform="translate(0 0)" fill="#404254">
  <rect fill="#f2f5e9" fill-opacity="0.5" stroke="#606060" stroke-width=".5" x="0" y="0" width="60" height="60"/>
  <use id="zoomplus" xlink:href="#zoomPlus" x="17" y="9" onmousedown="handleZoom(evt,'in')"/>
  <use id="zoomminus" xlink:href="#zoomMin" x="42" y="9" onmousedown="handleZoom(evt,'out')"/>
  <use id="reset" xlink:href="#resetDef" x="30" y="36" onmousedown="handleReset()"/>
   <use id="arrowup" xlink:href="#arrowUp" x="0" y="0" onmousedown="handlePan(0,-1)"/>
  <use id="arrowright" xlink:href="#arrowRight" x="0" y="0" onmousedown="handlePan(1,0)"/>
  <use id="arrowdown" xlink:href="#arrowDown" x="0" y="0" onmousedown="handlePan(0,1)"/>
  <use id="arrowleft" xlink:href="#arrowLeft" x="0" y="0" onmousedown="handlePan(-1,0)"/>
</g>
<svg viewBox="0 0 15 15" width="100%" height="30px" preserveAspectRatio="xMaxYMin meet">
 <g id="arrow_out" transform="scale(0.3 0.3)">
  <a xlink:href="UtilsError_8hpp__dep__incl_org.svg" target="_base">
   <rect id="button" ry="5" rx="5" y="6" x="6" height="38" width="38"
        fill="#f2f5e9" fill-opacity="0.5" stroke="#606060" stroke-width="1.0"/>
   <path id="arrow"
     d="M 11.500037,31.436501 C 11.940474,20.09759 22.043105,11.32322 32.158766,21.979434 L 37.068811,17.246167 C 37.068811,17.246167 37.088388,32 37.088388,32 L 22.160133,31.978069 C 22.160133,31.978069 26.997745,27.140456 26.997745,27.140456 C 18.528582,18.264221 13.291696,25.230495 11.500037,31.436501 z"
     style="fill:#404040;"/>
  </a>
 </g>
</svg>

<style type='text/css'>
<![CDATA[
[data-mouse-over-selected='false'] { opacity: 0.7; }
[data-mouse-over-selected='true']  { opacity: 1.0; }
]]>
</style>
<script type="application/ecmascript"><![CDATA[
document.addEventListener('DOMContentLoaded', (event) => {
  highlightEdges();
  highlightAdjacentNodes();
});
]]></script>
</svg>
