<?xml version="1.0" encoding="UTF-8" standalone="no"?>
<!DOCTYPE svg PUBLIC "-//W3C//DTD SVG 1.1//EN"
 "http://www.w3.org/Graphics/SVG/1.1/DTD/svg11.dtd">
<!-- Generated by graphviz version 12.2.1 (0)
 -->
<!-- Title: src/lib/Utils/UtilsFactory.hpp Pages: 1 -->
<svg width="1887pt" height="212pt"
 viewBox="0.00 0.00 1886.77 211.75" xmlns="http://www.w3.org/2000/svg" xmlns:xlink="http://www.w3.org/1999/xlink">
<g id="graph0" class="graph" transform="scale(1 1) rotate(0) translate(4 207.75)">
<title>src/lib/Utils/UtilsFactory.hpp</title>
<!-- Node1 -->
<g id="Node000001" class="node">
<title>Node1</title>
<g id="a_Node000001"><a xlink:title=" ">
<polygon fill="#999999" stroke="#666666" points="1177.25,-203.75 1026.25,-203.75 1026.25,-183 1177.25,-183 1177.25,-203.75"/>
<text text-anchor="middle" x="1101.75" y="-190.25" font-family="Helvetica,sans-Serif" font-size="10.00">src/lib/Utils/UtilsFactory.hpp</text>
</a>
</g>
</g>
<!-- Node2 -->
<g id="Node000002" class="node">
<title>Node2</title>
<g id="a_Node000002"><a xlink:href="IAssetManager_8hpp.html" target="_top" xlink:title=" ">
<polygon fill="white" stroke="#666666" points="547.62,-140.62 377.88,-140.62 377.88,-119.88 547.62,-119.88 547.62,-140.62"/>
<text text-anchor="middle" x="462.75" y="-127.12" font-family="Helvetica,sans-Serif" font-size="10.00">Utils/Assets/IAssetManager.hpp</text>
</a>
</g>
</g>
<!-- Node1&#45;&gt;Node2 -->
<g id="edge1_Node000001_Node000002" class="edge">
<title>Node1&#45;&gt;Node2</title>
<g id="a_edge1_Node000001_Node000002"><a xlink:title=" ">
<path fill="none" stroke="#63b8ff" d="M1026.17,-188.07C920.76,-181.61 723.74,-167.9 556.75,-147 547.43,-145.83 537.62,-144.41 527.99,-142.9"/>
<polygon fill="#63b8ff" stroke="#63b8ff" points="528.74,-139.47 518.31,-141.34 527.63,-146.39 528.74,-139.47"/>
</a>
</g>
</g>
<!-- Node3 -->
<g id="Node000003" class="node">
<title>Node3</title>
<g id="a_Node000003"><a xlink:title=" ">
<polygon fill="#e0e0e0" stroke="#999999" points="629.25,-77.5 562.25,-77.5 562.25,-56.75 629.25,-56.75 629.25,-77.5"/>
<text text-anchor="middle" x="595.75" y="-64" font-family="Helvetica,sans-Serif" font-size="10.00">filesystem</text>
</a>
</g>
</g>
<!-- Node1&#45;&gt;Node3 -->
<g id="edge58_Node000001_Node000003" class="edge">
<title>Node1&#45;&gt;Node3</title>
<g id="a_edge58_Node000001_Node000003"><a xlink:title=" ">
<path fill="none" stroke="#63b8ff" d="M1026.06,-190.45C843.26,-185.44 391.02,-170.69 368.75,-147 358.55,-136.15 359.31,-125.01 368.75,-113.5 374.53,-106.45 486.34,-86.57 550.84,-75.61"/>
<polygon fill="#63b8ff" stroke="#63b8ff" points="551.14,-79.11 560.42,-73.99 549.97,-72.2 551.14,-79.11"/>
</a>
</g>
</g>
<!-- Node4 -->
<g id="Node000004" class="node">
<title>Node4</title>
<g id="a_Node000004"><a xlink:href="IDirectoryManager_8hpp.html" target="_top" xlink:title=" ">
<polygon fill="white" stroke="#666666" points="711.62,-147 565.88,-147 565.88,-113.5 711.62,-113.5 711.62,-147"/>
<text text-anchor="start" x="573.88" y="-133.5" font-family="Helvetica,sans-Serif" font-size="10.00">Utils/Filesystem/IDirectory</text>
<text text-anchor="middle" x="638.75" y="-120.75" font-family="Helvetica,sans-Serif" font-size="10.00">Manager.hpp</text>
</a>
</g>
</g>
<!-- Node1&#45;&gt;Node4 -->
<g id="edge3_Node000001_Node000004" class="edge">
<title>Node1&#45;&gt;Node4</title>
<g id="a_edge3_Node000001_Node000004"><a xlink:title=" ">
<path fill="none" stroke="#63b8ff" d="M1025.99,-184.96C951.43,-177.3 834.09,-164.26 723.09,-147.3"/>
<polygon fill="#63b8ff" stroke="#63b8ff" points="723.94,-143.89 713.52,-145.82 722.87,-150.81 723.94,-143.89"/>
</a>
</g>
</g>
<!-- Node12 -->
<g id="Node000012" class="node">
<title>Node12</title>
<g id="a_Node000012"><a xlink:href="IFileReader_8hpp.html" target="_top" xlink:title=" ">
<polygon fill="white" stroke="#666666" points="322.12,-140.62 149.38,-140.62 149.38,-119.88 322.12,-119.88 322.12,-140.62"/>
<text text-anchor="middle" x="235.75" y="-127.12" font-family="Helvetica,sans-Serif" font-size="10.00">Utils/Filesystem/IFileReader.hpp</text>
</a>
</g>
</g>
<!-- Node1&#45;&gt;Node12 -->
<g id="edge12_Node000001_Node000012" class="edge">
<title>Node1&#45;&gt;Node12</title>
<g id="a_edge12_Node000001_Node000012"><a xlink:title=" ">
<path fill="none" stroke="#63b8ff" d="M1025.98,-190.32C888.24,-186.05 587.73,-174.24 335.75,-147 325.25,-145.86 314.16,-144.39 303.35,-142.81"/>
<polygon fill="#63b8ff" stroke="#63b8ff" points="304.12,-139.38 293.71,-141.35 303.07,-146.31 304.12,-139.38"/>
</a>
</g>
</g>
<!-- Node13 -->
<g id="Node000013" class="node">
<title>Node13</title>
<g id="a_Node000013"><a xlink:href="IFileWriter_8hpp.html" target="_top" xlink:title=" ">
<polygon fill="white" stroke="#666666" points="897.88,-140.62 729.62,-140.62 729.62,-119.88 897.88,-119.88 897.88,-140.62"/>
<text text-anchor="middle" x="813.75" y="-127.12" font-family="Helvetica,sans-Serif" font-size="10.00">Utils/Filesystem/IFileWriter.hpp</text>
</a>
</g>
</g>
<!-- Node1&#45;&gt;Node13 -->
<g id="edge18_Node000001_Node000013" class="edge">
<title>Node1&#45;&gt;Node13</title>
<g id="a_edge18_Node000001_Node000013"><a xlink:title=" ">
<path fill="none" stroke="#63b8ff" d="M1055.48,-182.55C1005.3,-171.91 925.16,-154.89 871.04,-143.41"/>
<polygon fill="#63b8ff" stroke="#63b8ff" points="871.9,-140.01 861.39,-141.36 870.44,-146.86 871.9,-140.01"/>
</a>
</g>
</g>
<!-- Node14 -->
<g id="Node000014" class="node">
<title>Node14</title>
<g id="a_Node000014"><a xlink:href="IPathResolver_8hpp.html" target="_top" xlink:title=" ">
<polygon fill="white" stroke="#666666" points="1101.12,-140.62 916.38,-140.62 916.38,-119.88 1101.12,-119.88 1101.12,-140.62"/>
<text text-anchor="middle" x="1008.75" y="-127.12" font-family="Helvetica,sans-Serif" font-size="10.00">Utils/Filesystem/IPathResolver.hpp</text>
</a>
</g>
</g>
<!-- Node1&#45;&gt;Node14 -->
<g id="edge24_Node000001_Node000014" class="edge">
<title>Node1&#45;&gt;Node14</title>
<g id="a_edge24_Node000001_Node000014"><a xlink:title=" ">
<path fill="none" stroke="#63b8ff" d="M1086.81,-182.55C1072.3,-173.02 1050.03,-158.38 1032.99,-147.18"/>
<polygon fill="#63b8ff" stroke="#63b8ff" points="1035.2,-144.45 1024.92,-141.88 1031.35,-150.3 1035.2,-144.45"/>
</a>
</g>
</g>
<!-- Node15 -->
<g id="Node000015" class="node">
<title>Node15</title>
<g id="a_Node000015"><a xlink:href="ICustomStringsLoader_8hpp.html" target="_top" xlink:title=" ">
<polygon fill="white" stroke="#666666" points="1430.25,-147 1291.25,-147 1291.25,-113.5 1430.25,-113.5 1430.25,-147"/>
<text text-anchor="start" x="1299.25" y="-133.5" font-family="Helvetica,sans-Serif" font-size="10.00">Utils/Json/ICustomStrings</text>
<text text-anchor="middle" x="1360.75" y="-120.75" font-family="Helvetica,sans-Serif" font-size="10.00">Loader.hpp</text>
</a>
</g>
</g>
<!-- Node1&#45;&gt;Node15 -->
<g id="edge29_Node000001_Node000015" class="edge">
<title>Node1&#45;&gt;Node15</title>
<g id="a_edge29_Node000001_Node000015"><a xlink:title=" ">
<path fill="none" stroke="#63b8ff" d="M1143.36,-182.55C1180.35,-173.82 1235.45,-160.82 1280.92,-150.09"/>
<polygon fill="#63b8ff" stroke="#63b8ff" points="1281.56,-153.54 1290.49,-147.83 1279.95,-146.72 1281.56,-153.54"/>
</a>
</g>
</g>
<!-- Node17 -->
<g id="Node000017" class="node">
<title>Node17</title>
<g id="a_Node000017"><a xlink:href="IJsonSerializer_8hpp.html" target="_top" xlink:title=" ">
<polygon fill="white" stroke="#666666" points="1272.75,-140.62 1118.75,-140.62 1118.75,-119.88 1272.75,-119.88 1272.75,-140.62"/>
<text text-anchor="middle" x="1195.75" y="-127.12" font-family="Helvetica,sans-Serif" font-size="10.00">Utils/Json/IJsonSerializer.hpp</text>
</a>
</g>
</g>
<!-- Node1&#45;&gt;Node17 -->
<g id="edge34_Node000001_Node000017" class="edge">
<title>Node1&#45;&gt;Node17</title>
<g id="a_edge34_Node000001_Node000017"><a xlink:title=" ">
<path fill="none" stroke="#63b8ff" d="M1116.85,-182.55C1131.52,-173.02 1154.02,-158.38 1171.25,-147.18"/>
<polygon fill="#63b8ff" stroke="#63b8ff" points="1172.94,-150.26 1179.42,-141.87 1169.12,-144.39 1172.94,-150.26"/>
</a>
</g>
</g>
<!-- Node18 -->
<g id="Node000018" class="node">
<title>Node18</title>
<g id="a_Node000018"><a xlink:href="ILogger_8hpp.html" target="_top" xlink:title=" ">
<polygon fill="white" stroke="#666666" points="1701.62,-77.5 1567.88,-77.5 1567.88,-56.75 1701.62,-56.75 1701.62,-77.5"/>
<text text-anchor="middle" x="1634.75" y="-64" font-family="Helvetica,sans-Serif" font-size="10.00">Utils/Logger/ILogger.hpp</text>
</a>
</g>
</g>
<!-- Node1&#45;&gt;Node18 -->
<g id="edge39_Node000001_Node000018" class="edge">
<title>Node1&#45;&gt;Node18</title>
<g id="a_edge39_Node000001_Node000018"><a xlink:title=" ">
<path fill="none" stroke="#63b8ff" d="M1177.66,-191.33C1251.08,-188.34 1364.62,-178.41 1457.75,-147 1485.96,-137.49 1488.87,-126.29 1515.75,-113.5 1541.43,-101.28 1571.35,-89.89 1594.76,-81.57"/>
<polygon fill="#63b8ff" stroke="#63b8ff" points="1595.64,-84.97 1603.92,-78.36 1593.33,-78.37 1595.64,-84.97"/>
</a>
</g>
</g>
<!-- Node20 -->
<g id="Node000020" class="node">
<title>Node20</title>
<g id="a_Node000020"><a xlink:title=" ">
<polygon fill="#e0e0e0" stroke="#999999" points="1804.38,-20.75 1747.12,-20.75 1747.12,0 1804.38,0 1804.38,-20.75"/>
<text text-anchor="middle" x="1775.75" y="-7.25" font-family="Helvetica,sans-Serif" font-size="10.00">memory</text>
</a>
</g>
</g>
<!-- Node1&#45;&gt;Node20 -->
<g id="edge59_Node000001_Node000020" class="edge">
<title>Node1&#45;&gt;Node20</title>
<g id="a_edge59_Node000001_Node000020"><a xlink:title=" ">
<path fill="none" stroke="#63b8ff" d="M1177.71,-190.66C1366.64,-186.01 1844.32,-171.86 1867.75,-147 1904.18,-108.35 1838.56,-53.95 1800.35,-27.32"/>
<polygon fill="#63b8ff" stroke="#63b8ff" points="1802.79,-24.75 1792.55,-22.03 1798.86,-30.54 1802.79,-24.75"/>
</a>
</g>
</g>
<!-- Node22 -->
<g id="Node000022" class="node">
<title>Node22</title>
<g id="a_Node000022"><a xlink:href="LoggerFactory_8hpp.html" target="_top" xlink:title=" ">
<polygon fill="white" stroke="#666666" points="1858.38,-140.62 1693.12,-140.62 1693.12,-119.88 1858.38,-119.88 1858.38,-140.62"/>
<text text-anchor="middle" x="1775.75" y="-127.12" font-family="Helvetica,sans-Serif" font-size="10.00">Utils/Logger/LoggerFactory.hpp</text>
</a>
</g>
</g>
<!-- Node1&#45;&gt;Node22 -->
<g id="edge45_Node000001_Node000022" class="edge">
<title>Node1&#45;&gt;Node22</title>
<g id="a_edge45_Node000001_Node000022"><a xlink:title=" ">
<path fill="none" stroke="#63b8ff" d="M1177.31,-188.7C1288.53,-182.8 1502.72,-169.5 1683.75,-147 1693,-145.85 1702.73,-144.42 1712.27,-142.9"/>
<polygon fill="#63b8ff" stroke="#63b8ff" points="1712.54,-146.4 1721.84,-141.33 1711.4,-139.5 1712.54,-146.4"/>
</a>
</g>
</g>
<!-- Node23 -->
<g id="Node000023" class="node">
<title>Node23</title>
<g id="a_Node000023"><a xlink:href="NullLogger_8hpp.html" target="_top" xlink:title=" ">
<polygon fill="white" stroke="#666666" points="1674.88,-140.62 1524.62,-140.62 1524.62,-119.88 1674.88,-119.88 1674.88,-140.62"/>
<text text-anchor="middle" x="1599.75" y="-127.12" font-family="Helvetica,sans-Serif" font-size="10.00">Utils/Logger/NullLogger.hpp</text>
</a>
</g>
</g>
<!-- Node1&#45;&gt;Node23 -->
<g id="edge49_Node000001_Node000023" class="edge">
<title>Node1&#45;&gt;Node23</title>
<g id="a_edge49_Node000001_Node000023"><a xlink:title=" ">
<path fill="none" stroke="#63b8ff" d="M1177.69,-185.43C1259.95,-177.57 1394.95,-163.65 1510.75,-147 1519.07,-145.8 1527.8,-144.42 1536.4,-142.98"/>
<polygon fill="#63b8ff" stroke="#63b8ff" points="1536.85,-146.45 1546.11,-141.32 1535.66,-139.55 1536.85,-146.45"/>
</a>
</g>
</g>
<!-- Node24 -->
<g id="Node000024" class="node">
<title>Node24</title>
<g id="a_Node000024"><a xlink:href="IPlatformInfo_8hpp.html" target="_top" xlink:title=" ">
<polygon fill="white" stroke="#666666" points="131.5,-147 0,-147 0,-113.5 131.5,-113.5 131.5,-147"/>
<text text-anchor="start" x="8" y="-133.5" font-family="Helvetica,sans-Serif" font-size="10.00">Utils/Platform/IPlatform</text>
<text text-anchor="middle" x="65.75" y="-120.75" font-family="Helvetica,sans-Serif" font-size="10.00">Info.hpp</text>
</a>
</g>
</g>
<!-- Node1&#45;&gt;Node24 -->
<g id="edge51_Node000001_Node000024" class="edge">
<title>Node1&#45;&gt;Node24</title>
<g id="a_edge51_Node000001_Node000024"><a xlink:title=" ">
<path fill="none" stroke="#63b8ff" d="M1026.02,-192.9C865.1,-193.12 477.22,-188.96 143.26,-147.18"/>
<polygon fill="#63b8ff" stroke="#63b8ff" points="143.77,-143.72 133.41,-145.93 142.89,-150.66 143.77,-143.72"/>
</a>
</g>
</g>
<!-- Node25 -->
<g id="Node000025" class="node">
<title>Node25</title>
<g id="a_Node000025"><a xlink:href="IStringFormatter_8hpp.html" target="_top" xlink:title=" ">
<polygon fill="white" stroke="#666666" points="1512.12,-77.5 1339.38,-77.5 1339.38,-56.75 1512.12,-56.75 1512.12,-77.5"/>
<text text-anchor="middle" x="1425.75" y="-64" font-family="Helvetica,sans-Serif" font-size="10.00">Utils/String/IStringFormatter.hpp</text>
</a>
</g>
</g>
<!-- Node1&#45;&gt;Node25 -->
<g id="edge56_Node000001_Node000025" class="edge">
<title>Node1&#45;&gt;Node25</title>
<g id="a_edge56_Node000001_Node000025"><a xlink:title=" ">
<path fill="none" stroke="#63b8ff" d="M1177.38,-193.29C1266.4,-192.57 1406.37,-185.16 1439.75,-147 1453.93,-130.79 1445.83,-105.33 1437.22,-87.74"/>
<polygon fill="#63b8ff" stroke="#63b8ff" points="1440.5,-86.46 1432.7,-79.29 1434.33,-89.76 1440.5,-86.46"/>
</a>
</g>
</g>
<!-- Node2&#45;&gt;Node3 -->
<g id="edge2_Node000002_Node000003" class="edge">
<title>Node2&#45;&gt;Node3</title>
<g id="a_edge2_Node000002_Node000003"><a xlink:title=" ">
<path fill="none" stroke="#63b8ff" d="M484.12,-119.43C505.74,-109.49 539.41,-94.02 564.12,-82.66"/>
<polygon fill="#63b8ff" stroke="#63b8ff" points="565.43,-85.91 573.06,-78.55 562.51,-79.55 565.43,-85.91"/>
</a>
</g>
</g>
<!-- Node4&#45;&gt;Node3 -->
<g id="edge10_Node000004_Node000003" class="edge">
<title>Node4&#45;&gt;Node3</title>
<g id="a_edge10_Node000004_Node000003"><a xlink:title=" ">
<path fill="none" stroke="#63b8ff" d="M627.45,-113.19C621.86,-105.24 615.07,-95.59 609.22,-87.27"/>
<polygon fill="#63b8ff" stroke="#63b8ff" points="612.16,-85.37 603.54,-79.2 606.44,-89.4 612.16,-85.37"/>
</a>
</g>
</g>
<!-- Node5 -->
<g id="Node000005" class="node">
<title>Node5</title>
<g id="a_Node000005"><a xlink:href="UtilsError_8hpp.html" target="_top" xlink:title=" ">
<polygon fill="white" stroke="#666666" points="973.5,-77.5 866,-77.5 866,-56.75 973.5,-56.75 973.5,-77.5"/>
<text text-anchor="middle" x="919.75" y="-64" font-family="Helvetica,sans-Serif" font-size="10.00">Utils/UtilsError.hpp</text>
</a>
</g>
</g>
<!-- Node4&#45;&gt;Node5 -->
<g id="edge4_Node000004_Node000005" class="edge">
<title>Node4&#45;&gt;Node5</title>
<g id="a_edge4_Node000004_Node000005"><a xlink:title=" ">
<path fill="none" stroke="#63b8ff" d="M711.85,-113.35C759.17,-103.06 819.86,-89.85 863.43,-80.38"/>
<polygon fill="#63b8ff" stroke="#63b8ff" points="864.18,-83.8 873.2,-78.25 862.69,-76.96 864.18,-83.8"/>
</a>
</g>
</g>
<!-- Node11 -->
<g id="Node000011" class="node">
<title>Node11</title>
<g id="a_Node000011"><a xlink:title=" ">
<polygon fill="#e0e0e0" stroke="#999999" points="704.12,-77.5 657.38,-77.5 657.38,-56.75 704.12,-56.75 704.12,-77.5"/>
<text text-anchor="middle" x="680.75" y="-64" font-family="Helvetica,sans-Serif" font-size="10.00">vector</text>
</a>
</g>
</g>
<!-- Node4&#45;&gt;Node11 -->
<g id="edge11_Node000004_Node000011" class="edge">
<title>Node4&#45;&gt;Node11</title>
<g id="a_edge11_Node000004_Node000011"><a xlink:title=" ">
<path fill="none" stroke="#63b8ff" d="M649.79,-113.19C655.25,-105.24 661.88,-95.59 667.6,-87.27"/>
<polygon fill="#63b8ff" stroke="#63b8ff" points="670.35,-89.44 673.13,-79.21 664.58,-85.47 670.35,-89.44"/>
</a>
</g>
</g>
<!-- Node6 -->
<g id="Node000006" class="node">
<title>Node6</title>
<g id="a_Node000006"><a xlink:title=" ">
<polygon fill="#e0e0e0" stroke="#999999" points="838.25,-20.75 789.25,-20.75 789.25,0 838.25,0 838.25,-20.75"/>
<text text-anchor="middle" x="813.75" y="-7.25" font-family="Helvetica,sans-Serif" font-size="10.00">cstdint</text>
</a>
</g>
</g>
<!-- Node5&#45;&gt;Node6 -->
<g id="edge5_Node000005_Node000006" class="edge">
<title>Node5&#45;&gt;Node6</title>
<g id="a_edge5_Node000005_Node000006"><a xlink:title=" ">
<path fill="none" stroke="#63b8ff" d="M900.8,-56.34C884.67,-48.01 861.25,-35.91 842.76,-26.36"/>
<polygon fill="#63b8ff" stroke="#63b8ff" points="844.37,-23.25 833.88,-21.77 841.16,-29.47 844.37,-23.25"/>
</a>
</g>
</g>
<!-- Node7 -->
<g id="Node000007" class="node">
<title>Node7</title>
<g id="a_Node000007"><a xlink:title=" ">
<polygon fill="#e0e0e0" stroke="#999999" points="1065.62,-20.75 1009.88,-20.75 1009.88,0 1065.62,0 1065.62,-20.75"/>
<text text-anchor="middle" x="1037.75" y="-7.25" font-family="Helvetica,sans-Serif" font-size="10.00">optional</text>
</a>
</g>
</g>
<!-- Node5&#45;&gt;Node7 -->
<g id="edge6_Node000005_Node000007" class="edge">
<title>Node5&#45;&gt;Node7</title>
<g id="a_edge6_Node000005_Node000007"><a xlink:title=" ">
<path fill="none" stroke="#63b8ff" d="M940.85,-56.34C959.14,-47.85 985.85,-35.45 1006.61,-25.83"/>
<polygon fill="#63b8ff" stroke="#63b8ff" points="1007.87,-29.1 1015.46,-21.72 1004.92,-22.75 1007.87,-29.1"/>
</a>
</g>
</g>
<!-- Node8 -->
<g id="Node000008" class="node">
<title>Node8</title>
<g id="a_Node000008"><a xlink:title=" ">
<polygon fill="#e0e0e0" stroke="#999999" points="922.75,-20.75 858.75,-20.75 858.75,0 922.75,0 922.75,-20.75"/>
<text text-anchor="middle" x="890.75" y="-7.25" font-family="Helvetica,sans-Serif" font-size="10.00">stdexcept</text>
</a>
</g>
</g>
<!-- Node5&#45;&gt;Node8 -->
<g id="edge7_Node000005_Node000008" class="edge">
<title>Node5&#45;&gt;Node8</title>
<g id="a_edge7_Node000005_Node000008"><a xlink:title=" ">
<path fill="none" stroke="#63b8ff" d="M914.57,-56.34C910.85,-49.33 905.73,-39.66 901.19,-31.08"/>
<polygon fill="#63b8ff" stroke="#63b8ff" points="904.37,-29.61 896.6,-22.42 898.19,-32.89 904.37,-29.61"/>
</a>
</g>
</g>
<!-- Node9 -->
<g id="Node000009" class="node">
<title>Node9</title>
<g id="a_Node000009"><a xlink:title=" ">
<polygon fill="#e0e0e0" stroke="#999999" points="1128.62,-20.75 1084.88,-20.75 1084.88,0 1128.62,0 1128.62,-20.75"/>
<text text-anchor="middle" x="1106.75" y="-7.25" font-family="Helvetica,sans-Serif" font-size="10.00">string</text>
</a>
</g>
</g>
<!-- Node5&#45;&gt;Node9 -->
<g id="edge8_Node000005_Node000009" class="edge">
<title>Node5&#45;&gt;Node9</title>
<g id="a_edge8_Node000005_Node000009"><a xlink:title=" ">
<path fill="none" stroke="#63b8ff" d="M953.18,-56.34C987.25,-46.36 1039.78,-30.98 1073.71,-21.05"/>
<polygon fill="#63b8ff" stroke="#63b8ff" points="1074.39,-24.5 1083,-18.33 1072.42,-17.78 1074.39,-24.5"/>
</a>
</g>
</g>
<!-- Node10 -->
<g id="Node000010" class="node">
<title>Node10</title>
<g id="a_Node000010"><a xlink:title=" ">
<polygon fill="#e0e0e0" stroke="#999999" points="991,-20.75 940.5,-20.75 940.5,0 991,0 991,-20.75"/>
<text text-anchor="middle" x="965.75" y="-7.25" font-family="Helvetica,sans-Serif" font-size="10.00">variant</text>
</a>
</g>
</g>
<!-- Node5&#45;&gt;Node10 -->
<g id="edge9_Node000005_Node000010" class="edge">
<title>Node5&#45;&gt;Node10</title>
<g id="a_edge9_Node000005_Node000010"><a xlink:title=" ">
<path fill="none" stroke="#63b8ff" d="M927.97,-56.34C934.19,-48.94 942.9,-38.57 950.39,-29.66"/>
<polygon fill="#63b8ff" stroke="#63b8ff" points="952.87,-32.15 956.62,-22.24 947.51,-27.64 952.87,-32.15"/>
</a>
</g>
</g>
<!-- Node12&#45;&gt;Node3 -->
<g id="edge15_Node000012_Node000003" class="edge">
<title>Node12&#45;&gt;Node3</title>
<g id="a_edge15_Node000012_Node000003"><a xlink:title=" ">
<path fill="none" stroke="#63b8ff" d="M293.59,-119.43C365.22,-107.27 485.7,-86.81 550.79,-75.76"/>
<polygon fill="#63b8ff" stroke="#63b8ff" points="551.12,-79.25 560.39,-74.13 549.95,-72.35 551.12,-79.25"/>
</a>
</g>
</g>
<!-- Node12&#45;&gt;Node5 -->
<g id="edge13_Node000012_Node000005" class="edge">
<title>Node12&#45;&gt;Node5</title>
<g id="a_edge13_Node000012_Node000005"><a xlink:title=" ">
<path fill="none" stroke="#63b8ff" d="M314.82,-119.42C332.55,-117.34 351.28,-115.25 368.75,-113.5 543.93,-95.92 750.96,-80.24 854.25,-72.76"/>
<polygon fill="#63b8ff" stroke="#63b8ff" points="854.49,-76.25 864.22,-72.04 853.99,-69.27 854.49,-76.25"/>
</a>
</g>
</g>
<!-- Node12&#45;&gt;Node6 -->
<g id="edge14_Node000012_Node000006" class="edge">
<title>Node12&#45;&gt;Node6</title>
<g id="a_edge14_Node000012_Node000006"><a xlink:title=" ">
<path fill="none" stroke="#63b8ff" d="M266.74,-119.39C315.75,-104.09 414.37,-74.57 499.75,-56.75 599.63,-35.9 719.37,-21.47 777.93,-15.08"/>
<polygon fill="#63b8ff" stroke="#63b8ff" points="778.07,-18.59 787.63,-14.04 777.32,-11.63 778.07,-18.59"/>
</a>
</g>
</g>
<!-- Node12&#45;&gt;Node9 -->
<g id="edge16_Node000012_Node000009" class="edge">
<title>Node12&#45;&gt;Node9</title>
<g id="a_edge16_Node000012_Node000009"><a xlink:title=" ">
<path fill="none" stroke="#63b8ff" d="M283.75,-119.44C331.92,-109.45 408.17,-93.24 473.75,-77.5 509.05,-69.03 516.93,-62.64 552.75,-56.75 778.64,-19.63 843.8,-60.37 1073.46,-20.51"/>
<polygon fill="#63b8ff" stroke="#63b8ff" points="1073.79,-24.01 1083.03,-18.82 1072.57,-17.12 1073.79,-24.01"/>
</a>
</g>
</g>
<!-- Node12&#45;&gt;Node11 -->
<g id="edge17_Node000012_Node000011" class="edge">
<title>Node12&#45;&gt;Node11</title>
<g id="a_edge17_Node000012_Node000011"><a xlink:title=" ">
<path fill="none" stroke="#63b8ff" d="M315.67,-119.39C424.05,-105.95 607.75,-82.94 638.75,-77.5 641.2,-77.07 643.73,-76.59 646.26,-76.09"/>
<polygon fill="#63b8ff" stroke="#63b8ff" points="646.74,-79.57 655.8,-74.08 645.29,-72.72 646.74,-79.57"/>
</a>
</g>
</g>
<!-- Node13&#45;&gt;Node3 -->
<g id="edge21_Node000013_Node000003" class="edge">
<title>Node13&#45;&gt;Node3</title>
<g id="a_edge21_Node000013_Node000003"><a xlink:title=" ">
<path fill="none" stroke="#63b8ff" d="M778.72,-119.43C741.21,-108.91 681.56,-92.18 640.63,-80.71"/>
<polygon fill="#63b8ff" stroke="#63b8ff" points="641.64,-77.36 631.07,-78.03 639.75,-84.1 641.64,-77.36"/>
</a>
</g>
</g>
<!-- Node13&#45;&gt;Node5 -->
<g id="edge19_Node000013_Node000005" class="edge">
<title>Node13&#45;&gt;Node5</title>
<g id="a_edge19_Node000013_Node000005"><a xlink:title=" ">
<path fill="none" stroke="#63b8ff" d="M830.78,-119.43C847.55,-109.76 873.41,-94.85 892.94,-83.59"/>
<polygon fill="#63b8ff" stroke="#63b8ff" points="894.54,-86.71 901.45,-78.68 891.04,-80.64 894.54,-86.71"/>
</a>
</g>
</g>
<!-- Node13&#45;&gt;Node6 -->
<g id="edge20_Node000013_Node000006" class="edge">
<title>Node13&#45;&gt;Node6</title>
<g id="a_edge20_Node000013_Node000006"><a xlink:title=" ">
<path fill="none" stroke="#63b8ff" d="M813.75,-119.6C813.75,-100.69 813.75,-58.36 813.75,-32.6"/>
<polygon fill="#63b8ff" stroke="#63b8ff" points="817.25,-32.67 813.75,-22.67 810.25,-32.67 817.25,-32.67"/>
</a>
</g>
</g>
<!-- Node13&#45;&gt;Node9 -->
<g id="edge22_Node000013_Node000009" class="edge">
<title>Node13&#45;&gt;Node9</title>
<g id="a_edge22_Node000013_Node000009"><a xlink:title=" ">
<path fill="none" stroke="#63b8ff" d="M853.44,-119.42C888.17,-110.28 939.67,-95.38 982.75,-77.5 1018.04,-62.85 1056.56,-41.37 1081.16,-26.91"/>
<polygon fill="#63b8ff" stroke="#63b8ff" points="1082.68,-30.07 1089.49,-21.95 1079.11,-24.05 1082.68,-30.07"/>
</a>
</g>
</g>
<!-- Node13&#45;&gt;Node11 -->
<g id="edge23_Node000013_Node000011" class="edge">
<title>Node13&#45;&gt;Node11</title>
<g id="a_edge23_Node000013_Node000011"><a xlink:title=" ">
<path fill="none" stroke="#63b8ff" d="M792.38,-119.43C770.76,-109.49 737.09,-94.02 712.38,-82.66"/>
<polygon fill="#63b8ff" stroke="#63b8ff" points="713.99,-79.55 703.44,-78.55 711.07,-85.91 713.99,-79.55"/>
</a>
</g>
</g>
<!-- Node14&#45;&gt;Node3 -->
<g id="edge26_Node000014_Node000003" class="edge">
<title>Node14&#45;&gt;Node3</title>
<g id="a_edge26_Node000014_Node000003"><a xlink:title=" ">
<path fill="none" stroke="#63b8ff" d="M945.93,-119.4C932.98,-117.41 919.43,-115.36 906.75,-113.5 792.2,-96.67 763.11,-95.59 648.75,-77.5 646.14,-77.09 643.46,-76.65 640.76,-76.2"/>
<polygon fill="#63b8ff" stroke="#63b8ff" points="641.59,-72.79 631.14,-74.56 640.41,-79.69 641.59,-72.79"/>
</a>
</g>
</g>
<!-- Node14&#45;&gt;Node5 -->
<g id="edge25_Node000014_Node000005" class="edge">
<title>Node14&#45;&gt;Node5</title>
<g id="a_edge25_Node000014_Node000005"><a xlink:title=" ">
<path fill="none" stroke="#63b8ff" d="M994.45,-119.43C980.7,-109.98 959.66,-95.53 943.4,-84.37"/>
<polygon fill="#63b8ff" stroke="#63b8ff" points="945.49,-81.55 935.26,-78.78 941.52,-87.32 945.49,-81.55"/>
</a>
</g>
</g>
<!-- Node14&#45;&gt;Node9 -->
<g id="edge27_Node000014_Node000009" class="edge">
<title>Node14&#45;&gt;Node9</title>
<g id="a_edge27_Node000014_Node000009"><a xlink:title=" ">
<path fill="none" stroke="#63b8ff" d="M1016.77,-119.6C1033.06,-100 1070.28,-55.24 1091.39,-29.84"/>
<polygon fill="#63b8ff" stroke="#63b8ff" points="1093.95,-32.25 1097.65,-22.32 1088.57,-27.77 1093.95,-32.25"/>
</a>
</g>
</g>
<!-- Node14&#45;&gt;Node11 -->
<g id="edge28_Node000014_Node000011" class="edge">
<title>Node14&#45;&gt;Node11</title>
<g id="a_edge28_Node000014_Node000011"><a xlink:title=" ">
<path fill="none" stroke="#63b8ff" d="M956.05,-119.43C888.45,-106.83 773.09,-85.33 715.54,-74.61"/>
<polygon fill="#63b8ff" stroke="#63b8ff" points="716.46,-71.22 705.99,-72.83 715.18,-78.1 716.46,-71.22"/>
</a>
</g>
</g>
<!-- Node15&#45;&gt;Node5 -->
<g id="edge30_Node000015_Node000005" class="edge">
<title>Node15&#45;&gt;Node5</title>
<g id="a_edge30_Node000015_Node000005"><a xlink:title=" ">
<path fill="none" stroke="#63b8ff" d="M1291.01,-115.06C1287.89,-114.52 1284.79,-113.99 1281.75,-113.5 1178.49,-96.76 1057.79,-82.73 985.13,-74.89"/>
<polygon fill="#63b8ff" stroke="#63b8ff" points="985.72,-71.43 975.4,-73.84 984.97,-78.39 985.72,-71.43"/>
</a>
</g>
</g>
<!-- Node15&#45;&gt;Node7 -->
<g id="edge32_Node000015_Node000007" class="edge">
<title>Node15&#45;&gt;Node7</title>
<g id="a_edge32_Node000015_Node000007"><a xlink:title=" ">
<path fill="none" stroke="#63b8ff" d="M1338.33,-113.21C1309.97,-93.03 1263.74,-60.54 1254.75,-56.75 1183.19,-26.57 1157.18,-37.42 1077.07,-20.87"/>
<polygon fill="#63b8ff" stroke="#63b8ff" points="1077.93,-17.48 1067.42,-18.79 1076.46,-24.32 1077.93,-17.48"/>
</a>
</g>
</g>
<!-- Node15&#45;&gt;Node9 -->
<g id="edge33_Node000015_Node000009" class="edge">
<title>Node15&#45;&gt;Node9</title>
<g id="a_edge33_Node000015_Node000009"><a xlink:title=" ">
<path fill="none" stroke="#63b8ff" d="M1348.89,-113.16C1335.77,-96.54 1313.11,-71.06 1287.75,-56.75 1240.78,-30.24 1178.35,-19.02 1140.44,-14.42"/>
<polygon fill="#63b8ff" stroke="#63b8ff" points="1140.87,-10.94 1130.54,-13.31 1140.09,-17.9 1140.87,-10.94"/>
</a>
</g>
</g>
<!-- Node16 -->
<g id="Node000016" class="node">
<title>Node16</title>
<g id="a_Node000016"><a xlink:title=" ">
<polygon fill="#e0e0e0" stroke="#999999" points="1245.25,-77.5 1136.25,-77.5 1136.25,-56.75 1245.25,-56.75 1245.25,-77.5"/>
<text text-anchor="middle" x="1190.75" y="-64" font-family="Helvetica,sans-Serif" font-size="10.00">nlohmann/json.hpp</text>
</a>
</g>
</g>
<!-- Node15&#45;&gt;Node16 -->
<g id="edge31_Node000015_Node000016" class="edge">
<title>Node15&#45;&gt;Node16</title>
<g id="a_edge31_Node000015_Node000016"><a xlink:title=" ">
<path fill="none" stroke="#63b8ff" d="M1315.64,-113.03C1288.56,-103.29 1254.5,-91.05 1228.79,-81.8"/>
<polygon fill="#63b8ff" stroke="#63b8ff" points="1230,-78.52 1219.4,-78.43 1227.63,-85.1 1230,-78.52"/>
</a>
</g>
</g>
<!-- Node17&#45;&gt;Node3 -->
<g id="edge36_Node000017_Node000003" class="edge">
<title>Node17&#45;&gt;Node3</title>
<g id="a_edge36_Node000017_Node000003"><a xlink:title=" ">
<path fill="none" stroke="#63b8ff" d="M1146.77,-119.38C1134.71,-117.19 1121.79,-115.07 1109.75,-113.5 905.96,-86.95 852.62,-103.43 648.75,-77.5 646.13,-77.17 643.44,-76.79 640.73,-76.39"/>
<polygon fill="#63b8ff" stroke="#63b8ff" points="641.52,-72.97 631.1,-74.86 640.42,-79.89 641.52,-72.97"/>
</a>
</g>
</g>
<!-- Node17&#45;&gt;Node5 -->
<g id="edge35_Node000017_Node000005" class="edge">
<title>Node17&#45;&gt;Node5</title>
<g id="a_edge35_Node000017_Node000005"><a xlink:title=" ">
<path fill="none" stroke="#63b8ff" d="M1151.41,-119.43C1103.42,-108.8 1026.83,-91.84 974.98,-80.36"/>
<polygon fill="#63b8ff" stroke="#63b8ff" points="975.98,-76.99 965.46,-78.25 974.47,-83.83 975.98,-76.99"/>
</a>
</g>
</g>
<!-- Node17&#45;&gt;Node9 -->
<g id="edge38_Node000017_Node000009" class="edge">
<title>Node17&#45;&gt;Node9</title>
<g id="a_edge38_Node000017_Node000009"><a xlink:title=" ">
<path fill="none" stroke="#63b8ff" d="M1177.33,-119.52C1161.99,-110.53 1140.65,-95.81 1127.75,-77.5 1118.29,-64.08 1112.95,-46.21 1110.03,-32.43"/>
<polygon fill="#63b8ff" stroke="#63b8ff" points="1113.48,-31.87 1108.24,-22.66 1106.6,-33.12 1113.48,-31.87"/>
</a>
</g>
</g>
<!-- Node17&#45;&gt;Node16 -->
<g id="edge37_Node000017_Node000016" class="edge">
<title>Node17&#45;&gt;Node16</title>
<g id="a_edge37_Node000017_Node000016"><a xlink:title=" ">
<path fill="none" stroke="#63b8ff" d="M1194.95,-119.43C1194.28,-111.27 1193.31,-99.38 1192.47,-89.1"/>
<polygon fill="#63b8ff" stroke="#63b8ff" points="1195.96,-88.91 1191.66,-79.23 1188.99,-89.48 1195.96,-88.91"/>
</a>
</g>
</g>
<!-- Node18&#45;&gt;Node6 -->
<g id="edge41_Node000018_Node000006" class="edge">
<title>Node18&#45;&gt;Node6</title>
<g id="a_edge41_Node000018_Node000006"><a xlink:title=" ">
<path fill="none" stroke="#63b8ff" d="M1567.56,-60.28C1552.19,-59.03 1535.91,-57.78 1520.75,-56.75 1222.79,-36.51 1144.86,-66.61 849.75,-20.75 849.63,-20.73 849.52,-20.71 849.4,-20.7"/>
<polygon fill="#63b8ff" stroke="#63b8ff" points="850.38,-17.32 839.88,-18.79 849,-24.18 850.38,-17.32"/>
</a>
</g>
</g>
<!-- Node18&#45;&gt;Node9 -->
<g id="edge44_Node000018_Node000009" class="edge">
<title>Node18&#45;&gt;Node9</title>
<g id="a_edge44_Node000018_Node000009"><a xlink:title=" ">
<path fill="none" stroke="#63b8ff" d="M1567.57,-58.28C1562.9,-57.75 1558.25,-57.24 1553.75,-56.75 1399.49,-39.99 1215.06,-21.88 1140.49,-14.64"/>
<polygon fill="#63b8ff" stroke="#63b8ff" points="1140.88,-11.16 1130.59,-13.68 1140.21,-18.13 1140.88,-11.16"/>
</a>
</g>
</g>
<!-- Node19 -->
<g id="Node000019" class="node">
<title>Node19</title>
<g id="a_Node000019"><a xlink:title=" ">
<polygon fill="#e0e0e0" stroke="#999999" points="1621.88,-20.75 1555.62,-20.75 1555.62,0 1621.88,0 1621.88,-20.75"/>
<text text-anchor="middle" x="1588.75" y="-7.25" font-family="Helvetica,sans-Serif" font-size="10.00">fmt/core.h</text>
</a>
</g>
</g>
<!-- Node18&#45;&gt;Node19 -->
<g id="edge40_Node000018_Node000019" class="edge">
<title>Node18&#45;&gt;Node19</title>
<g id="a_edge40_Node000018_Node000019"><a xlink:title=" ">
<path fill="none" stroke="#63b8ff" d="M1626.53,-56.34C1620.31,-48.94 1611.6,-38.57 1604.11,-29.66"/>
<polygon fill="#63b8ff" stroke="#63b8ff" points="1606.99,-27.64 1597.88,-22.24 1601.63,-32.15 1606.99,-27.64"/>
</a>
</g>
</g>
<!-- Node18&#45;&gt;Node20 -->
<g id="edge42_Node000018_Node000020" class="edge">
<title>Node18&#45;&gt;Node20</title>
<g id="a_edge42_Node000018_Node000020"><a xlink:title=" ">
<path fill="none" stroke="#63b8ff" d="M1659.96,-56.34C1682.31,-47.66 1715.21,-34.88 1740.23,-25.17"/>
<polygon fill="#63b8ff" stroke="#63b8ff" points="1741.29,-28.51 1749.35,-21.63 1738.76,-21.98 1741.29,-28.51"/>
</a>
</g>
</g>
<!-- Node21 -->
<g id="Node000021" class="node">
<title>Node21</title>
<g id="a_Node000021"><a xlink:title=" ">
<polygon fill="#e0e0e0" stroke="#999999" points="1695.62,-20.75 1639.88,-20.75 1639.88,0 1695.62,0 1695.62,-20.75"/>
<text text-anchor="middle" x="1667.75" y="-7.25" font-family="Helvetica,sans-Serif" font-size="10.00">sstream</text>
</a>
</g>
</g>
<!-- Node18&#45;&gt;Node21 -->
<g id="edge43_Node000018_Node000021" class="edge">
<title>Node18&#45;&gt;Node21</title>
<g id="a_edge43_Node000018_Node000021"><a xlink:title=" ">
<path fill="none" stroke="#63b8ff" d="M1640.65,-56.34C1644.92,-49.25 1650.83,-39.44 1656.05,-30.79"/>
<polygon fill="#63b8ff" stroke="#63b8ff" points="1658.96,-32.75 1661.12,-22.37 1652.96,-29.13 1658.96,-32.75"/>
</a>
</g>
</g>
<!-- Node22&#45;&gt;Node9 -->
<g id="edge48_Node000022_Node000009" class="edge">
<title>Node22&#45;&gt;Node9</title>
<g id="a_edge48_Node000022_Node000009"><a xlink:title=" ">
<path fill="none" stroke="#63b8ff" d="M1715.99,-119.43C1671.67,-111.09 1610.27,-97.3 1558.75,-77.5 1540.79,-70.6 1539.11,-62.52 1520.75,-56.75 1384.47,-13.92 1211.96,-10.17 1140.31,-10.69"/>
<polygon fill="#63b8ff" stroke="#63b8ff" points="1140.39,-7.19 1130.43,-10.8 1140.46,-14.19 1140.39,-7.19"/>
</a>
</g>
</g>
<!-- Node22&#45;&gt;Node18 -->
<g id="edge46_Node000022_Node000018" class="edge">
<title>Node22&#45;&gt;Node18</title>
<g id="a_edge46_Node000022_Node000018"><a xlink:title=" ">
<path fill="none" stroke="#63b8ff" d="M1753.1,-119.43C1729.97,-109.4 1693.84,-93.74 1667.58,-82.36"/>
<polygon fill="#63b8ff" stroke="#63b8ff" points="1669.3,-79.29 1658.74,-78.52 1666.52,-85.71 1669.3,-79.29"/>
</a>
</g>
</g>
<!-- Node22&#45;&gt;Node20 -->
<g id="edge47_Node000022_Node000020" class="edge">
<title>Node22&#45;&gt;Node20</title>
<g id="a_edge47_Node000022_Node000020"><a xlink:title=" ">
<path fill="none" stroke="#63b8ff" d="M1775.75,-119.6C1775.75,-100.69 1775.75,-58.36 1775.75,-32.6"/>
<polygon fill="#63b8ff" stroke="#63b8ff" points="1779.25,-32.67 1775.75,-22.67 1772.25,-32.67 1779.25,-32.67"/>
</a>
</g>
</g>
<!-- Node23&#45;&gt;Node18 -->
<g id="edge50_Node000023_Node000018" class="edge">
<title>Node23&#45;&gt;Node18</title>
<g id="a_edge50_Node000023_Node000018"><a xlink:title=" ">
<path fill="none" stroke="#63b8ff" d="M1605.37,-119.43C1610.3,-110.82 1617.61,-98.06 1623.7,-87.42"/>
<polygon fill="#63b8ff" stroke="#63b8ff" points="1626.57,-89.45 1628.5,-79.03 1620.5,-85.97 1626.57,-89.45"/>
</a>
</g>
</g>
<!-- Node24&#45;&gt;Node3 -->
<g id="edge54_Node000024_Node000003" class="edge">
<title>Node24&#45;&gt;Node3</title>
<g id="a_edge54_Node000024_Node000003"><a xlink:title=" ">
<path fill="none" stroke="#63b8ff" d="M131.93,-114.95C134.91,-114.43 137.86,-113.95 140.75,-113.5 289.93,-90.47 468.52,-76.62 550.53,-71.02"/>
<polygon fill="#63b8ff" stroke="#63b8ff" points="550.66,-74.51 560.41,-70.35 550.19,-67.53 550.66,-74.51"/>
</a>
</g>
</g>
<!-- Node24&#45;&gt;Node5 -->
<g id="edge52_Node000024_Node000005" class="edge">
<title>Node24&#45;&gt;Node5</title>
<g id="a_edge52_Node000024_Node000005"><a xlink:title=" ">
<path fill="none" stroke="#63b8ff" d="M131.91,-114.8C134.89,-114.32 137.85,-113.89 140.75,-113.5 210.44,-104.21 679.33,-80.15 854.18,-71.38"/>
<polygon fill="#63b8ff" stroke="#63b8ff" points="854.19,-74.89 864,-70.89 853.84,-67.9 854.19,-74.89"/>
</a>
</g>
</g>
<!-- Node24&#45;&gt;Node6 -->
<g id="edge53_Node000024_Node000006" class="edge">
<title>Node24&#45;&gt;Node6</title>
<g id="a_edge53_Node000024_Node000006"><a xlink:title=" ">
<path fill="none" stroke="#63b8ff" d="M108.93,-113.13C156.1,-96.23 234.22,-70.28 303.75,-56.75 479.02,-22.64 693.23,-14.12 777.37,-12.04"/>
<polygon fill="#63b8ff" stroke="#63b8ff" points="777.39,-15.54 787.3,-11.81 777.23,-8.54 777.39,-15.54"/>
</a>
</g>
</g>
<!-- Node24&#45;&gt;Node9 -->
<g id="edge55_Node000024_Node000009" class="edge">
<title>Node24&#45;&gt;Node9</title>
<g id="a_edge55_Node000024_Node000009"><a xlink:title=" ">
<path fill="none" stroke="#63b8ff" d="M131.98,-115.21C134.94,-114.62 137.88,-114.05 140.75,-113.5 286.49,-85.64 322.35,-73.79 469.75,-56.75 733.67,-26.23 807.36,-65.8 1073.35,-20.52"/>
<polygon fill="#63b8ff" stroke="#63b8ff" points="1073.77,-23.99 1083.03,-18.84 1072.58,-17.1 1073.77,-23.99"/>
</a>
</g>
</g>
<!-- Node25&#45;&gt;Node9 -->
<g id="edge57_Node000025_Node000009" class="edge">
<title>Node25&#45;&gt;Node9</title>
<g id="a_edge57_Node000025_Node000009"><a xlink:title=" ">
<path fill="none" stroke="#63b8ff" d="M1368.35,-56.27C1301.81,-44.85 1194.37,-26.41 1140.22,-17.12"/>
<polygon fill="#63b8ff" stroke="#63b8ff" points="1140.83,-13.67 1130.39,-15.43 1139.65,-20.57 1140.83,-13.67"/>
</a>
</g>
</g>
</g>
</svg>
